%FSLAX45Y45*%
G04 Gerber Fmt 4.5, Leading zero omitted, Abs format (unit mm)*
G04 Created by KiCad (PCBNEW (5.1.4)-1) date 2024-04-24 20:57:03*
%MOMM*%
%LPD*%
G04 APERTURE LIST*
%ADD10C,0.050000*%
%ADD11C,0.200000*%
%ADD12C,0.300000*%
G04 APERTURE END LIST*
D10*
X17550877Y-658825D02*
X20865396Y760317D01*
X17550877Y-658825D02*
X15900876Y3421175D01*
X21849504Y-287313D02*
X21988295Y-684223D01*
X19682407Y-2424763D02*
X21988295Y-684223D01*
X8517683Y-682819D02*
X10823571Y-2423360D01*
X18780877Y-2688825D02*
X19682407Y-2424763D01*
X15900876Y3421175D02*
X15330876Y4831175D01*
X11710876Y-2688825D02*
X18780877Y-2688825D01*
X12950876Y-658825D02*
X9640583Y761721D01*
X12950876Y-658825D02*
X14600876Y3421175D01*
X11710876Y-2688825D02*
X10823571Y-2423360D01*
X14600876Y3421175D02*
X15170876Y4831175D01*
X15330876Y4831175D02*
X15170876Y4831175D01*
X21849504Y-287313D02*
X21064224Y722010D01*
X9640583Y761721D02*
X9441755Y723414D01*
X8656474Y-285910D02*
X8517683Y-682819D01*
X20865396Y760317D02*
X21064224Y722010D01*
X8656474Y-285910D02*
X9441755Y723414D01*
D11*
X19900000Y-600000D02*
X19940000Y-640000D01*
X19940000Y-600000D02*
X19900000Y-640000D01*
X21186514Y-1154791D02*
G75*
G03X21186514Y-1154791I-50000J0D01*
G01*
X21389368Y-1001930D02*
G75*
G03X21389368Y-1001930I-50000J0D01*
G01*
X21592221Y-849069D02*
G75*
G03X21592221Y-849069I-50000J0D01*
G01*
X21795074Y-696208D02*
G75*
G03X21795074Y-696208I-50000J0D01*
G01*
X8825702Y-711568D02*
G75*
G03X8825702Y-711568I-50000J0D01*
G01*
X9028555Y-864429D02*
G75*
G03X9028555Y-864429I-50000J0D01*
G01*
X9231408Y-1017290D02*
G75*
G03X9231408Y-1017290I-50000J0D01*
G01*
X9434262Y-1170151D02*
G75*
G03X9434262Y-1170151I-50000J0D01*
G01*
X15300876Y3141175D02*
G75*
G03X15300876Y3141175I-50000J0D01*
G01*
X15300876Y2887175D02*
G75*
G03X15300876Y2887175I-50000J0D01*
G01*
X15300876Y2633175D02*
G75*
G03X15300876Y2633175I-50000J0D01*
G01*
X15300876Y2379175D02*
G75*
G03X15300876Y2379175I-50000J0D01*
G01*
X18415781Y-1812723D02*
G75*
G03X18415781Y-1812723I-50000J0D01*
G01*
X18568642Y-2015576D02*
G75*
G03X18568642Y-2015576I-50000J0D01*
G01*
X18721503Y-2218430D02*
G75*
G03X18721503Y-2218430I-50000J0D01*
G01*
X18874364Y-2421283D02*
G75*
G03X18874364Y-2421283I-50000J0D01*
G01*
X11718428Y-2441144D02*
G75*
G03X11718428Y-2441144I-50000J0D01*
G01*
X11871289Y-2238290D02*
G75*
G03X11871289Y-2238290I-50000J0D01*
G01*
X12024150Y-2035437D02*
G75*
G03X12024150Y-2035437I-50000J0D01*
G01*
X12177011Y-1832583D02*
G75*
G03X12177011Y-1832583I-50000J0D01*
G01*
D12*
X8801612Y-3157039D02*
X8801612Y-2857039D01*
X8873040Y-2857039D01*
X8915897Y-2871325D01*
X8944469Y-2899896D01*
X8958754Y-2928468D01*
X8973040Y-2985611D01*
X8973040Y-3028468D01*
X8958754Y-3085611D01*
X8944469Y-3114182D01*
X8915897Y-3142753D01*
X8873040Y-3157039D01*
X8801612Y-3157039D01*
X9101612Y-3157039D02*
X9101612Y-2957039D01*
X9101612Y-3014182D02*
X9115897Y-2985611D01*
X9130183Y-2971325D01*
X9158754Y-2957039D01*
X9187326Y-2957039D01*
X9287326Y-3157039D02*
X9287326Y-2957039D01*
X9287326Y-2857039D02*
X9273040Y-2871325D01*
X9287326Y-2885611D01*
X9301612Y-2871325D01*
X9287326Y-2857039D01*
X9287326Y-2885611D01*
X9473040Y-3157039D02*
X9444469Y-3142753D01*
X9430183Y-3114182D01*
X9430183Y-2857039D01*
X9630183Y-3157039D02*
X9601612Y-3142753D01*
X9587326Y-3114182D01*
X9587326Y-2857039D01*
X9973040Y-3157039D02*
X9973040Y-2857039D01*
X10073040Y-3071325D01*
X10173040Y-2857039D01*
X10173040Y-3157039D01*
X10444469Y-3157039D02*
X10444469Y-2999896D01*
X10430183Y-2971325D01*
X10401612Y-2957039D01*
X10344469Y-2957039D01*
X10315897Y-2971325D01*
X10444469Y-3142753D02*
X10415897Y-3157039D01*
X10344469Y-3157039D01*
X10315897Y-3142753D01*
X10301612Y-3114182D01*
X10301612Y-3085611D01*
X10315897Y-3057039D01*
X10344469Y-3042753D01*
X10415897Y-3042753D01*
X10444469Y-3028468D01*
X10587326Y-2957039D02*
X10587326Y-3257039D01*
X10587326Y-2971325D02*
X10615897Y-2957039D01*
X10673040Y-2957039D01*
X10701612Y-2971325D01*
X10715897Y-2985611D01*
X10730183Y-3014182D01*
X10730183Y-3099896D01*
X10715897Y-3128468D01*
X10701612Y-3142753D01*
X10673040Y-3157039D01*
X10615897Y-3157039D01*
X10587326Y-3142753D01*
X10858754Y-3128468D02*
X10873040Y-3142753D01*
X10858754Y-3157039D01*
X10844469Y-3142753D01*
X10858754Y-3128468D01*
X10858754Y-3157039D01*
X10858754Y-2971325D02*
X10873040Y-2985611D01*
X10858754Y-2999896D01*
X10844469Y-2985611D01*
X10858754Y-2971325D01*
X10858754Y-2999896D01*
X8475183Y-3631325D02*
X8515183Y-3671325D01*
X8515183Y-3631325D02*
X8475183Y-3671325D01*
X8858754Y-3487039D02*
X8887326Y-3487039D01*
X8915897Y-3501325D01*
X8930183Y-3515611D01*
X8944469Y-3544182D01*
X8958754Y-3601325D01*
X8958754Y-3672753D01*
X8944469Y-3729896D01*
X8930183Y-3758468D01*
X8915897Y-3772753D01*
X8887326Y-3787039D01*
X8858754Y-3787039D01*
X8830183Y-3772753D01*
X8815897Y-3758468D01*
X8801612Y-3729896D01*
X8787326Y-3672753D01*
X8787326Y-3601325D01*
X8801612Y-3544182D01*
X8815897Y-3515611D01*
X8830183Y-3501325D01*
X8858754Y-3487039D01*
X9087326Y-3758468D02*
X9101612Y-3772753D01*
X9087326Y-3787039D01*
X9073040Y-3772753D01*
X9087326Y-3758468D01*
X9087326Y-3787039D01*
X9358754Y-3587039D02*
X9358754Y-3787039D01*
X9287326Y-3472753D02*
X9215897Y-3687039D01*
X9401612Y-3687039D01*
X9573040Y-3487039D02*
X9601612Y-3487039D01*
X9630183Y-3501325D01*
X9644469Y-3515611D01*
X9658754Y-3544182D01*
X9673040Y-3601325D01*
X9673040Y-3672753D01*
X9658754Y-3729896D01*
X9644469Y-3758468D01*
X9630183Y-3772753D01*
X9601612Y-3787039D01*
X9573040Y-3787039D01*
X9544469Y-3772753D01*
X9530183Y-3758468D01*
X9515897Y-3729896D01*
X9501612Y-3672753D01*
X9501612Y-3601325D01*
X9515897Y-3544182D01*
X9530183Y-3515611D01*
X9544469Y-3501325D01*
X9573040Y-3487039D01*
X9801612Y-3787039D02*
X9801612Y-3587039D01*
X9801612Y-3615611D02*
X9815897Y-3601325D01*
X9844469Y-3587039D01*
X9887326Y-3587039D01*
X9915897Y-3601325D01*
X9930183Y-3629896D01*
X9930183Y-3787039D01*
X9930183Y-3629896D02*
X9944469Y-3601325D01*
X9973040Y-3587039D01*
X10015897Y-3587039D01*
X10044469Y-3601325D01*
X10058754Y-3629896D01*
X10058754Y-3787039D01*
X10201612Y-3787039D02*
X10201612Y-3587039D01*
X10201612Y-3615611D02*
X10215897Y-3601325D01*
X10244469Y-3587039D01*
X10287326Y-3587039D01*
X10315897Y-3601325D01*
X10330183Y-3629896D01*
X10330183Y-3787039D01*
X10330183Y-3629896D02*
X10344469Y-3601325D01*
X10373040Y-3587039D01*
X10415897Y-3587039D01*
X10444469Y-3601325D01*
X10458754Y-3629896D01*
X10458754Y-3787039D01*
X11044469Y-3472753D02*
X10787326Y-3858468D01*
X11430183Y-3487039D02*
X11458754Y-3487039D01*
X11487326Y-3501325D01*
X11501611Y-3515611D01*
X11515897Y-3544182D01*
X11530183Y-3601325D01*
X11530183Y-3672753D01*
X11515897Y-3729896D01*
X11501611Y-3758468D01*
X11487326Y-3772753D01*
X11458754Y-3787039D01*
X11430183Y-3787039D01*
X11401611Y-3772753D01*
X11387326Y-3758468D01*
X11373040Y-3729896D01*
X11358754Y-3672753D01*
X11358754Y-3601325D01*
X11373040Y-3544182D01*
X11387326Y-3515611D01*
X11401611Y-3501325D01*
X11430183Y-3487039D01*
X11658754Y-3758468D02*
X11673040Y-3772753D01*
X11658754Y-3787039D01*
X11644469Y-3772753D01*
X11658754Y-3758468D01*
X11658754Y-3787039D01*
X11858754Y-3487039D02*
X11887326Y-3487039D01*
X11915897Y-3501325D01*
X11930183Y-3515611D01*
X11944469Y-3544182D01*
X11958754Y-3601325D01*
X11958754Y-3672753D01*
X11944469Y-3729896D01*
X11930183Y-3758468D01*
X11915897Y-3772753D01*
X11887326Y-3787039D01*
X11858754Y-3787039D01*
X11830183Y-3772753D01*
X11815897Y-3758468D01*
X11801611Y-3729896D01*
X11787326Y-3672753D01*
X11787326Y-3601325D01*
X11801611Y-3544182D01*
X11815897Y-3515611D01*
X11830183Y-3501325D01*
X11858754Y-3487039D01*
X12244469Y-3787039D02*
X12073040Y-3787039D01*
X12158754Y-3787039D02*
X12158754Y-3487039D01*
X12130183Y-3529896D01*
X12101611Y-3558468D01*
X12073040Y-3572753D01*
X12501611Y-3487039D02*
X12444469Y-3487039D01*
X12415897Y-3501325D01*
X12401611Y-3515611D01*
X12373040Y-3558468D01*
X12358754Y-3615611D01*
X12358754Y-3729896D01*
X12373040Y-3758468D01*
X12387326Y-3772753D01*
X12415897Y-3787039D01*
X12473040Y-3787039D01*
X12501611Y-3772753D01*
X12515897Y-3758468D01*
X12530183Y-3729896D01*
X12530183Y-3658468D01*
X12515897Y-3629896D01*
X12501611Y-3615611D01*
X12473040Y-3601325D01*
X12415897Y-3601325D01*
X12387326Y-3615611D01*
X12373040Y-3629896D01*
X12358754Y-3658468D01*
X12644469Y-3487039D02*
X12644469Y-3544182D01*
X12758754Y-3487039D02*
X12758754Y-3544182D01*
X13201611Y-3901325D02*
X13187326Y-3887039D01*
X13158754Y-3844182D01*
X13144469Y-3815611D01*
X13130183Y-3772753D01*
X13115897Y-3701325D01*
X13115897Y-3644182D01*
X13130183Y-3572753D01*
X13144469Y-3529896D01*
X13158754Y-3501325D01*
X13187326Y-3458468D01*
X13201611Y-3444182D01*
X13473040Y-3787039D02*
X13301611Y-3787039D01*
X13387326Y-3787039D02*
X13387326Y-3487039D01*
X13358754Y-3529896D01*
X13330183Y-3558468D01*
X13301611Y-3572753D01*
X13830183Y-3787039D02*
X13830183Y-3487039D01*
X13958754Y-3787039D02*
X13958754Y-3629896D01*
X13944469Y-3601325D01*
X13915897Y-3587039D01*
X13873040Y-3587039D01*
X13844469Y-3601325D01*
X13830183Y-3615611D01*
X14144469Y-3787039D02*
X14115897Y-3772753D01*
X14101611Y-3758468D01*
X14087326Y-3729896D01*
X14087326Y-3644182D01*
X14101611Y-3615611D01*
X14115897Y-3601325D01*
X14144469Y-3587039D01*
X14187326Y-3587039D01*
X14215897Y-3601325D01*
X14230183Y-3615611D01*
X14244469Y-3644182D01*
X14244469Y-3729896D01*
X14230183Y-3758468D01*
X14215897Y-3772753D01*
X14187326Y-3787039D01*
X14144469Y-3787039D01*
X14415897Y-3787039D02*
X14387326Y-3772753D01*
X14373040Y-3744182D01*
X14373040Y-3487039D01*
X14644469Y-3772753D02*
X14615897Y-3787039D01*
X14558754Y-3787039D01*
X14530183Y-3772753D01*
X14515897Y-3744182D01*
X14515897Y-3629896D01*
X14530183Y-3601325D01*
X14558754Y-3587039D01*
X14615897Y-3587039D01*
X14644469Y-3601325D01*
X14658754Y-3629896D01*
X14658754Y-3658468D01*
X14515897Y-3687039D01*
X14758754Y-3901325D02*
X14773040Y-3887039D01*
X14801611Y-3844182D01*
X14815897Y-3815611D01*
X14830183Y-3772753D01*
X14844469Y-3701325D01*
X14844469Y-3644182D01*
X14830183Y-3572753D01*
X14815897Y-3529896D01*
X14801611Y-3501325D01*
X14773040Y-3458468D01*
X14758754Y-3444182D01*
X8515183Y-4047325D02*
G75*
G03X8515183Y-4047325I-50000J0D01*
G01*
X8958754Y-4183039D02*
X8787326Y-4183039D01*
X8873040Y-4183039D02*
X8873040Y-3883039D01*
X8844469Y-3925896D01*
X8815897Y-3954468D01*
X8787326Y-3968753D01*
X9087326Y-4154468D02*
X9101612Y-4168753D01*
X9087326Y-4183039D01*
X9073040Y-4168753D01*
X9087326Y-4154468D01*
X9087326Y-4183039D01*
X9287326Y-3883039D02*
X9315897Y-3883039D01*
X9344469Y-3897325D01*
X9358754Y-3911611D01*
X9373040Y-3940182D01*
X9387326Y-3997325D01*
X9387326Y-4068753D01*
X9373040Y-4125896D01*
X9358754Y-4154468D01*
X9344469Y-4168753D01*
X9315897Y-4183039D01*
X9287326Y-4183039D01*
X9258754Y-4168753D01*
X9244469Y-4154468D01*
X9230183Y-4125896D01*
X9215897Y-4068753D01*
X9215897Y-3997325D01*
X9230183Y-3940182D01*
X9244469Y-3911611D01*
X9258754Y-3897325D01*
X9287326Y-3883039D01*
X9573040Y-3883039D02*
X9601612Y-3883039D01*
X9630183Y-3897325D01*
X9644469Y-3911611D01*
X9658754Y-3940182D01*
X9673040Y-3997325D01*
X9673040Y-4068753D01*
X9658754Y-4125896D01*
X9644469Y-4154468D01*
X9630183Y-4168753D01*
X9601612Y-4183039D01*
X9573040Y-4183039D01*
X9544469Y-4168753D01*
X9530183Y-4154468D01*
X9515897Y-4125896D01*
X9501612Y-4068753D01*
X9501612Y-3997325D01*
X9515897Y-3940182D01*
X9530183Y-3911611D01*
X9544469Y-3897325D01*
X9573040Y-3883039D01*
X9801612Y-4183039D02*
X9801612Y-3983039D01*
X9801612Y-4011611D02*
X9815897Y-3997325D01*
X9844469Y-3983039D01*
X9887326Y-3983039D01*
X9915897Y-3997325D01*
X9930183Y-4025896D01*
X9930183Y-4183039D01*
X9930183Y-4025896D02*
X9944469Y-3997325D01*
X9973040Y-3983039D01*
X10015897Y-3983039D01*
X10044469Y-3997325D01*
X10058754Y-4025896D01*
X10058754Y-4183039D01*
X10201612Y-4183039D02*
X10201612Y-3983039D01*
X10201612Y-4011611D02*
X10215897Y-3997325D01*
X10244469Y-3983039D01*
X10287326Y-3983039D01*
X10315897Y-3997325D01*
X10330183Y-4025896D01*
X10330183Y-4183039D01*
X10330183Y-4025896D02*
X10344469Y-3997325D01*
X10373040Y-3983039D01*
X10415897Y-3983039D01*
X10444469Y-3997325D01*
X10458754Y-4025896D01*
X10458754Y-4183039D01*
X11044469Y-3868753D02*
X10787326Y-4254468D01*
X11430183Y-3883039D02*
X11458754Y-3883039D01*
X11487326Y-3897325D01*
X11501611Y-3911611D01*
X11515897Y-3940182D01*
X11530183Y-3997325D01*
X11530183Y-4068753D01*
X11515897Y-4125896D01*
X11501611Y-4154468D01*
X11487326Y-4168753D01*
X11458754Y-4183039D01*
X11430183Y-4183039D01*
X11401611Y-4168753D01*
X11387326Y-4154468D01*
X11373040Y-4125896D01*
X11358754Y-4068753D01*
X11358754Y-3997325D01*
X11373040Y-3940182D01*
X11387326Y-3911611D01*
X11401611Y-3897325D01*
X11430183Y-3883039D01*
X11658754Y-4154468D02*
X11673040Y-4168753D01*
X11658754Y-4183039D01*
X11644469Y-4168753D01*
X11658754Y-4154468D01*
X11658754Y-4183039D01*
X11858754Y-3883039D02*
X11887326Y-3883039D01*
X11915897Y-3897325D01*
X11930183Y-3911611D01*
X11944469Y-3940182D01*
X11958754Y-3997325D01*
X11958754Y-4068753D01*
X11944469Y-4125896D01*
X11930183Y-4154468D01*
X11915897Y-4168753D01*
X11887326Y-4183039D01*
X11858754Y-4183039D01*
X11830183Y-4168753D01*
X11815897Y-4154468D01*
X11801611Y-4125896D01*
X11787326Y-4068753D01*
X11787326Y-3997325D01*
X11801611Y-3940182D01*
X11815897Y-3911611D01*
X11830183Y-3897325D01*
X11858754Y-3883039D01*
X12058754Y-3883039D02*
X12244469Y-3883039D01*
X12144469Y-3997325D01*
X12187326Y-3997325D01*
X12215897Y-4011611D01*
X12230183Y-4025896D01*
X12244469Y-4054468D01*
X12244469Y-4125896D01*
X12230183Y-4154468D01*
X12215897Y-4168753D01*
X12187326Y-4183039D01*
X12101611Y-4183039D01*
X12073040Y-4168753D01*
X12058754Y-4154468D01*
X12387326Y-4183039D02*
X12444469Y-4183039D01*
X12473040Y-4168753D01*
X12487326Y-4154468D01*
X12515897Y-4111611D01*
X12530183Y-4054468D01*
X12530183Y-3940182D01*
X12515897Y-3911611D01*
X12501611Y-3897325D01*
X12473040Y-3883039D01*
X12415897Y-3883039D01*
X12387326Y-3897325D01*
X12373040Y-3911611D01*
X12358754Y-3940182D01*
X12358754Y-4011611D01*
X12373040Y-4040182D01*
X12387326Y-4054468D01*
X12415897Y-4068753D01*
X12473040Y-4068753D01*
X12501611Y-4054468D01*
X12515897Y-4040182D01*
X12530183Y-4011611D01*
X12644469Y-3883039D02*
X12644469Y-3940182D01*
X12758754Y-3883039D02*
X12758754Y-3940182D01*
X13201611Y-4297325D02*
X13187326Y-4283039D01*
X13158754Y-4240182D01*
X13144469Y-4211611D01*
X13130183Y-4168753D01*
X13115897Y-4097325D01*
X13115897Y-4040182D01*
X13130183Y-3968753D01*
X13144469Y-3925896D01*
X13158754Y-3897325D01*
X13187326Y-3854468D01*
X13201611Y-3840182D01*
X13301611Y-3911611D02*
X13315897Y-3897325D01*
X13344469Y-3883039D01*
X13415897Y-3883039D01*
X13444469Y-3897325D01*
X13458754Y-3911611D01*
X13473040Y-3940182D01*
X13473040Y-3968753D01*
X13458754Y-4011611D01*
X13287326Y-4183039D01*
X13473040Y-4183039D01*
X13658754Y-3883039D02*
X13687326Y-3883039D01*
X13715897Y-3897325D01*
X13730183Y-3911611D01*
X13744469Y-3940182D01*
X13758754Y-3997325D01*
X13758754Y-4068753D01*
X13744469Y-4125896D01*
X13730183Y-4154468D01*
X13715897Y-4168753D01*
X13687326Y-4183039D01*
X13658754Y-4183039D01*
X13630183Y-4168753D01*
X13615897Y-4154468D01*
X13601611Y-4125896D01*
X13587326Y-4068753D01*
X13587326Y-3997325D01*
X13601611Y-3940182D01*
X13615897Y-3911611D01*
X13630183Y-3897325D01*
X13658754Y-3883039D01*
X14115897Y-4183039D02*
X14115897Y-3883039D01*
X14244469Y-4183039D02*
X14244469Y-4025896D01*
X14230183Y-3997325D01*
X14201611Y-3983039D01*
X14158754Y-3983039D01*
X14130183Y-3997325D01*
X14115897Y-4011611D01*
X14430183Y-4183039D02*
X14401611Y-4168753D01*
X14387326Y-4154468D01*
X14373040Y-4125896D01*
X14373040Y-4040182D01*
X14387326Y-4011611D01*
X14401611Y-3997325D01*
X14430183Y-3983039D01*
X14473040Y-3983039D01*
X14501611Y-3997325D01*
X14515897Y-4011611D01*
X14530183Y-4040182D01*
X14530183Y-4125896D01*
X14515897Y-4154468D01*
X14501611Y-4168753D01*
X14473040Y-4183039D01*
X14430183Y-4183039D01*
X14701611Y-4183039D02*
X14673040Y-4168753D01*
X14658754Y-4140182D01*
X14658754Y-3883039D01*
X14930183Y-4168753D02*
X14901611Y-4183039D01*
X14844469Y-4183039D01*
X14815897Y-4168753D01*
X14801611Y-4140182D01*
X14801611Y-4025896D01*
X14815897Y-3997325D01*
X14844469Y-3983039D01*
X14901611Y-3983039D01*
X14930183Y-3997325D01*
X14944469Y-4025896D01*
X14944469Y-4054468D01*
X14801611Y-4083039D01*
X15058754Y-4168753D02*
X15087326Y-4183039D01*
X15144469Y-4183039D01*
X15173040Y-4168753D01*
X15187326Y-4140182D01*
X15187326Y-4125896D01*
X15173040Y-4097325D01*
X15144469Y-4083039D01*
X15101611Y-4083039D01*
X15073040Y-4068753D01*
X15058754Y-4040182D01*
X15058754Y-4025896D01*
X15073040Y-3997325D01*
X15101611Y-3983039D01*
X15144469Y-3983039D01*
X15173040Y-3997325D01*
X15287326Y-4297325D02*
X15301611Y-4283039D01*
X15330183Y-4240182D01*
X15344469Y-4211611D01*
X15358754Y-4168753D01*
X15373040Y-4097325D01*
X15373040Y-4040182D01*
X15358754Y-3968753D01*
X15344469Y-3925896D01*
X15330183Y-3897325D01*
X15301611Y-3854468D01*
X15287326Y-3840182D01*
M02*
