M48
; DRILL file {KiCad (5.1.4)-1} date 4/24/2024 8:57:03 PM
; FORMAT={-:-/ absolute / metric / decimal}
; #@! TF.CreationDate,2024-04-24T20:57:03-04:00
; #@! TF.GenerationSoftware,Kicad,Pcbnew,(5.1.4)-1
; #@! TF.FileFunction,NonPlated,1,2,NPTH
FMAT,2
METRIC
T1C1.702
T2C3.000
T3C3.429
%
G90
G05
T1
X115.9Y-16.071
X204.097Y-4.905
X212.882Y1.715
X189.323Y-16.039
X198.108Y-9.419
X92.34Y1.682
X101.125Y-4.938
X107.115Y-9.451
T2
X206.753Y-7.599
X212.071Y-6.347
X190.134Y-7.977
X195.451Y-6.725
X100.313Y3.124
X102.982Y-1.642
X115.088Y-8.009
X117.757Y-12.775
T3
X208.49Y-1.595
X193.715Y-12.729
X96.733Y-1.628
X111.507Y-12.761
T0
M30
