M48
; DRILL file {KiCad (5.1.4)-1} date 4/24/2024 8:57:03 PM
; FORMAT={-:-/ absolute / metric / decimal}
; #@! TF.CreationDate,2024-04-24T20:57:03-04:00
; #@! TF.GenerationSoftware,Kicad,Pcbnew,(5.1.4)-1
; #@! TF.FileFunction,Plated,1,2,PTH
FMAT,2
METRIC
T1C0.400
T2C1.000
%
G90
G05
T1
X199.2Y-6.2
T2
X211.365Y-11.548
X213.394Y-10.019
X215.422Y-8.491
X217.451Y-6.962
X87.757Y-7.116
X89.786Y-8.644
X91.814Y-10.173
X93.843Y-11.702
X152.509Y31.412
X152.509Y28.872
X152.509Y26.332
X152.509Y23.792
X183.658Y-18.127
X185.186Y-20.156
X186.715Y-22.184
X188.244Y-24.213
X116.684Y-24.411
X118.213Y-22.383
X119.742Y-20.354
X121.27Y-18.326
T0
M30
