G04 #@! TF.GenerationSoftware,KiCad,Pcbnew,(5.1.4)-1*
G04 #@! TF.CreationDate,2024-04-24T20:57:01-04:00*
G04 #@! TF.ProjectId,ThumbsUp,5468756d-6273-4557-902e-6b696361645f,rev?*
G04 #@! TF.SameCoordinates,Original*
G04 #@! TF.FileFunction,Legend,Bot*
G04 #@! TF.FilePolarity,Positive*
%FSLAX46Y46*%
G04 Gerber Fmt 4.6, Leading zero omitted, Abs format (unit mm)*
G04 Created by KiCad (PCBNEW (5.1.4)-1) date 2024-04-24 20:57:01*
%MOMM*%
%LPD*%
G04 APERTURE LIST*
%ADD10C,0.150000*%
%ADD11C,0.400000*%
%ADD12C,0.100000*%
%ADD13C,0.254000*%
G04 APERTURE END LIST*
D10*
X198402757Y-7317981D02*
X198101850Y-6918663D01*
X194808897Y-10026148D02*
X198402757Y-7317981D01*
X194387627Y-9467103D02*
X194808897Y-10026148D01*
X191980366Y-6272562D02*
G75*
G02X191280141Y-6174151I-300907J399318D01*
G01*
X187582195Y-7082550D02*
X189978101Y-5277105D01*
X187483784Y-7782776D02*
X187582195Y-7082550D01*
X189590137Y-10578000D02*
X190290362Y-10676410D01*
X195574226Y-3564394D02*
X191980367Y-6272561D01*
X191280141Y-6174151D02*
X190678326Y-5375516D01*
X189978101Y-5277105D02*
X190678326Y-5375516D01*
X192286950Y-9171872D02*
G75*
G02X194387627Y-9467103I902723J-1197954D01*
G01*
X190290362Y-10676410D02*
X192286951Y-9171873D01*
X195935315Y-4043575D02*
X195574226Y-3564394D01*
X203802062Y-7005719D02*
X204102969Y-7405037D01*
X207395922Y-4297552D02*
X203802062Y-7005719D01*
X207817192Y-4856597D02*
X207395922Y-4297552D01*
X210224453Y-8051138D02*
G75*
G02X210924678Y-8149549I300907J-399318D01*
G01*
X214622624Y-7241150D02*
X212226718Y-9046595D01*
X214721035Y-6540924D02*
X214622624Y-7241150D01*
X212614682Y-3745700D02*
X211914457Y-3647290D01*
X206630593Y-10759306D02*
X210224452Y-8051139D01*
X210924678Y-8149549D02*
X211526493Y-8948184D01*
X212226718Y-9046595D02*
X211526493Y-8948184D01*
X209917869Y-5151828D02*
G75*
G02X207817192Y-4856597I-902723J1197954D01*
G01*
X211914457Y-3647290D02*
X209917868Y-5151827D01*
X206269504Y-10280125D02*
X206630593Y-10759306D01*
X103225678Y-4642415D02*
X103526586Y-4243097D01*
X99631818Y-1934247D02*
X103225678Y-4642415D01*
X100053089Y-1375202D02*
X99631818Y-1934247D01*
X102460348Y1819340D02*
G75*
G02X102361939Y2519565I300908J399317D01*
G01*
X100469437Y5823871D02*
X102865343Y4018426D01*
X99769212Y5725460D02*
X100469437Y5823871D01*
X97662859Y2930236D02*
X97761269Y2230011D01*
X106054209Y-888828D02*
X102460349Y1819340D01*
X102361939Y2519565D02*
X102963754Y3318200D01*
X102865343Y4018426D02*
X102963754Y3318200D01*
X99757858Y725473D02*
G75*
G02X100053089Y-1375202I-902722J-1197953D01*
G01*
X97761269Y2230011D02*
X99757858Y725473D01*
X105693120Y-1368009D02*
X106054209Y-888828D01*
X118000435Y-15775992D02*
X118301343Y-15376674D01*
X114406575Y-13067824D02*
X118000435Y-15775992D01*
X114827846Y-12508779D02*
X114406575Y-13067824D01*
X117235105Y-9314237D02*
G75*
G02X117136696Y-8614012I300908J399317D01*
G01*
X115244194Y-5309706D02*
X117640100Y-7115151D01*
X114543969Y-5408117D02*
X115244194Y-5309706D01*
X112437616Y-8203341D02*
X112536026Y-8903566D01*
X120828966Y-12022405D02*
X117235106Y-9314237D01*
X117136696Y-8614012D02*
X117738511Y-7815377D01*
X117640100Y-7115151D02*
X117738511Y-7815377D01*
X114532615Y-10408104D02*
G75*
G02X114827846Y-12508779I-902722J-1197953D01*
G01*
X112536026Y-8903566D02*
X114532615Y-10408104D01*
X120467877Y-12501586D02*
X120828966Y-12022405D01*
D11*
X178532000Y-12508000D02*
G75*
G03X178532000Y-12408000I0J50000D01*
G01*
X178532000Y-12408000D02*
G75*
G03X178532000Y-12508000I0J-50000D01*
G01*
X178532000Y-12408000D02*
X178532000Y-12408000D01*
X178532000Y-12508000D02*
X178532000Y-12508000D01*
D12*
X176982000Y-21058000D02*
X176982000Y-20208000D01*
X173982000Y-21058000D02*
X176982000Y-21058000D01*
X173982000Y-20208000D02*
X173982000Y-21058000D01*
X176982000Y-9358000D02*
X176982000Y-10208000D01*
X173982000Y-9358000D02*
X176982000Y-9358000D01*
X173982000Y-10208000D02*
X173982000Y-9358000D01*
D10*
X200591208Y-10617781D02*
X199989393Y-9819146D01*
X200153049Y-10590205D01*
X199456969Y-10220356D01*
X200058784Y-11018991D01*
X199152727Y-10449619D02*
X199222118Y-11649464D01*
X198620303Y-10850829D02*
X199754542Y-11248254D01*
X198392122Y-11022776D02*
X197897728Y-11395328D01*
X198393203Y-11498965D01*
X198279112Y-11584939D01*
X198231710Y-11680285D01*
X198222337Y-11746973D01*
X198241623Y-11851691D01*
X198384912Y-12041842D01*
X198480258Y-12089245D01*
X198546946Y-12098617D01*
X198651664Y-12079332D01*
X198879846Y-11907385D01*
X198927249Y-11812039D01*
X198936621Y-11745351D01*
X197403335Y-11767880D02*
X197327274Y-11825196D01*
X197279872Y-11920542D01*
X197270499Y-11987230D01*
X197289785Y-12091948D01*
X197366386Y-12272727D01*
X197509675Y-12462879D01*
X197662337Y-12586342D01*
X197757683Y-12633744D01*
X197824371Y-12643117D01*
X197929089Y-12623831D01*
X198005150Y-12566516D01*
X198052553Y-12471170D01*
X198061925Y-12404481D01*
X198042640Y-12299763D01*
X197966038Y-12118984D01*
X197822749Y-11928833D01*
X197670087Y-11805370D01*
X197574741Y-11757967D01*
X197508053Y-11748595D01*
X197403335Y-11767880D01*
X204972349Y-2307811D02*
X204370534Y-1509176D01*
X204534190Y-2280235D01*
X203838110Y-1910386D01*
X204439925Y-2709021D01*
X203533868Y-2139649D02*
X203603259Y-3339494D01*
X203001444Y-2540859D02*
X204135683Y-2938284D01*
X202792548Y-2817524D02*
X202725860Y-2808152D01*
X202621142Y-2827437D01*
X202430990Y-2970726D01*
X202383588Y-3066072D01*
X202374215Y-3132761D01*
X202393501Y-3237479D01*
X202450817Y-3313540D01*
X202574820Y-3398972D01*
X203375078Y-3511441D01*
X202880684Y-3883993D01*
X201594325Y-3601199D02*
X201746446Y-3486568D01*
X201851164Y-3467282D01*
X201917852Y-3476655D01*
X202079886Y-3533430D01*
X202232548Y-3656893D01*
X202461811Y-3961135D01*
X202481096Y-4065854D01*
X202471724Y-4132542D01*
X202424321Y-4227888D01*
X202272200Y-4342519D01*
X202167482Y-4361805D01*
X202100794Y-4352432D01*
X202005448Y-4305030D01*
X201862158Y-4114878D01*
X201842873Y-4010160D01*
X201852245Y-3943472D01*
X201899648Y-3848126D01*
X202051769Y-3733494D01*
X202156488Y-3714209D01*
X202223176Y-3723581D01*
X202318522Y-3770984D01*
X100656925Y-7655637D02*
X101258740Y-6857001D01*
X100562660Y-7226850D01*
X100726316Y-6455791D01*
X100124501Y-7254427D01*
X100422074Y-6226528D02*
X99287835Y-6623954D01*
X99889650Y-5825318D02*
X99820259Y-7025164D01*
X99566123Y-5700774D02*
X99556750Y-5634086D01*
X99509348Y-5538740D01*
X99319196Y-5395450D01*
X99214478Y-5376165D01*
X99147790Y-5385537D01*
X99052444Y-5432940D01*
X98995128Y-5509001D01*
X98947185Y-5651749D01*
X99059654Y-6452007D01*
X98565260Y-6079455D01*
X98805517Y-5127617D02*
X98796145Y-5060929D01*
X98748742Y-4965583D01*
X98558591Y-4822293D01*
X98453873Y-4803008D01*
X98387184Y-4812380D01*
X98291838Y-4859783D01*
X98234523Y-4935843D01*
X98186579Y-5078592D01*
X98299048Y-5878850D01*
X97804655Y-5506297D01*
X115431682Y-18789214D02*
X116033497Y-17990578D01*
X115337417Y-18360427D01*
X115501073Y-17589368D01*
X114899258Y-18388004D01*
X115196831Y-17360105D02*
X114062592Y-17757531D01*
X114664407Y-16958895D02*
X114595016Y-18158741D01*
X113340017Y-17213032D02*
X113796380Y-17556926D01*
X113568199Y-17384979D02*
X114170014Y-16586343D01*
X114160101Y-16757750D01*
X114178845Y-16891126D01*
X114226248Y-16986472D01*
X113227548Y-16412774D02*
X113332267Y-16432060D01*
X113398955Y-16422687D01*
X113494301Y-16375284D01*
X113522959Y-16337254D01*
X113542244Y-16232536D01*
X113532872Y-16165848D01*
X113485469Y-16070502D01*
X113333348Y-15955870D01*
X113228630Y-15936585D01*
X113161941Y-15945957D01*
X113066595Y-15993360D01*
X113037938Y-16031390D01*
X113018652Y-16136109D01*
X113028025Y-16202797D01*
X113075427Y-16298143D01*
X113227548Y-16412774D01*
X113274951Y-16508120D01*
X113284323Y-16574808D01*
X113265038Y-16679527D01*
X113150406Y-16831648D01*
X113055060Y-16879050D01*
X112988372Y-16888423D01*
X112883654Y-16869137D01*
X112731533Y-16754506D01*
X112684130Y-16659160D01*
X112674758Y-16592472D01*
X112694043Y-16487753D01*
X112808675Y-16335632D01*
X112904021Y-16288230D01*
X112970709Y-16278857D01*
X113075427Y-16298143D01*
D13*
X175436523Y-14179904D02*
X176343666Y-14179904D01*
X176525095Y-14119428D01*
X176646047Y-13998476D01*
X176706523Y-13817047D01*
X176706523Y-13696095D01*
X176706523Y-15449904D02*
X176706523Y-14724190D01*
X176706523Y-15087047D02*
X175436523Y-15087047D01*
X175617952Y-14966095D01*
X175738904Y-14845142D01*
X175799380Y-14724190D01*
X176706523Y-16054666D02*
X176706523Y-16296571D01*
X176646047Y-16417523D01*
X176585571Y-16478000D01*
X176404142Y-16598952D01*
X176162238Y-16659428D01*
X175678428Y-16659428D01*
X175557476Y-16598952D01*
X175497000Y-16538476D01*
X175436523Y-16417523D01*
X175436523Y-16175619D01*
X175497000Y-16054666D01*
X175557476Y-15994190D01*
X175678428Y-15933714D01*
X175980809Y-15933714D01*
X176101761Y-15994190D01*
X176162238Y-16054666D01*
X176222714Y-16175619D01*
X176222714Y-16417523D01*
X176162238Y-16538476D01*
X176101761Y-16598952D01*
X175980809Y-16659428D01*
M02*
