G04 #@! TF.GenerationSoftware,KiCad,Pcbnew,(5.1.4)-1*
G04 #@! TF.CreationDate,2024-04-24T20:57:01-04:00*
G04 #@! TF.ProjectId,ThumbsUp,5468756d-6273-4557-902e-6b696361645f,rev?*
G04 #@! TF.SameCoordinates,Original*
G04 #@! TF.FileFunction,Copper,L1,Top*
G04 #@! TF.FilePolarity,Positive*
%FSLAX46Y46*%
G04 Gerber Fmt 4.6, Leading zero omitted, Abs format (unit mm)*
G04 Created by KiCad (PCBNEW (5.1.4)-1) date 2024-04-24 20:57:01*
%MOMM*%
%LPD*%
G04 APERTURE LIST*
%ADD10C,1.700000*%
%ADD11C,1.700000*%
%ADD12C,0.100000*%
%ADD13R,1.700000X1.700000*%
%ADD14O,1.700000X1.700000*%
%ADD15C,0.800000*%
%ADD16C,0.250000*%
%ADD17C,0.200000*%
%ADD18C,0.254000*%
G04 APERTURE END LIST*
D10*
X93842618Y-11701511D03*
D11*
X93842618Y-11701511D02*
X93842618Y-11701511D01*
D10*
X91814083Y-10172901D03*
D11*
X91814083Y-10172901D02*
X91814083Y-10172901D01*
D10*
X89785549Y-8644291D03*
D11*
X89785549Y-8644291D02*
X89785549Y-8644291D01*
D10*
X87757015Y-7115681D03*
D12*
G36*
X87924312Y-8306064D02*
G01*
X86566632Y-7282978D01*
X87589718Y-5925298D01*
X88947398Y-6948384D01*
X87924312Y-8306064D01*
X87924312Y-8306064D01*
G37*
D10*
X211365141Y-11547906D03*
D11*
X211365141Y-11547906D02*
X211365141Y-11547906D01*
D10*
X213393676Y-10019296D03*
D11*
X213393676Y-10019296D02*
X213393676Y-10019296D01*
D10*
X215422210Y-8490686D03*
D11*
X215422210Y-8490686D02*
X215422210Y-8490686D01*
D10*
X217450744Y-6962076D03*
D12*
G36*
X216260361Y-6794779D02*
G01*
X217618041Y-5771693D01*
X218641127Y-7129373D01*
X217283447Y-8152459D01*
X216260361Y-6794779D01*
X216260361Y-6794779D01*
G37*
D13*
X152508765Y31411751D03*
D14*
X152508765Y28871751D03*
X152508765Y26331751D03*
X152508765Y23791751D03*
D10*
X188243643Y-24212834D03*
D11*
X188243643Y-24212834D02*
X188243643Y-24212834D01*
D10*
X186715033Y-22184299D03*
D11*
X186715033Y-22184299D02*
X186715033Y-22184299D01*
D10*
X185186423Y-20155765D03*
D11*
X185186423Y-20155765D02*
X185186423Y-20155765D01*
D10*
X183657813Y-18127231D03*
D12*
G36*
X183490516Y-19317614D02*
G01*
X182467430Y-17959934D01*
X183825110Y-16936848D01*
X184848196Y-18294528D01*
X183490516Y-19317614D01*
X183490516Y-19317614D01*
G37*
D10*
X116684284Y-24411436D03*
D11*
X116684284Y-24411436D02*
X116684284Y-24411436D01*
D10*
X118212894Y-22382901D03*
D11*
X118212894Y-22382901D02*
X118212894Y-22382901D01*
D10*
X119741504Y-20354367D03*
D11*
X119741504Y-20354367D02*
X119741504Y-20354367D01*
D10*
X121270114Y-18325833D03*
D12*
G36*
X120079731Y-18493130D02*
G01*
X121102817Y-17135450D01*
X122460497Y-18158536D01*
X121437411Y-19516216D01*
X120079731Y-18493130D01*
X120079731Y-18493130D01*
G37*
D15*
X199200000Y-6200000D03*
D16*
X91814083Y-10172901D02*
X91400000Y-9758818D01*
D17*
X202750000Y-9750000D02*
X199200000Y-6200000D01*
X209430000Y-9750000D02*
X202750000Y-9750000D01*
X215422210Y-8490686D02*
X210689314Y-8490686D01*
X210689314Y-8490686D02*
X209430000Y-9750000D01*
D18*
X217450744Y-6962076D02*
X217450744Y-5797761D01*
M02*
