%FSLAX45Y45*%
G04 Gerber Fmt 4.5, Leading zero omitted, Abs format (unit mm)*
G04 Created by KiCad (PCBNEW (5.1.4)-1) date 2024-04-24 20:57:03*
%MOMM*%
%LPD*%
G04 APERTURE LIST*
%ADD10C,0.050000*%
%ADD11C,0.200000*%
%ADD12C,0.300000*%
G04 APERTURE END LIST*
D10*
X17550877Y-658825D02*
X20865396Y760317D01*
X17550877Y-658825D02*
X15900876Y3421175D01*
X21849504Y-287313D02*
X21988295Y-684223D01*
X19682407Y-2424763D02*
X21988295Y-684223D01*
X8517683Y-682819D02*
X10823571Y-2423360D01*
X18780877Y-2688825D02*
X19682407Y-2424763D01*
X15900876Y3421175D02*
X15330876Y4831175D01*
X11710876Y-2688825D02*
X18780877Y-2688825D01*
X12950876Y-658825D02*
X9640583Y761721D01*
X12950876Y-658825D02*
X14600876Y3421175D01*
X11710876Y-2688825D02*
X10823571Y-2423360D01*
X14600876Y3421175D02*
X15170876Y4831175D01*
X15330876Y4831175D02*
X15170876Y4831175D01*
X21849504Y-287313D02*
X21064224Y722010D01*
X9640583Y761721D02*
X9441755Y723414D01*
X8656474Y-285910D02*
X8517683Y-682819D01*
X20865396Y760317D02*
X21064224Y722010D01*
X8656474Y-285910D02*
X9441755Y723414D01*
D11*
X11504886Y-1522032D02*
X11675066Y-1692212D01*
X11675066Y-1522032D02*
X11504886Y-1692212D01*
X20324639Y-405414D02*
X20494819Y-575594D01*
X20494819Y-405414D02*
X20324639Y-575594D01*
X21203138Y256582D02*
X21373318Y86402D01*
X21373318Y256582D02*
X21203138Y86402D01*
X18847164Y-1518772D02*
X19017344Y-1688952D01*
X19017344Y-1518772D02*
X18847164Y-1688952D01*
X19725663Y-856776D02*
X19895843Y-1026956D01*
X19895843Y-856776D02*
X19725663Y-1026956D01*
X9148911Y253322D02*
X9319091Y83142D01*
X9319091Y253322D02*
X9148911Y83142D01*
X10027410Y-408675D02*
X10197590Y-578855D01*
X10197590Y-408675D02*
X10027410Y-578855D01*
X10626387Y-860036D02*
X10796567Y-1030216D01*
X10796567Y-860036D02*
X10626387Y-1030216D01*
X20825342Y-759902D02*
G75*
G03X20825342Y-759902I-150000J0D01*
G01*
X21357059Y-634694D02*
G75*
G03X21357059Y-634694I-150000J0D01*
G01*
X19163423Y-797676D02*
G75*
G03X19163423Y-797676I-150000J0D01*
G01*
X19695140Y-672468D02*
G75*
G03X19695140Y-672468I-150000J0D01*
G01*
X10181331Y312422D02*
G75*
G03X10181331Y312422I-150000J0D01*
G01*
X10448249Y-164186D02*
G75*
G03X10448249Y-164186I-150000J0D01*
G01*
X11658806Y-800936D02*
G75*
G03X11658806Y-800936I-150000J0D01*
G01*
X11925725Y-1277543D02*
G75*
G03X11925725Y-1277543I-150000J0D01*
G01*
X20848979Y11944D02*
X20848979Y-330956D01*
X20677529Y-159506D02*
X21020429Y-159506D01*
X19371503Y-1101414D02*
X19371503Y-1444314D01*
X19200053Y-1272864D02*
X19542953Y-1272864D01*
X9673251Y8684D02*
X9673251Y-334216D01*
X9501801Y-162766D02*
X9844701Y-162766D01*
X11150726Y-1104674D02*
X11150726Y-1447574D01*
X10979276Y-1276124D02*
X11322176Y-1276124D01*
D12*
X8801612Y-3157039D02*
X8801612Y-2857039D01*
X8873040Y-2857039D01*
X8915897Y-2871325D01*
X8944469Y-2899896D01*
X8958754Y-2928468D01*
X8973040Y-2985611D01*
X8973040Y-3028468D01*
X8958754Y-3085611D01*
X8944469Y-3114182D01*
X8915897Y-3142753D01*
X8873040Y-3157039D01*
X8801612Y-3157039D01*
X9101612Y-3157039D02*
X9101612Y-2957039D01*
X9101612Y-3014182D02*
X9115897Y-2985611D01*
X9130183Y-2971325D01*
X9158754Y-2957039D01*
X9187326Y-2957039D01*
X9287326Y-3157039D02*
X9287326Y-2957039D01*
X9287326Y-2857039D02*
X9273040Y-2871325D01*
X9287326Y-2885611D01*
X9301612Y-2871325D01*
X9287326Y-2857039D01*
X9287326Y-2885611D01*
X9473040Y-3157039D02*
X9444469Y-3142753D01*
X9430183Y-3114182D01*
X9430183Y-2857039D01*
X9630183Y-3157039D02*
X9601612Y-3142753D01*
X9587326Y-3114182D01*
X9587326Y-2857039D01*
X9973040Y-3157039D02*
X9973040Y-2857039D01*
X10073040Y-3071325D01*
X10173040Y-2857039D01*
X10173040Y-3157039D01*
X10444469Y-3157039D02*
X10444469Y-2999896D01*
X10430183Y-2971325D01*
X10401612Y-2957039D01*
X10344469Y-2957039D01*
X10315897Y-2971325D01*
X10444469Y-3142753D02*
X10415897Y-3157039D01*
X10344469Y-3157039D01*
X10315897Y-3142753D01*
X10301612Y-3114182D01*
X10301612Y-3085611D01*
X10315897Y-3057039D01*
X10344469Y-3042753D01*
X10415897Y-3042753D01*
X10444469Y-3028468D01*
X10587326Y-2957039D02*
X10587326Y-3257039D01*
X10587326Y-2971325D02*
X10615897Y-2957039D01*
X10673040Y-2957039D01*
X10701612Y-2971325D01*
X10715897Y-2985611D01*
X10730183Y-3014182D01*
X10730183Y-3099896D01*
X10715897Y-3128468D01*
X10701612Y-3142753D01*
X10673040Y-3157039D01*
X10615897Y-3157039D01*
X10587326Y-3142753D01*
X10858754Y-3128468D02*
X10873040Y-3142753D01*
X10858754Y-3157039D01*
X10844469Y-3142753D01*
X10858754Y-3128468D01*
X10858754Y-3157039D01*
X10858754Y-2971325D02*
X10873040Y-2985611D01*
X10858754Y-2999896D01*
X10844469Y-2985611D01*
X10858754Y-2971325D01*
X10858754Y-2999896D01*
X8345003Y-3566235D02*
X8515183Y-3736415D01*
X8515183Y-3566235D02*
X8345003Y-3736415D01*
X8958754Y-3787039D02*
X8787326Y-3787039D01*
X8873040Y-3787039D02*
X8873040Y-3487039D01*
X8844469Y-3529896D01*
X8815897Y-3558468D01*
X8787326Y-3572753D01*
X9087326Y-3758468D02*
X9101612Y-3772753D01*
X9087326Y-3787039D01*
X9073040Y-3772753D01*
X9087326Y-3758468D01*
X9087326Y-3787039D01*
X9201612Y-3487039D02*
X9401612Y-3487039D01*
X9273040Y-3787039D01*
X9573040Y-3487039D02*
X9601612Y-3487039D01*
X9630183Y-3501325D01*
X9644469Y-3515611D01*
X9658754Y-3544182D01*
X9673040Y-3601325D01*
X9673040Y-3672753D01*
X9658754Y-3729896D01*
X9644469Y-3758468D01*
X9630183Y-3772753D01*
X9601612Y-3787039D01*
X9573040Y-3787039D01*
X9544469Y-3772753D01*
X9530183Y-3758468D01*
X9515897Y-3729896D01*
X9501612Y-3672753D01*
X9501612Y-3601325D01*
X9515897Y-3544182D01*
X9530183Y-3515611D01*
X9544469Y-3501325D01*
X9573040Y-3487039D01*
X9801612Y-3787039D02*
X9801612Y-3587039D01*
X9801612Y-3615611D02*
X9815897Y-3601325D01*
X9844469Y-3587039D01*
X9887326Y-3587039D01*
X9915897Y-3601325D01*
X9930183Y-3629896D01*
X9930183Y-3787039D01*
X9930183Y-3629896D02*
X9944469Y-3601325D01*
X9973040Y-3587039D01*
X10015897Y-3587039D01*
X10044469Y-3601325D01*
X10058754Y-3629896D01*
X10058754Y-3787039D01*
X10201612Y-3787039D02*
X10201612Y-3587039D01*
X10201612Y-3615611D02*
X10215897Y-3601325D01*
X10244469Y-3587039D01*
X10287326Y-3587039D01*
X10315897Y-3601325D01*
X10330183Y-3629896D01*
X10330183Y-3787039D01*
X10330183Y-3629896D02*
X10344469Y-3601325D01*
X10373040Y-3587039D01*
X10415897Y-3587039D01*
X10444469Y-3601325D01*
X10458754Y-3629896D01*
X10458754Y-3787039D01*
X11044469Y-3472753D02*
X10787326Y-3858468D01*
X11430183Y-3487039D02*
X11458754Y-3487039D01*
X11487326Y-3501325D01*
X11501611Y-3515611D01*
X11515897Y-3544182D01*
X11530183Y-3601325D01*
X11530183Y-3672753D01*
X11515897Y-3729896D01*
X11501611Y-3758468D01*
X11487326Y-3772753D01*
X11458754Y-3787039D01*
X11430183Y-3787039D01*
X11401611Y-3772753D01*
X11387326Y-3758468D01*
X11373040Y-3729896D01*
X11358754Y-3672753D01*
X11358754Y-3601325D01*
X11373040Y-3544182D01*
X11387326Y-3515611D01*
X11401611Y-3501325D01*
X11430183Y-3487039D01*
X11658754Y-3758468D02*
X11673040Y-3772753D01*
X11658754Y-3787039D01*
X11644469Y-3772753D01*
X11658754Y-3758468D01*
X11658754Y-3787039D01*
X11858754Y-3487039D02*
X11887326Y-3487039D01*
X11915897Y-3501325D01*
X11930183Y-3515611D01*
X11944469Y-3544182D01*
X11958754Y-3601325D01*
X11958754Y-3672753D01*
X11944469Y-3729896D01*
X11930183Y-3758468D01*
X11915897Y-3772753D01*
X11887326Y-3787039D01*
X11858754Y-3787039D01*
X11830183Y-3772753D01*
X11815897Y-3758468D01*
X11801611Y-3729896D01*
X11787326Y-3672753D01*
X11787326Y-3601325D01*
X11801611Y-3544182D01*
X11815897Y-3515611D01*
X11830183Y-3501325D01*
X11858754Y-3487039D01*
X12215897Y-3487039D02*
X12158754Y-3487039D01*
X12130183Y-3501325D01*
X12115897Y-3515611D01*
X12087326Y-3558468D01*
X12073040Y-3615611D01*
X12073040Y-3729896D01*
X12087326Y-3758468D01*
X12101611Y-3772753D01*
X12130183Y-3787039D01*
X12187326Y-3787039D01*
X12215897Y-3772753D01*
X12230183Y-3758468D01*
X12244469Y-3729896D01*
X12244469Y-3658468D01*
X12230183Y-3629896D01*
X12215897Y-3615611D01*
X12187326Y-3601325D01*
X12130183Y-3601325D01*
X12101611Y-3615611D01*
X12087326Y-3629896D01*
X12073040Y-3658468D01*
X12344469Y-3487039D02*
X12544469Y-3487039D01*
X12415897Y-3787039D01*
X12644469Y-3487039D02*
X12644469Y-3544182D01*
X12758754Y-3487039D02*
X12758754Y-3544182D01*
X13201611Y-3901325D02*
X13187326Y-3887039D01*
X13158754Y-3844182D01*
X13144469Y-3815611D01*
X13130183Y-3772753D01*
X13115897Y-3701325D01*
X13115897Y-3644182D01*
X13130183Y-3572753D01*
X13144469Y-3529896D01*
X13158754Y-3501325D01*
X13187326Y-3458468D01*
X13201611Y-3444182D01*
X13358754Y-3615611D02*
X13330183Y-3601325D01*
X13315897Y-3587039D01*
X13301611Y-3558468D01*
X13301611Y-3544182D01*
X13315897Y-3515611D01*
X13330183Y-3501325D01*
X13358754Y-3487039D01*
X13415897Y-3487039D01*
X13444469Y-3501325D01*
X13458754Y-3515611D01*
X13473040Y-3544182D01*
X13473040Y-3558468D01*
X13458754Y-3587039D01*
X13444469Y-3601325D01*
X13415897Y-3615611D01*
X13358754Y-3615611D01*
X13330183Y-3629896D01*
X13315897Y-3644182D01*
X13301611Y-3672753D01*
X13301611Y-3729896D01*
X13315897Y-3758468D01*
X13330183Y-3772753D01*
X13358754Y-3787039D01*
X13415897Y-3787039D01*
X13444469Y-3772753D01*
X13458754Y-3758468D01*
X13473040Y-3729896D01*
X13473040Y-3672753D01*
X13458754Y-3644182D01*
X13444469Y-3629896D01*
X13415897Y-3615611D01*
X13830183Y-3787039D02*
X13830183Y-3487039D01*
X13958754Y-3787039D02*
X13958754Y-3629896D01*
X13944469Y-3601325D01*
X13915897Y-3587039D01*
X13873040Y-3587039D01*
X13844469Y-3601325D01*
X13830183Y-3615611D01*
X14144469Y-3787039D02*
X14115897Y-3772753D01*
X14101611Y-3758468D01*
X14087326Y-3729896D01*
X14087326Y-3644182D01*
X14101611Y-3615611D01*
X14115897Y-3601325D01*
X14144469Y-3587039D01*
X14187326Y-3587039D01*
X14215897Y-3601325D01*
X14230183Y-3615611D01*
X14244469Y-3644182D01*
X14244469Y-3729896D01*
X14230183Y-3758468D01*
X14215897Y-3772753D01*
X14187326Y-3787039D01*
X14144469Y-3787039D01*
X14415897Y-3787039D02*
X14387326Y-3772753D01*
X14373040Y-3744182D01*
X14373040Y-3487039D01*
X14644469Y-3772753D02*
X14615897Y-3787039D01*
X14558754Y-3787039D01*
X14530183Y-3772753D01*
X14515897Y-3744182D01*
X14515897Y-3629896D01*
X14530183Y-3601325D01*
X14558754Y-3587039D01*
X14615897Y-3587039D01*
X14644469Y-3601325D01*
X14658754Y-3629896D01*
X14658754Y-3658468D01*
X14515897Y-3687039D01*
X14773040Y-3772753D02*
X14801611Y-3787039D01*
X14858754Y-3787039D01*
X14887326Y-3772753D01*
X14901611Y-3744182D01*
X14901611Y-3729896D01*
X14887326Y-3701325D01*
X14858754Y-3687039D01*
X14815897Y-3687039D01*
X14787326Y-3672753D01*
X14773040Y-3644182D01*
X14773040Y-3629896D01*
X14787326Y-3601325D01*
X14815897Y-3587039D01*
X14858754Y-3587039D01*
X14887326Y-3601325D01*
X15001611Y-3901325D02*
X15015897Y-3887039D01*
X15044469Y-3844182D01*
X15058754Y-3815611D01*
X15073040Y-3772753D01*
X15087326Y-3701325D01*
X15087326Y-3644182D01*
X15073040Y-3572753D01*
X15058754Y-3529896D01*
X15044469Y-3501325D01*
X15015897Y-3458468D01*
X15001611Y-3444182D01*
X15544469Y-3901325D02*
X15530183Y-3887039D01*
X15501611Y-3844182D01*
X15487326Y-3815611D01*
X15473040Y-3772753D01*
X15458754Y-3701325D01*
X15458754Y-3644182D01*
X15473040Y-3572753D01*
X15487326Y-3529896D01*
X15501611Y-3501325D01*
X15530183Y-3458468D01*
X15544469Y-3444182D01*
X15658754Y-3587039D02*
X15658754Y-3787039D01*
X15658754Y-3615611D02*
X15673040Y-3601325D01*
X15701611Y-3587039D01*
X15744469Y-3587039D01*
X15773040Y-3601325D01*
X15787326Y-3629896D01*
X15787326Y-3787039D01*
X15973040Y-3787039D02*
X15944469Y-3772753D01*
X15930183Y-3758468D01*
X15915897Y-3729896D01*
X15915897Y-3644182D01*
X15930183Y-3615611D01*
X15944469Y-3601325D01*
X15973040Y-3587039D01*
X16015897Y-3587039D01*
X16044469Y-3601325D01*
X16058754Y-3615611D01*
X16073040Y-3644182D01*
X16073040Y-3729896D01*
X16058754Y-3758468D01*
X16044469Y-3772753D01*
X16015897Y-3787039D01*
X15973040Y-3787039D01*
X16158754Y-3587039D02*
X16273040Y-3587039D01*
X16201611Y-3487039D02*
X16201611Y-3744182D01*
X16215897Y-3772753D01*
X16244469Y-3787039D01*
X16273040Y-3787039D01*
X16601611Y-3587039D02*
X16601611Y-3887039D01*
X16601611Y-3601325D02*
X16630183Y-3587039D01*
X16687326Y-3587039D01*
X16715897Y-3601325D01*
X16730183Y-3615611D01*
X16744469Y-3644182D01*
X16744469Y-3729896D01*
X16730183Y-3758468D01*
X16715897Y-3772753D01*
X16687326Y-3787039D01*
X16630183Y-3787039D01*
X16601611Y-3772753D01*
X16915897Y-3787039D02*
X16887326Y-3772753D01*
X16873040Y-3744182D01*
X16873040Y-3487039D01*
X17158754Y-3787039D02*
X17158754Y-3629896D01*
X17144469Y-3601325D01*
X17115897Y-3587039D01*
X17058754Y-3587039D01*
X17030183Y-3601325D01*
X17158754Y-3772753D02*
X17130183Y-3787039D01*
X17058754Y-3787039D01*
X17030183Y-3772753D01*
X17015897Y-3744182D01*
X17015897Y-3715611D01*
X17030183Y-3687039D01*
X17058754Y-3672753D01*
X17130183Y-3672753D01*
X17158754Y-3658468D01*
X17258754Y-3587039D02*
X17373040Y-3587039D01*
X17301612Y-3487039D02*
X17301612Y-3744182D01*
X17315897Y-3772753D01*
X17344469Y-3787039D01*
X17373040Y-3787039D01*
X17587326Y-3772753D02*
X17558754Y-3787039D01*
X17501612Y-3787039D01*
X17473040Y-3772753D01*
X17458754Y-3744182D01*
X17458754Y-3629896D01*
X17473040Y-3601325D01*
X17501612Y-3587039D01*
X17558754Y-3587039D01*
X17587326Y-3601325D01*
X17601612Y-3629896D01*
X17601612Y-3658468D01*
X17458754Y-3687039D01*
X17858754Y-3787039D02*
X17858754Y-3487039D01*
X17858754Y-3772753D02*
X17830183Y-3787039D01*
X17773040Y-3787039D01*
X17744469Y-3772753D01*
X17730183Y-3758468D01*
X17715897Y-3729896D01*
X17715897Y-3644182D01*
X17730183Y-3615611D01*
X17744469Y-3601325D01*
X17773040Y-3587039D01*
X17830183Y-3587039D01*
X17858754Y-3601325D01*
X17973040Y-3901325D02*
X17987326Y-3887039D01*
X18015897Y-3844182D01*
X18030183Y-3815611D01*
X18044469Y-3772753D01*
X18058754Y-3701325D01*
X18058754Y-3644182D01*
X18044469Y-3572753D01*
X18030183Y-3529896D01*
X18015897Y-3501325D01*
X17987326Y-3458468D01*
X17973040Y-3444182D01*
X8515183Y-4047325D02*
G75*
G03X8515183Y-4047325I-150000J0D01*
G01*
X8773040Y-3883039D02*
X8958754Y-3883039D01*
X8858754Y-3997325D01*
X8901612Y-3997325D01*
X8930183Y-4011611D01*
X8944469Y-4025896D01*
X8958754Y-4054468D01*
X8958754Y-4125896D01*
X8944469Y-4154468D01*
X8930183Y-4168753D01*
X8901612Y-4183039D01*
X8815897Y-4183039D01*
X8787326Y-4168753D01*
X8773040Y-4154468D01*
X9087326Y-4154468D02*
X9101612Y-4168753D01*
X9087326Y-4183039D01*
X9073040Y-4168753D01*
X9087326Y-4154468D01*
X9087326Y-4183039D01*
X9287326Y-3883039D02*
X9315897Y-3883039D01*
X9344469Y-3897325D01*
X9358754Y-3911611D01*
X9373040Y-3940182D01*
X9387326Y-3997325D01*
X9387326Y-4068753D01*
X9373040Y-4125896D01*
X9358754Y-4154468D01*
X9344469Y-4168753D01*
X9315897Y-4183039D01*
X9287326Y-4183039D01*
X9258754Y-4168753D01*
X9244469Y-4154468D01*
X9230183Y-4125896D01*
X9215897Y-4068753D01*
X9215897Y-3997325D01*
X9230183Y-3940182D01*
X9244469Y-3911611D01*
X9258754Y-3897325D01*
X9287326Y-3883039D01*
X9573040Y-3883039D02*
X9601612Y-3883039D01*
X9630183Y-3897325D01*
X9644469Y-3911611D01*
X9658754Y-3940182D01*
X9673040Y-3997325D01*
X9673040Y-4068753D01*
X9658754Y-4125896D01*
X9644469Y-4154468D01*
X9630183Y-4168753D01*
X9601612Y-4183039D01*
X9573040Y-4183039D01*
X9544469Y-4168753D01*
X9530183Y-4154468D01*
X9515897Y-4125896D01*
X9501612Y-4068753D01*
X9501612Y-3997325D01*
X9515897Y-3940182D01*
X9530183Y-3911611D01*
X9544469Y-3897325D01*
X9573040Y-3883039D01*
X9801612Y-4183039D02*
X9801612Y-3983039D01*
X9801612Y-4011611D02*
X9815897Y-3997325D01*
X9844469Y-3983039D01*
X9887326Y-3983039D01*
X9915897Y-3997325D01*
X9930183Y-4025896D01*
X9930183Y-4183039D01*
X9930183Y-4025896D02*
X9944469Y-3997325D01*
X9973040Y-3983039D01*
X10015897Y-3983039D01*
X10044469Y-3997325D01*
X10058754Y-4025896D01*
X10058754Y-4183039D01*
X10201612Y-4183039D02*
X10201612Y-3983039D01*
X10201612Y-4011611D02*
X10215897Y-3997325D01*
X10244469Y-3983039D01*
X10287326Y-3983039D01*
X10315897Y-3997325D01*
X10330183Y-4025896D01*
X10330183Y-4183039D01*
X10330183Y-4025896D02*
X10344469Y-3997325D01*
X10373040Y-3983039D01*
X10415897Y-3983039D01*
X10444469Y-3997325D01*
X10458754Y-4025896D01*
X10458754Y-4183039D01*
X11044469Y-3868753D02*
X10787326Y-4254468D01*
X11430183Y-3883039D02*
X11458754Y-3883039D01*
X11487326Y-3897325D01*
X11501611Y-3911611D01*
X11515897Y-3940182D01*
X11530183Y-3997325D01*
X11530183Y-4068753D01*
X11515897Y-4125896D01*
X11501611Y-4154468D01*
X11487326Y-4168753D01*
X11458754Y-4183039D01*
X11430183Y-4183039D01*
X11401611Y-4168753D01*
X11387326Y-4154468D01*
X11373040Y-4125896D01*
X11358754Y-4068753D01*
X11358754Y-3997325D01*
X11373040Y-3940182D01*
X11387326Y-3911611D01*
X11401611Y-3897325D01*
X11430183Y-3883039D01*
X11658754Y-4154468D02*
X11673040Y-4168753D01*
X11658754Y-4183039D01*
X11644469Y-4168753D01*
X11658754Y-4154468D01*
X11658754Y-4183039D01*
X11958754Y-4183039D02*
X11787326Y-4183039D01*
X11873040Y-4183039D02*
X11873040Y-3883039D01*
X11844469Y-3925896D01*
X11815897Y-3954468D01*
X11787326Y-3968753D01*
X12244469Y-4183039D02*
X12073040Y-4183039D01*
X12158754Y-4183039D02*
X12158754Y-3883039D01*
X12130183Y-3925896D01*
X12101611Y-3954468D01*
X12073040Y-3968753D01*
X12415897Y-4011611D02*
X12387326Y-3997325D01*
X12373040Y-3983039D01*
X12358754Y-3954468D01*
X12358754Y-3940182D01*
X12373040Y-3911611D01*
X12387326Y-3897325D01*
X12415897Y-3883039D01*
X12473040Y-3883039D01*
X12501611Y-3897325D01*
X12515897Y-3911611D01*
X12530183Y-3940182D01*
X12530183Y-3954468D01*
X12515897Y-3983039D01*
X12501611Y-3997325D01*
X12473040Y-4011611D01*
X12415897Y-4011611D01*
X12387326Y-4025896D01*
X12373040Y-4040182D01*
X12358754Y-4068753D01*
X12358754Y-4125896D01*
X12373040Y-4154468D01*
X12387326Y-4168753D01*
X12415897Y-4183039D01*
X12473040Y-4183039D01*
X12501611Y-4168753D01*
X12515897Y-4154468D01*
X12530183Y-4125896D01*
X12530183Y-4068753D01*
X12515897Y-4040182D01*
X12501611Y-4025896D01*
X12473040Y-4011611D01*
X12644469Y-3883039D02*
X12644469Y-3940182D01*
X12758754Y-3883039D02*
X12758754Y-3940182D01*
X13201611Y-4297325D02*
X13187326Y-4283039D01*
X13158754Y-4240182D01*
X13144469Y-4211611D01*
X13130183Y-4168753D01*
X13115897Y-4097325D01*
X13115897Y-4040182D01*
X13130183Y-3968753D01*
X13144469Y-3925896D01*
X13158754Y-3897325D01*
X13187326Y-3854468D01*
X13201611Y-3840182D01*
X13358754Y-4011611D02*
X13330183Y-3997325D01*
X13315897Y-3983039D01*
X13301611Y-3954468D01*
X13301611Y-3940182D01*
X13315897Y-3911611D01*
X13330183Y-3897325D01*
X13358754Y-3883039D01*
X13415897Y-3883039D01*
X13444469Y-3897325D01*
X13458754Y-3911611D01*
X13473040Y-3940182D01*
X13473040Y-3954468D01*
X13458754Y-3983039D01*
X13444469Y-3997325D01*
X13415897Y-4011611D01*
X13358754Y-4011611D01*
X13330183Y-4025896D01*
X13315897Y-4040182D01*
X13301611Y-4068753D01*
X13301611Y-4125896D01*
X13315897Y-4154468D01*
X13330183Y-4168753D01*
X13358754Y-4183039D01*
X13415897Y-4183039D01*
X13444469Y-4168753D01*
X13458754Y-4154468D01*
X13473040Y-4125896D01*
X13473040Y-4068753D01*
X13458754Y-4040182D01*
X13444469Y-4025896D01*
X13415897Y-4011611D01*
X13830183Y-4183039D02*
X13830183Y-3883039D01*
X13958754Y-4183039D02*
X13958754Y-4025896D01*
X13944469Y-3997325D01*
X13915897Y-3983039D01*
X13873040Y-3983039D01*
X13844469Y-3997325D01*
X13830183Y-4011611D01*
X14144469Y-4183039D02*
X14115897Y-4168753D01*
X14101611Y-4154468D01*
X14087326Y-4125896D01*
X14087326Y-4040182D01*
X14101611Y-4011611D01*
X14115897Y-3997325D01*
X14144469Y-3983039D01*
X14187326Y-3983039D01*
X14215897Y-3997325D01*
X14230183Y-4011611D01*
X14244469Y-4040182D01*
X14244469Y-4125896D01*
X14230183Y-4154468D01*
X14215897Y-4168753D01*
X14187326Y-4183039D01*
X14144469Y-4183039D01*
X14415897Y-4183039D02*
X14387326Y-4168753D01*
X14373040Y-4140182D01*
X14373040Y-3883039D01*
X14644469Y-4168753D02*
X14615897Y-4183039D01*
X14558754Y-4183039D01*
X14530183Y-4168753D01*
X14515897Y-4140182D01*
X14515897Y-4025896D01*
X14530183Y-3997325D01*
X14558754Y-3983039D01*
X14615897Y-3983039D01*
X14644469Y-3997325D01*
X14658754Y-4025896D01*
X14658754Y-4054468D01*
X14515897Y-4083039D01*
X14773040Y-4168753D02*
X14801611Y-4183039D01*
X14858754Y-4183039D01*
X14887326Y-4168753D01*
X14901611Y-4140182D01*
X14901611Y-4125896D01*
X14887326Y-4097325D01*
X14858754Y-4083039D01*
X14815897Y-4083039D01*
X14787326Y-4068753D01*
X14773040Y-4040182D01*
X14773040Y-4025896D01*
X14787326Y-3997325D01*
X14815897Y-3983039D01*
X14858754Y-3983039D01*
X14887326Y-3997325D01*
X15001611Y-4297325D02*
X15015897Y-4283039D01*
X15044469Y-4240182D01*
X15058754Y-4211611D01*
X15073040Y-4168753D01*
X15087326Y-4097325D01*
X15087326Y-4040182D01*
X15073040Y-3968753D01*
X15058754Y-3925896D01*
X15044469Y-3897325D01*
X15015897Y-3854468D01*
X15001611Y-3840182D01*
X15544469Y-4297325D02*
X15530183Y-4283039D01*
X15501611Y-4240182D01*
X15487326Y-4211611D01*
X15473040Y-4168753D01*
X15458754Y-4097325D01*
X15458754Y-4040182D01*
X15473040Y-3968753D01*
X15487326Y-3925896D01*
X15501611Y-3897325D01*
X15530183Y-3854468D01*
X15544469Y-3840182D01*
X15658754Y-3983039D02*
X15658754Y-4183039D01*
X15658754Y-4011611D02*
X15673040Y-3997325D01*
X15701611Y-3983039D01*
X15744469Y-3983039D01*
X15773040Y-3997325D01*
X15787326Y-4025896D01*
X15787326Y-4183039D01*
X15973040Y-4183039D02*
X15944469Y-4168753D01*
X15930183Y-4154468D01*
X15915897Y-4125896D01*
X15915897Y-4040182D01*
X15930183Y-4011611D01*
X15944469Y-3997325D01*
X15973040Y-3983039D01*
X16015897Y-3983039D01*
X16044469Y-3997325D01*
X16058754Y-4011611D01*
X16073040Y-4040182D01*
X16073040Y-4125896D01*
X16058754Y-4154468D01*
X16044469Y-4168753D01*
X16015897Y-4183039D01*
X15973040Y-4183039D01*
X16158754Y-3983039D02*
X16273040Y-3983039D01*
X16201611Y-3883039D02*
X16201611Y-4140182D01*
X16215897Y-4168753D01*
X16244469Y-4183039D01*
X16273040Y-4183039D01*
X16601611Y-3983039D02*
X16601611Y-4283039D01*
X16601611Y-3997325D02*
X16630183Y-3983039D01*
X16687326Y-3983039D01*
X16715897Y-3997325D01*
X16730183Y-4011611D01*
X16744469Y-4040182D01*
X16744469Y-4125896D01*
X16730183Y-4154468D01*
X16715897Y-4168753D01*
X16687326Y-4183039D01*
X16630183Y-4183039D01*
X16601611Y-4168753D01*
X16915897Y-4183039D02*
X16887326Y-4168753D01*
X16873040Y-4140182D01*
X16873040Y-3883039D01*
X17158754Y-4183039D02*
X17158754Y-4025896D01*
X17144469Y-3997325D01*
X17115897Y-3983039D01*
X17058754Y-3983039D01*
X17030183Y-3997325D01*
X17158754Y-4168753D02*
X17130183Y-4183039D01*
X17058754Y-4183039D01*
X17030183Y-4168753D01*
X17015897Y-4140182D01*
X17015897Y-4111611D01*
X17030183Y-4083039D01*
X17058754Y-4068753D01*
X17130183Y-4068753D01*
X17158754Y-4054468D01*
X17258754Y-3983039D02*
X17373040Y-3983039D01*
X17301612Y-3883039D02*
X17301612Y-4140182D01*
X17315897Y-4168753D01*
X17344469Y-4183039D01*
X17373040Y-4183039D01*
X17587326Y-4168753D02*
X17558754Y-4183039D01*
X17501612Y-4183039D01*
X17473040Y-4168753D01*
X17458754Y-4140182D01*
X17458754Y-4025896D01*
X17473040Y-3997325D01*
X17501612Y-3983039D01*
X17558754Y-3983039D01*
X17587326Y-3997325D01*
X17601612Y-4025896D01*
X17601612Y-4054468D01*
X17458754Y-4083039D01*
X17858754Y-4183039D02*
X17858754Y-3883039D01*
X17858754Y-4168753D02*
X17830183Y-4183039D01*
X17773040Y-4183039D01*
X17744469Y-4168753D01*
X17730183Y-4154468D01*
X17715897Y-4125896D01*
X17715897Y-4040182D01*
X17730183Y-4011611D01*
X17744469Y-3997325D01*
X17773040Y-3983039D01*
X17830183Y-3983039D01*
X17858754Y-3997325D01*
X17973040Y-4297325D02*
X17987326Y-4283039D01*
X18015897Y-4240182D01*
X18030183Y-4211611D01*
X18044469Y-4168753D01*
X18058754Y-4097325D01*
X18058754Y-4040182D01*
X18044469Y-3968753D01*
X18030183Y-3925896D01*
X18015897Y-3897325D01*
X17987326Y-3854468D01*
X17973040Y-3840182D01*
X8343733Y-4305875D02*
X8343733Y-4648775D01*
X8172283Y-4477325D02*
X8515183Y-4477325D01*
X8773040Y-4313039D02*
X8958754Y-4313039D01*
X8858754Y-4427325D01*
X8901612Y-4427325D01*
X8930183Y-4441611D01*
X8944469Y-4455896D01*
X8958754Y-4484468D01*
X8958754Y-4555896D01*
X8944469Y-4584468D01*
X8930183Y-4598754D01*
X8901612Y-4613039D01*
X8815897Y-4613039D01*
X8787326Y-4598754D01*
X8773040Y-4584468D01*
X9087326Y-4584468D02*
X9101612Y-4598754D01*
X9087326Y-4613039D01*
X9073040Y-4598754D01*
X9087326Y-4584468D01*
X9087326Y-4613039D01*
X9358754Y-4413039D02*
X9358754Y-4613039D01*
X9287326Y-4298754D02*
X9215897Y-4513039D01*
X9401612Y-4513039D01*
X9487326Y-4313039D02*
X9673040Y-4313039D01*
X9573040Y-4427325D01*
X9615897Y-4427325D01*
X9644469Y-4441611D01*
X9658754Y-4455896D01*
X9673040Y-4484468D01*
X9673040Y-4555896D01*
X9658754Y-4584468D01*
X9644469Y-4598754D01*
X9615897Y-4613039D01*
X9530183Y-4613039D01*
X9501612Y-4598754D01*
X9487326Y-4584468D01*
X9801612Y-4613039D02*
X9801612Y-4413039D01*
X9801612Y-4441611D02*
X9815897Y-4427325D01*
X9844469Y-4413039D01*
X9887326Y-4413039D01*
X9915897Y-4427325D01*
X9930183Y-4455896D01*
X9930183Y-4613039D01*
X9930183Y-4455896D02*
X9944469Y-4427325D01*
X9973040Y-4413039D01*
X10015897Y-4413039D01*
X10044469Y-4427325D01*
X10058754Y-4455896D01*
X10058754Y-4613039D01*
X10201612Y-4613039D02*
X10201612Y-4413039D01*
X10201612Y-4441611D02*
X10215897Y-4427325D01*
X10244469Y-4413039D01*
X10287326Y-4413039D01*
X10315897Y-4427325D01*
X10330183Y-4455896D01*
X10330183Y-4613039D01*
X10330183Y-4455896D02*
X10344469Y-4427325D01*
X10373040Y-4413039D01*
X10415897Y-4413039D01*
X10444469Y-4427325D01*
X10458754Y-4455896D01*
X10458754Y-4613039D01*
X11044469Y-4298754D02*
X10787326Y-4684468D01*
X11430183Y-4313039D02*
X11458754Y-4313039D01*
X11487326Y-4327325D01*
X11501611Y-4341611D01*
X11515897Y-4370182D01*
X11530183Y-4427325D01*
X11530183Y-4498754D01*
X11515897Y-4555896D01*
X11501611Y-4584468D01*
X11487326Y-4598754D01*
X11458754Y-4613039D01*
X11430183Y-4613039D01*
X11401611Y-4598754D01*
X11387326Y-4584468D01*
X11373040Y-4555896D01*
X11358754Y-4498754D01*
X11358754Y-4427325D01*
X11373040Y-4370182D01*
X11387326Y-4341611D01*
X11401611Y-4327325D01*
X11430183Y-4313039D01*
X11658754Y-4584468D02*
X11673040Y-4598754D01*
X11658754Y-4613039D01*
X11644469Y-4598754D01*
X11658754Y-4584468D01*
X11658754Y-4613039D01*
X11958754Y-4613039D02*
X11787326Y-4613039D01*
X11873040Y-4613039D02*
X11873040Y-4313039D01*
X11844469Y-4355896D01*
X11815897Y-4384468D01*
X11787326Y-4398754D01*
X12058754Y-4313039D02*
X12244469Y-4313039D01*
X12144469Y-4427325D01*
X12187326Y-4427325D01*
X12215897Y-4441611D01*
X12230183Y-4455896D01*
X12244469Y-4484468D01*
X12244469Y-4555896D01*
X12230183Y-4584468D01*
X12215897Y-4598754D01*
X12187326Y-4613039D01*
X12101611Y-4613039D01*
X12073040Y-4598754D01*
X12058754Y-4584468D01*
X12515897Y-4313039D02*
X12373040Y-4313039D01*
X12358754Y-4455896D01*
X12373040Y-4441611D01*
X12401611Y-4427325D01*
X12473040Y-4427325D01*
X12501611Y-4441611D01*
X12515897Y-4455896D01*
X12530183Y-4484468D01*
X12530183Y-4555896D01*
X12515897Y-4584468D01*
X12501611Y-4598754D01*
X12473040Y-4613039D01*
X12401611Y-4613039D01*
X12373040Y-4598754D01*
X12358754Y-4584468D01*
X12644469Y-4313039D02*
X12644469Y-4370182D01*
X12758754Y-4313039D02*
X12758754Y-4370182D01*
X13201611Y-4727325D02*
X13187326Y-4713039D01*
X13158754Y-4670182D01*
X13144469Y-4641611D01*
X13130183Y-4598754D01*
X13115897Y-4527325D01*
X13115897Y-4470182D01*
X13130183Y-4398754D01*
X13144469Y-4355896D01*
X13158754Y-4327325D01*
X13187326Y-4284468D01*
X13201611Y-4270182D01*
X13444469Y-4413039D02*
X13444469Y-4613039D01*
X13373040Y-4298754D02*
X13301611Y-4513039D01*
X13487326Y-4513039D01*
X13830183Y-4613039D02*
X13830183Y-4313039D01*
X13958754Y-4613039D02*
X13958754Y-4455896D01*
X13944469Y-4427325D01*
X13915897Y-4413039D01*
X13873040Y-4413039D01*
X13844469Y-4427325D01*
X13830183Y-4441611D01*
X14144469Y-4613039D02*
X14115897Y-4598754D01*
X14101611Y-4584468D01*
X14087326Y-4555896D01*
X14087326Y-4470182D01*
X14101611Y-4441611D01*
X14115897Y-4427325D01*
X14144469Y-4413039D01*
X14187326Y-4413039D01*
X14215897Y-4427325D01*
X14230183Y-4441611D01*
X14244469Y-4470182D01*
X14244469Y-4555896D01*
X14230183Y-4584468D01*
X14215897Y-4598754D01*
X14187326Y-4613039D01*
X14144469Y-4613039D01*
X14415897Y-4613039D02*
X14387326Y-4598754D01*
X14373040Y-4570182D01*
X14373040Y-4313039D01*
X14644469Y-4598754D02*
X14615897Y-4613039D01*
X14558754Y-4613039D01*
X14530183Y-4598754D01*
X14515897Y-4570182D01*
X14515897Y-4455896D01*
X14530183Y-4427325D01*
X14558754Y-4413039D01*
X14615897Y-4413039D01*
X14644469Y-4427325D01*
X14658754Y-4455896D01*
X14658754Y-4484468D01*
X14515897Y-4513039D01*
X14773040Y-4598754D02*
X14801611Y-4613039D01*
X14858754Y-4613039D01*
X14887326Y-4598754D01*
X14901611Y-4570182D01*
X14901611Y-4555896D01*
X14887326Y-4527325D01*
X14858754Y-4513039D01*
X14815897Y-4513039D01*
X14787326Y-4498754D01*
X14773040Y-4470182D01*
X14773040Y-4455896D01*
X14787326Y-4427325D01*
X14815897Y-4413039D01*
X14858754Y-4413039D01*
X14887326Y-4427325D01*
X15001611Y-4727325D02*
X15015897Y-4713039D01*
X15044469Y-4670182D01*
X15058754Y-4641611D01*
X15073040Y-4598754D01*
X15087326Y-4527325D01*
X15087326Y-4470182D01*
X15073040Y-4398754D01*
X15058754Y-4355896D01*
X15044469Y-4327325D01*
X15015897Y-4284468D01*
X15001611Y-4270182D01*
X15544469Y-4727325D02*
X15530183Y-4713039D01*
X15501611Y-4670182D01*
X15487326Y-4641611D01*
X15473040Y-4598754D01*
X15458754Y-4527325D01*
X15458754Y-4470182D01*
X15473040Y-4398754D01*
X15487326Y-4355896D01*
X15501611Y-4327325D01*
X15530183Y-4284468D01*
X15544469Y-4270182D01*
X15658754Y-4413039D02*
X15658754Y-4613039D01*
X15658754Y-4441611D02*
X15673040Y-4427325D01*
X15701611Y-4413039D01*
X15744469Y-4413039D01*
X15773040Y-4427325D01*
X15787326Y-4455896D01*
X15787326Y-4613039D01*
X15973040Y-4613039D02*
X15944469Y-4598754D01*
X15930183Y-4584468D01*
X15915897Y-4555896D01*
X15915897Y-4470182D01*
X15930183Y-4441611D01*
X15944469Y-4427325D01*
X15973040Y-4413039D01*
X16015897Y-4413039D01*
X16044469Y-4427325D01*
X16058754Y-4441611D01*
X16073040Y-4470182D01*
X16073040Y-4555896D01*
X16058754Y-4584468D01*
X16044469Y-4598754D01*
X16015897Y-4613039D01*
X15973040Y-4613039D01*
X16158754Y-4413039D02*
X16273040Y-4413039D01*
X16201611Y-4313039D02*
X16201611Y-4570182D01*
X16215897Y-4598754D01*
X16244469Y-4613039D01*
X16273040Y-4613039D01*
X16601611Y-4413039D02*
X16601611Y-4713039D01*
X16601611Y-4427325D02*
X16630183Y-4413039D01*
X16687326Y-4413039D01*
X16715897Y-4427325D01*
X16730183Y-4441611D01*
X16744469Y-4470182D01*
X16744469Y-4555896D01*
X16730183Y-4584468D01*
X16715897Y-4598754D01*
X16687326Y-4613039D01*
X16630183Y-4613039D01*
X16601611Y-4598754D01*
X16915897Y-4613039D02*
X16887326Y-4598754D01*
X16873040Y-4570182D01*
X16873040Y-4313039D01*
X17158754Y-4613039D02*
X17158754Y-4455896D01*
X17144469Y-4427325D01*
X17115897Y-4413039D01*
X17058754Y-4413039D01*
X17030183Y-4427325D01*
X17158754Y-4598754D02*
X17130183Y-4613039D01*
X17058754Y-4613039D01*
X17030183Y-4598754D01*
X17015897Y-4570182D01*
X17015897Y-4541611D01*
X17030183Y-4513039D01*
X17058754Y-4498754D01*
X17130183Y-4498754D01*
X17158754Y-4484468D01*
X17258754Y-4413039D02*
X17373040Y-4413039D01*
X17301612Y-4313039D02*
X17301612Y-4570182D01*
X17315897Y-4598754D01*
X17344469Y-4613039D01*
X17373040Y-4613039D01*
X17587326Y-4598754D02*
X17558754Y-4613039D01*
X17501612Y-4613039D01*
X17473040Y-4598754D01*
X17458754Y-4570182D01*
X17458754Y-4455896D01*
X17473040Y-4427325D01*
X17501612Y-4413039D01*
X17558754Y-4413039D01*
X17587326Y-4427325D01*
X17601612Y-4455896D01*
X17601612Y-4484468D01*
X17458754Y-4513039D01*
X17858754Y-4613039D02*
X17858754Y-4313039D01*
X17858754Y-4598754D02*
X17830183Y-4613039D01*
X17773040Y-4613039D01*
X17744469Y-4598754D01*
X17730183Y-4584468D01*
X17715897Y-4555896D01*
X17715897Y-4470182D01*
X17730183Y-4441611D01*
X17744469Y-4427325D01*
X17773040Y-4413039D01*
X17830183Y-4413039D01*
X17858754Y-4427325D01*
X17973040Y-4727325D02*
X17987326Y-4713039D01*
X18015897Y-4670182D01*
X18030183Y-4641611D01*
X18044469Y-4598754D01*
X18058754Y-4527325D01*
X18058754Y-4470182D01*
X18044469Y-4398754D01*
X18030183Y-4355896D01*
X18015897Y-4327325D01*
X17987326Y-4284468D01*
X17973040Y-4270182D01*
M02*
