G04 #@! TF.GenerationSoftware,KiCad,Pcbnew,(5.1.4)-1*
G04 #@! TF.CreationDate,2024-04-24T20:57:01-04:00*
G04 #@! TF.ProjectId,ThumbsUp,5468756d-6273-4557-902e-6b696361645f,rev?*
G04 #@! TF.SameCoordinates,Original*
G04 #@! TF.FileFunction,Copper,L2,Bot*
G04 #@! TF.FilePolarity,Positive*
%FSLAX46Y46*%
G04 Gerber Fmt 4.6, Leading zero omitted, Abs format (unit mm)*
G04 Created by KiCad (PCBNEW (5.1.4)-1) date 2024-04-24 20:57:01*
%MOMM*%
%LPD*%
G04 APERTURE LIST*
%ADD10C,2.600000*%
%ADD11C,0.100000*%
%ADD12R,1.500000X0.800000*%
%ADD13R,1.500000X0.600000*%
%ADD14C,1.700000*%
%ADD15C,1.700000*%
%ADD16R,1.700000X1.700000*%
%ADD17O,1.700000X1.700000*%
%ADD18C,0.800000*%
%ADD19C,0.254000*%
%ADD20C,0.250000*%
%ADD21C,0.200000*%
%ADD22C,0.508000*%
G04 APERTURE END LIST*
D10*
X187518700Y-9947702D03*
D11*
G36*
X187774567Y-8127116D02*
G01*
X189339286Y-10203569D01*
X187262833Y-11768288D01*
X185698114Y-9691835D01*
X187774567Y-8127116D01*
X187774567Y-8127116D01*
G37*
D10*
X198066934Y-4753737D03*
D11*
G36*
X198322801Y-2933151D02*
G01*
X199887520Y-5009604D01*
X197811067Y-6574323D01*
X196246348Y-4497870D01*
X198322801Y-2933151D01*
X198322801Y-2933151D01*
G37*
D10*
X214686119Y-4375998D03*
D11*
G36*
X214430252Y-6196584D02*
G01*
X212865533Y-4120131D01*
X214941986Y-2555412D01*
X216506705Y-4631865D01*
X214430252Y-6196584D01*
X214430252Y-6196584D01*
G37*
D10*
X204137885Y-9569963D03*
D11*
G36*
X203882018Y-11390549D02*
G01*
X202317299Y-9314096D01*
X204393752Y-7749377D01*
X205958471Y-9825830D01*
X203882018Y-11390549D01*
X203882018Y-11390549D01*
G37*
D10*
X97697775Y5095162D03*
D11*
G36*
X99518361Y5351029D02*
G01*
X97953642Y3274576D01*
X95877189Y4839295D01*
X97441908Y6915748D01*
X99518361Y5351029D01*
X99518361Y5351029D01*
G37*
D10*
X105598022Y-3612799D03*
D11*
G36*
X107418608Y-3356932D02*
G01*
X105853889Y-5433385D01*
X103777436Y-3868666D01*
X105342155Y-1792213D01*
X107418608Y-3356932D01*
X107418608Y-3356932D01*
G37*
D10*
X112472532Y-6038415D03*
D11*
G36*
X114293118Y-5782548D02*
G01*
X112728399Y-7859001D01*
X110651946Y-6294282D01*
X112216665Y-4217829D01*
X114293118Y-5782548D01*
X114293118Y-5782548D01*
G37*
D10*
X120372779Y-14746376D03*
D11*
G36*
X122193365Y-14490509D02*
G01*
X120628646Y-16566962D01*
X118552193Y-15002243D01*
X120116912Y-12925790D01*
X122193365Y-14490509D01*
X122193365Y-14490509D01*
G37*
D12*
X174432000Y-18958000D03*
X177232000Y-18958000D03*
X174432000Y-11458000D03*
X177232000Y-11458000D03*
D13*
X174432000Y-17958000D03*
X177232000Y-17458000D03*
X174432000Y-16958000D03*
X177232000Y-16458000D03*
X174432000Y-15958000D03*
X177232000Y-15458000D03*
X174432000Y-14958000D03*
X177232000Y-14458000D03*
X174432000Y-13958000D03*
X177232000Y-13458000D03*
X174432000Y-12958000D03*
X177232000Y-12458000D03*
D14*
X93842618Y-11701511D03*
D15*
X93842618Y-11701511D02*
X93842618Y-11701511D01*
D14*
X91814083Y-10172901D03*
D15*
X91814083Y-10172901D02*
X91814083Y-10172901D01*
D14*
X89785549Y-8644291D03*
D15*
X89785549Y-8644291D02*
X89785549Y-8644291D01*
D14*
X87757015Y-7115681D03*
D11*
G36*
X87924312Y-8306064D02*
G01*
X86566632Y-7282978D01*
X87589718Y-5925298D01*
X88947398Y-6948384D01*
X87924312Y-8306064D01*
X87924312Y-8306064D01*
G37*
D14*
X211365141Y-11547906D03*
D15*
X211365141Y-11547906D02*
X211365141Y-11547906D01*
D14*
X213393676Y-10019296D03*
D15*
X213393676Y-10019296D02*
X213393676Y-10019296D01*
D14*
X215422210Y-8490686D03*
D15*
X215422210Y-8490686D02*
X215422210Y-8490686D01*
D14*
X217450744Y-6962076D03*
D11*
G36*
X216260361Y-6794779D02*
G01*
X217618041Y-5771693D01*
X218641127Y-7129373D01*
X217283447Y-8152459D01*
X216260361Y-6794779D01*
X216260361Y-6794779D01*
G37*
D16*
X152508765Y31411751D03*
D17*
X152508765Y28871751D03*
X152508765Y26331751D03*
X152508765Y23791751D03*
D14*
X188243643Y-24212834D03*
D15*
X188243643Y-24212834D02*
X188243643Y-24212834D01*
D14*
X186715033Y-22184299D03*
D15*
X186715033Y-22184299D02*
X186715033Y-22184299D01*
D14*
X185186423Y-20155765D03*
D15*
X185186423Y-20155765D02*
X185186423Y-20155765D01*
D14*
X183657813Y-18127231D03*
D11*
G36*
X183490516Y-19317614D02*
G01*
X182467430Y-17959934D01*
X183825110Y-16936848D01*
X184848196Y-18294528D01*
X183490516Y-19317614D01*
X183490516Y-19317614D01*
G37*
D14*
X116684284Y-24411436D03*
D15*
X116684284Y-24411436D02*
X116684284Y-24411436D01*
D14*
X118212894Y-22382901D03*
D15*
X118212894Y-22382901D02*
X118212894Y-22382901D01*
D14*
X119741504Y-20354367D03*
D15*
X119741504Y-20354367D02*
X119741504Y-20354367D01*
D14*
X121270114Y-18325833D03*
D11*
G36*
X120079731Y-18493130D02*
G01*
X121102817Y-17135450D01*
X122460497Y-18158536D01*
X121437411Y-19516216D01*
X120079731Y-18493130D01*
X120079731Y-18493130D01*
G37*
D18*
X199200000Y-6200000D03*
D19*
X119373797Y-15745358D02*
X120372779Y-14746376D01*
X116863155Y-18256000D02*
X119373797Y-15745358D01*
X112840000Y-18256000D02*
X116863155Y-18256000D01*
X93842618Y-11701511D02*
X106285511Y-11701511D01*
X106285511Y-11701511D02*
X112840000Y-18256000D01*
X91814083Y-10172901D02*
X98406901Y-10172901D01*
X112357585Y-6038415D02*
X112472532Y-6038415D01*
X111316000Y-7080000D02*
X112357585Y-6038415D01*
X104669737Y-7080000D02*
X111316000Y-7080000D01*
X91814083Y-10172901D02*
X101576836Y-10172901D01*
X101576836Y-10172901D02*
X104669737Y-7080000D01*
X104599040Y-4611781D02*
X105598022Y-3612799D01*
D20*
X89785549Y-8644291D02*
X89829840Y-8600000D01*
D19*
X89785549Y-8644291D02*
X90333840Y-8096000D01*
X90333840Y-8096000D02*
X101114821Y-8096000D01*
X101114821Y-8096000D02*
X104599040Y-4611781D01*
X94044000Y1441387D02*
X97697775Y5095162D01*
X87757015Y-7115681D02*
X94044000Y-828696D01*
X94044000Y-828696D02*
X94044000Y1441387D01*
X206115828Y-11547906D02*
X204137885Y-9569963D01*
X211365141Y-11547906D02*
X206115828Y-11547906D01*
D20*
X214864666Y-4375998D02*
X214686119Y-4375998D01*
D19*
X214686119Y-4375998D02*
X214686119Y-3516119D01*
X214686119Y-7087881D02*
X214686119Y-4375998D01*
X213393676Y-10019296D02*
X213393676Y-8380324D01*
X213393676Y-8380324D02*
X214686119Y-7087881D01*
D21*
X199200000Y-5886803D02*
X198066934Y-4753737D01*
X199200000Y-6200000D02*
X199200000Y-5886803D01*
X187518700Y-7281300D02*
X187518700Y-8219926D01*
X193700000Y-1100000D02*
X187518700Y-7281300D01*
X204300000Y-1100000D02*
X193700000Y-1100000D01*
X217450744Y-4200744D02*
X214350000Y-1100000D01*
X217450744Y-6962076D02*
X217450744Y-4200744D01*
X214350000Y-1100000D02*
X212450000Y-1100000D01*
X212450000Y-1100000D02*
X210550000Y800000D01*
X187518700Y-8219926D02*
X187518700Y-9947702D01*
X210550000Y800000D02*
X206200000Y800000D01*
X206200000Y800000D02*
X204300000Y-1100000D01*
D19*
X178236000Y-16458000D02*
X177232000Y-16458000D01*
X186715033Y-22184299D02*
X186715033Y-18725033D01*
X186715033Y-18725033D02*
X184448000Y-16458000D01*
X184448000Y-16458000D02*
X178236000Y-16458000D01*
X173428000Y-16958000D02*
X174432000Y-16958000D01*
X172400000Y-17800000D02*
X173242000Y-16958000D01*
X173242000Y-16958000D02*
X173428000Y-16958000D01*
X173773011Y-21123011D02*
X172400000Y-19750000D01*
X184219177Y-21123011D02*
X173773011Y-21123011D01*
X172400000Y-19750000D02*
X172400000Y-17800000D01*
X185186423Y-20155765D02*
X184219177Y-21123011D01*
D22*
X175832000Y-17458000D02*
X177232000Y-17458000D01*
X175832000Y-10636000D02*
X175832000Y-17458000D01*
X176168000Y-10300000D02*
X175832000Y-10636000D01*
X179111672Y-10300000D02*
X176168000Y-10300000D01*
X188243643Y-24212834D02*
X188243643Y-19431971D01*
X188243643Y-19431971D02*
X179111672Y-10300000D01*
X172981011Y-18150989D02*
X173174000Y-17958000D01*
X173174000Y-17958000D02*
X174432000Y-17958000D01*
X174013672Y-20542000D02*
X172981011Y-19509339D01*
X181243044Y-20542000D02*
X174013672Y-20542000D01*
X172981011Y-19509339D02*
X172981011Y-18150989D01*
X183657813Y-18127231D02*
X181243044Y-20542000D01*
M02*
