G04 #@! TF.GenerationSoftware,KiCad,Pcbnew,(5.1.4)-1*
G04 #@! TF.CreationDate,2023-03-14T13:34:02-04:00*
G04 #@! TF.ProjectId,ThumbsUp,5468756d-6273-4557-902e-6b696361645f,rev?*
G04 #@! TF.SameCoordinates,Original*
G04 #@! TF.FileFunction,Copper,L2,Bot*
G04 #@! TF.FilePolarity,Positive*
%FSLAX46Y46*%
G04 Gerber Fmt 4.6, Leading zero omitted, Abs format (unit mm)*
G04 Created by KiCad (PCBNEW (5.1.4)-1) date 2023-03-14 13:34:02*
%MOMM*%
%LPD*%
G04 APERTURE LIST*
%ADD10C,1.700000*%
%ADD11C,0.100000*%
%ADD12C,1.700000*%
%ADD13C,2.600000*%
%ADD14C,2.032000*%
%ADD15C,0.800000*%
%ADD16C,0.250000*%
G04 APERTURE END LIST*
D10*
X185450000Y-317850000D03*
D11*
G36*
X186556522Y-318319691D02*
G01*
X184980309Y-318956522D01*
X184343478Y-317380309D01*
X185919691Y-316743478D01*
X186556522Y-318319691D01*
X186556522Y-318319691D01*
G37*
D10*
X187805047Y-316898499D03*
D12*
X187805047Y-316898499D02*
X187805047Y-316898499D01*
D10*
X190160094Y-315946999D03*
D12*
X190160094Y-315946999D02*
X190160094Y-315946999D01*
D10*
X192515141Y-314995498D03*
D12*
X192515141Y-314995498D02*
X192515141Y-314995498D01*
D10*
X242724118Y-326737982D03*
D12*
X242724118Y-326737982D02*
X242724118Y-326737982D01*
D10*
X241772617Y-324382935D03*
D12*
X241772617Y-324382935D02*
X241772617Y-324382935D01*
D10*
X240821117Y-322027888D03*
D12*
X240821117Y-322027888D02*
X240821117Y-322027888D01*
D10*
X239869616Y-319672841D03*
D11*
G36*
X239399925Y-320779363D02*
G01*
X238763094Y-319203150D01*
X240339307Y-318566319D01*
X240976138Y-320142532D01*
X239399925Y-320779363D01*
X239399925Y-320779363D01*
G37*
D10*
X178400721Y-281197898D03*
D12*
X178400721Y-281197898D02*
X178400721Y-281197898D01*
D10*
X176045674Y-282149399D03*
D12*
X176045674Y-282149399D02*
X176045674Y-282149399D01*
D10*
X173690627Y-283100899D03*
D12*
X173690627Y-283100899D02*
X173690627Y-283100899D01*
D10*
X171335580Y-284052400D03*
D11*
G36*
X172442102Y-284522091D02*
G01*
X170865889Y-285158922D01*
X170229058Y-283582709D01*
X171805271Y-282945878D01*
X172442102Y-284522091D01*
X172442102Y-284522091D01*
G37*
D10*
X186015141Y-298495498D03*
D12*
X186015141Y-298495498D02*
X186015141Y-298495498D01*
D10*
X183660094Y-299446999D03*
D12*
X183660094Y-299446999D02*
X183660094Y-299446999D01*
D10*
X181305047Y-300398499D03*
D12*
X181305047Y-300398499D02*
X181305047Y-300398499D01*
D10*
X178950000Y-301350000D03*
D11*
G36*
X180056522Y-301819691D02*
G01*
X178480309Y-302456522D01*
X177843478Y-300880309D01*
X179419691Y-300243478D01*
X180056522Y-301819691D01*
X180056522Y-301819691D01*
G37*
D10*
X98120102Y-313645498D03*
D12*
X98120102Y-313645498D02*
X98120102Y-313645498D01*
D10*
X100475149Y-314596999D03*
D12*
X100475149Y-314596999D02*
X100475149Y-314596999D01*
D10*
X102830196Y-315548499D03*
D12*
X102830196Y-315548499D02*
X102830196Y-315548499D01*
D10*
X105185243Y-316500000D03*
D11*
G36*
X104715552Y-315393478D02*
G01*
X106291765Y-316030309D01*
X105654934Y-317606522D01*
X104078721Y-316969691D01*
X104715552Y-315393478D01*
X104715552Y-315393478D01*
G37*
D10*
X112000000Y-300500000D03*
D11*
G36*
X111530309Y-299393478D02*
G01*
X113106522Y-300030309D01*
X112469691Y-301606522D01*
X110893478Y-300969691D01*
X111530309Y-299393478D01*
X111530309Y-299393478D01*
G37*
D10*
X109644953Y-299548499D03*
D12*
X109644953Y-299548499D02*
X109644953Y-299548499D01*
D10*
X107289906Y-298596999D03*
D12*
X107289906Y-298596999D02*
X107289906Y-298596999D01*
D10*
X104934859Y-297645498D03*
D12*
X104934859Y-297645498D02*
X104934859Y-297645498D01*
D10*
X111492437Y-281339332D03*
D12*
X111492437Y-281339332D02*
X111492437Y-281339332D01*
D10*
X113847484Y-282290833D03*
D12*
X113847484Y-282290833D02*
X113847484Y-282290833D01*
D10*
X116202531Y-283242333D03*
D12*
X116202531Y-283242333D02*
X116202531Y-283242333D01*
D10*
X118557578Y-284193834D03*
D11*
G36*
X118087887Y-283087312D02*
G01*
X119664100Y-283724143D01*
X119027269Y-285300356D01*
X117451056Y-284663525D01*
X118087887Y-283087312D01*
X118087887Y-283087312D01*
G37*
D10*
X47881938Y-326930168D03*
D12*
X47881938Y-326930168D02*
X47881938Y-326930168D01*
D10*
X48833439Y-324575121D03*
D12*
X48833439Y-324575121D02*
X48833439Y-324575121D01*
D10*
X49784939Y-322220074D03*
D12*
X49784939Y-322220074D02*
X49784939Y-322220074D01*
D10*
X50736440Y-319865027D03*
D11*
G36*
X49629918Y-320334718D02*
G01*
X50266749Y-318758505D01*
X51842962Y-319395336D01*
X51206131Y-320971549D01*
X49629918Y-320334718D01*
X49629918Y-320334718D01*
G37*
D13*
X253119859Y-299813103D03*
D11*
G36*
X253838209Y-298120775D02*
G01*
X254812187Y-300531453D01*
X252401509Y-301505431D01*
X251427531Y-299094753D01*
X253838209Y-298120775D01*
X253838209Y-298120775D01*
G37*
D14*
X257177352Y-287765909D03*
X262599945Y-287839962D03*
D13*
X264652967Y-297526201D03*
D11*
G36*
X265371317Y-295833873D02*
G01*
X266345295Y-298244551D01*
X263934617Y-299218529D01*
X262960639Y-296807851D01*
X265371317Y-295833873D01*
X265371317Y-295833873D01*
G37*
D13*
X246564243Y-283587386D03*
D11*
G36*
X247282593Y-281895058D02*
G01*
X248256571Y-284305736D01*
X245845893Y-285279714D01*
X244871915Y-282869036D01*
X247282593Y-281895058D01*
X247282593Y-281895058D01*
G37*
D14*
X250621736Y-271540192D03*
X256044329Y-271614245D03*
D13*
X258097351Y-281300484D03*
D11*
G36*
X258815701Y-279608156D02*
G01*
X259789679Y-282018834D01*
X257379001Y-282992812D01*
X256405023Y-280582134D01*
X258815701Y-279608156D01*
X258815701Y-279608156D01*
G37*
D13*
X240008628Y-267361668D03*
D11*
G36*
X240726978Y-265669340D02*
G01*
X241700956Y-268080018D01*
X239290278Y-269053996D01*
X238316300Y-266643318D01*
X240726978Y-265669340D01*
X240726978Y-265669340D01*
G37*
D14*
X244066121Y-255314474D03*
X249488714Y-255388527D03*
D13*
X251541736Y-265074766D03*
D11*
G36*
X252260086Y-263382438D02*
G01*
X253234064Y-265793116D01*
X250823386Y-266767094D01*
X249849408Y-264356416D01*
X252260086Y-263382438D01*
X252260086Y-263382438D01*
G37*
D13*
X237465384Y-310452061D03*
D11*
G36*
X238183734Y-308759733D02*
G01*
X239157712Y-311170411D01*
X236747034Y-312144389D01*
X235773056Y-309733711D01*
X238183734Y-308759733D01*
X238183734Y-308759733D01*
G37*
D14*
X241522877Y-298404867D03*
X246945470Y-298478920D03*
D13*
X248998492Y-308165159D03*
D11*
G36*
X249716842Y-306472831D02*
G01*
X250690820Y-308883509D01*
X248280142Y-309857487D01*
X247306164Y-307446809D01*
X249716842Y-306472831D01*
X249716842Y-306472831D01*
G37*
D13*
X230909769Y-294226343D03*
D11*
G36*
X231628119Y-292534015D02*
G01*
X232602097Y-294944693D01*
X230191419Y-295918671D01*
X229217441Y-293507993D01*
X231628119Y-292534015D01*
X231628119Y-292534015D01*
G37*
D14*
X234967262Y-282179149D03*
X240389855Y-282253202D03*
D13*
X242442877Y-291939441D03*
D11*
G36*
X243161227Y-290247113D02*
G01*
X244135205Y-292657791D01*
X241724527Y-293631769D01*
X240750549Y-291221091D01*
X243161227Y-290247113D01*
X243161227Y-290247113D01*
G37*
D13*
X224354153Y-278000626D03*
D11*
G36*
X225072503Y-276308298D02*
G01*
X226046481Y-278718976D01*
X223635803Y-279692954D01*
X222661825Y-277282276D01*
X225072503Y-276308298D01*
X225072503Y-276308298D01*
G37*
D14*
X228411646Y-265953432D03*
X233834239Y-266027485D03*
D13*
X235887261Y-275713724D03*
D11*
G36*
X236605611Y-274021396D02*
G01*
X237579589Y-276432074D01*
X235168911Y-277406052D01*
X234194933Y-274995374D01*
X236605611Y-274021396D01*
X236605611Y-274021396D01*
G37*
D13*
X218439450Y-312746363D03*
D11*
G36*
X219157800Y-311054035D02*
G01*
X220131778Y-313464713D01*
X217721100Y-314438691D01*
X216747122Y-312028013D01*
X219157800Y-311054035D01*
X219157800Y-311054035D01*
G37*
D14*
X222496943Y-300699169D03*
X227919536Y-300773222D03*
D13*
X229972558Y-310459461D03*
D11*
G36*
X230690908Y-308767133D02*
G01*
X231664886Y-311177811D01*
X229254208Y-312151789D01*
X228280230Y-309741111D01*
X230690908Y-308767133D01*
X230690908Y-308767133D01*
G37*
D13*
X211883834Y-296520646D03*
D11*
G36*
X212602184Y-294828318D02*
G01*
X213576162Y-297238996D01*
X211165484Y-298212974D01*
X210191506Y-295802296D01*
X212602184Y-294828318D01*
X212602184Y-294828318D01*
G37*
D14*
X215941327Y-284473452D03*
X221363920Y-284547505D03*
D13*
X223416942Y-294233744D03*
D11*
G36*
X224135292Y-292541416D02*
G01*
X225109270Y-294952094D01*
X222698592Y-295926072D01*
X221724614Y-293515394D01*
X224135292Y-292541416D01*
X224135292Y-292541416D01*
G37*
D13*
X205328219Y-280294929D03*
D11*
G36*
X206046569Y-278602601D02*
G01*
X207020547Y-281013279D01*
X204609869Y-281987257D01*
X203635891Y-279576579D01*
X206046569Y-278602601D01*
X206046569Y-278602601D01*
G37*
D14*
X209385712Y-268247735D03*
X214808305Y-268321788D03*
D13*
X216861327Y-278008027D03*
D11*
G36*
X217579677Y-276315699D02*
G01*
X218553655Y-278726377D01*
X216142977Y-279700355D01*
X215168999Y-277289677D01*
X217579677Y-276315699D01*
X217579677Y-276315699D01*
G37*
D13*
X199413515Y-315040666D03*
D11*
G36*
X200131865Y-313348338D02*
G01*
X201105843Y-315759016D01*
X198695165Y-316732994D01*
X197721187Y-314322316D01*
X200131865Y-313348338D01*
X200131865Y-313348338D01*
G37*
D14*
X203471008Y-302993472D03*
X208893601Y-303067525D03*
D13*
X210946623Y-312753764D03*
D11*
G36*
X211664973Y-311061436D02*
G01*
X212638951Y-313472114D01*
X210228273Y-314446092D01*
X209254295Y-312035414D01*
X211664973Y-311061436D01*
X211664973Y-311061436D01*
G37*
D13*
X192857900Y-298814949D03*
D11*
G36*
X193576250Y-297122621D02*
G01*
X194550228Y-299533299D01*
X192139550Y-300507277D01*
X191165572Y-298096599D01*
X193576250Y-297122621D01*
X193576250Y-297122621D01*
G37*
D14*
X196915393Y-286767755D03*
X202337986Y-286841808D03*
D13*
X204391008Y-296528047D03*
D11*
G36*
X205109358Y-294835719D02*
G01*
X206083336Y-297246397D01*
X203672658Y-298220375D01*
X202698680Y-295809697D01*
X205109358Y-294835719D01*
X205109358Y-294835719D01*
G37*
D13*
X186302285Y-282589231D03*
D11*
G36*
X187020635Y-280896903D02*
G01*
X187994613Y-283307581D01*
X185583935Y-284281559D01*
X184609957Y-281870881D01*
X187020635Y-280896903D01*
X187020635Y-280896903D01*
G37*
D14*
X190359778Y-270542037D03*
X195782371Y-270616090D03*
D13*
X197835393Y-280302329D03*
D11*
G36*
X198553743Y-278610001D02*
G01*
X199527721Y-281020679D01*
X197117043Y-281994657D01*
X196143065Y-279583979D01*
X198553743Y-278610001D01*
X198553743Y-278610001D01*
G37*
D13*
X93531006Y-308110213D03*
D11*
G36*
X91838678Y-308828563D02*
G01*
X92812656Y-306417885D01*
X95223334Y-307391863D01*
X94249356Y-309802541D01*
X91838678Y-308828563D01*
X91838678Y-308828563D01*
G37*
D14*
X82243606Y-313957668D03*
X78394361Y-310137549D03*
D13*
X83646167Y-301743702D03*
D11*
G36*
X81953839Y-302462052D02*
G01*
X82927817Y-300051374D01*
X85338495Y-301025352D01*
X84364517Y-303436030D01*
X81953839Y-302462052D01*
X81953839Y-302462052D01*
G37*
D13*
X100086621Y-291884496D03*
D11*
G36*
X98394293Y-292602846D02*
G01*
X99368271Y-290192168D01*
X101778949Y-291166146D01*
X100804971Y-293576824D01*
X98394293Y-292602846D01*
X98394293Y-292602846D01*
G37*
D14*
X88799221Y-297731951D03*
X84949976Y-293911832D03*
D13*
X90201782Y-285517985D03*
D11*
G36*
X88509454Y-286236335D02*
G01*
X89483432Y-283825657D01*
X91894110Y-284799635D01*
X90920132Y-287210313D01*
X88509454Y-286236335D01*
X88509454Y-286236335D01*
G37*
D13*
X106642237Y-275658778D03*
D11*
G36*
X104949909Y-276377128D02*
G01*
X105923887Y-273966450D01*
X108334565Y-274940428D01*
X107360587Y-277351106D01*
X104949909Y-276377128D01*
X104949909Y-276377128D01*
G37*
D14*
X95354837Y-281506233D03*
X91505592Y-277686114D03*
D13*
X96757398Y-269292267D03*
D11*
G36*
X95065070Y-270010617D02*
G01*
X96039048Y-267599939D01*
X98449726Y-268573917D01*
X97475748Y-270984595D01*
X95065070Y-270010617D01*
X95065070Y-270010617D01*
G37*
D13*
X74505072Y-305815911D03*
D11*
G36*
X72812744Y-306534261D02*
G01*
X73786722Y-304123583D01*
X76197400Y-305097561D01*
X75223422Y-307508239D01*
X72812744Y-306534261D01*
X72812744Y-306534261D01*
G37*
D14*
X63217672Y-311663366D03*
X59368427Y-307843247D03*
D13*
X64620233Y-299449400D03*
D11*
G36*
X62927905Y-300167750D02*
G01*
X63901883Y-297757072D01*
X66312561Y-298731050D01*
X65338583Y-301141728D01*
X62927905Y-300167750D01*
X62927905Y-300167750D01*
G37*
D13*
X81060687Y-289590193D03*
D11*
G36*
X79368359Y-290308543D02*
G01*
X80342337Y-287897865D01*
X82753015Y-288871843D01*
X81779037Y-291282521D01*
X79368359Y-290308543D01*
X79368359Y-290308543D01*
G37*
D14*
X69773287Y-295437648D03*
X65924042Y-291617529D03*
D13*
X71175848Y-283223682D03*
D11*
G36*
X69483520Y-283942032D02*
G01*
X70457498Y-281531354D01*
X72868176Y-282505332D01*
X71894198Y-284916010D01*
X69483520Y-283942032D01*
X69483520Y-283942032D01*
G37*
D13*
X87616302Y-273364476D03*
D11*
G36*
X85923974Y-274082826D02*
G01*
X86897952Y-271672148D01*
X89308630Y-272646126D01*
X88334652Y-275056804D01*
X85923974Y-274082826D01*
X85923974Y-274082826D01*
G37*
D14*
X76328902Y-279211931D03*
X72479657Y-275391812D03*
D13*
X77731463Y-266997965D03*
D11*
G36*
X76039135Y-267716315D02*
G01*
X77013113Y-265305637D01*
X79423791Y-266279615D01*
X78449813Y-268690293D01*
X76039135Y-267716315D01*
X76039135Y-267716315D01*
G37*
D13*
X55479137Y-303521608D03*
D11*
G36*
X53786809Y-304239958D02*
G01*
X54760787Y-301829280D01*
X57171465Y-302803258D01*
X56197487Y-305213936D01*
X53786809Y-304239958D01*
X53786809Y-304239958D01*
G37*
D14*
X44191737Y-309369063D03*
X40342492Y-305548944D03*
D13*
X45594298Y-297155097D03*
D11*
G36*
X43901970Y-297873447D02*
G01*
X44875948Y-295462769D01*
X47286626Y-296436747D01*
X46312648Y-298847425D01*
X43901970Y-297873447D01*
X43901970Y-297873447D01*
G37*
D13*
X62034753Y-287295890D03*
D11*
G36*
X60342425Y-288014240D02*
G01*
X61316403Y-285603562D01*
X63727081Y-286577540D01*
X62753103Y-288988218D01*
X60342425Y-288014240D01*
X60342425Y-288014240D01*
G37*
D14*
X50747353Y-293143345D03*
X46898108Y-289323226D03*
D13*
X52149914Y-280929379D03*
D11*
G36*
X50457586Y-281647729D02*
G01*
X51431564Y-279237051D01*
X53842242Y-280211029D01*
X52868264Y-282621707D01*
X50457586Y-281647729D01*
X50457586Y-281647729D01*
G37*
D13*
X68590368Y-271070173D03*
D11*
G36*
X66898040Y-271788523D02*
G01*
X67872018Y-269377845D01*
X70282696Y-270351823D01*
X69308718Y-272762501D01*
X66898040Y-271788523D01*
X66898040Y-271788523D01*
G37*
D14*
X57302968Y-276917628D03*
X53453723Y-273097509D03*
D13*
X58705529Y-264703662D03*
D11*
G36*
X57013201Y-265422012D02*
G01*
X57987179Y-263011334D01*
X60397857Y-263985312D01*
X59423879Y-266395990D01*
X57013201Y-265422012D01*
X57013201Y-265422012D01*
G37*
D13*
X39824662Y-292882650D03*
D11*
G36*
X38132334Y-293601000D02*
G01*
X39106312Y-291190322D01*
X41516990Y-292164300D01*
X40543012Y-294574978D01*
X38132334Y-293601000D01*
X38132334Y-293601000D01*
G37*
D14*
X28537262Y-298730105D03*
X24688017Y-294909986D03*
D13*
X29939823Y-286516139D03*
D11*
G36*
X28247495Y-287234489D02*
G01*
X29221473Y-284823811D01*
X31632151Y-285797789D01*
X30658173Y-288208467D01*
X28247495Y-287234489D01*
X28247495Y-287234489D01*
G37*
D13*
X46380278Y-276656933D03*
D11*
G36*
X44687950Y-277375283D02*
G01*
X45661928Y-274964605D01*
X48072606Y-275938583D01*
X47098628Y-278349261D01*
X44687950Y-277375283D01*
X44687950Y-277375283D01*
G37*
D14*
X35092878Y-282504388D03*
X31243633Y-278684269D03*
D13*
X36495439Y-270290422D03*
D11*
G36*
X34803111Y-271008772D02*
G01*
X35777089Y-268598094D01*
X38187767Y-269572072D01*
X37213789Y-271982750D01*
X34803111Y-271008772D01*
X34803111Y-271008772D01*
G37*
D13*
X52935893Y-260431216D03*
D11*
G36*
X51243565Y-261149566D02*
G01*
X52217543Y-258738888D01*
X54628221Y-259712866D01*
X53654243Y-262123544D01*
X51243565Y-261149566D01*
X51243565Y-261149566D01*
G37*
D14*
X41648493Y-266278671D03*
X37799248Y-262458552D03*
D13*
X43051054Y-254064705D03*
D11*
G36*
X41358726Y-254783055D02*
G01*
X42332704Y-252372377D01*
X44743382Y-253346355D01*
X43769404Y-255757033D01*
X41358726Y-254783055D01*
X41358726Y-254783055D01*
G37*
D10*
X94083952Y-358862971D03*
D11*
G36*
X94251249Y-360053354D02*
G01*
X92893569Y-359030268D01*
X93916655Y-357672588D01*
X95274335Y-358695674D01*
X94251249Y-360053354D01*
X94251249Y-360053354D01*
G37*
D10*
X96112486Y-360391581D03*
D12*
X96112486Y-360391581D02*
X96112486Y-360391581D01*
D10*
X98141020Y-361920191D03*
D12*
X98141020Y-361920191D02*
X98141020Y-361920191D01*
D10*
X100169555Y-363448801D03*
D12*
X100169555Y-363448801D02*
X100169555Y-363448801D01*
D10*
X190058136Y-363387914D03*
D11*
G36*
X191248519Y-363555211D02*
G01*
X189890839Y-364578297D01*
X188867753Y-363220617D01*
X190225433Y-362197531D01*
X191248519Y-363555211D01*
X191248519Y-363555211D01*
G37*
D10*
X192086670Y-361859304D03*
D12*
X192086670Y-361859304D02*
X192086670Y-361859304D01*
D10*
X194115204Y-360330694D03*
D12*
X194115204Y-360330694D02*
X194115204Y-360330694D01*
D10*
X196143739Y-358802084D03*
D12*
X196143739Y-358802084D02*
X196143739Y-358802084D01*
D15*
X58600000Y-318400000D03*
X58550000Y-315700000D03*
X246100000Y-312650000D03*
X228000000Y-316100000D03*
X236374546Y-321422235D03*
X212150000Y-318700000D03*
D16*
X33951574Y-282504388D02*
X35092878Y-282504388D01*
X29939823Y-286516139D02*
X33951574Y-282504388D01*
X40507190Y-266278671D02*
X41648493Y-266278671D01*
X36495439Y-270290422D02*
X40507190Y-266278671D01*
X39485295Y-254064705D02*
X43051054Y-254064705D01*
X36450000Y-257700000D02*
X39485295Y-254064705D01*
X35800000Y-263750000D02*
X36450000Y-257700000D01*
X41648493Y-266278671D02*
X38328671Y-266278671D01*
X38328671Y-266278671D02*
X35800000Y-263750000D01*
X36230105Y-298730105D02*
X28537262Y-298730105D01*
X36400000Y-298900000D02*
X36230105Y-298730105D01*
X42045495Y-311800000D02*
X36400000Y-306154505D01*
X36400000Y-306154505D02*
X36400000Y-298900000D01*
X52050000Y-311800000D02*
X42045495Y-311800000D01*
X57850001Y-317600001D02*
X52050000Y-311800000D01*
X58600000Y-318400000D02*
X57850001Y-317600001D01*
X56161665Y-276917628D02*
X57302968Y-276917628D01*
X52149914Y-280929379D02*
X56161665Y-276917628D01*
X49606050Y-293143345D02*
X50747353Y-293143345D01*
X45594298Y-297155097D02*
X49606050Y-293143345D01*
X52219063Y-309369063D02*
X58550000Y-315700000D01*
X44191737Y-309369063D02*
X52219063Y-309369063D01*
X57302968Y-276917628D02*
X56286969Y-275901629D01*
X54546338Y-264703662D02*
X58705529Y-264703662D01*
X50450000Y-268800000D02*
X54546338Y-264703662D01*
X50450000Y-274100000D02*
X50450000Y-268800000D01*
X52251629Y-275901629D02*
X50450000Y-274100000D01*
X56286969Y-275901629D02*
X52251629Y-275901629D01*
X68631985Y-295437648D02*
X69773287Y-295437648D01*
X64620233Y-299449400D02*
X68631985Y-295437648D01*
X72317151Y-283223682D02*
X71175848Y-283223682D01*
X76328902Y-279211931D02*
X72317151Y-283223682D01*
X75702035Y-266997965D02*
X77731463Y-266997965D01*
X72200000Y-269500000D02*
X75702035Y-266997965D01*
X69753163Y-276153163D02*
X72200000Y-269500000D01*
X76328902Y-279211931D02*
X72811931Y-279211931D01*
X72811931Y-279211931D02*
X69753163Y-276153163D01*
X91343085Y-285517985D02*
X90201782Y-285517985D01*
X95354837Y-281506233D02*
X91343085Y-285517985D01*
X95354837Y-281506233D02*
X92056233Y-281506233D01*
X90164591Y-279614591D02*
X90164591Y-272135409D01*
X92056233Y-281506233D02*
X90164591Y-279614591D01*
X93007733Y-269292267D02*
X96757398Y-269292267D01*
X90164591Y-272135409D02*
X93007733Y-269292267D01*
X83646167Y-299853833D02*
X83646167Y-301743702D01*
X88799221Y-297731951D02*
X85768049Y-297731951D01*
X85768049Y-297731951D02*
X83646167Y-299853833D01*
X98120102Y-312699309D02*
X98120102Y-313645498D01*
X93531006Y-308110213D02*
X98120102Y-312699309D01*
X93531006Y-309612308D02*
X93531006Y-308110213D01*
X90893314Y-312250000D02*
X93531006Y-309612308D01*
X83750000Y-312250000D02*
X90893314Y-312250000D01*
X78394361Y-310137549D02*
X81637549Y-310137549D01*
X81637549Y-310137549D02*
X83750000Y-312250000D01*
X74505072Y-307318006D02*
X74505072Y-305815911D01*
X71950000Y-311050000D02*
X74505072Y-307318006D01*
X67850000Y-310600000D02*
X71950000Y-311050000D01*
X59368427Y-307843247D02*
X62650000Y-308300000D01*
X62650000Y-308300000D02*
X67850000Y-310600000D01*
X99273068Y-314596999D02*
X100475149Y-314596999D01*
X97170067Y-316700000D02*
X99273068Y-314596999D01*
X80700000Y-316700000D02*
X97170067Y-316700000D01*
X74505072Y-305815911D02*
X74505072Y-310505072D01*
X74505072Y-310505072D02*
X80700000Y-316700000D01*
X55479137Y-305023703D02*
X55479137Y-303521608D01*
X52552840Y-307950000D02*
X55479137Y-305023703D01*
X46150000Y-307950000D02*
X52552840Y-307950000D01*
X44764943Y-306564943D02*
X46150000Y-307950000D01*
X40342492Y-305548944D02*
X41358491Y-306564943D01*
X41358491Y-306564943D02*
X44764943Y-306564943D01*
X52550000Y-307952840D02*
X55479137Y-305023703D01*
X52550000Y-308450000D02*
X52550000Y-307952840D01*
X63950000Y-319850000D02*
X52550000Y-308450000D01*
X102830196Y-315548499D02*
X98528695Y-319850000D01*
X98528695Y-319850000D02*
X63950000Y-319850000D01*
X38750000Y-293957312D02*
X39824662Y-292882650D01*
X38750000Y-296000000D02*
X38750000Y-293957312D01*
X36925000Y-297825000D02*
X38750000Y-296000000D01*
X62900000Y-321350000D02*
X52899989Y-311349989D01*
X36925000Y-305943083D02*
X36925000Y-297825000D01*
X52899989Y-311349989D02*
X42331906Y-311349989D01*
X100335243Y-321350000D02*
X62900000Y-321350000D01*
X105185243Y-316500000D02*
X100335243Y-321350000D01*
X42331906Y-311349989D02*
X36925000Y-305943083D01*
X36800000Y-297950000D02*
X36925000Y-297825000D01*
X31750000Y-297950000D02*
X36800000Y-297950000D01*
X30350000Y-296550000D02*
X31750000Y-297950000D01*
X28950000Y-296550000D02*
X30350000Y-296550000D01*
X24688017Y-294909986D02*
X27309986Y-294909986D01*
X27309986Y-294909986D02*
X28950000Y-296550000D01*
X111492437Y-280508978D02*
X111492437Y-281339332D01*
X106642237Y-275658778D02*
X111492437Y-280508978D01*
X106642237Y-277160873D02*
X106642237Y-275658778D01*
X104603110Y-279200000D02*
X106642237Y-277160873D01*
X103301045Y-279200000D02*
X104603110Y-279200000D01*
X92942432Y-277686114D02*
X94456318Y-279200000D01*
X91505592Y-277686114D02*
X92942432Y-277686114D01*
X94456318Y-279200000D02*
X102028009Y-279200000D01*
X102028009Y-279200000D02*
X102100094Y-279272085D01*
X102100094Y-279272085D02*
X103228960Y-279272085D01*
X103228960Y-279272085D02*
X103301045Y-279200000D01*
X112997485Y-283140832D02*
X99190832Y-283140832D01*
X113847484Y-282290833D02*
X112997485Y-283140832D01*
X91419823Y-288569823D02*
X90250000Y-287400000D01*
X94114310Y-288569823D02*
X91419823Y-288569823D01*
X99190832Y-283140832D02*
X99190832Y-283493301D01*
X99190832Y-283493301D02*
X94114310Y-288569823D01*
X90250000Y-287400000D02*
X87950000Y-287400000D01*
X87616302Y-287066302D02*
X87616302Y-273364476D01*
X87950000Y-287400000D02*
X87616302Y-287066302D01*
X86546968Y-274433810D02*
X87616302Y-273364476D01*
X86546968Y-275653032D02*
X86546968Y-274433810D01*
X73495656Y-276407811D02*
X78050000Y-276950000D01*
X72479657Y-275391812D02*
X73495656Y-276407811D01*
X78050000Y-276950000D02*
X79300000Y-277300000D01*
X79300000Y-277300000D02*
X81250000Y-277900000D01*
X81250000Y-277900000D02*
X84300000Y-277900000D01*
X84300000Y-277900000D02*
X86546968Y-275653032D01*
X68590368Y-272572268D02*
X68590368Y-271070173D01*
X65762636Y-275400000D02*
X68590368Y-272572268D01*
X59050000Y-275400000D02*
X65762636Y-275400000D01*
X53453723Y-273097509D02*
X56747509Y-273097509D01*
X56747509Y-273097509D02*
X59050000Y-275400000D01*
X66900000Y-284750000D02*
X68590368Y-272572268D01*
X71150000Y-286350000D02*
X66900000Y-284750000D01*
X72500000Y-286800000D02*
X71150000Y-286350000D01*
X78024160Y-285662355D02*
X74400000Y-287450000D01*
X74400000Y-287450000D02*
X72500000Y-286800000D01*
X79850000Y-286000000D02*
X78024160Y-285662355D01*
X110612205Y-288832659D02*
X94487884Y-288832659D01*
X94487884Y-288832659D02*
X93920543Y-289400000D01*
X116202531Y-283242333D02*
X110612205Y-288832659D01*
X93920543Y-289400000D02*
X89313590Y-289400000D01*
X89313590Y-289400000D02*
X86863590Y-286950000D01*
X86863590Y-286950000D02*
X79850000Y-286000000D01*
X52935893Y-261933311D02*
X52935893Y-260431216D01*
X50269204Y-264600000D02*
X52935893Y-261933311D01*
X43600000Y-264600000D02*
X50269204Y-264600000D01*
X37799248Y-262458552D02*
X41458552Y-262458552D01*
X41458552Y-262458552D02*
X43600000Y-264600000D01*
X54157363Y-261652686D02*
X52935893Y-260431216D01*
X74082171Y-263600000D02*
X65500000Y-263600000D01*
X76100000Y-263650000D02*
X74082171Y-263600000D01*
X65500000Y-263600000D02*
X63552686Y-261652686D01*
X79450000Y-264900000D02*
X76100000Y-263650000D01*
X97085445Y-266750000D02*
X88200000Y-268300000D01*
X99900000Y-268000000D02*
X97085445Y-266750000D01*
X88200000Y-268300000D02*
X79450000Y-264900000D01*
X118450000Y-282550000D02*
X112618467Y-280168467D01*
X118557578Y-284193834D02*
X118450000Y-282550000D01*
X108659575Y-276209575D02*
X109200000Y-274550000D01*
X112618467Y-280168467D02*
X108659575Y-276209575D01*
X109200000Y-274550000D02*
X102450000Y-269050000D01*
X63552686Y-261652686D02*
X54157363Y-261652686D01*
X102450000Y-269050000D02*
X99900000Y-268000000D01*
X104934859Y-296732734D02*
X104934859Y-297645498D01*
X100086621Y-291884496D02*
X104934859Y-296732734D01*
X93336410Y-298950000D02*
X94523212Y-298950000D01*
X94523212Y-298950000D02*
X100086621Y-293386591D01*
X88298242Y-293911832D02*
X93336410Y-298950000D01*
X84949976Y-293911832D02*
X88298242Y-293911832D01*
X100086621Y-293386591D02*
X100086621Y-291884496D01*
X81060687Y-291092288D02*
X81060687Y-289590193D01*
X78000000Y-294900000D02*
X81060687Y-291092288D01*
X65924042Y-291617529D02*
X69300000Y-292050000D01*
X69300000Y-292050000D02*
X78000000Y-294900000D01*
X81060687Y-295260687D02*
X81060687Y-291092288D01*
X81700000Y-295900000D02*
X81060687Y-295260687D01*
X89650000Y-295900000D02*
X81700000Y-295900000D01*
X93196998Y-299446998D02*
X89650000Y-295900000D01*
X107289906Y-298596999D02*
X106439907Y-299446998D01*
X106439907Y-299446998D02*
X93196998Y-299446998D01*
X62034753Y-289665247D02*
X62034753Y-287295890D01*
X46898108Y-289323226D02*
X50423226Y-289323226D01*
X50423226Y-289323226D02*
X54750000Y-293650000D01*
X58050000Y-293650000D02*
X62034753Y-289665247D01*
X54750000Y-293650000D02*
X58050000Y-293650000D01*
X62034753Y-290884753D02*
X62034753Y-287295890D01*
X71536411Y-293350000D02*
X64500000Y-293350000D01*
X83586411Y-305400000D02*
X71536411Y-293350000D01*
X109644953Y-299548499D02*
X105293463Y-303899989D01*
X64500000Y-293350000D02*
X62034753Y-290884753D01*
X105293463Y-303899989D02*
X89250011Y-303899989D01*
X87750000Y-305400000D02*
X83586411Y-305400000D01*
X89250011Y-303899989D02*
X87750000Y-305400000D01*
X31243633Y-278684269D02*
X37950000Y-280950000D01*
X37950000Y-280950000D02*
X42950000Y-281450000D01*
X42950000Y-281450000D02*
X46380278Y-276656933D01*
X87936400Y-305850011D02*
X83400011Y-305850011D01*
X83400011Y-305850011D02*
X71350011Y-293800011D01*
X54563600Y-294100011D02*
X51613590Y-291150000D01*
X108150000Y-304350000D02*
X89436411Y-304350000D01*
X51613590Y-291150000D02*
X44800000Y-291150000D01*
X71350011Y-293800011D02*
X58536400Y-293800011D01*
X112000000Y-300500000D02*
X108150000Y-304350000D01*
X89436411Y-304350000D02*
X87936400Y-305850011D01*
X58536400Y-293800011D02*
X58236400Y-294100011D01*
X42950000Y-289300000D02*
X42950000Y-281450000D01*
X58236400Y-294100011D02*
X54563600Y-294100011D01*
X44800000Y-291150000D02*
X42950000Y-289300000D01*
X250621736Y-265994766D02*
X251541736Y-265074766D01*
X250621736Y-271540192D02*
X250621736Y-265994766D01*
X257177352Y-282220483D02*
X258097351Y-281300484D01*
X257177352Y-287765909D02*
X257177352Y-282220483D01*
X265722301Y-296456867D02*
X264652967Y-297526201D01*
X266700000Y-290350000D02*
X265722301Y-296456867D01*
X263450000Y-285450000D02*
X266700000Y-290350000D01*
X257177352Y-287765909D02*
X258444300Y-286498961D01*
X258444300Y-286498961D02*
X263450000Y-285450000D01*
X235049989Y-321759401D02*
X235049989Y-320263600D01*
X235049989Y-320263600D02*
X243500011Y-311813578D01*
X243500011Y-308526469D02*
X247426469Y-304600011D01*
X247426469Y-304600011D02*
X252236925Y-304600011D01*
X242724118Y-326737982D02*
X240028570Y-326737982D01*
X264652967Y-299028296D02*
X264652967Y-297526201D01*
X252236925Y-304600011D02*
X257250000Y-302800000D01*
X257250000Y-302800000D02*
X263103224Y-300578039D01*
X243500011Y-311813578D02*
X243500011Y-308526469D01*
X263103224Y-300578039D02*
X264652967Y-299028296D01*
X240028570Y-326737982D02*
X235049989Y-321759401D01*
X234967262Y-276633723D02*
X235887261Y-275713724D01*
X234967262Y-282179149D02*
X234967262Y-276633723D01*
X241522877Y-292859441D02*
X242442877Y-291939441D01*
X241522877Y-298404867D02*
X241522877Y-292859441D01*
X246499999Y-312250001D02*
X246100000Y-312650000D01*
X249900000Y-310850000D02*
X246499999Y-312250001D01*
X248998492Y-308165159D02*
X249250000Y-308850000D01*
X249250000Y-308850000D02*
X249900000Y-310850000D01*
X243300000Y-312650000D02*
X246100000Y-312650000D01*
X235600000Y-320350000D02*
X243300000Y-312650000D01*
X235600000Y-321673001D02*
X235600000Y-320350000D01*
X241772617Y-324382935D02*
X238309934Y-324382935D01*
X238309934Y-324382935D02*
X235600000Y-321673001D01*
X215941327Y-278928027D02*
X216861327Y-278008027D01*
X215941327Y-284473452D02*
X215941327Y-278928027D01*
X222496943Y-295153743D02*
X223416942Y-294233744D01*
X222496943Y-300699169D02*
X222496943Y-295153743D01*
X229972558Y-314127442D02*
X228000000Y-316100000D01*
X229972558Y-310459461D02*
X229972558Y-314127442D01*
X236980199Y-322027888D02*
X236374546Y-321422235D01*
X240821117Y-322027888D02*
X236980199Y-322027888D01*
X203471008Y-297448047D02*
X204391008Y-296528047D01*
X203471008Y-302993472D02*
X203471008Y-297448047D01*
X196915393Y-281222329D02*
X197835393Y-280302329D01*
X196915393Y-286767755D02*
X196915393Y-281222329D01*
X212150000Y-313957141D02*
X210946623Y-312753764D01*
X212150000Y-318700000D02*
X212150000Y-313957141D01*
X184910952Y-281197898D02*
X186302285Y-282589231D01*
X178400721Y-281197898D02*
X184910952Y-281197898D01*
X194345531Y-270616090D02*
X195782371Y-270616090D01*
X193500000Y-271100000D02*
X194345531Y-270616090D01*
X184750000Y-276600000D02*
X193500000Y-271100000D01*
X184900000Y-277500000D02*
X184750000Y-276600000D01*
X186302285Y-282589231D02*
X185250000Y-278850000D01*
X185250000Y-278850000D02*
X184900000Y-277500000D01*
X213371465Y-268321788D02*
X214808305Y-268321788D01*
X212550000Y-268900000D02*
X213371465Y-268321788D01*
X203500000Y-274250000D02*
X212550000Y-268900000D01*
X205320479Y-278785094D02*
X203500000Y-274250000D01*
X205328219Y-280294929D02*
X205328219Y-278792834D01*
X205328219Y-278792834D02*
X205320479Y-278785094D01*
X201083290Y-276050000D02*
X205328219Y-280294929D01*
X179396275Y-285500000D02*
X190700000Y-285500000D01*
X176045674Y-282149399D02*
X179396275Y-285500000D01*
X190700000Y-285500000D02*
X191450000Y-284750000D01*
X191450000Y-284750000D02*
X191850000Y-279800000D01*
X191850000Y-279800000D02*
X197577030Y-276050000D01*
X197577030Y-276050000D02*
X201083290Y-276050000D01*
X232818240Y-267043484D02*
X233834239Y-266027485D01*
X230150000Y-267900000D02*
X232818240Y-267043484D01*
X225617857Y-269384316D02*
X230150000Y-267900000D01*
X222650000Y-272352173D02*
X225617857Y-269384316D01*
X224354153Y-278000626D02*
X222650000Y-276296473D01*
X222650000Y-276296473D02*
X222650000Y-272352173D01*
X221053516Y-274699989D02*
X224354153Y-278000626D01*
X214263600Y-274699989D02*
X221053516Y-274699989D01*
X210999989Y-280550011D02*
X210999989Y-277963600D01*
X208100000Y-283450000D02*
X210999989Y-280550011D01*
X202900000Y-283450000D02*
X208100000Y-283450000D01*
X210999989Y-277963600D02*
X214263600Y-274699989D01*
X180039728Y-289450000D02*
X196900000Y-289450000D01*
X196900000Y-289450000D02*
X202900000Y-283450000D01*
X173690627Y-283100899D02*
X180039728Y-289450000D01*
X248051874Y-255388527D02*
X249488714Y-255388527D01*
X247250000Y-256000000D02*
X248051874Y-255388527D01*
X239300000Y-260500000D02*
X247250000Y-256000000D01*
X238100000Y-261450000D02*
X239300000Y-260500000D01*
X240008628Y-267361668D02*
X237950000Y-263150000D01*
X237950000Y-263150000D02*
X238100000Y-261450000D01*
X208286400Y-283900011D02*
X211450000Y-280736411D01*
X230150000Y-279400000D02*
X230150000Y-274150000D01*
X230150000Y-274150000D02*
X233220296Y-274150000D01*
X203086399Y-283900011D02*
X208286400Y-283900011D01*
X218700000Y-275150000D02*
X223050000Y-281100000D01*
X228450000Y-281100000D02*
X230150000Y-279400000D01*
X223050000Y-281100000D02*
X228450000Y-281100000D01*
X233220296Y-274150000D02*
X240008628Y-267361668D01*
X214450000Y-275150000D02*
X218700000Y-275150000D01*
X171335580Y-284052400D02*
X177183191Y-289900011D01*
X211450000Y-278150000D02*
X214450000Y-275150000D01*
X211450000Y-280736411D02*
X211450000Y-278150000D01*
X177183191Y-289900011D02*
X197086400Y-289900011D01*
X197086400Y-289900011D02*
X203086399Y-283900011D01*
X192538449Y-298495498D02*
X192857900Y-298814949D01*
X186015141Y-298495498D02*
X192538449Y-298495498D01*
X195199978Y-290350022D02*
X197392932Y-290350022D01*
X192857900Y-298814949D02*
X191788566Y-297745615D01*
X200901146Y-286841808D02*
X202337986Y-286841808D01*
X191788566Y-297745615D02*
X191788566Y-293761434D01*
X197392932Y-290350022D02*
X200901146Y-286841808D01*
X191788566Y-293761434D02*
X195199978Y-290350022D01*
X218768329Y-284547505D02*
X221363920Y-284547505D01*
X210814500Y-292501334D02*
X218768329Y-284547505D01*
X210814500Y-295451312D02*
X210814500Y-292501334D01*
X211883834Y-296520646D02*
X210814500Y-295451312D01*
X207813166Y-292449978D02*
X210814500Y-295451312D01*
X202277200Y-292449978D02*
X207813166Y-292449978D01*
X198099978Y-296627200D02*
X202277200Y-292449978D01*
X183660094Y-299446999D02*
X186213095Y-302000000D01*
X186213095Y-302000000D02*
X195550000Y-302000000D01*
X195550000Y-302000000D02*
X198099978Y-299450022D01*
X198099978Y-299450022D02*
X198099978Y-296627200D01*
X237446798Y-282253202D02*
X240389855Y-282253202D01*
X230909769Y-294226343D02*
X228191713Y-291508287D01*
X228191713Y-291508287D02*
X237446798Y-282253202D01*
X217549989Y-294363600D02*
X221513600Y-290399989D01*
X217549989Y-296650011D02*
X217549989Y-294363600D01*
X198549989Y-296813600D02*
X202463600Y-292899989D01*
X221513600Y-290399989D02*
X227083415Y-290399989D01*
X227083415Y-290399989D02*
X230909769Y-294226343D01*
X195736400Y-302450011D02*
X198549989Y-299636422D01*
X215400002Y-298799998D02*
X217549989Y-296650011D01*
X202463600Y-292899989D02*
X204886400Y-292899989D01*
X183356559Y-302450011D02*
X195736400Y-302450011D01*
X210786408Y-298799998D02*
X215400002Y-298799998D01*
X204886400Y-292899989D02*
X210786408Y-298799998D01*
X198549989Y-299636422D02*
X198549989Y-296813600D01*
X181305047Y-300398499D02*
X183356559Y-302450011D01*
X255008574Y-272650000D02*
X256044329Y-271614245D01*
X252600000Y-272950000D02*
X255008574Y-272650000D01*
X244500000Y-277000000D02*
X252600000Y-272950000D01*
X246556503Y-282077551D02*
X244500000Y-277000000D01*
X246564243Y-283587386D02*
X246564243Y-282085291D01*
X246564243Y-282085291D02*
X246556503Y-282077551D01*
X180500022Y-302900022D02*
X195999978Y-302900022D01*
X221700000Y-290850000D02*
X223750000Y-290850000D01*
X199000000Y-299900000D02*
X199000000Y-297000000D01*
X240900000Y-288300000D02*
X241851629Y-288300000D01*
X202650000Y-293350000D02*
X204700000Y-293350000D01*
X210600008Y-299250009D02*
X215641987Y-299250009D01*
X218000000Y-296891996D02*
X218000000Y-294550000D01*
X195999978Y-302900022D02*
X199000000Y-299900000D01*
X199000000Y-297000000D02*
X202650000Y-293350000D01*
X204700000Y-293350000D02*
X210600008Y-299250009D01*
X241851629Y-288300000D02*
X246564243Y-283587386D01*
X232400000Y-299500000D02*
X236400000Y-295500000D01*
X215641987Y-299250009D02*
X218000000Y-296891996D01*
X236400000Y-292800000D02*
X240900000Y-288300000D01*
X236400000Y-295500000D02*
X236400000Y-292800000D01*
X223750000Y-290850000D02*
X232400000Y-299500000D01*
X178950000Y-301350000D02*
X180500022Y-302900022D01*
X218000000Y-294550000D02*
X221700000Y-290850000D01*
X199368347Y-314995498D02*
X199413515Y-315040666D01*
X192515141Y-314995498D02*
X199368347Y-314995498D01*
X208250000Y-303067525D02*
X208893601Y-303067525D01*
X199413515Y-313432688D02*
X198400000Y-312419173D01*
X199413515Y-315040666D02*
X199413515Y-313432688D01*
X198400000Y-312419173D02*
X198400000Y-309150000D01*
X198400000Y-309150000D02*
X202200000Y-305350000D01*
X202200000Y-305350000D02*
X208250000Y-305350000D01*
X208250000Y-305350000D02*
X208250000Y-303067525D01*
X225776778Y-300773222D02*
X227919536Y-300773222D01*
X221231710Y-305318290D02*
X225776778Y-300773222D01*
X216900000Y-305318290D02*
X221231710Y-305318290D01*
X218439450Y-312746363D02*
X216900000Y-311206913D01*
X216900000Y-311206913D02*
X216900000Y-305318290D01*
X215343087Y-309650000D02*
X218439450Y-312746363D01*
X191271099Y-317058004D02*
X203641996Y-317058004D01*
X203641996Y-317058004D02*
X205400000Y-315300000D01*
X205400000Y-315300000D02*
X205400000Y-313300000D01*
X190160094Y-315946999D02*
X191271099Y-317058004D01*
X205400000Y-313300000D02*
X209050000Y-309650000D01*
X209050000Y-309650000D02*
X215343087Y-309650000D01*
X228492444Y-319425001D02*
X237465384Y-310452061D01*
X190331549Y-319425001D02*
X228492444Y-319425001D01*
X187805047Y-316898499D02*
X190331549Y-319425001D01*
X244349879Y-298478920D02*
X246945470Y-298478920D01*
X237457644Y-305371155D02*
X244349879Y-298478920D01*
X237457644Y-308942226D02*
X237457644Y-305371155D01*
X237465384Y-308949966D02*
X237457644Y-308942226D01*
X237465384Y-310452061D02*
X237465384Y-308949966D01*
X261163105Y-287839962D02*
X262599945Y-287839962D01*
X259650000Y-288550000D02*
X261163105Y-287839962D01*
X252050525Y-294877418D02*
X259650000Y-288550000D01*
X253119859Y-299813103D02*
X252050525Y-298743769D01*
X252050525Y-298743769D02*
X252050525Y-294877418D01*
X185450000Y-317850000D02*
X187475011Y-319875011D01*
X248782962Y-304150000D02*
X253119859Y-299813103D01*
X234802167Y-319875011D02*
X243050000Y-311627178D01*
X243050000Y-311627178D02*
X243050000Y-308340069D01*
X243050000Y-308340069D02*
X247240069Y-304150000D01*
X247240069Y-304150000D02*
X248782962Y-304150000D01*
X187475011Y-319875011D02*
X234802167Y-319875011D01*
M02*
