G04 #@! TF.GenerationSoftware,KiCad,Pcbnew,(5.1.4)-1*
G04 #@! TF.CreationDate,2023-03-14T13:34:02-04:00*
G04 #@! TF.ProjectId,ThumbsUp,5468756d-6273-4557-902e-6b696361645f,rev?*
G04 #@! TF.SameCoordinates,Original*
G04 #@! TF.FileFunction,Copper,L1,Top*
G04 #@! TF.FilePolarity,Positive*
%FSLAX46Y46*%
G04 Gerber Fmt 4.6, Leading zero omitted, Abs format (unit mm)*
G04 Created by KiCad (PCBNEW (5.1.4)-1) date 2023-03-14 13:34:02*
%MOMM*%
%LPD*%
G04 APERTURE LIST*
%ADD10C,1.700000*%
%ADD11C,0.100000*%
%ADD12C,1.700000*%
%ADD13C,2.032000*%
%ADD14C,0.800000*%
%ADD15C,0.250000*%
G04 APERTURE END LIST*
D10*
X185450000Y-317850000D03*
D11*
G36*
X186556522Y-318319691D02*
G01*
X184980309Y-318956522D01*
X184343478Y-317380309D01*
X185919691Y-316743478D01*
X186556522Y-318319691D01*
X186556522Y-318319691D01*
G37*
D10*
X187805047Y-316898499D03*
D12*
X187805047Y-316898499D02*
X187805047Y-316898499D01*
D10*
X190160094Y-315946999D03*
D12*
X190160094Y-315946999D02*
X190160094Y-315946999D01*
D10*
X192515141Y-314995498D03*
D12*
X192515141Y-314995498D02*
X192515141Y-314995498D01*
D10*
X242724118Y-326737982D03*
D12*
X242724118Y-326737982D02*
X242724118Y-326737982D01*
D10*
X241772617Y-324382935D03*
D12*
X241772617Y-324382935D02*
X241772617Y-324382935D01*
D10*
X240821117Y-322027888D03*
D12*
X240821117Y-322027888D02*
X240821117Y-322027888D01*
D10*
X239869616Y-319672841D03*
D11*
G36*
X239399925Y-320779363D02*
G01*
X238763094Y-319203150D01*
X240339307Y-318566319D01*
X240976138Y-320142532D01*
X239399925Y-320779363D01*
X239399925Y-320779363D01*
G37*
D10*
X178400721Y-281197898D03*
D12*
X178400721Y-281197898D02*
X178400721Y-281197898D01*
D10*
X176045674Y-282149399D03*
D12*
X176045674Y-282149399D02*
X176045674Y-282149399D01*
D10*
X173690627Y-283100899D03*
D12*
X173690627Y-283100899D02*
X173690627Y-283100899D01*
D10*
X171335580Y-284052400D03*
D11*
G36*
X172442102Y-284522091D02*
G01*
X170865889Y-285158922D01*
X170229058Y-283582709D01*
X171805271Y-282945878D01*
X172442102Y-284522091D01*
X172442102Y-284522091D01*
G37*
D10*
X186015141Y-298495498D03*
D12*
X186015141Y-298495498D02*
X186015141Y-298495498D01*
D10*
X183660094Y-299446999D03*
D12*
X183660094Y-299446999D02*
X183660094Y-299446999D01*
D10*
X181305047Y-300398499D03*
D12*
X181305047Y-300398499D02*
X181305047Y-300398499D01*
D10*
X178950000Y-301350000D03*
D11*
G36*
X180056522Y-301819691D02*
G01*
X178480309Y-302456522D01*
X177843478Y-300880309D01*
X179419691Y-300243478D01*
X180056522Y-301819691D01*
X180056522Y-301819691D01*
G37*
D10*
X98120102Y-313645498D03*
D12*
X98120102Y-313645498D02*
X98120102Y-313645498D01*
D10*
X100475149Y-314596999D03*
D12*
X100475149Y-314596999D02*
X100475149Y-314596999D01*
D10*
X102830196Y-315548499D03*
D12*
X102830196Y-315548499D02*
X102830196Y-315548499D01*
D10*
X105185243Y-316500000D03*
D11*
G36*
X104715552Y-315393478D02*
G01*
X106291765Y-316030309D01*
X105654934Y-317606522D01*
X104078721Y-316969691D01*
X104715552Y-315393478D01*
X104715552Y-315393478D01*
G37*
D10*
X112000000Y-300500000D03*
D11*
G36*
X111530309Y-299393478D02*
G01*
X113106522Y-300030309D01*
X112469691Y-301606522D01*
X110893478Y-300969691D01*
X111530309Y-299393478D01*
X111530309Y-299393478D01*
G37*
D10*
X109644953Y-299548499D03*
D12*
X109644953Y-299548499D02*
X109644953Y-299548499D01*
D10*
X107289906Y-298596999D03*
D12*
X107289906Y-298596999D02*
X107289906Y-298596999D01*
D10*
X104934859Y-297645498D03*
D12*
X104934859Y-297645498D02*
X104934859Y-297645498D01*
D10*
X111492437Y-281339332D03*
D12*
X111492437Y-281339332D02*
X111492437Y-281339332D01*
D10*
X113847484Y-282290833D03*
D12*
X113847484Y-282290833D02*
X113847484Y-282290833D01*
D10*
X116202531Y-283242333D03*
D12*
X116202531Y-283242333D02*
X116202531Y-283242333D01*
D10*
X118557578Y-284193834D03*
D11*
G36*
X118087887Y-283087312D02*
G01*
X119664100Y-283724143D01*
X119027269Y-285300356D01*
X117451056Y-284663525D01*
X118087887Y-283087312D01*
X118087887Y-283087312D01*
G37*
D10*
X47881938Y-326930168D03*
D12*
X47881938Y-326930168D02*
X47881938Y-326930168D01*
D10*
X48833439Y-324575121D03*
D12*
X48833439Y-324575121D02*
X48833439Y-324575121D01*
D10*
X49784939Y-322220074D03*
D12*
X49784939Y-322220074D02*
X49784939Y-322220074D01*
D10*
X50736440Y-319865027D03*
D11*
G36*
X49629918Y-320334718D02*
G01*
X50266749Y-318758505D01*
X51842962Y-319395336D01*
X51206131Y-320971549D01*
X49629918Y-320334718D01*
X49629918Y-320334718D01*
G37*
D13*
X257177352Y-287765909D03*
X262599945Y-287839962D03*
X250621736Y-271540192D03*
X256044329Y-271614245D03*
X244066121Y-255314474D03*
X249488714Y-255388527D03*
X241522877Y-298404867D03*
X246945470Y-298478920D03*
X234967262Y-282179149D03*
X240389855Y-282253202D03*
X228411646Y-265953432D03*
X233834239Y-266027485D03*
X222496943Y-300699169D03*
X227919536Y-300773222D03*
X215941327Y-284473452D03*
X221363920Y-284547505D03*
X209385712Y-268247735D03*
X214808305Y-268321788D03*
X203471008Y-302993472D03*
X208893601Y-303067525D03*
X196915393Y-286767755D03*
X202337986Y-286841808D03*
X190359778Y-270542037D03*
X195782371Y-270616090D03*
X82243606Y-313957668D03*
X78394361Y-310137549D03*
X88799221Y-297731951D03*
X84949976Y-293911832D03*
X95354837Y-281506233D03*
X91505592Y-277686114D03*
X63217672Y-311663366D03*
X59368427Y-307843247D03*
X69773287Y-295437648D03*
X65924042Y-291617529D03*
X76328902Y-279211931D03*
X72479657Y-275391812D03*
X44191737Y-309369063D03*
X40342492Y-305548944D03*
X50747353Y-293143345D03*
X46898108Y-289323226D03*
X57302968Y-276917628D03*
X53453723Y-273097509D03*
X28537262Y-298730105D03*
X24688017Y-294909986D03*
X35092878Y-282504388D03*
X31243633Y-278684269D03*
X41648493Y-266278671D03*
X37799248Y-262458552D03*
D10*
X94083952Y-358862971D03*
D11*
G36*
X94251249Y-360053354D02*
G01*
X92893569Y-359030268D01*
X93916655Y-357672588D01*
X95274335Y-358695674D01*
X94251249Y-360053354D01*
X94251249Y-360053354D01*
G37*
D10*
X96112486Y-360391581D03*
D12*
X96112486Y-360391581D02*
X96112486Y-360391581D01*
D10*
X98141020Y-361920191D03*
D12*
X98141020Y-361920191D02*
X98141020Y-361920191D01*
D10*
X100169555Y-363448801D03*
D12*
X100169555Y-363448801D02*
X100169555Y-363448801D01*
D10*
X190058136Y-363387914D03*
D11*
G36*
X191248519Y-363555211D02*
G01*
X189890839Y-364578297D01*
X188867753Y-363220617D01*
X190225433Y-362197531D01*
X191248519Y-363555211D01*
X191248519Y-363555211D01*
G37*
D10*
X192086670Y-361859304D03*
D12*
X192086670Y-361859304D02*
X192086670Y-361859304D01*
D10*
X194115204Y-360330694D03*
D12*
X194115204Y-360330694D02*
X194115204Y-360330694D01*
D10*
X196143739Y-358802084D03*
D12*
X196143739Y-358802084D02*
X196143739Y-358802084D01*
D14*
X58600000Y-318400000D03*
X58550000Y-315700000D03*
X246100000Y-312650000D03*
X228000000Y-316100000D03*
X236374546Y-321422235D03*
X212150000Y-318700000D03*
D15*
X28537262Y-289060004D02*
X28537262Y-298730105D01*
X35092878Y-282504388D02*
X28537262Y-289060004D01*
X35092878Y-271397446D02*
X35092878Y-282504388D01*
X40211653Y-266278671D02*
X35092878Y-271397446D01*
X41648493Y-266278671D02*
X40211653Y-266278671D01*
X58600000Y-318400000D02*
X54862341Y-321387659D01*
X54862341Y-321387659D02*
X49319832Y-326930168D01*
X49319832Y-326930168D02*
X47881938Y-326930168D01*
X50747353Y-280982958D02*
X50747353Y-293143345D01*
X54812683Y-276917628D02*
X50747353Y-280982958D01*
X57302968Y-276917628D02*
X54812683Y-276917628D01*
X44191737Y-298262121D02*
X44191737Y-309369063D01*
X49310513Y-293143345D02*
X44191737Y-298262121D01*
X50747353Y-293143345D02*
X49310513Y-293143345D01*
X49683438Y-323725122D02*
X50524878Y-323725122D01*
X50524878Y-323725122D02*
X58550000Y-315700000D01*
X48833439Y-324575121D02*
X49683438Y-323725122D01*
X76328902Y-279211931D02*
X71288069Y-279211931D01*
X69773287Y-280726713D02*
X69773287Y-295437648D01*
X71288069Y-279211931D02*
X69773287Y-280726713D01*
X63217672Y-300556423D02*
X63217672Y-311663366D01*
X68336447Y-295437648D02*
X63217672Y-300556423D01*
X69773287Y-295437648D02*
X68336447Y-295437648D01*
X56902253Y-311663366D02*
X63217672Y-311663366D01*
X49304908Y-319260711D02*
X56902253Y-311663366D01*
X49304908Y-320537962D02*
X49304908Y-319260711D01*
X49784939Y-321017993D02*
X49304908Y-320537962D01*
X49784939Y-322220074D02*
X49784939Y-321017993D01*
X88799221Y-288061849D02*
X88799221Y-297731951D01*
X95354837Y-281506233D02*
X88799221Y-288061849D01*
X88799221Y-297731951D02*
X82150000Y-304381172D01*
X82243606Y-304474778D02*
X82243606Y-313957668D01*
X82150000Y-304381172D02*
X82243606Y-304474778D01*
X56643799Y-313957668D02*
X82243606Y-313957668D01*
X50736440Y-319865027D02*
X56643799Y-313957668D01*
X255615909Y-287765909D02*
X257177352Y-287765909D01*
X249800000Y-272361928D02*
X249800000Y-278400000D01*
X250621736Y-271540192D02*
X249800000Y-272361928D01*
X249800000Y-278400000D02*
X252700000Y-281300000D01*
X252700000Y-281300000D02*
X252700000Y-285300000D01*
X252700000Y-285300000D02*
X253150000Y-285300000D01*
X253150000Y-285300000D02*
X255615909Y-287765909D01*
X244066121Y-256751314D02*
X244066121Y-255314474D01*
X243100000Y-257717435D02*
X244066121Y-256751314D01*
X243100000Y-262200000D02*
X243100000Y-257717435D01*
X245600000Y-264700000D02*
X243100000Y-262200000D01*
X250621736Y-271540192D02*
X245600000Y-266518456D01*
X245600000Y-266518456D02*
X245600000Y-264700000D01*
X246000000Y-312550000D02*
X246100000Y-312650000D01*
X240506878Y-299420866D02*
X240506878Y-304956878D01*
X241522877Y-298404867D02*
X240506878Y-299420866D01*
X243250000Y-307700000D02*
X243250000Y-311050000D01*
X240506878Y-304956878D02*
X243250000Y-307700000D01*
X243250000Y-311050000D02*
X244750000Y-312550000D01*
X244750000Y-312550000D02*
X246000000Y-312550000D01*
X234967262Y-282482738D02*
X234967262Y-282179149D01*
X239854867Y-298404867D02*
X236850000Y-295400000D01*
X241522877Y-298404867D02*
X239854867Y-298404867D01*
X236850000Y-295400000D02*
X236850000Y-291950000D01*
X236850000Y-291950000D02*
X234100000Y-289200000D01*
X234100000Y-289200000D02*
X234100000Y-283350000D01*
X234100000Y-283350000D02*
X234967262Y-282482738D01*
X232379149Y-282179149D02*
X234967262Y-282179149D01*
X230050000Y-279850000D02*
X232379149Y-282179149D01*
X230050000Y-275150000D02*
X230050000Y-279850000D01*
X227395647Y-272495647D02*
X230050000Y-275150000D01*
X228411646Y-265953432D02*
X227395647Y-266969431D01*
X227395647Y-266969431D02*
X227395647Y-272495647D01*
X228000000Y-316100000D02*
X231052311Y-316100000D01*
X231052311Y-316100000D02*
X236374546Y-321422235D01*
X224550000Y-312650000D02*
X228000000Y-316100000D01*
X224550000Y-310500000D02*
X224550000Y-312650000D01*
X221600000Y-307550000D02*
X224550000Y-310500000D01*
X222496943Y-300699169D02*
X221600000Y-301596112D01*
X221600000Y-301596112D02*
X221600000Y-307550000D01*
X220549169Y-300699169D02*
X222496943Y-300699169D01*
X218050000Y-298200000D02*
X220549169Y-300699169D01*
X218050000Y-293900000D02*
X218050000Y-298200000D01*
X214550000Y-290400000D02*
X218050000Y-293900000D01*
X215941327Y-284473452D02*
X214550000Y-285864779D01*
X214550000Y-285864779D02*
X214550000Y-290400000D01*
X211550000Y-280082125D02*
X215941327Y-284473452D01*
X211550000Y-278350000D02*
X211550000Y-280082125D01*
X208250000Y-275050000D02*
X211550000Y-278350000D01*
X209385712Y-268247735D02*
X208250000Y-269383447D01*
X208250000Y-269383447D02*
X208250000Y-275050000D01*
X212150000Y-319265685D02*
X215634315Y-322750000D01*
X212150000Y-318700000D02*
X212150000Y-319265685D01*
X236792457Y-322750000D02*
X239869616Y-319672841D01*
X215634315Y-322750000D02*
X236792457Y-322750000D01*
X208100000Y-318700000D02*
X212150000Y-318700000D01*
X205400000Y-315999999D02*
X208100000Y-318700000D01*
X205400000Y-313150000D02*
X205400000Y-315999999D01*
X202500000Y-310250000D02*
X205400000Y-313150000D01*
X203471008Y-302993472D02*
X202500000Y-303964480D01*
X202500000Y-303964480D02*
X202500000Y-310250000D01*
X200743472Y-302993472D02*
X203471008Y-302993472D01*
X198850000Y-301100000D02*
X200743472Y-302993472D01*
X198850000Y-296100000D02*
X198850000Y-301100000D01*
X195800000Y-293050000D02*
X198850000Y-296100000D01*
X196915393Y-286767755D02*
X195800000Y-287883148D01*
X195800000Y-287883148D02*
X195800000Y-293050000D01*
X189500000Y-271401815D02*
X190359778Y-270542037D01*
X189500000Y-277250000D02*
X189500000Y-271401815D01*
X191950000Y-279700000D02*
X189500000Y-277250000D01*
X191950000Y-283500000D02*
X191950000Y-279700000D01*
X196915393Y-286767755D02*
X195217755Y-286767755D01*
X195217755Y-286767755D02*
X191950000Y-283500000D01*
M02*
