M48
; DRILL file {KiCad (5.1.4)-1} date 3/14/2023 1:34:07 PM
; FORMAT={-:-/ absolute / metric / decimal}
; #@! TF.CreationDate,2023-03-14T13:34:07-04:00
; #@! TF.GenerationSoftware,Kicad,Pcbnew,(5.1.4)-1
; #@! TF.FileFunction,Plated,1,2,PTH
FMAT,2
METRIC
T1C0.400
T2C1.000
T3C1.270
%
G90
G05
T1
X58.55Y-315.7
X58.6Y-318.4
X212.15Y-318.7
X228.0Y-316.1
X236.375Y-321.422
X246.1Y-312.65
T2
X111.492Y-281.339
X113.847Y-282.291
X116.203Y-283.242
X118.558Y-284.194
X171.336Y-284.052
X173.691Y-283.101
X176.046Y-282.149
X178.401Y-281.198
X94.084Y-358.863
X96.112Y-360.392
X98.141Y-361.92
X100.17Y-363.449
X190.058Y-363.388
X192.087Y-361.859
X194.115Y-360.331
X196.144Y-358.802
X98.12Y-313.645
X100.475Y-314.597
X102.83Y-315.548
X105.185Y-316.5
X185.45Y-317.85
X187.805Y-316.898
X190.16Y-315.947
X192.515Y-314.995
X239.87Y-319.673
X240.821Y-322.028
X241.773Y-324.383
X242.724Y-326.738
X178.95Y-301.35
X181.305Y-300.398
X183.66Y-299.447
X186.015Y-298.495
X104.935Y-297.645
X107.29Y-298.597
X109.645Y-299.548
X112.0Y-300.5
X47.882Y-326.93
X48.833Y-324.575
X49.785Y-322.22
X50.736Y-319.865
T3
X91.506Y-277.686
X95.355Y-281.506
X78.394Y-310.138
X82.244Y-313.958
X196.915Y-286.768
X202.338Y-286.842
X24.688Y-294.91
X28.537Y-298.73
X215.941Y-284.473
X221.364Y-284.548
X228.412Y-265.953
X233.834Y-266.027
X190.36Y-270.542
X195.782Y-270.616
X65.924Y-291.618
X69.773Y-295.438
X59.368Y-307.843
X63.218Y-311.663
X53.454Y-273.098
X57.303Y-276.918
X244.066Y-255.314
X249.489Y-255.389
X37.799Y-262.459
X41.648Y-266.279
X257.177Y-287.766
X262.6Y-287.84
X209.386Y-268.248
X214.808Y-268.322
X250.622Y-271.54
X256.044Y-271.614
X222.497Y-300.699
X227.92Y-300.773
X203.471Y-302.993
X208.894Y-303.068
X84.95Y-293.912
X88.799Y-297.732
X40.342Y-305.549
X44.192Y-309.369
X46.898Y-289.323
X50.747Y-293.143
X72.48Y-275.392
X76.329Y-279.212
X31.244Y-278.684
X35.093Y-282.504
X241.523Y-298.405
X246.945Y-298.479
X234.967Y-282.179
X240.39Y-282.253
T0
M30
