G04 #@! TF.GenerationSoftware,KiCad,Pcbnew,(5.1.4)-1*
G04 #@! TF.CreationDate,2024-04-24T20:53:09-04:00*
G04 #@! TF.ProjectId,ThumbsUp,5468756d-6273-4557-902e-6b696361645f,rev?*
G04 #@! TF.SameCoordinates,Original*
G04 #@! TF.FileFunction,Soldermask,Top*
G04 #@! TF.FilePolarity,Negative*
%FSLAX46Y46*%
G04 Gerber Fmt 4.6, Leading zero omitted, Abs format (unit mm)*
G04 Created by KiCad (PCBNEW (5.1.4)-1) date 2024-04-24 20:53:09*
%MOMM*%
%LPD*%
G04 APERTURE LIST*
%ADD10C,0.100000*%
G04 APERTURE END LIST*
D10*
G36*
X190664725Y-362695747D02*
G01*
X191319942Y-363565249D01*
X191319942Y-363565250D01*
X190624920Y-364088986D01*
X189880801Y-364649720D01*
X189880800Y-364649720D01*
X189236924Y-363795267D01*
X188796330Y-363210579D01*
X188796330Y-363210578D01*
X189841241Y-362423182D01*
X190235471Y-362126108D01*
X190235472Y-362126108D01*
X190664725Y-362695747D01*
X190664725Y-362695747D01*
G37*
G36*
X100279997Y-362554319D02*
G01*
X100346182Y-362560838D01*
X100516021Y-362612358D01*
X100672546Y-362696023D01*
X100708284Y-362725353D01*
X100809741Y-362808615D01*
X100893003Y-362910072D01*
X100922333Y-362945810D01*
X101005998Y-363102335D01*
X101057518Y-363272174D01*
X101074914Y-363448801D01*
X101057518Y-363625428D01*
X101005998Y-363795267D01*
X100922333Y-363951792D01*
X100893003Y-363987530D01*
X100809741Y-364088987D01*
X100708284Y-364172249D01*
X100672546Y-364201579D01*
X100516021Y-364285244D01*
X100346182Y-364336764D01*
X100279997Y-364343283D01*
X100213815Y-364349801D01*
X100125295Y-364349801D01*
X100059113Y-364343283D01*
X99992928Y-364336764D01*
X99823089Y-364285244D01*
X99666564Y-364201579D01*
X99630826Y-364172249D01*
X99529369Y-364088987D01*
X99446107Y-363987530D01*
X99416777Y-363951792D01*
X99333112Y-363795267D01*
X99281592Y-363625428D01*
X99264196Y-363448801D01*
X99281592Y-363272174D01*
X99333112Y-363102335D01*
X99416777Y-362945810D01*
X99446107Y-362910072D01*
X99529369Y-362808615D01*
X99630826Y-362725353D01*
X99666564Y-362696023D01*
X99823089Y-362612358D01*
X99992928Y-362560838D01*
X100059113Y-362554319D01*
X100125295Y-362547801D01*
X100213815Y-362547801D01*
X100279997Y-362554319D01*
X100279997Y-362554319D01*
G37*
G36*
X98251462Y-361025709D02*
G01*
X98317647Y-361032228D01*
X98487486Y-361083748D01*
X98487488Y-361083749D01*
X98530100Y-361106526D01*
X98644011Y-361167413D01*
X98679749Y-361196743D01*
X98781206Y-361280005D01*
X98843829Y-361356313D01*
X98893798Y-361417200D01*
X98977463Y-361573725D01*
X99028983Y-361743564D01*
X99046379Y-361920191D01*
X99028983Y-362096818D01*
X98977463Y-362266657D01*
X98893798Y-362423182D01*
X98864468Y-362458920D01*
X98781206Y-362560377D01*
X98679749Y-362643639D01*
X98644011Y-362672969D01*
X98487486Y-362756634D01*
X98317647Y-362808154D01*
X98251463Y-362814672D01*
X98185280Y-362821191D01*
X98096760Y-362821191D01*
X98030577Y-362814672D01*
X97964393Y-362808154D01*
X97794554Y-362756634D01*
X97638029Y-362672969D01*
X97602291Y-362643639D01*
X97500834Y-362560377D01*
X97417572Y-362458920D01*
X97388242Y-362423182D01*
X97304577Y-362266657D01*
X97253057Y-362096818D01*
X97235661Y-361920191D01*
X97253057Y-361743564D01*
X97304577Y-361573725D01*
X97388242Y-361417200D01*
X97438211Y-361356313D01*
X97500834Y-361280005D01*
X97602291Y-361196743D01*
X97638029Y-361167413D01*
X97751940Y-361106526D01*
X97794552Y-361083749D01*
X97794554Y-361083748D01*
X97964393Y-361032228D01*
X98030578Y-361025709D01*
X98096760Y-361019191D01*
X98185280Y-361019191D01*
X98251462Y-361025709D01*
X98251462Y-361025709D01*
G37*
G36*
X192197112Y-360964822D02*
G01*
X192263297Y-360971341D01*
X192433136Y-361022861D01*
X192589661Y-361106526D01*
X192625399Y-361135856D01*
X192726856Y-361219118D01*
X192810118Y-361320575D01*
X192839448Y-361356313D01*
X192923113Y-361512838D01*
X192974633Y-361682677D01*
X192992029Y-361859304D01*
X192974633Y-362035931D01*
X192923113Y-362205770D01*
X192839448Y-362362295D01*
X192810118Y-362398033D01*
X192726856Y-362499490D01*
X192652102Y-362560838D01*
X192589661Y-362612082D01*
X192589659Y-362612083D01*
X192475749Y-362672970D01*
X192433136Y-362695747D01*
X192263297Y-362747267D01*
X192197113Y-362753785D01*
X192130930Y-362760304D01*
X192042410Y-362760304D01*
X191976227Y-362753785D01*
X191910043Y-362747267D01*
X191740204Y-362695747D01*
X191697592Y-362672970D01*
X191583681Y-362612083D01*
X191583679Y-362612082D01*
X191521238Y-362560838D01*
X191446484Y-362499490D01*
X191363222Y-362398033D01*
X191333892Y-362362295D01*
X191250227Y-362205770D01*
X191198707Y-362035931D01*
X191181311Y-361859304D01*
X191198707Y-361682677D01*
X191250227Y-361512838D01*
X191333892Y-361356313D01*
X191363222Y-361320575D01*
X191446484Y-361219118D01*
X191547941Y-361135856D01*
X191583679Y-361106526D01*
X191740204Y-361022861D01*
X191910043Y-360971341D01*
X191976228Y-360964822D01*
X192042410Y-360958304D01*
X192130930Y-360958304D01*
X192197112Y-360964822D01*
X192197112Y-360964822D01*
G37*
G36*
X96222929Y-359497100D02*
G01*
X96289113Y-359503618D01*
X96458952Y-359555138D01*
X96458954Y-359555139D01*
X96501566Y-359577916D01*
X96615477Y-359638803D01*
X96651215Y-359668133D01*
X96752672Y-359751395D01*
X96815295Y-359827703D01*
X96865264Y-359888590D01*
X96948929Y-360045115D01*
X97000449Y-360214954D01*
X97017845Y-360391581D01*
X97000449Y-360568208D01*
X96948929Y-360738047D01*
X96865264Y-360894572D01*
X96835934Y-360930310D01*
X96752672Y-361031767D01*
X96651215Y-361115029D01*
X96615477Y-361144359D01*
X96458952Y-361228024D01*
X96289113Y-361279544D01*
X96222928Y-361286063D01*
X96156746Y-361292581D01*
X96068226Y-361292581D01*
X96002044Y-361286063D01*
X95935859Y-361279544D01*
X95766020Y-361228024D01*
X95609495Y-361144359D01*
X95573757Y-361115029D01*
X95472300Y-361031767D01*
X95389038Y-360930310D01*
X95359708Y-360894572D01*
X95276043Y-360738047D01*
X95224523Y-360568208D01*
X95207127Y-360391581D01*
X95224523Y-360214954D01*
X95276043Y-360045115D01*
X95359708Y-359888590D01*
X95409677Y-359827703D01*
X95472300Y-359751395D01*
X95573757Y-359668133D01*
X95609495Y-359638803D01*
X95723406Y-359577916D01*
X95766018Y-359555139D01*
X95766020Y-359555138D01*
X95935859Y-359503618D01*
X96002043Y-359497100D01*
X96068226Y-359490581D01*
X96156746Y-359490581D01*
X96222929Y-359497100D01*
X96222929Y-359497100D01*
G37*
G36*
X194225646Y-359436212D02*
G01*
X194291831Y-359442731D01*
X194461670Y-359494251D01*
X194618195Y-359577916D01*
X194653933Y-359607246D01*
X194755390Y-359690508D01*
X194838652Y-359791965D01*
X194867982Y-359827703D01*
X194951647Y-359984228D01*
X195003167Y-360154067D01*
X195020563Y-360330694D01*
X195003167Y-360507321D01*
X194951647Y-360677160D01*
X194867982Y-360833685D01*
X194838652Y-360869423D01*
X194755390Y-360970880D01*
X194680636Y-361032228D01*
X194618195Y-361083472D01*
X194618193Y-361083473D01*
X194504283Y-361144360D01*
X194461670Y-361167137D01*
X194291831Y-361218657D01*
X194225646Y-361225176D01*
X194159464Y-361231694D01*
X194070944Y-361231694D01*
X194004762Y-361225176D01*
X193938577Y-361218657D01*
X193768738Y-361167137D01*
X193726126Y-361144360D01*
X193612215Y-361083473D01*
X193612213Y-361083472D01*
X193549772Y-361032228D01*
X193475018Y-360970880D01*
X193391756Y-360869423D01*
X193362426Y-360833685D01*
X193278761Y-360677160D01*
X193227241Y-360507321D01*
X193209845Y-360330694D01*
X193227241Y-360154067D01*
X193278761Y-359984228D01*
X193362426Y-359827703D01*
X193391756Y-359791965D01*
X193475018Y-359690508D01*
X193576475Y-359607246D01*
X193612213Y-359577916D01*
X193768738Y-359494251D01*
X193938577Y-359442731D01*
X194004762Y-359436212D01*
X194070944Y-359429694D01*
X194159464Y-359429694D01*
X194225646Y-359436212D01*
X194225646Y-359436212D01*
G37*
G36*
X94321923Y-357914121D02*
G01*
X95345758Y-358685635D01*
X95345758Y-358685636D01*
X94879729Y-359304077D01*
X94261288Y-360124777D01*
X94261287Y-360124777D01*
X93504986Y-359554863D01*
X92822146Y-359040307D01*
X92822146Y-359040306D01*
X93568919Y-358049305D01*
X93906616Y-357601165D01*
X93906617Y-357601165D01*
X94321923Y-357914121D01*
X94321923Y-357914121D01*
G37*
G36*
X196254181Y-357907602D02*
G01*
X196320366Y-357914121D01*
X196490205Y-357965641D01*
X196646730Y-358049306D01*
X196682468Y-358078636D01*
X196783925Y-358161898D01*
X196867187Y-358263355D01*
X196896517Y-358299093D01*
X196980182Y-358455618D01*
X197031702Y-358625457D01*
X197049098Y-358802084D01*
X197031702Y-358978711D01*
X196980182Y-359148550D01*
X196896517Y-359305075D01*
X196867187Y-359340813D01*
X196783925Y-359442270D01*
X196709171Y-359503618D01*
X196646730Y-359554862D01*
X196490205Y-359638527D01*
X196320366Y-359690047D01*
X196254182Y-359696565D01*
X196187999Y-359703084D01*
X196099479Y-359703084D01*
X196033296Y-359696565D01*
X195967112Y-359690047D01*
X195797273Y-359638527D01*
X195640748Y-359554862D01*
X195578307Y-359503618D01*
X195503553Y-359442270D01*
X195420291Y-359340813D01*
X195390961Y-359305075D01*
X195307296Y-359148550D01*
X195255776Y-358978711D01*
X195238380Y-358802084D01*
X195255776Y-358625457D01*
X195307296Y-358455618D01*
X195390961Y-358299093D01*
X195420291Y-358263355D01*
X195503553Y-358161898D01*
X195605010Y-358078636D01*
X195640748Y-358049306D01*
X195797273Y-357965641D01*
X195967112Y-357914121D01*
X196033297Y-357907602D01*
X196099479Y-357901084D01*
X196187999Y-357901084D01*
X196254181Y-357907602D01*
X196254181Y-357907602D01*
G37*
G36*
X146333528Y-337572954D02*
G01*
X146956688Y-337696908D01*
X148130696Y-338183198D01*
X149187274Y-338889181D01*
X150085820Y-339787727D01*
X150791803Y-340844305D01*
X151278093Y-342018313D01*
X151526001Y-343264632D01*
X151526001Y-344535368D01*
X151278093Y-345781687D01*
X150791803Y-346955695D01*
X150085820Y-348012273D01*
X149187274Y-348910819D01*
X148130696Y-349616802D01*
X146956688Y-350103092D01*
X145710370Y-350351000D01*
X144439632Y-350351000D01*
X143193314Y-350103092D01*
X142019306Y-349616802D01*
X140962728Y-348910819D01*
X140064182Y-348012273D01*
X139358199Y-346955695D01*
X138871909Y-345781687D01*
X138624001Y-344535368D01*
X138624001Y-343264632D01*
X138871909Y-342018313D01*
X139358199Y-340844305D01*
X140064182Y-339787727D01*
X140962728Y-338889181D01*
X142019306Y-338183198D01*
X143193314Y-337696908D01*
X143816474Y-337572954D01*
X144439632Y-337449000D01*
X145710370Y-337449000D01*
X146333528Y-337572954D01*
X146333528Y-337572954D01*
G37*
G36*
X146180446Y-320042504D02*
G01*
X146956688Y-320196908D01*
X148130696Y-320683198D01*
X149187274Y-321389181D01*
X150085820Y-322287727D01*
X150791803Y-323344305D01*
X151278093Y-324518313D01*
X151349699Y-324878302D01*
X151484790Y-325557447D01*
X151526001Y-325764632D01*
X151526001Y-327035368D01*
X151278093Y-328281687D01*
X150791803Y-329455695D01*
X150085820Y-330512273D01*
X149187274Y-331410819D01*
X148130696Y-332116802D01*
X146956688Y-332603092D01*
X146333528Y-332727046D01*
X145710370Y-332851000D01*
X144439632Y-332851000D01*
X143816474Y-332727046D01*
X143193314Y-332603092D01*
X142019306Y-332116802D01*
X140962728Y-331410819D01*
X140064182Y-330512273D01*
X139358199Y-329455695D01*
X138871909Y-328281687D01*
X138624001Y-327035368D01*
X138624001Y-325764632D01*
X138665213Y-325557447D01*
X138800303Y-324878302D01*
X138871909Y-324518313D01*
X139358199Y-323344305D01*
X140064182Y-322287727D01*
X140962728Y-321389181D01*
X142019306Y-320683198D01*
X143193314Y-320196908D01*
X143969556Y-320042504D01*
X144439632Y-319949000D01*
X145710370Y-319949000D01*
X146180446Y-320042504D01*
X146180446Y-320042504D01*
G37*
G36*
X49056994Y-326433147D02*
G01*
X48381953Y-328103934D01*
X46711166Y-327428893D01*
X47386207Y-325758106D01*
X49056994Y-326433147D01*
X49056994Y-326433147D01*
G37*
G36*
X243900394Y-327228233D02*
G01*
X242229607Y-327903274D01*
X241554566Y-326232487D01*
X243225353Y-325557446D01*
X243900394Y-327228233D01*
X243900394Y-327228233D01*
G37*
G36*
X48946023Y-323681491D02*
G01*
X49012208Y-323688010D01*
X49182047Y-323739530D01*
X49338572Y-323823195D01*
X49374310Y-323852525D01*
X49475767Y-323935787D01*
X49552138Y-324028847D01*
X49588359Y-324072982D01*
X49672024Y-324229507D01*
X49723544Y-324399346D01*
X49740940Y-324575973D01*
X49723544Y-324752600D01*
X49672024Y-324922439D01*
X49588359Y-325078964D01*
X49559029Y-325114702D01*
X49475767Y-325216159D01*
X49374310Y-325299421D01*
X49338572Y-325328751D01*
X49182047Y-325412416D01*
X49012208Y-325463936D01*
X48946024Y-325470454D01*
X48879841Y-325476973D01*
X48791321Y-325476973D01*
X48725138Y-325470454D01*
X48658954Y-325463936D01*
X48489115Y-325412416D01*
X48332590Y-325328751D01*
X48296852Y-325299421D01*
X48195395Y-325216159D01*
X48112133Y-325114702D01*
X48082803Y-325078964D01*
X47999138Y-324922439D01*
X47947618Y-324752600D01*
X47930222Y-324575973D01*
X47947618Y-324399346D01*
X47999138Y-324229507D01*
X48082803Y-324072982D01*
X48119024Y-324028847D01*
X48195395Y-323935787D01*
X48296852Y-323852525D01*
X48332590Y-323823195D01*
X48489115Y-323739530D01*
X48658954Y-323688010D01*
X48725139Y-323681491D01*
X48791321Y-323674973D01*
X48879841Y-323674973D01*
X48946023Y-323681491D01*
X48946023Y-323681491D01*
G37*
G36*
X241886422Y-323480832D02*
G01*
X241952606Y-323487350D01*
X242122445Y-323538870D01*
X242278970Y-323622535D01*
X242314708Y-323651865D01*
X242416165Y-323735127D01*
X242488439Y-323823195D01*
X242528757Y-323872322D01*
X242612422Y-324028847D01*
X242663942Y-324198686D01*
X242681338Y-324375313D01*
X242663942Y-324551940D01*
X242612422Y-324721779D01*
X242528757Y-324878304D01*
X242499427Y-324914042D01*
X242416165Y-325015499D01*
X242314708Y-325098761D01*
X242278970Y-325128091D01*
X242122445Y-325211756D01*
X241952606Y-325263276D01*
X241886422Y-325269794D01*
X241820239Y-325276313D01*
X241731719Y-325276313D01*
X241665536Y-325269794D01*
X241599352Y-325263276D01*
X241429513Y-325211756D01*
X241272988Y-325128091D01*
X241237250Y-325098761D01*
X241135793Y-325015499D01*
X241052531Y-324914042D01*
X241023201Y-324878304D01*
X240939536Y-324721779D01*
X240888016Y-324551940D01*
X240870620Y-324375313D01*
X240888016Y-324198686D01*
X240939536Y-324028847D01*
X241023201Y-323872322D01*
X241063519Y-323823195D01*
X241135793Y-323735127D01*
X241237250Y-323651865D01*
X241272988Y-323622535D01*
X241429513Y-323538870D01*
X241599352Y-323487350D01*
X241665536Y-323480832D01*
X241731719Y-323474313D01*
X241820239Y-323474313D01*
X241886422Y-323480832D01*
X241886422Y-323480832D01*
G37*
G36*
X49897524Y-321326445D02*
G01*
X49963708Y-321332963D01*
X50133547Y-321384483D01*
X50290072Y-321468148D01*
X50325810Y-321497478D01*
X50427267Y-321580740D01*
X50503638Y-321673800D01*
X50539859Y-321717935D01*
X50623524Y-321874460D01*
X50675044Y-322044299D01*
X50692440Y-322220926D01*
X50675044Y-322397553D01*
X50623524Y-322567392D01*
X50539859Y-322723917D01*
X50510529Y-322759655D01*
X50427267Y-322861112D01*
X50325810Y-322944374D01*
X50290072Y-322973704D01*
X50133547Y-323057369D01*
X49963708Y-323108889D01*
X49897523Y-323115408D01*
X49831341Y-323121926D01*
X49742821Y-323121926D01*
X49676639Y-323115408D01*
X49610454Y-323108889D01*
X49440615Y-323057369D01*
X49284090Y-322973704D01*
X49248352Y-322944374D01*
X49146895Y-322861112D01*
X49063633Y-322759655D01*
X49034303Y-322723917D01*
X48950638Y-322567392D01*
X48899118Y-322397553D01*
X48881722Y-322220926D01*
X48899118Y-322044299D01*
X48950638Y-321874460D01*
X49034303Y-321717935D01*
X49070524Y-321673800D01*
X49146895Y-321580740D01*
X49248352Y-321497478D01*
X49284090Y-321468148D01*
X49440615Y-321384483D01*
X49610454Y-321332963D01*
X49676638Y-321326445D01*
X49742821Y-321319926D01*
X49831341Y-321319926D01*
X49897524Y-321326445D01*
X49897524Y-321326445D01*
G37*
G36*
X240934922Y-321125785D02*
G01*
X241001106Y-321132303D01*
X241170945Y-321183823D01*
X241327470Y-321267488D01*
X241363208Y-321296818D01*
X241464665Y-321380080D01*
X241536939Y-321468148D01*
X241577257Y-321517275D01*
X241660922Y-321673800D01*
X241712442Y-321843639D01*
X241729838Y-322020266D01*
X241712442Y-322196893D01*
X241660922Y-322366732D01*
X241577257Y-322523257D01*
X241576532Y-322524140D01*
X241464665Y-322660452D01*
X241363208Y-322743714D01*
X241327470Y-322773044D01*
X241170945Y-322856709D01*
X241001106Y-322908229D01*
X240934922Y-322914747D01*
X240868739Y-322921266D01*
X240780219Y-322921266D01*
X240714036Y-322914747D01*
X240647852Y-322908229D01*
X240478013Y-322856709D01*
X240321488Y-322773044D01*
X240285750Y-322743714D01*
X240184293Y-322660452D01*
X240072426Y-322524140D01*
X240071701Y-322523257D01*
X239988036Y-322366732D01*
X239936516Y-322196893D01*
X239919120Y-322020266D01*
X239936516Y-321843639D01*
X239988036Y-321673800D01*
X240071701Y-321517275D01*
X240112019Y-321468148D01*
X240184293Y-321380080D01*
X240285750Y-321296818D01*
X240321488Y-321267488D01*
X240478013Y-321183823D01*
X240647852Y-321132303D01*
X240714036Y-321125785D01*
X240780219Y-321119266D01*
X240868739Y-321119266D01*
X240934922Y-321125785D01*
X240934922Y-321125785D01*
G37*
G36*
X50849024Y-318971397D02*
G01*
X50915209Y-318977916D01*
X51085048Y-319029436D01*
X51241573Y-319113101D01*
X51277311Y-319142431D01*
X51378768Y-319225693D01*
X51455139Y-319318753D01*
X51491360Y-319362888D01*
X51575025Y-319519413D01*
X51626545Y-319689252D01*
X51643941Y-319865879D01*
X51626545Y-320042506D01*
X51575025Y-320212345D01*
X51491360Y-320368870D01*
X51462030Y-320404608D01*
X51378768Y-320506065D01*
X51277311Y-320589327D01*
X51241573Y-320618657D01*
X51085048Y-320702322D01*
X50915209Y-320753842D01*
X50849024Y-320760361D01*
X50782842Y-320766879D01*
X50694322Y-320766879D01*
X50628140Y-320760361D01*
X50561955Y-320753842D01*
X50392116Y-320702322D01*
X50235591Y-320618657D01*
X50199853Y-320589327D01*
X50098396Y-320506065D01*
X50015134Y-320404608D01*
X49985804Y-320368870D01*
X49902139Y-320212345D01*
X49850619Y-320042506D01*
X49833223Y-319865879D01*
X49850619Y-319689252D01*
X49902139Y-319519413D01*
X49985804Y-319362888D01*
X50022025Y-319318753D01*
X50098396Y-319225693D01*
X50199853Y-319142431D01*
X50235591Y-319113101D01*
X50392116Y-319029436D01*
X50561955Y-318977916D01*
X50628140Y-318971397D01*
X50694322Y-318964879D01*
X50782842Y-318964879D01*
X50849024Y-318971397D01*
X50849024Y-318971397D01*
G37*
G36*
X239983420Y-318770737D02*
G01*
X240049605Y-318777256D01*
X240219444Y-318828776D01*
X240375969Y-318912441D01*
X240411707Y-318941771D01*
X240513164Y-319025033D01*
X240585438Y-319113101D01*
X240625756Y-319162228D01*
X240709421Y-319318753D01*
X240760941Y-319488592D01*
X240778337Y-319665219D01*
X240760941Y-319841846D01*
X240709421Y-320011685D01*
X240625756Y-320168210D01*
X240602204Y-320196908D01*
X240513164Y-320305405D01*
X240411707Y-320388667D01*
X240375969Y-320417997D01*
X240219444Y-320501662D01*
X240049605Y-320553182D01*
X239983420Y-320559701D01*
X239917238Y-320566219D01*
X239828718Y-320566219D01*
X239762536Y-320559701D01*
X239696351Y-320553182D01*
X239526512Y-320501662D01*
X239369987Y-320417997D01*
X239334249Y-320388667D01*
X239232792Y-320305405D01*
X239143752Y-320196908D01*
X239120200Y-320168210D01*
X239036535Y-320011685D01*
X238985015Y-319841846D01*
X238967619Y-319665219D01*
X238985015Y-319488592D01*
X239036535Y-319318753D01*
X239120200Y-319162228D01*
X239160518Y-319113101D01*
X239232792Y-319025033D01*
X239334249Y-318941771D01*
X239369987Y-318912441D01*
X239526512Y-318828776D01*
X239696351Y-318777256D01*
X239762536Y-318770737D01*
X239828718Y-318764219D01*
X239917238Y-318764219D01*
X239983420Y-318770737D01*
X239983420Y-318770737D01*
G37*
G36*
X186622914Y-318347873D02*
G01*
X184952127Y-319022914D01*
X184277086Y-317352127D01*
X185947873Y-316677086D01*
X186622914Y-318347873D01*
X186622914Y-318347873D01*
G37*
G36*
X206711868Y-315739350D02*
G01*
X206962506Y-315789205D01*
X207244770Y-315906122D01*
X207498801Y-316075860D01*
X207714837Y-316291896D01*
X207884575Y-316545927D01*
X208001492Y-316828191D01*
X208061096Y-317127841D01*
X208061096Y-317433361D01*
X208001492Y-317733011D01*
X207884575Y-318015275D01*
X207714837Y-318269306D01*
X207498801Y-318485342D01*
X207244770Y-318655080D01*
X206962506Y-318771997D01*
X206812681Y-318801799D01*
X206662857Y-318831601D01*
X206357335Y-318831601D01*
X206207511Y-318801799D01*
X206057686Y-318771997D01*
X205775422Y-318655080D01*
X205521391Y-318485342D01*
X205305355Y-318269306D01*
X205135617Y-318015275D01*
X205018700Y-317733011D01*
X204959096Y-317433361D01*
X204959096Y-317127841D01*
X205018700Y-316828191D01*
X205135617Y-316545927D01*
X205305355Y-316291896D01*
X205521391Y-316075860D01*
X205775422Y-315906122D01*
X206057686Y-315789205D01*
X206308324Y-315739350D01*
X206357335Y-315729601D01*
X206662857Y-315729601D01*
X206711868Y-315739350D01*
X206711868Y-315739350D01*
G37*
G36*
X201352627Y-315592631D02*
G01*
X201502452Y-315622433D01*
X201784716Y-315739350D01*
X202038747Y-315909088D01*
X202254783Y-316125124D01*
X202424521Y-316379155D01*
X202541438Y-316661419D01*
X202549068Y-316699777D01*
X202601042Y-316961068D01*
X202601042Y-317266590D01*
X202584027Y-317352128D01*
X202541438Y-317566239D01*
X202424521Y-317848503D01*
X202254783Y-318102534D01*
X202038747Y-318318570D01*
X201784716Y-318488308D01*
X201502452Y-318605225D01*
X201352627Y-318635027D01*
X201202803Y-318664829D01*
X200897281Y-318664829D01*
X200747457Y-318635027D01*
X200597632Y-318605225D01*
X200315368Y-318488308D01*
X200061337Y-318318570D01*
X199845301Y-318102534D01*
X199675563Y-317848503D01*
X199558646Y-317566239D01*
X199516057Y-317352128D01*
X199499042Y-317266590D01*
X199499042Y-316961068D01*
X199551016Y-316699777D01*
X199558646Y-316661419D01*
X199675563Y-316379155D01*
X199845301Y-316125124D01*
X200061337Y-315909088D01*
X200315368Y-315739350D01*
X200597632Y-315622433D01*
X200747457Y-315592631D01*
X200897281Y-315562829D01*
X201202803Y-315562829D01*
X201352627Y-315592631D01*
X201352627Y-315592631D01*
G37*
G36*
X187896295Y-316002127D02*
G01*
X187981674Y-316010536D01*
X188151513Y-316062056D01*
X188308038Y-316145721D01*
X188343776Y-316175051D01*
X188445233Y-316258313D01*
X188488407Y-316310922D01*
X188557825Y-316395508D01*
X188641490Y-316552033D01*
X188693010Y-316721872D01*
X188710406Y-316898499D01*
X188693010Y-317075126D01*
X188641490Y-317244965D01*
X188557825Y-317401490D01*
X188531669Y-317433361D01*
X188445233Y-317538685D01*
X188343776Y-317621947D01*
X188308038Y-317651277D01*
X188308036Y-317651278D01*
X188155128Y-317733010D01*
X188151513Y-317734942D01*
X187981674Y-317786462D01*
X187915490Y-317792980D01*
X187849307Y-317799499D01*
X187760787Y-317799499D01*
X187694604Y-317792980D01*
X187628420Y-317786462D01*
X187458581Y-317734942D01*
X187454967Y-317733010D01*
X187302058Y-317651278D01*
X187302056Y-317651277D01*
X187266318Y-317621947D01*
X187164861Y-317538685D01*
X187078425Y-317433361D01*
X187052269Y-317401490D01*
X186968604Y-317244965D01*
X186917084Y-317075126D01*
X186899688Y-316898499D01*
X186917084Y-316721872D01*
X186968604Y-316552033D01*
X187052269Y-316395508D01*
X187121687Y-316310922D01*
X187164861Y-316258313D01*
X187266318Y-316175051D01*
X187302056Y-316145721D01*
X187458581Y-316062056D01*
X187628420Y-316010536D01*
X187713799Y-316002127D01*
X187760787Y-315997499D01*
X187849307Y-315997499D01*
X187896295Y-316002127D01*
X187896295Y-316002127D01*
G37*
G36*
X106358157Y-316002127D02*
G01*
X105683116Y-317672914D01*
X104012329Y-316997873D01*
X104687370Y-315327086D01*
X106358157Y-316002127D01*
X106358157Y-316002127D01*
G37*
G36*
X190270537Y-315052518D02*
G01*
X190336721Y-315059036D01*
X190506560Y-315110556D01*
X190663085Y-315194221D01*
X190698823Y-315223551D01*
X190800280Y-315306813D01*
X190853673Y-315371874D01*
X190912872Y-315444008D01*
X190996537Y-315600533D01*
X191048057Y-315770372D01*
X191065453Y-315946999D01*
X191048057Y-316123626D01*
X190996537Y-316293465D01*
X190912872Y-316449990D01*
X190890136Y-316477694D01*
X190800280Y-316587185D01*
X190709824Y-316661419D01*
X190663085Y-316699777D01*
X190506560Y-316783442D01*
X190336721Y-316834962D01*
X190270537Y-316841480D01*
X190204354Y-316847999D01*
X190115834Y-316847999D01*
X190049651Y-316841480D01*
X189983467Y-316834962D01*
X189813628Y-316783442D01*
X189657103Y-316699777D01*
X189610364Y-316661419D01*
X189519908Y-316587185D01*
X189430052Y-316477694D01*
X189407316Y-316449990D01*
X189323651Y-316293465D01*
X189272131Y-316123626D01*
X189254735Y-315946999D01*
X189272131Y-315770372D01*
X189323651Y-315600533D01*
X189407316Y-315444008D01*
X189466515Y-315371874D01*
X189519908Y-315306813D01*
X189621365Y-315223551D01*
X189657103Y-315194221D01*
X189813628Y-315110556D01*
X189983467Y-315059036D01*
X190049651Y-315052518D01*
X190115834Y-315045999D01*
X190204354Y-315045999D01*
X190270537Y-315052518D01*
X190270537Y-315052518D01*
G37*
G36*
X225737803Y-313445047D02*
G01*
X225988441Y-313494902D01*
X226270705Y-313611819D01*
X226524736Y-313781557D01*
X226740772Y-313997593D01*
X226910510Y-314251624D01*
X227027427Y-314533888D01*
X227052619Y-314660536D01*
X227087031Y-314833537D01*
X227087031Y-315139059D01*
X227074505Y-315202031D01*
X227027427Y-315438708D01*
X226910510Y-315720972D01*
X226740772Y-315975003D01*
X226524736Y-316191039D01*
X226270705Y-316360777D01*
X225988441Y-316477694D01*
X225838616Y-316507496D01*
X225688792Y-316537298D01*
X225383270Y-316537298D01*
X225233446Y-316507496D01*
X225083621Y-316477694D01*
X224801357Y-316360777D01*
X224547326Y-316191039D01*
X224331290Y-315975003D01*
X224161552Y-315720972D01*
X224044635Y-315438708D01*
X223997557Y-315202031D01*
X223985031Y-315139059D01*
X223985031Y-314833537D01*
X224019443Y-314660536D01*
X224044635Y-314533888D01*
X224161552Y-314251624D01*
X224331290Y-313997593D01*
X224547326Y-313781557D01*
X224801357Y-313611819D01*
X225083621Y-313494902D01*
X225334259Y-313445047D01*
X225383270Y-313435298D01*
X225688792Y-313435298D01*
X225737803Y-313445047D01*
X225737803Y-313445047D01*
G37*
G36*
X102940638Y-314654017D02*
G01*
X103006823Y-314660536D01*
X103176662Y-314712056D01*
X103333187Y-314795721D01*
X103368925Y-314825051D01*
X103470382Y-314908313D01*
X103522883Y-314972287D01*
X103582974Y-315045508D01*
X103666639Y-315202033D01*
X103718159Y-315371872D01*
X103735555Y-315548499D01*
X103718159Y-315725126D01*
X103666639Y-315894965D01*
X103582974Y-316051490D01*
X103562974Y-316075860D01*
X103470382Y-316188685D01*
X103368925Y-316271947D01*
X103333187Y-316301277D01*
X103176662Y-316384942D01*
X103006823Y-316436462D01*
X102940638Y-316442981D01*
X102874456Y-316449499D01*
X102785936Y-316449499D01*
X102719754Y-316442981D01*
X102653569Y-316436462D01*
X102483730Y-316384942D01*
X102327205Y-316301277D01*
X102291467Y-316271947D01*
X102190010Y-316188685D01*
X102097418Y-316075860D01*
X102077418Y-316051490D01*
X101993753Y-315894965D01*
X101942233Y-315725126D01*
X101924837Y-315548499D01*
X101942233Y-315371872D01*
X101993753Y-315202033D01*
X102077418Y-315045508D01*
X102137509Y-314972287D01*
X102190010Y-314908313D01*
X102291467Y-314825051D01*
X102327205Y-314795721D01*
X102483730Y-314712056D01*
X102653569Y-314660536D01*
X102719754Y-314654017D01*
X102785936Y-314647499D01*
X102874456Y-314647499D01*
X102940638Y-314654017D01*
X102940638Y-314654017D01*
G37*
G36*
X220378562Y-313298328D02*
G01*
X220528387Y-313328130D01*
X220810651Y-313445047D01*
X221064682Y-313614785D01*
X221280718Y-313830821D01*
X221450456Y-314084852D01*
X221567373Y-314367116D01*
X221573739Y-314399121D01*
X221623450Y-314649032D01*
X221626977Y-314666766D01*
X221626977Y-314972286D01*
X221567373Y-315271936D01*
X221450456Y-315554200D01*
X221280718Y-315808231D01*
X221064682Y-316024267D01*
X220810651Y-316194005D01*
X220528387Y-316310922D01*
X220378562Y-316340724D01*
X220228738Y-316370526D01*
X219923216Y-316370526D01*
X219773392Y-316340724D01*
X219623567Y-316310922D01*
X219341303Y-316194005D01*
X219087272Y-316024267D01*
X218871236Y-315808231D01*
X218701498Y-315554200D01*
X218584581Y-315271936D01*
X218524977Y-314972286D01*
X218524977Y-314666766D01*
X218528505Y-314649032D01*
X218578215Y-314399121D01*
X218584581Y-314367116D01*
X218701498Y-314084852D01*
X218871236Y-313830821D01*
X219087272Y-313614785D01*
X219341303Y-313445047D01*
X219623567Y-313328130D01*
X219773392Y-313298328D01*
X219923216Y-313268526D01*
X220228738Y-313268526D01*
X220378562Y-313298328D01*
X220378562Y-313298328D01*
G37*
G36*
X192625583Y-314101016D02*
G01*
X192691768Y-314107535D01*
X192861607Y-314159055D01*
X193018132Y-314242720D01*
X193053870Y-314272050D01*
X193155327Y-314355312D01*
X193238589Y-314456769D01*
X193267919Y-314492507D01*
X193267920Y-314492509D01*
X193350430Y-314646872D01*
X193351584Y-314649032D01*
X193403104Y-314818871D01*
X193420500Y-314995498D01*
X193403104Y-315172125D01*
X193351584Y-315341964D01*
X193267919Y-315498489D01*
X193238589Y-315534227D01*
X193155327Y-315635684D01*
X193053870Y-315718946D01*
X193018132Y-315748276D01*
X192861607Y-315831941D01*
X192691768Y-315883461D01*
X192625584Y-315889979D01*
X192559401Y-315896498D01*
X192470881Y-315896498D01*
X192404698Y-315889979D01*
X192338514Y-315883461D01*
X192168675Y-315831941D01*
X192012150Y-315748276D01*
X191976412Y-315718946D01*
X191874955Y-315635684D01*
X191791693Y-315534227D01*
X191762363Y-315498489D01*
X191678698Y-315341964D01*
X191627178Y-315172125D01*
X191609782Y-314995498D01*
X191627178Y-314818871D01*
X191678698Y-314649032D01*
X191679853Y-314646872D01*
X191762362Y-314492509D01*
X191762363Y-314492507D01*
X191791693Y-314456769D01*
X191874955Y-314355312D01*
X191976412Y-314272050D01*
X192012150Y-314242720D01*
X192168675Y-314159055D01*
X192338514Y-314107535D01*
X192404699Y-314101016D01*
X192470881Y-314094498D01*
X192559401Y-314094498D01*
X192625583Y-314101016D01*
X192625583Y-314101016D01*
G37*
G36*
X100585591Y-313702517D02*
G01*
X100651776Y-313709036D01*
X100821615Y-313760556D01*
X100978140Y-313844221D01*
X100980473Y-313846136D01*
X101115335Y-313956813D01*
X101198597Y-314058270D01*
X101227927Y-314094008D01*
X101311592Y-314250533D01*
X101363112Y-314420372D01*
X101380508Y-314596999D01*
X101363112Y-314773626D01*
X101311592Y-314943465D01*
X101227927Y-315099990D01*
X101198597Y-315135728D01*
X101115335Y-315237185D01*
X101013878Y-315320447D01*
X100978140Y-315349777D01*
X100821615Y-315433442D01*
X100651776Y-315484962D01*
X100585592Y-315491480D01*
X100519409Y-315497999D01*
X100430889Y-315497999D01*
X100364706Y-315491480D01*
X100298522Y-315484962D01*
X100128683Y-315433442D01*
X99972158Y-315349777D01*
X99936420Y-315320447D01*
X99834963Y-315237185D01*
X99751701Y-315135728D01*
X99722371Y-315099990D01*
X99638706Y-314943465D01*
X99587186Y-314773626D01*
X99569790Y-314596999D01*
X99587186Y-314420372D01*
X99638706Y-314250533D01*
X99722371Y-314094008D01*
X99751701Y-314058270D01*
X99834963Y-313956813D01*
X99969825Y-313846136D01*
X99972158Y-313844221D01*
X100128683Y-313760556D01*
X100298522Y-313709036D01*
X100364707Y-313702517D01*
X100430889Y-313695999D01*
X100519409Y-313695999D01*
X100585591Y-313702517D01*
X100585591Y-313702517D01*
G37*
G36*
X146199429Y-302546280D02*
G01*
X146956688Y-302696908D01*
X148130696Y-303183198D01*
X149187274Y-303889181D01*
X150085820Y-304787727D01*
X150791803Y-305844305D01*
X151278093Y-307018313D01*
X151348558Y-307372565D01*
X151526001Y-308264631D01*
X151526001Y-309535369D01*
X151440225Y-309966594D01*
X151278093Y-310781687D01*
X150791803Y-311955695D01*
X150085820Y-313012273D01*
X149187274Y-313910819D01*
X148130696Y-314616802D01*
X146956688Y-315103092D01*
X146459277Y-315202033D01*
X145710370Y-315351000D01*
X144439632Y-315351000D01*
X143690725Y-315202033D01*
X143193314Y-315103092D01*
X142019306Y-314616802D01*
X140962728Y-313910819D01*
X140064182Y-313012273D01*
X139358199Y-311955695D01*
X138871909Y-310781687D01*
X138709777Y-309966594D01*
X138624001Y-309535369D01*
X138624001Y-308264631D01*
X138801444Y-307372565D01*
X138871909Y-307018313D01*
X139358199Y-305844305D01*
X140064182Y-304787727D01*
X140962728Y-303889181D01*
X142019306Y-303183198D01*
X143193314Y-302696908D01*
X143950573Y-302546280D01*
X144439632Y-302449000D01*
X145710370Y-302449000D01*
X146199429Y-302546280D01*
X146199429Y-302546280D01*
G37*
G36*
X91129248Y-312963049D02*
G01*
X91216371Y-312980378D01*
X91325794Y-313025703D01*
X91380507Y-313048366D01*
X91527229Y-313146402D01*
X91528224Y-313147067D01*
X91653848Y-313272691D01*
X91653850Y-313272694D01*
X91752549Y-313420408D01*
X91769574Y-313461510D01*
X91820537Y-313584544D01*
X91820537Y-313584546D01*
X91855196Y-313758788D01*
X91855196Y-313936450D01*
X91844153Y-313991966D01*
X91820537Y-314110694D01*
X91800504Y-314159056D01*
X91752549Y-314274830D01*
X91690885Y-314367117D01*
X91653848Y-314422547D01*
X91528224Y-314548171D01*
X91528221Y-314548173D01*
X91380507Y-314646872D01*
X91325794Y-314669535D01*
X91216371Y-314714860D01*
X91129248Y-314732189D01*
X91042127Y-314749519D01*
X90864465Y-314749519D01*
X90777344Y-314732189D01*
X90690221Y-314714860D01*
X90580798Y-314669535D01*
X90526085Y-314646872D01*
X90378371Y-314548173D01*
X90378368Y-314548171D01*
X90252744Y-314422547D01*
X90215707Y-314367117D01*
X90154043Y-314274830D01*
X90106088Y-314159056D01*
X90086055Y-314110694D01*
X90062439Y-313991966D01*
X90051396Y-313936450D01*
X90051396Y-313758788D01*
X90086055Y-313584546D01*
X90086055Y-313584544D01*
X90137018Y-313461510D01*
X90154043Y-313420408D01*
X90252742Y-313272694D01*
X90252744Y-313272691D01*
X90378368Y-313147067D01*
X90379363Y-313146402D01*
X90526085Y-313048366D01*
X90580798Y-313025703D01*
X90690221Y-312980378D01*
X90777344Y-312963049D01*
X90864465Y-312945719D01*
X91042127Y-312945719D01*
X91129248Y-312963049D01*
X91129248Y-312963049D01*
G37*
G36*
X199357628Y-312939622D02*
G01*
X199444751Y-312956952D01*
X199501305Y-312980378D01*
X199608887Y-313024940D01*
X199755609Y-313122976D01*
X199756604Y-313123641D01*
X199882228Y-313249265D01*
X199882230Y-313249268D01*
X199980929Y-313396982D01*
X199980929Y-313396983D01*
X200048917Y-313561118D01*
X200053577Y-313584546D01*
X200083576Y-313735362D01*
X200083576Y-313913024D01*
X200067874Y-313991964D01*
X200048917Y-314087268D01*
X200003592Y-314196691D01*
X199980929Y-314251404D01*
X199911500Y-314355312D01*
X199882228Y-314399121D01*
X199756604Y-314524745D01*
X199756601Y-314524747D01*
X199608887Y-314623446D01*
X199554174Y-314646109D01*
X199444751Y-314691434D01*
X199357628Y-314708763D01*
X199270507Y-314726093D01*
X199092845Y-314726093D01*
X199005724Y-314708763D01*
X198918601Y-314691434D01*
X198809178Y-314646109D01*
X198754465Y-314623446D01*
X198606751Y-314524747D01*
X198606748Y-314524745D01*
X198481124Y-314399121D01*
X198451852Y-314355312D01*
X198382423Y-314251404D01*
X198359760Y-314196691D01*
X198314435Y-314087268D01*
X198295478Y-313991964D01*
X198279776Y-313913024D01*
X198279776Y-313735362D01*
X198309775Y-313584546D01*
X198314435Y-313561118D01*
X198382423Y-313396983D01*
X198382423Y-313396982D01*
X198481122Y-313249268D01*
X198481124Y-313249265D01*
X198606748Y-313123641D01*
X198607743Y-313122976D01*
X198754465Y-313024940D01*
X198862047Y-312980378D01*
X198918601Y-312956952D01*
X199005724Y-312939622D01*
X199092845Y-312922293D01*
X199270507Y-312922293D01*
X199357628Y-312939622D01*
X199357628Y-312939622D01*
G37*
G36*
X98230544Y-312751016D02*
G01*
X98296729Y-312757535D01*
X98466568Y-312809055D01*
X98623093Y-312892720D01*
X98658831Y-312922050D01*
X98760288Y-313005312D01*
X98843550Y-313106769D01*
X98872880Y-313142507D01*
X98956545Y-313299032D01*
X99008065Y-313468871D01*
X99025461Y-313645498D01*
X99008065Y-313822125D01*
X98956545Y-313991964D01*
X98872880Y-314148489D01*
X98845586Y-314181747D01*
X98760288Y-314285684D01*
X98661061Y-314367116D01*
X98623093Y-314398276D01*
X98466568Y-314481941D01*
X98296729Y-314533461D01*
X98230544Y-314539980D01*
X98164362Y-314546498D01*
X98075842Y-314546498D01*
X98009660Y-314539980D01*
X97943475Y-314533461D01*
X97773636Y-314481941D01*
X97617111Y-314398276D01*
X97579143Y-314367116D01*
X97479916Y-314285684D01*
X97394618Y-314181747D01*
X97367324Y-314148489D01*
X97283659Y-313991964D01*
X97232139Y-313822125D01*
X97214743Y-313645498D01*
X97232139Y-313468871D01*
X97283659Y-313299032D01*
X97367324Y-313142507D01*
X97396654Y-313106769D01*
X97479916Y-313005312D01*
X97581373Y-312922050D01*
X97617111Y-312892720D01*
X97773636Y-312809055D01*
X97943475Y-312757535D01*
X98009660Y-312751016D01*
X98075842Y-312744498D01*
X98164362Y-312744498D01*
X98230544Y-312751016D01*
X98230544Y-312751016D01*
G37*
G36*
X244763737Y-311150745D02*
G01*
X245014375Y-311200600D01*
X245296639Y-311317517D01*
X245550670Y-311487255D01*
X245766706Y-311703291D01*
X245936444Y-311957322D01*
X246053361Y-312239586D01*
X246071175Y-312329143D01*
X246112965Y-312539235D01*
X246112965Y-312844757D01*
X246099446Y-312912723D01*
X246053361Y-313144406D01*
X245936444Y-313426670D01*
X245766706Y-313680701D01*
X245550670Y-313896737D01*
X245296639Y-314066475D01*
X245014375Y-314183392D01*
X244925853Y-314201000D01*
X244714726Y-314242996D01*
X244409204Y-314242996D01*
X244198077Y-314201000D01*
X244109555Y-314183392D01*
X243827291Y-314066475D01*
X243573260Y-313896737D01*
X243357224Y-313680701D01*
X243187486Y-313426670D01*
X243070569Y-313144406D01*
X243024484Y-312912723D01*
X243010965Y-312844757D01*
X243010965Y-312539235D01*
X243052755Y-312329143D01*
X243070569Y-312239586D01*
X243187486Y-311957322D01*
X243357224Y-311703291D01*
X243573260Y-311487255D01*
X243827291Y-311317517D01*
X244109555Y-311200600D01*
X244360193Y-311150745D01*
X244409204Y-311140996D01*
X244714726Y-311140996D01*
X244763737Y-311150745D01*
X244763737Y-311150745D01*
G37*
G36*
X239404496Y-311004026D02*
G01*
X239554321Y-311033828D01*
X239836585Y-311150745D01*
X240090616Y-311320483D01*
X240306652Y-311536519D01*
X240476390Y-311790550D01*
X240593307Y-312072814D01*
X240652911Y-312372464D01*
X240652911Y-312677984D01*
X240593307Y-312977634D01*
X240476390Y-313259898D01*
X240306652Y-313513929D01*
X240090616Y-313729965D01*
X239836585Y-313899703D01*
X239554321Y-314016620D01*
X239404496Y-314046422D01*
X239254672Y-314076224D01*
X238949150Y-314076224D01*
X238799326Y-314046422D01*
X238649501Y-314016620D01*
X238367237Y-313899703D01*
X238113206Y-313729965D01*
X237897170Y-313513929D01*
X237727432Y-313259898D01*
X237610515Y-312977634D01*
X237550911Y-312677984D01*
X237550911Y-312372464D01*
X237610515Y-312072814D01*
X237727432Y-311790550D01*
X237897170Y-311536519D01*
X238113206Y-311320483D01*
X238367237Y-311150745D01*
X238649501Y-311033828D01*
X238799326Y-311004026D01*
X238949150Y-310974224D01*
X239254672Y-310974224D01*
X239404496Y-311004026D01*
X239404496Y-311004026D01*
G37*
G36*
X86368761Y-310089630D02*
G01*
X86633508Y-310199292D01*
X86690063Y-310222718D01*
X86979225Y-310415930D01*
X87225138Y-310661843D01*
X87402699Y-310927581D01*
X87418351Y-310951007D01*
X87551438Y-311272307D01*
X87619285Y-311613395D01*
X87619285Y-311961171D01*
X87551438Y-312302259D01*
X87422525Y-312613482D01*
X87418350Y-312623561D01*
X87225138Y-312912723D01*
X86979225Y-313158636D01*
X86690063Y-313351848D01*
X86690062Y-313351849D01*
X86690061Y-313351849D01*
X86368761Y-313484936D01*
X86027673Y-313552783D01*
X85679897Y-313552783D01*
X85338809Y-313484936D01*
X85017509Y-313351849D01*
X85017508Y-313351849D01*
X85017507Y-313351848D01*
X84728345Y-313158636D01*
X84482432Y-312912723D01*
X84289220Y-312623561D01*
X84285045Y-312613482D01*
X84156132Y-312302259D01*
X84088285Y-311961171D01*
X84088285Y-311613395D01*
X84156132Y-311272307D01*
X84289219Y-310951007D01*
X84304872Y-310927581D01*
X84482432Y-310661843D01*
X84728345Y-310415930D01*
X85017507Y-310222718D01*
X85074062Y-310199292D01*
X85338809Y-310089630D01*
X85679897Y-310021783D01*
X86027673Y-310021783D01*
X86368761Y-310089630D01*
X86368761Y-310089630D01*
G37*
G36*
X204796163Y-310066204D02*
G01*
X205117463Y-310199291D01*
X205117465Y-310199292D01*
X205406627Y-310392504D01*
X205652540Y-310638417D01*
X205839386Y-310918051D01*
X205845753Y-310927581D01*
X205978840Y-311248881D01*
X206046687Y-311589969D01*
X206046687Y-311937745D01*
X205978840Y-312278833D01*
X205915483Y-312431790D01*
X205845752Y-312600135D01*
X205652540Y-312889297D01*
X205406627Y-313135210D01*
X205117465Y-313328422D01*
X205117464Y-313328423D01*
X205117463Y-313328423D01*
X204796163Y-313461510D01*
X204455075Y-313529357D01*
X204107299Y-313529357D01*
X203766211Y-313461510D01*
X203444911Y-313328423D01*
X203444910Y-313328423D01*
X203444909Y-313328422D01*
X203155747Y-313135210D01*
X202909834Y-312889297D01*
X202716622Y-312600135D01*
X202646891Y-312431790D01*
X202583534Y-312278833D01*
X202515687Y-311937745D01*
X202515687Y-311589969D01*
X202583534Y-311248881D01*
X202716621Y-310927581D01*
X202722989Y-310918051D01*
X202909834Y-310638417D01*
X203155747Y-310392504D01*
X203444909Y-310199292D01*
X203444911Y-310199291D01*
X203766211Y-310066204D01*
X204107299Y-309998357D01*
X204455075Y-309998357D01*
X204796163Y-310066204D01*
X204796163Y-310066204D01*
G37*
G36*
X72103314Y-310668746D02*
G01*
X72190437Y-310686076D01*
X72298015Y-310730637D01*
X72354573Y-310754064D01*
X72467226Y-310829336D01*
X72502290Y-310852765D01*
X72627914Y-310978389D01*
X72627916Y-310978392D01*
X72726615Y-311126106D01*
X72745658Y-311172081D01*
X72794603Y-311290242D01*
X72829262Y-311464488D01*
X72829262Y-311642146D01*
X72794603Y-311816392D01*
X72757916Y-311904961D01*
X72726615Y-311980528D01*
X72664951Y-312072815D01*
X72627914Y-312128245D01*
X72502290Y-312253869D01*
X72502287Y-312253871D01*
X72354573Y-312352570D01*
X72299860Y-312375233D01*
X72190437Y-312420558D01*
X72103314Y-312437888D01*
X72016193Y-312455217D01*
X71838531Y-312455217D01*
X71751410Y-312437888D01*
X71664287Y-312420558D01*
X71554864Y-312375233D01*
X71500151Y-312352570D01*
X71352437Y-312253871D01*
X71352434Y-312253869D01*
X71226810Y-312128245D01*
X71189773Y-312072815D01*
X71128109Y-311980528D01*
X71096808Y-311904961D01*
X71060121Y-311816392D01*
X71025462Y-311642146D01*
X71025462Y-311464488D01*
X71060121Y-311290242D01*
X71109066Y-311172081D01*
X71128109Y-311126106D01*
X71226808Y-310978392D01*
X71226810Y-310978389D01*
X71352434Y-310852765D01*
X71387498Y-310829336D01*
X71500151Y-310754064D01*
X71556709Y-310730637D01*
X71664287Y-310686076D01*
X71751410Y-310668746D01*
X71838531Y-310651417D01*
X72016193Y-310651417D01*
X72103314Y-310668746D01*
X72103314Y-310668746D01*
G37*
G36*
X218383563Y-310645319D02*
G01*
X218470686Y-310662649D01*
X218580109Y-310707974D01*
X218634822Y-310730637D01*
X218711222Y-310781686D01*
X218782539Y-310829338D01*
X218908163Y-310954962D01*
X218908165Y-310954965D01*
X219006864Y-311102679D01*
X219029527Y-311157392D01*
X219074852Y-311266815D01*
X219074852Y-311266817D01*
X219109511Y-311441059D01*
X219109511Y-311618721D01*
X219092689Y-311703291D01*
X219074852Y-311792965D01*
X219029527Y-311902388D01*
X219006864Y-311957101D01*
X218940247Y-312056801D01*
X218908163Y-312104818D01*
X218782539Y-312230442D01*
X218782536Y-312230444D01*
X218634822Y-312329143D01*
X218580109Y-312351806D01*
X218470686Y-312397131D01*
X218383563Y-312414460D01*
X218296442Y-312431790D01*
X218118780Y-312431790D01*
X218031659Y-312414460D01*
X217944536Y-312397131D01*
X217835113Y-312351806D01*
X217780400Y-312329143D01*
X217632686Y-312230444D01*
X217632683Y-312230442D01*
X217507059Y-312104818D01*
X217474975Y-312056801D01*
X217408358Y-311957101D01*
X217385695Y-311902388D01*
X217340370Y-311792965D01*
X217322533Y-311703291D01*
X217305711Y-311618721D01*
X217305711Y-311441059D01*
X217340370Y-311266817D01*
X217340370Y-311266815D01*
X217385695Y-311157392D01*
X217408358Y-311102679D01*
X217507057Y-310954965D01*
X217507059Y-310954962D01*
X217632683Y-310829338D01*
X217704000Y-310781686D01*
X217780400Y-310730637D01*
X217835113Y-310707974D01*
X217944536Y-310662649D01*
X218031659Y-310645319D01*
X218118780Y-310627990D01*
X218296442Y-310627990D01*
X218383563Y-310645319D01*
X218383563Y-310645319D01*
G37*
G36*
X92189443Y-308660663D02*
G01*
X92346889Y-308691981D01*
X92629153Y-308808898D01*
X92883184Y-308978636D01*
X93099220Y-309194672D01*
X93268958Y-309448703D01*
X93385875Y-309730967D01*
X93402745Y-309815778D01*
X93432745Y-309966596D01*
X93445479Y-310030617D01*
X93445479Y-310336137D01*
X93385875Y-310635787D01*
X93268958Y-310918051D01*
X93099220Y-311172082D01*
X92883184Y-311388118D01*
X92629153Y-311557856D01*
X92346889Y-311674773D01*
X92203519Y-311703291D01*
X92047240Y-311734377D01*
X91741718Y-311734377D01*
X91585439Y-311703291D01*
X91442069Y-311674773D01*
X91159805Y-311557856D01*
X90905774Y-311388118D01*
X90689738Y-311172082D01*
X90520000Y-310918051D01*
X90403083Y-310635787D01*
X90343479Y-310336137D01*
X90343479Y-310030617D01*
X90356214Y-309966596D01*
X90386213Y-309815778D01*
X90403083Y-309730967D01*
X90520000Y-309448703D01*
X90689738Y-309194672D01*
X90905774Y-308978636D01*
X91159805Y-308808898D01*
X91442069Y-308691981D01*
X91599515Y-308660663D01*
X91741718Y-308632377D01*
X92047240Y-308632377D01*
X92189443Y-308660663D01*
X92189443Y-308660663D01*
G37*
G36*
X67342827Y-307795328D02*
G01*
X67664127Y-307928415D01*
X67664129Y-307928416D01*
X67953291Y-308121628D01*
X68199204Y-308367541D01*
X68376763Y-308633276D01*
X68392417Y-308656705D01*
X68525504Y-308978005D01*
X68593351Y-309319093D01*
X68593351Y-309666869D01*
X68525504Y-310007957D01*
X68413462Y-310278449D01*
X68392416Y-310329259D01*
X68199204Y-310618421D01*
X67953291Y-310864334D01*
X67664129Y-311057546D01*
X67664128Y-311057547D01*
X67664127Y-311057547D01*
X67342827Y-311190634D01*
X67001739Y-311258481D01*
X66653963Y-311258481D01*
X66312875Y-311190634D01*
X65991575Y-311057547D01*
X65991574Y-311057547D01*
X65991573Y-311057546D01*
X65702411Y-310864334D01*
X65456498Y-310618421D01*
X65263286Y-310329259D01*
X65242240Y-310278449D01*
X65130198Y-310007957D01*
X65062351Y-309666869D01*
X65062351Y-309319093D01*
X65130198Y-308978005D01*
X65263285Y-308656705D01*
X65278940Y-308633276D01*
X65456498Y-308367541D01*
X65702411Y-308121628D01*
X65991573Y-307928416D01*
X65991575Y-307928415D01*
X66312875Y-307795328D01*
X66653963Y-307727481D01*
X67001739Y-307727481D01*
X67342827Y-307795328D01*
X67342827Y-307795328D01*
G37*
G36*
X223822098Y-307771901D02*
G01*
X224143398Y-307904988D01*
X224143400Y-307904989D01*
X224432562Y-308098201D01*
X224678475Y-308344114D01*
X224836511Y-308580631D01*
X224871688Y-308633278D01*
X225004775Y-308954578D01*
X225072622Y-309295666D01*
X225072622Y-309643442D01*
X225004775Y-309984530D01*
X224873327Y-310301872D01*
X224871687Y-310305832D01*
X224678475Y-310594994D01*
X224432562Y-310840907D01*
X224143400Y-311034119D01*
X224143399Y-311034120D01*
X224143398Y-311034120D01*
X223822098Y-311167207D01*
X223481010Y-311235054D01*
X223133234Y-311235054D01*
X222792146Y-311167207D01*
X222470846Y-311034120D01*
X222470845Y-311034120D01*
X222470844Y-311034119D01*
X222181682Y-310840907D01*
X221935769Y-310594994D01*
X221742557Y-310305832D01*
X221740917Y-310301872D01*
X221609469Y-309984530D01*
X221541622Y-309643442D01*
X221541622Y-309295666D01*
X221609469Y-308954578D01*
X221742556Y-308633278D01*
X221777734Y-308580631D01*
X221935769Y-308344114D01*
X222181682Y-308098201D01*
X222470844Y-307904989D01*
X222470846Y-307904988D01*
X222792146Y-307771901D01*
X223133234Y-307704054D01*
X223481010Y-307704054D01*
X223822098Y-307771901D01*
X223822098Y-307771901D01*
G37*
G36*
X80930226Y-308842376D02*
G01*
X81017349Y-308859706D01*
X81126772Y-308905031D01*
X81181485Y-308927694D01*
X81283621Y-308995939D01*
X81329202Y-309026395D01*
X81454826Y-309152019D01*
X81454828Y-309152022D01*
X81553527Y-309299736D01*
X81573454Y-309347845D01*
X81621515Y-309463872D01*
X81621515Y-309463874D01*
X81656174Y-309638116D01*
X81656174Y-309815778D01*
X81652561Y-309833942D01*
X81621515Y-309990022D01*
X81589959Y-310066204D01*
X81553527Y-310154158D01*
X81470481Y-310278446D01*
X81454826Y-310301875D01*
X81329202Y-310427499D01*
X81329199Y-310427501D01*
X81181485Y-310526200D01*
X81126772Y-310548863D01*
X81017349Y-310594188D01*
X80930226Y-310611517D01*
X80843105Y-310628847D01*
X80665443Y-310628847D01*
X80578322Y-310611517D01*
X80491199Y-310594188D01*
X80381776Y-310548863D01*
X80327063Y-310526200D01*
X80179349Y-310427501D01*
X80179346Y-310427499D01*
X80053722Y-310301875D01*
X80038067Y-310278446D01*
X79955021Y-310154158D01*
X79918589Y-310066204D01*
X79887033Y-309990022D01*
X79855987Y-309833942D01*
X79852374Y-309815778D01*
X79852374Y-309638116D01*
X79887033Y-309463874D01*
X79887033Y-309463872D01*
X79935094Y-309347845D01*
X79955021Y-309299736D01*
X80053720Y-309152022D01*
X80053722Y-309152019D01*
X80179346Y-309026395D01*
X80224927Y-308995939D01*
X80327063Y-308927694D01*
X80381776Y-308905031D01*
X80491199Y-308859706D01*
X80578322Y-308842376D01*
X80665443Y-308825047D01*
X80843105Y-308825047D01*
X80930226Y-308842376D01*
X80930226Y-308842376D01*
G37*
G36*
X209556650Y-308818950D02*
G01*
X209643773Y-308836280D01*
X209732192Y-308872905D01*
X209807909Y-308904268D01*
X209919209Y-308978636D01*
X209955626Y-309002969D01*
X210081250Y-309128593D01*
X210081252Y-309128596D01*
X210179951Y-309276310D01*
X210199878Y-309324419D01*
X210247939Y-309440446D01*
X210252599Y-309463874D01*
X210282598Y-309614690D01*
X210282598Y-309792352D01*
X210277938Y-309815778D01*
X210247939Y-309966596D01*
X210209967Y-310058267D01*
X210179951Y-310130732D01*
X210118489Y-310222717D01*
X210081250Y-310278449D01*
X209955626Y-310404073D01*
X209955623Y-310404075D01*
X209807909Y-310502774D01*
X209753196Y-310525437D01*
X209643773Y-310570762D01*
X209556650Y-310588092D01*
X209469529Y-310605421D01*
X209291867Y-310605421D01*
X209204746Y-310588092D01*
X209117623Y-310570762D01*
X209008200Y-310525437D01*
X208953487Y-310502774D01*
X208805773Y-310404075D01*
X208805770Y-310404073D01*
X208680146Y-310278449D01*
X208642907Y-310222717D01*
X208581445Y-310130732D01*
X208551429Y-310058267D01*
X208513457Y-309966596D01*
X208483458Y-309815778D01*
X208478798Y-309792352D01*
X208478798Y-309614690D01*
X208508797Y-309463874D01*
X208513457Y-309440446D01*
X208561518Y-309324419D01*
X208581445Y-309276310D01*
X208680144Y-309128596D01*
X208680146Y-309128593D01*
X208805770Y-309002969D01*
X208842187Y-308978636D01*
X208953487Y-308904268D01*
X209029204Y-308872905D01*
X209117623Y-308836280D01*
X209204746Y-308818950D01*
X209291867Y-308801621D01*
X209469529Y-308801621D01*
X209556650Y-308818950D01*
X209556650Y-308818950D01*
G37*
G36*
X53077379Y-308374444D02*
G01*
X53164502Y-308391773D01*
X53273925Y-308437098D01*
X53328638Y-308459761D01*
X53405095Y-308510848D01*
X53476355Y-308558462D01*
X53601979Y-308684086D01*
X53601981Y-308684089D01*
X53700680Y-308831803D01*
X53717705Y-308872905D01*
X53768668Y-308995939D01*
X53785997Y-309083062D01*
X53799715Y-309152022D01*
X53803327Y-309170185D01*
X53803327Y-309347843D01*
X53768668Y-309522089D01*
X53730311Y-309614690D01*
X53700680Y-309686225D01*
X53629770Y-309792350D01*
X53601979Y-309833942D01*
X53476355Y-309959566D01*
X53476352Y-309959568D01*
X53328638Y-310058267D01*
X53273925Y-310080930D01*
X53164502Y-310126255D01*
X53077379Y-310143584D01*
X52990258Y-310160914D01*
X52812596Y-310160914D01*
X52725475Y-310143584D01*
X52638352Y-310126255D01*
X52528929Y-310080930D01*
X52474216Y-310058267D01*
X52326502Y-309959568D01*
X52326499Y-309959566D01*
X52200875Y-309833942D01*
X52173084Y-309792350D01*
X52102174Y-309686225D01*
X52072543Y-309614690D01*
X52034186Y-309522089D01*
X51999527Y-309347843D01*
X51999527Y-309170185D01*
X52003140Y-309152022D01*
X52016857Y-309083062D01*
X52034186Y-308995939D01*
X52085149Y-308872905D01*
X52102174Y-308831803D01*
X52200873Y-308684089D01*
X52200875Y-308684086D01*
X52326499Y-308558462D01*
X52397759Y-308510848D01*
X52474216Y-308459761D01*
X52528929Y-308437098D01*
X52638352Y-308391773D01*
X52725475Y-308374444D01*
X52812596Y-308357114D01*
X52990258Y-308357114D01*
X53077379Y-308374444D01*
X53077379Y-308374444D01*
G37*
G36*
X237409497Y-308351017D02*
G01*
X237496620Y-308368347D01*
X237606043Y-308413672D01*
X237660756Y-308436335D01*
X237772273Y-308510848D01*
X237808473Y-308535036D01*
X237934097Y-308660660D01*
X237934099Y-308660663D01*
X238032798Y-308808377D01*
X238039703Y-308825047D01*
X238100786Y-308972513D01*
X238115430Y-309046136D01*
X238135445Y-309146757D01*
X238135445Y-309324419D01*
X238124042Y-309381747D01*
X238100786Y-309498663D01*
X238055461Y-309608086D01*
X238032798Y-309662799D01*
X237987249Y-309730968D01*
X237934097Y-309810516D01*
X237808473Y-309936140D01*
X237808470Y-309936142D01*
X237660756Y-310034841D01*
X237606043Y-310057504D01*
X237496620Y-310102829D01*
X237409497Y-310120159D01*
X237322376Y-310137488D01*
X237144714Y-310137488D01*
X237057593Y-310120159D01*
X236970470Y-310102829D01*
X236861047Y-310057504D01*
X236806334Y-310034841D01*
X236658620Y-309936142D01*
X236658617Y-309936140D01*
X236532993Y-309810516D01*
X236479841Y-309730968D01*
X236434292Y-309662799D01*
X236411629Y-309608086D01*
X236366304Y-309498663D01*
X236343048Y-309381747D01*
X236331645Y-309324419D01*
X236331645Y-309146757D01*
X236351660Y-309046136D01*
X236366304Y-308972513D01*
X236427387Y-308825047D01*
X236434292Y-308808377D01*
X236532991Y-308660663D01*
X236532993Y-308660660D01*
X236658617Y-308535036D01*
X236694817Y-308510848D01*
X236806334Y-308436335D01*
X236861047Y-308413672D01*
X236970470Y-308368347D01*
X237057593Y-308351017D01*
X237144714Y-308333688D01*
X237322376Y-308333688D01*
X237409497Y-308351017D01*
X237409497Y-308351017D01*
G37*
G36*
X73143595Y-306362400D02*
G01*
X73320955Y-306397679D01*
X73603219Y-306514596D01*
X73857250Y-306684334D01*
X74073286Y-306900370D01*
X74243024Y-307154401D01*
X74359941Y-307436665D01*
X74376811Y-307521476D01*
X74415038Y-307713654D01*
X74419545Y-307736315D01*
X74419545Y-308041835D01*
X74359941Y-308341485D01*
X74243024Y-308623749D01*
X74073286Y-308877780D01*
X73857250Y-309093816D01*
X73603219Y-309263554D01*
X73320955Y-309380471D01*
X73171130Y-309410273D01*
X73021306Y-309440075D01*
X72715784Y-309440075D01*
X72565960Y-309410273D01*
X72416135Y-309380471D01*
X72133871Y-309263554D01*
X71879840Y-309093816D01*
X71663804Y-308877780D01*
X71494066Y-308623749D01*
X71377149Y-308341485D01*
X71317545Y-308041835D01*
X71317545Y-307736315D01*
X71322053Y-307713654D01*
X71360279Y-307521476D01*
X71377149Y-307436665D01*
X71494066Y-307154401D01*
X71663804Y-306900370D01*
X71879840Y-306684334D01*
X72133871Y-306514596D01*
X72416135Y-306397679D01*
X72593495Y-306362400D01*
X72715784Y-306338075D01*
X73021306Y-306338075D01*
X73143595Y-306362400D01*
X73143595Y-306362400D01*
G37*
G36*
X48316892Y-305501025D02*
G01*
X48581639Y-305610687D01*
X48638194Y-305634113D01*
X48927356Y-305827325D01*
X49173269Y-306073238D01*
X49350830Y-306338976D01*
X49366482Y-306362402D01*
X49499569Y-306683702D01*
X49567416Y-307024790D01*
X49567416Y-307372566D01*
X49499569Y-307713654D01*
X49366482Y-308034954D01*
X49366481Y-308034956D01*
X49173269Y-308324118D01*
X48927356Y-308570031D01*
X48638194Y-308763243D01*
X48638193Y-308763244D01*
X48638192Y-308763244D01*
X48316892Y-308896331D01*
X47975804Y-308964178D01*
X47628028Y-308964178D01*
X47286940Y-308896331D01*
X46965640Y-308763244D01*
X46965639Y-308763244D01*
X46965638Y-308763243D01*
X46676476Y-308570031D01*
X46430563Y-308324118D01*
X46237351Y-308034956D01*
X46237350Y-308034954D01*
X46104263Y-307713654D01*
X46036416Y-307372566D01*
X46036416Y-307024790D01*
X46104263Y-306683702D01*
X46237350Y-306362402D01*
X46253003Y-306338976D01*
X46430563Y-306073238D01*
X46676476Y-305827325D01*
X46965638Y-305634113D01*
X47022193Y-305610687D01*
X47286940Y-305501025D01*
X47628028Y-305433178D01*
X47975804Y-305433178D01*
X48316892Y-305501025D01*
X48316892Y-305501025D01*
G37*
G36*
X242848032Y-305477599D02*
G01*
X243060371Y-305565553D01*
X243169334Y-305610687D01*
X243458496Y-305803899D01*
X243704409Y-306049812D01*
X243891255Y-306329446D01*
X243897622Y-306338976D01*
X244030709Y-306660276D01*
X244098556Y-307001364D01*
X244098556Y-307349140D01*
X244030709Y-307690228D01*
X243932048Y-307928416D01*
X243897621Y-308011530D01*
X243704409Y-308300692D01*
X243458496Y-308546605D01*
X243169334Y-308739817D01*
X243169333Y-308739818D01*
X243169332Y-308739818D01*
X242848032Y-308872905D01*
X242506944Y-308940752D01*
X242159168Y-308940752D01*
X241818080Y-308872905D01*
X241496780Y-308739818D01*
X241496779Y-308739818D01*
X241496778Y-308739817D01*
X241207616Y-308546605D01*
X240961703Y-308300692D01*
X240768491Y-308011530D01*
X240734064Y-307928416D01*
X240635403Y-307690228D01*
X240567556Y-307349140D01*
X240567556Y-307001364D01*
X240635403Y-306660276D01*
X240768490Y-306338976D01*
X240774858Y-306329446D01*
X240961703Y-306049812D01*
X241207616Y-305803899D01*
X241496778Y-305610687D01*
X241605741Y-305565553D01*
X241818080Y-305477599D01*
X242159168Y-305409752D01*
X242506944Y-305409752D01*
X242848032Y-305477599D01*
X242848032Y-305477599D01*
G37*
G36*
X61904292Y-306548075D02*
G01*
X61991415Y-306565404D01*
X62098993Y-306609965D01*
X62155551Y-306633392D01*
X62268204Y-306708664D01*
X62303268Y-306732093D01*
X62428892Y-306857717D01*
X62428894Y-306857720D01*
X62527593Y-307005434D01*
X62532928Y-307018314D01*
X62595581Y-307169570D01*
X62630240Y-307343816D01*
X62630240Y-307521474D01*
X62595581Y-307695720D01*
X62568153Y-307761935D01*
X62527593Y-307859856D01*
X62444547Y-307984143D01*
X62428892Y-308007573D01*
X62303268Y-308133197D01*
X62303265Y-308133199D01*
X62155551Y-308231898D01*
X62100838Y-308254561D01*
X61991415Y-308299886D01*
X61904292Y-308317215D01*
X61817171Y-308334545D01*
X61639509Y-308334545D01*
X61552388Y-308317215D01*
X61465265Y-308299886D01*
X61355842Y-308254561D01*
X61301129Y-308231898D01*
X61153415Y-308133199D01*
X61153412Y-308133197D01*
X61027788Y-308007573D01*
X61012133Y-307984143D01*
X60929087Y-307859856D01*
X60888527Y-307761935D01*
X60861099Y-307695720D01*
X60826440Y-307521474D01*
X60826440Y-307343816D01*
X60861099Y-307169570D01*
X60923752Y-307018314D01*
X60929087Y-307005434D01*
X61027786Y-306857720D01*
X61027788Y-306857717D01*
X61153412Y-306732093D01*
X61188476Y-306708664D01*
X61301129Y-306633392D01*
X61357687Y-306609965D01*
X61465265Y-306565404D01*
X61552388Y-306548075D01*
X61639509Y-306530745D01*
X61817171Y-306530745D01*
X61904292Y-306548075D01*
X61904292Y-306548075D01*
G37*
G36*
X228582585Y-306524647D02*
G01*
X228669708Y-306541977D01*
X228769894Y-306583476D01*
X228833844Y-306609965D01*
X228945145Y-306684334D01*
X228981561Y-306708666D01*
X229107185Y-306834290D01*
X229107187Y-306834293D01*
X229205886Y-306982007D01*
X229205886Y-306982008D01*
X229273874Y-307146143D01*
X229308533Y-307320389D01*
X229308533Y-307498047D01*
X229273874Y-307672293D01*
X229236742Y-307761935D01*
X229205886Y-307836429D01*
X229144423Y-307928415D01*
X229107185Y-307984146D01*
X228981561Y-308109770D01*
X228981558Y-308109772D01*
X228833844Y-308208471D01*
X228779131Y-308231134D01*
X228669708Y-308276459D01*
X228582585Y-308293789D01*
X228495464Y-308311118D01*
X228317802Y-308311118D01*
X228230681Y-308293789D01*
X228143558Y-308276459D01*
X228034135Y-308231134D01*
X227979422Y-308208471D01*
X227831708Y-308109772D01*
X227831705Y-308109770D01*
X227706081Y-307984146D01*
X227668843Y-307928415D01*
X227607380Y-307836429D01*
X227576524Y-307761935D01*
X227539392Y-307672293D01*
X227504733Y-307498047D01*
X227504733Y-307320389D01*
X227539392Y-307146143D01*
X227607380Y-306982008D01*
X227607380Y-306982007D01*
X227706079Y-306834293D01*
X227706081Y-306834290D01*
X227831705Y-306708666D01*
X227868121Y-306684334D01*
X227979422Y-306609965D01*
X228043372Y-306583476D01*
X228143558Y-306541977D01*
X228230681Y-306524647D01*
X228317802Y-306507318D01*
X228495464Y-306507318D01*
X228582585Y-306524647D01*
X228582585Y-306524647D01*
G37*
G36*
X88385279Y-304749341D02*
G01*
X88535104Y-304779143D01*
X88817368Y-304896060D01*
X89071399Y-305065798D01*
X89287435Y-305281834D01*
X89457173Y-305535865D01*
X89574090Y-305818129D01*
X89597853Y-305937595D01*
X89619652Y-306047182D01*
X89633694Y-306117779D01*
X89633694Y-306423299D01*
X89574090Y-306722949D01*
X89457173Y-307005213D01*
X89287435Y-307259244D01*
X89071399Y-307475280D01*
X88817368Y-307645018D01*
X88535104Y-307761935D01*
X88485001Y-307771901D01*
X88235455Y-307821539D01*
X87929933Y-307821539D01*
X87680387Y-307771901D01*
X87630284Y-307761935D01*
X87348020Y-307645018D01*
X87093989Y-307475280D01*
X86877953Y-307259244D01*
X86708215Y-307005213D01*
X86591298Y-306722949D01*
X86531694Y-306423299D01*
X86531694Y-306117779D01*
X86545737Y-306047182D01*
X86567535Y-305937595D01*
X86591298Y-305818129D01*
X86708215Y-305535865D01*
X86877953Y-305281834D01*
X87093989Y-305065798D01*
X87348020Y-304896060D01*
X87630284Y-304779143D01*
X87780109Y-304749341D01*
X87929933Y-304719539D01*
X88235455Y-304719539D01*
X88385279Y-304749341D01*
X88385279Y-304749341D01*
G37*
G36*
X54145195Y-304073574D02*
G01*
X54295020Y-304103376D01*
X54577284Y-304220293D01*
X54831315Y-304390031D01*
X55047351Y-304606067D01*
X55217089Y-304860098D01*
X55334006Y-305142362D01*
X55350876Y-305227173D01*
X55393610Y-305442011D01*
X55393610Y-305747533D01*
X55379567Y-305818130D01*
X55334006Y-306047182D01*
X55217089Y-306329446D01*
X55047351Y-306583477D01*
X54831315Y-306799513D01*
X54577284Y-306969251D01*
X54295020Y-307086168D01*
X54145195Y-307115970D01*
X53995371Y-307145772D01*
X53689849Y-307145772D01*
X53540025Y-307115970D01*
X53390200Y-307086168D01*
X53107936Y-306969251D01*
X52853905Y-306799513D01*
X52637869Y-306583477D01*
X52468131Y-306329446D01*
X52351214Y-306047182D01*
X52305653Y-305818130D01*
X52291610Y-305747533D01*
X52291610Y-305442011D01*
X52334344Y-305227173D01*
X52351214Y-305142362D01*
X52468131Y-304860098D01*
X52637869Y-304606067D01*
X52853905Y-304390031D01*
X53107936Y-304220293D01*
X53390200Y-304103376D01*
X53540025Y-304073574D01*
X53689849Y-304043772D01*
X53995371Y-304043772D01*
X54145195Y-304073574D01*
X54145195Y-304073574D01*
G37*
G36*
X42878357Y-304253771D02*
G01*
X42965480Y-304271101D01*
X43074903Y-304316426D01*
X43129616Y-304339089D01*
X43242270Y-304414362D01*
X43277333Y-304437790D01*
X43402957Y-304563414D01*
X43402959Y-304563417D01*
X43501658Y-304711131D01*
X43524321Y-304765844D01*
X43569646Y-304875267D01*
X43569646Y-304875269D01*
X43604305Y-305049511D01*
X43604305Y-305227173D01*
X43593432Y-305281834D01*
X43569646Y-305401417D01*
X43542218Y-305467633D01*
X43501658Y-305565553D01*
X43443881Y-305652023D01*
X43402957Y-305713270D01*
X43277333Y-305838894D01*
X43277330Y-305838896D01*
X43129616Y-305937595D01*
X43074903Y-305960258D01*
X42965480Y-306005583D01*
X42878357Y-306022912D01*
X42791236Y-306040242D01*
X42613574Y-306040242D01*
X42526453Y-306022912D01*
X42439330Y-306005583D01*
X42329907Y-305960258D01*
X42275194Y-305937595D01*
X42127480Y-305838896D01*
X42127477Y-305838894D01*
X42001853Y-305713270D01*
X41960929Y-305652023D01*
X41903152Y-305565553D01*
X41862592Y-305467633D01*
X41835164Y-305401417D01*
X41811378Y-305281834D01*
X41800505Y-305227173D01*
X41800505Y-305049511D01*
X41835164Y-304875269D01*
X41835164Y-304875267D01*
X41880489Y-304765844D01*
X41903152Y-304711131D01*
X42001851Y-304563417D01*
X42001853Y-304563414D01*
X42127477Y-304437790D01*
X42162540Y-304414362D01*
X42275194Y-304339089D01*
X42329907Y-304316426D01*
X42439330Y-304271101D01*
X42526453Y-304253771D01*
X42613574Y-304236442D01*
X42791236Y-304236442D01*
X42878357Y-304253771D01*
X42878357Y-304253771D01*
G37*
G36*
X247608519Y-304230345D02*
G01*
X247695642Y-304247675D01*
X247752196Y-304271101D01*
X247859778Y-304315663D01*
X247971078Y-304390031D01*
X248007495Y-304414364D01*
X248133119Y-304539988D01*
X248133121Y-304539991D01*
X248231820Y-304687705D01*
X248231820Y-304687706D01*
X248299808Y-304851841D01*
X248317137Y-304938964D01*
X248334467Y-305026085D01*
X248334467Y-305203747D01*
X248329807Y-305227173D01*
X248299808Y-305377991D01*
X248273289Y-305442012D01*
X248231820Y-305542127D01*
X248170358Y-305634112D01*
X248133119Y-305689844D01*
X248007495Y-305815468D01*
X248007492Y-305815470D01*
X247859778Y-305914169D01*
X247805065Y-305936832D01*
X247695642Y-305982157D01*
X247608519Y-305999487D01*
X247521398Y-306016816D01*
X247343736Y-306016816D01*
X247256615Y-305999487D01*
X247169492Y-305982157D01*
X247060069Y-305936832D01*
X247005356Y-305914169D01*
X246857642Y-305815470D01*
X246857639Y-305815468D01*
X246732015Y-305689844D01*
X246694776Y-305634112D01*
X246633314Y-305542127D01*
X246591845Y-305442012D01*
X246565326Y-305377991D01*
X246535327Y-305227173D01*
X246530667Y-305203747D01*
X246530667Y-305026085D01*
X246547997Y-304938964D01*
X246565326Y-304851841D01*
X246633314Y-304687706D01*
X246633314Y-304687705D01*
X246732013Y-304539991D01*
X246732015Y-304539988D01*
X246857639Y-304414364D01*
X246894056Y-304390031D01*
X247005356Y-304315663D01*
X247112938Y-304271101D01*
X247169492Y-304247675D01*
X247256615Y-304230345D01*
X247343736Y-304213016D01*
X247521398Y-304213016D01*
X247608519Y-304230345D01*
X247608519Y-304230345D01*
G37*
G36*
X69328985Y-302449000D02*
G01*
X69509170Y-302484841D01*
X69791434Y-302601758D01*
X70045465Y-302771496D01*
X70261501Y-302987532D01*
X70431239Y-303241563D01*
X70508263Y-303427517D01*
X70548156Y-303523828D01*
X70599238Y-303780631D01*
X70607760Y-303823477D01*
X70607760Y-304128997D01*
X70548156Y-304428647D01*
X70431239Y-304710911D01*
X70261501Y-304964942D01*
X70045465Y-305180978D01*
X69791434Y-305350716D01*
X69509170Y-305467633D01*
X69459067Y-305477599D01*
X69209521Y-305527237D01*
X68903999Y-305527237D01*
X68654453Y-305477599D01*
X68604350Y-305467633D01*
X68322086Y-305350716D01*
X68068055Y-305180978D01*
X67852019Y-304964942D01*
X67682281Y-304710911D01*
X67565364Y-304428647D01*
X67505760Y-304128997D01*
X67505760Y-303823477D01*
X67514283Y-303780631D01*
X67565364Y-303523828D01*
X67605257Y-303427517D01*
X67682281Y-303241563D01*
X67852019Y-302987532D01*
X68068055Y-302771496D01*
X68322086Y-302601758D01*
X68604350Y-302484841D01*
X68784535Y-302449000D01*
X68903999Y-302425237D01*
X69209521Y-302425237D01*
X69328985Y-302449000D01*
X69328985Y-302449000D01*
G37*
G36*
X260418212Y-300511787D02*
G01*
X260668850Y-300561642D01*
X260951114Y-300678559D01*
X261205145Y-300848297D01*
X261421181Y-301064333D01*
X261590919Y-301318364D01*
X261707836Y-301600628D01*
X261734267Y-301733505D01*
X261745417Y-301789558D01*
X261767440Y-301900278D01*
X261767440Y-302205798D01*
X261707836Y-302505448D01*
X261590919Y-302787712D01*
X261421181Y-303041743D01*
X261205145Y-303257779D01*
X260951114Y-303427517D01*
X260668850Y-303544434D01*
X260519025Y-303574236D01*
X260369201Y-303604038D01*
X260063679Y-303604038D01*
X259913855Y-303574236D01*
X259764030Y-303544434D01*
X259481766Y-303427517D01*
X259227735Y-303257779D01*
X259011699Y-303041743D01*
X258841961Y-302787712D01*
X258725044Y-302505448D01*
X258665440Y-302205798D01*
X258665440Y-301900278D01*
X258687464Y-301789558D01*
X258698613Y-301733505D01*
X258725044Y-301600628D01*
X258841961Y-301318364D01*
X259011699Y-301064333D01*
X259227735Y-300848297D01*
X259481766Y-300678559D01*
X259764030Y-300561642D01*
X260014668Y-300511787D01*
X260063679Y-300502038D01*
X260369201Y-300502038D01*
X260418212Y-300511787D01*
X260418212Y-300511787D01*
G37*
G36*
X255058971Y-300365068D02*
G01*
X255208796Y-300394870D01*
X255491060Y-300511787D01*
X255745091Y-300681525D01*
X255961127Y-300897561D01*
X256130865Y-301151592D01*
X256247782Y-301433856D01*
X256262390Y-301507294D01*
X256307386Y-301733505D01*
X256307386Y-302039027D01*
X256296679Y-302092852D01*
X256247782Y-302338676D01*
X256130865Y-302620940D01*
X255961127Y-302874971D01*
X255745091Y-303091007D01*
X255491060Y-303260745D01*
X255208796Y-303377662D01*
X255058971Y-303407464D01*
X254909147Y-303437266D01*
X254603625Y-303437266D01*
X254453801Y-303407464D01*
X254303976Y-303377662D01*
X254021712Y-303260745D01*
X253767681Y-303091007D01*
X253551645Y-302874971D01*
X253381907Y-302620940D01*
X253264990Y-302338676D01*
X253216093Y-302092852D01*
X253205386Y-302039027D01*
X253205386Y-301733505D01*
X253250382Y-301507294D01*
X253264990Y-301433856D01*
X253381907Y-301151592D01*
X253551645Y-300897561D01*
X253767681Y-300681525D01*
X254021712Y-300511787D01*
X254303976Y-300394870D01*
X254453801Y-300365068D01*
X254603625Y-300335266D01*
X254909147Y-300335266D01*
X255058971Y-300365068D01*
X255058971Y-300365068D01*
G37*
G36*
X50333410Y-300160736D02*
G01*
X50483235Y-300190538D01*
X50765499Y-300307455D01*
X51019530Y-300477193D01*
X51235566Y-300693229D01*
X51405304Y-300947260D01*
X51522221Y-301229524D01*
X51523299Y-301234942D01*
X51581825Y-301529173D01*
X51581825Y-301834695D01*
X51573446Y-301876817D01*
X51522221Y-302134344D01*
X51405304Y-302416608D01*
X51235566Y-302670639D01*
X51019530Y-302886675D01*
X50765499Y-303056413D01*
X50483235Y-303173330D01*
X50333410Y-303203132D01*
X50183586Y-303232934D01*
X49878064Y-303232934D01*
X49728240Y-303203132D01*
X49578415Y-303173330D01*
X49296151Y-303056413D01*
X49042120Y-302886675D01*
X48826084Y-302670639D01*
X48656346Y-302416608D01*
X48539429Y-302134344D01*
X48488204Y-301876817D01*
X48479825Y-301834695D01*
X48479825Y-301529173D01*
X48538351Y-301234942D01*
X48539429Y-301229524D01*
X48656346Y-300947260D01*
X48826084Y-300693229D01*
X49042120Y-300477193D01*
X49296151Y-300307455D01*
X49578415Y-300190538D01*
X49728240Y-300160736D01*
X49878064Y-300130934D01*
X50183586Y-300130934D01*
X50333410Y-300160736D01*
X50333410Y-300160736D01*
G37*
G36*
X200257066Y-299533686D02*
G01*
X200406891Y-299563488D01*
X200689155Y-299680405D01*
X200943186Y-299850143D01*
X201159222Y-300066179D01*
X201328960Y-300320210D01*
X201434548Y-300575124D01*
X201445877Y-300602475D01*
X201505481Y-300902123D01*
X201505481Y-301207645D01*
X201483457Y-301318366D01*
X201445877Y-301507294D01*
X201328960Y-301789558D01*
X201159222Y-302043589D01*
X200943186Y-302259625D01*
X200689155Y-302429363D01*
X200406891Y-302546280D01*
X200257066Y-302576082D01*
X200107242Y-302605884D01*
X199801720Y-302605884D01*
X199651896Y-302576082D01*
X199502071Y-302546280D01*
X199219807Y-302429363D01*
X198965776Y-302259625D01*
X198749740Y-302043589D01*
X198580002Y-301789558D01*
X198463085Y-301507294D01*
X198425505Y-301318366D01*
X198403481Y-301207645D01*
X198403481Y-300902123D01*
X198463085Y-300602475D01*
X198474414Y-300575124D01*
X198580002Y-300320210D01*
X198749740Y-300066179D01*
X198965776Y-299850143D01*
X199219807Y-299680405D01*
X199502071Y-299563488D01*
X199651896Y-299533686D01*
X199801720Y-299503884D01*
X200107242Y-299503884D01*
X200257066Y-299533686D01*
X200257066Y-299533686D01*
G37*
G36*
X180122914Y-301847873D02*
G01*
X178452127Y-302522914D01*
X177777086Y-300852127D01*
X179447873Y-300177086D01*
X180122914Y-301847873D01*
X180122914Y-301847873D01*
G37*
G36*
X194797012Y-299366914D02*
G01*
X194946837Y-299396716D01*
X195229101Y-299513633D01*
X195483132Y-299683371D01*
X195699168Y-299899407D01*
X195868906Y-300153438D01*
X195970413Y-300398499D01*
X195985823Y-300435703D01*
X196045427Y-300735351D01*
X196045427Y-301040873D01*
X196023403Y-301151594D01*
X195985823Y-301340522D01*
X195868906Y-301622786D01*
X195699168Y-301876817D01*
X195483132Y-302092853D01*
X195229101Y-302262591D01*
X194946837Y-302379508D01*
X194797012Y-302409310D01*
X194647188Y-302439112D01*
X194341666Y-302439112D01*
X194191842Y-302409310D01*
X194042017Y-302379508D01*
X193759753Y-302262591D01*
X193505722Y-302092853D01*
X193289686Y-301876817D01*
X193119948Y-301622786D01*
X193003031Y-301340522D01*
X192965451Y-301151594D01*
X192943427Y-301040873D01*
X192943427Y-300735351D01*
X193003031Y-300435703D01*
X193018441Y-300398499D01*
X193119948Y-300153438D01*
X193289686Y-299899407D01*
X193505722Y-299683371D01*
X193759753Y-299513633D01*
X194042017Y-299396716D01*
X194191842Y-299366914D01*
X194341666Y-299337112D01*
X194647188Y-299337112D01*
X194797012Y-299366914D01*
X194797012Y-299366914D01*
G37*
G36*
X113172914Y-300002127D02*
G01*
X112497873Y-301672914D01*
X110827086Y-300997873D01*
X111502127Y-299327086D01*
X113172914Y-300002127D01*
X113172914Y-300002127D01*
G37*
G36*
X181414134Y-299503884D02*
G01*
X181481674Y-299510536D01*
X181651513Y-299562056D01*
X181808038Y-299645721D01*
X181843776Y-299675051D01*
X181945233Y-299758313D01*
X182028495Y-299859770D01*
X182057825Y-299895508D01*
X182057826Y-299895510D01*
X182114815Y-300002127D01*
X182141490Y-300052033D01*
X182193010Y-300221872D01*
X182210406Y-300398499D01*
X182193010Y-300575126D01*
X182141490Y-300744965D01*
X182057825Y-300901490D01*
X182028495Y-300937228D01*
X181945233Y-301038685D01*
X181843776Y-301121947D01*
X181808038Y-301151277D01*
X181808036Y-301151278D01*
X181661648Y-301229525D01*
X181651513Y-301234942D01*
X181481674Y-301286462D01*
X181415490Y-301292980D01*
X181349307Y-301299499D01*
X181260787Y-301299499D01*
X181194604Y-301292980D01*
X181128420Y-301286462D01*
X180958581Y-301234942D01*
X180948447Y-301229525D01*
X180802058Y-301151278D01*
X180802056Y-301151277D01*
X180766318Y-301121947D01*
X180664861Y-301038685D01*
X180581599Y-300937228D01*
X180552269Y-300901490D01*
X180468604Y-300744965D01*
X180417084Y-300575126D01*
X180399688Y-300398499D01*
X180417084Y-300221872D01*
X180468604Y-300052033D01*
X180495280Y-300002127D01*
X180552268Y-299895510D01*
X180552269Y-299895508D01*
X180581599Y-299859770D01*
X180664861Y-299758313D01*
X180766318Y-299675051D01*
X180802056Y-299645721D01*
X180958581Y-299562056D01*
X181128420Y-299510536D01*
X181195960Y-299503884D01*
X181260787Y-299497499D01*
X181349307Y-299497499D01*
X181414134Y-299503884D01*
X181414134Y-299503884D01*
G37*
G36*
X109755396Y-298654018D02*
G01*
X109821580Y-298660536D01*
X109991419Y-298712056D01*
X110147944Y-298795721D01*
X110183682Y-298825051D01*
X110285139Y-298908313D01*
X110359142Y-298998487D01*
X110397731Y-299045508D01*
X110481396Y-299202033D01*
X110532916Y-299371872D01*
X110550312Y-299548499D01*
X110532916Y-299725126D01*
X110481396Y-299894965D01*
X110397731Y-300051490D01*
X110397285Y-300052033D01*
X110285139Y-300188685D01*
X110208016Y-300251977D01*
X110147944Y-300301277D01*
X109991419Y-300384942D01*
X109821580Y-300436462D01*
X109755395Y-300442981D01*
X109689213Y-300449499D01*
X109600693Y-300449499D01*
X109534511Y-300442981D01*
X109468326Y-300436462D01*
X109298487Y-300384942D01*
X109141962Y-300301277D01*
X109081890Y-300251977D01*
X109004767Y-300188685D01*
X108892621Y-300052033D01*
X108892175Y-300051490D01*
X108808510Y-299894965D01*
X108756990Y-299725126D01*
X108739594Y-299548499D01*
X108756990Y-299371872D01*
X108808510Y-299202033D01*
X108892175Y-299045508D01*
X108930764Y-298998487D01*
X109004767Y-298908313D01*
X109106224Y-298825051D01*
X109141962Y-298795721D01*
X109298487Y-298712056D01*
X109468326Y-298660536D01*
X109534510Y-298654018D01*
X109600693Y-298647499D01*
X109689213Y-298647499D01*
X109755396Y-298654018D01*
X109755396Y-298654018D01*
G37*
G36*
X183770537Y-298552518D02*
G01*
X183836721Y-298559036D01*
X184006560Y-298610556D01*
X184163085Y-298694221D01*
X184180953Y-298708885D01*
X184300280Y-298806813D01*
X184383542Y-298908270D01*
X184412872Y-298944008D01*
X184496537Y-299100533D01*
X184548057Y-299270372D01*
X184565453Y-299446999D01*
X184548057Y-299623626D01*
X184496537Y-299793465D01*
X184412872Y-299949990D01*
X184400290Y-299965321D01*
X184300280Y-300087185D01*
X184198823Y-300170447D01*
X184163085Y-300199777D01*
X184006560Y-300283442D01*
X183836721Y-300334962D01*
X183770536Y-300341481D01*
X183704354Y-300347999D01*
X183615834Y-300347999D01*
X183549652Y-300341481D01*
X183483467Y-300334962D01*
X183313628Y-300283442D01*
X183157103Y-300199777D01*
X183121365Y-300170447D01*
X183019908Y-300087185D01*
X182919898Y-299965321D01*
X182907316Y-299949990D01*
X182823651Y-299793465D01*
X182772131Y-299623626D01*
X182754735Y-299446999D01*
X182772131Y-299270372D01*
X182823651Y-299100533D01*
X182907316Y-298944008D01*
X182936646Y-298908270D01*
X183019908Y-298806813D01*
X183139235Y-298708885D01*
X183157103Y-298694221D01*
X183313628Y-298610556D01*
X183483467Y-298559036D01*
X183549651Y-298552518D01*
X183615834Y-298545999D01*
X183704354Y-298545999D01*
X183770537Y-298552518D01*
X183770537Y-298552518D01*
G37*
G36*
X219182187Y-297219330D02*
G01*
X219432825Y-297269185D01*
X219715089Y-297386102D01*
X219969120Y-297555840D01*
X220185156Y-297771876D01*
X220354894Y-298025907D01*
X220471811Y-298308171D01*
X220494285Y-298421155D01*
X220531415Y-298607820D01*
X220531415Y-298913342D01*
X220514478Y-298998489D01*
X220471811Y-299212991D01*
X220354894Y-299495255D01*
X220185156Y-299749286D01*
X219969120Y-299965322D01*
X219715089Y-300135060D01*
X219432825Y-300251977D01*
X219283000Y-300281779D01*
X219133176Y-300311581D01*
X218827654Y-300311581D01*
X218677830Y-300281779D01*
X218528005Y-300251977D01*
X218245741Y-300135060D01*
X217991710Y-299965322D01*
X217775674Y-299749286D01*
X217605936Y-299495255D01*
X217489019Y-299212991D01*
X217446352Y-298998489D01*
X217429415Y-298913342D01*
X217429415Y-298607820D01*
X217466545Y-298421155D01*
X217489019Y-298308171D01*
X217605936Y-298025907D01*
X217775674Y-297771876D01*
X217991710Y-297555840D01*
X218245741Y-297386102D01*
X218528005Y-297269185D01*
X218778643Y-297219330D01*
X218827654Y-297209581D01*
X219133176Y-297209581D01*
X219182187Y-297219330D01*
X219182187Y-297219330D01*
G37*
G36*
X213822946Y-297072611D02*
G01*
X213972771Y-297102413D01*
X214255035Y-297219330D01*
X214509066Y-297389068D01*
X214725102Y-297605104D01*
X214894840Y-297859135D01*
X215011757Y-298141399D01*
X215018123Y-298173404D01*
X215071361Y-298441048D01*
X215071361Y-298746570D01*
X215065979Y-298773626D01*
X215011757Y-299046219D01*
X214894840Y-299328483D01*
X214725102Y-299582514D01*
X214509066Y-299798550D01*
X214255035Y-299968288D01*
X213972771Y-300085205D01*
X213822946Y-300115007D01*
X213673122Y-300144809D01*
X213367600Y-300144809D01*
X213217776Y-300115007D01*
X213067951Y-300085205D01*
X212785687Y-299968288D01*
X212531656Y-299798550D01*
X212315620Y-299582514D01*
X212145882Y-299328483D01*
X212028965Y-299046219D01*
X211974743Y-298773626D01*
X211969361Y-298746570D01*
X211969361Y-298441048D01*
X212022599Y-298173404D01*
X212028965Y-298141399D01*
X212145882Y-297859135D01*
X212315620Y-297605104D01*
X212531656Y-297389068D01*
X212785687Y-297219330D01*
X213067951Y-297102413D01*
X213217776Y-297072611D01*
X213367600Y-297042809D01*
X213673122Y-297042809D01*
X213822946Y-297072611D01*
X213822946Y-297072611D01*
G37*
G36*
X37422904Y-297735485D02*
G01*
X37510027Y-297752815D01*
X37619450Y-297798140D01*
X37674163Y-297820803D01*
X37786817Y-297896076D01*
X37821880Y-297919504D01*
X37947504Y-298045128D01*
X37947506Y-298045131D01*
X38046205Y-298192845D01*
X38063230Y-298233947D01*
X38114193Y-298356981D01*
X38114193Y-298356983D01*
X38148852Y-298531225D01*
X38148852Y-298708887D01*
X38131580Y-298795720D01*
X38114193Y-298883131D01*
X38068868Y-298992554D01*
X38046205Y-299047267D01*
X37987127Y-299135684D01*
X37947504Y-299194984D01*
X37821880Y-299320608D01*
X37821877Y-299320610D01*
X37674163Y-299419309D01*
X37619450Y-299441972D01*
X37510027Y-299487297D01*
X37426637Y-299503884D01*
X37335783Y-299521956D01*
X37158121Y-299521956D01*
X37067267Y-299503884D01*
X36983877Y-299487297D01*
X36874454Y-299441972D01*
X36819741Y-299419309D01*
X36672027Y-299320610D01*
X36672024Y-299320608D01*
X36546400Y-299194984D01*
X36506777Y-299135684D01*
X36447699Y-299047267D01*
X36425036Y-298992554D01*
X36379711Y-298883131D01*
X36362324Y-298795720D01*
X36345052Y-298708887D01*
X36345052Y-298531225D01*
X36379711Y-298356983D01*
X36379711Y-298356981D01*
X36430674Y-298233947D01*
X36447699Y-298192845D01*
X36546398Y-298045131D01*
X36546400Y-298045128D01*
X36672024Y-297919504D01*
X36707087Y-297896076D01*
X36819741Y-297820803D01*
X36874454Y-297798140D01*
X36983877Y-297752815D01*
X37071000Y-297735485D01*
X37158121Y-297718156D01*
X37335783Y-297718156D01*
X37422904Y-297735485D01*
X37422904Y-297735485D01*
G37*
G36*
X253048772Y-297709036D02*
G01*
X253151095Y-297729389D01*
X253260518Y-297774714D01*
X253315231Y-297797377D01*
X253446331Y-297884975D01*
X253462948Y-297896078D01*
X253588572Y-298021702D01*
X253588574Y-298021705D01*
X253687273Y-298169419D01*
X253696976Y-298192845D01*
X253755261Y-298333555D01*
X253768135Y-298398277D01*
X253789920Y-298507799D01*
X253789920Y-298685461D01*
X253777765Y-298746569D01*
X253755261Y-298859705D01*
X253733043Y-298913342D01*
X253687273Y-299023841D01*
X253636029Y-299100533D01*
X253588572Y-299171558D01*
X253462948Y-299297182D01*
X253462945Y-299297184D01*
X253315231Y-299395883D01*
X253260518Y-299418546D01*
X253151095Y-299463871D01*
X253063972Y-299481200D01*
X252976851Y-299498530D01*
X252799189Y-299498530D01*
X252712068Y-299481200D01*
X252624945Y-299463871D01*
X252515522Y-299418546D01*
X252460809Y-299395883D01*
X252313095Y-299297184D01*
X252313092Y-299297182D01*
X252187468Y-299171558D01*
X252140011Y-299100533D01*
X252088767Y-299023841D01*
X252042997Y-298913342D01*
X252020779Y-298859705D01*
X251998275Y-298746569D01*
X251986120Y-298685461D01*
X251986120Y-298507799D01*
X252007905Y-298398277D01*
X252020779Y-298333555D01*
X252079064Y-298192845D01*
X252088767Y-298169419D01*
X252187466Y-298021705D01*
X252187468Y-298021702D01*
X252313092Y-297896078D01*
X252329709Y-297884975D01*
X252460809Y-297797377D01*
X252515522Y-297774714D01*
X252624945Y-297729389D01*
X252727268Y-297709036D01*
X252799189Y-297694730D01*
X252976851Y-297694730D01*
X253048772Y-297709036D01*
X253048772Y-297709036D01*
G37*
G36*
X107400349Y-297702518D02*
G01*
X107466533Y-297709036D01*
X107636372Y-297760556D01*
X107792897Y-297844221D01*
X107828635Y-297873551D01*
X107930092Y-297956813D01*
X108013354Y-298058270D01*
X108042684Y-298094008D01*
X108126349Y-298250533D01*
X108177869Y-298420372D01*
X108195265Y-298596999D01*
X108177869Y-298773626D01*
X108126349Y-298943465D01*
X108042684Y-299099990D01*
X108042238Y-299100533D01*
X107930092Y-299237185D01*
X107828635Y-299320447D01*
X107792897Y-299349777D01*
X107636372Y-299433442D01*
X107466533Y-299484962D01*
X107400348Y-299491481D01*
X107334166Y-299497999D01*
X107245646Y-299497999D01*
X107179464Y-299491481D01*
X107113279Y-299484962D01*
X106943440Y-299433442D01*
X106786915Y-299349777D01*
X106751177Y-299320447D01*
X106649720Y-299237185D01*
X106537574Y-299100533D01*
X106537128Y-299099990D01*
X106453463Y-298943465D01*
X106401943Y-298773626D01*
X106384547Y-298596999D01*
X106401943Y-298420372D01*
X106453463Y-298250533D01*
X106537128Y-298094008D01*
X106566458Y-298058270D01*
X106649720Y-297956813D01*
X106751177Y-297873551D01*
X106786915Y-297844221D01*
X106943440Y-297760556D01*
X107113279Y-297709036D01*
X107179463Y-297702518D01*
X107245646Y-297695999D01*
X107334166Y-297695999D01*
X107400349Y-297702518D01*
X107400349Y-297702518D01*
G37*
G36*
X186125584Y-297601017D02*
G01*
X186191768Y-297607535D01*
X186361607Y-297659055D01*
X186518132Y-297742720D01*
X186539865Y-297760556D01*
X186655327Y-297855312D01*
X186738589Y-297956769D01*
X186767919Y-297992507D01*
X186851584Y-298149032D01*
X186903104Y-298318871D01*
X186920500Y-298495498D01*
X186903104Y-298672125D01*
X186851584Y-298841964D01*
X186767919Y-298998489D01*
X186747114Y-299023840D01*
X186655327Y-299135684D01*
X186574479Y-299202033D01*
X186518132Y-299248276D01*
X186518130Y-299248277D01*
X186368077Y-299328483D01*
X186361607Y-299331941D01*
X186191768Y-299383461D01*
X186125584Y-299389979D01*
X186059401Y-299396498D01*
X185970881Y-299396498D01*
X185904698Y-299389979D01*
X185838514Y-299383461D01*
X185668675Y-299331941D01*
X185662206Y-299328483D01*
X185512152Y-299248277D01*
X185512150Y-299248276D01*
X185455803Y-299202033D01*
X185374955Y-299135684D01*
X185283168Y-299023840D01*
X185262363Y-298998489D01*
X185178698Y-298841964D01*
X185127178Y-298672125D01*
X185109782Y-298495498D01*
X185127178Y-298318871D01*
X185178698Y-298149032D01*
X185262363Y-297992507D01*
X185291693Y-297956769D01*
X185374955Y-297855312D01*
X185490417Y-297760556D01*
X185512150Y-297742720D01*
X185668675Y-297659055D01*
X185838514Y-297607535D01*
X185904698Y-297601017D01*
X185970881Y-297594498D01*
X186059401Y-297594498D01*
X186125584Y-297601017D01*
X186125584Y-297601017D01*
G37*
G36*
X105045302Y-296751017D02*
G01*
X105111486Y-296757535D01*
X105281325Y-296809055D01*
X105437850Y-296892720D01*
X105473588Y-296922050D01*
X105575045Y-297005312D01*
X105654972Y-297102705D01*
X105687637Y-297142507D01*
X105687638Y-297142509D01*
X105765518Y-297288210D01*
X105771302Y-297299032D01*
X105822822Y-297468871D01*
X105840218Y-297645498D01*
X105822822Y-297822125D01*
X105771302Y-297991964D01*
X105687637Y-298148489D01*
X105658307Y-298184227D01*
X105575045Y-298285684D01*
X105473588Y-298368946D01*
X105437850Y-298398276D01*
X105281325Y-298481941D01*
X105111486Y-298533461D01*
X105045302Y-298539979D01*
X104979119Y-298546498D01*
X104890599Y-298546498D01*
X104824416Y-298539979D01*
X104758232Y-298533461D01*
X104588393Y-298481941D01*
X104431868Y-298398276D01*
X104396130Y-298368946D01*
X104294673Y-298285684D01*
X104211411Y-298184227D01*
X104182081Y-298148489D01*
X104098416Y-297991964D01*
X104046896Y-297822125D01*
X104029500Y-297645498D01*
X104046896Y-297468871D01*
X104098416Y-297299032D01*
X104104201Y-297288210D01*
X104182080Y-297142509D01*
X104182081Y-297142507D01*
X104214746Y-297102705D01*
X104294673Y-297005312D01*
X104396130Y-296922050D01*
X104431868Y-296892720D01*
X104588393Y-296809055D01*
X104758232Y-296757535D01*
X104824416Y-296751017D01*
X104890599Y-296744498D01*
X104979119Y-296744498D01*
X105045302Y-296751017D01*
X105045302Y-296751017D01*
G37*
G36*
X97684863Y-296737332D02*
G01*
X97771986Y-296754661D01*
X97881409Y-296799986D01*
X97936122Y-296822649D01*
X98079855Y-296918688D01*
X98083839Y-296921350D01*
X98209463Y-297046974D01*
X98209465Y-297046977D01*
X98308164Y-297194691D01*
X98325189Y-297235793D01*
X98376152Y-297358827D01*
X98393481Y-297445950D01*
X98410811Y-297533071D01*
X98410811Y-297710733D01*
X98400900Y-297760557D01*
X98376152Y-297884977D01*
X98346039Y-297957674D01*
X98308164Y-298049113D01*
X98241763Y-298148489D01*
X98209463Y-298196830D01*
X98083839Y-298322454D01*
X98083836Y-298322456D01*
X97936122Y-298421155D01*
X97881409Y-298443818D01*
X97771986Y-298489143D01*
X97684863Y-298506473D01*
X97597742Y-298523802D01*
X97420080Y-298523802D01*
X97332959Y-298506473D01*
X97245836Y-298489143D01*
X97136413Y-298443818D01*
X97081700Y-298421155D01*
X96933986Y-298322456D01*
X96933983Y-298322454D01*
X96808359Y-298196830D01*
X96776059Y-298148489D01*
X96709658Y-298049113D01*
X96671783Y-297957674D01*
X96641670Y-297884977D01*
X96616922Y-297760557D01*
X96607011Y-297710733D01*
X96607011Y-297533071D01*
X96624341Y-297445950D01*
X96641670Y-297358827D01*
X96692633Y-297235793D01*
X96709658Y-297194691D01*
X96808357Y-297046977D01*
X96808359Y-297046974D01*
X96933983Y-296921350D01*
X96937967Y-296918688D01*
X97081700Y-296822649D01*
X97136413Y-296799986D01*
X97245836Y-296754661D01*
X97332959Y-296737332D01*
X97420080Y-296720002D01*
X97597742Y-296720002D01*
X97684863Y-296737332D01*
X97684863Y-296737332D01*
G37*
G36*
X192802013Y-296713905D02*
G01*
X192889136Y-296731235D01*
X192998559Y-296776560D01*
X193053272Y-296799223D01*
X193193199Y-296892719D01*
X193200989Y-296897924D01*
X193326613Y-297023548D01*
X193326615Y-297023551D01*
X193425314Y-297171265D01*
X193425314Y-297171266D01*
X193493302Y-297335401D01*
X193503387Y-297386102D01*
X193527961Y-297509645D01*
X193527961Y-297687307D01*
X193514931Y-297752815D01*
X193493302Y-297861551D01*
X193453842Y-297956814D01*
X193425314Y-298025687D01*
X193379662Y-298094010D01*
X193326613Y-298173404D01*
X193200989Y-298299028D01*
X193200986Y-298299030D01*
X193053272Y-298397729D01*
X192998607Y-298420372D01*
X192889136Y-298465717D01*
X192807576Y-298481940D01*
X192714892Y-298500376D01*
X192537230Y-298500376D01*
X192444546Y-298481940D01*
X192362986Y-298465717D01*
X192253515Y-298420372D01*
X192198850Y-298397729D01*
X192051136Y-298299030D01*
X192051133Y-298299028D01*
X191925509Y-298173404D01*
X191872460Y-298094010D01*
X191826808Y-298025687D01*
X191798280Y-297956814D01*
X191758820Y-297861551D01*
X191737191Y-297752815D01*
X191724161Y-297687307D01*
X191724161Y-297509645D01*
X191748735Y-297386102D01*
X191758820Y-297335401D01*
X191826808Y-297171266D01*
X191826808Y-297171265D01*
X191925507Y-297023551D01*
X191925509Y-297023548D01*
X192051133Y-296897924D01*
X192058923Y-296892719D01*
X192198850Y-296799223D01*
X192253563Y-296776560D01*
X192362986Y-296731235D01*
X192450109Y-296713905D01*
X192537230Y-296696576D01*
X192714892Y-296696576D01*
X192802013Y-296713905D01*
X192802013Y-296713905D01*
G37*
G36*
X32662417Y-294862067D02*
G01*
X32927164Y-294971729D01*
X32983719Y-294995155D01*
X33272881Y-295188367D01*
X33518794Y-295434280D01*
X33704379Y-295712027D01*
X33712007Y-295723444D01*
X33845094Y-296044744D01*
X33912941Y-296385832D01*
X33912941Y-296733608D01*
X33845094Y-297074696D01*
X33714876Y-297389069D01*
X33712006Y-297395998D01*
X33518794Y-297685160D01*
X33272881Y-297931073D01*
X32983719Y-298124285D01*
X32983718Y-298124286D01*
X32983717Y-298124286D01*
X32662417Y-298257373D01*
X32321329Y-298325220D01*
X31973553Y-298325220D01*
X31632465Y-298257373D01*
X31311165Y-298124286D01*
X31311164Y-298124286D01*
X31311163Y-298124285D01*
X31022001Y-297931073D01*
X30776088Y-297685160D01*
X30582876Y-297395998D01*
X30580006Y-297389069D01*
X30449788Y-297074696D01*
X30381941Y-296733608D01*
X30381941Y-296385832D01*
X30449788Y-296044744D01*
X30582875Y-295723444D01*
X30590504Y-295712027D01*
X30776088Y-295434280D01*
X31022001Y-295188367D01*
X31311163Y-294995155D01*
X31367718Y-294971729D01*
X31632465Y-294862067D01*
X31973553Y-294794220D01*
X32321329Y-294794220D01*
X32662417Y-294862067D01*
X32662417Y-294862067D01*
G37*
G36*
X258502507Y-294838641D02*
G01*
X258762575Y-294946365D01*
X258823809Y-294971729D01*
X259112971Y-295164941D01*
X259358884Y-295410854D01*
X259545730Y-295690488D01*
X259552097Y-295700018D01*
X259685184Y-296021318D01*
X259753031Y-296362406D01*
X259753031Y-296710182D01*
X259685184Y-297051270D01*
X259557789Y-297358829D01*
X259552096Y-297372572D01*
X259358884Y-297661734D01*
X259112971Y-297907647D01*
X258823809Y-298100859D01*
X258823808Y-298100860D01*
X258823807Y-298100860D01*
X258502507Y-298233947D01*
X258161419Y-298301794D01*
X257813643Y-298301794D01*
X257472555Y-298233947D01*
X257151255Y-298100860D01*
X257151254Y-298100860D01*
X257151253Y-298100859D01*
X256862091Y-297907647D01*
X256616178Y-297661734D01*
X256422966Y-297372572D01*
X256417273Y-297358829D01*
X256289878Y-297051270D01*
X256222031Y-296710182D01*
X256222031Y-296362406D01*
X256289878Y-296021318D01*
X256422965Y-295700018D01*
X256429333Y-295690488D01*
X256616178Y-295410854D01*
X256862091Y-295164941D01*
X257151253Y-294971729D01*
X257212487Y-294946365D01*
X257472555Y-294838641D01*
X257813643Y-294770794D01*
X258161419Y-294770794D01*
X258502507Y-294838641D01*
X258502507Y-294838641D01*
G37*
G36*
X238290882Y-294941489D02*
G01*
X238458760Y-294974882D01*
X238741024Y-295091799D01*
X238995055Y-295261537D01*
X239211091Y-295477573D01*
X239380829Y-295731604D01*
X239497746Y-296013868D01*
X239510213Y-296076543D01*
X239557350Y-296313517D01*
X239557350Y-296619039D01*
X239530919Y-296751915D01*
X239497746Y-296918688D01*
X239380829Y-297200952D01*
X239211091Y-297454983D01*
X238995055Y-297671019D01*
X238741024Y-297840757D01*
X238458760Y-297957674D01*
X238308935Y-297987476D01*
X238159111Y-298017278D01*
X237853589Y-298017278D01*
X237703765Y-297987476D01*
X237553940Y-297957674D01*
X237271676Y-297840757D01*
X237017645Y-297671019D01*
X236801609Y-297454983D01*
X236631871Y-297200952D01*
X236514954Y-296918688D01*
X236481781Y-296751915D01*
X236455350Y-296619039D01*
X236455350Y-296313517D01*
X236502487Y-296076543D01*
X236514954Y-296013868D01*
X236631871Y-295731604D01*
X236801609Y-295477573D01*
X237017645Y-295261537D01*
X237271676Y-295091799D01*
X237553940Y-294974882D01*
X237721818Y-294941489D01*
X237853589Y-294915278D01*
X238159111Y-294915278D01*
X238290882Y-294941489D01*
X238290882Y-294941489D01*
G37*
G36*
X232769193Y-294762457D02*
G01*
X232998706Y-294808110D01*
X233280970Y-294925027D01*
X233535001Y-295094765D01*
X233751037Y-295310801D01*
X233920775Y-295564832D01*
X234037692Y-295847096D01*
X234097296Y-296146746D01*
X234097296Y-296452266D01*
X234037692Y-296751916D01*
X233920775Y-297034180D01*
X233751037Y-297288211D01*
X233535001Y-297504247D01*
X233280970Y-297673985D01*
X232998706Y-297790902D01*
X232848881Y-297820704D01*
X232699057Y-297850506D01*
X232393535Y-297850506D01*
X232243711Y-297820704D01*
X232093886Y-297790902D01*
X231811622Y-297673985D01*
X231557591Y-297504247D01*
X231341555Y-297288211D01*
X231171817Y-297034180D01*
X231054900Y-296751916D01*
X230995296Y-296452266D01*
X230995296Y-296146746D01*
X231054900Y-295847096D01*
X231171817Y-295564832D01*
X231341555Y-295310801D01*
X231557591Y-295094765D01*
X231811622Y-294925027D01*
X232093886Y-294808110D01*
X232323399Y-294762457D01*
X232393535Y-294748506D01*
X232699057Y-294748506D01*
X232769193Y-294762457D01*
X232769193Y-294762457D01*
G37*
G36*
X92924376Y-293863913D02*
G01*
X93189123Y-293973575D01*
X93245678Y-293997001D01*
X93534840Y-294190213D01*
X93780753Y-294436126D01*
X93958314Y-294701864D01*
X93973966Y-294725290D01*
X94107053Y-295046590D01*
X94174900Y-295387678D01*
X94174900Y-295735454D01*
X94107053Y-296076542D01*
X93978941Y-296385832D01*
X93973965Y-296397844D01*
X93780753Y-296687006D01*
X93534840Y-296932919D01*
X93245678Y-297126131D01*
X93245677Y-297126132D01*
X93245676Y-297126132D01*
X92924376Y-297259219D01*
X92583288Y-297327066D01*
X92235512Y-297327066D01*
X91894424Y-297259219D01*
X91573124Y-297126132D01*
X91573123Y-297126132D01*
X91573122Y-297126131D01*
X91283960Y-296932919D01*
X91038047Y-296687006D01*
X90844835Y-296397844D01*
X90839859Y-296385832D01*
X90711747Y-296076542D01*
X90643900Y-295735454D01*
X90643900Y-295387678D01*
X90711747Y-295046590D01*
X90844834Y-294725290D01*
X90860487Y-294701864D01*
X91038047Y-294436126D01*
X91283960Y-294190213D01*
X91573122Y-293997001D01*
X91629677Y-293973575D01*
X91894424Y-293863913D01*
X92235512Y-293796066D01*
X92583288Y-293796066D01*
X92924376Y-293863913D01*
X92924376Y-293863913D01*
G37*
G36*
X198240548Y-293840487D02*
G01*
X198561848Y-293973574D01*
X198561850Y-293973575D01*
X198851012Y-294166787D01*
X199096925Y-294412700D01*
X199283771Y-294692334D01*
X199290138Y-294701864D01*
X199423225Y-295023164D01*
X199491072Y-295364252D01*
X199491072Y-295712028D01*
X199423225Y-296053116D01*
X199315363Y-296313517D01*
X199290137Y-296374418D01*
X199096925Y-296663580D01*
X198851012Y-296909493D01*
X198561850Y-297102705D01*
X198561849Y-297102706D01*
X198561848Y-297102706D01*
X198240548Y-297235793D01*
X197899460Y-297303640D01*
X197551684Y-297303640D01*
X197210596Y-297235793D01*
X196889296Y-297102706D01*
X196889295Y-297102706D01*
X196889294Y-297102705D01*
X196600132Y-296909493D01*
X196354219Y-296663580D01*
X196161007Y-296374418D01*
X196135781Y-296313517D01*
X196027919Y-296053116D01*
X195960072Y-295712028D01*
X195960072Y-295364252D01*
X196027919Y-295023164D01*
X196161006Y-294701864D01*
X196167374Y-294692334D01*
X196354219Y-294412700D01*
X196600132Y-294166787D01*
X196889294Y-293973575D01*
X196889296Y-293973574D01*
X197210596Y-293840487D01*
X197551684Y-293772640D01*
X197899460Y-293772640D01*
X198240548Y-293840487D01*
X198240548Y-293840487D01*
G37*
G36*
X38490720Y-293434616D02*
G01*
X38640545Y-293464418D01*
X38922809Y-293581335D01*
X39176840Y-293751073D01*
X39392876Y-293967109D01*
X39562614Y-294221140D01*
X39679531Y-294503404D01*
X39696401Y-294588215D01*
X39726401Y-294739033D01*
X39739135Y-294803054D01*
X39739135Y-295108574D01*
X39679531Y-295408224D01*
X39562614Y-295690488D01*
X39392876Y-295944519D01*
X39176840Y-296160555D01*
X38922809Y-296330293D01*
X38640545Y-296447210D01*
X38490720Y-296477012D01*
X38340896Y-296506814D01*
X38035374Y-296506814D01*
X37885550Y-296477012D01*
X37735725Y-296447210D01*
X37453461Y-296330293D01*
X37199430Y-296160555D01*
X36983394Y-295944519D01*
X36813656Y-295690488D01*
X36696739Y-295408224D01*
X36637135Y-295108574D01*
X36637135Y-294803054D01*
X36649870Y-294739033D01*
X36679869Y-294588215D01*
X36696739Y-294503404D01*
X36813656Y-294221140D01*
X36983394Y-293967109D01*
X37199430Y-293751073D01*
X37453461Y-293581335D01*
X37735725Y-293464418D01*
X37885550Y-293434616D01*
X38035374Y-293404814D01*
X38340896Y-293404814D01*
X38490720Y-293434616D01*
X38490720Y-293434616D01*
G37*
G36*
X78658929Y-294443029D02*
G01*
X78746052Y-294460358D01*
X78855475Y-294505683D01*
X78910188Y-294528346D01*
X79022842Y-294603619D01*
X79057905Y-294627047D01*
X79183529Y-294752671D01*
X79183531Y-294752674D01*
X79282230Y-294900388D01*
X79299255Y-294941490D01*
X79350218Y-295064524D01*
X79350218Y-295064526D01*
X79380218Y-295215344D01*
X79384877Y-295238770D01*
X79384877Y-295416428D01*
X79350218Y-295590674D01*
X79308874Y-295690486D01*
X79282230Y-295754810D01*
X79220566Y-295847097D01*
X79183529Y-295902527D01*
X79057905Y-296028151D01*
X79057902Y-296028153D01*
X78910188Y-296126852D01*
X78855475Y-296149515D01*
X78746052Y-296194840D01*
X78658929Y-296212169D01*
X78571808Y-296229499D01*
X78394146Y-296229499D01*
X78307025Y-296212169D01*
X78219902Y-296194840D01*
X78110479Y-296149515D01*
X78055766Y-296126852D01*
X77908052Y-296028153D01*
X77908049Y-296028151D01*
X77782425Y-295902527D01*
X77745388Y-295847097D01*
X77683724Y-295754810D01*
X77657080Y-295690486D01*
X77615736Y-295590674D01*
X77581077Y-295416428D01*
X77581077Y-295238770D01*
X77585737Y-295215344D01*
X77615736Y-295064526D01*
X77615736Y-295064524D01*
X77666699Y-294941490D01*
X77683724Y-294900388D01*
X77782423Y-294752674D01*
X77782425Y-294752671D01*
X77908049Y-294627047D01*
X77943112Y-294603619D01*
X78055766Y-294528346D01*
X78110479Y-294505683D01*
X78219902Y-294460358D01*
X78307025Y-294443029D01*
X78394146Y-294425699D01*
X78571808Y-294425699D01*
X78658929Y-294443029D01*
X78658929Y-294443029D01*
G37*
G36*
X211827947Y-294419602D02*
G01*
X211915070Y-294436932D01*
X211971624Y-294460358D01*
X212079206Y-294504920D01*
X212203863Y-294588213D01*
X212226923Y-294603621D01*
X212352547Y-294729245D01*
X212352549Y-294729248D01*
X212451248Y-294876962D01*
X212451248Y-294876963D01*
X212519236Y-295041098D01*
X212532658Y-295108575D01*
X212553895Y-295215342D01*
X212553895Y-295393004D01*
X212537073Y-295477573D01*
X212519236Y-295567248D01*
X212509533Y-295590672D01*
X212451248Y-295731384D01*
X212435595Y-295754810D01*
X212352547Y-295879101D01*
X212226923Y-296004725D01*
X212226920Y-296004727D01*
X212079206Y-296103426D01*
X212024493Y-296126089D01*
X211915070Y-296171414D01*
X211827947Y-296188743D01*
X211740826Y-296206073D01*
X211563164Y-296206073D01*
X211476043Y-296188743D01*
X211388920Y-296171414D01*
X211279497Y-296126089D01*
X211224784Y-296103426D01*
X211077070Y-296004727D01*
X211077067Y-296004725D01*
X210951443Y-295879101D01*
X210868395Y-295754810D01*
X210852742Y-295731384D01*
X210794457Y-295590672D01*
X210784754Y-295567248D01*
X210766917Y-295477573D01*
X210750095Y-295393004D01*
X210750095Y-295215342D01*
X210771332Y-295108575D01*
X210784754Y-295041098D01*
X210852742Y-294876963D01*
X210852742Y-294876962D01*
X210951441Y-294729248D01*
X210951443Y-294729245D01*
X211077067Y-294603621D01*
X211100127Y-294588213D01*
X211224784Y-294504920D01*
X211332366Y-294460358D01*
X211388920Y-294436932D01*
X211476043Y-294419602D01*
X211563164Y-294402273D01*
X211740826Y-294402273D01*
X211827947Y-294419602D01*
X211827947Y-294419602D01*
G37*
G36*
X98725144Y-292430985D02*
G01*
X98902504Y-292466264D01*
X99184768Y-292583181D01*
X99438799Y-292752919D01*
X99654835Y-292968955D01*
X99824573Y-293222986D01*
X99941490Y-293505250D01*
X99958360Y-293590061D01*
X100001094Y-293804899D01*
X100001094Y-294110421D01*
X99979070Y-294221142D01*
X99941490Y-294410070D01*
X99824573Y-294692334D01*
X99654835Y-294946365D01*
X99438799Y-295162401D01*
X99184768Y-295332139D01*
X98902504Y-295449056D01*
X98759139Y-295477573D01*
X98602855Y-295508660D01*
X98297333Y-295508660D01*
X98141049Y-295477573D01*
X97997684Y-295449056D01*
X97715420Y-295332139D01*
X97461389Y-295162401D01*
X97245353Y-294946365D01*
X97075615Y-294692334D01*
X96958698Y-294410070D01*
X96921118Y-294221142D01*
X96899094Y-294110421D01*
X96899094Y-293804899D01*
X96941828Y-293590061D01*
X96958698Y-293505250D01*
X97075615Y-293222986D01*
X97245353Y-292968955D01*
X97461389Y-292752919D01*
X97715420Y-292583181D01*
X97997684Y-292466264D01*
X98175044Y-292430985D01*
X98297333Y-292406660D01*
X98602855Y-292406660D01*
X98725144Y-292430985D01*
X98725144Y-292430985D01*
G37*
G36*
X27223882Y-293614814D02*
G01*
X27311005Y-293632143D01*
X27420428Y-293677468D01*
X27475141Y-293700131D01*
X27587795Y-293775404D01*
X27622858Y-293798832D01*
X27748482Y-293924456D01*
X27748484Y-293924459D01*
X27847183Y-294072173D01*
X27860175Y-294103539D01*
X27915171Y-294236309D01*
X27915171Y-294236311D01*
X27949830Y-294410553D01*
X27949830Y-294588215D01*
X27932501Y-294675336D01*
X27915171Y-294762459D01*
X27883615Y-294838641D01*
X27847183Y-294926595D01*
X27782658Y-295023164D01*
X27748482Y-295074312D01*
X27622858Y-295199936D01*
X27622855Y-295199938D01*
X27475141Y-295298637D01*
X27445774Y-295310801D01*
X27311005Y-295366625D01*
X27223882Y-295383954D01*
X27136761Y-295401284D01*
X26959099Y-295401284D01*
X26871978Y-295383954D01*
X26784855Y-295366625D01*
X26650086Y-295310801D01*
X26620719Y-295298637D01*
X26473005Y-295199938D01*
X26473002Y-295199936D01*
X26347378Y-295074312D01*
X26313202Y-295023164D01*
X26248677Y-294926595D01*
X26212245Y-294838641D01*
X26180689Y-294762459D01*
X26163360Y-294675336D01*
X26146030Y-294588215D01*
X26146030Y-294410553D01*
X26180689Y-294236311D01*
X26180689Y-294236309D01*
X26235685Y-294103539D01*
X26248677Y-294072173D01*
X26347376Y-293924459D01*
X26347378Y-293924456D01*
X26473002Y-293798832D01*
X26508065Y-293775404D01*
X26620719Y-293700131D01*
X26675432Y-293677468D01*
X26784855Y-293632143D01*
X26871978Y-293614814D01*
X26959099Y-293597484D01*
X27136761Y-293597484D01*
X27223882Y-293614814D01*
X27223882Y-293614814D01*
G37*
G36*
X263229851Y-293584795D02*
G01*
X263350117Y-293608717D01*
X263406671Y-293632143D01*
X263514253Y-293676705D01*
X263625553Y-293751073D01*
X263661970Y-293775406D01*
X263787594Y-293901030D01*
X263787596Y-293901033D01*
X263886295Y-294048747D01*
X263895998Y-294072173D01*
X263954283Y-294212883D01*
X263958943Y-294236311D01*
X263988942Y-294387127D01*
X263988942Y-294564789D01*
X263976558Y-294627045D01*
X263954283Y-294739033D01*
X263915845Y-294831828D01*
X263886295Y-294903169D01*
X263838378Y-294974882D01*
X263787594Y-295050886D01*
X263661970Y-295176510D01*
X263661967Y-295176512D01*
X263514253Y-295275211D01*
X263459540Y-295297874D01*
X263350117Y-295343199D01*
X263262994Y-295360529D01*
X263175873Y-295377858D01*
X262998211Y-295377858D01*
X262911090Y-295360529D01*
X262823967Y-295343199D01*
X262714544Y-295297874D01*
X262659831Y-295275211D01*
X262512117Y-295176512D01*
X262512114Y-295176510D01*
X262386490Y-295050886D01*
X262335706Y-294974882D01*
X262287789Y-294903169D01*
X262258239Y-294831828D01*
X262219801Y-294739033D01*
X262197526Y-294627045D01*
X262185142Y-294564789D01*
X262185142Y-294387127D01*
X262215141Y-294236311D01*
X262219801Y-294212883D01*
X262278086Y-294072173D01*
X262287789Y-294048747D01*
X262386488Y-293901033D01*
X262386490Y-293901030D01*
X262512114Y-293775406D01*
X262548531Y-293751073D01*
X262659831Y-293676705D01*
X262767413Y-293632143D01*
X262823967Y-293608717D01*
X262944233Y-293584795D01*
X262998211Y-293574058D01*
X263175873Y-293574058D01*
X263229851Y-293584795D01*
X263229851Y-293584795D01*
G37*
G36*
X73898442Y-291569610D02*
G01*
X74163189Y-291679272D01*
X74219744Y-291702698D01*
X74508906Y-291895910D01*
X74754819Y-292141823D01*
X74938991Y-292417455D01*
X74948032Y-292430987D01*
X75081119Y-292752287D01*
X75148966Y-293093375D01*
X75148966Y-293441151D01*
X75081119Y-293782239D01*
X74948032Y-294103539D01*
X74948031Y-294103541D01*
X74754819Y-294392703D01*
X74508906Y-294638616D01*
X74219744Y-294831828D01*
X74219743Y-294831829D01*
X74219742Y-294831829D01*
X73898442Y-294964916D01*
X73557354Y-295032763D01*
X73209578Y-295032763D01*
X72868490Y-294964916D01*
X72547190Y-294831829D01*
X72547189Y-294831829D01*
X72547188Y-294831828D01*
X72258026Y-294638616D01*
X72012113Y-294392703D01*
X71818901Y-294103541D01*
X71818900Y-294103539D01*
X71685813Y-293782239D01*
X71617966Y-293441151D01*
X71617966Y-293093375D01*
X71685813Y-292752287D01*
X71818900Y-292430987D01*
X71827942Y-292417455D01*
X72012113Y-292141823D01*
X72258026Y-291895910D01*
X72547188Y-291702698D01*
X72603743Y-291679272D01*
X72868490Y-291569610D01*
X73209578Y-291501763D01*
X73557354Y-291501763D01*
X73898442Y-291569610D01*
X73898442Y-291569610D01*
G37*
G36*
X217266482Y-291546184D02*
G01*
X217478821Y-291634138D01*
X217587784Y-291679272D01*
X217876946Y-291872484D01*
X218122859Y-292118397D01*
X218309705Y-292398031D01*
X218316072Y-292407561D01*
X218449159Y-292728861D01*
X218517006Y-293069949D01*
X218517006Y-293417725D01*
X218449159Y-293758813D01*
X218319361Y-294072173D01*
X218316071Y-294080115D01*
X218122859Y-294369277D01*
X217876946Y-294615190D01*
X217587784Y-294808402D01*
X217587783Y-294808403D01*
X217587782Y-294808403D01*
X217266482Y-294941490D01*
X216925394Y-295009337D01*
X216577618Y-295009337D01*
X216236530Y-294941490D01*
X215915230Y-294808403D01*
X215915229Y-294808403D01*
X215915228Y-294808402D01*
X215626066Y-294615190D01*
X215380153Y-294369277D01*
X215186941Y-294080115D01*
X215183651Y-294072173D01*
X215053853Y-293758813D01*
X214986006Y-293417725D01*
X214986006Y-293069949D01*
X215053853Y-292728861D01*
X215186940Y-292407561D01*
X215193308Y-292398031D01*
X215380153Y-292118397D01*
X215626066Y-291872484D01*
X215915228Y-291679272D01*
X216024191Y-291634138D01*
X216236530Y-291546184D01*
X216577618Y-291478337D01*
X216925394Y-291478337D01*
X217266482Y-291546184D01*
X217266482Y-291546184D01*
G37*
G36*
X87485841Y-292616660D02*
G01*
X87572964Y-292633989D01*
X87682387Y-292679314D01*
X87737100Y-292701977D01*
X87849754Y-292777250D01*
X87884817Y-292800678D01*
X88010441Y-292926302D01*
X88010443Y-292926305D01*
X88109142Y-293074019D01*
X88129068Y-293122125D01*
X88177130Y-293238155D01*
X88184050Y-293272945D01*
X88211789Y-293412399D01*
X88211789Y-293590061D01*
X88208176Y-293608224D01*
X88177130Y-293764305D01*
X88158565Y-293809123D01*
X88109142Y-293928441D01*
X88028756Y-294048747D01*
X88010441Y-294076158D01*
X87884817Y-294201782D01*
X87884814Y-294201784D01*
X87737100Y-294300483D01*
X87682387Y-294323146D01*
X87572964Y-294368471D01*
X87485841Y-294385800D01*
X87398720Y-294403130D01*
X87221058Y-294403130D01*
X87133937Y-294385800D01*
X87046814Y-294368471D01*
X86937391Y-294323146D01*
X86882678Y-294300483D01*
X86734964Y-294201784D01*
X86734961Y-294201782D01*
X86609337Y-294076158D01*
X86591022Y-294048747D01*
X86510636Y-293928441D01*
X86461213Y-293809123D01*
X86442648Y-293764305D01*
X86411602Y-293608224D01*
X86407989Y-293590061D01*
X86407989Y-293412399D01*
X86435728Y-293272945D01*
X86442648Y-293238155D01*
X86490710Y-293122125D01*
X86510636Y-293074019D01*
X86609335Y-292926305D01*
X86609337Y-292926302D01*
X86734961Y-292800678D01*
X86770024Y-292777250D01*
X86882678Y-292701977D01*
X86937391Y-292679314D01*
X87046814Y-292633989D01*
X87133937Y-292616660D01*
X87221058Y-292599330D01*
X87398720Y-292599330D01*
X87485841Y-292616660D01*
X87485841Y-292616660D01*
G37*
G36*
X203001035Y-292593234D02*
G01*
X203088158Y-292610563D01*
X203188341Y-292652061D01*
X203252294Y-292678551D01*
X203362648Y-292752287D01*
X203400011Y-292777252D01*
X203525635Y-292902876D01*
X203525637Y-292902879D01*
X203624336Y-293050593D01*
X203624336Y-293050594D01*
X203692324Y-293214729D01*
X203696984Y-293238157D01*
X203726983Y-293388973D01*
X203726983Y-293566635D01*
X203718711Y-293608221D01*
X203692324Y-293740879D01*
X203665805Y-293804900D01*
X203624336Y-293905015D01*
X203562874Y-293997000D01*
X203525635Y-294052732D01*
X203400011Y-294178356D01*
X203400008Y-294178358D01*
X203252294Y-294277057D01*
X203197581Y-294299720D01*
X203088158Y-294345045D01*
X203001035Y-294362375D01*
X202913914Y-294379704D01*
X202736252Y-294379704D01*
X202649131Y-294362375D01*
X202562008Y-294345045D01*
X202452585Y-294299720D01*
X202397872Y-294277057D01*
X202250158Y-294178358D01*
X202250155Y-294178356D01*
X202124531Y-294052732D01*
X202087292Y-293997000D01*
X202025830Y-293905015D01*
X201984361Y-293804900D01*
X201957842Y-293740879D01*
X201931455Y-293608221D01*
X201923183Y-293566635D01*
X201923183Y-293388973D01*
X201953182Y-293238157D01*
X201957842Y-293214729D01*
X202025830Y-293050594D01*
X202025830Y-293050593D01*
X202124529Y-292902879D01*
X202124531Y-292902876D01*
X202250155Y-292777252D01*
X202287518Y-292752287D01*
X202397872Y-292678551D01*
X202461825Y-292652061D01*
X202562008Y-292610563D01*
X202649131Y-292593234D01*
X202736252Y-292575904D01*
X202913914Y-292575904D01*
X203001035Y-292593234D01*
X203001035Y-292593234D01*
G37*
G36*
X59632995Y-292148726D02*
G01*
X59720118Y-292166055D01*
X59829541Y-292211380D01*
X59884254Y-292234043D01*
X59996908Y-292309316D01*
X60031971Y-292332744D01*
X60157595Y-292458368D01*
X60157597Y-292458371D01*
X60256296Y-292606085D01*
X60273321Y-292647187D01*
X60324284Y-292770221D01*
X60330342Y-292800678D01*
X60355331Y-292926305D01*
X60358943Y-292944467D01*
X60358943Y-293122125D01*
X60324284Y-293296371D01*
X60279365Y-293404814D01*
X60256296Y-293460507D01*
X60173250Y-293584795D01*
X60157595Y-293608224D01*
X60031971Y-293733848D01*
X60031968Y-293733850D01*
X59884254Y-293832549D01*
X59829541Y-293855212D01*
X59720118Y-293900537D01*
X59632995Y-293917867D01*
X59545874Y-293935196D01*
X59368212Y-293935196D01*
X59281091Y-293917867D01*
X59193968Y-293900537D01*
X59084545Y-293855212D01*
X59029832Y-293832549D01*
X58882118Y-293733850D01*
X58882115Y-293733848D01*
X58756491Y-293608224D01*
X58740836Y-293584795D01*
X58657790Y-293460507D01*
X58634721Y-293404814D01*
X58589802Y-293296371D01*
X58555143Y-293122125D01*
X58555143Y-292944467D01*
X58558756Y-292926305D01*
X58583744Y-292800678D01*
X58589802Y-292770221D01*
X58640765Y-292647187D01*
X58657790Y-292606085D01*
X58756489Y-292458371D01*
X58756491Y-292458368D01*
X58882115Y-292332744D01*
X58917178Y-292309316D01*
X59029832Y-292234043D01*
X59084545Y-292211380D01*
X59193968Y-292166055D01*
X59281091Y-292148726D01*
X59368212Y-292131396D01*
X59545874Y-292131396D01*
X59632995Y-292148726D01*
X59632995Y-292148726D01*
G37*
G36*
X230853882Y-292125299D02*
G01*
X230941005Y-292142629D01*
X230997559Y-292166055D01*
X231105141Y-292210617D01*
X231160665Y-292247717D01*
X231252858Y-292309318D01*
X231378482Y-292434942D01*
X231378484Y-292434945D01*
X231477183Y-292582659D01*
X231499846Y-292637372D01*
X231545171Y-292746795D01*
X231551229Y-292777252D01*
X231579830Y-292921039D01*
X231579830Y-293098701D01*
X231562501Y-293185822D01*
X231545171Y-293272945D01*
X231535468Y-293296369D01*
X231477183Y-293437081D01*
X231461530Y-293460507D01*
X231378482Y-293584798D01*
X231252858Y-293710422D01*
X231252855Y-293710424D01*
X231105141Y-293809123D01*
X231050428Y-293831786D01*
X230941005Y-293877111D01*
X230853882Y-293894440D01*
X230766761Y-293911770D01*
X230589099Y-293911770D01*
X230501978Y-293894440D01*
X230414855Y-293877111D01*
X230305432Y-293831786D01*
X230250719Y-293809123D01*
X230103005Y-293710424D01*
X230103002Y-293710422D01*
X229977378Y-293584798D01*
X229894330Y-293460507D01*
X229878677Y-293437081D01*
X229820392Y-293296369D01*
X229810689Y-293272945D01*
X229793359Y-293185822D01*
X229776030Y-293098701D01*
X229776030Y-292921039D01*
X229804631Y-292777252D01*
X229810689Y-292746795D01*
X229856014Y-292637372D01*
X229878677Y-292582659D01*
X229977376Y-292434945D01*
X229977378Y-292434942D01*
X230103002Y-292309318D01*
X230195195Y-292247717D01*
X230250719Y-292210617D01*
X230358301Y-292166055D01*
X230414855Y-292142629D01*
X230501978Y-292125299D01*
X230589099Y-292107970D01*
X230766761Y-292107970D01*
X230853882Y-292125299D01*
X230853882Y-292125299D01*
G37*
G36*
X79699210Y-290136682D02*
G01*
X79876570Y-290171961D01*
X80158834Y-290288878D01*
X80412865Y-290458616D01*
X80628901Y-290674652D01*
X80798639Y-290928683D01*
X80915556Y-291210947D01*
X80932426Y-291295758D01*
X80972135Y-291495386D01*
X80975160Y-291510597D01*
X80975160Y-291816117D01*
X80915556Y-292115767D01*
X80798639Y-292398031D01*
X80628901Y-292652062D01*
X80412865Y-292868098D01*
X80158834Y-293037836D01*
X79876570Y-293154753D01*
X79726745Y-293184555D01*
X79576921Y-293214357D01*
X79271399Y-293214357D01*
X79121575Y-293184555D01*
X78971750Y-293154753D01*
X78689486Y-293037836D01*
X78435455Y-292868098D01*
X78219419Y-292652062D01*
X78049681Y-292398031D01*
X77932764Y-292115767D01*
X77873160Y-291816117D01*
X77873160Y-291510597D01*
X77876186Y-291495386D01*
X77915894Y-291295758D01*
X77932764Y-291210947D01*
X78049681Y-290928683D01*
X78219419Y-290674652D01*
X78435455Y-290458616D01*
X78689486Y-290288878D01*
X78971750Y-290171961D01*
X79149110Y-290136682D01*
X79271399Y-290112357D01*
X79576921Y-290112357D01*
X79699210Y-290136682D01*
X79699210Y-290136682D01*
G37*
G36*
X54872508Y-289275307D02*
G01*
X55137255Y-289384969D01*
X55193810Y-289408395D01*
X55482972Y-289601607D01*
X55728885Y-289847520D01*
X55906446Y-290113258D01*
X55922098Y-290136684D01*
X56055185Y-290457984D01*
X56123032Y-290799072D01*
X56123032Y-291146848D01*
X56055185Y-291487936D01*
X55922098Y-291809236D01*
X55922097Y-291809238D01*
X55728885Y-292098400D01*
X55482972Y-292344313D01*
X55193810Y-292537525D01*
X55193809Y-292537526D01*
X55193808Y-292537526D01*
X54872508Y-292670613D01*
X54531420Y-292738460D01*
X54183644Y-292738460D01*
X53842556Y-292670613D01*
X53521256Y-292537526D01*
X53521255Y-292537526D01*
X53521254Y-292537525D01*
X53232092Y-292344313D01*
X52986179Y-292098400D01*
X52792967Y-291809238D01*
X52792966Y-291809236D01*
X52659879Y-291487936D01*
X52592032Y-291146848D01*
X52592032Y-290799072D01*
X52659879Y-290457984D01*
X52792966Y-290136684D01*
X52808619Y-290113258D01*
X52986179Y-289847520D01*
X53232092Y-289601607D01*
X53521254Y-289408395D01*
X53577809Y-289384969D01*
X53842556Y-289275307D01*
X54183644Y-289207460D01*
X54531420Y-289207460D01*
X54872508Y-289275307D01*
X54872508Y-289275307D01*
G37*
G36*
X236292417Y-289251881D02*
G01*
X236504756Y-289339835D01*
X236613719Y-289384969D01*
X236902881Y-289578181D01*
X237148794Y-289824094D01*
X237335640Y-290103728D01*
X237342007Y-290113258D01*
X237475094Y-290434558D01*
X237542941Y-290775646D01*
X237542941Y-291123422D01*
X237475094Y-291464510D01*
X237345388Y-291777648D01*
X237342006Y-291785812D01*
X237148794Y-292074974D01*
X236902881Y-292320887D01*
X236613719Y-292514099D01*
X236613718Y-292514100D01*
X236613717Y-292514100D01*
X236292417Y-292647187D01*
X235951329Y-292715034D01*
X235603553Y-292715034D01*
X235262465Y-292647187D01*
X234941165Y-292514100D01*
X234941164Y-292514100D01*
X234941163Y-292514099D01*
X234652001Y-292320887D01*
X234406088Y-292074974D01*
X234212876Y-291785812D01*
X234209494Y-291777648D01*
X234079788Y-291464510D01*
X234011941Y-291123422D01*
X234011941Y-290775646D01*
X234079788Y-290434558D01*
X234212875Y-290113258D01*
X234219243Y-290103728D01*
X234406088Y-289824094D01*
X234652001Y-289578181D01*
X234941163Y-289384969D01*
X235050126Y-289339835D01*
X235262465Y-289251881D01*
X235603553Y-289184034D01*
X235951329Y-289184034D01*
X236292417Y-289251881D01*
X236292417Y-289251881D01*
G37*
G36*
X34678935Y-289521778D02*
G01*
X34828760Y-289551580D01*
X35111024Y-289668497D01*
X35365055Y-289838235D01*
X35581091Y-290054271D01*
X35750829Y-290308302D01*
X35867746Y-290590566D01*
X35875988Y-290632002D01*
X35927350Y-290890215D01*
X35927350Y-291195737D01*
X35924324Y-291210948D01*
X35867746Y-291495386D01*
X35750829Y-291777650D01*
X35581091Y-292031681D01*
X35365055Y-292247717D01*
X35111024Y-292417455D01*
X34828760Y-292534372D01*
X34678935Y-292564174D01*
X34529111Y-292593976D01*
X34223589Y-292593976D01*
X34073765Y-292564174D01*
X33923940Y-292534372D01*
X33641676Y-292417455D01*
X33387645Y-292247717D01*
X33171609Y-292031681D01*
X33001871Y-291777650D01*
X32884954Y-291495386D01*
X32828376Y-291210948D01*
X32825350Y-291195737D01*
X32825350Y-290890215D01*
X32876712Y-290632002D01*
X32884954Y-290590566D01*
X33001871Y-290308302D01*
X33171609Y-290054271D01*
X33387645Y-289838235D01*
X33641676Y-289668497D01*
X33923940Y-289551580D01*
X34073765Y-289521778D01*
X34223589Y-289491976D01*
X34529111Y-289491976D01*
X34678935Y-289521778D01*
X34678935Y-289521778D01*
G37*
G36*
X68459907Y-290322356D02*
G01*
X68547030Y-290339686D01*
X68656453Y-290385011D01*
X68711166Y-290407674D01*
X68823820Y-290482947D01*
X68858883Y-290506375D01*
X68984507Y-290631999D01*
X68984509Y-290632002D01*
X69083208Y-290779716D01*
X69083208Y-290779717D01*
X69151196Y-290943852D01*
X69151196Y-290943854D01*
X69181196Y-291094672D01*
X69185855Y-291118098D01*
X69185855Y-291295756D01*
X69151196Y-291470002D01*
X69123768Y-291536218D01*
X69083208Y-291634138D01*
X69000162Y-291758426D01*
X68984507Y-291781855D01*
X68858883Y-291907479D01*
X68858880Y-291907481D01*
X68711166Y-292006180D01*
X68656453Y-292028843D01*
X68547030Y-292074168D01*
X68459907Y-292091497D01*
X68372786Y-292108827D01*
X68195124Y-292108827D01*
X68108003Y-292091497D01*
X68020880Y-292074168D01*
X67911457Y-292028843D01*
X67856744Y-292006180D01*
X67709030Y-291907481D01*
X67709027Y-291907479D01*
X67583403Y-291781855D01*
X67567748Y-291758426D01*
X67484702Y-291634138D01*
X67444142Y-291536218D01*
X67416714Y-291470002D01*
X67382055Y-291295756D01*
X67382055Y-291118098D01*
X67386715Y-291094672D01*
X67416714Y-290943854D01*
X67416714Y-290943852D01*
X67484702Y-290779717D01*
X67484702Y-290779716D01*
X67583401Y-290632002D01*
X67583403Y-290631999D01*
X67709027Y-290506375D01*
X67744090Y-290482947D01*
X67856744Y-290407674D01*
X67911457Y-290385011D01*
X68020880Y-290339686D01*
X68108003Y-290322356D01*
X68195124Y-290305027D01*
X68372786Y-290305027D01*
X68459907Y-290322356D01*
X68459907Y-290322356D01*
G37*
G36*
X222026969Y-290298930D02*
G01*
X222114092Y-290316260D01*
X222170646Y-290339686D01*
X222278228Y-290384248D01*
X222388582Y-290457984D01*
X222425945Y-290482949D01*
X222551569Y-290608573D01*
X222551571Y-290608576D01*
X222650270Y-290756290D01*
X222650270Y-290756291D01*
X222718258Y-290920426D01*
X222722918Y-290943854D01*
X222752917Y-291094670D01*
X222752917Y-291272332D01*
X222748257Y-291295758D01*
X222718258Y-291446576D01*
X222691739Y-291510597D01*
X222650270Y-291610712D01*
X222588808Y-291702697D01*
X222551569Y-291758429D01*
X222425945Y-291884053D01*
X222425942Y-291884055D01*
X222278228Y-291982754D01*
X222223515Y-292005417D01*
X222114092Y-292050742D01*
X222026969Y-292068072D01*
X221939848Y-292085401D01*
X221762186Y-292085401D01*
X221675065Y-292068072D01*
X221587942Y-292050742D01*
X221478519Y-292005417D01*
X221423806Y-291982754D01*
X221276092Y-291884055D01*
X221276089Y-291884053D01*
X221150465Y-291758429D01*
X221113226Y-291702697D01*
X221051764Y-291610712D01*
X221010295Y-291510597D01*
X220983776Y-291446576D01*
X220953777Y-291295758D01*
X220949117Y-291272332D01*
X220949117Y-291094670D01*
X220979116Y-290943854D01*
X220983776Y-290920426D01*
X221051764Y-290756291D01*
X221051764Y-290756290D01*
X221150463Y-290608576D01*
X221150465Y-290608573D01*
X221276089Y-290482949D01*
X221313452Y-290457984D01*
X221423806Y-290384248D01*
X221531388Y-290339686D01*
X221587942Y-290316260D01*
X221675065Y-290298930D01*
X221762186Y-290281601D01*
X221939848Y-290281601D01*
X222026969Y-290298930D01*
X222026969Y-290298930D01*
G37*
G36*
X94940894Y-288523624D02*
G01*
X95090719Y-288553426D01*
X95372983Y-288670343D01*
X95627014Y-288840081D01*
X95843050Y-289056117D01*
X96012788Y-289310148D01*
X96129705Y-289592412D01*
X96144839Y-289668497D01*
X96189309Y-289892061D01*
X96189309Y-290197583D01*
X96167285Y-290308304D01*
X96129705Y-290497232D01*
X96012788Y-290779496D01*
X95843050Y-291033527D01*
X95627014Y-291249563D01*
X95372983Y-291419301D01*
X95090719Y-291536218D01*
X95040616Y-291546184D01*
X94791070Y-291595822D01*
X94485548Y-291595822D01*
X94236002Y-291546184D01*
X94185899Y-291536218D01*
X93903635Y-291419301D01*
X93649604Y-291249563D01*
X93433568Y-291033527D01*
X93263830Y-290779496D01*
X93146913Y-290497232D01*
X93109333Y-290308304D01*
X93087309Y-290197583D01*
X93087309Y-289892061D01*
X93131779Y-289668497D01*
X93146913Y-289592412D01*
X93263830Y-289310148D01*
X93433568Y-289056117D01*
X93649604Y-288840081D01*
X93903635Y-288670343D01*
X94185899Y-288553426D01*
X94335724Y-288523624D01*
X94485548Y-288493822D01*
X94791070Y-288493822D01*
X94940894Y-288523624D01*
X94940894Y-288523624D01*
G37*
G36*
X60700811Y-287847856D02*
G01*
X60850636Y-287877658D01*
X61132900Y-287994575D01*
X61386931Y-288164313D01*
X61602967Y-288380349D01*
X61772705Y-288634380D01*
X61889622Y-288916644D01*
X61906492Y-289001455D01*
X61936492Y-289152273D01*
X61949226Y-289216294D01*
X61949226Y-289521814D01*
X61889622Y-289821464D01*
X61772705Y-290103728D01*
X61602967Y-290357759D01*
X61386931Y-290573795D01*
X61132900Y-290743533D01*
X60850636Y-290860450D01*
X60700997Y-290890215D01*
X60550987Y-290920054D01*
X60245465Y-290920054D01*
X60095455Y-290890215D01*
X59945816Y-290860450D01*
X59663552Y-290743533D01*
X59409521Y-290573795D01*
X59193485Y-290357759D01*
X59023747Y-290103728D01*
X58906830Y-289821464D01*
X58847226Y-289521814D01*
X58847226Y-289216294D01*
X58859961Y-289152273D01*
X58889960Y-289001455D01*
X58906830Y-288916644D01*
X59023747Y-288634380D01*
X59193485Y-288380349D01*
X59409521Y-288164313D01*
X59663552Y-287994575D01*
X59945816Y-287877658D01*
X60095641Y-287847856D01*
X60245465Y-287818054D01*
X60550987Y-287818054D01*
X60700811Y-287847856D01*
X60700811Y-287847856D01*
G37*
G36*
X49433973Y-288028053D02*
G01*
X49521096Y-288045383D01*
X49630519Y-288090708D01*
X49685232Y-288113371D01*
X49797886Y-288188644D01*
X49832949Y-288212072D01*
X49958573Y-288337696D01*
X49958575Y-288337699D01*
X50057274Y-288485413D01*
X50057274Y-288485414D01*
X50125262Y-288649549D01*
X50125262Y-288649551D01*
X50155262Y-288800369D01*
X50159921Y-288823795D01*
X50159921Y-289001453D01*
X50125262Y-289175699D01*
X50097834Y-289241915D01*
X50057274Y-289339835D01*
X49974228Y-289464123D01*
X49958573Y-289487552D01*
X49832949Y-289613176D01*
X49832946Y-289613178D01*
X49685232Y-289711877D01*
X49630519Y-289734540D01*
X49521096Y-289779865D01*
X49433973Y-289797194D01*
X49346852Y-289814524D01*
X49169190Y-289814524D01*
X49082069Y-289797194D01*
X48994946Y-289779865D01*
X48885523Y-289734540D01*
X48830810Y-289711877D01*
X48683096Y-289613178D01*
X48683093Y-289613176D01*
X48557469Y-289487552D01*
X48541814Y-289464123D01*
X48458768Y-289339835D01*
X48418208Y-289241915D01*
X48390780Y-289175699D01*
X48356121Y-289001453D01*
X48356121Y-288823795D01*
X48360781Y-288800369D01*
X48390780Y-288649551D01*
X48390780Y-288649549D01*
X48458768Y-288485414D01*
X48458768Y-288485413D01*
X48557467Y-288337699D01*
X48557469Y-288337696D01*
X48683093Y-288212072D01*
X48718156Y-288188644D01*
X48830810Y-288113371D01*
X48885523Y-288090708D01*
X48994946Y-288045383D01*
X49082069Y-288028053D01*
X49169190Y-288010724D01*
X49346852Y-288010724D01*
X49433973Y-288028053D01*
X49433973Y-288028053D01*
G37*
G36*
X241052904Y-288004628D02*
G01*
X241140027Y-288021957D01*
X241196581Y-288045383D01*
X241304163Y-288089945D01*
X241415463Y-288164313D01*
X241451880Y-288188646D01*
X241577504Y-288314270D01*
X241577506Y-288314273D01*
X241676205Y-288461987D01*
X241676205Y-288461988D01*
X241744193Y-288626123D01*
X241748853Y-288649551D01*
X241778852Y-288800367D01*
X241778852Y-288978029D01*
X241774192Y-289001455D01*
X241744193Y-289152273D01*
X241717674Y-289216294D01*
X241676205Y-289316409D01*
X241614743Y-289408394D01*
X241577504Y-289464126D01*
X241451880Y-289589750D01*
X241451877Y-289589752D01*
X241304163Y-289688451D01*
X241249450Y-289711114D01*
X241140027Y-289756439D01*
X241052904Y-289773769D01*
X240965783Y-289791098D01*
X240788121Y-289791098D01*
X240701000Y-289773769D01*
X240613877Y-289756439D01*
X240504454Y-289711114D01*
X240449741Y-289688451D01*
X240302027Y-289589752D01*
X240302024Y-289589750D01*
X240176400Y-289464126D01*
X240139161Y-289408394D01*
X240077699Y-289316409D01*
X240036230Y-289216294D01*
X240009711Y-289152273D01*
X239979712Y-289001455D01*
X239975052Y-288978029D01*
X239975052Y-288800367D01*
X240005051Y-288649551D01*
X240009711Y-288626123D01*
X240077699Y-288461988D01*
X240077699Y-288461987D01*
X240176398Y-288314273D01*
X240176400Y-288314270D01*
X240302024Y-288188646D01*
X240338441Y-288164313D01*
X240449741Y-288089945D01*
X240557323Y-288045383D01*
X240613877Y-288021957D01*
X240701000Y-288004628D01*
X240788121Y-287987298D01*
X240965783Y-287987298D01*
X241052904Y-288004628D01*
X241052904Y-288004628D01*
G37*
G36*
X75914960Y-286229321D02*
G01*
X76064785Y-286259123D01*
X76347049Y-286376040D01*
X76601080Y-286545778D01*
X76817116Y-286761814D01*
X76986854Y-287015845D01*
X77103771Y-287298109D01*
X77163375Y-287597759D01*
X77163375Y-287903279D01*
X77103771Y-288202929D01*
X76986854Y-288485193D01*
X76817116Y-288739224D01*
X76601080Y-288955260D01*
X76347049Y-289124998D01*
X76064785Y-289241915D01*
X76014682Y-289251881D01*
X75765136Y-289301519D01*
X75459614Y-289301519D01*
X75210068Y-289251881D01*
X75159965Y-289241915D01*
X74877701Y-289124998D01*
X74623670Y-288955260D01*
X74407634Y-288739224D01*
X74237896Y-288485193D01*
X74120979Y-288202929D01*
X74061375Y-287903279D01*
X74061375Y-287597759D01*
X74120979Y-287298109D01*
X74237896Y-287015845D01*
X74407634Y-286761814D01*
X74623670Y-286545778D01*
X74877701Y-286376040D01*
X75159965Y-286259123D01*
X75309790Y-286229321D01*
X75459614Y-286199519D01*
X75765136Y-286199519D01*
X75914960Y-286229321D01*
X75914960Y-286229321D01*
G37*
G36*
X253862596Y-284286070D02*
G01*
X254113234Y-284335925D01*
X254395498Y-284452842D01*
X254649529Y-284622580D01*
X254865565Y-284838616D01*
X255035303Y-285092647D01*
X255152220Y-285374911D01*
X255152220Y-285374912D01*
X255211824Y-285674560D01*
X255211824Y-285980082D01*
X255185393Y-286112958D01*
X255152220Y-286279731D01*
X255035303Y-286561995D01*
X254865565Y-286816026D01*
X254649529Y-287032062D01*
X254395498Y-287201800D01*
X254113234Y-287318717D01*
X253963409Y-287348519D01*
X253813585Y-287378321D01*
X253508063Y-287378321D01*
X253358239Y-287348519D01*
X253208414Y-287318717D01*
X252926150Y-287201800D01*
X252672119Y-287032062D01*
X252456083Y-286816026D01*
X252286345Y-286561995D01*
X252169428Y-286279731D01*
X252136255Y-286112958D01*
X252109824Y-285980082D01*
X252109824Y-285674560D01*
X252169428Y-285374912D01*
X252169428Y-285374911D01*
X252286345Y-285092647D01*
X252456083Y-284838616D01*
X252672119Y-284622580D01*
X252926150Y-284452842D01*
X253208414Y-284335925D01*
X253459052Y-284286070D01*
X253508063Y-284276321D01*
X253813585Y-284276321D01*
X253862596Y-284286070D01*
X253862596Y-284286070D01*
G37*
G36*
X248503355Y-284139351D02*
G01*
X248653180Y-284169153D01*
X248935444Y-284286070D01*
X249189475Y-284455808D01*
X249405511Y-284671844D01*
X249575249Y-284925875D01*
X249692166Y-285208139D01*
X249711126Y-285303456D01*
X249751770Y-285507788D01*
X249751770Y-285813310D01*
X249732810Y-285908626D01*
X249692166Y-286112959D01*
X249575249Y-286395223D01*
X249405511Y-286649254D01*
X249189475Y-286865290D01*
X248935444Y-287035028D01*
X248653180Y-287151945D01*
X248503355Y-287181747D01*
X248353531Y-287211549D01*
X248048009Y-287211549D01*
X247898185Y-287181747D01*
X247748360Y-287151945D01*
X247466096Y-287035028D01*
X247212065Y-286865290D01*
X246996029Y-286649254D01*
X246826291Y-286395223D01*
X246709374Y-286112959D01*
X246668730Y-285908626D01*
X246649770Y-285813310D01*
X246649770Y-285507788D01*
X246690414Y-285303456D01*
X246709374Y-285208139D01*
X246826291Y-284925875D01*
X246996029Y-284671844D01*
X247212065Y-284455808D01*
X247466096Y-284286070D01*
X247748360Y-284169153D01*
X247898185Y-284139351D01*
X248048009Y-284109549D01*
X248353531Y-284109549D01*
X248503355Y-284139351D01*
X248503355Y-284139351D01*
G37*
G36*
X56889026Y-283935018D02*
G01*
X57038851Y-283964820D01*
X57321115Y-284081737D01*
X57575146Y-284251475D01*
X57791182Y-284467511D01*
X57960920Y-284721542D01*
X58077837Y-285003806D01*
X58095509Y-285092649D01*
X58137441Y-285303455D01*
X58137441Y-285608977D01*
X58129062Y-285651099D01*
X58077837Y-285908626D01*
X57960920Y-286190890D01*
X57791182Y-286444921D01*
X57575146Y-286660957D01*
X57321115Y-286830695D01*
X57038851Y-286947612D01*
X56889026Y-286977414D01*
X56739202Y-287007216D01*
X56433680Y-287007216D01*
X56283856Y-286977414D01*
X56134031Y-286947612D01*
X55851767Y-286830695D01*
X55597736Y-286660957D01*
X55381700Y-286444921D01*
X55211962Y-286190890D01*
X55095045Y-285908626D01*
X55043820Y-285651099D01*
X55035441Y-285608977D01*
X55035441Y-285303455D01*
X55077373Y-285092649D01*
X55095045Y-285003806D01*
X55211962Y-284721542D01*
X55381700Y-284467511D01*
X55597736Y-284251475D01*
X55851767Y-284081737D01*
X56134031Y-283964820D01*
X56283856Y-283935018D01*
X56433680Y-283905216D01*
X56739202Y-283905216D01*
X56889026Y-283935018D01*
X56889026Y-283935018D01*
G37*
G36*
X193701451Y-283307968D02*
G01*
X193851276Y-283337770D01*
X194133540Y-283454687D01*
X194387571Y-283624425D01*
X194603607Y-283840461D01*
X194773345Y-284094492D01*
X194890262Y-284376756D01*
X194949866Y-284676406D01*
X194949866Y-284981926D01*
X194890262Y-285281576D01*
X194773345Y-285563840D01*
X194603607Y-285817871D01*
X194387571Y-286033907D01*
X194133540Y-286203645D01*
X193851276Y-286320562D01*
X193701451Y-286350364D01*
X193551627Y-286380166D01*
X193246105Y-286380166D01*
X193096281Y-286350364D01*
X192946456Y-286320562D01*
X192664192Y-286203645D01*
X192410161Y-286033907D01*
X192194125Y-285817871D01*
X192024387Y-285563840D01*
X191907470Y-285281576D01*
X191847866Y-284981926D01*
X191847866Y-284676406D01*
X191907470Y-284376756D01*
X192024387Y-284094492D01*
X192194125Y-283840461D01*
X192410161Y-283624425D01*
X192664192Y-283454687D01*
X192946456Y-283337770D01*
X193096281Y-283307968D01*
X193246105Y-283278166D01*
X193551627Y-283278166D01*
X193701451Y-283307968D01*
X193701451Y-283307968D01*
G37*
G36*
X188241397Y-283141196D02*
G01*
X188391222Y-283170998D01*
X188673486Y-283287915D01*
X188927517Y-283457653D01*
X189143553Y-283673689D01*
X189313291Y-283927720D01*
X189397200Y-284130296D01*
X189430208Y-284209985D01*
X189481434Y-284467512D01*
X189489812Y-284509634D01*
X189489812Y-284815154D01*
X189430208Y-285114804D01*
X189313291Y-285397068D01*
X189143553Y-285651099D01*
X188927517Y-285867135D01*
X188673486Y-286036873D01*
X188391222Y-286153790D01*
X188241397Y-286183592D01*
X188091573Y-286213394D01*
X187786051Y-286213394D01*
X187636227Y-286183592D01*
X187486402Y-286153790D01*
X187204138Y-286036873D01*
X186950107Y-285867135D01*
X186734071Y-285651099D01*
X186564333Y-285397068D01*
X186447416Y-285114804D01*
X186387812Y-284815154D01*
X186387812Y-284509634D01*
X186396191Y-284467512D01*
X186447416Y-284209985D01*
X186480424Y-284130296D01*
X186564333Y-283927720D01*
X186734071Y-283673689D01*
X186950107Y-283457653D01*
X187204138Y-283287915D01*
X187486402Y-283170998D01*
X187636227Y-283141196D01*
X187786051Y-283111394D01*
X188091573Y-283111394D01*
X188241397Y-283141196D01*
X188241397Y-283141196D01*
G37*
G36*
X119730492Y-283695961D02*
G01*
X119055451Y-285366748D01*
X117384664Y-284691707D01*
X118059705Y-283020920D01*
X119730492Y-283695961D01*
X119730492Y-283695961D01*
G37*
G36*
X172508494Y-284550273D02*
G01*
X170837707Y-285225314D01*
X170162666Y-283554527D01*
X171833453Y-282879486D01*
X172508494Y-284550273D01*
X172508494Y-284550273D01*
G37*
G36*
X116312974Y-282347852D02*
G01*
X116379158Y-282354370D01*
X116548997Y-282405890D01*
X116705522Y-282489555D01*
X116713213Y-282495867D01*
X116842717Y-282602147D01*
X116912865Y-282687624D01*
X116955309Y-282739342D01*
X117038974Y-282895867D01*
X117090494Y-283065706D01*
X117107890Y-283242333D01*
X117090494Y-283418960D01*
X117038974Y-283588799D01*
X116955309Y-283745324D01*
X116925979Y-283781062D01*
X116842717Y-283882519D01*
X116742431Y-283964820D01*
X116705522Y-283995111D01*
X116548997Y-284078776D01*
X116379158Y-284130296D01*
X116312973Y-284136815D01*
X116246791Y-284143333D01*
X116158271Y-284143333D01*
X116092089Y-284136815D01*
X116025904Y-284130296D01*
X115856065Y-284078776D01*
X115699540Y-283995111D01*
X115662631Y-283964820D01*
X115562345Y-283882519D01*
X115479083Y-283781062D01*
X115449753Y-283745324D01*
X115366088Y-283588799D01*
X115314568Y-283418960D01*
X115297172Y-283242333D01*
X115314568Y-283065706D01*
X115366088Y-282895867D01*
X115449753Y-282739342D01*
X115492197Y-282687624D01*
X115562345Y-282602147D01*
X115691849Y-282495867D01*
X115699540Y-282489555D01*
X115856065Y-282405890D01*
X116025904Y-282354370D01*
X116092088Y-282347852D01*
X116158271Y-282341333D01*
X116246791Y-282341333D01*
X116312974Y-282347852D01*
X116312974Y-282347852D01*
G37*
G36*
X212626572Y-280993613D02*
G01*
X212877210Y-281043468D01*
X213159474Y-281160385D01*
X213413505Y-281330123D01*
X213629541Y-281546159D01*
X213799279Y-281800190D01*
X213916196Y-282082454D01*
X213922512Y-282114206D01*
X213970284Y-282354370D01*
X213975800Y-282382104D01*
X213975800Y-282687624D01*
X213916196Y-282987274D01*
X213799279Y-283269538D01*
X213629541Y-283523569D01*
X213413505Y-283739605D01*
X213159474Y-283909343D01*
X212877210Y-284026260D01*
X212727385Y-284056062D01*
X212577561Y-284085864D01*
X212272039Y-284085864D01*
X212122215Y-284056062D01*
X211972390Y-284026260D01*
X211690126Y-283909343D01*
X211436095Y-283739605D01*
X211220059Y-283523569D01*
X211050321Y-283269538D01*
X210933404Y-282987274D01*
X210873800Y-282687624D01*
X210873800Y-282382104D01*
X210879317Y-282354370D01*
X210927088Y-282114206D01*
X210933404Y-282082454D01*
X211050321Y-281800190D01*
X211220059Y-281546159D01*
X211436095Y-281330123D01*
X211690126Y-281160385D01*
X211972390Y-281043468D01*
X212223028Y-280993613D01*
X212272039Y-280983864D01*
X212577561Y-280983864D01*
X212626572Y-280993613D01*
X212626572Y-280993613D01*
G37*
G36*
X173801070Y-282206418D02*
G01*
X173867254Y-282212936D01*
X174037093Y-282264456D01*
X174037095Y-282264457D01*
X174070069Y-282282082D01*
X174193618Y-282348121D01*
X174201232Y-282354370D01*
X174330813Y-282460713D01*
X174414075Y-282562170D01*
X174443405Y-282597908D01*
X174527070Y-282754433D01*
X174578590Y-282924272D01*
X174595986Y-283100899D01*
X174578590Y-283277526D01*
X174527070Y-283447365D01*
X174443405Y-283603890D01*
X174426552Y-283624425D01*
X174330813Y-283741085D01*
X174229356Y-283824347D01*
X174193618Y-283853677D01*
X174037093Y-283937342D01*
X173867254Y-283988862D01*
X173803806Y-283995111D01*
X173734887Y-284001899D01*
X173646367Y-284001899D01*
X173577448Y-283995111D01*
X173514000Y-283988862D01*
X173344161Y-283937342D01*
X173187636Y-283853677D01*
X173151898Y-283824347D01*
X173050441Y-283741085D01*
X172954702Y-283624425D01*
X172937849Y-283603890D01*
X172854184Y-283447365D01*
X172802664Y-283277526D01*
X172785268Y-283100899D01*
X172802664Y-282924272D01*
X172854184Y-282754433D01*
X172937849Y-282597908D01*
X172967179Y-282562170D01*
X173050441Y-282460713D01*
X173180022Y-282354370D01*
X173187636Y-282348121D01*
X173311185Y-282282082D01*
X173344159Y-282264457D01*
X173344161Y-282264456D01*
X173514000Y-282212936D01*
X173580184Y-282206418D01*
X173646367Y-282199899D01*
X173734887Y-282199899D01*
X173801070Y-282206418D01*
X173801070Y-282206418D01*
G37*
G36*
X207267331Y-280846894D02*
G01*
X207417156Y-280876696D01*
X207699420Y-280993613D01*
X207953451Y-281163351D01*
X208169487Y-281379387D01*
X208339225Y-281633418D01*
X208456142Y-281915682D01*
X208479745Y-282034341D01*
X208515746Y-282215331D01*
X208515746Y-282520853D01*
X208499575Y-282602148D01*
X208456142Y-282820502D01*
X208339225Y-283102766D01*
X208169487Y-283356797D01*
X207953451Y-283572833D01*
X207699420Y-283742571D01*
X207417156Y-283859488D01*
X207301376Y-283882518D01*
X207117507Y-283919092D01*
X206811985Y-283919092D01*
X206628116Y-283882518D01*
X206512336Y-283859488D01*
X206230072Y-283742571D01*
X205976041Y-283572833D01*
X205760005Y-283356797D01*
X205590267Y-283102766D01*
X205473350Y-282820502D01*
X205429917Y-282602148D01*
X205413746Y-282520853D01*
X205413746Y-282215331D01*
X205449747Y-282034341D01*
X205473350Y-281915682D01*
X205590267Y-281633418D01*
X205760005Y-281379387D01*
X205976041Y-281163351D01*
X206230072Y-280993613D01*
X206512336Y-280876696D01*
X206662161Y-280846894D01*
X206811985Y-280817092D01*
X207117507Y-280817092D01*
X207267331Y-280846894D01*
X207267331Y-280846894D01*
G37*
G36*
X43975727Y-281509213D02*
G01*
X44065643Y-281527098D01*
X44175066Y-281572423D01*
X44229779Y-281595086D01*
X44376501Y-281693122D01*
X44377496Y-281693787D01*
X44503120Y-281819411D01*
X44503122Y-281819414D01*
X44601821Y-281967128D01*
X44618846Y-282008230D01*
X44669809Y-282131264D01*
X44683461Y-282199899D01*
X44704468Y-282305508D01*
X44704468Y-282483170D01*
X44696972Y-282520853D01*
X44669809Y-282657414D01*
X44635873Y-282739342D01*
X44601821Y-282821550D01*
X44533183Y-282924274D01*
X44503120Y-282969267D01*
X44377496Y-283094891D01*
X44377493Y-283094893D01*
X44229779Y-283193592D01*
X44175066Y-283216255D01*
X44065643Y-283261580D01*
X43985475Y-283277526D01*
X43891399Y-283296239D01*
X43713737Y-283296239D01*
X43619661Y-283277526D01*
X43539493Y-283261580D01*
X43430070Y-283216255D01*
X43375357Y-283193592D01*
X43227643Y-283094893D01*
X43227640Y-283094891D01*
X43102016Y-282969267D01*
X43071953Y-282924274D01*
X43003315Y-282821550D01*
X42969263Y-282739342D01*
X42935327Y-282657414D01*
X42908164Y-282520853D01*
X42900668Y-282483170D01*
X42900668Y-282305508D01*
X42921675Y-282199899D01*
X42935327Y-282131264D01*
X42986290Y-282008230D01*
X43003315Y-281967128D01*
X43102014Y-281819414D01*
X43102016Y-281819411D01*
X43227640Y-281693787D01*
X43228635Y-281693122D01*
X43375357Y-281595086D01*
X43430070Y-281572423D01*
X43539493Y-281527098D01*
X43629409Y-281509213D01*
X43713737Y-281492439D01*
X43891399Y-281492439D01*
X43975727Y-281509213D01*
X43975727Y-281509213D01*
G37*
G36*
X246501672Y-281485013D02*
G01*
X246595479Y-281503672D01*
X246704902Y-281548997D01*
X246759615Y-281571660D01*
X246877828Y-281650647D01*
X246907332Y-281670361D01*
X247032956Y-281795985D01*
X247032958Y-281795988D01*
X247131657Y-281943702D01*
X247143698Y-281972772D01*
X247199645Y-282107838D01*
X247213158Y-282175774D01*
X247234304Y-282282082D01*
X247234304Y-282459744D01*
X247222149Y-282520852D01*
X247199645Y-282633988D01*
X247177427Y-282687625D01*
X247131657Y-282798124D01*
X247042860Y-282931018D01*
X247032956Y-282945841D01*
X246907332Y-283071465D01*
X246907329Y-283071467D01*
X246759615Y-283170166D01*
X246738780Y-283178796D01*
X246595479Y-283238154D01*
X246508356Y-283255483D01*
X246421235Y-283272813D01*
X246243573Y-283272813D01*
X246156452Y-283255483D01*
X246069329Y-283238154D01*
X245926028Y-283178796D01*
X245905193Y-283170166D01*
X245757479Y-283071467D01*
X245757476Y-283071465D01*
X245631852Y-282945841D01*
X245621948Y-282931018D01*
X245533151Y-282798124D01*
X245487381Y-282687625D01*
X245465163Y-282633988D01*
X245442659Y-282520852D01*
X245430504Y-282459744D01*
X245430504Y-282282082D01*
X245451650Y-282175774D01*
X245465163Y-282107838D01*
X245521110Y-281972772D01*
X245533151Y-281943702D01*
X245631850Y-281795988D01*
X245631852Y-281795985D01*
X245757476Y-281670361D01*
X245786980Y-281650647D01*
X245905193Y-281571660D01*
X245959906Y-281548997D01*
X246069329Y-281503672D01*
X246163136Y-281485013D01*
X246243573Y-281469013D01*
X246421235Y-281469013D01*
X246501672Y-281485013D01*
X246501672Y-281485013D01*
G37*
G36*
X113957926Y-281396351D02*
G01*
X114024111Y-281402870D01*
X114193950Y-281454390D01*
X114193952Y-281454391D01*
X114251241Y-281485013D01*
X114350475Y-281538055D01*
X114383533Y-281565185D01*
X114487670Y-281650647D01*
X114554398Y-281731957D01*
X114600262Y-281787842D01*
X114683927Y-281944367D01*
X114735447Y-282114206D01*
X114752843Y-282290833D01*
X114735447Y-282467460D01*
X114683927Y-282637299D01*
X114600262Y-282793824D01*
X114577508Y-282821550D01*
X114487670Y-282931019D01*
X114386213Y-283014281D01*
X114350475Y-283043611D01*
X114193950Y-283127276D01*
X114024111Y-283178796D01*
X113957926Y-283185315D01*
X113891744Y-283191833D01*
X113803224Y-283191833D01*
X113737042Y-283185315D01*
X113670857Y-283178796D01*
X113501018Y-283127276D01*
X113344493Y-283043611D01*
X113308755Y-283014281D01*
X113207298Y-282931019D01*
X113117460Y-282821550D01*
X113094706Y-282793824D01*
X113011041Y-282637299D01*
X112959521Y-282467460D01*
X112942125Y-282290833D01*
X112959521Y-282114206D01*
X113011041Y-281944367D01*
X113094706Y-281787842D01*
X113140570Y-281731957D01*
X113207298Y-281650647D01*
X113311435Y-281565185D01*
X113344493Y-281538055D01*
X113443727Y-281485013D01*
X113501016Y-281454391D01*
X113501018Y-281454390D01*
X113670857Y-281402870D01*
X113737042Y-281396351D01*
X113803224Y-281389833D01*
X113891744Y-281389833D01*
X113957926Y-281396351D01*
X113957926Y-281396351D01*
G37*
G36*
X176156116Y-281254917D02*
G01*
X176222301Y-281261436D01*
X176392140Y-281312956D01*
X176548665Y-281396621D01*
X176556279Y-281402870D01*
X176685860Y-281509213D01*
X176756333Y-281595086D01*
X176798452Y-281646408D01*
X176798453Y-281646410D01*
X176876039Y-281791561D01*
X176882117Y-281802933D01*
X176933637Y-281972772D01*
X176951033Y-282149399D01*
X176933637Y-282326026D01*
X176882117Y-282495865D01*
X176798452Y-282652390D01*
X176769536Y-282687624D01*
X176685860Y-282789585D01*
X176584403Y-282872847D01*
X176548665Y-282902177D01*
X176392140Y-282985842D01*
X176222301Y-283037362D01*
X176158853Y-283043611D01*
X176089934Y-283050399D01*
X176001414Y-283050399D01*
X175932495Y-283043611D01*
X175869047Y-283037362D01*
X175699208Y-282985842D01*
X175542683Y-282902177D01*
X175506945Y-282872847D01*
X175405488Y-282789585D01*
X175321812Y-282687624D01*
X175292896Y-282652390D01*
X175209231Y-282495865D01*
X175157711Y-282326026D01*
X175140315Y-282149399D01*
X175157711Y-281972772D01*
X175209231Y-281802933D01*
X175215310Y-281791561D01*
X175292895Y-281646410D01*
X175292896Y-281646408D01*
X175335015Y-281595086D01*
X175405488Y-281509213D01*
X175535069Y-281402870D01*
X175542683Y-281396621D01*
X175699208Y-281312956D01*
X175869047Y-281261436D01*
X175935232Y-281254917D01*
X176001414Y-281248399D01*
X176089934Y-281248399D01*
X176156116Y-281254917D01*
X176156116Y-281254917D01*
G37*
G36*
X104240479Y-280511614D02*
G01*
X104327602Y-280528943D01*
X104437025Y-280574268D01*
X104491738Y-280596931D01*
X104638370Y-280694907D01*
X104639455Y-280695632D01*
X104765079Y-280821256D01*
X104765081Y-280821259D01*
X104863780Y-280968973D01*
X104880805Y-281010075D01*
X104931768Y-281133109D01*
X104939161Y-281170279D01*
X104966427Y-281307353D01*
X104966427Y-281485015D01*
X104954622Y-281544364D01*
X104931768Y-281659259D01*
X104901655Y-281731957D01*
X104863780Y-281823395D01*
X104802116Y-281915682D01*
X104765079Y-281971112D01*
X104639455Y-282096736D01*
X104639452Y-282096738D01*
X104491738Y-282195437D01*
X104443707Y-282215332D01*
X104327602Y-282263425D01*
X104240479Y-282280754D01*
X104153358Y-282298084D01*
X103975696Y-282298084D01*
X103888575Y-282280754D01*
X103801452Y-282263425D01*
X103685347Y-282215332D01*
X103637316Y-282195437D01*
X103489602Y-282096738D01*
X103489599Y-282096736D01*
X103363975Y-281971112D01*
X103326938Y-281915682D01*
X103265274Y-281823395D01*
X103227399Y-281731957D01*
X103197286Y-281659259D01*
X103174432Y-281544364D01*
X103162627Y-281485015D01*
X103162627Y-281307353D01*
X103189893Y-281170279D01*
X103197286Y-281133109D01*
X103248249Y-281010075D01*
X103265274Y-280968973D01*
X103363973Y-280821259D01*
X103363975Y-280821256D01*
X103489599Y-280695632D01*
X103490684Y-280694907D01*
X103637316Y-280596931D01*
X103692029Y-280574268D01*
X103801452Y-280528943D01*
X103888575Y-280511614D01*
X103975696Y-280494284D01*
X104153358Y-280494284D01*
X104240479Y-280511614D01*
X104240479Y-280511614D01*
G37*
G36*
X186246398Y-280488187D02*
G01*
X186333521Y-280505517D01*
X186390075Y-280528943D01*
X186497657Y-280573505D01*
X186644379Y-280671541D01*
X186645374Y-280672206D01*
X186770998Y-280797830D01*
X186771000Y-280797833D01*
X186869699Y-280945547D01*
X186892362Y-281000260D01*
X186937687Y-281109683D01*
X186948234Y-281162707D01*
X186972346Y-281283927D01*
X186972346Y-281461589D01*
X186963975Y-281503672D01*
X186937687Y-281635833D01*
X186892362Y-281745256D01*
X186869699Y-281799969D01*
X186803817Y-281898568D01*
X186770998Y-281947686D01*
X186645374Y-282073310D01*
X186645371Y-282073312D01*
X186497657Y-282172011D01*
X186442944Y-282194674D01*
X186333521Y-282239999D01*
X186246398Y-282257328D01*
X186159277Y-282274658D01*
X185981615Y-282274658D01*
X185894494Y-282257328D01*
X185807371Y-282239999D01*
X185697948Y-282194674D01*
X185643235Y-282172011D01*
X185495521Y-282073312D01*
X185495518Y-282073310D01*
X185369894Y-281947686D01*
X185337075Y-281898568D01*
X185271193Y-281799969D01*
X185248530Y-281745256D01*
X185203205Y-281635833D01*
X185176917Y-281503672D01*
X185168546Y-281461589D01*
X185168546Y-281283927D01*
X185192658Y-281162707D01*
X185203205Y-281109683D01*
X185248530Y-281000260D01*
X185271193Y-280945547D01*
X185369892Y-280797833D01*
X185369894Y-280797830D01*
X185495518Y-280672206D01*
X185496513Y-280671541D01*
X185643235Y-280573505D01*
X185750817Y-280528943D01*
X185807371Y-280505517D01*
X185894494Y-280488187D01*
X185981615Y-280470858D01*
X186159277Y-280470858D01*
X186246398Y-280488187D01*
X186246398Y-280488187D01*
G37*
G36*
X111602880Y-280444851D02*
G01*
X111669064Y-280451369D01*
X111838903Y-280502889D01*
X111995428Y-280586554D01*
X112008072Y-280596931D01*
X112132623Y-280699146D01*
X112213610Y-280797830D01*
X112245215Y-280836341D01*
X112328880Y-280992866D01*
X112380400Y-281162705D01*
X112397796Y-281339332D01*
X112380400Y-281515959D01*
X112328880Y-281685798D01*
X112245215Y-281842323D01*
X112218281Y-281875142D01*
X112132623Y-281979518D01*
X112031166Y-282062780D01*
X111995428Y-282092110D01*
X111838903Y-282175775D01*
X111669064Y-282227295D01*
X111602879Y-282233814D01*
X111536697Y-282240332D01*
X111448177Y-282240332D01*
X111381995Y-282233814D01*
X111315810Y-282227295D01*
X111145971Y-282175775D01*
X110989446Y-282092110D01*
X110953708Y-282062780D01*
X110852251Y-281979518D01*
X110766593Y-281875142D01*
X110739659Y-281842323D01*
X110655994Y-281685798D01*
X110604474Y-281515959D01*
X110587078Y-281339332D01*
X110604474Y-281162705D01*
X110655994Y-280992866D01*
X110739659Y-280836341D01*
X110771264Y-280797830D01*
X110852251Y-280699146D01*
X110976802Y-280596931D01*
X110989446Y-280586554D01*
X111145971Y-280502889D01*
X111315810Y-280451369D01*
X111381994Y-280444851D01*
X111448177Y-280438332D01*
X111536697Y-280438332D01*
X111602880Y-280444851D01*
X111602880Y-280444851D01*
G37*
G36*
X39218033Y-278636350D02*
G01*
X39482780Y-278746012D01*
X39539335Y-278769438D01*
X39828497Y-278962650D01*
X40074410Y-279208563D01*
X40259995Y-279486310D01*
X40267623Y-279497727D01*
X40400710Y-279819027D01*
X40468557Y-280160115D01*
X40468557Y-280507891D01*
X40400710Y-280848979D01*
X40270492Y-281163352D01*
X40267622Y-281170281D01*
X40074410Y-281459443D01*
X39828497Y-281705356D01*
X39539335Y-281898568D01*
X39539334Y-281898569D01*
X39539333Y-281898569D01*
X39218033Y-282031656D01*
X38876945Y-282099503D01*
X38529169Y-282099503D01*
X38188081Y-282031656D01*
X37866781Y-281898569D01*
X37866780Y-281898569D01*
X37866779Y-281898568D01*
X37577617Y-281705356D01*
X37331704Y-281459443D01*
X37138492Y-281170281D01*
X37135622Y-281163352D01*
X37005404Y-280848979D01*
X36937557Y-280507891D01*
X36937557Y-280160115D01*
X37005404Y-279819027D01*
X37138491Y-279497727D01*
X37146120Y-279486310D01*
X37331704Y-279208563D01*
X37577617Y-278962650D01*
X37866779Y-278769438D01*
X37923334Y-278746012D01*
X38188081Y-278636350D01*
X38529169Y-278568503D01*
X38876945Y-278568503D01*
X39218033Y-278636350D01*
X39218033Y-278636350D01*
G37*
G36*
X178511164Y-280303417D02*
G01*
X178577348Y-280309935D01*
X178747187Y-280361455D01*
X178903712Y-280445120D01*
X178935074Y-280470858D01*
X179040907Y-280557712D01*
X179124169Y-280659169D01*
X179153499Y-280694907D01*
X179155765Y-280699146D01*
X179221035Y-280821256D01*
X179237164Y-280851432D01*
X179288684Y-281021271D01*
X179306080Y-281197898D01*
X179288684Y-281374525D01*
X179237164Y-281544364D01*
X179153499Y-281700889D01*
X179128002Y-281731957D01*
X179040907Y-281838084D01*
X178946352Y-281915682D01*
X178903712Y-281950676D01*
X178747187Y-282034341D01*
X178577348Y-282085861D01*
X178513900Y-282092110D01*
X178444981Y-282098898D01*
X178356461Y-282098898D01*
X178287542Y-282092110D01*
X178224094Y-282085861D01*
X178054255Y-282034341D01*
X177897730Y-281950676D01*
X177855090Y-281915682D01*
X177760535Y-281838084D01*
X177673440Y-281731957D01*
X177647943Y-281700889D01*
X177564278Y-281544364D01*
X177512758Y-281374525D01*
X177495362Y-281197898D01*
X177512758Y-281021271D01*
X177564278Y-280851432D01*
X177580408Y-280821256D01*
X177645677Y-280699146D01*
X177647943Y-280694907D01*
X177677273Y-280659169D01*
X177760535Y-280557712D01*
X177866368Y-280470858D01*
X177897730Y-280445120D01*
X178054255Y-280361455D01*
X178224094Y-280309935D01*
X178290278Y-280303417D01*
X178356461Y-280296898D01*
X178444981Y-280296898D01*
X178511164Y-280303417D01*
X178511164Y-280303417D01*
G37*
G36*
X251946891Y-278612924D02*
G01*
X252251743Y-278739198D01*
X252268193Y-278746012D01*
X252557355Y-278939224D01*
X252803268Y-279185137D01*
X252990114Y-279464771D01*
X252996481Y-279474301D01*
X253129568Y-279795601D01*
X253197415Y-280136689D01*
X253197415Y-280484465D01*
X253129568Y-280825553D01*
X253002174Y-281133109D01*
X252996480Y-281146855D01*
X252803268Y-281436017D01*
X252557355Y-281681930D01*
X252268193Y-281875142D01*
X252268192Y-281875143D01*
X252268191Y-281875143D01*
X251946891Y-282008230D01*
X251605803Y-282076077D01*
X251258027Y-282076077D01*
X250916939Y-282008230D01*
X250595639Y-281875143D01*
X250595638Y-281875143D01*
X250595637Y-281875142D01*
X250306475Y-281681930D01*
X250060562Y-281436017D01*
X249867350Y-281146855D01*
X249861656Y-281133109D01*
X249734262Y-280825553D01*
X249666415Y-280484465D01*
X249666415Y-280136689D01*
X249734262Y-279795601D01*
X249867349Y-279474301D01*
X249873717Y-279464771D01*
X250060562Y-279185137D01*
X250306475Y-278939224D01*
X250595637Y-278746012D01*
X250612087Y-278739198D01*
X250916939Y-278612924D01*
X251258027Y-278545077D01*
X251605803Y-278545077D01*
X251946891Y-278612924D01*
X251946891Y-278612924D01*
G37*
G36*
X231735266Y-278715772D02*
G01*
X231903144Y-278749165D01*
X232185408Y-278866082D01*
X232439439Y-279035820D01*
X232655475Y-279251856D01*
X232825213Y-279505887D01*
X232942130Y-279788151D01*
X233001734Y-280087801D01*
X233001734Y-280393321D01*
X232942130Y-280692971D01*
X232825213Y-280975235D01*
X232655475Y-281229266D01*
X232439439Y-281445302D01*
X232185408Y-281615040D01*
X231903144Y-281731957D01*
X231753319Y-281761759D01*
X231603495Y-281791561D01*
X231297973Y-281791561D01*
X231148149Y-281761759D01*
X230998324Y-281731957D01*
X230716060Y-281615040D01*
X230462029Y-281445302D01*
X230245993Y-281229266D01*
X230076255Y-280975235D01*
X229959338Y-280692971D01*
X229899734Y-280393321D01*
X229899734Y-280087801D01*
X229959338Y-279788151D01*
X230076255Y-279505887D01*
X230245993Y-279251856D01*
X230462029Y-279035820D01*
X230716060Y-278866082D01*
X230998324Y-278749165D01*
X231166202Y-278715772D01*
X231297973Y-278689561D01*
X231603495Y-278689561D01*
X231735266Y-278715772D01*
X231735266Y-278715772D01*
G37*
G36*
X226213577Y-278536740D02*
G01*
X226443090Y-278582393D01*
X226725354Y-278699310D01*
X226979385Y-278869048D01*
X227195421Y-279085084D01*
X227365159Y-279339115D01*
X227482076Y-279621379D01*
X227541680Y-279921029D01*
X227541680Y-280226549D01*
X227482076Y-280526199D01*
X227365159Y-280808463D01*
X227195421Y-281062494D01*
X226979385Y-281278530D01*
X226725354Y-281448268D01*
X226443090Y-281565185D01*
X226293265Y-281594987D01*
X226143441Y-281624789D01*
X225837919Y-281624789D01*
X225688095Y-281594987D01*
X225538270Y-281565185D01*
X225256006Y-281448268D01*
X225001975Y-281278530D01*
X224785939Y-281062494D01*
X224616201Y-280808463D01*
X224499284Y-280526199D01*
X224439680Y-280226549D01*
X224439680Y-279921029D01*
X224499284Y-279621379D01*
X224616201Y-279339115D01*
X224785939Y-279085084D01*
X225001975Y-278869048D01*
X225256006Y-278699310D01*
X225538270Y-278582393D01*
X225767783Y-278536740D01*
X225837919Y-278522789D01*
X226143441Y-278522789D01*
X226213577Y-278536740D01*
X226213577Y-278536740D01*
G37*
G36*
X99479992Y-277638195D02*
G01*
X99744739Y-277747857D01*
X99801294Y-277771283D01*
X100090456Y-277964495D01*
X100336369Y-278210408D01*
X100513930Y-278476146D01*
X100529582Y-278499572D01*
X100662669Y-278820872D01*
X100730516Y-279161960D01*
X100730516Y-279509736D01*
X100662669Y-279850824D01*
X100534556Y-280160115D01*
X100529581Y-280172126D01*
X100336369Y-280461288D01*
X100090456Y-280707201D01*
X99801294Y-280900413D01*
X99801293Y-280900414D01*
X99801292Y-280900414D01*
X99479992Y-281033501D01*
X99138904Y-281101348D01*
X98791128Y-281101348D01*
X98450040Y-281033501D01*
X98128740Y-280900414D01*
X98128739Y-280900414D01*
X98128738Y-280900413D01*
X97839576Y-280707201D01*
X97593663Y-280461288D01*
X97400451Y-280172126D01*
X97395476Y-280160115D01*
X97267363Y-279850824D01*
X97199516Y-279509736D01*
X97199516Y-279161960D01*
X97267363Y-278820872D01*
X97400450Y-278499572D01*
X97416103Y-278476146D01*
X97593663Y-278210408D01*
X97839576Y-277964495D01*
X98128738Y-277771283D01*
X98185293Y-277747857D01*
X98450040Y-277638195D01*
X98791128Y-277570348D01*
X99138904Y-277570348D01*
X99479992Y-277638195D01*
X99479992Y-277638195D01*
G37*
G36*
X191684933Y-277614769D02*
G01*
X192006233Y-277747856D01*
X192006235Y-277747857D01*
X192295397Y-277941069D01*
X192541310Y-278186982D01*
X192728156Y-278466616D01*
X192734523Y-278476146D01*
X192867610Y-278797446D01*
X192935457Y-279138534D01*
X192935457Y-279486310D01*
X192867610Y-279827398D01*
X192794549Y-280003782D01*
X192734522Y-280148700D01*
X192541310Y-280437862D01*
X192295397Y-280683775D01*
X192006235Y-280876987D01*
X192006234Y-280876988D01*
X192006233Y-280876988D01*
X191684933Y-281010075D01*
X191343845Y-281077922D01*
X190996069Y-281077922D01*
X190654981Y-281010075D01*
X190333681Y-280876988D01*
X190333680Y-280876988D01*
X190333679Y-280876987D01*
X190044517Y-280683775D01*
X189798604Y-280437862D01*
X189605392Y-280148700D01*
X189545365Y-280003782D01*
X189472304Y-279827398D01*
X189404457Y-279486310D01*
X189404457Y-279138534D01*
X189472304Y-278797446D01*
X189605391Y-278476146D01*
X189611759Y-278466616D01*
X189798604Y-278186982D01*
X190044517Y-277941069D01*
X190333679Y-277747857D01*
X190333681Y-277747856D01*
X190654981Y-277614769D01*
X190996069Y-277546922D01*
X191343845Y-277546922D01*
X191684933Y-277614769D01*
X191684933Y-277614769D01*
G37*
G36*
X45046336Y-277208899D02*
G01*
X45196161Y-277238701D01*
X45478425Y-277355618D01*
X45732456Y-277525356D01*
X45948492Y-277741392D01*
X46118230Y-277995423D01*
X46235147Y-278277687D01*
X46252017Y-278362498D01*
X46282017Y-278513316D01*
X46294751Y-278577337D01*
X46294751Y-278882857D01*
X46235147Y-279182507D01*
X46118230Y-279464771D01*
X45948492Y-279718802D01*
X45732456Y-279934838D01*
X45478425Y-280104576D01*
X45196161Y-280221493D01*
X45046336Y-280251295D01*
X44896512Y-280281097D01*
X44590990Y-280281097D01*
X44441166Y-280251295D01*
X44291341Y-280221493D01*
X44009077Y-280104576D01*
X43755046Y-279934838D01*
X43539010Y-279718802D01*
X43369272Y-279464771D01*
X43252355Y-279182507D01*
X43192751Y-278882857D01*
X43192751Y-278577337D01*
X43205486Y-278513316D01*
X43235485Y-278362498D01*
X43252355Y-278277687D01*
X43369272Y-277995423D01*
X43539010Y-277741392D01*
X43755046Y-277525356D01*
X44009077Y-277355618D01*
X44291341Y-277238701D01*
X44441166Y-277208899D01*
X44590990Y-277179097D01*
X44896512Y-277179097D01*
X45046336Y-277208899D01*
X45046336Y-277208899D01*
G37*
G36*
X85214544Y-278217312D02*
G01*
X85301667Y-278234641D01*
X85411090Y-278279966D01*
X85465803Y-278302629D01*
X85578457Y-278377902D01*
X85613520Y-278401330D01*
X85739144Y-278526954D01*
X85739146Y-278526957D01*
X85837845Y-278674671D01*
X85854870Y-278715773D01*
X85905833Y-278838807D01*
X85905833Y-278838809D01*
X85935833Y-278989627D01*
X85940492Y-279013053D01*
X85940492Y-279190711D01*
X85905833Y-279364957D01*
X85864489Y-279464769D01*
X85837845Y-279529093D01*
X85776181Y-279621380D01*
X85739144Y-279676810D01*
X85613520Y-279802434D01*
X85613517Y-279802436D01*
X85465803Y-279901135D01*
X85411090Y-279923798D01*
X85301667Y-279969123D01*
X85214544Y-279986452D01*
X85127423Y-280003782D01*
X84949761Y-280003782D01*
X84862640Y-279986452D01*
X84775517Y-279969123D01*
X84666094Y-279923798D01*
X84611381Y-279901135D01*
X84463667Y-279802436D01*
X84463664Y-279802434D01*
X84338040Y-279676810D01*
X84301003Y-279621380D01*
X84239339Y-279529093D01*
X84212695Y-279464769D01*
X84171351Y-279364957D01*
X84136692Y-279190711D01*
X84136692Y-279013053D01*
X84141352Y-278989627D01*
X84171351Y-278838809D01*
X84171351Y-278838807D01*
X84222314Y-278715773D01*
X84239339Y-278674671D01*
X84338038Y-278526957D01*
X84338040Y-278526954D01*
X84463664Y-278401330D01*
X84498727Y-278377902D01*
X84611381Y-278302629D01*
X84666094Y-278279966D01*
X84775517Y-278234641D01*
X84862640Y-278217312D01*
X84949761Y-278199982D01*
X85127423Y-278199982D01*
X85214544Y-278217312D01*
X85214544Y-278217312D01*
G37*
G36*
X205272332Y-278193885D02*
G01*
X205359455Y-278211215D01*
X205416009Y-278234641D01*
X205523591Y-278279203D01*
X205648248Y-278362496D01*
X205671308Y-278377904D01*
X205796932Y-278503528D01*
X205796934Y-278503531D01*
X205895633Y-278651245D01*
X205895633Y-278651246D01*
X205963621Y-278815381D01*
X205977043Y-278882858D01*
X205998280Y-278989625D01*
X205998280Y-279167287D01*
X205987131Y-279223338D01*
X205963621Y-279341531D01*
X205953918Y-279364955D01*
X205895633Y-279505667D01*
X205879980Y-279529093D01*
X205796932Y-279653384D01*
X205671308Y-279779008D01*
X205671305Y-279779010D01*
X205523591Y-279877709D01*
X205468878Y-279900372D01*
X205359455Y-279945697D01*
X205272332Y-279963027D01*
X205185211Y-279980356D01*
X205007549Y-279980356D01*
X204920428Y-279963027D01*
X204833305Y-279945697D01*
X204723882Y-279900372D01*
X204669169Y-279877709D01*
X204521455Y-279779010D01*
X204521452Y-279779008D01*
X204395828Y-279653384D01*
X204312780Y-279529093D01*
X204297127Y-279505667D01*
X204238842Y-279364955D01*
X204229139Y-279341531D01*
X204205629Y-279223338D01*
X204194480Y-279167287D01*
X204194480Y-278989625D01*
X204215717Y-278882858D01*
X204229139Y-278815381D01*
X204297127Y-278651246D01*
X204297127Y-278651245D01*
X204395826Y-278503531D01*
X204395828Y-278503528D01*
X204521452Y-278377904D01*
X204544512Y-278362496D01*
X204669169Y-278279203D01*
X204776751Y-278234641D01*
X204833305Y-278211215D01*
X204920428Y-278193885D01*
X205007549Y-278176556D01*
X205185211Y-278176556D01*
X205272332Y-278193885D01*
X205272332Y-278193885D01*
G37*
G36*
X105300674Y-276209228D02*
G01*
X105458120Y-276240546D01*
X105740384Y-276357463D01*
X105994415Y-276527201D01*
X106210451Y-276743237D01*
X106380189Y-276997268D01*
X106497106Y-277279532D01*
X106513976Y-277364343D01*
X106550844Y-277549689D01*
X106556710Y-277579182D01*
X106556710Y-277884702D01*
X106497106Y-278184352D01*
X106380189Y-278466616D01*
X106210451Y-278720647D01*
X105994415Y-278936683D01*
X105740384Y-279106421D01*
X105458120Y-279223338D01*
X105314750Y-279251856D01*
X105158471Y-279282942D01*
X104852949Y-279282942D01*
X104696670Y-279251856D01*
X104553300Y-279223338D01*
X104271036Y-279106421D01*
X104017005Y-278936683D01*
X103800969Y-278720647D01*
X103631231Y-278466616D01*
X103514314Y-278184352D01*
X103454710Y-277884702D01*
X103454710Y-277579182D01*
X103460577Y-277549689D01*
X103497444Y-277364343D01*
X103514314Y-277279532D01*
X103631231Y-276997268D01*
X103800969Y-276743237D01*
X104017005Y-276527201D01*
X104271036Y-276357463D01*
X104553300Y-276240546D01*
X104710746Y-276209228D01*
X104852949Y-276180942D01*
X105158471Y-276180942D01*
X105300674Y-276209228D01*
X105300674Y-276209228D01*
G37*
G36*
X33779498Y-277389097D02*
G01*
X33866621Y-277406426D01*
X33976044Y-277451751D01*
X34030757Y-277474414D01*
X34126796Y-277538585D01*
X34178474Y-277573115D01*
X34304098Y-277698739D01*
X34304100Y-277698742D01*
X34402799Y-277846456D01*
X34415791Y-277877822D01*
X34470787Y-278010592D01*
X34488117Y-278097715D01*
X34505446Y-278184836D01*
X34505446Y-278362498D01*
X34488117Y-278449619D01*
X34470787Y-278536742D01*
X34439231Y-278612924D01*
X34402799Y-278700878D01*
X34322622Y-278820872D01*
X34304098Y-278848595D01*
X34178474Y-278974219D01*
X34178471Y-278974221D01*
X34030757Y-279072920D01*
X34001390Y-279085084D01*
X33866621Y-279140908D01*
X33779498Y-279158237D01*
X33692377Y-279175567D01*
X33514715Y-279175567D01*
X33427594Y-279158237D01*
X33340471Y-279140908D01*
X33205702Y-279085084D01*
X33176335Y-279072920D01*
X33028621Y-278974221D01*
X33028618Y-278974219D01*
X32902994Y-278848595D01*
X32884470Y-278820872D01*
X32804293Y-278700878D01*
X32767861Y-278612924D01*
X32736305Y-278536742D01*
X32718975Y-278449619D01*
X32701646Y-278362498D01*
X32701646Y-278184836D01*
X32718975Y-278097715D01*
X32736305Y-278010592D01*
X32791301Y-277877822D01*
X32804293Y-277846456D01*
X32902992Y-277698742D01*
X32902994Y-277698739D01*
X33028618Y-277573115D01*
X33080296Y-277538585D01*
X33176335Y-277474414D01*
X33231048Y-277451751D01*
X33340471Y-277406426D01*
X33427594Y-277389097D01*
X33514715Y-277371767D01*
X33692377Y-277371767D01*
X33779498Y-277389097D01*
X33779498Y-277389097D01*
G37*
G36*
X256674235Y-277359078D02*
G01*
X256794501Y-277383000D01*
X256851055Y-277406426D01*
X256958637Y-277450988D01*
X257054676Y-277515159D01*
X257106354Y-277549689D01*
X257231978Y-277675313D01*
X257231980Y-277675316D01*
X257330679Y-277823030D01*
X257343671Y-277854396D01*
X257398667Y-277987166D01*
X257415996Y-278074289D01*
X257433326Y-278161410D01*
X257433326Y-278339072D01*
X257420942Y-278401328D01*
X257398667Y-278513316D01*
X257360229Y-278606111D01*
X257330679Y-278677452D01*
X257250502Y-278797446D01*
X257231978Y-278825169D01*
X257106354Y-278950793D01*
X257106351Y-278950795D01*
X256958637Y-279049494D01*
X256903924Y-279072157D01*
X256794501Y-279117482D01*
X256707378Y-279134812D01*
X256620257Y-279152141D01*
X256442595Y-279152141D01*
X256355474Y-279134812D01*
X256268351Y-279117482D01*
X256158928Y-279072157D01*
X256104215Y-279049494D01*
X255956501Y-278950795D01*
X255956498Y-278950793D01*
X255830874Y-278825169D01*
X255812350Y-278797446D01*
X255732173Y-278677452D01*
X255702623Y-278606111D01*
X255664185Y-278513316D01*
X255641910Y-278401328D01*
X255629526Y-278339072D01*
X255629526Y-278161410D01*
X255646855Y-278074289D01*
X255664185Y-277987166D01*
X255719181Y-277854396D01*
X255732173Y-277823030D01*
X255830872Y-277675316D01*
X255830874Y-277675313D01*
X255956498Y-277549689D01*
X256008176Y-277515159D01*
X256104215Y-277450988D01*
X256211797Y-277406426D01*
X256268351Y-277383000D01*
X256388617Y-277359078D01*
X256442595Y-277348341D01*
X256620257Y-277348341D01*
X256674235Y-277359078D01*
X256674235Y-277359078D01*
G37*
G36*
X80454057Y-275343893D02*
G01*
X80718804Y-275453555D01*
X80775359Y-275476981D01*
X81064521Y-275670193D01*
X81310434Y-275916106D01*
X81494606Y-276191738D01*
X81503647Y-276205270D01*
X81636734Y-276526570D01*
X81704581Y-276867658D01*
X81704581Y-277215434D01*
X81636734Y-277556522D01*
X81503647Y-277877822D01*
X81503646Y-277877824D01*
X81310434Y-278166986D01*
X81064521Y-278412899D01*
X80775359Y-278606111D01*
X80775358Y-278606112D01*
X80775357Y-278606112D01*
X80454057Y-278739199D01*
X80112969Y-278807046D01*
X79765193Y-278807046D01*
X79424105Y-278739199D01*
X79102805Y-278606112D01*
X79102804Y-278606112D01*
X79102803Y-278606111D01*
X78813641Y-278412899D01*
X78567728Y-278166986D01*
X78374516Y-277877824D01*
X78374515Y-277877822D01*
X78241428Y-277556522D01*
X78173581Y-277215434D01*
X78173581Y-276867658D01*
X78241428Y-276526570D01*
X78374515Y-276205270D01*
X78383557Y-276191738D01*
X78567728Y-275916106D01*
X78813641Y-275670193D01*
X79102803Y-275476981D01*
X79159358Y-275453555D01*
X79424105Y-275343893D01*
X79765193Y-275276046D01*
X80112969Y-275276046D01*
X80454057Y-275343893D01*
X80454057Y-275343893D01*
G37*
G36*
X210710867Y-275320467D02*
G01*
X210923206Y-275408421D01*
X211032169Y-275453555D01*
X211321331Y-275646767D01*
X211567244Y-275892680D01*
X211759855Y-276180942D01*
X211760457Y-276181844D01*
X211893544Y-276503144D01*
X211961391Y-276844232D01*
X211961391Y-277192008D01*
X211893544Y-277533096D01*
X211760457Y-277854396D01*
X211760456Y-277854398D01*
X211567244Y-278143560D01*
X211321331Y-278389473D01*
X211032169Y-278582685D01*
X211032168Y-278582686D01*
X211032167Y-278582686D01*
X210710867Y-278715773D01*
X210369779Y-278783620D01*
X210022003Y-278783620D01*
X209680915Y-278715773D01*
X209359615Y-278582686D01*
X209359614Y-278582686D01*
X209359613Y-278582685D01*
X209070451Y-278389473D01*
X208824538Y-278143560D01*
X208631326Y-277854398D01*
X208631325Y-277854396D01*
X208498238Y-277533096D01*
X208430391Y-277192008D01*
X208430391Y-276844232D01*
X208498238Y-276503144D01*
X208631325Y-276181844D01*
X208631928Y-276180942D01*
X208824538Y-275892680D01*
X209070451Y-275646767D01*
X209359613Y-275453555D01*
X209468576Y-275408421D01*
X209680915Y-275320467D01*
X210022003Y-275252620D01*
X210369779Y-275252620D01*
X210710867Y-275320467D01*
X210710867Y-275320467D01*
G37*
G36*
X94041457Y-276390941D02*
G01*
X94128580Y-276408271D01*
X94238003Y-276453596D01*
X94292716Y-276476259D01*
X94394852Y-276544504D01*
X94440433Y-276574960D01*
X94566057Y-276700584D01*
X94566059Y-276700587D01*
X94664758Y-276848301D01*
X94684685Y-276896410D01*
X94732746Y-277012437D01*
X94732746Y-277012439D01*
X94767405Y-277186681D01*
X94767405Y-277364343D01*
X94763792Y-277382507D01*
X94732746Y-277538587D01*
X94701190Y-277614769D01*
X94664758Y-277702723D01*
X94584372Y-277823030D01*
X94566057Y-277850440D01*
X94440433Y-277976064D01*
X94440430Y-277976066D01*
X94292716Y-278074765D01*
X94238003Y-278097428D01*
X94128580Y-278142753D01*
X94041457Y-278160083D01*
X93954336Y-278177412D01*
X93776674Y-278177412D01*
X93689553Y-278160083D01*
X93602430Y-278142753D01*
X93493007Y-278097428D01*
X93438294Y-278074765D01*
X93290580Y-277976066D01*
X93290577Y-277976064D01*
X93164953Y-277850440D01*
X93146638Y-277823030D01*
X93066252Y-277702723D01*
X93029820Y-277614769D01*
X92998264Y-277538587D01*
X92967218Y-277382507D01*
X92963605Y-277364343D01*
X92963605Y-277186681D01*
X92998264Y-277012439D01*
X92998264Y-277012437D01*
X93046325Y-276896410D01*
X93066252Y-276848301D01*
X93164951Y-276700587D01*
X93164953Y-276700584D01*
X93290577Y-276574960D01*
X93336158Y-276544504D01*
X93438294Y-276476259D01*
X93493007Y-276453596D01*
X93602430Y-276408271D01*
X93689553Y-276390941D01*
X93776674Y-276373612D01*
X93954336Y-276373612D01*
X94041457Y-276390941D01*
X94041457Y-276390941D01*
G37*
G36*
X196445420Y-276367515D02*
G01*
X196532543Y-276384845D01*
X196620962Y-276421470D01*
X196696679Y-276452833D01*
X196807979Y-276527201D01*
X196844396Y-276551534D01*
X196970020Y-276677158D01*
X196970022Y-276677161D01*
X197068721Y-276824875D01*
X197088648Y-276872984D01*
X197136709Y-276989011D01*
X197141369Y-277012439D01*
X197171368Y-277163255D01*
X197171368Y-277340917D01*
X197163096Y-277382504D01*
X197136709Y-277515161D01*
X197098737Y-277606832D01*
X197068721Y-277679297D01*
X197007259Y-277771282D01*
X196970020Y-277827014D01*
X196844396Y-277952638D01*
X196844393Y-277952640D01*
X196696679Y-278051339D01*
X196641966Y-278074002D01*
X196532543Y-278119327D01*
X196445420Y-278136657D01*
X196358299Y-278153986D01*
X196180637Y-278153986D01*
X196093516Y-278136657D01*
X196006393Y-278119327D01*
X195896970Y-278074002D01*
X195842257Y-278051339D01*
X195694543Y-277952640D01*
X195694540Y-277952638D01*
X195568916Y-277827014D01*
X195531677Y-277771282D01*
X195470215Y-277679297D01*
X195440199Y-277606832D01*
X195402227Y-277515161D01*
X195375840Y-277382504D01*
X195367568Y-277340917D01*
X195367568Y-277163255D01*
X195397567Y-277012439D01*
X195402227Y-276989011D01*
X195450288Y-276872984D01*
X195470215Y-276824875D01*
X195568914Y-276677161D01*
X195568916Y-276677158D01*
X195694540Y-276551534D01*
X195730957Y-276527201D01*
X195842257Y-276452833D01*
X195917974Y-276421470D01*
X196006393Y-276384845D01*
X196093516Y-276367515D01*
X196180637Y-276350186D01*
X196358299Y-276350186D01*
X196445420Y-276367515D01*
X196445420Y-276367515D01*
G37*
G36*
X66188610Y-275923009D02*
G01*
X66275733Y-275940338D01*
X66385156Y-275985663D01*
X66439869Y-276008326D01*
X66552523Y-276083599D01*
X66587586Y-276107027D01*
X66713210Y-276232651D01*
X66713212Y-276232654D01*
X66811911Y-276380368D01*
X66828936Y-276421470D01*
X66879899Y-276544504D01*
X66885957Y-276574960D01*
X66910946Y-276700587D01*
X66914558Y-276718750D01*
X66914558Y-276896408D01*
X66879899Y-277070654D01*
X66841542Y-277163255D01*
X66811911Y-277234790D01*
X66728865Y-277359078D01*
X66713210Y-277382507D01*
X66587586Y-277508131D01*
X66587583Y-277508133D01*
X66439869Y-277606832D01*
X66385156Y-277629495D01*
X66275733Y-277674820D01*
X66188610Y-277692150D01*
X66101489Y-277709479D01*
X65923827Y-277709479D01*
X65836706Y-277692150D01*
X65749583Y-277674820D01*
X65640160Y-277629495D01*
X65585447Y-277606832D01*
X65437733Y-277508133D01*
X65437730Y-277508131D01*
X65312106Y-277382507D01*
X65296451Y-277359078D01*
X65213405Y-277234790D01*
X65183774Y-277163255D01*
X65145417Y-277070654D01*
X65110758Y-276896408D01*
X65110758Y-276718750D01*
X65114371Y-276700587D01*
X65139359Y-276574960D01*
X65145417Y-276544504D01*
X65196380Y-276421470D01*
X65213405Y-276380368D01*
X65312104Y-276232654D01*
X65312106Y-276232651D01*
X65437730Y-276107027D01*
X65472793Y-276083599D01*
X65585447Y-276008326D01*
X65640160Y-275985663D01*
X65749583Y-275940338D01*
X65836706Y-275923009D01*
X65923827Y-275905679D01*
X66101489Y-275905679D01*
X66188610Y-275923009D01*
X66188610Y-275923009D01*
G37*
G36*
X224298266Y-275899582D02*
G01*
X224385389Y-275916912D01*
X224441943Y-275940338D01*
X224549525Y-275984900D01*
X224605049Y-276022000D01*
X224697242Y-276083601D01*
X224822866Y-276209225D01*
X224822868Y-276209228D01*
X224921567Y-276356942D01*
X224928472Y-276373612D01*
X224989555Y-276521078D01*
X225006885Y-276608201D01*
X225024214Y-276695322D01*
X225024214Y-276872984D01*
X225006884Y-276960105D01*
X224989555Y-277047228D01*
X224979852Y-277070652D01*
X224921567Y-277211364D01*
X224876018Y-277279533D01*
X224822866Y-277359081D01*
X224697242Y-277484705D01*
X224697239Y-277484707D01*
X224549525Y-277583406D01*
X224494812Y-277606069D01*
X224385389Y-277651394D01*
X224298266Y-277668723D01*
X224211145Y-277686053D01*
X224033483Y-277686053D01*
X223946362Y-277668723D01*
X223859239Y-277651394D01*
X223749816Y-277606069D01*
X223695103Y-277583406D01*
X223547389Y-277484707D01*
X223547386Y-277484705D01*
X223421762Y-277359081D01*
X223368610Y-277279533D01*
X223323061Y-277211364D01*
X223264776Y-277070652D01*
X223255073Y-277047228D01*
X223237744Y-276960105D01*
X223220414Y-276872984D01*
X223220414Y-276695322D01*
X223237744Y-276608201D01*
X223255073Y-276521078D01*
X223316156Y-276373612D01*
X223323061Y-276356942D01*
X223421760Y-276209228D01*
X223421762Y-276209225D01*
X223547386Y-276083601D01*
X223639579Y-276022000D01*
X223695103Y-275984900D01*
X223802685Y-275940338D01*
X223859239Y-275916912D01*
X223946362Y-275899582D01*
X224033483Y-275882253D01*
X224211145Y-275882253D01*
X224298266Y-275899582D01*
X224298266Y-275899582D01*
G37*
G36*
X86254825Y-273910965D02*
G01*
X86432185Y-273946244D01*
X86714449Y-274063161D01*
X86968480Y-274232899D01*
X87184516Y-274448935D01*
X87354254Y-274702966D01*
X87471171Y-274985230D01*
X87488041Y-275070041D01*
X87527750Y-275269669D01*
X87530775Y-275284880D01*
X87530775Y-275590400D01*
X87471171Y-275890050D01*
X87354254Y-276172314D01*
X87184516Y-276426345D01*
X86968480Y-276642381D01*
X86714449Y-276812119D01*
X86432185Y-276929036D01*
X86282360Y-276958838D01*
X86132536Y-276988640D01*
X85827014Y-276988640D01*
X85677190Y-276958838D01*
X85527365Y-276929036D01*
X85245101Y-276812119D01*
X84991070Y-276642381D01*
X84775034Y-276426345D01*
X84605296Y-276172314D01*
X84488379Y-275890050D01*
X84428775Y-275590400D01*
X84428775Y-275284880D01*
X84431801Y-275269669D01*
X84471509Y-275070041D01*
X84488379Y-274985230D01*
X84605296Y-274702966D01*
X84775034Y-274448935D01*
X84991070Y-274232899D01*
X85245101Y-274063161D01*
X85527365Y-273946244D01*
X85704725Y-273910965D01*
X85827014Y-273886640D01*
X86132536Y-273886640D01*
X86254825Y-273910965D01*
X86254825Y-273910965D01*
G37*
G36*
X61428123Y-273049590D02*
G01*
X61692870Y-273159252D01*
X61749425Y-273182678D01*
X62038587Y-273375890D01*
X62284500Y-273621803D01*
X62462061Y-273887541D01*
X62477713Y-273910967D01*
X62610800Y-274232267D01*
X62678647Y-274573355D01*
X62678647Y-274921131D01*
X62610800Y-275262219D01*
X62477713Y-275583519D01*
X62477712Y-275583521D01*
X62284500Y-275872683D01*
X62038587Y-276118596D01*
X61749425Y-276311808D01*
X61749424Y-276311809D01*
X61749423Y-276311809D01*
X61428123Y-276444896D01*
X61087035Y-276512743D01*
X60739259Y-276512743D01*
X60398171Y-276444896D01*
X60076871Y-276311809D01*
X60076870Y-276311809D01*
X60076869Y-276311808D01*
X59787707Y-276118596D01*
X59541794Y-275872683D01*
X59348582Y-275583521D01*
X59348581Y-275583519D01*
X59215494Y-275262219D01*
X59147647Y-274921131D01*
X59147647Y-274573355D01*
X59215494Y-274232267D01*
X59348581Y-273910967D01*
X59364234Y-273887541D01*
X59541794Y-273621803D01*
X59787707Y-273375890D01*
X60076869Y-273182678D01*
X60133424Y-273159252D01*
X60398171Y-273049590D01*
X60739259Y-272981743D01*
X61087035Y-272981743D01*
X61428123Y-273049590D01*
X61428123Y-273049590D01*
G37*
G36*
X229736801Y-273026164D02*
G01*
X229949140Y-273114118D01*
X230058103Y-273159252D01*
X230347265Y-273352464D01*
X230593178Y-273598377D01*
X230780024Y-273878011D01*
X230786391Y-273887541D01*
X230919478Y-274208841D01*
X230987325Y-274549929D01*
X230987325Y-274897705D01*
X230919478Y-275238793D01*
X230789772Y-275551931D01*
X230786390Y-275560095D01*
X230593178Y-275849257D01*
X230347265Y-276095170D01*
X230058103Y-276288382D01*
X230058102Y-276288383D01*
X230058101Y-276288383D01*
X229736801Y-276421470D01*
X229395713Y-276489317D01*
X229047937Y-276489317D01*
X228706849Y-276421470D01*
X228385549Y-276288383D01*
X228385548Y-276288383D01*
X228385547Y-276288382D01*
X228096385Y-276095170D01*
X227850472Y-275849257D01*
X227657260Y-275560095D01*
X227653878Y-275551931D01*
X227524172Y-275238793D01*
X227456325Y-274897705D01*
X227456325Y-274549929D01*
X227524172Y-274208841D01*
X227657259Y-273887541D01*
X227663627Y-273878011D01*
X227850472Y-273598377D01*
X228096385Y-273352464D01*
X228385547Y-273159252D01*
X228494510Y-273114118D01*
X228706849Y-273026164D01*
X229047937Y-272958317D01*
X229395713Y-272958317D01*
X229736801Y-273026164D01*
X229736801Y-273026164D01*
G37*
G36*
X41234551Y-273296061D02*
G01*
X41384376Y-273325863D01*
X41666640Y-273442780D01*
X41920671Y-273612518D01*
X42136707Y-273828554D01*
X42306445Y-274082585D01*
X42423362Y-274364849D01*
X42431604Y-274406285D01*
X42482966Y-274664498D01*
X42482966Y-274970020D01*
X42479940Y-274985231D01*
X42423362Y-275269669D01*
X42306445Y-275551933D01*
X42136707Y-275805964D01*
X41920671Y-276022000D01*
X41666640Y-276191738D01*
X41384376Y-276308655D01*
X41234551Y-276338457D01*
X41084727Y-276368259D01*
X40779205Y-276368259D01*
X40629381Y-276338457D01*
X40479556Y-276308655D01*
X40197292Y-276191738D01*
X39943261Y-276022000D01*
X39727225Y-275805964D01*
X39557487Y-275551933D01*
X39440570Y-275269669D01*
X39383992Y-274985231D01*
X39380966Y-274970020D01*
X39380966Y-274664498D01*
X39432328Y-274406285D01*
X39440570Y-274364849D01*
X39557487Y-274082585D01*
X39727225Y-273828554D01*
X39943261Y-273612518D01*
X40197292Y-273442780D01*
X40479556Y-273325863D01*
X40629381Y-273296061D01*
X40779205Y-273266259D01*
X41084727Y-273266259D01*
X41234551Y-273296061D01*
X41234551Y-273296061D01*
G37*
G36*
X75015522Y-274096639D02*
G01*
X75102645Y-274113969D01*
X75212068Y-274159294D01*
X75266781Y-274181957D01*
X75379435Y-274257230D01*
X75414498Y-274280658D01*
X75540122Y-274406282D01*
X75540124Y-274406285D01*
X75638823Y-274553999D01*
X75638823Y-274554000D01*
X75706811Y-274718135D01*
X75706811Y-274718137D01*
X75736811Y-274868955D01*
X75741470Y-274892381D01*
X75741470Y-275070039D01*
X75706811Y-275244285D01*
X75679383Y-275310500D01*
X75638823Y-275408421D01*
X75555777Y-275532709D01*
X75540122Y-275556138D01*
X75414498Y-275681762D01*
X75414495Y-275681764D01*
X75266781Y-275780463D01*
X75212068Y-275803126D01*
X75102645Y-275848451D01*
X75015522Y-275865780D01*
X74928401Y-275883110D01*
X74750739Y-275883110D01*
X74663618Y-275865780D01*
X74576495Y-275848451D01*
X74467072Y-275803126D01*
X74412359Y-275780463D01*
X74264645Y-275681764D01*
X74264642Y-275681762D01*
X74139018Y-275556138D01*
X74123363Y-275532709D01*
X74040317Y-275408421D01*
X73999757Y-275310500D01*
X73972329Y-275244285D01*
X73937670Y-275070039D01*
X73937670Y-274892381D01*
X73942330Y-274868955D01*
X73972329Y-274718137D01*
X73972329Y-274718135D01*
X74040317Y-274554000D01*
X74040317Y-274553999D01*
X74139016Y-274406285D01*
X74139018Y-274406282D01*
X74264642Y-274280658D01*
X74299705Y-274257230D01*
X74412359Y-274181957D01*
X74467072Y-274159294D01*
X74576495Y-274113969D01*
X74663618Y-274096639D01*
X74750739Y-274079310D01*
X74928401Y-274079310D01*
X75015522Y-274096639D01*
X75015522Y-274096639D01*
G37*
G36*
X215471354Y-274073213D02*
G01*
X215558477Y-274090543D01*
X215615031Y-274113969D01*
X215722613Y-274158531D01*
X215832967Y-274232267D01*
X215870330Y-274257232D01*
X215995954Y-274382856D01*
X215995956Y-274382859D01*
X216094655Y-274530573D01*
X216094655Y-274530574D01*
X216162643Y-274694709D01*
X216167303Y-274718137D01*
X216197302Y-274868953D01*
X216197302Y-275046615D01*
X216192642Y-275070041D01*
X216162643Y-275220859D01*
X216136124Y-275284880D01*
X216094655Y-275384995D01*
X216033193Y-275476980D01*
X215995954Y-275532712D01*
X215870330Y-275658336D01*
X215870327Y-275658338D01*
X215722613Y-275757037D01*
X215667900Y-275779700D01*
X215558477Y-275825025D01*
X215471354Y-275842355D01*
X215384233Y-275859684D01*
X215206571Y-275859684D01*
X215119450Y-275842355D01*
X215032327Y-275825025D01*
X214922904Y-275779700D01*
X214868191Y-275757037D01*
X214720477Y-275658338D01*
X214720474Y-275658336D01*
X214594850Y-275532712D01*
X214557611Y-275476980D01*
X214496149Y-275384995D01*
X214454680Y-275284880D01*
X214428161Y-275220859D01*
X214398162Y-275070041D01*
X214393502Y-275046615D01*
X214393502Y-274868953D01*
X214423501Y-274718137D01*
X214428161Y-274694709D01*
X214496149Y-274530574D01*
X214496149Y-274530573D01*
X214594848Y-274382859D01*
X214594850Y-274382856D01*
X214720474Y-274257232D01*
X214757837Y-274232267D01*
X214868191Y-274158531D01*
X214975773Y-274113969D01*
X215032327Y-274090543D01*
X215119450Y-274073213D01*
X215206571Y-274055884D01*
X215384233Y-274055884D01*
X215471354Y-274073213D01*
X215471354Y-274073213D01*
G37*
G36*
X101496510Y-272297906D02*
G01*
X101646335Y-272327708D01*
X101928599Y-272444625D01*
X102182630Y-272614363D01*
X102398666Y-272830399D01*
X102568404Y-273084430D01*
X102685321Y-273366694D01*
X102709084Y-273486160D01*
X102730883Y-273595747D01*
X102744925Y-273666344D01*
X102744925Y-273971864D01*
X102685321Y-274271514D01*
X102568404Y-274553778D01*
X102398666Y-274807809D01*
X102182630Y-275023845D01*
X101928599Y-275193583D01*
X101646335Y-275310500D01*
X101596227Y-275320467D01*
X101346686Y-275370104D01*
X101041164Y-275370104D01*
X100791623Y-275320467D01*
X100741515Y-275310500D01*
X100459251Y-275193583D01*
X100205220Y-275023845D01*
X99989184Y-274807809D01*
X99819446Y-274553778D01*
X99702529Y-274271514D01*
X99642925Y-273971864D01*
X99642925Y-273666344D01*
X99656968Y-273595747D01*
X99678766Y-273486160D01*
X99702529Y-273366694D01*
X99819446Y-273084430D01*
X99989184Y-272830399D01*
X100205220Y-272614363D01*
X100459251Y-272444625D01*
X100741515Y-272327708D01*
X100891340Y-272297906D01*
X101041164Y-272268104D01*
X101346686Y-272268104D01*
X101496510Y-272297906D01*
X101496510Y-272297906D01*
G37*
G36*
X67256426Y-271622139D02*
G01*
X67406251Y-271651941D01*
X67688515Y-271768858D01*
X67942546Y-271938596D01*
X68158582Y-272154632D01*
X68328320Y-272408663D01*
X68445237Y-272690927D01*
X68462107Y-272775738D01*
X68504841Y-272990576D01*
X68504841Y-273296098D01*
X68490798Y-273366695D01*
X68445237Y-273595747D01*
X68328320Y-273878011D01*
X68158582Y-274132042D01*
X67942546Y-274348078D01*
X67688515Y-274517816D01*
X67406251Y-274634733D01*
X67256612Y-274664498D01*
X67106602Y-274694337D01*
X66801080Y-274694337D01*
X66651070Y-274664498D01*
X66501431Y-274634733D01*
X66219167Y-274517816D01*
X65965136Y-274348078D01*
X65749100Y-274132042D01*
X65579362Y-273878011D01*
X65462445Y-273595747D01*
X65416884Y-273366695D01*
X65402841Y-273296098D01*
X65402841Y-272990576D01*
X65445575Y-272775738D01*
X65462445Y-272690927D01*
X65579362Y-272408663D01*
X65749100Y-272154632D01*
X65965136Y-271938596D01*
X66219167Y-271768858D01*
X66501431Y-271651941D01*
X66651256Y-271622139D01*
X66801080Y-271592337D01*
X67106602Y-271592337D01*
X67256426Y-271622139D01*
X67256426Y-271622139D01*
G37*
G36*
X55989588Y-271802336D02*
G01*
X56076711Y-271819666D01*
X56186134Y-271864991D01*
X56240847Y-271887654D01*
X56353501Y-271962927D01*
X56388564Y-271986355D01*
X56514188Y-272111979D01*
X56514190Y-272111982D01*
X56612889Y-272259696D01*
X56635552Y-272314409D01*
X56680877Y-272423832D01*
X56680877Y-272423834D01*
X56710877Y-272574652D01*
X56715536Y-272598078D01*
X56715536Y-272775736D01*
X56680877Y-272949982D01*
X56653449Y-273016198D01*
X56612889Y-273114118D01*
X56529843Y-273238406D01*
X56514188Y-273261835D01*
X56388564Y-273387459D01*
X56388561Y-273387461D01*
X56240847Y-273486160D01*
X56186134Y-273508823D01*
X56076711Y-273554148D01*
X55989588Y-273571478D01*
X55902467Y-273588807D01*
X55724805Y-273588807D01*
X55637684Y-273571478D01*
X55550561Y-273554148D01*
X55441138Y-273508823D01*
X55386425Y-273486160D01*
X55238711Y-273387461D01*
X55238708Y-273387459D01*
X55113084Y-273261835D01*
X55097429Y-273238406D01*
X55014383Y-273114118D01*
X54973823Y-273016198D01*
X54946395Y-272949982D01*
X54911736Y-272775736D01*
X54911736Y-272598078D01*
X54916396Y-272574652D01*
X54946395Y-272423834D01*
X54946395Y-272423832D01*
X54991720Y-272314409D01*
X55014383Y-272259696D01*
X55113082Y-272111982D01*
X55113084Y-272111979D01*
X55238708Y-271986355D01*
X55273771Y-271962927D01*
X55386425Y-271887654D01*
X55441138Y-271864991D01*
X55550561Y-271819666D01*
X55637684Y-271802336D01*
X55724805Y-271785007D01*
X55902467Y-271785007D01*
X55989588Y-271802336D01*
X55989588Y-271802336D01*
G37*
G36*
X234497288Y-271778911D02*
G01*
X234584411Y-271796240D01*
X234640965Y-271819666D01*
X234748547Y-271864228D01*
X234859847Y-271938596D01*
X234896264Y-271962929D01*
X235021888Y-272088553D01*
X235021890Y-272088556D01*
X235120589Y-272236270D01*
X235120589Y-272236271D01*
X235188577Y-272400406D01*
X235205907Y-272487529D01*
X235223236Y-272574650D01*
X235223236Y-272752312D01*
X235218576Y-272775738D01*
X235188577Y-272926556D01*
X235162058Y-272990577D01*
X235120589Y-273090692D01*
X235059127Y-273182677D01*
X235021888Y-273238409D01*
X234896264Y-273364033D01*
X234896261Y-273364035D01*
X234748547Y-273462734D01*
X234693834Y-273485397D01*
X234584411Y-273530722D01*
X234497288Y-273548052D01*
X234410167Y-273565381D01*
X234232505Y-273565381D01*
X234145384Y-273548052D01*
X234058261Y-273530722D01*
X233948838Y-273485397D01*
X233894125Y-273462734D01*
X233746411Y-273364035D01*
X233746408Y-273364033D01*
X233620784Y-273238409D01*
X233583545Y-273182677D01*
X233522083Y-273090692D01*
X233480614Y-272990577D01*
X233454095Y-272926556D01*
X233424096Y-272775738D01*
X233419436Y-272752312D01*
X233419436Y-272574650D01*
X233436766Y-272487529D01*
X233454095Y-272400406D01*
X233522083Y-272236271D01*
X233522083Y-272236270D01*
X233620782Y-272088556D01*
X233620784Y-272088553D01*
X233746408Y-271962929D01*
X233782825Y-271938596D01*
X233894125Y-271864228D01*
X234001707Y-271819666D01*
X234058261Y-271796240D01*
X234145384Y-271778911D01*
X234232505Y-271761581D01*
X234410167Y-271761581D01*
X234497288Y-271778911D01*
X234497288Y-271778911D01*
G37*
G36*
X82470575Y-270003604D02*
G01*
X82620400Y-270033406D01*
X82902664Y-270150323D01*
X83156695Y-270320061D01*
X83372731Y-270536097D01*
X83542469Y-270790128D01*
X83659386Y-271072392D01*
X83718990Y-271372042D01*
X83718990Y-271677562D01*
X83659386Y-271977212D01*
X83542469Y-272259476D01*
X83372731Y-272513507D01*
X83156695Y-272729543D01*
X82902664Y-272899281D01*
X82620400Y-273016198D01*
X82570297Y-273026164D01*
X82320751Y-273075802D01*
X82015229Y-273075802D01*
X81765683Y-273026164D01*
X81715580Y-273016198D01*
X81433316Y-272899281D01*
X81179285Y-272729543D01*
X80963249Y-272513507D01*
X80793511Y-272259476D01*
X80676594Y-271977212D01*
X80616990Y-271677562D01*
X80616990Y-271372042D01*
X80676594Y-271072392D01*
X80793511Y-270790128D01*
X80963249Y-270536097D01*
X81179285Y-270320061D01*
X81433316Y-270150323D01*
X81715580Y-270033406D01*
X81865405Y-270003604D01*
X82015229Y-269973802D01*
X82320751Y-269973802D01*
X82470575Y-270003604D01*
X82470575Y-270003604D01*
G37*
G36*
X247306981Y-268060352D02*
G01*
X247557619Y-268110207D01*
X247839883Y-268227124D01*
X248093914Y-268396862D01*
X248309950Y-268612898D01*
X248479688Y-268866929D01*
X248596605Y-269149193D01*
X248656209Y-269448843D01*
X248656209Y-269754363D01*
X248596605Y-270054013D01*
X248479688Y-270336277D01*
X248309950Y-270590308D01*
X248093914Y-270806344D01*
X247839883Y-270976082D01*
X247557619Y-271092999D01*
X247407794Y-271122801D01*
X247257970Y-271152603D01*
X246952448Y-271152603D01*
X246802624Y-271122801D01*
X246652799Y-271092999D01*
X246370535Y-270976082D01*
X246116504Y-270806344D01*
X245900468Y-270590308D01*
X245730730Y-270336277D01*
X245613813Y-270054013D01*
X245554209Y-269754363D01*
X245554209Y-269448843D01*
X245613813Y-269149193D01*
X245730730Y-268866929D01*
X245900468Y-268612898D01*
X246116504Y-268396862D01*
X246370535Y-268227124D01*
X246652799Y-268110207D01*
X246903437Y-268060352D01*
X246952448Y-268050603D01*
X247257970Y-268050603D01*
X247306981Y-268060352D01*
X247306981Y-268060352D01*
G37*
G36*
X241947740Y-267913633D02*
G01*
X242097565Y-267943435D01*
X242379829Y-268060352D01*
X242633860Y-268230090D01*
X242849896Y-268446126D01*
X243019634Y-268700157D01*
X243136551Y-268982421D01*
X243196155Y-269282071D01*
X243196155Y-269587591D01*
X243136551Y-269887241D01*
X243019634Y-270169505D01*
X242849896Y-270423536D01*
X242633860Y-270639572D01*
X242379829Y-270809310D01*
X242097565Y-270926227D01*
X241947740Y-270956029D01*
X241797916Y-270985831D01*
X241492394Y-270985831D01*
X241342570Y-270956029D01*
X241192745Y-270926227D01*
X240910481Y-270809310D01*
X240656450Y-270639572D01*
X240440414Y-270423536D01*
X240270676Y-270169505D01*
X240153759Y-269887241D01*
X240094155Y-269587591D01*
X240094155Y-269282071D01*
X240153759Y-268982421D01*
X240270676Y-268700157D01*
X240440414Y-268446126D01*
X240656450Y-268230090D01*
X240910481Y-268060352D01*
X241192745Y-267943435D01*
X241342570Y-267913633D01*
X241492394Y-267883831D01*
X241797916Y-267883831D01*
X241947740Y-267913633D01*
X241947740Y-267913633D01*
G37*
G36*
X63444641Y-267709301D02*
G01*
X63594466Y-267739103D01*
X63876730Y-267856020D01*
X64130761Y-268025758D01*
X64346797Y-268241794D01*
X64516535Y-268495825D01*
X64633452Y-268778089D01*
X64693056Y-269077739D01*
X64693056Y-269383259D01*
X64633452Y-269682909D01*
X64516535Y-269965173D01*
X64346797Y-270219204D01*
X64130761Y-270435240D01*
X63876730Y-270604978D01*
X63594466Y-270721895D01*
X63444641Y-270751697D01*
X63294817Y-270781499D01*
X62989295Y-270781499D01*
X62839471Y-270751697D01*
X62689646Y-270721895D01*
X62407382Y-270604978D01*
X62153351Y-270435240D01*
X61937315Y-270219204D01*
X61767577Y-269965173D01*
X61650660Y-269682909D01*
X61591056Y-269383259D01*
X61591056Y-269077739D01*
X61650660Y-268778089D01*
X61767577Y-268495825D01*
X61937315Y-268241794D01*
X62153351Y-268025758D01*
X62407382Y-267856020D01*
X62689646Y-267739103D01*
X62839471Y-267709301D01*
X62989295Y-267679499D01*
X63294817Y-267679499D01*
X63444641Y-267709301D01*
X63444641Y-267709301D01*
G37*
G36*
X50534135Y-265284052D02*
G01*
X50621258Y-265301381D01*
X50728836Y-265345942D01*
X50785394Y-265369369D01*
X50898047Y-265444641D01*
X50933111Y-265468070D01*
X51058735Y-265593694D01*
X51058737Y-265593697D01*
X51157436Y-265741411D01*
X51180099Y-265796124D01*
X51225424Y-265905547D01*
X51260083Y-266079793D01*
X51260083Y-266257451D01*
X51225424Y-266431697D01*
X51180099Y-266541120D01*
X51157436Y-266595833D01*
X51074390Y-266720120D01*
X51058735Y-266743550D01*
X50933111Y-266869174D01*
X50933108Y-266869176D01*
X50785394Y-266967875D01*
X50730681Y-266990538D01*
X50621258Y-267035863D01*
X50534135Y-267053192D01*
X50447014Y-267070522D01*
X50269352Y-267070522D01*
X50182231Y-267053192D01*
X50095108Y-267035863D01*
X49985685Y-266990538D01*
X49930972Y-266967875D01*
X49783258Y-266869176D01*
X49783255Y-266869174D01*
X49657631Y-266743550D01*
X49641976Y-266720120D01*
X49558930Y-266595833D01*
X49536267Y-266541120D01*
X49490942Y-266431697D01*
X49456283Y-266257451D01*
X49456283Y-266079793D01*
X49490942Y-265905547D01*
X49536267Y-265796124D01*
X49558930Y-265741411D01*
X49657629Y-265593697D01*
X49657631Y-265593694D01*
X49783255Y-265468070D01*
X49818319Y-265444641D01*
X49930972Y-265369369D01*
X49987530Y-265345942D01*
X50095108Y-265301381D01*
X50182231Y-265284052D01*
X50269352Y-265266722D01*
X50447014Y-265266722D01*
X50534135Y-265284052D01*
X50534135Y-265284052D01*
G37*
G36*
X239952741Y-265260624D02*
G01*
X240039864Y-265277954D01*
X240149287Y-265323279D01*
X240204000Y-265345942D01*
X240350722Y-265443978D01*
X240351717Y-265444643D01*
X240477341Y-265570267D01*
X240477343Y-265570270D01*
X240576042Y-265717984D01*
X240576042Y-265717985D01*
X240644030Y-265882120D01*
X240678689Y-266056366D01*
X240678689Y-266234024D01*
X240644030Y-266408270D01*
X240598705Y-266517693D01*
X240576042Y-266572406D01*
X240478006Y-266719128D01*
X240477341Y-266720123D01*
X240351717Y-266845747D01*
X240351714Y-266845749D01*
X240204000Y-266944448D01*
X240149287Y-266967111D01*
X240039864Y-267012436D01*
X239952741Y-267029766D01*
X239865620Y-267047095D01*
X239687958Y-267047095D01*
X239600837Y-267029766D01*
X239513714Y-267012436D01*
X239404291Y-266967111D01*
X239349578Y-266944448D01*
X239201864Y-266845749D01*
X239201861Y-266845747D01*
X239076237Y-266720123D01*
X239075572Y-266719128D01*
X238977536Y-266572406D01*
X238954873Y-266517693D01*
X238909548Y-266408270D01*
X238874889Y-266234024D01*
X238874889Y-266056366D01*
X238909548Y-265882120D01*
X238977536Y-265717985D01*
X238977536Y-265717984D01*
X239076235Y-265570270D01*
X239076237Y-265570267D01*
X239201861Y-265444643D01*
X239202856Y-265443978D01*
X239349578Y-265345942D01*
X239404291Y-265323279D01*
X239513714Y-265277954D01*
X239600837Y-265260624D01*
X239687958Y-265243295D01*
X239865620Y-265243295D01*
X239952741Y-265260624D01*
X239952741Y-265260624D01*
G37*
G36*
X45773648Y-262410633D02*
G01*
X46094948Y-262543720D01*
X46094950Y-262543721D01*
X46384112Y-262736933D01*
X46630025Y-262982846D01*
X46807584Y-263248581D01*
X46823238Y-263272010D01*
X46956325Y-263593310D01*
X47024172Y-263934398D01*
X47024172Y-264282174D01*
X46956325Y-264623262D01*
X46832942Y-264921135D01*
X46823237Y-264944564D01*
X46630025Y-265233726D01*
X46384112Y-265479639D01*
X46094950Y-265672851D01*
X46094949Y-265672852D01*
X46094948Y-265672852D01*
X45773648Y-265805939D01*
X45432560Y-265873786D01*
X45084784Y-265873786D01*
X44743696Y-265805939D01*
X44422396Y-265672852D01*
X44422395Y-265672852D01*
X44422394Y-265672851D01*
X44133232Y-265479639D01*
X43887319Y-265233726D01*
X43694107Y-264944564D01*
X43684402Y-264921135D01*
X43561019Y-264623262D01*
X43493172Y-264282174D01*
X43493172Y-263934398D01*
X43561019Y-263593310D01*
X43694106Y-263272010D01*
X43709761Y-263248581D01*
X43887319Y-262982846D01*
X44133232Y-262736933D01*
X44422394Y-262543721D01*
X44422396Y-262543720D01*
X44743696Y-262410633D01*
X45084784Y-262342786D01*
X45432560Y-262342786D01*
X45773648Y-262410633D01*
X45773648Y-262410633D01*
G37*
G36*
X245391276Y-262387206D02*
G01*
X245712576Y-262520293D01*
X245712578Y-262520294D01*
X245917382Y-262657140D01*
X246001740Y-262713506D01*
X246247653Y-262959419D01*
X246440866Y-263248583D01*
X246573953Y-263569883D01*
X246641800Y-263910971D01*
X246641800Y-264258747D01*
X246573953Y-264599835D01*
X246440866Y-264921135D01*
X246440865Y-264921137D01*
X246247653Y-265210299D01*
X246001740Y-265456212D01*
X245712578Y-265649424D01*
X245712577Y-265649425D01*
X245712576Y-265649425D01*
X245391276Y-265782512D01*
X245050188Y-265850359D01*
X244702412Y-265850359D01*
X244361324Y-265782512D01*
X244040024Y-265649425D01*
X244040023Y-265649425D01*
X244040022Y-265649424D01*
X243750860Y-265456212D01*
X243504947Y-265210299D01*
X243311735Y-264921137D01*
X243311734Y-264921135D01*
X243178647Y-264599835D01*
X243110800Y-264258747D01*
X243110800Y-263910971D01*
X243178647Y-263569883D01*
X243311734Y-263248583D01*
X243504947Y-262959419D01*
X243750860Y-262713506D01*
X243835218Y-262657140D01*
X244040022Y-262520294D01*
X244040024Y-262520293D01*
X244361324Y-262387206D01*
X244702412Y-262319359D01*
X245050188Y-262319359D01*
X245391276Y-262387206D01*
X245391276Y-262387206D01*
G37*
G36*
X51601951Y-260983182D02*
G01*
X51751776Y-261012984D01*
X52034040Y-261129901D01*
X52288071Y-261299639D01*
X52504107Y-261515675D01*
X52673845Y-261769706D01*
X52790762Y-262051970D01*
X52850366Y-262351620D01*
X52850366Y-262657140D01*
X52790762Y-262956790D01*
X52673845Y-263239054D01*
X52504107Y-263493085D01*
X52288071Y-263709121D01*
X52034040Y-263878859D01*
X51751776Y-263995776D01*
X51601951Y-264025578D01*
X51452127Y-264055380D01*
X51146605Y-264055380D01*
X50996781Y-264025578D01*
X50846956Y-263995776D01*
X50564692Y-263878859D01*
X50310661Y-263709121D01*
X50094625Y-263493085D01*
X49924887Y-263239054D01*
X49807970Y-262956790D01*
X49748366Y-262657140D01*
X49748366Y-262351620D01*
X49807970Y-262051970D01*
X49924887Y-261769706D01*
X50094625Y-261515675D01*
X50310661Y-261299639D01*
X50564692Y-261129901D01*
X50846956Y-261012984D01*
X50996781Y-260983182D01*
X51146605Y-260953380D01*
X51452127Y-260953380D01*
X51601951Y-260983182D01*
X51601951Y-260983182D01*
G37*
G36*
X40335113Y-261163380D02*
G01*
X40422236Y-261180709D01*
X40529814Y-261225270D01*
X40586372Y-261248697D01*
X40699025Y-261323969D01*
X40734089Y-261347398D01*
X40859713Y-261473022D01*
X40859715Y-261473025D01*
X40958414Y-261620739D01*
X40958414Y-261620740D01*
X41026402Y-261784875D01*
X41061061Y-261959121D01*
X41061061Y-262136779D01*
X41026402Y-262311025D01*
X40994846Y-262387206D01*
X40958414Y-262475161D01*
X40875368Y-262599448D01*
X40859713Y-262622878D01*
X40734089Y-262748502D01*
X40734086Y-262748504D01*
X40586372Y-262847203D01*
X40531659Y-262869866D01*
X40422236Y-262915191D01*
X40335113Y-262932520D01*
X40247992Y-262949850D01*
X40070330Y-262949850D01*
X39983209Y-262932520D01*
X39896086Y-262915191D01*
X39786663Y-262869866D01*
X39731950Y-262847203D01*
X39584236Y-262748504D01*
X39584233Y-262748502D01*
X39458609Y-262622878D01*
X39442954Y-262599448D01*
X39359908Y-262475161D01*
X39323476Y-262387206D01*
X39291920Y-262311025D01*
X39257261Y-262136779D01*
X39257261Y-261959121D01*
X39291920Y-261784875D01*
X39359908Y-261620740D01*
X39359908Y-261620739D01*
X39458607Y-261473025D01*
X39458609Y-261473022D01*
X39584233Y-261347398D01*
X39619297Y-261323969D01*
X39731950Y-261248697D01*
X39788508Y-261225270D01*
X39896086Y-261180709D01*
X39983209Y-261163380D01*
X40070330Y-261146050D01*
X40247992Y-261146050D01*
X40335113Y-261163380D01*
X40335113Y-261163380D01*
G37*
G36*
X250151763Y-261139952D02*
G01*
X250238886Y-261157282D01*
X250348309Y-261202607D01*
X250403022Y-261225270D01*
X250514323Y-261299639D01*
X250550739Y-261323971D01*
X250676363Y-261449595D01*
X250676365Y-261449598D01*
X250775064Y-261597312D01*
X250775064Y-261597313D01*
X250843052Y-261761448D01*
X250877711Y-261935694D01*
X250877711Y-262113352D01*
X250843052Y-262287598D01*
X250801792Y-262387206D01*
X250775064Y-262451734D01*
X250713601Y-262543720D01*
X250676363Y-262599451D01*
X250550739Y-262725075D01*
X250550736Y-262725077D01*
X250403022Y-262823776D01*
X250348309Y-262846439D01*
X250238886Y-262891764D01*
X250151763Y-262909094D01*
X250064642Y-262926423D01*
X249886980Y-262926423D01*
X249799859Y-262909094D01*
X249712736Y-262891764D01*
X249603313Y-262846439D01*
X249548600Y-262823776D01*
X249400886Y-262725077D01*
X249400883Y-262725075D01*
X249275259Y-262599451D01*
X249238021Y-262543720D01*
X249176558Y-262451734D01*
X249149830Y-262387206D01*
X249108570Y-262287598D01*
X249073911Y-262113352D01*
X249073911Y-261935694D01*
X249108570Y-261761448D01*
X249176558Y-261597313D01*
X249176558Y-261597312D01*
X249275257Y-261449598D01*
X249275259Y-261449595D01*
X249400883Y-261323971D01*
X249437299Y-261299639D01*
X249548600Y-261225270D01*
X249603313Y-261202607D01*
X249712736Y-261157282D01*
X249799859Y-261139952D01*
X249886980Y-261122623D01*
X250064642Y-261122623D01*
X250151763Y-261139952D01*
X250151763Y-261139952D01*
G37*
G36*
X47790166Y-257070344D02*
G01*
X47939991Y-257100146D01*
X48222255Y-257217063D01*
X48476286Y-257386801D01*
X48692322Y-257602837D01*
X48862060Y-257856868D01*
X48978977Y-258139132D01*
X49038581Y-258438782D01*
X49038581Y-258744302D01*
X48978977Y-259043952D01*
X48862060Y-259326216D01*
X48692322Y-259580247D01*
X48476286Y-259796283D01*
X48222255Y-259966021D01*
X47939991Y-260082938D01*
X47790166Y-260112740D01*
X47640342Y-260142542D01*
X47334820Y-260142542D01*
X47184996Y-260112740D01*
X47035171Y-260082938D01*
X46752907Y-259966021D01*
X46498876Y-259796283D01*
X46282840Y-259580247D01*
X46113102Y-259326216D01*
X45996185Y-259043952D01*
X45936581Y-258744302D01*
X45936581Y-258438782D01*
X45996185Y-258139132D01*
X46113102Y-257856868D01*
X46282840Y-257602837D01*
X46498876Y-257386801D01*
X46752907Y-257217063D01*
X47035171Y-257100146D01*
X47184996Y-257070344D01*
X47334820Y-257040542D01*
X47640342Y-257040542D01*
X47790166Y-257070344D01*
X47790166Y-257070344D01*
G37*
M02*
