G04 #@! TF.GenerationSoftware,KiCad,Pcbnew,(5.1.4)-1*
G04 #@! TF.CreationDate,2023-03-14T13:34:02-04:00*
G04 #@! TF.ProjectId,ThumbsUp,5468756d-6273-4557-902e-6b696361645f,rev?*
G04 #@! TF.SameCoordinates,Original*
G04 #@! TF.FileFunction,Profile,NP*
%FSLAX46Y46*%
G04 Gerber Fmt 4.6, Leading zero omitted, Abs format (unit mm)*
G04 Created by KiCad (PCBNEW (5.1.4)-1) date 2023-03-14 13:34:02*
%MOMM*%
%LPD*%
G04 APERTURE LIST*
%ADD10C,0.050000*%
G04 APERTURE END LIST*
D10*
X46045367Y-326403852D02*
X48705074Y-319820847D01*
X243996887Y-326417887D02*
X241337180Y-319834881D01*
X178280126Y-278550284D02*
X150001019Y-289975785D01*
X111762128Y-278536250D02*
X140041235Y-289961751D01*
X109600000Y-368300000D02*
X100726946Y-365645347D01*
X180300000Y-368300000D02*
X189315308Y-365659381D01*
X109600000Y-368300000D02*
X180300000Y-368300000D01*
X150001019Y-289975785D02*
X149900000Y-290000000D01*
X140041235Y-289961751D02*
X149900000Y-290000000D01*
X256864341Y-304609663D02*
X256678904Y-304684584D01*
X33177913Y-304595628D02*
X33363350Y-304670550D01*
X19466791Y-295820371D02*
X21217241Y-299763203D01*
X37485368Y-251222828D02*
X19466791Y-295820371D01*
X270575463Y-295834406D02*
X268825012Y-299777238D01*
X252556885Y-251236862D02*
X270575463Y-295834406D01*
X107984939Y-269999691D02*
X92640046Y-263799951D01*
X41633301Y-249231683D02*
X72601241Y-261743543D01*
X35471109Y-309998059D02*
X33363350Y-304670550D01*
X35471109Y-309998059D02*
X46550956Y-314474607D01*
X33177913Y-304595628D02*
X21217241Y-299763203D01*
X55423988Y-331487303D02*
X46893897Y-328040922D01*
X86271105Y-266349772D02*
X73707763Y-261273853D01*
X100726946Y-365645347D02*
X55609425Y-331562224D01*
X46045367Y-326403852D02*
X46893897Y-328040922D01*
X107984939Y-269999691D02*
X111762128Y-278536250D01*
X46550956Y-314474607D02*
X48705074Y-319820847D01*
X86271105Y-266349772D02*
X92640046Y-263799951D01*
X41633301Y-249231683D02*
X37485368Y-251222828D01*
X73707763Y-261273853D02*
X72601241Y-261743543D01*
X55423988Y-331487303D02*
X55609425Y-331562224D01*
X234618266Y-331501337D02*
X234432829Y-331576259D01*
X243491298Y-314488642D02*
X241337180Y-319834881D01*
X248408953Y-249245718D02*
X252556885Y-251236862D01*
X216334490Y-261287887D02*
X217441012Y-261757578D01*
X203771149Y-266363807D02*
X197402208Y-263813986D01*
X234618266Y-331501337D02*
X243148357Y-328054957D01*
X189315308Y-365659381D02*
X234432829Y-331576259D01*
X243996887Y-326417887D02*
X243148357Y-328054957D01*
X248408953Y-249245718D02*
X217441012Y-261757578D01*
X256864341Y-304609663D02*
X268825012Y-299777238D01*
X254571145Y-310012093D02*
X256678904Y-304684584D01*
X254571145Y-310012093D02*
X243491298Y-314488642D01*
X182057315Y-270013725D02*
X178280126Y-278550284D01*
X203771149Y-266363807D02*
X216334490Y-261287887D01*
X182057315Y-270013725D02*
X197402208Y-263813986D01*
M02*
