G04 #@! TF.GenerationSoftware,KiCad,Pcbnew,(5.1.4)-1*
G04 #@! TF.CreationDate,2024-04-24T20:53:09-04:00*
G04 #@! TF.ProjectId,ThumbsUp,5468756d-6273-4557-902e-6b696361645f,rev?*
G04 #@! TF.SameCoordinates,Original*
G04 #@! TF.FileFunction,Paste,Bot*
G04 #@! TF.FilePolarity,Positive*
%FSLAX46Y46*%
G04 Gerber Fmt 4.6, Leading zero omitted, Abs format (unit mm)*
G04 Created by KiCad (PCBNEW (5.1.4)-1) date 2024-04-24 20:53:09*
%MOMM*%
%LPD*%
G04 APERTURE LIST*
%ADD10C,2.600000*%
%ADD11C,0.100000*%
G04 APERTURE END LIST*
D10*
X263252967Y-300826201D03*
D11*
G36*
X262534617Y-302518529D02*
G01*
X261560639Y-300107851D01*
X263971317Y-299133873D01*
X264945295Y-301544551D01*
X262534617Y-302518529D01*
X262534617Y-302518529D01*
G37*
D10*
X251719859Y-303113103D03*
D11*
G36*
X251001509Y-304805431D02*
G01*
X250027531Y-302394753D01*
X252438209Y-301420775D01*
X253412187Y-303831453D01*
X251001509Y-304805431D01*
X251001509Y-304805431D01*
G37*
D10*
X256697351Y-284600484D03*
D11*
G36*
X255979001Y-286292812D02*
G01*
X255005023Y-283882134D01*
X257415701Y-282908156D01*
X258389679Y-285318834D01*
X255979001Y-286292812D01*
X255979001Y-286292812D01*
G37*
D10*
X245164243Y-286887386D03*
D11*
G36*
X244445893Y-288579714D02*
G01*
X243471915Y-286169036D01*
X245882593Y-285195058D01*
X246856571Y-287605736D01*
X244445893Y-288579714D01*
X244445893Y-288579714D01*
G37*
D10*
X250141736Y-268374766D03*
D11*
G36*
X249423386Y-270067094D02*
G01*
X248449408Y-267656416D01*
X250860086Y-266682438D01*
X251834064Y-269093116D01*
X249423386Y-270067094D01*
X249423386Y-270067094D01*
G37*
D10*
X238608628Y-270661668D03*
D11*
G36*
X237890278Y-272353996D02*
G01*
X236916300Y-269943318D01*
X239326978Y-268969340D01*
X240300956Y-271380018D01*
X237890278Y-272353996D01*
X237890278Y-272353996D01*
G37*
D10*
X247598492Y-311465159D03*
D11*
G36*
X246880142Y-313157487D02*
G01*
X245906164Y-310746809D01*
X248316842Y-309772831D01*
X249290820Y-312183509D01*
X246880142Y-313157487D01*
X246880142Y-313157487D01*
G37*
D10*
X236065384Y-313752061D03*
D11*
G36*
X235347034Y-315444389D02*
G01*
X234373056Y-313033711D01*
X236783734Y-312059733D01*
X237757712Y-314470411D01*
X235347034Y-315444389D01*
X235347034Y-315444389D01*
G37*
D10*
X241042877Y-295239441D03*
D11*
G36*
X240324527Y-296931769D02*
G01*
X239350549Y-294521091D01*
X241761227Y-293547113D01*
X242735205Y-295957791D01*
X240324527Y-296931769D01*
X240324527Y-296931769D01*
G37*
D10*
X229509769Y-297526343D03*
D11*
G36*
X228791419Y-299218671D02*
G01*
X227817441Y-296807993D01*
X230228119Y-295834015D01*
X231202097Y-298244693D01*
X228791419Y-299218671D01*
X228791419Y-299218671D01*
G37*
D10*
X234487261Y-279013724D03*
D11*
G36*
X233768911Y-280706052D02*
G01*
X232794933Y-278295374D01*
X235205611Y-277321396D01*
X236179589Y-279732074D01*
X233768911Y-280706052D01*
X233768911Y-280706052D01*
G37*
D10*
X222954153Y-281300626D03*
D11*
G36*
X222235803Y-282992954D02*
G01*
X221261825Y-280582276D01*
X223672503Y-279608298D01*
X224646481Y-282018976D01*
X222235803Y-282992954D01*
X222235803Y-282992954D01*
G37*
D10*
X228572558Y-313759461D03*
D11*
G36*
X227854208Y-315451789D02*
G01*
X226880230Y-313041111D01*
X229290908Y-312067133D01*
X230264886Y-314477811D01*
X227854208Y-315451789D01*
X227854208Y-315451789D01*
G37*
D10*
X217039450Y-316046363D03*
D11*
G36*
X216321100Y-317738691D02*
G01*
X215347122Y-315328013D01*
X217757800Y-314354035D01*
X218731778Y-316764713D01*
X216321100Y-317738691D01*
X216321100Y-317738691D01*
G37*
D10*
X222016942Y-297533744D03*
D11*
G36*
X221298592Y-299226072D02*
G01*
X220324614Y-296815394D01*
X222735292Y-295841416D01*
X223709270Y-298252094D01*
X221298592Y-299226072D01*
X221298592Y-299226072D01*
G37*
D10*
X210483834Y-299820646D03*
D11*
G36*
X209765484Y-301512974D02*
G01*
X208791506Y-299102296D01*
X211202184Y-298128318D01*
X212176162Y-300538996D01*
X209765484Y-301512974D01*
X209765484Y-301512974D01*
G37*
D10*
X215461327Y-281308027D03*
D11*
G36*
X214742977Y-283000355D02*
G01*
X213768999Y-280589677D01*
X216179677Y-279615699D01*
X217153655Y-282026377D01*
X214742977Y-283000355D01*
X214742977Y-283000355D01*
G37*
D10*
X203928219Y-283594929D03*
D11*
G36*
X203209869Y-285287257D02*
G01*
X202235891Y-282876579D01*
X204646569Y-281902601D01*
X205620547Y-284313279D01*
X203209869Y-285287257D01*
X203209869Y-285287257D01*
G37*
D10*
X209546623Y-316053764D03*
D11*
G36*
X208828273Y-317746092D02*
G01*
X207854295Y-315335414D01*
X210264973Y-314361436D01*
X211238951Y-316772114D01*
X208828273Y-317746092D01*
X208828273Y-317746092D01*
G37*
D10*
X198013515Y-318340666D03*
D11*
G36*
X197295165Y-320032994D02*
G01*
X196321187Y-317622316D01*
X198731865Y-316648338D01*
X199705843Y-319059016D01*
X197295165Y-320032994D01*
X197295165Y-320032994D01*
G37*
D10*
X202991008Y-299828047D03*
D11*
G36*
X202272658Y-301520375D02*
G01*
X201298680Y-299109697D01*
X203709358Y-298135719D01*
X204683336Y-300546397D01*
X202272658Y-301520375D01*
X202272658Y-301520375D01*
G37*
D10*
X191457900Y-302114949D03*
D11*
G36*
X190739550Y-303807277D02*
G01*
X189765572Y-301396599D01*
X192176250Y-300422621D01*
X193150228Y-302833299D01*
X190739550Y-303807277D01*
X190739550Y-303807277D01*
G37*
D10*
X196435393Y-283602329D03*
D11*
G36*
X195717043Y-285294657D02*
G01*
X194743065Y-282883979D01*
X197153743Y-281910001D01*
X198127721Y-284320679D01*
X195717043Y-285294657D01*
X195717043Y-285294657D01*
G37*
D10*
X184902285Y-285889231D03*
D11*
G36*
X184183935Y-287581559D02*
G01*
X183209957Y-285170881D01*
X185620635Y-284196903D01*
X186594613Y-286607581D01*
X184183935Y-287581559D01*
X184183935Y-287581559D01*
G37*
D10*
X85046167Y-305043702D03*
D11*
G36*
X86738495Y-304325352D02*
G01*
X85764517Y-306736030D01*
X83353839Y-305762052D01*
X84327817Y-303351374D01*
X86738495Y-304325352D01*
X86738495Y-304325352D01*
G37*
D10*
X94931006Y-311410213D03*
D11*
G36*
X96623334Y-310691863D02*
G01*
X95649356Y-313102541D01*
X93238678Y-312128563D01*
X94212656Y-309717885D01*
X96623334Y-310691863D01*
X96623334Y-310691863D01*
G37*
D10*
X91601782Y-288817985D03*
D11*
G36*
X93294110Y-288099635D02*
G01*
X92320132Y-290510313D01*
X89909454Y-289536335D01*
X90883432Y-287125657D01*
X93294110Y-288099635D01*
X93294110Y-288099635D01*
G37*
D10*
X101486621Y-295184496D03*
D11*
G36*
X103178949Y-294466146D02*
G01*
X102204971Y-296876824D01*
X99794293Y-295902846D01*
X100768271Y-293492168D01*
X103178949Y-294466146D01*
X103178949Y-294466146D01*
G37*
D10*
X98157398Y-272592267D03*
D11*
G36*
X99849726Y-271873917D02*
G01*
X98875748Y-274284595D01*
X96465070Y-273310617D01*
X97439048Y-270899939D01*
X99849726Y-271873917D01*
X99849726Y-271873917D01*
G37*
D10*
X108042237Y-278958778D03*
D11*
G36*
X109734565Y-278240428D02*
G01*
X108760587Y-280651106D01*
X106349909Y-279677128D01*
X107323887Y-277266450D01*
X109734565Y-278240428D01*
X109734565Y-278240428D01*
G37*
D10*
X66020233Y-302749400D03*
D11*
G36*
X67712561Y-302031050D02*
G01*
X66738583Y-304441728D01*
X64327905Y-303467750D01*
X65301883Y-301057072D01*
X67712561Y-302031050D01*
X67712561Y-302031050D01*
G37*
D10*
X75905072Y-309115911D03*
D11*
G36*
X77597400Y-308397561D02*
G01*
X76623422Y-310808239D01*
X74212744Y-309834261D01*
X75186722Y-307423583D01*
X77597400Y-308397561D01*
X77597400Y-308397561D01*
G37*
D10*
X72575848Y-286523682D03*
D11*
G36*
X74268176Y-285805332D02*
G01*
X73294198Y-288216010D01*
X70883520Y-287242032D01*
X71857498Y-284831354D01*
X74268176Y-285805332D01*
X74268176Y-285805332D01*
G37*
D10*
X82460687Y-292890193D03*
D11*
G36*
X84153015Y-292171843D02*
G01*
X83179037Y-294582521D01*
X80768359Y-293608543D01*
X81742337Y-291197865D01*
X84153015Y-292171843D01*
X84153015Y-292171843D01*
G37*
D10*
X79131463Y-270297965D03*
D11*
G36*
X80823791Y-269579615D02*
G01*
X79849813Y-271990293D01*
X77439135Y-271016315D01*
X78413113Y-268605637D01*
X80823791Y-269579615D01*
X80823791Y-269579615D01*
G37*
D10*
X89016302Y-276664476D03*
D11*
G36*
X90708630Y-275946126D02*
G01*
X89734652Y-278356804D01*
X87323974Y-277382826D01*
X88297952Y-274972148D01*
X90708630Y-275946126D01*
X90708630Y-275946126D01*
G37*
D10*
X46994298Y-300455097D03*
D11*
G36*
X48686626Y-299736747D02*
G01*
X47712648Y-302147425D01*
X45301970Y-301173447D01*
X46275948Y-298762769D01*
X48686626Y-299736747D01*
X48686626Y-299736747D01*
G37*
D10*
X56879137Y-306821608D03*
D11*
G36*
X58571465Y-306103258D02*
G01*
X57597487Y-308513936D01*
X55186809Y-307539958D01*
X56160787Y-305129280D01*
X58571465Y-306103258D01*
X58571465Y-306103258D01*
G37*
D10*
X53549914Y-284229379D03*
D11*
G36*
X55242242Y-283511029D02*
G01*
X54268264Y-285921707D01*
X51857586Y-284947729D01*
X52831564Y-282537051D01*
X55242242Y-283511029D01*
X55242242Y-283511029D01*
G37*
D10*
X63434753Y-290595890D03*
D11*
G36*
X65127081Y-289877540D02*
G01*
X64153103Y-292288218D01*
X61742425Y-291314240D01*
X62716403Y-288903562D01*
X65127081Y-289877540D01*
X65127081Y-289877540D01*
G37*
D10*
X60105529Y-268003662D03*
D11*
G36*
X61797857Y-267285312D02*
G01*
X60823879Y-269695990D01*
X58413201Y-268722012D01*
X59387179Y-266311334D01*
X61797857Y-267285312D01*
X61797857Y-267285312D01*
G37*
D10*
X69990368Y-274370173D03*
D11*
G36*
X71682696Y-273651823D02*
G01*
X70708718Y-276062501D01*
X68298040Y-275088523D01*
X69272018Y-272677845D01*
X71682696Y-273651823D01*
X71682696Y-273651823D01*
G37*
D10*
X31339823Y-289816139D03*
D11*
G36*
X33032151Y-289097789D02*
G01*
X32058173Y-291508467D01*
X29647495Y-290534489D01*
X30621473Y-288123811D01*
X33032151Y-289097789D01*
X33032151Y-289097789D01*
G37*
D10*
X41224662Y-296182650D03*
D11*
G36*
X42916990Y-295464300D02*
G01*
X41943012Y-297874978D01*
X39532334Y-296901000D01*
X40506312Y-294490322D01*
X42916990Y-295464300D01*
X42916990Y-295464300D01*
G37*
D10*
X37895439Y-273590422D03*
D11*
G36*
X39587767Y-272872072D02*
G01*
X38613789Y-275282750D01*
X36203111Y-274308772D01*
X37177089Y-271898094D01*
X39587767Y-272872072D01*
X39587767Y-272872072D01*
G37*
D10*
X47780278Y-279956933D03*
D11*
G36*
X49472606Y-279238583D02*
G01*
X48498628Y-281649261D01*
X46087950Y-280675283D01*
X47061928Y-278264605D01*
X49472606Y-279238583D01*
X49472606Y-279238583D01*
G37*
D10*
X44451054Y-257364705D03*
D11*
G36*
X46143382Y-256646355D02*
G01*
X45169404Y-259057033D01*
X42758726Y-258083055D01*
X43732704Y-255672377D01*
X46143382Y-256646355D01*
X46143382Y-256646355D01*
G37*
D10*
X54335893Y-263731216D03*
D11*
G36*
X56028221Y-263012866D02*
G01*
X55054243Y-265423544D01*
X52643565Y-264449566D01*
X53617543Y-262038888D01*
X56028221Y-263012866D01*
X56028221Y-263012866D01*
G37*
M02*
