%FSLAX45Y45*%
G04 Gerber Fmt 4.5, Leading zero omitted, Abs format (unit mm)*
G04 Created by KiCad (PCBNEW (5.1.4)-1) date 2024-04-24 20:53:15*
%MOMM*%
%LPD*%
G04 APERTURE LIST*
%ADD10C,0.050000*%
%ADD11C,0.200000*%
%ADD12C,0.300000*%
G04 APERTURE END LIST*
D10*
X11176213Y-27853625D02*
X12147667Y-28245667D01*
X12412667Y-28146667D02*
X13647667Y-28645667D01*
X16628646Y-28148071D02*
X15397000Y-28645000D01*
X17865100Y-27855028D02*
X16893646Y-28247071D01*
X12147667Y-28245667D02*
X12412667Y-28146667D01*
X15397000Y-28645000D02*
X13647667Y-28645667D01*
X16893646Y-28247071D02*
X16628646Y-28148071D01*
X4604537Y-32640385D02*
X4870507Y-31982085D01*
X24399689Y-32641789D02*
X24133718Y-31983488D01*
X10960000Y-36830000D02*
X10072695Y-36564535D01*
X18030000Y-36830000D02*
X18931531Y-36565938D01*
X10960000Y-36830000D02*
X18030000Y-36830000D01*
X25546434Y-30790966D02*
X25527890Y-30798458D01*
X3457791Y-30789563D02*
X3476335Y-30797055D01*
X2086679Y-29912037D02*
X2261724Y-30306320D01*
X3888537Y-25452283D02*
X2086679Y-29912037D01*
X26917546Y-29913441D02*
X26742501Y-30307724D01*
X25115688Y-25453686D02*
X26917546Y-29913441D01*
X10938494Y-27329969D02*
X9404005Y-26709995D01*
X4303330Y-25253168D02*
X7400124Y-26504354D01*
X3687111Y-31329806D02*
X3476335Y-30797055D01*
X3687111Y-31329806D02*
X4795096Y-31777461D01*
X3457791Y-30789563D02*
X2261724Y-30306320D01*
X5542399Y-33148730D02*
X4689390Y-32804092D01*
X8767111Y-26964977D02*
X7510776Y-26457385D01*
X10072695Y-36564535D02*
X5560943Y-33156222D01*
X4604537Y-32640385D02*
X4689390Y-32804092D01*
X10938494Y-27329969D02*
X11176213Y-27853625D01*
X4795096Y-31777461D02*
X4870507Y-31982085D01*
X8767111Y-26964977D02*
X9404005Y-26709995D01*
X4303330Y-25253168D02*
X3888537Y-25452283D01*
X7510776Y-26457385D02*
X7400124Y-26504354D01*
X5542399Y-33148730D02*
X5560943Y-33156222D01*
X23461827Y-33150134D02*
X23443283Y-33157626D01*
X24209130Y-31778864D02*
X24133718Y-31983488D01*
X24700895Y-25254572D02*
X25115688Y-25453686D01*
X21493449Y-26458789D02*
X21604101Y-26505758D01*
X20237115Y-26966381D02*
X19600221Y-26711399D01*
X23461827Y-33150134D02*
X24314836Y-32805496D01*
X18931531Y-36565938D02*
X23443283Y-33157626D01*
X24399689Y-32641789D02*
X24314836Y-32805496D01*
X24700895Y-25254572D02*
X21604101Y-26505758D01*
X25546434Y-30790966D02*
X26742501Y-30307724D01*
X25317114Y-31331209D02*
X25527890Y-30798458D01*
X25317114Y-31331209D02*
X24209130Y-31778864D01*
X18065732Y-27331372D02*
X17865100Y-27855028D01*
X20237115Y-26966381D02*
X21493449Y-26458789D01*
X18065732Y-27331372D02*
X19600221Y-26711399D01*
D11*
X4025000Y-29770000D02*
X4065000Y-29810000D01*
X4065000Y-29770000D02*
X4025000Y-29810000D01*
X4685000Y-28160000D02*
X4725000Y-28200000D01*
X4725000Y-28160000D02*
X4685000Y-28200000D01*
X5360000Y-26555000D02*
X5400000Y-26595000D01*
X5400000Y-26555000D02*
X5360000Y-26595000D01*
X5595000Y-30820000D02*
X5635000Y-30860000D01*
X5635000Y-30820000D02*
X5595000Y-30860000D01*
X6250000Y-29195000D02*
X6290000Y-29235000D01*
X6290000Y-29195000D02*
X6250000Y-29235000D01*
X6925000Y-27600000D02*
X6965000Y-27640000D01*
X6965000Y-27600000D02*
X6925000Y-27640000D01*
X7510000Y-31080000D02*
X7550000Y-31120000D01*
X7550000Y-31080000D02*
X7510000Y-31120000D01*
X8155000Y-29430000D02*
X8195000Y-29470000D01*
X8195000Y-29430000D02*
X8155000Y-29470000D01*
X8825000Y-27815000D02*
X8865000Y-27855000D01*
X8865000Y-27815000D02*
X8825000Y-27855000D01*
X18270000Y-28550001D02*
X18310000Y-28590001D01*
X18310000Y-28550001D02*
X18270000Y-28590001D01*
X18970000Y-30240000D02*
X19010000Y-30280000D01*
X19010000Y-30240000D02*
X18970000Y-30280000D01*
X19610000Y-31840000D02*
X19650000Y-31880000D01*
X19650000Y-31840000D02*
X19610000Y-31880000D01*
X20210000Y-28435000D02*
X20250000Y-28475000D01*
X20250000Y-28435000D02*
X20210000Y-28475000D01*
X20865000Y-30050000D02*
X20905000Y-30090000D01*
X20905000Y-30050000D02*
X20865000Y-30090000D01*
X21525000Y-31655000D02*
X21565000Y-31695000D01*
X21565000Y-31655000D02*
X21525000Y-31695000D01*
X22105000Y-28185000D02*
X22145000Y-28225000D01*
X22145000Y-28185000D02*
X22105000Y-28225000D01*
X22790000Y-29800000D02*
X22830000Y-29840000D01*
X22830000Y-29800000D02*
X22790000Y-29840000D01*
X23430000Y-31420000D02*
X23470000Y-31460000D01*
X23470000Y-31420000D02*
X23430000Y-31460000D01*
X23880000Y-27260000D02*
X23920000Y-27300000D01*
X23920000Y-27260000D02*
X23880000Y-27300000D01*
X24540000Y-28840000D02*
X24580000Y-28880000D01*
X24580000Y-28840000D02*
X24540000Y-28880000D01*
X25010000Y-30430000D02*
X25050000Y-30470000D01*
X25050000Y-30430000D02*
X25010000Y-30470000D01*
X14057500Y-34390000D02*
G75*
G03X14057500Y-34390000I-30000J0D01*
G01*
X14198089Y-34050589D02*
G75*
G03X14198089Y-34050589I-30000J0D01*
G01*
X14198089Y-34729411D02*
G75*
G03X14198089Y-34729411I-30000J0D01*
G01*
X14537500Y-33910000D02*
G75*
G03X14537500Y-33910000I-30000J0D01*
G01*
X14537500Y-34870000D02*
G75*
G03X14537500Y-34870000I-30000J0D01*
G01*
X14876911Y-34050589D02*
G75*
G03X14876911Y-34050589I-30000J0D01*
G01*
X14876911Y-34729411D02*
G75*
G03X14876911Y-34729411I-30000J0D01*
G01*
X15017500Y-34390000D02*
G75*
G03X15017500Y-34390000I-30000J0D01*
G01*
X14057500Y-30890000D02*
G75*
G03X14057500Y-30890000I-30000J0D01*
G01*
X14198089Y-30550589D02*
G75*
G03X14198089Y-30550589I-30000J0D01*
G01*
X14198089Y-31229411D02*
G75*
G03X14198089Y-31229411I-30000J0D01*
G01*
X14537500Y-30410000D02*
G75*
G03X14537500Y-30410000I-30000J0D01*
G01*
X14537500Y-31370000D02*
G75*
G03X14537500Y-31370000I-30000J0D01*
G01*
X14876911Y-30550589D02*
G75*
G03X14876911Y-30550589I-30000J0D01*
G01*
X14876911Y-31229411D02*
G75*
G03X14876911Y-31229411I-30000J0D01*
G01*
X15017500Y-30890000D02*
G75*
G03X15017500Y-30890000I-30000J0D01*
G01*
X14057500Y-32640000D02*
G75*
G03X14057500Y-32640000I-30000J0D01*
G01*
X14198089Y-32300589D02*
G75*
G03X14198089Y-32300589I-30000J0D01*
G01*
X14198089Y-32979411D02*
G75*
G03X14198089Y-32979411I-30000J0D01*
G01*
X14537500Y-32160000D02*
G75*
G03X14537500Y-32160000I-30000J0D01*
G01*
X14537500Y-33120000D02*
G75*
G03X14537500Y-33120000I-30000J0D01*
G01*
X14876911Y-32300589D02*
G75*
G03X14876911Y-32300589I-30000J0D01*
G01*
X14876911Y-32979411D02*
G75*
G03X14876911Y-32979411I-30000J0D01*
G01*
X15017500Y-32640000D02*
G75*
G03X15017500Y-32640000I-30000J0D01*
G01*
X4788408Y-32643102D02*
X4788408Y-32743102D01*
X4738408Y-32693102D02*
X4838408Y-32693102D01*
X4883558Y-32407597D02*
X4883558Y-32507597D01*
X4833558Y-32457597D02*
X4933558Y-32457597D01*
X4978708Y-32172093D02*
X4978708Y-32272093D01*
X4928708Y-32222093D02*
X5028708Y-32222093D01*
X5073858Y-31936588D02*
X5073858Y-32036588D01*
X5023858Y-31986588D02*
X5123858Y-31986588D01*
X17895000Y-30085000D02*
X17895000Y-30185000D01*
X17845000Y-30135000D02*
X17945000Y-30135000D01*
X18130505Y-29989850D02*
X18130505Y-30089850D01*
X18080505Y-30039850D02*
X18180505Y-30039850D01*
X18366009Y-29894700D02*
X18366009Y-29994700D01*
X18316009Y-29944700D02*
X18416009Y-29944700D01*
X18601514Y-29799550D02*
X18601514Y-29899550D01*
X18551514Y-29849550D02*
X18651514Y-29849550D01*
X9812010Y-31314550D02*
X9812010Y-31414550D01*
X9762010Y-31364550D02*
X9862010Y-31364550D01*
X10047515Y-31409700D02*
X10047515Y-31509700D01*
X9997515Y-31459700D02*
X10097515Y-31459700D01*
X10283020Y-31504850D02*
X10283020Y-31604850D01*
X10233020Y-31554850D02*
X10333020Y-31554850D01*
X10518524Y-31600000D02*
X10518524Y-31700000D01*
X10468524Y-31650000D02*
X10568524Y-31650000D01*
X17133558Y-28355240D02*
X17133558Y-28455240D01*
X17083558Y-28405240D02*
X17183558Y-28405240D01*
X17369063Y-28260090D02*
X17369063Y-28360090D01*
X17319063Y-28310090D02*
X17419063Y-28310090D01*
X17604567Y-28164940D02*
X17604567Y-28264940D01*
X17554567Y-28214940D02*
X17654567Y-28214940D01*
X17840072Y-28069790D02*
X17840072Y-28169790D01*
X17790072Y-28119790D02*
X17890072Y-28119790D01*
X23987298Y-31916522D02*
X23987298Y-32016522D01*
X23937298Y-31966522D02*
X24037298Y-31966522D01*
X24082448Y-32152027D02*
X24082448Y-32252027D01*
X24032448Y-32202027D02*
X24132448Y-32202027D01*
X24177598Y-32387531D02*
X24177598Y-32487531D01*
X24127598Y-32437531D02*
X24227598Y-32437531D01*
X24272748Y-32623036D02*
X24272748Y-32723036D01*
X24222748Y-32673036D02*
X24322748Y-32673036D01*
X10493486Y-29714550D02*
X10493486Y-29814550D01*
X10443486Y-29764550D02*
X10543486Y-29764550D01*
X10728991Y-29809700D02*
X10728991Y-29909700D01*
X10678991Y-29859700D02*
X10778991Y-29859700D01*
X10964495Y-29904850D02*
X10964495Y-30004850D01*
X10914495Y-29954850D02*
X11014495Y-29954850D01*
X11200000Y-30000000D02*
X11200000Y-30100000D01*
X11150000Y-30050000D02*
X11250000Y-30050000D01*
X19005814Y-36288791D02*
X19005814Y-36388791D01*
X18955814Y-36338791D02*
X19055814Y-36338791D01*
X19208667Y-36135930D02*
X19208667Y-36235930D01*
X19158667Y-36185930D02*
X19258667Y-36185930D01*
X19411520Y-35983069D02*
X19411520Y-36083069D01*
X19361520Y-36033069D02*
X19461520Y-36033069D01*
X19614374Y-35830208D02*
X19614374Y-35930208D01*
X19564374Y-35880208D02*
X19664374Y-35880208D01*
X11149244Y-28083933D02*
X11149244Y-28183933D01*
X11099244Y-28133933D02*
X11199244Y-28133933D01*
X11384748Y-28179083D02*
X11384748Y-28279083D01*
X11334748Y-28229083D02*
X11434748Y-28229083D01*
X11620253Y-28274233D02*
X11620253Y-28374233D01*
X11570253Y-28324233D02*
X11670253Y-28324233D01*
X11855758Y-28369383D02*
X11855758Y-28469383D01*
X11805758Y-28419383D02*
X11905758Y-28419383D01*
X9408395Y-35836297D02*
X9408395Y-35936297D01*
X9358395Y-35886297D02*
X9458395Y-35886297D01*
X9611249Y-35989158D02*
X9611249Y-36089158D01*
X9561249Y-36039158D02*
X9661249Y-36039158D01*
X9814102Y-36142019D02*
X9814102Y-36242019D01*
X9764102Y-36192019D02*
X9864102Y-36192019D01*
X10016956Y-36294880D02*
X10016956Y-36394880D01*
X9966956Y-36344880D02*
X10066956Y-36344880D01*
X18545000Y-31735000D02*
X18545000Y-31835000D01*
X18495000Y-31785000D02*
X18595000Y-31785000D01*
X18780505Y-31639850D02*
X18780505Y-31739850D01*
X18730505Y-31689850D02*
X18830505Y-31689850D01*
X19016009Y-31544700D02*
X19016009Y-31644700D01*
X18966009Y-31594700D02*
X19066009Y-31594700D01*
X19251514Y-31449550D02*
X19251514Y-31549550D01*
X19201514Y-31499550D02*
X19301514Y-31499550D01*
X14733776Y-34616276D02*
X14733776Y-34163724D01*
X14281224Y-34163724D01*
X14281224Y-34616276D01*
X14733776Y-34616276D01*
X14733776Y-31116276D02*
X14733776Y-30663724D01*
X14281224Y-30663724D01*
X14281224Y-31116276D01*
X14733776Y-31116276D01*
X14733776Y-32866276D02*
X14733776Y-32413724D01*
X14281224Y-32413724D01*
X14281224Y-32866276D01*
X14733776Y-32866276D01*
D12*
X2370608Y-37298214D02*
X2370608Y-36998214D01*
X2442036Y-36998214D01*
X2484893Y-37012500D01*
X2513465Y-37041072D01*
X2527750Y-37069643D01*
X2542036Y-37126786D01*
X2542036Y-37169643D01*
X2527750Y-37226786D01*
X2513465Y-37255357D01*
X2484893Y-37283929D01*
X2442036Y-37298214D01*
X2370608Y-37298214D01*
X2670608Y-37298214D02*
X2670608Y-37098214D01*
X2670608Y-37155357D02*
X2684893Y-37126786D01*
X2699179Y-37112500D01*
X2727750Y-37098214D01*
X2756322Y-37098214D01*
X2856322Y-37298214D02*
X2856322Y-37098214D01*
X2856322Y-36998214D02*
X2842036Y-37012500D01*
X2856322Y-37026786D01*
X2870607Y-37012500D01*
X2856322Y-36998214D01*
X2856322Y-37026786D01*
X3042036Y-37298214D02*
X3013465Y-37283929D01*
X2999179Y-37255357D01*
X2999179Y-36998214D01*
X3199179Y-37298214D02*
X3170607Y-37283929D01*
X3156322Y-37255357D01*
X3156322Y-36998214D01*
X3542036Y-37298214D02*
X3542036Y-36998214D01*
X3642036Y-37212500D01*
X3742036Y-36998214D01*
X3742036Y-37298214D01*
X4013465Y-37298214D02*
X4013465Y-37141072D01*
X3999179Y-37112500D01*
X3970607Y-37098214D01*
X3913465Y-37098214D01*
X3884893Y-37112500D01*
X4013465Y-37283929D02*
X3984893Y-37298214D01*
X3913465Y-37298214D01*
X3884893Y-37283929D01*
X3870607Y-37255357D01*
X3870607Y-37226786D01*
X3884893Y-37198214D01*
X3913465Y-37183929D01*
X3984893Y-37183929D01*
X4013465Y-37169643D01*
X4156322Y-37098214D02*
X4156322Y-37398214D01*
X4156322Y-37112500D02*
X4184893Y-37098214D01*
X4242036Y-37098214D01*
X4270608Y-37112500D01*
X4284893Y-37126786D01*
X4299179Y-37155357D01*
X4299179Y-37241072D01*
X4284893Y-37269643D01*
X4270608Y-37283929D01*
X4242036Y-37298214D01*
X4184893Y-37298214D01*
X4156322Y-37283929D01*
X4427750Y-37269643D02*
X4442036Y-37283929D01*
X4427750Y-37298214D01*
X4413465Y-37283929D01*
X4427750Y-37269643D01*
X4427750Y-37298214D01*
X4427750Y-37112500D02*
X4442036Y-37126786D01*
X4427750Y-37141072D01*
X4413465Y-37126786D01*
X4427750Y-37112500D01*
X4427750Y-37141072D01*
X2044179Y-37772500D02*
X2084179Y-37812500D01*
X2084179Y-37772500D02*
X2044179Y-37812500D01*
X2427750Y-37628214D02*
X2456322Y-37628214D01*
X2484893Y-37642500D01*
X2499179Y-37656786D01*
X2513465Y-37685357D01*
X2527750Y-37742500D01*
X2527750Y-37813929D01*
X2513465Y-37871072D01*
X2499179Y-37899643D01*
X2484893Y-37913929D01*
X2456322Y-37928214D01*
X2427750Y-37928214D01*
X2399179Y-37913929D01*
X2384893Y-37899643D01*
X2370608Y-37871072D01*
X2356322Y-37813929D01*
X2356322Y-37742500D01*
X2370608Y-37685357D01*
X2384893Y-37656786D01*
X2399179Y-37642500D01*
X2427750Y-37628214D01*
X2656322Y-37899643D02*
X2670608Y-37913929D01*
X2656322Y-37928214D01*
X2642036Y-37913929D01*
X2656322Y-37899643D01*
X2656322Y-37928214D01*
X2927750Y-37728214D02*
X2927750Y-37928214D01*
X2856322Y-37613929D02*
X2784893Y-37828214D01*
X2970607Y-37828214D01*
X3142036Y-37628214D02*
X3170607Y-37628214D01*
X3199179Y-37642500D01*
X3213465Y-37656786D01*
X3227750Y-37685357D01*
X3242036Y-37742500D01*
X3242036Y-37813929D01*
X3227750Y-37871072D01*
X3213465Y-37899643D01*
X3199179Y-37913929D01*
X3170607Y-37928214D01*
X3142036Y-37928214D01*
X3113465Y-37913929D01*
X3099179Y-37899643D01*
X3084893Y-37871072D01*
X3070607Y-37813929D01*
X3070607Y-37742500D01*
X3084893Y-37685357D01*
X3099179Y-37656786D01*
X3113465Y-37642500D01*
X3142036Y-37628214D01*
X3370607Y-37928214D02*
X3370607Y-37728214D01*
X3370607Y-37756786D02*
X3384893Y-37742500D01*
X3413465Y-37728214D01*
X3456322Y-37728214D01*
X3484893Y-37742500D01*
X3499179Y-37771072D01*
X3499179Y-37928214D01*
X3499179Y-37771072D02*
X3513465Y-37742500D01*
X3542036Y-37728214D01*
X3584893Y-37728214D01*
X3613465Y-37742500D01*
X3627750Y-37771072D01*
X3627750Y-37928214D01*
X3770607Y-37928214D02*
X3770607Y-37728214D01*
X3770607Y-37756786D02*
X3784893Y-37742500D01*
X3813465Y-37728214D01*
X3856322Y-37728214D01*
X3884893Y-37742500D01*
X3899179Y-37771072D01*
X3899179Y-37928214D01*
X3899179Y-37771072D02*
X3913465Y-37742500D01*
X3942036Y-37728214D01*
X3984893Y-37728214D01*
X4013465Y-37742500D01*
X4027750Y-37771072D01*
X4027750Y-37928214D01*
X4613465Y-37613929D02*
X4356322Y-37999643D01*
X4999179Y-37628214D02*
X5027750Y-37628214D01*
X5056322Y-37642500D01*
X5070608Y-37656786D01*
X5084893Y-37685357D01*
X5099179Y-37742500D01*
X5099179Y-37813929D01*
X5084893Y-37871072D01*
X5070608Y-37899643D01*
X5056322Y-37913929D01*
X5027750Y-37928214D01*
X4999179Y-37928214D01*
X4970608Y-37913929D01*
X4956322Y-37899643D01*
X4942036Y-37871072D01*
X4927750Y-37813929D01*
X4927750Y-37742500D01*
X4942036Y-37685357D01*
X4956322Y-37656786D01*
X4970608Y-37642500D01*
X4999179Y-37628214D01*
X5227750Y-37899643D02*
X5242036Y-37913929D01*
X5227750Y-37928214D01*
X5213465Y-37913929D01*
X5227750Y-37899643D01*
X5227750Y-37928214D01*
X5427750Y-37628214D02*
X5456322Y-37628214D01*
X5484893Y-37642500D01*
X5499179Y-37656786D01*
X5513465Y-37685357D01*
X5527750Y-37742500D01*
X5527750Y-37813929D01*
X5513465Y-37871072D01*
X5499179Y-37899643D01*
X5484893Y-37913929D01*
X5456322Y-37928214D01*
X5427750Y-37928214D01*
X5399179Y-37913929D01*
X5384893Y-37899643D01*
X5370608Y-37871072D01*
X5356322Y-37813929D01*
X5356322Y-37742500D01*
X5370608Y-37685357D01*
X5384893Y-37656786D01*
X5399179Y-37642500D01*
X5427750Y-37628214D01*
X5813465Y-37928214D02*
X5642036Y-37928214D01*
X5727750Y-37928214D02*
X5727750Y-37628214D01*
X5699179Y-37671072D01*
X5670607Y-37699643D01*
X5642036Y-37713929D01*
X6070607Y-37628214D02*
X6013465Y-37628214D01*
X5984893Y-37642500D01*
X5970607Y-37656786D01*
X5942036Y-37699643D01*
X5927750Y-37756786D01*
X5927750Y-37871072D01*
X5942036Y-37899643D01*
X5956322Y-37913929D01*
X5984893Y-37928214D01*
X6042036Y-37928214D01*
X6070607Y-37913929D01*
X6084893Y-37899643D01*
X6099179Y-37871072D01*
X6099179Y-37799643D01*
X6084893Y-37771072D01*
X6070607Y-37756786D01*
X6042036Y-37742500D01*
X5984893Y-37742500D01*
X5956322Y-37756786D01*
X5942036Y-37771072D01*
X5927750Y-37799643D01*
X6213465Y-37628214D02*
X6213465Y-37685357D01*
X6327750Y-37628214D02*
X6327750Y-37685357D01*
X6770607Y-38042500D02*
X6756322Y-38028214D01*
X6727750Y-37985357D01*
X6713465Y-37956786D01*
X6699179Y-37913929D01*
X6684893Y-37842500D01*
X6684893Y-37785357D01*
X6699179Y-37713929D01*
X6713465Y-37671072D01*
X6727750Y-37642500D01*
X6756322Y-37599643D01*
X6770607Y-37585357D01*
X6870607Y-37656786D02*
X6884893Y-37642500D01*
X6913465Y-37628214D01*
X6984893Y-37628214D01*
X7013465Y-37642500D01*
X7027750Y-37656786D01*
X7042036Y-37685357D01*
X7042036Y-37713929D01*
X7027750Y-37756786D01*
X6856322Y-37928214D01*
X7042036Y-37928214D01*
X7327750Y-37928214D02*
X7156322Y-37928214D01*
X7242036Y-37928214D02*
X7242036Y-37628214D01*
X7213465Y-37671072D01*
X7184893Y-37699643D01*
X7156322Y-37713929D01*
X7684893Y-37928214D02*
X7684893Y-37628214D01*
X7813465Y-37928214D02*
X7813465Y-37771072D01*
X7799179Y-37742500D01*
X7770607Y-37728214D01*
X7727750Y-37728214D01*
X7699179Y-37742500D01*
X7684893Y-37756786D01*
X7999179Y-37928214D02*
X7970607Y-37913929D01*
X7956322Y-37899643D01*
X7942036Y-37871072D01*
X7942036Y-37785357D01*
X7956322Y-37756786D01*
X7970607Y-37742500D01*
X7999179Y-37728214D01*
X8042036Y-37728214D01*
X8070607Y-37742500D01*
X8084893Y-37756786D01*
X8099179Y-37785357D01*
X8099179Y-37871072D01*
X8084893Y-37899643D01*
X8070607Y-37913929D01*
X8042036Y-37928214D01*
X7999179Y-37928214D01*
X8270607Y-37928214D02*
X8242036Y-37913929D01*
X8227750Y-37885357D01*
X8227750Y-37628214D01*
X8499179Y-37913929D02*
X8470608Y-37928214D01*
X8413465Y-37928214D01*
X8384893Y-37913929D01*
X8370607Y-37885357D01*
X8370607Y-37771072D01*
X8384893Y-37742500D01*
X8413465Y-37728214D01*
X8470608Y-37728214D01*
X8499179Y-37742500D01*
X8513465Y-37771072D01*
X8513465Y-37799643D01*
X8370607Y-37828214D01*
X8627750Y-37913929D02*
X8656322Y-37928214D01*
X8713465Y-37928214D01*
X8742036Y-37913929D01*
X8756322Y-37885357D01*
X8756322Y-37871072D01*
X8742036Y-37842500D01*
X8713465Y-37828214D01*
X8670608Y-37828214D01*
X8642036Y-37813929D01*
X8627750Y-37785357D01*
X8627750Y-37771072D01*
X8642036Y-37742500D01*
X8670608Y-37728214D01*
X8713465Y-37728214D01*
X8742036Y-37742500D01*
X8856322Y-38042500D02*
X8870608Y-38028214D01*
X8899179Y-37985357D01*
X8913465Y-37956786D01*
X8927750Y-37913929D01*
X8942036Y-37842500D01*
X8942036Y-37785357D01*
X8927750Y-37713929D01*
X8913465Y-37671072D01*
X8899179Y-37642500D01*
X8870608Y-37599643D01*
X8856322Y-37585357D01*
X2084179Y-38188500D02*
G75*
G03X2084179Y-38188500I-30000J0D01*
G01*
X2427750Y-38024214D02*
X2456322Y-38024214D01*
X2484893Y-38038500D01*
X2499179Y-38052786D01*
X2513465Y-38081357D01*
X2527750Y-38138500D01*
X2527750Y-38209929D01*
X2513465Y-38267072D01*
X2499179Y-38295643D01*
X2484893Y-38309929D01*
X2456322Y-38324214D01*
X2427750Y-38324214D01*
X2399179Y-38309929D01*
X2384893Y-38295643D01*
X2370608Y-38267072D01*
X2356322Y-38209929D01*
X2356322Y-38138500D01*
X2370608Y-38081357D01*
X2384893Y-38052786D01*
X2399179Y-38038500D01*
X2427750Y-38024214D01*
X2656322Y-38295643D02*
X2670608Y-38309929D01*
X2656322Y-38324214D01*
X2642036Y-38309929D01*
X2656322Y-38295643D01*
X2656322Y-38324214D01*
X2927750Y-38024214D02*
X2870607Y-38024214D01*
X2842036Y-38038500D01*
X2827750Y-38052786D01*
X2799179Y-38095643D01*
X2784893Y-38152786D01*
X2784893Y-38267072D01*
X2799179Y-38295643D01*
X2813465Y-38309929D01*
X2842036Y-38324214D01*
X2899179Y-38324214D01*
X2927750Y-38309929D01*
X2942036Y-38295643D01*
X2956322Y-38267072D01*
X2956322Y-38195643D01*
X2942036Y-38167072D01*
X2927750Y-38152786D01*
X2899179Y-38138500D01*
X2842036Y-38138500D01*
X2813465Y-38152786D01*
X2799179Y-38167072D01*
X2784893Y-38195643D01*
X3142036Y-38024214D02*
X3170607Y-38024214D01*
X3199179Y-38038500D01*
X3213465Y-38052786D01*
X3227750Y-38081357D01*
X3242036Y-38138500D01*
X3242036Y-38209929D01*
X3227750Y-38267072D01*
X3213465Y-38295643D01*
X3199179Y-38309929D01*
X3170607Y-38324214D01*
X3142036Y-38324214D01*
X3113465Y-38309929D01*
X3099179Y-38295643D01*
X3084893Y-38267072D01*
X3070607Y-38209929D01*
X3070607Y-38138500D01*
X3084893Y-38081357D01*
X3099179Y-38052786D01*
X3113465Y-38038500D01*
X3142036Y-38024214D01*
X3370607Y-38324214D02*
X3370607Y-38124214D01*
X3370607Y-38152786D02*
X3384893Y-38138500D01*
X3413465Y-38124214D01*
X3456322Y-38124214D01*
X3484893Y-38138500D01*
X3499179Y-38167072D01*
X3499179Y-38324214D01*
X3499179Y-38167072D02*
X3513465Y-38138500D01*
X3542036Y-38124214D01*
X3584893Y-38124214D01*
X3613465Y-38138500D01*
X3627750Y-38167072D01*
X3627750Y-38324214D01*
X3770607Y-38324214D02*
X3770607Y-38124214D01*
X3770607Y-38152786D02*
X3784893Y-38138500D01*
X3813465Y-38124214D01*
X3856322Y-38124214D01*
X3884893Y-38138500D01*
X3899179Y-38167072D01*
X3899179Y-38324214D01*
X3899179Y-38167072D02*
X3913465Y-38138500D01*
X3942036Y-38124214D01*
X3984893Y-38124214D01*
X4013465Y-38138500D01*
X4027750Y-38167072D01*
X4027750Y-38324214D01*
X4613465Y-38009929D02*
X4356322Y-38395643D01*
X4999179Y-38024214D02*
X5027750Y-38024214D01*
X5056322Y-38038500D01*
X5070608Y-38052786D01*
X5084893Y-38081357D01*
X5099179Y-38138500D01*
X5099179Y-38209929D01*
X5084893Y-38267072D01*
X5070608Y-38295643D01*
X5056322Y-38309929D01*
X5027750Y-38324214D01*
X4999179Y-38324214D01*
X4970608Y-38309929D01*
X4956322Y-38295643D01*
X4942036Y-38267072D01*
X4927750Y-38209929D01*
X4927750Y-38138500D01*
X4942036Y-38081357D01*
X4956322Y-38052786D01*
X4970608Y-38038500D01*
X4999179Y-38024214D01*
X5227750Y-38295643D02*
X5242036Y-38309929D01*
X5227750Y-38324214D01*
X5213465Y-38309929D01*
X5227750Y-38295643D01*
X5227750Y-38324214D01*
X5427750Y-38024214D02*
X5456322Y-38024214D01*
X5484893Y-38038500D01*
X5499179Y-38052786D01*
X5513465Y-38081357D01*
X5527750Y-38138500D01*
X5527750Y-38209929D01*
X5513465Y-38267072D01*
X5499179Y-38295643D01*
X5484893Y-38309929D01*
X5456322Y-38324214D01*
X5427750Y-38324214D01*
X5399179Y-38309929D01*
X5384893Y-38295643D01*
X5370608Y-38267072D01*
X5356322Y-38209929D01*
X5356322Y-38138500D01*
X5370608Y-38081357D01*
X5384893Y-38052786D01*
X5399179Y-38038500D01*
X5427750Y-38024214D01*
X5642036Y-38052786D02*
X5656322Y-38038500D01*
X5684893Y-38024214D01*
X5756322Y-38024214D01*
X5784893Y-38038500D01*
X5799179Y-38052786D01*
X5813465Y-38081357D01*
X5813465Y-38109929D01*
X5799179Y-38152786D01*
X5627750Y-38324214D01*
X5813465Y-38324214D01*
X6070607Y-38124214D02*
X6070607Y-38324214D01*
X5999179Y-38009929D02*
X5927750Y-38224214D01*
X6113465Y-38224214D01*
X6213465Y-38024214D02*
X6213465Y-38081357D01*
X6327750Y-38024214D02*
X6327750Y-38081357D01*
X6770607Y-38438500D02*
X6756322Y-38424214D01*
X6727750Y-38381357D01*
X6713465Y-38352786D01*
X6699179Y-38309929D01*
X6684893Y-38238500D01*
X6684893Y-38181357D01*
X6699179Y-38109929D01*
X6713465Y-38067072D01*
X6727750Y-38038500D01*
X6756322Y-37995643D01*
X6770607Y-37981357D01*
X6870607Y-38052786D02*
X6884893Y-38038500D01*
X6913465Y-38024214D01*
X6984893Y-38024214D01*
X7013465Y-38038500D01*
X7027750Y-38052786D01*
X7042036Y-38081357D01*
X7042036Y-38109929D01*
X7027750Y-38152786D01*
X6856322Y-38324214D01*
X7042036Y-38324214D01*
X7299179Y-38124214D02*
X7299179Y-38324214D01*
X7227750Y-38009929D02*
X7156322Y-38224214D01*
X7342036Y-38224214D01*
X7684893Y-38324214D02*
X7684893Y-38024214D01*
X7813465Y-38324214D02*
X7813465Y-38167072D01*
X7799179Y-38138500D01*
X7770607Y-38124214D01*
X7727750Y-38124214D01*
X7699179Y-38138500D01*
X7684893Y-38152786D01*
X7999179Y-38324214D02*
X7970607Y-38309929D01*
X7956322Y-38295643D01*
X7942036Y-38267072D01*
X7942036Y-38181357D01*
X7956322Y-38152786D01*
X7970607Y-38138500D01*
X7999179Y-38124214D01*
X8042036Y-38124214D01*
X8070607Y-38138500D01*
X8084893Y-38152786D01*
X8099179Y-38181357D01*
X8099179Y-38267072D01*
X8084893Y-38295643D01*
X8070607Y-38309929D01*
X8042036Y-38324214D01*
X7999179Y-38324214D01*
X8270607Y-38324214D02*
X8242036Y-38309929D01*
X8227750Y-38281357D01*
X8227750Y-38024214D01*
X8499179Y-38309929D02*
X8470608Y-38324214D01*
X8413465Y-38324214D01*
X8384893Y-38309929D01*
X8370607Y-38281357D01*
X8370607Y-38167072D01*
X8384893Y-38138500D01*
X8413465Y-38124214D01*
X8470608Y-38124214D01*
X8499179Y-38138500D01*
X8513465Y-38167072D01*
X8513465Y-38195643D01*
X8370607Y-38224214D01*
X8627750Y-38309929D02*
X8656322Y-38324214D01*
X8713465Y-38324214D01*
X8742036Y-38309929D01*
X8756322Y-38281357D01*
X8756322Y-38267072D01*
X8742036Y-38238500D01*
X8713465Y-38224214D01*
X8670608Y-38224214D01*
X8642036Y-38209929D01*
X8627750Y-38181357D01*
X8627750Y-38167072D01*
X8642036Y-38138500D01*
X8670608Y-38124214D01*
X8713465Y-38124214D01*
X8742036Y-38138500D01*
X8856322Y-38438500D02*
X8870608Y-38424214D01*
X8899179Y-38381357D01*
X8913465Y-38352786D01*
X8927750Y-38309929D01*
X8942036Y-38238500D01*
X8942036Y-38181357D01*
X8927750Y-38109929D01*
X8913465Y-38067072D01*
X8899179Y-38038500D01*
X8870608Y-37995643D01*
X8856322Y-37981357D01*
X2034179Y-38534500D02*
X2034179Y-38634500D01*
X1984179Y-38584500D02*
X2084179Y-38584500D01*
X2527750Y-38720214D02*
X2356322Y-38720214D01*
X2442036Y-38720214D02*
X2442036Y-38420214D01*
X2413465Y-38463072D01*
X2384893Y-38491643D01*
X2356322Y-38505929D01*
X2656322Y-38691643D02*
X2670608Y-38705929D01*
X2656322Y-38720214D01*
X2642036Y-38705929D01*
X2656322Y-38691643D01*
X2656322Y-38720214D01*
X2856322Y-38420214D02*
X2884893Y-38420214D01*
X2913465Y-38434500D01*
X2927750Y-38448786D01*
X2942036Y-38477357D01*
X2956322Y-38534500D01*
X2956322Y-38605929D01*
X2942036Y-38663072D01*
X2927750Y-38691643D01*
X2913465Y-38705929D01*
X2884893Y-38720214D01*
X2856322Y-38720214D01*
X2827750Y-38705929D01*
X2813465Y-38691643D01*
X2799179Y-38663072D01*
X2784893Y-38605929D01*
X2784893Y-38534500D01*
X2799179Y-38477357D01*
X2813465Y-38448786D01*
X2827750Y-38434500D01*
X2856322Y-38420214D01*
X3142036Y-38420214D02*
X3170607Y-38420214D01*
X3199179Y-38434500D01*
X3213465Y-38448786D01*
X3227750Y-38477357D01*
X3242036Y-38534500D01*
X3242036Y-38605929D01*
X3227750Y-38663072D01*
X3213465Y-38691643D01*
X3199179Y-38705929D01*
X3170607Y-38720214D01*
X3142036Y-38720214D01*
X3113465Y-38705929D01*
X3099179Y-38691643D01*
X3084893Y-38663072D01*
X3070607Y-38605929D01*
X3070607Y-38534500D01*
X3084893Y-38477357D01*
X3099179Y-38448786D01*
X3113465Y-38434500D01*
X3142036Y-38420214D01*
X3370607Y-38720214D02*
X3370607Y-38520214D01*
X3370607Y-38548786D02*
X3384893Y-38534500D01*
X3413465Y-38520214D01*
X3456322Y-38520214D01*
X3484893Y-38534500D01*
X3499179Y-38563072D01*
X3499179Y-38720214D01*
X3499179Y-38563072D02*
X3513465Y-38534500D01*
X3542036Y-38520214D01*
X3584893Y-38520214D01*
X3613465Y-38534500D01*
X3627750Y-38563072D01*
X3627750Y-38720214D01*
X3770607Y-38720214D02*
X3770607Y-38520214D01*
X3770607Y-38548786D02*
X3784893Y-38534500D01*
X3813465Y-38520214D01*
X3856322Y-38520214D01*
X3884893Y-38534500D01*
X3899179Y-38563072D01*
X3899179Y-38720214D01*
X3899179Y-38563072D02*
X3913465Y-38534500D01*
X3942036Y-38520214D01*
X3984893Y-38520214D01*
X4013465Y-38534500D01*
X4027750Y-38563072D01*
X4027750Y-38720214D01*
X4613465Y-38405929D02*
X4356322Y-38791643D01*
X4999179Y-38420214D02*
X5027750Y-38420214D01*
X5056322Y-38434500D01*
X5070608Y-38448786D01*
X5084893Y-38477357D01*
X5099179Y-38534500D01*
X5099179Y-38605929D01*
X5084893Y-38663072D01*
X5070608Y-38691643D01*
X5056322Y-38705929D01*
X5027750Y-38720214D01*
X4999179Y-38720214D01*
X4970608Y-38705929D01*
X4956322Y-38691643D01*
X4942036Y-38663072D01*
X4927750Y-38605929D01*
X4927750Y-38534500D01*
X4942036Y-38477357D01*
X4956322Y-38448786D01*
X4970608Y-38434500D01*
X4999179Y-38420214D01*
X5227750Y-38691643D02*
X5242036Y-38705929D01*
X5227750Y-38720214D01*
X5213465Y-38705929D01*
X5227750Y-38691643D01*
X5227750Y-38720214D01*
X5427750Y-38420214D02*
X5456322Y-38420214D01*
X5484893Y-38434500D01*
X5499179Y-38448786D01*
X5513465Y-38477357D01*
X5527750Y-38534500D01*
X5527750Y-38605929D01*
X5513465Y-38663072D01*
X5499179Y-38691643D01*
X5484893Y-38705929D01*
X5456322Y-38720214D01*
X5427750Y-38720214D01*
X5399179Y-38705929D01*
X5384893Y-38691643D01*
X5370608Y-38663072D01*
X5356322Y-38605929D01*
X5356322Y-38534500D01*
X5370608Y-38477357D01*
X5384893Y-38448786D01*
X5399179Y-38434500D01*
X5427750Y-38420214D01*
X5627750Y-38420214D02*
X5813465Y-38420214D01*
X5713465Y-38534500D01*
X5756322Y-38534500D01*
X5784893Y-38548786D01*
X5799179Y-38563072D01*
X5813465Y-38591643D01*
X5813465Y-38663072D01*
X5799179Y-38691643D01*
X5784893Y-38705929D01*
X5756322Y-38720214D01*
X5670607Y-38720214D01*
X5642036Y-38705929D01*
X5627750Y-38691643D01*
X5956322Y-38720214D02*
X6013465Y-38720214D01*
X6042036Y-38705929D01*
X6056322Y-38691643D01*
X6084893Y-38648786D01*
X6099179Y-38591643D01*
X6099179Y-38477357D01*
X6084893Y-38448786D01*
X6070607Y-38434500D01*
X6042036Y-38420214D01*
X5984893Y-38420214D01*
X5956322Y-38434500D01*
X5942036Y-38448786D01*
X5927750Y-38477357D01*
X5927750Y-38548786D01*
X5942036Y-38577357D01*
X5956322Y-38591643D01*
X5984893Y-38605929D01*
X6042036Y-38605929D01*
X6070607Y-38591643D01*
X6084893Y-38577357D01*
X6099179Y-38548786D01*
X6213465Y-38420214D02*
X6213465Y-38477357D01*
X6327750Y-38420214D02*
X6327750Y-38477357D01*
X6770607Y-38834500D02*
X6756322Y-38820214D01*
X6727750Y-38777357D01*
X6713465Y-38748786D01*
X6699179Y-38705929D01*
X6684893Y-38634500D01*
X6684893Y-38577357D01*
X6699179Y-38505929D01*
X6713465Y-38463072D01*
X6727750Y-38434500D01*
X6756322Y-38391643D01*
X6770607Y-38377357D01*
X7013465Y-38520214D02*
X7013465Y-38720214D01*
X6942036Y-38405929D02*
X6870607Y-38620214D01*
X7056322Y-38620214D01*
X7227750Y-38420214D02*
X7256322Y-38420214D01*
X7284893Y-38434500D01*
X7299179Y-38448786D01*
X7313465Y-38477357D01*
X7327750Y-38534500D01*
X7327750Y-38605929D01*
X7313465Y-38663072D01*
X7299179Y-38691643D01*
X7284893Y-38705929D01*
X7256322Y-38720214D01*
X7227750Y-38720214D01*
X7199179Y-38705929D01*
X7184893Y-38691643D01*
X7170607Y-38663072D01*
X7156322Y-38605929D01*
X7156322Y-38534500D01*
X7170607Y-38477357D01*
X7184893Y-38448786D01*
X7199179Y-38434500D01*
X7227750Y-38420214D01*
X7684893Y-38720214D02*
X7684893Y-38420214D01*
X7813465Y-38720214D02*
X7813465Y-38563072D01*
X7799179Y-38534500D01*
X7770607Y-38520214D01*
X7727750Y-38520214D01*
X7699179Y-38534500D01*
X7684893Y-38548786D01*
X7999179Y-38720214D02*
X7970607Y-38705929D01*
X7956322Y-38691643D01*
X7942036Y-38663072D01*
X7942036Y-38577357D01*
X7956322Y-38548786D01*
X7970607Y-38534500D01*
X7999179Y-38520214D01*
X8042036Y-38520214D01*
X8070607Y-38534500D01*
X8084893Y-38548786D01*
X8099179Y-38577357D01*
X8099179Y-38663072D01*
X8084893Y-38691643D01*
X8070607Y-38705929D01*
X8042036Y-38720214D01*
X7999179Y-38720214D01*
X8270607Y-38720214D02*
X8242036Y-38705929D01*
X8227750Y-38677357D01*
X8227750Y-38420214D01*
X8499179Y-38705929D02*
X8470608Y-38720214D01*
X8413465Y-38720214D01*
X8384893Y-38705929D01*
X8370607Y-38677357D01*
X8370607Y-38563072D01*
X8384893Y-38534500D01*
X8413465Y-38520214D01*
X8470608Y-38520214D01*
X8499179Y-38534500D01*
X8513465Y-38563072D01*
X8513465Y-38591643D01*
X8370607Y-38620214D01*
X8627750Y-38705929D02*
X8656322Y-38720214D01*
X8713465Y-38720214D01*
X8742036Y-38705929D01*
X8756322Y-38677357D01*
X8756322Y-38663072D01*
X8742036Y-38634500D01*
X8713465Y-38620214D01*
X8670608Y-38620214D01*
X8642036Y-38605929D01*
X8627750Y-38577357D01*
X8627750Y-38563072D01*
X8642036Y-38534500D01*
X8670608Y-38520214D01*
X8713465Y-38520214D01*
X8742036Y-38534500D01*
X8856322Y-38834500D02*
X8870608Y-38820214D01*
X8899179Y-38777357D01*
X8913465Y-38748786D01*
X8927750Y-38705929D01*
X8942036Y-38634500D01*
X8942036Y-38577357D01*
X8927750Y-38505929D01*
X8913465Y-38463072D01*
X8899179Y-38434500D01*
X8870608Y-38391643D01*
X8856322Y-38377357D01*
X1990455Y-39206776D02*
X1990455Y-38754224D01*
X1537903Y-38754224D01*
X1537903Y-39206776D01*
X1990455Y-39206776D01*
X2499179Y-38816214D02*
X2442036Y-38816214D01*
X2413465Y-38830500D01*
X2399179Y-38844786D01*
X2370608Y-38887643D01*
X2356322Y-38944786D01*
X2356322Y-39059072D01*
X2370608Y-39087643D01*
X2384893Y-39101929D01*
X2413465Y-39116214D01*
X2470608Y-39116214D01*
X2499179Y-39101929D01*
X2513465Y-39087643D01*
X2527750Y-39059072D01*
X2527750Y-38987643D01*
X2513465Y-38959072D01*
X2499179Y-38944786D01*
X2470608Y-38930500D01*
X2413465Y-38930500D01*
X2384893Y-38944786D01*
X2370608Y-38959072D01*
X2356322Y-38987643D01*
X2656322Y-39087643D02*
X2670608Y-39101929D01*
X2656322Y-39116214D01*
X2642036Y-39101929D01*
X2656322Y-39087643D01*
X2656322Y-39116214D01*
X2927750Y-38916214D02*
X2927750Y-39116214D01*
X2856322Y-38801929D02*
X2784893Y-39016214D01*
X2970607Y-39016214D01*
X3142036Y-38816214D02*
X3170607Y-38816214D01*
X3199179Y-38830500D01*
X3213465Y-38844786D01*
X3227750Y-38873357D01*
X3242036Y-38930500D01*
X3242036Y-39001929D01*
X3227750Y-39059072D01*
X3213465Y-39087643D01*
X3199179Y-39101929D01*
X3170607Y-39116214D01*
X3142036Y-39116214D01*
X3113465Y-39101929D01*
X3099179Y-39087643D01*
X3084893Y-39059072D01*
X3070607Y-39001929D01*
X3070607Y-38930500D01*
X3084893Y-38873357D01*
X3099179Y-38844786D01*
X3113465Y-38830500D01*
X3142036Y-38816214D01*
X3370607Y-39116214D02*
X3370607Y-38916214D01*
X3370607Y-38944786D02*
X3384893Y-38930500D01*
X3413465Y-38916214D01*
X3456322Y-38916214D01*
X3484893Y-38930500D01*
X3499179Y-38959072D01*
X3499179Y-39116214D01*
X3499179Y-38959072D02*
X3513465Y-38930500D01*
X3542036Y-38916214D01*
X3584893Y-38916214D01*
X3613465Y-38930500D01*
X3627750Y-38959072D01*
X3627750Y-39116214D01*
X3770607Y-39116214D02*
X3770607Y-38916214D01*
X3770607Y-38944786D02*
X3784893Y-38930500D01*
X3813465Y-38916214D01*
X3856322Y-38916214D01*
X3884893Y-38930500D01*
X3899179Y-38959072D01*
X3899179Y-39116214D01*
X3899179Y-38959072D02*
X3913465Y-38930500D01*
X3942036Y-38916214D01*
X3984893Y-38916214D01*
X4013465Y-38930500D01*
X4027750Y-38959072D01*
X4027750Y-39116214D01*
X4613465Y-38801929D02*
X4356322Y-39187643D01*
X4999179Y-38816214D02*
X5027750Y-38816214D01*
X5056322Y-38830500D01*
X5070608Y-38844786D01*
X5084893Y-38873357D01*
X5099179Y-38930500D01*
X5099179Y-39001929D01*
X5084893Y-39059072D01*
X5070608Y-39087643D01*
X5056322Y-39101929D01*
X5027750Y-39116214D01*
X4999179Y-39116214D01*
X4970608Y-39101929D01*
X4956322Y-39087643D01*
X4942036Y-39059072D01*
X4927750Y-39001929D01*
X4927750Y-38930500D01*
X4942036Y-38873357D01*
X4956322Y-38844786D01*
X4970608Y-38830500D01*
X4999179Y-38816214D01*
X5227750Y-39087643D02*
X5242036Y-39101929D01*
X5227750Y-39116214D01*
X5213465Y-39101929D01*
X5227750Y-39087643D01*
X5227750Y-39116214D01*
X5356322Y-38844786D02*
X5370608Y-38830500D01*
X5399179Y-38816214D01*
X5470608Y-38816214D01*
X5499179Y-38830500D01*
X5513465Y-38844786D01*
X5527750Y-38873357D01*
X5527750Y-38901929D01*
X5513465Y-38944786D01*
X5342036Y-39116214D01*
X5527750Y-39116214D01*
X5799179Y-38816214D02*
X5656322Y-38816214D01*
X5642036Y-38959072D01*
X5656322Y-38944786D01*
X5684893Y-38930500D01*
X5756322Y-38930500D01*
X5784893Y-38944786D01*
X5799179Y-38959072D01*
X5813465Y-38987643D01*
X5813465Y-39059072D01*
X5799179Y-39087643D01*
X5784893Y-39101929D01*
X5756322Y-39116214D01*
X5684893Y-39116214D01*
X5656322Y-39101929D01*
X5642036Y-39087643D01*
X5927750Y-38844786D02*
X5942036Y-38830500D01*
X5970607Y-38816214D01*
X6042036Y-38816214D01*
X6070607Y-38830500D01*
X6084893Y-38844786D01*
X6099179Y-38873357D01*
X6099179Y-38901929D01*
X6084893Y-38944786D01*
X5913465Y-39116214D01*
X6099179Y-39116214D01*
X6213465Y-38816214D02*
X6213465Y-38873357D01*
X6327750Y-38816214D02*
X6327750Y-38873357D01*
X6770607Y-39230500D02*
X6756322Y-39216214D01*
X6727750Y-39173357D01*
X6713465Y-39144786D01*
X6699179Y-39101929D01*
X6684893Y-39030500D01*
X6684893Y-38973357D01*
X6699179Y-38901929D01*
X6713465Y-38859072D01*
X6727750Y-38830500D01*
X6756322Y-38787643D01*
X6770607Y-38773357D01*
X6856322Y-38816214D02*
X7042036Y-38816214D01*
X6942036Y-38930500D01*
X6984893Y-38930500D01*
X7013465Y-38944786D01*
X7027750Y-38959072D01*
X7042036Y-38987643D01*
X7042036Y-39059072D01*
X7027750Y-39087643D01*
X7013465Y-39101929D01*
X6984893Y-39116214D01*
X6899179Y-39116214D01*
X6870607Y-39101929D01*
X6856322Y-39087643D01*
X7399179Y-39116214D02*
X7399179Y-38816214D01*
X7527750Y-39116214D02*
X7527750Y-38959072D01*
X7513465Y-38930500D01*
X7484893Y-38916214D01*
X7442036Y-38916214D01*
X7413465Y-38930500D01*
X7399179Y-38944786D01*
X7713465Y-39116214D02*
X7684893Y-39101929D01*
X7670607Y-39087643D01*
X7656322Y-39059072D01*
X7656322Y-38973357D01*
X7670607Y-38944786D01*
X7684893Y-38930500D01*
X7713465Y-38916214D01*
X7756322Y-38916214D01*
X7784893Y-38930500D01*
X7799179Y-38944786D01*
X7813465Y-38973357D01*
X7813465Y-39059072D01*
X7799179Y-39087643D01*
X7784893Y-39101929D01*
X7756322Y-39116214D01*
X7713465Y-39116214D01*
X7984893Y-39116214D02*
X7956322Y-39101929D01*
X7942036Y-39073357D01*
X7942036Y-38816214D01*
X8213465Y-39101929D02*
X8184893Y-39116214D01*
X8127750Y-39116214D01*
X8099179Y-39101929D01*
X8084893Y-39073357D01*
X8084893Y-38959072D01*
X8099179Y-38930500D01*
X8127750Y-38916214D01*
X8184893Y-38916214D01*
X8213465Y-38930500D01*
X8227750Y-38959072D01*
X8227750Y-38987643D01*
X8084893Y-39016214D01*
X8342036Y-39101929D02*
X8370607Y-39116214D01*
X8427750Y-39116214D01*
X8456322Y-39101929D01*
X8470608Y-39073357D01*
X8470608Y-39059072D01*
X8456322Y-39030500D01*
X8427750Y-39016214D01*
X8384893Y-39016214D01*
X8356322Y-39001929D01*
X8342036Y-38973357D01*
X8342036Y-38959072D01*
X8356322Y-38930500D01*
X8384893Y-38916214D01*
X8427750Y-38916214D01*
X8456322Y-38930500D01*
X8570608Y-39230500D02*
X8584893Y-39216214D01*
X8613465Y-39173357D01*
X8627750Y-39144786D01*
X8642036Y-39101929D01*
X8656322Y-39030500D01*
X8656322Y-38973357D01*
X8642036Y-38901929D01*
X8627750Y-38859072D01*
X8613465Y-38830500D01*
X8584893Y-38787643D01*
X8570608Y-38773357D01*
M02*
