M48
; DRILL file {KiCad (5.1.4)-1} date 3/14/2023 1:34:07 PM
; FORMAT={-:-/ absolute / metric / decimal}
; #@! TF.CreationDate,2023-03-14T13:34:07-04:00
; #@! TF.GenerationSoftware,Kicad,Pcbnew,(5.1.4)-1
; #@! TF.FileFunction,NonPlated,1,2,NPTH
FMAT,2
METRIC
T1C1.702
T2C3.000
T3C3.429
%
G90
G05
T1
X92.466Y-273.976
X102.665Y-278.096
X79.354Y-306.427
X89.553Y-310.548
X194.026Y-294.298
X204.225Y-290.178
X25.648Y-291.199
X35.847Y-295.32
X213.052Y-292.004
X223.251Y-287.884
X225.522Y-273.484
X235.721Y-269.363
X187.47Y-278.073
X197.669Y-273.952
X66.884Y-287.907
X77.083Y-292.028
X60.328Y-304.133
X70.527Y-308.253
X54.414Y-269.387
X64.613Y-273.508
X241.177Y-262.845
X251.376Y-258.725
X38.759Y-258.748
X48.958Y-262.869
X254.288Y-295.297
X264.487Y-291.176
X206.496Y-275.778
X216.695Y-271.658
X247.732Y-279.071
X257.931Y-274.95
X219.608Y-308.23
X229.807Y-304.109
X200.582Y-310.524
X210.781Y-306.404
X85.91Y-290.201
X96.109Y-294.322
X41.302Y-301.838
X51.501Y-305.959
X47.858Y-285.613
X58.057Y-289.733
X73.44Y-271.681
X83.639Y-275.802
X32.204Y-274.974
X42.403Y-279.094
X238.634Y-305.936
X248.833Y-301.815
X232.078Y-289.71
X242.277Y-285.589
T2
X249.601Y-282.361
X255.061Y-282.527
X221.476Y-311.52
X226.936Y-311.686
X202.45Y-313.814
X207.91Y-313.981
X93.238Y-286.745
X97.05Y-290.658
X48.631Y-298.382
X52.443Y-302.295
X55.186Y-282.156
X58.998Y-286.069
X80.768Y-268.225
X84.58Y-272.138
X39.532Y-271.517
X43.344Y-275.43
X240.502Y-309.225
X245.962Y-309.392
X233.946Y-293.0
X239.406Y-293.166
X99.794Y-270.519
X103.606Y-274.432
X86.683Y-302.971
X90.494Y-306.883
X195.894Y-297.588
X201.354Y-297.755
X32.976Y-287.743
X36.788Y-291.656
X214.92Y-295.294
X220.38Y-295.461
X227.391Y-276.774
X232.851Y-276.941
X189.339Y-281.362
X194.799Y-281.529
X74.212Y-284.451
X78.024Y-288.363
X67.657Y-300.676
X71.469Y-304.589
X61.742Y-265.93
X65.554Y-269.843
X243.045Y-266.135
X248.505Y-266.302
X46.088Y-255.292
X49.899Y-259.204
X256.156Y-298.586
X261.616Y-298.753
X208.365Y-279.068
X213.825Y-279.235
T3
X91.009Y-292.262
X46.402Y-303.899
X52.958Y-287.673
X78.539Y-273.742
X37.303Y-277.034
X243.733Y-303.875
X237.177Y-287.65
X97.565Y-276.036
X84.454Y-308.487
X199.126Y-292.238
X30.747Y-293.26
X218.152Y-289.944
X230.622Y-271.424
X192.57Y-276.012
X71.983Y-289.967
X65.428Y-306.193
X59.513Y-271.447
X246.276Y-260.785
X43.859Y-260.808
X259.388Y-293.236
X211.596Y-273.718
X252.832Y-277.011
X224.707Y-306.17
X205.681Y-308.464
T0
M30
