M48
; DRILL file {KiCad (5.1.4)-1} date 4/24/2024 8:53:11 PM
; FORMAT={-:-/ absolute / metric / decimal}
; #@! TF.CreationDate,2024-04-24T20:53:11-04:00
; #@! TF.GenerationSoftware,Kicad,Pcbnew,(5.1.4)-1
; #@! TF.FileFunction,Plated,1,2,PTH
FMAT,2
METRIC
T1C0.400
T2C0.600
T3C1.000
T4C6.400
%
G90
G05
T1
X40.45Y-297.9
X47.05Y-281.8
X53.8Y-265.75
X56.15Y-308.4
X62.7Y-292.15
X69.45Y-276.2
X75.3Y-311.0
X81.75Y-294.5
X88.45Y-278.35
X182.9Y-285.7
X189.9Y-302.6
X196.3Y-318.6
X202.3Y-284.55
X208.85Y-300.7
X215.45Y-316.75
X221.25Y-282.05
X228.1Y-298.2
X234.5Y-314.4
X239.0Y-272.8
X245.6Y-288.6
X250.3Y-304.5
T2
X140.275Y-343.9
X141.681Y-340.506
X141.681Y-347.294
X145.075Y-339.1
X145.075Y-348.7
X148.469Y-340.506
X148.469Y-347.294
X149.875Y-343.9
X140.275Y-308.9
X141.681Y-305.506
X141.681Y-312.294
X145.075Y-304.1
X145.075Y-313.7
X148.469Y-305.506
X148.469Y-312.294
X149.875Y-308.9
X140.275Y-326.4
X141.681Y-323.006
X141.681Y-329.794
X145.075Y-321.6
X145.075Y-331.2
X148.469Y-323.006
X148.469Y-329.794
X149.875Y-326.4
T3
X47.884Y-326.931
X48.836Y-324.576
X49.787Y-322.221
X50.739Y-319.866
X178.95Y-301.35
X181.305Y-300.398
X183.66Y-299.447
X186.015Y-298.495
X98.12Y-313.645
X100.475Y-314.597
X102.83Y-315.548
X105.185Y-316.5
X171.336Y-284.052
X173.691Y-283.101
X176.046Y-282.149
X178.401Y-281.198
X239.873Y-319.665
X240.824Y-322.02
X241.776Y-324.375
X242.727Y-326.73
X104.935Y-297.645
X107.29Y-298.597
X109.645Y-299.548
X112.0Y-300.5
X190.058Y-363.388
X192.087Y-361.859
X194.115Y-360.331
X196.144Y-358.802
X111.492Y-281.339
X113.847Y-282.291
X116.203Y-283.242
X118.558Y-284.194
X94.084Y-358.863
X96.112Y-360.392
X98.141Y-361.92
X100.17Y-363.449
X185.45Y-317.85
X187.805Y-316.898
X190.16Y-315.947
X192.515Y-314.995
T4
X145.075Y-343.9
X145.075Y-308.9
X145.075Y-326.4
T0
M30
