M48
; DRILL file {KiCad (5.1.4)-1} date 4/24/2024 8:53:11 PM
; FORMAT={-:-/ absolute / metric / decimal}
; #@! TF.CreationDate,2024-04-24T20:53:11-04:00
; #@! TF.GenerationSoftware,Kicad,Pcbnew,(5.1.4)-1
; #@! TF.FileFunction,NonPlated,1,2,NPTH
FMAT,2
METRIC
T1C1.702
T2C3.000
T3C3.429
%
G90
G05
T1
X186.07Y-281.373
X196.269Y-277.252
X42.702Y-305.138
X52.901Y-309.259
X252.888Y-298.597
X263.087Y-294.476
X93.866Y-277.276
X104.065Y-281.396
X49.258Y-288.913
X59.457Y-293.033
X246.332Y-282.371
X256.531Y-278.25
X61.728Y-307.433
X71.927Y-311.553
X74.84Y-274.981
X85.039Y-279.102
X40.159Y-262.048
X50.358Y-266.169
X230.678Y-293.01
X240.877Y-288.889
X199.182Y-313.824
X209.381Y-309.704
X80.754Y-309.727
X90.953Y-313.848
X211.652Y-295.304
X221.851Y-291.184
X33.604Y-278.274
X43.803Y-282.394
X218.208Y-311.53
X228.407Y-307.409
X87.31Y-293.501
X97.509Y-297.622
X239.777Y-266.145
X249.976Y-262.025
X68.284Y-291.207
X78.483Y-295.328
X55.814Y-272.687
X66.013Y-276.808
X205.096Y-279.078
X215.295Y-274.958
X237.234Y-309.236
X247.433Y-305.115
X224.122Y-276.784
X234.321Y-272.663
X27.048Y-294.499
X37.247Y-298.62
X192.626Y-297.598
X202.825Y-293.478
T2
X213.52Y-298.594
X218.98Y-298.761
X40.932Y-274.817
X44.744Y-278.73
X220.076Y-314.82
X225.536Y-314.986
X94.638Y-290.045
X98.45Y-293.958
X241.645Y-269.435
X247.105Y-269.602
X75.612Y-287.751
X79.424Y-291.663
X63.142Y-269.23
X66.954Y-273.143
X206.965Y-282.368
X212.425Y-282.535
X239.102Y-312.525
X244.562Y-312.692
X225.991Y-280.074
X231.451Y-280.241
X34.376Y-291.043
X38.188Y-294.956
X194.494Y-300.888
X199.954Y-301.055
X187.939Y-284.662
X193.399Y-284.829
X50.031Y-301.682
X53.843Y-305.595
X254.756Y-301.886
X260.216Y-302.053
X101.194Y-273.819
X105.006Y-277.732
X56.586Y-285.456
X60.398Y-289.369
X248.201Y-285.661
X253.661Y-285.827
X69.057Y-303.976
X72.869Y-307.889
X82.168Y-271.525
X85.98Y-275.438
X47.488Y-258.592
X51.299Y-262.504
X232.546Y-296.3
X238.006Y-296.466
X201.05Y-317.114
X206.51Y-317.281
X88.083Y-306.271
X91.894Y-310.183
T3
X216.752Y-293.244
X38.703Y-280.334
X223.307Y-309.47
X92.409Y-295.562
X244.876Y-264.085
X73.383Y-293.267
X60.913Y-274.747
X210.196Y-277.018
X242.333Y-307.175
X229.222Y-274.724
X32.147Y-296.56
X197.726Y-295.538
X191.17Y-279.312
X47.802Y-307.199
X257.988Y-296.536
X98.965Y-279.336
X54.358Y-290.973
X251.432Y-280.311
X66.828Y-309.493
X79.939Y-277.042
X45.259Y-264.108
X235.777Y-290.95
X204.281Y-311.764
X85.854Y-311.787
T0
M30
