M48
; DRILL file {KiCad (5.1.4)-1} date 4/24/2024 8:57:58 PM
; FORMAT={-:-/ absolute / metric / decimal}
; #@! TF.CreationDate,2024-04-24T20:57:58-04:00
; #@! TF.GenerationSoftware,Kicad,Pcbnew,(5.1.4)-1
; #@! TF.FileFunction,NonPlated,1,2,NPTH
FMAT,2
METRIC
T1C1.702
T2C3.000
T3C3.429
%
G90
G05
T1
X392.623Y-16.439
X401.408Y-9.819
X379.058Y-31.66
X387.842Y-25.04
X310.415Y-9.851
X319.2Y-16.471
X295.64Y1.282
X304.425Y-5.338
X323.658Y-25.04
X332.442Y-31.66
X407.397Y-5.305
X416.182Y1.315
T2
X393.434Y-8.377
X398.751Y-7.125
X381.714Y-34.354
X387.031Y-33.102
X318.388Y-8.409
X321.057Y-13.175
X303.613Y2.724
X306.282Y-2.042
X331.631Y-23.598
X334.3Y-28.364
X410.053Y-7.999
X415.371Y-6.747
T3
X383.45Y-28.35
X300.033Y-2.028
X328.05Y-28.35
X411.79Y-1.995
X397.015Y-13.129
X314.807Y-13.161
T0
M30
