M48
; DRILL file {KiCad (5.1.4)-1} date 4/24/2024 8:57:58 PM
; FORMAT={-:-/ absolute / metric / decimal}
; #@! TF.CreationDate,2024-04-24T20:57:58-04:00
; #@! TF.GenerationSoftware,Kicad,Pcbnew,(5.1.4)-1
; #@! TF.FileFunction,Plated,1,2,PTH
FMAT,2
METRIC
T1C0.400
T2C1.000
%
G90
G05
T1
X402.45Y-6.65
T2
X291.057Y-7.516
X293.086Y-9.044
X295.114Y-10.573
X297.143Y-12.102
X414.665Y-11.948
X416.694Y-10.419
X418.722Y-8.891
X420.751Y-7.362
X386.958Y-18.527
X388.486Y-20.556
X390.015Y-22.584
X391.544Y-24.613
X355.809Y31.012
X355.809Y28.472
X355.809Y25.932
X355.809Y23.392
X319.984Y-24.811
X321.513Y-22.783
X323.042Y-20.754
X324.57Y-18.726
T0
M30
