G04 #@! TF.GenerationSoftware,KiCad,Pcbnew,(5.1.4)-1*
G04 #@! TF.CreationDate,2024-04-24T20:57:57-04:00*
G04 #@! TF.ProjectId,ThumbsUp,5468756d-6273-4557-902e-6b696361645f,rev?*
G04 #@! TF.SameCoordinates,Original*
G04 #@! TF.FileFunction,Profile,NP*
%FSLAX46Y46*%
G04 Gerber Fmt 4.6, Leading zero omitted, Abs format (unit mm)*
G04 Created by KiCad (PCBNEW (5.1.4)-1) date 2024-04-24 20:57:57*
%MOMM*%
%LPD*%
G04 APERTURE LIST*
%ADD10C,0.050000*%
G04 APERTURE END LIST*
D10*
X381950000Y-38850000D02*
X393950000Y-29850000D01*
X329450000Y-38850000D02*
X317550000Y-29850000D01*
X381950000Y-38850000D02*
X329450000Y-38850000D01*
X362308765Y33811751D02*
X356608765Y47911751D01*
X421795042Y-3273134D02*
X413942237Y6820104D01*
X299705827Y7217210D02*
X297717547Y6834139D01*
X356608765Y47911751D02*
X355008765Y47911751D01*
X332808765Y-6988249D02*
X299705827Y7217210D01*
X317550000Y-29850000D02*
X311535711Y-24633596D01*
X349308765Y33811751D02*
X355008765Y47911751D01*
X400124073Y-24647630D02*
X423182953Y-7242227D01*
X332808765Y-6988249D02*
X349308765Y33811751D01*
X393950000Y-29850000D02*
X400124073Y-24647630D01*
X421795042Y-3273134D02*
X423182953Y-7242227D01*
X378808765Y-6988249D02*
X362308765Y33811751D01*
X378808765Y-6988249D02*
X411953957Y7203175D01*
X288476831Y-7228193D02*
X311535711Y-24633596D01*
X289864742Y-3259099D02*
X288476831Y-7228193D01*
X289864742Y-3259099D02*
X297717547Y6834139D01*
X411953957Y7203175D02*
X413942237Y6820104D01*
M02*
