G04 #@! TF.GenerationSoftware,KiCad,Pcbnew,(5.1.4)-1*
G04 #@! TF.CreationDate,2024-04-24T20:57:57-04:00*
G04 #@! TF.ProjectId,ThumbsUp,5468756d-6273-4557-902e-6b696361645f,rev?*
G04 #@! TF.SameCoordinates,Original*
G04 #@! TF.FileFunction,Paste,Bot*
G04 #@! TF.FilePolarity,Positive*
%FSLAX46Y46*%
G04 Gerber Fmt 4.6, Leading zero omitted, Abs format (unit mm)*
G04 Created by KiCad (PCBNEW (5.1.4)-1) date 2024-04-24 20:57:57*
%MOMM*%
%LPD*%
G04 APERTURE LIST*
%ADD10C,2.600000*%
%ADD11C,0.100000*%
%ADD12R,1.500000X0.600000*%
%ADD13R,1.500000X0.800000*%
G04 APERTURE END LIST*
D10*
X389646331Y-31130937D03*
D11*
G36*
X389390464Y-32951523D02*
G01*
X387825745Y-30875070D01*
X389902198Y-29310351D01*
X391466917Y-31386804D01*
X389390464Y-32951523D01*
X389390464Y-32951523D01*
G37*
D10*
X379098097Y-36324902D03*
D11*
G36*
X378842230Y-38145488D02*
G01*
X377277511Y-36069035D01*
X379353964Y-34504316D01*
X380918683Y-36580769D01*
X378842230Y-38145488D01*
X378842230Y-38145488D01*
G37*
D10*
X329015268Y-21627175D03*
D11*
G36*
X330835854Y-21371308D02*
G01*
X329271135Y-23447761D01*
X327194682Y-21883042D01*
X328759401Y-19806589D01*
X330835854Y-21371308D01*
X330835854Y-21371308D01*
G37*
D10*
X336915515Y-30335136D03*
D11*
G36*
X338736101Y-30079269D02*
G01*
X337171382Y-32155722D01*
X335094929Y-30591003D01*
X336659648Y-28514550D01*
X338736101Y-30079269D01*
X338736101Y-30079269D01*
G37*
D10*
X390818700Y-10347702D03*
D11*
G36*
X391074567Y-8527116D02*
G01*
X392639286Y-10603569D01*
X390562833Y-12168288D01*
X388998114Y-10091835D01*
X391074567Y-8527116D01*
X391074567Y-8527116D01*
G37*
D10*
X401366934Y-5153737D03*
D11*
G36*
X401622801Y-3333151D02*
G01*
X403187520Y-5409604D01*
X401111067Y-6974323D01*
X399546348Y-4897870D01*
X401622801Y-3333151D01*
X401622801Y-3333151D01*
G37*
D10*
X417986119Y-4775998D03*
D11*
G36*
X417730252Y-6596584D02*
G01*
X416165533Y-4520131D01*
X418241986Y-2955412D01*
X419806705Y-5031865D01*
X417730252Y-6596584D01*
X417730252Y-6596584D01*
G37*
D10*
X407437885Y-9969963D03*
D11*
G36*
X407182018Y-11790549D02*
G01*
X405617299Y-9714096D01*
X407693752Y-8149377D01*
X409258471Y-10225830D01*
X407182018Y-11790549D01*
X407182018Y-11790549D01*
G37*
D10*
X300997775Y4695162D03*
D11*
G36*
X302818361Y4951029D02*
G01*
X301253642Y2874576D01*
X299177189Y4439295D01*
X300741908Y6515748D01*
X302818361Y4951029D01*
X302818361Y4951029D01*
G37*
D10*
X308898022Y-4012799D03*
D11*
G36*
X310718608Y-3756932D02*
G01*
X309153889Y-5833385D01*
X307077436Y-4268666D01*
X308642155Y-2192213D01*
X310718608Y-3756932D01*
X310718608Y-3756932D01*
G37*
D10*
X315772532Y-6438415D03*
D11*
G36*
X317593118Y-6182548D02*
G01*
X316028399Y-8259001D01*
X313951946Y-6694282D01*
X315516665Y-4617829D01*
X317593118Y-6182548D01*
X317593118Y-6182548D01*
G37*
D10*
X323672779Y-15146376D03*
D11*
G36*
X325493365Y-14890509D02*
G01*
X323928646Y-16966962D01*
X321852193Y-15402243D01*
X323416912Y-13325790D01*
X325493365Y-14890509D01*
X325493365Y-14890509D01*
G37*
D12*
X382650000Y-11400000D03*
X379850000Y-11900000D03*
X382650000Y-12400000D03*
X379850000Y-12900000D03*
X382650000Y-13400000D03*
X379850000Y-13900000D03*
X382650000Y-14400000D03*
X379850000Y-14900000D03*
X382650000Y-15400000D03*
X379850000Y-15900000D03*
X382650000Y-16400000D03*
X379850000Y-16900000D03*
D13*
X382650000Y-10400000D03*
X379850000Y-10400000D03*
X382650000Y-17900000D03*
X379850000Y-17900000D03*
M02*
