G04 #@! TF.GenerationSoftware,KiCad,Pcbnew,(5.1.4)-1*
G04 #@! TF.CreationDate,2024-04-24T20:57:57-04:00*
G04 #@! TF.ProjectId,ThumbsUp,5468756d-6273-4557-902e-6b696361645f,rev?*
G04 #@! TF.SameCoordinates,Original*
G04 #@! TF.FileFunction,Soldermask,Bot*
G04 #@! TF.FilePolarity,Negative*
%FSLAX46Y46*%
G04 Gerber Fmt 4.6, Leading zero omitted, Abs format (unit mm)*
G04 Created by KiCad (PCBNEW (5.1.4)-1) date 2024-04-24 20:57:57*
%MOMM*%
%LPD*%
G04 APERTURE LIST*
%ADD10C,0.100000*%
G04 APERTURE END LIST*
D10*
G36*
X380212356Y-35558698D02*
G01*
X380990106Y-36590806D01*
X380990106Y-36590807D01*
X379759512Y-37518126D01*
X378832193Y-38216911D01*
X378832192Y-38216911D01*
X377606835Y-36590807D01*
X377206088Y-36058998D01*
X377206088Y-36058997D01*
X378436682Y-35131678D01*
X379364001Y-34432893D01*
X379364002Y-34432893D01*
X380212356Y-35558698D01*
X380212356Y-35558698D01*
G37*
G36*
X382016214Y-32832760D02*
G01*
X382166039Y-32862562D01*
X382448303Y-32979479D01*
X382702334Y-33149217D01*
X382918370Y-33365253D01*
X383088108Y-33619284D01*
X383205025Y-33901548D01*
X383264629Y-34201198D01*
X383264629Y-34506718D01*
X383205025Y-34806368D01*
X383088108Y-35088632D01*
X382918370Y-35342663D01*
X382702334Y-35558699D01*
X382448303Y-35728437D01*
X382166039Y-35845354D01*
X382016214Y-35875156D01*
X381866390Y-35904958D01*
X381560868Y-35904958D01*
X381411044Y-35875156D01*
X381261219Y-35845354D01*
X380978955Y-35728437D01*
X380724924Y-35558699D01*
X380508888Y-35342663D01*
X380339150Y-35088632D01*
X380222233Y-34806368D01*
X380162629Y-34506718D01*
X380162629Y-34201198D01*
X380222233Y-33901548D01*
X380339150Y-33619284D01*
X380508888Y-33365253D01*
X380724924Y-33149217D01*
X380978955Y-32979479D01*
X381261219Y-32862562D01*
X381411044Y-32832760D01*
X381560868Y-32802958D01*
X381866390Y-32802958D01*
X382016214Y-32832760D01*
X382016214Y-32832760D01*
G37*
G36*
X387333384Y-31580683D02*
G01*
X387483209Y-31610485D01*
X387765473Y-31727402D01*
X388019504Y-31897140D01*
X388235540Y-32113176D01*
X388405278Y-32367207D01*
X388522195Y-32649471D01*
X388581799Y-32949121D01*
X388581799Y-33254641D01*
X388522195Y-33554291D01*
X388405278Y-33836555D01*
X388235540Y-34090586D01*
X388019504Y-34306622D01*
X387765473Y-34476360D01*
X387483209Y-34593277D01*
X387333384Y-34623079D01*
X387183560Y-34652881D01*
X386878038Y-34652881D01*
X386728214Y-34623079D01*
X386578389Y-34593277D01*
X386296125Y-34476360D01*
X386042094Y-34306622D01*
X385826058Y-34090586D01*
X385656320Y-33836555D01*
X385539403Y-33554291D01*
X385479799Y-33254641D01*
X385479799Y-32949121D01*
X385539403Y-32649471D01*
X385656320Y-32367207D01*
X385826058Y-32113176D01*
X386042094Y-31897140D01*
X386296125Y-31727402D01*
X386578389Y-31610485D01*
X386728214Y-31580683D01*
X386878038Y-31550881D01*
X387183560Y-31550881D01*
X387333384Y-31580683D01*
X387333384Y-31580683D01*
G37*
G36*
X390572780Y-30115500D02*
G01*
X391538340Y-31396841D01*
X391538340Y-31396842D01*
X390622211Y-32087194D01*
X389380427Y-33022946D01*
X389380426Y-33022946D01*
X388271146Y-31550881D01*
X387754322Y-30865033D01*
X387754322Y-30865032D01*
X389474304Y-29568933D01*
X389912235Y-29238928D01*
X389912236Y-29238928D01*
X390572780Y-30115500D01*
X390572780Y-30115500D01*
G37*
G36*
X332618447Y-30775413D02*
G01*
X332705570Y-30792742D01*
X332814993Y-30838067D01*
X332869706Y-30860730D01*
X333016428Y-30958766D01*
X333017423Y-30959431D01*
X333143047Y-31085055D01*
X333143049Y-31085058D01*
X333241748Y-31232772D01*
X333241748Y-31232773D01*
X333309736Y-31396908D01*
X333344395Y-31571154D01*
X333344395Y-31748812D01*
X333309736Y-31923058D01*
X333264411Y-32032481D01*
X333241748Y-32087194D01*
X333148236Y-32227145D01*
X333143047Y-32234911D01*
X333017423Y-32360535D01*
X333017420Y-32360537D01*
X332869706Y-32459236D01*
X332814993Y-32481899D01*
X332705570Y-32527224D01*
X332618447Y-32544554D01*
X332531326Y-32561883D01*
X332353664Y-32561883D01*
X332266543Y-32544553D01*
X332179420Y-32527224D01*
X332069997Y-32481899D01*
X332015284Y-32459236D01*
X331867570Y-32360537D01*
X331867567Y-32360535D01*
X331741943Y-32234911D01*
X331736754Y-32227145D01*
X331643242Y-32087194D01*
X331620579Y-32032481D01*
X331575254Y-31923058D01*
X331540595Y-31748812D01*
X331540595Y-31571154D01*
X331575254Y-31396908D01*
X331643242Y-31232773D01*
X331643242Y-31232772D01*
X331741941Y-31085058D01*
X331741943Y-31085055D01*
X331867567Y-30959431D01*
X331868562Y-30958766D01*
X332015284Y-30860730D01*
X332069997Y-30838067D01*
X332179420Y-30792742D01*
X332266543Y-30775413D01*
X332353664Y-30758083D01*
X332531326Y-30758083D01*
X332618447Y-30775413D01*
X332618447Y-30775413D01*
G37*
G36*
X379233457Y-30775413D02*
G01*
X379320580Y-30792742D01*
X379430003Y-30838067D01*
X379484716Y-30860730D01*
X379631438Y-30958766D01*
X379632433Y-30959431D01*
X379758057Y-31085055D01*
X379758059Y-31085058D01*
X379856758Y-31232772D01*
X379856758Y-31232773D01*
X379924746Y-31396908D01*
X379959405Y-31571154D01*
X379959405Y-31748812D01*
X379924746Y-31923058D01*
X379879421Y-32032481D01*
X379856758Y-32087194D01*
X379763246Y-32227145D01*
X379758057Y-32234911D01*
X379632433Y-32360535D01*
X379632430Y-32360537D01*
X379484716Y-32459236D01*
X379430003Y-32481899D01*
X379320580Y-32527224D01*
X379233457Y-32544554D01*
X379146336Y-32561883D01*
X378968674Y-32561883D01*
X378881553Y-32544553D01*
X378794430Y-32527224D01*
X378685007Y-32481899D01*
X378630294Y-32459236D01*
X378482580Y-32360537D01*
X378482577Y-32360535D01*
X378356953Y-32234911D01*
X378351764Y-32227145D01*
X378258252Y-32087194D01*
X378235589Y-32032481D01*
X378190264Y-31923058D01*
X378155605Y-31748812D01*
X378155605Y-31571154D01*
X378190264Y-31396908D01*
X378258252Y-31232773D01*
X378258252Y-31232772D01*
X378356951Y-31085058D01*
X378356953Y-31085055D01*
X378482577Y-30959431D01*
X378483572Y-30958766D01*
X378630294Y-30860730D01*
X378685007Y-30838067D01*
X378794430Y-30792742D01*
X378881553Y-30775413D01*
X378968674Y-30758083D01*
X379146336Y-30758083D01*
X379233457Y-30775413D01*
X379233457Y-30775413D01*
G37*
G36*
X337576930Y-29141912D02*
G01*
X338807524Y-30069231D01*
X338807524Y-30069232D01*
X338136712Y-30959429D01*
X337181420Y-32227145D01*
X337181419Y-32227145D01*
X336254100Y-31528360D01*
X335023506Y-30601041D01*
X335023506Y-30601040D01*
X335871707Y-29475440D01*
X336649610Y-28443127D01*
X336649611Y-28443127D01*
X337576930Y-29141912D01*
X337576930Y-29141912D01*
G37*
G36*
X328564976Y-26652347D02*
G01*
X328886276Y-26785434D01*
X328886278Y-26785435D01*
X328927819Y-26813192D01*
X329175440Y-26978647D01*
X329421353Y-27224560D01*
X329614566Y-27513724D01*
X329747653Y-27835024D01*
X329815500Y-28176112D01*
X329815500Y-28523888D01*
X329747653Y-28864976D01*
X329650773Y-29098864D01*
X329614565Y-29186278D01*
X329421353Y-29475440D01*
X329175440Y-29721353D01*
X328886278Y-29914565D01*
X328886277Y-29914566D01*
X328886276Y-29914566D01*
X328564976Y-30047653D01*
X328223888Y-30115500D01*
X327876112Y-30115500D01*
X327535024Y-30047653D01*
X327213724Y-29914566D01*
X327213723Y-29914566D01*
X327213722Y-29914565D01*
X326924560Y-29721353D01*
X326678647Y-29475440D01*
X326485435Y-29186278D01*
X326449227Y-29098864D01*
X326352347Y-28864976D01*
X326284500Y-28523888D01*
X326284500Y-28176112D01*
X326352347Y-27835024D01*
X326485434Y-27513724D01*
X326678647Y-27224560D01*
X326924560Y-26978647D01*
X327172181Y-26813192D01*
X327213722Y-26785435D01*
X327213724Y-26785434D01*
X327535024Y-26652347D01*
X327876112Y-26584500D01*
X328223888Y-26584500D01*
X328564976Y-26652347D01*
X328564976Y-26652347D01*
G37*
G36*
X383964976Y-26652347D02*
G01*
X384286276Y-26785434D01*
X384286278Y-26785435D01*
X384327819Y-26813192D01*
X384575440Y-26978647D01*
X384821353Y-27224560D01*
X385014566Y-27513724D01*
X385147653Y-27835024D01*
X385215500Y-28176112D01*
X385215500Y-28523888D01*
X385147653Y-28864976D01*
X385050773Y-29098864D01*
X385014565Y-29186278D01*
X384821353Y-29475440D01*
X384575440Y-29721353D01*
X384286278Y-29914565D01*
X384286277Y-29914566D01*
X384286276Y-29914566D01*
X383964976Y-30047653D01*
X383623888Y-30115500D01*
X383276112Y-30115500D01*
X382935024Y-30047653D01*
X382613724Y-29914566D01*
X382613723Y-29914566D01*
X382613722Y-29914565D01*
X382324560Y-29721353D01*
X382078647Y-29475440D01*
X381885435Y-29186278D01*
X381849227Y-29098864D01*
X381752347Y-28864976D01*
X381684500Y-28523888D01*
X381684500Y-28176112D01*
X381752347Y-27835024D01*
X381885434Y-27513724D01*
X382078647Y-27224560D01*
X382324560Y-26978647D01*
X382572181Y-26813192D01*
X382613722Y-26785435D01*
X382613724Y-26785434D01*
X382935024Y-26652347D01*
X383276112Y-26584500D01*
X383623888Y-26584500D01*
X383964976Y-26652347D01*
X383964976Y-26652347D01*
G37*
G36*
X334602569Y-26842994D02*
G01*
X334752394Y-26872796D01*
X335034658Y-26989713D01*
X335288689Y-27159451D01*
X335504725Y-27375487D01*
X335674463Y-27629518D01*
X335791380Y-27911782D01*
X335791380Y-27911783D01*
X335850984Y-28211431D01*
X335850984Y-28516953D01*
X335821182Y-28666777D01*
X335791380Y-28816602D01*
X335674463Y-29098866D01*
X335504725Y-29352897D01*
X335288689Y-29568933D01*
X335034658Y-29738671D01*
X334752394Y-29855588D01*
X334602569Y-29885390D01*
X334452745Y-29915192D01*
X334147223Y-29915192D01*
X333997399Y-29885390D01*
X333847574Y-29855588D01*
X333565310Y-29738671D01*
X333311279Y-29568933D01*
X333095243Y-29352897D01*
X332925505Y-29098866D01*
X332808588Y-28816602D01*
X332778786Y-28666777D01*
X332748984Y-28516953D01*
X332748984Y-28211431D01*
X332808588Y-27911783D01*
X332808588Y-27911782D01*
X332925505Y-27629518D01*
X333095243Y-27375487D01*
X333311279Y-27159451D01*
X333565310Y-26989713D01*
X333847574Y-26872796D01*
X333997399Y-26842994D01*
X334147223Y-26813192D01*
X334452745Y-26813192D01*
X334602569Y-26842994D01*
X334602569Y-26842994D01*
G37*
G36*
X323833457Y-24155446D02*
G01*
X323920580Y-24172776D01*
X324030003Y-24218101D01*
X324084716Y-24240764D01*
X324186008Y-24308445D01*
X324232433Y-24339465D01*
X324358057Y-24465089D01*
X324358059Y-24465092D01*
X324456758Y-24612806D01*
X324479421Y-24667519D01*
X324524746Y-24776942D01*
X324559405Y-24951188D01*
X324559405Y-25128846D01*
X324524746Y-25303092D01*
X324479421Y-25412515D01*
X324456758Y-25467228D01*
X324358722Y-25613950D01*
X324358057Y-25614945D01*
X324232433Y-25740569D01*
X324232430Y-25740571D01*
X324084716Y-25839270D01*
X324030003Y-25861933D01*
X323920580Y-25907258D01*
X323833457Y-25924587D01*
X323746336Y-25941917D01*
X323568674Y-25941917D01*
X323481553Y-25924587D01*
X323394430Y-25907258D01*
X323285007Y-25861933D01*
X323230294Y-25839270D01*
X323082580Y-25740571D01*
X323082577Y-25740569D01*
X322956953Y-25614945D01*
X322956288Y-25613950D01*
X322858252Y-25467228D01*
X322835589Y-25412515D01*
X322790264Y-25303092D01*
X322755605Y-25128846D01*
X322755605Y-24951188D01*
X322790264Y-24776942D01*
X322835589Y-24667519D01*
X322858252Y-24612806D01*
X322956951Y-24465092D01*
X322956953Y-24465089D01*
X323082577Y-24339465D01*
X323129002Y-24308445D01*
X323230294Y-24240764D01*
X323285007Y-24218101D01*
X323394430Y-24172776D01*
X323481553Y-24155446D01*
X323568674Y-24138117D01*
X323746336Y-24138117D01*
X323833457Y-24155446D01*
X323833457Y-24155446D01*
G37*
G36*
X388018447Y-24155446D02*
G01*
X388105570Y-24172776D01*
X388214993Y-24218101D01*
X388269706Y-24240764D01*
X388370998Y-24308445D01*
X388417423Y-24339465D01*
X388543047Y-24465089D01*
X388543049Y-24465092D01*
X388641748Y-24612806D01*
X388664411Y-24667519D01*
X388709736Y-24776942D01*
X388744395Y-24951188D01*
X388744395Y-25128846D01*
X388709736Y-25303092D01*
X388664411Y-25412515D01*
X388641748Y-25467228D01*
X388543712Y-25613950D01*
X388543047Y-25614945D01*
X388417423Y-25740569D01*
X388417420Y-25740571D01*
X388269706Y-25839270D01*
X388214993Y-25861933D01*
X388105570Y-25907258D01*
X388018447Y-25924587D01*
X387931326Y-25941917D01*
X387753664Y-25941917D01*
X387666543Y-25924587D01*
X387579420Y-25907258D01*
X387469997Y-25861933D01*
X387415284Y-25839270D01*
X387267570Y-25740571D01*
X387267567Y-25740569D01*
X387141943Y-25614945D01*
X387141278Y-25613950D01*
X387043242Y-25467228D01*
X387020579Y-25412515D01*
X386975254Y-25303092D01*
X386940595Y-25128846D01*
X386940595Y-24951188D01*
X386975254Y-24776942D01*
X387020579Y-24667519D01*
X387043242Y-24612806D01*
X387141941Y-24465092D01*
X387141943Y-24465089D01*
X387267567Y-24339465D01*
X387313992Y-24308445D01*
X387415284Y-24240764D01*
X387469997Y-24218101D01*
X387579420Y-24172776D01*
X387666543Y-24155446D01*
X387753664Y-24138117D01*
X387931326Y-24138117D01*
X388018447Y-24155446D01*
X388018447Y-24155446D01*
G37*
G36*
X320094726Y-23916954D02*
G01*
X320160911Y-23923473D01*
X320330750Y-23974993D01*
X320487275Y-24058658D01*
X320523013Y-24087988D01*
X320624470Y-24171250D01*
X320702530Y-24266368D01*
X320737062Y-24308445D01*
X320820727Y-24464970D01*
X320872247Y-24634809D01*
X320889643Y-24811436D01*
X320872247Y-24988063D01*
X320820727Y-25157902D01*
X320737062Y-25314427D01*
X320707732Y-25350165D01*
X320624470Y-25451622D01*
X320548663Y-25513834D01*
X320487275Y-25564214D01*
X320330750Y-25647879D01*
X320160911Y-25699399D01*
X320094727Y-25705917D01*
X320028544Y-25712436D01*
X319940024Y-25712436D01*
X319873842Y-25705918D01*
X319807657Y-25699399D01*
X319637818Y-25647879D01*
X319481293Y-25564214D01*
X319419905Y-25513834D01*
X319344098Y-25451622D01*
X319260836Y-25350165D01*
X319231506Y-25314427D01*
X319147841Y-25157902D01*
X319096321Y-24988063D01*
X319078925Y-24811436D01*
X319096321Y-24634809D01*
X319147841Y-24464970D01*
X319231506Y-24308445D01*
X319266038Y-24266368D01*
X319344098Y-24171250D01*
X319445555Y-24087988D01*
X319481293Y-24058658D01*
X319637818Y-23974993D01*
X319807657Y-23923473D01*
X319873841Y-23916955D01*
X319940024Y-23910436D01*
X320028544Y-23910436D01*
X320094726Y-23916954D01*
X320094726Y-23916954D01*
G37*
G36*
X391654085Y-23718352D02*
G01*
X391720270Y-23724871D01*
X391890109Y-23776391D01*
X392046634Y-23860056D01*
X392082372Y-23889386D01*
X392183829Y-23972648D01*
X392267091Y-24074105D01*
X392296421Y-24109843D01*
X392380086Y-24266368D01*
X392431606Y-24436207D01*
X392449002Y-24612834D01*
X392431606Y-24789461D01*
X392380086Y-24959300D01*
X392296421Y-25115825D01*
X392285733Y-25128848D01*
X392183829Y-25253020D01*
X392109003Y-25314427D01*
X392046634Y-25365612D01*
X391890109Y-25449277D01*
X391720270Y-25500797D01*
X391654086Y-25507315D01*
X391587903Y-25513834D01*
X391499383Y-25513834D01*
X391433200Y-25507315D01*
X391367016Y-25500797D01*
X391197177Y-25449277D01*
X391040652Y-25365612D01*
X390978283Y-25314427D01*
X390903457Y-25253020D01*
X390801553Y-25128848D01*
X390790865Y-25115825D01*
X390707200Y-24959300D01*
X390655680Y-24789461D01*
X390638284Y-24612834D01*
X390655680Y-24436207D01*
X390707200Y-24266368D01*
X390790865Y-24109843D01*
X390820195Y-24074105D01*
X390903457Y-23972648D01*
X391004914Y-23889386D01*
X391040652Y-23860056D01*
X391197177Y-23776391D01*
X391367016Y-23724871D01*
X391433201Y-23718352D01*
X391499383Y-23711834D01*
X391587903Y-23711834D01*
X391654085Y-23718352D01*
X391654085Y-23718352D01*
G37*
G36*
X331933384Y-22076921D02*
G01*
X332083209Y-22106723D01*
X332365473Y-22223640D01*
X332619504Y-22393378D01*
X332835540Y-22609414D01*
X333005278Y-22863445D01*
X333122195Y-23145709D01*
X333122195Y-23145710D01*
X333181799Y-23445358D01*
X333181799Y-23750880D01*
X333176724Y-23776392D01*
X333122195Y-24050529D01*
X333005278Y-24332793D01*
X332835540Y-24586824D01*
X332619504Y-24802860D01*
X332365473Y-24972598D01*
X332083209Y-25089515D01*
X331950939Y-25115825D01*
X331783560Y-25149119D01*
X331478038Y-25149119D01*
X331310659Y-25115825D01*
X331178389Y-25089515D01*
X330896125Y-24972598D01*
X330642094Y-24802860D01*
X330426058Y-24586824D01*
X330256320Y-24332793D01*
X330139403Y-24050529D01*
X330084874Y-23776392D01*
X330079799Y-23750880D01*
X330079799Y-23445358D01*
X330139403Y-23145710D01*
X330139403Y-23145709D01*
X330256320Y-22863445D01*
X330426058Y-22609414D01*
X330642094Y-22393378D01*
X330896125Y-22223640D01*
X331178389Y-22106723D01*
X331328214Y-22076921D01*
X331478038Y-22047119D01*
X331783560Y-22047119D01*
X331933384Y-22076921D01*
X331933384Y-22076921D01*
G37*
G36*
X321623337Y-21888420D02*
G01*
X321689521Y-21894938D01*
X321859360Y-21946458D01*
X322015885Y-22030123D01*
X322051623Y-22059453D01*
X322153080Y-22142715D01*
X322231140Y-22237833D01*
X322265672Y-22279910D01*
X322349337Y-22436435D01*
X322400857Y-22606274D01*
X322418253Y-22782901D01*
X322400857Y-22959528D01*
X322349337Y-23129367D01*
X322265672Y-23285892D01*
X322236342Y-23321630D01*
X322153080Y-23423087D01*
X322077273Y-23485299D01*
X322015885Y-23535679D01*
X321859360Y-23619344D01*
X321689521Y-23670864D01*
X321623337Y-23677382D01*
X321557154Y-23683901D01*
X321468634Y-23683901D01*
X321402452Y-23677383D01*
X321336267Y-23670864D01*
X321166428Y-23619344D01*
X321009903Y-23535679D01*
X320948515Y-23485299D01*
X320872708Y-23423087D01*
X320789446Y-23321630D01*
X320760116Y-23285892D01*
X320676451Y-23129367D01*
X320624931Y-22959528D01*
X320607535Y-22782901D01*
X320624931Y-22606274D01*
X320676451Y-22436435D01*
X320760116Y-22279910D01*
X320794648Y-22237833D01*
X320872708Y-22142715D01*
X320974165Y-22059453D01*
X321009903Y-22030123D01*
X321166428Y-21946458D01*
X321336267Y-21894938D01*
X321402451Y-21888420D01*
X321468634Y-21881901D01*
X321557154Y-21881901D01*
X321623337Y-21888420D01*
X321623337Y-21888420D01*
G37*
G36*
X329378559Y-20209299D02*
G01*
X330907277Y-21361270D01*
X330907277Y-21361271D01*
X330390453Y-22047119D01*
X329281173Y-23519184D01*
X329281172Y-23519184D01*
X328274930Y-22760926D01*
X327123259Y-21893080D01*
X327123259Y-21893079D01*
X327869917Y-20902231D01*
X328749363Y-19735166D01*
X328749364Y-19735166D01*
X329378559Y-20209299D01*
X329378559Y-20209299D01*
G37*
G36*
X390125476Y-21689818D02*
G01*
X390191660Y-21696336D01*
X390361499Y-21747856D01*
X390518024Y-21831521D01*
X390553762Y-21860851D01*
X390655219Y-21944113D01*
X390738481Y-22045570D01*
X390767811Y-22081308D01*
X390851476Y-22237833D01*
X390902996Y-22407672D01*
X390920392Y-22584299D01*
X390902996Y-22760926D01*
X390851476Y-22930765D01*
X390767811Y-23087290D01*
X390738481Y-23123028D01*
X390655219Y-23224485D01*
X390580393Y-23285892D01*
X390518024Y-23337077D01*
X390361499Y-23420742D01*
X390191660Y-23472262D01*
X390125476Y-23478780D01*
X390059293Y-23485299D01*
X389970773Y-23485299D01*
X389904590Y-23478780D01*
X389838406Y-23472262D01*
X389668567Y-23420742D01*
X389512042Y-23337077D01*
X389449673Y-23285892D01*
X389374847Y-23224485D01*
X389291585Y-23123028D01*
X389262255Y-23087290D01*
X389178590Y-22930765D01*
X389127070Y-22760926D01*
X389109674Y-22584299D01*
X389127070Y-22407672D01*
X389178590Y-22237833D01*
X389262255Y-22081308D01*
X389291585Y-22045570D01*
X389374847Y-21944113D01*
X389476304Y-21860851D01*
X389512042Y-21831521D01*
X389668567Y-21747856D01*
X389838406Y-21696336D01*
X389904590Y-21689818D01*
X389970773Y-21683299D01*
X390059293Y-21683299D01*
X390125476Y-21689818D01*
X390125476Y-21689818D01*
G37*
G36*
X323151946Y-19859885D02*
G01*
X323218131Y-19866404D01*
X323387970Y-19917924D01*
X323544495Y-20001589D01*
X323580233Y-20030919D01*
X323681690Y-20114181D01*
X323759750Y-20209299D01*
X323794282Y-20251376D01*
X323877947Y-20407901D01*
X323929467Y-20577740D01*
X323946863Y-20754367D01*
X323929467Y-20930994D01*
X323877947Y-21100833D01*
X323794282Y-21257358D01*
X323764952Y-21293096D01*
X323681690Y-21394553D01*
X323605883Y-21456765D01*
X323544495Y-21507145D01*
X323387970Y-21590810D01*
X323218131Y-21642330D01*
X323151947Y-21648848D01*
X323085764Y-21655367D01*
X322997244Y-21655367D01*
X322931061Y-21648848D01*
X322864877Y-21642330D01*
X322695038Y-21590810D01*
X322538513Y-21507145D01*
X322477125Y-21456765D01*
X322401318Y-21394553D01*
X322318056Y-21293096D01*
X322288726Y-21257358D01*
X322205061Y-21100833D01*
X322153541Y-20930994D01*
X322136145Y-20754367D01*
X322153541Y-20577740D01*
X322205061Y-20407901D01*
X322288726Y-20251376D01*
X322323258Y-20209299D01*
X322401318Y-20114181D01*
X322502775Y-20030919D01*
X322538513Y-20001589D01*
X322695038Y-19917924D01*
X322864877Y-19866404D01*
X322931061Y-19859886D01*
X322997244Y-19853367D01*
X323085764Y-19853367D01*
X323151946Y-19859885D01*
X323151946Y-19859885D01*
G37*
G36*
X388596865Y-19661283D02*
G01*
X388663050Y-19667802D01*
X388832889Y-19719322D01*
X388989414Y-19802987D01*
X389025152Y-19832317D01*
X389126609Y-19915579D01*
X389209871Y-20017036D01*
X389239201Y-20052774D01*
X389322866Y-20209299D01*
X389374386Y-20379138D01*
X389391782Y-20555765D01*
X389374386Y-20732392D01*
X389322866Y-20902231D01*
X389239201Y-21058756D01*
X389209871Y-21094494D01*
X389126609Y-21195951D01*
X389051783Y-21257358D01*
X388989414Y-21308543D01*
X388989412Y-21308544D01*
X388890770Y-21361270D01*
X388832889Y-21392208D01*
X388663050Y-21443728D01*
X388596865Y-21450247D01*
X388530683Y-21456765D01*
X388442163Y-21456765D01*
X388375981Y-21450247D01*
X388309796Y-21443728D01*
X388139957Y-21392208D01*
X388082077Y-21361270D01*
X387983434Y-21308544D01*
X387983432Y-21308543D01*
X387921063Y-21257358D01*
X387846237Y-21195951D01*
X387762975Y-21094494D01*
X387733645Y-21058756D01*
X387649980Y-20902231D01*
X387598460Y-20732392D01*
X387581064Y-20555765D01*
X387598460Y-20379138D01*
X387649980Y-20209299D01*
X387733645Y-20052774D01*
X387762975Y-20017036D01*
X387846237Y-19915579D01*
X387947694Y-19832317D01*
X387983432Y-19802987D01*
X388139957Y-19719322D01*
X388309796Y-19667802D01*
X388375980Y-19661284D01*
X388442163Y-19654765D01*
X388530683Y-19654765D01*
X388596865Y-19661283D01*
X388596865Y-19661283D01*
G37*
G36*
X325011220Y-17930056D02*
G01*
X325831920Y-18548497D01*
X325831920Y-18548498D01*
X325564657Y-18903168D01*
X324747450Y-19987639D01*
X324747449Y-19987639D01*
X324129008Y-19521610D01*
X323308308Y-18903169D01*
X323308308Y-18903168D01*
X323774337Y-18284727D01*
X324392778Y-17464027D01*
X324392779Y-17464027D01*
X325011220Y-17930056D01*
X325011220Y-17930056D01*
G37*
G36*
X387753590Y-18086125D02*
G01*
X388219619Y-18704566D01*
X388219619Y-18704567D01*
X387398919Y-19323008D01*
X386780478Y-19789037D01*
X386780477Y-19789037D01*
X385963270Y-18704566D01*
X385696007Y-18349896D01*
X385696007Y-18349895D01*
X386516707Y-17731454D01*
X387135148Y-17265425D01*
X387135149Y-17265425D01*
X387753590Y-18086125D01*
X387753590Y-18086125D01*
G37*
G36*
X383451000Y-18351000D02*
G01*
X381849000Y-18351000D01*
X381849000Y-17449000D01*
X383451000Y-17449000D01*
X383451000Y-18351000D01*
X383451000Y-18351000D01*
G37*
G36*
X380651000Y-18351000D02*
G01*
X379049000Y-18351000D01*
X379049000Y-16549000D01*
X380651000Y-16549000D01*
X380651000Y-18351000D01*
X380651000Y-18351000D01*
G37*
G36*
X319375711Y-15586652D02*
G01*
X319462834Y-15603982D01*
X319548264Y-15639369D01*
X319626970Y-15671970D01*
X319725893Y-15738068D01*
X319774687Y-15770671D01*
X319900311Y-15896295D01*
X319900313Y-15896298D01*
X319999012Y-16044012D01*
X319999012Y-16044013D01*
X320067000Y-16208148D01*
X320084329Y-16295271D01*
X320095175Y-16349793D01*
X320101659Y-16382394D01*
X320101659Y-16560052D01*
X320067000Y-16734298D01*
X320021675Y-16843721D01*
X319999012Y-16898434D01*
X319922096Y-17013547D01*
X319900311Y-17046151D01*
X319774687Y-17171775D01*
X319774684Y-17171777D01*
X319626970Y-17270476D01*
X319572257Y-17293139D01*
X319462834Y-17338464D01*
X319375711Y-17355793D01*
X319288590Y-17373123D01*
X319110928Y-17373123D01*
X319023807Y-17355793D01*
X318936684Y-17338464D01*
X318827261Y-17293139D01*
X318772548Y-17270476D01*
X318624834Y-17171777D01*
X318624831Y-17171775D01*
X318499207Y-17046151D01*
X318477422Y-17013547D01*
X318400506Y-16898434D01*
X318377843Y-16843721D01*
X318332518Y-16734298D01*
X318297859Y-16560052D01*
X318297859Y-16382394D01*
X318304344Y-16349793D01*
X318315189Y-16295271D01*
X318332518Y-16208148D01*
X318400506Y-16044013D01*
X318400506Y-16044012D01*
X318499205Y-15896298D01*
X318499207Y-15896295D01*
X318624831Y-15770671D01*
X318673625Y-15738068D01*
X318772548Y-15671970D01*
X318851254Y-15639369D01*
X318936684Y-15603982D01*
X319023807Y-15586652D01*
X319110928Y-15569323D01*
X319288590Y-15569323D01*
X319375711Y-15586652D01*
X319375711Y-15586652D01*
G37*
G36*
X392773092Y-15549000D02*
G01*
X392885611Y-15571381D01*
X392995034Y-15616706D01*
X393049747Y-15639369D01*
X393196469Y-15737405D01*
X393197464Y-15738070D01*
X393323088Y-15863694D01*
X393323090Y-15863697D01*
X393421789Y-16011411D01*
X393421789Y-16011412D01*
X393489777Y-16175547D01*
X393496262Y-16208150D01*
X393524436Y-16349791D01*
X393524436Y-16527453D01*
X393517951Y-16560054D01*
X393489777Y-16701697D01*
X393444452Y-16811120D01*
X393421789Y-16865833D01*
X393323753Y-17012555D01*
X393323088Y-17013550D01*
X393197464Y-17139174D01*
X393197461Y-17139176D01*
X393049747Y-17237875D01*
X393018060Y-17251000D01*
X392885611Y-17305863D01*
X392798488Y-17323193D01*
X392711367Y-17340522D01*
X392533705Y-17340522D01*
X392446584Y-17323193D01*
X392359461Y-17305863D01*
X392227012Y-17251000D01*
X392195325Y-17237875D01*
X392047611Y-17139176D01*
X392047608Y-17139174D01*
X391921984Y-17013550D01*
X391921319Y-17012555D01*
X391823283Y-16865833D01*
X391800620Y-16811120D01*
X391755295Y-16701697D01*
X391727121Y-16560054D01*
X391720636Y-16527453D01*
X391720636Y-16349791D01*
X391748810Y-16208150D01*
X391755295Y-16175547D01*
X391823283Y-16011412D01*
X391823283Y-16011411D01*
X391921982Y-15863697D01*
X391921984Y-15863694D01*
X392047608Y-15738070D01*
X392048603Y-15737405D01*
X392195325Y-15639369D01*
X392250038Y-15616706D01*
X392359461Y-15571381D01*
X392471980Y-15549000D01*
X392533705Y-15536722D01*
X392711367Y-15536722D01*
X392773092Y-15549000D01*
X392773092Y-15549000D01*
G37*
G36*
X324334194Y-13953152D02*
G01*
X325564788Y-14880471D01*
X325564788Y-14880472D01*
X325164041Y-15412281D01*
X323938684Y-17038385D01*
X323938683Y-17038385D01*
X322893788Y-16251000D01*
X321780770Y-15412281D01*
X321780770Y-15412280D01*
X322628971Y-14286680D01*
X323406874Y-13254367D01*
X323406875Y-13254367D01*
X324334194Y-13953152D01*
X324334194Y-13953152D01*
G37*
G36*
X383451000Y-16751000D02*
G01*
X381849000Y-16751000D01*
X381849000Y-16049000D01*
X383451000Y-16049000D01*
X383451000Y-16751000D01*
X383451000Y-16751000D01*
G37*
G36*
X380651000Y-16251000D02*
G01*
X379049000Y-16251000D01*
X379049000Y-15549000D01*
X380651000Y-15549000D01*
X380651000Y-16251000D01*
X380651000Y-16251000D01*
G37*
G36*
X383451000Y-15751000D02*
G01*
X381849000Y-15751000D01*
X381849000Y-15049000D01*
X383451000Y-15049000D01*
X383451000Y-15751000D01*
X383451000Y-15751000D01*
G37*
G36*
X380651000Y-15251000D02*
G01*
X379049000Y-15251000D01*
X379049000Y-14549000D01*
X380651000Y-14549000D01*
X380651000Y-15251000D01*
X380651000Y-15251000D01*
G37*
G36*
X315322240Y-11463587D02*
G01*
X315643540Y-11596674D01*
X315643542Y-11596675D01*
X315932704Y-11789887D01*
X316178617Y-12035800D01*
X316351391Y-12294374D01*
X316371830Y-12324964D01*
X316504917Y-12646264D01*
X316572764Y-12987352D01*
X316572764Y-13335128D01*
X316504917Y-13676216D01*
X316473940Y-13751000D01*
X316371829Y-13997518D01*
X316178617Y-14286680D01*
X315932704Y-14532593D01*
X315643542Y-14725805D01*
X315643541Y-14725806D01*
X315643540Y-14725806D01*
X315322240Y-14858893D01*
X314981152Y-14926740D01*
X314633376Y-14926740D01*
X314292288Y-14858893D01*
X313970988Y-14725806D01*
X313970987Y-14725806D01*
X313970986Y-14725805D01*
X313681824Y-14532593D01*
X313435911Y-14286680D01*
X313242699Y-13997518D01*
X313140588Y-13751000D01*
X313109611Y-13676216D01*
X313041764Y-13335128D01*
X313041764Y-12987352D01*
X313109611Y-12646264D01*
X313242698Y-12324964D01*
X313263138Y-12294374D01*
X313435911Y-12035800D01*
X313681824Y-11789887D01*
X313970986Y-11596675D01*
X313970988Y-11596674D01*
X314292288Y-11463587D01*
X314633376Y-11395740D01*
X314981152Y-11395740D01*
X315322240Y-11463587D01*
X315322240Y-11463587D01*
G37*
G36*
X397530007Y-11430986D02*
G01*
X397851307Y-11564073D01*
X397851309Y-11564074D01*
X398140471Y-11757286D01*
X398386384Y-12003199D01*
X398509014Y-12186727D01*
X398579597Y-12292363D01*
X398712684Y-12613663D01*
X398780531Y-12954751D01*
X398780531Y-13302527D01*
X398712684Y-13643615D01*
X398579597Y-13964915D01*
X398579596Y-13964917D01*
X398386384Y-14254079D01*
X398140471Y-14499992D01*
X397851309Y-14693204D01*
X397851308Y-14693205D01*
X397851307Y-14693205D01*
X397530007Y-14826292D01*
X397188919Y-14894139D01*
X396841143Y-14894139D01*
X396500055Y-14826292D01*
X396178755Y-14693205D01*
X396178754Y-14693205D01*
X396178753Y-14693204D01*
X395889591Y-14499992D01*
X395643678Y-14254079D01*
X395450466Y-13964917D01*
X395450465Y-13964915D01*
X395317378Y-13643615D01*
X395249531Y-13302527D01*
X395249531Y-12954751D01*
X395317378Y-12613663D01*
X395450465Y-12292363D01*
X395521049Y-12186727D01*
X395643678Y-12003199D01*
X395889591Y-11757286D01*
X396178753Y-11564074D01*
X396178755Y-11564073D01*
X396500055Y-11430986D01*
X396841143Y-11363139D01*
X397188919Y-11363139D01*
X397530007Y-11430986D01*
X397530007Y-11430986D01*
G37*
G36*
X383451000Y-14751000D02*
G01*
X381849000Y-14751000D01*
X381849000Y-14049000D01*
X383451000Y-14049000D01*
X383451000Y-14751000D01*
X383451000Y-14751000D01*
G37*
G36*
X321359833Y-11654234D02*
G01*
X321509658Y-11684036D01*
X321791922Y-11800953D01*
X322045953Y-11970691D01*
X322261989Y-12186727D01*
X322431727Y-12440758D01*
X322548644Y-12723022D01*
X322548644Y-12723023D01*
X322608248Y-13022671D01*
X322608248Y-13328193D01*
X322578446Y-13478017D01*
X322548644Y-13627842D01*
X322431727Y-13910106D01*
X322261989Y-14164137D01*
X322045953Y-14380173D01*
X321791922Y-14549911D01*
X321509658Y-14666828D01*
X321377057Y-14693204D01*
X321210009Y-14726432D01*
X320904487Y-14726432D01*
X320737439Y-14693204D01*
X320604838Y-14666828D01*
X320322574Y-14549911D01*
X320068543Y-14380173D01*
X319852507Y-14164137D01*
X319682769Y-13910106D01*
X319565852Y-13627842D01*
X319536050Y-13478017D01*
X319506248Y-13328193D01*
X319506248Y-13022671D01*
X319565852Y-12723023D01*
X319565852Y-12723022D01*
X319682769Y-12440758D01*
X319852507Y-12186727D01*
X320068543Y-11970691D01*
X320322574Y-11800953D01*
X320604838Y-11684036D01*
X320754663Y-11654234D01*
X320904487Y-11624432D01*
X321210009Y-11624432D01*
X321359833Y-11654234D01*
X321359833Y-11654234D01*
G37*
G36*
X380651000Y-14251000D02*
G01*
X379049000Y-14251000D01*
X379049000Y-13549000D01*
X380651000Y-13549000D01*
X380651000Y-14251000D01*
X380651000Y-14251000D01*
G37*
G36*
X383451000Y-13751000D02*
G01*
X381849000Y-13751000D01*
X381849000Y-13049000D01*
X383451000Y-13049000D01*
X383451000Y-13751000D01*
X383451000Y-13751000D01*
G37*
G36*
X380651000Y-13251000D02*
G01*
X379049000Y-13251000D01*
X379049000Y-12549000D01*
X380651000Y-12549000D01*
X380651000Y-13251000D01*
X380651000Y-13251000D01*
G37*
G36*
X297253061Y-11207030D02*
G01*
X297319245Y-11213548D01*
X297489084Y-11265068D01*
X297645609Y-11348733D01*
X297681347Y-11378063D01*
X297782804Y-11461325D01*
X297854756Y-11549000D01*
X297895396Y-11598520D01*
X297979061Y-11755045D01*
X298030581Y-11924884D01*
X298047977Y-12101511D01*
X298030581Y-12278138D01*
X297979061Y-12447977D01*
X297895396Y-12604502D01*
X297866066Y-12640240D01*
X297782804Y-12741697D01*
X297681347Y-12824959D01*
X297645609Y-12854289D01*
X297489084Y-12937954D01*
X297319245Y-12989474D01*
X297253061Y-12995992D01*
X297186878Y-13002511D01*
X297098358Y-13002511D01*
X297032175Y-12995992D01*
X296965991Y-12989474D01*
X296796152Y-12937954D01*
X296639627Y-12854289D01*
X296603889Y-12824959D01*
X296502432Y-12741697D01*
X296419170Y-12640240D01*
X296389840Y-12604502D01*
X296306175Y-12447977D01*
X296254655Y-12278138D01*
X296237259Y-12101511D01*
X296254655Y-11924884D01*
X296306175Y-11755045D01*
X296389840Y-11598520D01*
X296430480Y-11549000D01*
X296502432Y-11461325D01*
X296603889Y-11378063D01*
X296639627Y-11348733D01*
X296796152Y-11265068D01*
X296965991Y-11213548D01*
X297032175Y-11207030D01*
X297098358Y-11200511D01*
X297186878Y-11200511D01*
X297253061Y-11207030D01*
X297253061Y-11207030D01*
G37*
G36*
X414775584Y-11053425D02*
G01*
X414841768Y-11059943D01*
X415011607Y-11111463D01*
X415168132Y-11195128D01*
X415203870Y-11224458D01*
X415305327Y-11307720D01*
X415377562Y-11395740D01*
X415417919Y-11444915D01*
X415501584Y-11601440D01*
X415553104Y-11771279D01*
X415570500Y-11947906D01*
X415553104Y-12124533D01*
X415501584Y-12294372D01*
X415417919Y-12450897D01*
X415388589Y-12486635D01*
X415305327Y-12588092D01*
X415203870Y-12671354D01*
X415168132Y-12700684D01*
X415011607Y-12784349D01*
X414841768Y-12835869D01*
X414775583Y-12842388D01*
X414709401Y-12848906D01*
X414620881Y-12848906D01*
X414554699Y-12842388D01*
X414488514Y-12835869D01*
X414318675Y-12784349D01*
X414162150Y-12700684D01*
X414126412Y-12671354D01*
X414024955Y-12588092D01*
X413941693Y-12486635D01*
X413912363Y-12450897D01*
X413828698Y-12294372D01*
X413777178Y-12124533D01*
X413759782Y-11947906D01*
X413777178Y-11771279D01*
X413828698Y-11601440D01*
X413912363Y-11444915D01*
X413952720Y-11395740D01*
X414024955Y-11307720D01*
X414126412Y-11224458D01*
X414162150Y-11195128D01*
X414318675Y-11111463D01*
X414488514Y-11059943D01*
X414554698Y-11053425D01*
X414620881Y-11046906D01*
X414709401Y-11046906D01*
X414775584Y-11053425D01*
X414775584Y-11053425D01*
G37*
G36*
X383451000Y-12751000D02*
G01*
X381849000Y-12751000D01*
X381849000Y-12049000D01*
X383451000Y-12049000D01*
X383451000Y-12751000D01*
X383451000Y-12751000D01*
G37*
G36*
X380651000Y-12251000D02*
G01*
X379049000Y-12251000D01*
X379049000Y-11549000D01*
X380651000Y-11549000D01*
X380651000Y-12251000D01*
X380651000Y-12251000D01*
G37*
G36*
X391933981Y-9582854D02*
G01*
X392710709Y-10613606D01*
X392710709Y-10613607D01*
X391569060Y-11473901D01*
X390552796Y-12239711D01*
X390552795Y-12239711D01*
X389429862Y-10749528D01*
X388926691Y-10081798D01*
X388926691Y-10081797D01*
X390205558Y-9118102D01*
X391084604Y-8455693D01*
X391084605Y-8455693D01*
X391933981Y-9582854D01*
X391933981Y-9582854D01*
G37*
G36*
X408606830Y-9276329D02*
G01*
X409329894Y-10235867D01*
X409329894Y-10235868D01*
X408215144Y-11075892D01*
X407171981Y-11861972D01*
X407171980Y-11861972D01*
X406065471Y-10393584D01*
X405545876Y-9704059D01*
X405545876Y-9704058D01*
X406776470Y-8776739D01*
X407703789Y-8077954D01*
X407703790Y-8077954D01*
X408606830Y-9276329D01*
X408606830Y-9276329D01*
G37*
G36*
X383451000Y-11751000D02*
G01*
X381849000Y-11751000D01*
X381849000Y-9949000D01*
X383451000Y-9949000D01*
X383451000Y-11751000D01*
X383451000Y-11751000D01*
G37*
G36*
X295224526Y-9678420D02*
G01*
X295290710Y-9684938D01*
X295460549Y-9736458D01*
X295617074Y-9820123D01*
X295652812Y-9849453D01*
X295754269Y-9932715D01*
X295837531Y-10034172D01*
X295866861Y-10069910D01*
X295950526Y-10226435D01*
X296002046Y-10396274D01*
X296019442Y-10572901D01*
X296002046Y-10749528D01*
X295950526Y-10919367D01*
X295866861Y-11075892D01*
X295837668Y-11111463D01*
X295754269Y-11213087D01*
X295652812Y-11296349D01*
X295617074Y-11325679D01*
X295460549Y-11409344D01*
X295290710Y-11460864D01*
X295224525Y-11467383D01*
X295158343Y-11473901D01*
X295069823Y-11473901D01*
X295003641Y-11467383D01*
X294937456Y-11460864D01*
X294767617Y-11409344D01*
X294611092Y-11325679D01*
X294575354Y-11296349D01*
X294473897Y-11213087D01*
X294390498Y-11111463D01*
X294361305Y-11075892D01*
X294277640Y-10919367D01*
X294226120Y-10749528D01*
X294208724Y-10572901D01*
X294226120Y-10396274D01*
X294277640Y-10226435D01*
X294361305Y-10069910D01*
X294390635Y-10034172D01*
X294473897Y-9932715D01*
X294575354Y-9849453D01*
X294611092Y-9820123D01*
X294767617Y-9736458D01*
X294937456Y-9684938D01*
X295003640Y-9678420D01*
X295069823Y-9671901D01*
X295158343Y-9671901D01*
X295224526Y-9678420D01*
X295224526Y-9678420D01*
G37*
G36*
X416804118Y-9524814D02*
G01*
X416870303Y-9531333D01*
X417040142Y-9582853D01*
X417196667Y-9666518D01*
X417232405Y-9695848D01*
X417333862Y-9779110D01*
X417406937Y-9868154D01*
X417446454Y-9916305D01*
X417530119Y-10072830D01*
X417581639Y-10242669D01*
X417599035Y-10419296D01*
X417581639Y-10595923D01*
X417530119Y-10765762D01*
X417446454Y-10922287D01*
X417417124Y-10958025D01*
X417333862Y-11059482D01*
X417232405Y-11142744D01*
X417196667Y-11172074D01*
X417040142Y-11255739D01*
X416870303Y-11307259D01*
X416804118Y-11313778D01*
X416737936Y-11320296D01*
X416649416Y-11320296D01*
X416583234Y-11313778D01*
X416517049Y-11307259D01*
X416347210Y-11255739D01*
X416190685Y-11172074D01*
X416154947Y-11142744D01*
X416053490Y-11059482D01*
X415970228Y-10958025D01*
X415940898Y-10922287D01*
X415857233Y-10765762D01*
X415805713Y-10595923D01*
X415788317Y-10419296D01*
X415805713Y-10242669D01*
X415857233Y-10072830D01*
X415940898Y-9916305D01*
X415980415Y-9868154D01*
X416053490Y-9779110D01*
X416154947Y-9695848D01*
X416190685Y-9666518D01*
X416347210Y-9582853D01*
X416517049Y-9531333D01*
X416583234Y-9524814D01*
X416649416Y-9518296D01*
X416737936Y-9518296D01*
X416804118Y-9524814D01*
X416804118Y-9524814D01*
G37*
G36*
X380651000Y-10851000D02*
G01*
X379049000Y-10851000D01*
X379049000Y-9949000D01*
X380651000Y-9949000D01*
X380651000Y-10851000D01*
X380651000Y-10851000D01*
G37*
G36*
X310590721Y-8966686D02*
G01*
X310677844Y-8984016D01*
X310763274Y-9019403D01*
X310841980Y-9052004D01*
X310940903Y-9118102D01*
X310989697Y-9150705D01*
X311115321Y-9276329D01*
X311115323Y-9276332D01*
X311214022Y-9424046D01*
X311214022Y-9424047D01*
X311282010Y-9588182D01*
X311282010Y-9588184D01*
X311311504Y-9736458D01*
X311316669Y-9762428D01*
X311316669Y-9940086D01*
X311282010Y-10114332D01*
X311236685Y-10223755D01*
X311214022Y-10278468D01*
X311137106Y-10393581D01*
X311115321Y-10426185D01*
X310989697Y-10551809D01*
X310989694Y-10551811D01*
X310841980Y-10650510D01*
X310787267Y-10673173D01*
X310677844Y-10718498D01*
X310590721Y-10735828D01*
X310503600Y-10753157D01*
X310325938Y-10753157D01*
X310238817Y-10735828D01*
X310151694Y-10718498D01*
X310042271Y-10673173D01*
X309987558Y-10650510D01*
X309839844Y-10551811D01*
X309839841Y-10551809D01*
X309714217Y-10426185D01*
X309692432Y-10393581D01*
X309615516Y-10278468D01*
X309592853Y-10223755D01*
X309547528Y-10114332D01*
X309512869Y-9940086D01*
X309512869Y-9762428D01*
X309518035Y-9736458D01*
X309547528Y-9588184D01*
X309547528Y-9588182D01*
X309615516Y-9424047D01*
X309615516Y-9424046D01*
X309714215Y-9276332D01*
X309714217Y-9276329D01*
X309839841Y-9150705D01*
X309888635Y-9118102D01*
X309987558Y-9052004D01*
X310066264Y-9019403D01*
X310151694Y-8984016D01*
X310238817Y-8966686D01*
X310325938Y-8949357D01*
X310503600Y-8949357D01*
X310590721Y-8966686D01*
X310590721Y-8966686D01*
G37*
G36*
X401583478Y-8934086D02*
G01*
X401670601Y-8951415D01*
X401758255Y-8987723D01*
X401834737Y-9019403D01*
X401972466Y-9111430D01*
X401982454Y-9118104D01*
X402108078Y-9243728D01*
X402108080Y-9243731D01*
X402206779Y-9391445D01*
X402220283Y-9424046D01*
X402274767Y-9555581D01*
X402281252Y-9588184D01*
X402309426Y-9729825D01*
X402309426Y-9907487D01*
X402298909Y-9960359D01*
X402274767Y-10081731D01*
X402229442Y-10191154D01*
X402206779Y-10245867D01*
X402108743Y-10392589D01*
X402108078Y-10393584D01*
X401982454Y-10519208D01*
X401982451Y-10519210D01*
X401834737Y-10617909D01*
X401780024Y-10640572D01*
X401670601Y-10685897D01*
X401583478Y-10703227D01*
X401496357Y-10720556D01*
X401318695Y-10720556D01*
X401231574Y-10703227D01*
X401144451Y-10685897D01*
X401035028Y-10640572D01*
X400980315Y-10617909D01*
X400832601Y-10519210D01*
X400832598Y-10519208D01*
X400706974Y-10393584D01*
X400706309Y-10392589D01*
X400608273Y-10245867D01*
X400585610Y-10191154D01*
X400540285Y-10081731D01*
X400516143Y-9960359D01*
X400505626Y-9907487D01*
X400505626Y-9729825D01*
X400533800Y-9588184D01*
X400540285Y-9555581D01*
X400594769Y-9424046D01*
X400608273Y-9391445D01*
X400706972Y-9243731D01*
X400706974Y-9243728D01*
X400832598Y-9118104D01*
X400842586Y-9111430D01*
X400980315Y-9019403D01*
X401056797Y-8987723D01*
X401144451Y-8951415D01*
X401231574Y-8934086D01*
X401318695Y-8916756D01*
X401496357Y-8916756D01*
X401583478Y-8934086D01*
X401583478Y-8934086D01*
G37*
G36*
X318690648Y-6888161D02*
G01*
X318840473Y-6917963D01*
X319122737Y-7034880D01*
X319376768Y-7204618D01*
X319592804Y-7420654D01*
X319762542Y-7674685D01*
X319879459Y-7956949D01*
X319939063Y-8256599D01*
X319939063Y-8562119D01*
X319879459Y-8861769D01*
X319762542Y-9144033D01*
X319592804Y-9398064D01*
X319376768Y-9614100D01*
X319122737Y-9783838D01*
X318840473Y-9900755D01*
X318690648Y-9930557D01*
X318540824Y-9960359D01*
X318235302Y-9960359D01*
X318085478Y-9930557D01*
X317935653Y-9900755D01*
X317653389Y-9783838D01*
X317399358Y-9614100D01*
X317183322Y-9398064D01*
X317013584Y-9144033D01*
X316896667Y-8861769D01*
X316837063Y-8562119D01*
X316837063Y-8256599D01*
X316896667Y-7956949D01*
X317013584Y-7674685D01*
X317183322Y-7420654D01*
X317399358Y-7204618D01*
X317653389Y-7034880D01*
X317935653Y-6917963D01*
X318085478Y-6888161D01*
X318235302Y-6858359D01*
X318540824Y-6858359D01*
X318690648Y-6888161D01*
X318690648Y-6888161D01*
G37*
G36*
X293195992Y-8149810D02*
G01*
X293262176Y-8156328D01*
X293432015Y-8207848D01*
X293432017Y-8207849D01*
X293462229Y-8223998D01*
X293588540Y-8291513D01*
X293624278Y-8320843D01*
X293725735Y-8404105D01*
X293803743Y-8499160D01*
X293838327Y-8541300D01*
X293921992Y-8697825D01*
X293973512Y-8867664D01*
X293990908Y-9044291D01*
X293973512Y-9220918D01*
X293921992Y-9390757D01*
X293838327Y-9547282D01*
X293831516Y-9555581D01*
X293725735Y-9684477D01*
X293644386Y-9751237D01*
X293588540Y-9797069D01*
X293432015Y-9880734D01*
X293262176Y-9932254D01*
X293195992Y-9938772D01*
X293129809Y-9945291D01*
X293041289Y-9945291D01*
X292975106Y-9938772D01*
X292908922Y-9932254D01*
X292739083Y-9880734D01*
X292582558Y-9797069D01*
X292526712Y-9751237D01*
X292445363Y-9684477D01*
X292339582Y-9555581D01*
X292332771Y-9547282D01*
X292249106Y-9390757D01*
X292197586Y-9220918D01*
X292180190Y-9044291D01*
X292197586Y-8867664D01*
X292249106Y-8697825D01*
X292332771Y-8541300D01*
X292367355Y-8499160D01*
X292445363Y-8404105D01*
X292546820Y-8320843D01*
X292582558Y-8291513D01*
X292708869Y-8223998D01*
X292739081Y-8207849D01*
X292739083Y-8207848D01*
X292908922Y-8156328D01*
X292975106Y-8149810D01*
X293041289Y-8143291D01*
X293129809Y-8143291D01*
X293195992Y-8149810D01*
X293195992Y-8149810D01*
G37*
G36*
X393736817Y-6855560D02*
G01*
X393886642Y-6885362D01*
X394168906Y-7002279D01*
X394422937Y-7172017D01*
X394638973Y-7388053D01*
X394808711Y-7642084D01*
X394925628Y-7924348D01*
X394941218Y-8002723D01*
X394985232Y-8223997D01*
X394985232Y-8529519D01*
X394982888Y-8541302D01*
X394925628Y-8829168D01*
X394808711Y-9111432D01*
X394638973Y-9365463D01*
X394422937Y-9581499D01*
X394168906Y-9751237D01*
X393886642Y-9868154D01*
X393736817Y-9897956D01*
X393586993Y-9927758D01*
X393281471Y-9927758D01*
X393131647Y-9897956D01*
X392981822Y-9868154D01*
X392699558Y-9751237D01*
X392445527Y-9581499D01*
X392229491Y-9365463D01*
X392059753Y-9111432D01*
X391942836Y-8829168D01*
X391885576Y-8541302D01*
X391883232Y-8529519D01*
X391883232Y-8223997D01*
X391927246Y-8002723D01*
X391942836Y-7924348D01*
X392059753Y-7642084D01*
X392229491Y-7388053D01*
X392445527Y-7172017D01*
X392699558Y-7002279D01*
X392981822Y-6885362D01*
X393131647Y-6855560D01*
X393281471Y-6825758D01*
X393586993Y-6825758D01*
X393736817Y-6855560D01*
X393736817Y-6855560D01*
G37*
G36*
X418832653Y-7996205D02*
G01*
X418898837Y-8002723D01*
X419068676Y-8054243D01*
X419225201Y-8137908D01*
X419260939Y-8167238D01*
X419362396Y-8250500D01*
X419427987Y-8330424D01*
X419474988Y-8387695D01*
X419558653Y-8544220D01*
X419610173Y-8714059D01*
X419627569Y-8890686D01*
X419610173Y-9067313D01*
X419558653Y-9237152D01*
X419474988Y-9393677D01*
X419450065Y-9424046D01*
X419362396Y-9530872D01*
X419260982Y-9614099D01*
X419225201Y-9643464D01*
X419148474Y-9684476D01*
X419111839Y-9704058D01*
X419068676Y-9727129D01*
X418898837Y-9778649D01*
X418846151Y-9783838D01*
X418766470Y-9791686D01*
X418677950Y-9791686D01*
X418598269Y-9783838D01*
X418545583Y-9778649D01*
X418375744Y-9727129D01*
X418332582Y-9704058D01*
X418295946Y-9684476D01*
X418219219Y-9643464D01*
X418183438Y-9614099D01*
X418082024Y-9530872D01*
X417994355Y-9424046D01*
X417969432Y-9393677D01*
X417885767Y-9237152D01*
X417834247Y-9067313D01*
X417816851Y-8890686D01*
X417834247Y-8714059D01*
X417885767Y-8544220D01*
X417969432Y-8387695D01*
X418016433Y-8330424D01*
X418082024Y-8250500D01*
X418183481Y-8167238D01*
X418219219Y-8137908D01*
X418375744Y-8054243D01*
X418545583Y-8002723D01*
X418611767Y-7996205D01*
X418677950Y-7989686D01*
X418766470Y-7989686D01*
X418832653Y-7996205D01*
X418832653Y-7996205D01*
G37*
G36*
X410356002Y-6477821D02*
G01*
X410505827Y-6507623D01*
X410788091Y-6624540D01*
X411042122Y-6794278D01*
X411258158Y-7010314D01*
X411427896Y-7264345D01*
X411544813Y-7546609D01*
X411604417Y-7846259D01*
X411604417Y-8151779D01*
X411544813Y-8451429D01*
X411427896Y-8733693D01*
X411258158Y-8987724D01*
X411042122Y-9203760D01*
X410788091Y-9373498D01*
X410505827Y-9490415D01*
X410356002Y-9520217D01*
X410206178Y-9550019D01*
X409900656Y-9550019D01*
X409750832Y-9520217D01*
X409601007Y-9490415D01*
X409318743Y-9373498D01*
X409064712Y-9203760D01*
X408848676Y-8987724D01*
X408678938Y-8733693D01*
X408562021Y-8451429D01*
X408502417Y-8151779D01*
X408502417Y-7846259D01*
X408562021Y-7546609D01*
X408678938Y-7264345D01*
X408848676Y-7010314D01*
X409064712Y-6794278D01*
X409318743Y-6624540D01*
X409601007Y-6507623D01*
X409750832Y-6477821D01*
X409900656Y-6448019D01*
X410206178Y-6448019D01*
X410356002Y-6477821D01*
X410356002Y-6477821D01*
G37*
G36*
X291331281Y-6594181D02*
G01*
X292318821Y-7338345D01*
X292318821Y-7338346D01*
X292051558Y-7693016D01*
X291234351Y-8777487D01*
X291234350Y-8777487D01*
X290589440Y-8291512D01*
X289795209Y-7693017D01*
X289795209Y-7693016D01*
X290338594Y-6971920D01*
X290879679Y-6253875D01*
X290879680Y-6253875D01*
X291331281Y-6594181D01*
X291331281Y-6594181D01*
G37*
G36*
X399053987Y-5603483D02*
G01*
X399203812Y-5633285D01*
X399486076Y-5750202D01*
X399740107Y-5919940D01*
X399956143Y-6135976D01*
X400125881Y-6390007D01*
X400242798Y-6672271D01*
X400242798Y-6672272D01*
X400302402Y-6971920D01*
X400302402Y-7277442D01*
X400290287Y-7338346D01*
X400242798Y-7577091D01*
X400125881Y-7859355D01*
X399956143Y-8113386D01*
X399740107Y-8329422D01*
X399486076Y-8499160D01*
X399203812Y-8616077D01*
X399053987Y-8645879D01*
X398904163Y-8675681D01*
X398598641Y-8675681D01*
X398448817Y-8645879D01*
X398298992Y-8616077D01*
X398016728Y-8499160D01*
X397762697Y-8329422D01*
X397546661Y-8113386D01*
X397376923Y-7859355D01*
X397260006Y-7577091D01*
X397212517Y-7338346D01*
X397200402Y-7277442D01*
X397200402Y-6971920D01*
X397260006Y-6672272D01*
X397260006Y-6672271D01*
X397376923Y-6390007D01*
X397546661Y-6135976D01*
X397762697Y-5919940D01*
X398016728Y-5750202D01*
X398298992Y-5633285D01*
X398448817Y-5603483D01*
X398598641Y-5573681D01*
X398904163Y-5573681D01*
X399053987Y-5603483D01*
X399053987Y-5603483D01*
G37*
G36*
X421530495Y-6899703D02*
G01*
X422012550Y-7539411D01*
X422012550Y-7539412D01*
X421329345Y-8054243D01*
X420573409Y-8623882D01*
X420573408Y-8623882D01*
X419858139Y-7674687D01*
X419488938Y-7184741D01*
X419488938Y-7184740D01*
X420543583Y-6390009D01*
X420928079Y-6100270D01*
X420928080Y-6100270D01*
X421530495Y-6899703D01*
X421530495Y-6899703D01*
G37*
G36*
X316207526Y-5074571D02*
G01*
X317664541Y-6172510D01*
X317664541Y-6172511D01*
X317196005Y-6794279D01*
X316038437Y-8330424D01*
X316038436Y-8330424D01*
X314787868Y-7388053D01*
X313880523Y-6704320D01*
X313880523Y-6704319D01*
X314732520Y-5573681D01*
X315506627Y-4546406D01*
X315506628Y-4546406D01*
X316207526Y-5074571D01*
X316207526Y-5074571D01*
G37*
G36*
X415673172Y-5225744D02*
G01*
X415822997Y-5255546D01*
X416105261Y-5372463D01*
X416359292Y-5542201D01*
X416575328Y-5758237D01*
X416745066Y-6012268D01*
X416861983Y-6294532D01*
X416921587Y-6594182D01*
X416921587Y-6899702D01*
X416861983Y-7199352D01*
X416745066Y-7481616D01*
X416575328Y-7735647D01*
X416359292Y-7951683D01*
X416105261Y-8121421D01*
X415822997Y-8238338D01*
X415673172Y-8268140D01*
X415523348Y-8297942D01*
X415217826Y-8297942D01*
X415068002Y-8268140D01*
X414918177Y-8238338D01*
X414635913Y-8121421D01*
X414381882Y-7951683D01*
X414165846Y-7735647D01*
X413996108Y-7481616D01*
X413879191Y-7199352D01*
X413819587Y-6899702D01*
X413819587Y-6594182D01*
X413879191Y-6294532D01*
X413996108Y-6012268D01*
X414165846Y-5758237D01*
X414381882Y-5542201D01*
X414635913Y-5372463D01*
X414918177Y-5255546D01*
X415068002Y-5225744D01*
X415217826Y-5195942D01*
X415523348Y-5195942D01*
X415673172Y-5225744D01*
X415673172Y-5225744D01*
G37*
G36*
X402399184Y-4278703D02*
G01*
X403258943Y-5419641D01*
X403258943Y-5419642D01*
X402216887Y-6204887D01*
X401101030Y-7045746D01*
X401101029Y-7045746D01*
X400012125Y-5600721D01*
X399474925Y-4887833D01*
X399474925Y-4887832D01*
X400705519Y-3960513D01*
X401632838Y-3261728D01*
X401632839Y-3261728D01*
X402399184Y-4278703D01*
X402399184Y-4278703D01*
G37*
G36*
X418886008Y-3725315D02*
G01*
X419878128Y-5041902D01*
X419878128Y-5041903D01*
X418961999Y-5732255D01*
X417720215Y-6668007D01*
X417720214Y-6668007D01*
X416519474Y-5074571D01*
X416094110Y-4510094D01*
X416094110Y-4510093D01*
X417545578Y-3416334D01*
X418252023Y-2883989D01*
X418252024Y-2883989D01*
X418886008Y-3725315D01*
X418886008Y-3725315D01*
G37*
G36*
X304600954Y-4453076D02*
G01*
X304688077Y-4470405D01*
X304773505Y-4505791D01*
X304852213Y-4538393D01*
X304951134Y-4604490D01*
X304999930Y-4637094D01*
X305125554Y-4762718D01*
X305125556Y-4762721D01*
X305224255Y-4910435D01*
X305224255Y-4910436D01*
X305292243Y-5074571D01*
X305326902Y-5248817D01*
X305326902Y-5426475D01*
X305292243Y-5600721D01*
X305278754Y-5633285D01*
X305224255Y-5764857D01*
X305147340Y-5879969D01*
X305125554Y-5912574D01*
X304999930Y-6038198D01*
X304999927Y-6038200D01*
X304852213Y-6136899D01*
X304797500Y-6159562D01*
X304688077Y-6204887D01*
X304600954Y-6222217D01*
X304513833Y-6239546D01*
X304336171Y-6239546D01*
X304249050Y-6222217D01*
X304161927Y-6204887D01*
X304052504Y-6159562D01*
X303997791Y-6136899D01*
X303850077Y-6038200D01*
X303850074Y-6038198D01*
X303724450Y-5912574D01*
X303702664Y-5879969D01*
X303625749Y-5764857D01*
X303571250Y-5633285D01*
X303557761Y-5600721D01*
X303523102Y-5426475D01*
X303523102Y-5248817D01*
X303557761Y-5074571D01*
X303625749Y-4910436D01*
X303625749Y-4910435D01*
X303724448Y-4762721D01*
X303724450Y-4762718D01*
X303850074Y-4637094D01*
X303898870Y-4604490D01*
X303997791Y-4538393D01*
X304076499Y-4505791D01*
X304161927Y-4470405D01*
X304249050Y-4453076D01*
X304336171Y-4435746D01*
X304513833Y-4435746D01*
X304600954Y-4453076D01*
X304600954Y-4453076D01*
G37*
G36*
X407573245Y-4420474D02*
G01*
X407660368Y-4437803D01*
X407769791Y-4483128D01*
X407824504Y-4505791D01*
X407971226Y-4603827D01*
X407972221Y-4604492D01*
X408097845Y-4730116D01*
X408097847Y-4730119D01*
X408196546Y-4877833D01*
X408219209Y-4932546D01*
X408264534Y-5041969D01*
X408264534Y-5041971D01*
X408299193Y-5216213D01*
X408299193Y-5393875D01*
X408292708Y-5426475D01*
X408264534Y-5568119D01*
X408237541Y-5633285D01*
X408196546Y-5732255D01*
X408174762Y-5764857D01*
X408097845Y-5879972D01*
X407972221Y-6005596D01*
X407972218Y-6005598D01*
X407824504Y-6104297D01*
X407769791Y-6126960D01*
X407660368Y-6172285D01*
X407573245Y-6189614D01*
X407486124Y-6206944D01*
X407308462Y-6206944D01*
X407221341Y-6189614D01*
X407134218Y-6172285D01*
X407024795Y-6126960D01*
X406970082Y-6104297D01*
X406822368Y-6005598D01*
X406822365Y-6005596D01*
X406696741Y-5879972D01*
X406619824Y-5764857D01*
X406598040Y-5732255D01*
X406557045Y-5633285D01*
X406530052Y-5568119D01*
X406501878Y-5426475D01*
X406495393Y-5393875D01*
X406495393Y-5216213D01*
X406530052Y-5041971D01*
X406530052Y-5041969D01*
X406575377Y-4932546D01*
X406598040Y-4877833D01*
X406696739Y-4730119D01*
X406696741Y-4730116D01*
X406822365Y-4604492D01*
X406823360Y-4603827D01*
X406970082Y-4505791D01*
X407024795Y-4483128D01*
X407134218Y-4437803D01*
X407221341Y-4420474D01*
X407308462Y-4403144D01*
X407486124Y-4403144D01*
X407573245Y-4420474D01*
X407573245Y-4420474D01*
G37*
G36*
X309559437Y-2819575D02*
G01*
X310790031Y-3746894D01*
X310790031Y-3746895D01*
X310214920Y-4510093D01*
X309163927Y-5904808D01*
X309163926Y-5904808D01*
X308223230Y-5195942D01*
X307006013Y-4278704D01*
X307006013Y-4278703D01*
X307878781Y-3120501D01*
X308632117Y-2120790D01*
X308632118Y-2120790D01*
X309559437Y-2819575D01*
X309559437Y-2819575D01*
G37*
G36*
X300547483Y-330010D02*
G01*
X300790077Y-430496D01*
X300868785Y-463098D01*
X300910326Y-490855D01*
X301157947Y-656310D01*
X301403860Y-902223D01*
X301597073Y-1191387D01*
X301730160Y-1512687D01*
X301798007Y-1853775D01*
X301798007Y-2201551D01*
X301730160Y-2542639D01*
X301633280Y-2776527D01*
X301597072Y-2863941D01*
X301403860Y-3153103D01*
X301157947Y-3399016D01*
X300868785Y-3592228D01*
X300868784Y-3592229D01*
X300868783Y-3592229D01*
X300547483Y-3725316D01*
X300206395Y-3793163D01*
X299858619Y-3793163D01*
X299517531Y-3725316D01*
X299196231Y-3592229D01*
X299196230Y-3592229D01*
X299196229Y-3592228D01*
X298907067Y-3399016D01*
X298661154Y-3153103D01*
X298467942Y-2863941D01*
X298431734Y-2776527D01*
X298334854Y-2542639D01*
X298267007Y-2201551D01*
X298267007Y-1853775D01*
X298334854Y-1512687D01*
X298467941Y-1191387D01*
X298661154Y-902223D01*
X298907067Y-656310D01*
X299154688Y-490855D01*
X299196229Y-463098D01*
X299274937Y-430496D01*
X299517531Y-330010D01*
X299858619Y-262163D01*
X300206395Y-262163D01*
X300547483Y-330010D01*
X300547483Y-330010D01*
G37*
G36*
X412304764Y-297408D02*
G01*
X412626064Y-430495D01*
X412626066Y-430496D01*
X412805603Y-550459D01*
X412915228Y-623708D01*
X413161141Y-869621D01*
X413354354Y-1158785D01*
X413487441Y-1480085D01*
X413555288Y-1821173D01*
X413555288Y-2168949D01*
X413487441Y-2510037D01*
X413473936Y-2542640D01*
X413354353Y-2831339D01*
X413161141Y-3120501D01*
X412915228Y-3366414D01*
X412626066Y-3559626D01*
X412626065Y-3559627D01*
X412626064Y-3559627D01*
X412304764Y-3692714D01*
X411963676Y-3760561D01*
X411615900Y-3760561D01*
X411274812Y-3692714D01*
X410953512Y-3559627D01*
X410953511Y-3559627D01*
X410953510Y-3559626D01*
X410664348Y-3366414D01*
X410418435Y-3120501D01*
X410225223Y-2831339D01*
X410105640Y-2542640D01*
X410092135Y-2510037D01*
X410024288Y-2168949D01*
X410024288Y-1821173D01*
X410092135Y-1480085D01*
X410225222Y-1158785D01*
X410418435Y-869621D01*
X410664348Y-623708D01*
X410773973Y-550459D01*
X410953510Y-430496D01*
X410953512Y-430495D01*
X411274812Y-297408D01*
X411615900Y-229561D01*
X411963676Y-229561D01*
X412304764Y-297408D01*
X412304764Y-297408D01*
G37*
G36*
X306585076Y-520657D02*
G01*
X306734901Y-550459D01*
X307017165Y-667376D01*
X307271196Y-837114D01*
X307487232Y-1053150D01*
X307656970Y-1307181D01*
X307773887Y-1589445D01*
X307773887Y-1589446D01*
X307833491Y-1889094D01*
X307833491Y-2194616D01*
X307803689Y-2344440D01*
X307773887Y-2494265D01*
X307656970Y-2776529D01*
X307487232Y-3030560D01*
X307271196Y-3246596D01*
X307017165Y-3416334D01*
X306734901Y-3533251D01*
X306602305Y-3559626D01*
X306435252Y-3592855D01*
X306129730Y-3592855D01*
X305962677Y-3559626D01*
X305830081Y-3533251D01*
X305547817Y-3416334D01*
X305293786Y-3246596D01*
X305077750Y-3030560D01*
X304908012Y-2776529D01*
X304791095Y-2494265D01*
X304761293Y-2344440D01*
X304731491Y-2194616D01*
X304731491Y-1889094D01*
X304791095Y-1589446D01*
X304791095Y-1589445D01*
X304908012Y-1307181D01*
X305077750Y-1053150D01*
X305293786Y-837114D01*
X305547817Y-667376D01*
X305830081Y-550459D01*
X305979906Y-520657D01*
X306129730Y-490855D01*
X306435252Y-490855D01*
X306585076Y-520657D01*
X306585076Y-520657D01*
G37*
G36*
X295815964Y2166890D02*
G01*
X295903087Y2149561D01*
X295988515Y2114175D01*
X296067223Y2081573D01*
X296166144Y2015476D01*
X296214940Y1982872D01*
X296340564Y1857248D01*
X296340566Y1857245D01*
X296439265Y1709531D01*
X296439265Y1709530D01*
X296507253Y1545395D01*
X296541912Y1371149D01*
X296541912Y1193491D01*
X296507253Y1019245D01*
X296461928Y909822D01*
X296439265Y855109D01*
X296362350Y739997D01*
X296340564Y707392D01*
X296214940Y581768D01*
X296214937Y581766D01*
X296067223Y483067D01*
X296012510Y460404D01*
X295903087Y415079D01*
X295815964Y397749D01*
X295728843Y380420D01*
X295551181Y380420D01*
X295464060Y397749D01*
X295376937Y415079D01*
X295267514Y460404D01*
X295212801Y483067D01*
X295065087Y581766D01*
X295065084Y581768D01*
X294939460Y707392D01*
X294917674Y739997D01*
X294840759Y855109D01*
X294818096Y909822D01*
X294772771Y1019245D01*
X294738112Y1193491D01*
X294738112Y1371149D01*
X294772771Y1545395D01*
X294840759Y1709530D01*
X294840759Y1709531D01*
X294939458Y1857245D01*
X294939460Y1857248D01*
X295065084Y1982872D01*
X295113880Y2015476D01*
X295212801Y2081573D01*
X295291509Y2114175D01*
X295376937Y2149561D01*
X295464060Y2166890D01*
X295551181Y2184220D01*
X295728843Y2184220D01*
X295815964Y2166890D01*
X295815964Y2166890D01*
G37*
G36*
X416358235Y2199493D02*
G01*
X416445358Y2182163D01*
X416554781Y2136838D01*
X416609494Y2114175D01*
X416756216Y2016139D01*
X416757211Y2015474D01*
X416882835Y1889850D01*
X416882837Y1889847D01*
X416981536Y1742133D01*
X417004199Y1687420D01*
X417049524Y1577997D01*
X417084183Y1403751D01*
X417084183Y1226093D01*
X417049524Y1051847D01*
X417004199Y942424D01*
X416981536Y887711D01*
X416959752Y855109D01*
X416882835Y739994D01*
X416757211Y614370D01*
X416757208Y614368D01*
X416609494Y515669D01*
X416554781Y493006D01*
X416445358Y447681D01*
X416358235Y430352D01*
X416271114Y413022D01*
X416093452Y413022D01*
X416006331Y430352D01*
X415919208Y447681D01*
X415809785Y493006D01*
X415755072Y515669D01*
X415607358Y614368D01*
X415607355Y614370D01*
X415481731Y739994D01*
X415404814Y855109D01*
X415383030Y887711D01*
X415360367Y942424D01*
X415315042Y1051847D01*
X415280383Y1226093D01*
X415280383Y1403751D01*
X415315042Y1577997D01*
X415360367Y1687420D01*
X415383030Y1742133D01*
X415481729Y1889847D01*
X415481731Y1889850D01*
X415607355Y2015474D01*
X415608350Y2016139D01*
X415755072Y2114175D01*
X415809785Y2136838D01*
X415919208Y2182163D01*
X416006331Y2199493D01*
X416093452Y2216822D01*
X416271114Y2216822D01*
X416358235Y2199493D01*
X416358235Y2199493D01*
G37*
G36*
X303915891Y4245416D02*
G01*
X304065716Y4215614D01*
X304347980Y4098697D01*
X304602011Y3928959D01*
X304818047Y3712923D01*
X304987785Y3458892D01*
X305104702Y3176628D01*
X305164306Y2876978D01*
X305164306Y2571458D01*
X305104702Y2271808D01*
X304987785Y1989544D01*
X304818047Y1735513D01*
X304602011Y1519477D01*
X304347980Y1349739D01*
X304065716Y1232822D01*
X303915891Y1203020D01*
X303766067Y1173218D01*
X303460545Y1173218D01*
X303310721Y1203020D01*
X303160896Y1232822D01*
X302878632Y1349739D01*
X302624601Y1519477D01*
X302408565Y1735513D01*
X302238827Y1989544D01*
X302121910Y2271808D01*
X302062306Y2571458D01*
X302062306Y2876978D01*
X302121910Y3176628D01*
X302238827Y3458892D01*
X302408565Y3712923D01*
X302624601Y3928959D01*
X302878632Y4098697D01*
X303160896Y4215614D01*
X303310721Y4245416D01*
X303460545Y4275218D01*
X303766067Y4275218D01*
X303915891Y4245416D01*
X303915891Y4245416D01*
G37*
G36*
X301659190Y5888386D02*
G01*
X302889784Y4961067D01*
X302889784Y4961066D01*
X302489037Y4429257D01*
X301263680Y2803153D01*
X301263679Y2803153D01*
X299769686Y3928958D01*
X299105766Y4429257D01*
X299105766Y4429258D01*
X299804551Y5356577D01*
X300731870Y6587171D01*
X300731871Y6587171D01*
X301659190Y5888386D01*
X301659190Y5888386D01*
G37*
G36*
X355919208Y24286232D02*
G01*
X355985392Y24279714D01*
X356155231Y24228194D01*
X356311756Y24144529D01*
X356347494Y24115199D01*
X356448951Y24031937D01*
X356532213Y23930480D01*
X356561543Y23894742D01*
X356645208Y23738217D01*
X356696728Y23568378D01*
X356714124Y23391751D01*
X356696728Y23215124D01*
X356645208Y23045285D01*
X356561543Y22888760D01*
X356532213Y22853022D01*
X356448951Y22751565D01*
X356347494Y22668303D01*
X356311756Y22638973D01*
X356155231Y22555308D01*
X355985392Y22503788D01*
X355919207Y22497269D01*
X355853025Y22490751D01*
X355764505Y22490751D01*
X355698323Y22497269D01*
X355632138Y22503788D01*
X355462299Y22555308D01*
X355305774Y22638973D01*
X355270036Y22668303D01*
X355168579Y22751565D01*
X355085317Y22853022D01*
X355055987Y22888760D01*
X354972322Y23045285D01*
X354920802Y23215124D01*
X354903406Y23391751D01*
X354920802Y23568378D01*
X354972322Y23738217D01*
X355055987Y23894742D01*
X355085317Y23930480D01*
X355168579Y24031937D01*
X355270036Y24115199D01*
X355305774Y24144529D01*
X355462299Y24228194D01*
X355632138Y24279714D01*
X355698322Y24286232D01*
X355764505Y24292751D01*
X355853025Y24292751D01*
X355919208Y24286232D01*
X355919208Y24286232D01*
G37*
G36*
X355919207Y26826233D02*
G01*
X355985392Y26819714D01*
X356155231Y26768194D01*
X356311756Y26684529D01*
X356347494Y26655199D01*
X356448951Y26571937D01*
X356532213Y26470480D01*
X356561543Y26434742D01*
X356645208Y26278217D01*
X356696728Y26108378D01*
X356714124Y25931751D01*
X356696728Y25755124D01*
X356645208Y25585285D01*
X356561543Y25428760D01*
X356532213Y25393022D01*
X356448951Y25291565D01*
X356347494Y25208303D01*
X356311756Y25178973D01*
X356155231Y25095308D01*
X355985392Y25043788D01*
X355919207Y25037269D01*
X355853025Y25030751D01*
X355764505Y25030751D01*
X355698322Y25037270D01*
X355632138Y25043788D01*
X355462299Y25095308D01*
X355305774Y25178973D01*
X355270036Y25208303D01*
X355168579Y25291565D01*
X355085317Y25393022D01*
X355055987Y25428760D01*
X354972322Y25585285D01*
X354920802Y25755124D01*
X354903406Y25931751D01*
X354920802Y26108378D01*
X354972322Y26278217D01*
X355055987Y26434742D01*
X355085317Y26470480D01*
X355168579Y26571937D01*
X355270036Y26655199D01*
X355305774Y26684529D01*
X355462299Y26768194D01*
X355632138Y26819714D01*
X355698323Y26826233D01*
X355764505Y26832751D01*
X355853025Y26832751D01*
X355919207Y26826233D01*
X355919207Y26826233D01*
G37*
G36*
X355919207Y29366233D02*
G01*
X355985392Y29359714D01*
X356155231Y29308194D01*
X356311756Y29224529D01*
X356347494Y29195199D01*
X356448951Y29111937D01*
X356532213Y29010480D01*
X356561543Y28974742D01*
X356645208Y28818217D01*
X356696728Y28648378D01*
X356714124Y28471751D01*
X356696728Y28295124D01*
X356645208Y28125285D01*
X356561543Y27968760D01*
X356532213Y27933022D01*
X356448951Y27831565D01*
X356347494Y27748303D01*
X356311756Y27718973D01*
X356155231Y27635308D01*
X355985392Y27583788D01*
X355919207Y27577269D01*
X355853025Y27570751D01*
X355764505Y27570751D01*
X355698322Y27577270D01*
X355632138Y27583788D01*
X355462299Y27635308D01*
X355305774Y27718973D01*
X355270036Y27748303D01*
X355168579Y27831565D01*
X355085317Y27933022D01*
X355055987Y27968760D01*
X354972322Y28125285D01*
X354920802Y28295124D01*
X354903406Y28471751D01*
X354920802Y28648378D01*
X354972322Y28818217D01*
X355055987Y28974742D01*
X355085317Y29010480D01*
X355168579Y29111937D01*
X355270036Y29195199D01*
X355305774Y29224529D01*
X355462299Y29308194D01*
X355632138Y29359714D01*
X355698323Y29366233D01*
X355764505Y29372751D01*
X355853025Y29372751D01*
X355919207Y29366233D01*
X355919207Y29366233D01*
G37*
G36*
X356709765Y30110751D02*
G01*
X354907765Y30110751D01*
X354907765Y31912751D01*
X356709765Y31912751D01*
X356709765Y30110751D01*
X356709765Y30110751D01*
G37*
M02*
