G04 #@! TF.GenerationSoftware,KiCad,Pcbnew,(5.1.4)-1*
G04 #@! TF.CreationDate,2024-04-24T20:55:01-04:00*
G04 #@! TF.ProjectId,ThumbsUp,5468756d-6273-4557-902e-6b696361645f,rev?*
G04 #@! TF.SameCoordinates,Original*
G04 #@! TF.FileFunction,Copper,L1,Top*
G04 #@! TF.FilePolarity,Positive*
%FSLAX46Y46*%
G04 Gerber Fmt 4.6, Leading zero omitted, Abs format (unit mm)*
G04 Created by KiCad (PCBNEW (5.1.4)-1) date 2024-04-24 20:55:01*
%MOMM*%
%LPD*%
G04 APERTURE LIST*
%ADD10C,1.575000*%
%ADD11C,0.900000*%
%ADD12C,0.900000*%
%ADD13C,1.700000*%
%ADD14C,1.700000*%
%ADD15C,0.100000*%
%ADD16R,1.700000X1.700000*%
%ADD17O,1.700000X1.700000*%
%ADD18C,0.800000*%
%ADD19C,0.508000*%
%ADD20C,0.200000*%
%ADD21C,0.250000*%
%ADD22C,0.254000*%
G04 APERTURE END LIST*
D10*
X133150000Y-229000000D03*
X136400000Y-226750000D03*
X136400000Y-222250000D03*
X129900000Y-226750000D03*
X129900000Y-222250000D03*
X123000000Y-229000000D03*
X126250000Y-226750000D03*
X126250000Y-222250000D03*
X119750000Y-226750000D03*
X119750000Y-222250000D03*
D11*
X153466315Y-152014808D03*
D12*
X153316472Y-151643934D02*
X153616158Y-152385682D01*
D11*
X145455447Y-155251409D03*
D12*
X145305604Y-154880535D02*
X145605290Y-155622283D01*
D11*
X155028425Y-155881164D03*
D12*
X154822391Y-155371213D02*
X155234459Y-156391115D01*
D11*
X147017556Y-159117765D03*
D12*
X146811522Y-158607814D02*
X147223590Y-159627716D01*
D13*
X194165141Y-177645498D03*
D14*
X194165141Y-177645498D02*
X194165141Y-177645498D01*
D13*
X191810094Y-178596999D03*
D14*
X191810094Y-178596999D02*
X191810094Y-178596999D01*
D13*
X189455047Y-179548499D03*
D14*
X189455047Y-179548499D02*
X189455047Y-179548499D01*
D13*
X187100000Y-180500000D03*
D15*
G36*
X188206522Y-180969691D02*
G01*
X186630309Y-181606522D01*
X185993478Y-180030309D01*
X187569691Y-179393478D01*
X188206522Y-180969691D01*
X188206522Y-180969691D01*
G37*
D13*
X241528381Y-182311090D03*
D15*
G36*
X241058690Y-183417612D02*
G01*
X240421859Y-181841399D01*
X241998072Y-181204568D01*
X242634903Y-182780781D01*
X241058690Y-183417612D01*
X241058690Y-183417612D01*
G37*
D13*
X242479882Y-184666137D03*
D14*
X242479882Y-184666137D02*
X242479882Y-184666137D01*
D13*
X243431382Y-187021184D03*
D14*
X243431382Y-187021184D02*
X243431382Y-187021184D01*
D13*
X244382883Y-189376231D03*
D14*
X244382883Y-189376231D02*
X244382883Y-189376231D01*
D13*
X172994345Y-146690649D03*
D15*
G36*
X174100867Y-147160340D02*
G01*
X172524654Y-147797171D01*
X171887823Y-146220958D01*
X173464036Y-145584127D01*
X174100867Y-147160340D01*
X174100867Y-147160340D01*
G37*
D13*
X175349392Y-145739148D03*
D14*
X175349392Y-145739148D02*
X175349392Y-145739148D01*
D13*
X177704439Y-144787648D03*
D14*
X177704439Y-144787648D02*
X177704439Y-144787648D01*
D13*
X180059486Y-143836147D03*
D14*
X180059486Y-143836147D02*
X180059486Y-143836147D01*
D13*
X180600000Y-164000000D03*
D15*
G36*
X181706522Y-164469691D02*
G01*
X180130309Y-165106522D01*
X179493478Y-163530309D01*
X181069691Y-162893478D01*
X181706522Y-164469691D01*
X181706522Y-164469691D01*
G37*
D13*
X182955047Y-163048499D03*
D14*
X182955047Y-163048499D02*
X182955047Y-163048499D01*
D13*
X185310094Y-162096999D03*
D14*
X185310094Y-162096999D02*
X185310094Y-162096999D01*
D13*
X187665141Y-161145498D03*
D14*
X187665141Y-161145498D02*
X187665141Y-161145498D01*
D13*
X182393643Y-228262834D03*
D14*
X182393643Y-228262834D02*
X182393643Y-228262834D01*
D13*
X180865033Y-226234299D03*
D14*
X180865033Y-226234299D02*
X180865033Y-226234299D01*
D13*
X179336423Y-224205765D03*
D14*
X179336423Y-224205765D02*
X179336423Y-224205765D01*
D13*
X177807813Y-222177231D03*
D15*
G36*
X177640516Y-223367614D02*
G01*
X176617430Y-222009934D01*
X177975110Y-220986848D01*
X178998196Y-222344528D01*
X177640516Y-223367614D01*
X177640516Y-223367614D01*
G37*
D13*
X205515141Y-215597906D03*
D14*
X205515141Y-215597906D02*
X205515141Y-215597906D01*
D13*
X207543676Y-214069296D03*
D14*
X207543676Y-214069296D02*
X207543676Y-214069296D01*
D13*
X209572210Y-212540686D03*
D14*
X209572210Y-212540686D02*
X209572210Y-212540686D01*
D13*
X211600744Y-211012076D03*
D15*
G36*
X210410361Y-210844779D02*
G01*
X211768041Y-209821693D01*
X212791127Y-211179373D01*
X211433447Y-212202459D01*
X210410361Y-210844779D01*
X210410361Y-210844779D01*
G37*
D13*
X87992618Y-215751511D03*
D14*
X87992618Y-215751511D02*
X87992618Y-215751511D01*
D13*
X85964083Y-214222901D03*
D14*
X85964083Y-214222901D02*
X85964083Y-214222901D01*
D13*
X83935549Y-212694291D03*
D14*
X83935549Y-212694291D02*
X83935549Y-212694291D01*
D13*
X81907015Y-211165681D03*
D15*
G36*
X82074312Y-212356064D02*
G01*
X80716632Y-211332978D01*
X81739718Y-209975298D01*
X83097398Y-210998384D01*
X82074312Y-212356064D01*
X82074312Y-212356064D01*
G37*
D13*
X52395205Y-182503276D03*
D15*
G36*
X51288683Y-182972967D02*
G01*
X51925514Y-181396754D01*
X53501727Y-182033585D01*
X52864896Y-183609798D01*
X51288683Y-182972967D01*
X51288683Y-182972967D01*
G37*
D13*
X51443704Y-184858323D03*
D14*
X51443704Y-184858323D02*
X51443704Y-184858323D01*
D13*
X50492204Y-187213370D03*
D14*
X50492204Y-187213370D02*
X50492204Y-187213370D01*
D13*
X49540703Y-189568417D03*
D14*
X49540703Y-189568417D02*
X49540703Y-189568417D01*
D13*
X120197799Y-146824591D03*
D15*
G36*
X119728108Y-145718069D02*
G01*
X121304321Y-146354900D01*
X120667490Y-147931113D01*
X119091277Y-147294282D01*
X119728108Y-145718069D01*
X119728108Y-145718069D01*
G37*
D13*
X117842752Y-145873090D03*
D14*
X117842752Y-145873090D02*
X117842752Y-145873090D01*
D13*
X115487705Y-144921590D03*
D14*
X115487705Y-144921590D02*
X115487705Y-144921590D01*
D13*
X113132658Y-143970089D03*
D14*
X113132658Y-143970089D02*
X113132658Y-143970089D01*
D13*
X113658765Y-163138249D03*
D15*
G36*
X113189074Y-162031727D02*
G01*
X114765287Y-162668558D01*
X114128456Y-164244771D01*
X112552243Y-163607940D01*
X113189074Y-162031727D01*
X113189074Y-162031727D01*
G37*
D13*
X111303718Y-162186748D03*
D14*
X111303718Y-162186748D02*
X111303718Y-162186748D01*
D13*
X108948671Y-161235248D03*
D14*
X108948671Y-161235248D02*
X108948671Y-161235248D01*
D13*
X106593624Y-160283747D03*
D14*
X106593624Y-160283747D02*
X106593624Y-160283747D01*
D13*
X99778867Y-176283747D03*
D14*
X99778867Y-176283747D02*
X99778867Y-176283747D01*
D13*
X102133914Y-177235248D03*
D14*
X102133914Y-177235248D02*
X102133914Y-177235248D01*
D13*
X104488961Y-178186748D03*
D14*
X104488961Y-178186748D02*
X104488961Y-178186748D01*
D13*
X106844008Y-179138249D03*
D15*
G36*
X106374317Y-178031727D02*
G01*
X107950530Y-178668558D01*
X107313699Y-180244771D01*
X105737486Y-179607940D01*
X106374317Y-178031727D01*
X106374317Y-178031727D01*
G37*
D13*
X101828320Y-226087050D03*
D14*
X101828320Y-226087050D02*
X101828320Y-226087050D01*
D13*
X99799785Y-224558440D03*
D14*
X99799785Y-224558440D02*
X99799785Y-224558440D01*
D13*
X97771251Y-223029830D03*
D14*
X97771251Y-223029830D02*
X97771251Y-223029830D01*
D13*
X95742717Y-221501220D03*
D15*
G36*
X95910014Y-222691603D02*
G01*
X94552334Y-221668517D01*
X95575420Y-220310837D01*
X96933100Y-221333923D01*
X95910014Y-222691603D01*
X95910014Y-222691603D01*
G37*
D16*
X146658765Y-172638249D03*
D17*
X146658765Y-175178249D03*
X146658765Y-177718249D03*
X146658765Y-180258249D03*
D13*
X191716901Y-226026163D03*
D15*
G36*
X192907284Y-226193460D02*
G01*
X191549604Y-227216546D01*
X190526518Y-225858866D01*
X191884198Y-224835780D01*
X192907284Y-226193460D01*
X192907284Y-226193460D01*
G37*
D13*
X193745435Y-224497553D03*
D14*
X193745435Y-224497553D02*
X193745435Y-224497553D01*
D13*
X195773969Y-222968943D03*
D14*
X195773969Y-222968943D02*
X195773969Y-222968943D01*
D13*
X197802504Y-221440333D03*
D14*
X197802504Y-221440333D02*
X197802504Y-221440333D01*
D13*
X110834284Y-228461436D03*
D14*
X110834284Y-228461436D02*
X110834284Y-228461436D01*
D13*
X112362894Y-226432901D03*
D14*
X112362894Y-226432901D02*
X112362894Y-226432901D01*
D13*
X113891504Y-224404367D03*
D14*
X113891504Y-224404367D02*
X113891504Y-224404367D01*
D13*
X115420114Y-222375833D03*
D15*
G36*
X114229731Y-222543130D02*
G01*
X115252817Y-221185450D01*
X116610497Y-222208536D01*
X115587411Y-223566216D01*
X114229731Y-222543130D01*
X114229731Y-222543130D01*
G37*
D18*
X148844000Y-226060000D03*
X149098000Y-207518000D03*
X143002000Y-209550000D03*
X142494000Y-194622000D03*
X136906000Y-200914000D03*
X137668000Y-210566000D03*
X160528000Y-222885000D03*
X149002895Y-222688945D03*
X155448000Y-213614000D03*
X138684000Y-221107004D03*
X157353000Y-220091000D03*
X149098000Y-219964020D03*
X156215910Y-211345040D03*
X143002000Y-209550000D03*
X149098000Y-207518000D03*
X148844000Y-226060000D03*
X122800000Y-160100000D03*
X162100000Y-152650000D03*
X85800000Y-204100000D03*
X115150000Y-212300000D03*
X126750000Y-212300000D03*
X100200000Y-212300000D03*
X171100000Y-211200000D03*
X153400000Y-203050000D03*
X143980000Y-198450000D03*
X128900000Y-177550000D03*
X153416000Y-200152000D03*
X153000000Y-182900000D03*
X138549986Y-182800014D03*
X131300000Y-177500000D03*
X133700000Y-177600000D03*
X136050000Y-177550000D03*
X124400000Y-197750000D03*
X154686000Y-200106010D03*
X133750000Y-203000000D03*
X157050000Y-197450000D03*
X126750000Y-197750000D03*
X129100000Y-197750000D03*
X131500000Y-197750000D03*
X108743750Y-204787500D03*
X111125000Y-204787500D03*
X113506250Y-204787500D03*
X115887500Y-204787500D03*
X103981250Y-204787500D03*
X90300000Y-187700000D03*
X101600000Y-204787500D03*
X69050000Y-186600000D03*
X126450000Y-175350000D03*
X121400000Y-155700000D03*
X121650000Y-192491967D03*
X114850000Y-171500000D03*
X136950000Y-183650000D03*
X136500000Y-172550000D03*
X118268750Y-204787500D03*
X153000000Y-177650000D03*
X168050000Y-150900000D03*
X158100000Y-193250000D03*
X174400000Y-167200000D03*
X177800000Y-203993750D03*
X181500000Y-183200000D03*
X165000000Y-177550000D03*
X172800000Y-161800000D03*
X170000000Y-193250000D03*
X179150000Y-178400008D03*
X189706250Y-203993750D03*
X187150000Y-195050000D03*
X162550000Y-177550000D03*
X160150000Y-177550000D03*
X157800000Y-177600000D03*
X155400000Y-177650000D03*
X167700000Y-193150000D03*
X165300000Y-193150000D03*
X162900000Y-193200000D03*
X160500000Y-193250000D03*
X187283098Y-203951848D03*
X184943750Y-203993750D03*
X182562500Y-203993750D03*
X180181250Y-203993750D03*
X98263033Y-213166187D03*
X75100000Y-194350000D03*
X97825061Y-213983213D03*
X99331698Y-216472275D03*
X194056000Y-216408006D03*
X198823946Y-192676054D03*
X193541787Y-217433320D03*
X200200000Y-197450000D03*
X200650000Y-204050000D03*
X193039996Y-218440000D03*
X218924959Y-193582637D03*
X192532000Y-219456000D03*
X141732000Y-209550000D03*
X140658000Y-213926000D03*
X148749977Y-224473011D03*
X153670000Y-213487000D03*
X140658000Y-221176000D03*
X153670000Y-220980000D03*
X140990000Y-199076000D03*
X149352000Y-204978000D03*
X147778672Y-211786672D03*
X141732000Y-209550000D03*
X140658000Y-213926000D03*
X144272000Y-225063000D03*
X142367000Y-211420000D03*
X151892000Y-210312000D03*
X147166000Y-201810990D03*
X145750000Y-205250000D03*
X148436008Y-201810990D03*
X146675585Y-205351422D03*
X98044000Y-214884000D03*
X98701468Y-215791519D03*
X192033796Y-220465080D03*
X191516000Y-221488000D03*
X149627663Y-157133003D03*
X152850000Y-163000000D03*
X108750000Y-215200000D03*
X106350000Y-215200000D03*
X134500000Y-215150000D03*
X143510000Y-227076000D03*
D19*
X139700000Y-224028000D02*
X138938000Y-223266000D01*
X141732000Y-226060000D02*
X138938000Y-223266000D01*
X143002000Y-210566000D02*
X145542000Y-210566000D01*
X155448000Y-213614000D02*
X155448000Y-216662000D01*
X149497999Y-220364019D02*
X149098000Y-219964020D01*
X163957000Y-219456000D02*
X178816000Y-219456000D01*
X160528000Y-222885000D02*
X163957000Y-219456000D01*
X178816000Y-219456000D02*
X183134000Y-223774000D01*
X183134000Y-223774000D02*
X183134000Y-227522477D01*
X183134000Y-227522477D02*
X182393643Y-228262834D01*
X156215910Y-211345040D02*
X155724950Y-211836000D01*
X155724950Y-211836000D02*
X155448000Y-211836000D01*
X155448000Y-220465924D02*
X154079922Y-221834002D01*
X149002895Y-220059125D02*
X149098000Y-219964020D01*
X155448000Y-218186000D02*
X155448000Y-220465924D01*
X154079922Y-221834002D02*
X150967982Y-221834002D01*
X149002895Y-222688945D02*
X149002895Y-220059125D01*
X138557000Y-210566000D02*
X135636000Y-210566000D01*
X135636000Y-202184000D02*
X135636000Y-210566000D01*
X136906000Y-200914000D02*
X135636000Y-202184000D01*
X135636000Y-210566000D02*
X137668000Y-210566000D01*
X155448000Y-218186000D02*
X157353000Y-220091000D01*
X138684000Y-223012000D02*
X138684000Y-221107004D01*
X138557000Y-210566000D02*
X143002000Y-210566000D01*
X137668000Y-210566000D02*
X138557000Y-210566000D01*
X155448000Y-211836000D02*
X155448000Y-213614000D01*
X160147000Y-222885000D02*
X155448000Y-218186000D01*
X160528000Y-222885000D02*
X160147000Y-222885000D01*
X148971000Y-207645000D02*
X151257000Y-207645000D01*
X146050000Y-210566000D02*
X148971000Y-207645000D01*
X151257000Y-207645000D02*
X155448000Y-211836000D01*
X143002000Y-210566000D02*
X143002000Y-209550000D01*
X146050000Y-210566000D02*
X149098000Y-207518000D01*
X138938000Y-223266000D02*
X138684000Y-223012000D01*
X148844000Y-226060000D02*
X141732000Y-226060000D01*
X150967982Y-221834002D02*
X149497999Y-220364019D01*
X155448000Y-218186000D02*
X155448000Y-216662000D01*
X145542000Y-210566000D02*
X146050000Y-210566000D01*
X191039244Y-226703820D02*
X191716901Y-226026163D01*
X183134000Y-226703820D02*
X191039244Y-226703820D01*
X182393643Y-228262834D02*
X183134000Y-228262834D01*
X183134000Y-228262834D02*
X183134000Y-226703820D01*
X197302579Y-221440333D02*
X195773969Y-222968943D01*
X197802504Y-221440333D02*
X197302579Y-221440333D01*
X195274045Y-222968943D02*
X193745435Y-224497553D01*
X195773969Y-222968943D02*
X195274045Y-222968943D01*
X193245511Y-224497553D02*
X191716901Y-226026163D01*
X193745435Y-224497553D02*
X193245511Y-224497553D01*
X137957004Y-221107004D02*
X138684000Y-221107004D01*
X135636000Y-210566000D02*
X135636000Y-218786000D01*
X135636000Y-218786000D02*
X137957004Y-221107004D01*
X147017556Y-159117765D02*
X142735321Y-163400000D01*
X142735321Y-163400000D02*
X126200000Y-163400000D01*
X126200000Y-163400000D02*
X122900000Y-160100000D01*
X122900000Y-160100000D02*
X122800000Y-160100000D01*
X155028425Y-155881164D02*
X158259589Y-152650000D01*
X158259589Y-152650000D02*
X162100000Y-152650000D01*
X94000000Y-212300000D02*
X85800000Y-204100000D01*
X135636000Y-210566000D02*
X133902000Y-212300000D01*
X126750000Y-212300000D02*
X115150000Y-212300000D01*
X133902000Y-212300000D02*
X126750000Y-212300000D01*
X100200000Y-212300000D02*
X94000000Y-212300000D01*
X115150000Y-212300000D02*
X100200000Y-212300000D01*
X156215910Y-211345040D02*
X170954960Y-211345040D01*
X170954960Y-211345040D02*
X171100000Y-211200000D01*
X149098000Y-207518000D02*
X153400000Y-203216000D01*
X153400000Y-203216000D02*
X153400000Y-203050000D01*
D20*
X113100000Y-144002747D02*
X113132658Y-143970089D01*
X113100000Y-146800000D02*
X113100000Y-144002747D01*
X110172989Y-149727011D02*
X113100000Y-146800000D01*
X128350000Y-177000000D02*
X122700148Y-177000000D01*
X128900000Y-177550000D02*
X128350000Y-177000000D01*
X122700148Y-177000000D02*
X116050000Y-170349852D01*
X116050000Y-170349852D02*
X116050000Y-161800000D01*
X116050000Y-161800000D02*
X110172989Y-155922989D01*
X110172989Y-155922989D02*
X110172989Y-149727011D01*
X153000000Y-182900000D02*
X138649972Y-182900000D01*
X138649972Y-182900000D02*
X138549986Y-182800014D01*
X153000000Y-199736000D02*
X153000000Y-182900000D01*
X153416000Y-200152000D02*
X153000000Y-199736000D01*
X131300000Y-177500000D02*
X130472989Y-176672989D01*
X130472989Y-176672989D02*
X122835600Y-176672989D01*
X122835600Y-176672989D02*
X116377011Y-170214400D01*
X116377011Y-161664548D02*
X110500000Y-155787537D01*
X114637706Y-145771589D02*
X115487705Y-144921590D01*
X110500000Y-149909295D02*
X114637706Y-145771589D01*
X116377011Y-170214400D02*
X116377011Y-161664548D01*
X110500000Y-155787537D02*
X110500000Y-149909295D01*
X117842752Y-147075171D02*
X117842752Y-145873090D01*
X117842752Y-149657248D02*
X117842752Y-147075171D01*
X132445978Y-176345978D02*
X122971052Y-176345978D01*
X115472989Y-152027011D02*
X117842752Y-149657248D01*
X133700000Y-177600000D02*
X132445978Y-176345978D01*
X116704022Y-170078948D02*
X116704022Y-161529096D01*
X116704022Y-161529096D02*
X115472989Y-160298063D01*
X122971052Y-176345978D02*
X116704022Y-170078948D01*
X115472989Y-160298063D02*
X115472989Y-152027011D01*
X115800000Y-152239144D02*
X120197799Y-147841345D01*
X117031033Y-161393644D02*
X115800000Y-160162611D01*
X136050000Y-177550000D02*
X134518967Y-176018967D01*
X134518967Y-176018967D02*
X123106504Y-176018967D01*
X123106504Y-176018967D02*
X117031033Y-169943496D01*
X117031033Y-169943496D02*
X117031033Y-161393644D01*
X120197799Y-147841345D02*
X120197799Y-146824591D01*
X115800000Y-160162611D02*
X115800000Y-152239144D01*
X106600000Y-163150000D02*
X106600000Y-160290123D01*
X103522989Y-166227011D02*
X106600000Y-163150000D01*
X103522989Y-171960377D02*
X103522989Y-166227011D01*
X124400000Y-197700000D02*
X120850000Y-194150000D01*
X120850000Y-194150000D02*
X117100000Y-194150000D01*
X106600000Y-160290123D02*
X106593624Y-160283747D01*
X117100000Y-194150000D02*
X110691956Y-187741956D01*
X124400000Y-197750000D02*
X124400000Y-197700000D01*
X110691956Y-187741956D02*
X110691956Y-179129344D01*
X110691956Y-179129344D02*
X103522989Y-171960377D01*
X154656250Y-200076260D02*
X154686000Y-200106010D01*
X153842010Y-200950000D02*
X152253618Y-200950000D01*
X154686000Y-200106010D02*
X153842010Y-200950000D01*
X152253618Y-200950000D02*
X150680579Y-199376961D01*
X150680579Y-199376961D02*
X142218923Y-199376961D01*
X142218923Y-199376961D02*
X141290961Y-198448999D01*
X138301001Y-198448999D02*
X133750000Y-203000000D01*
X141290961Y-198448999D02*
X138301001Y-198448999D01*
X154686000Y-200106010D02*
X157050000Y-197742010D01*
X157050000Y-197742010D02*
X157050000Y-197450000D01*
X103850000Y-166362462D02*
X108098672Y-162113790D01*
X103850000Y-171824925D02*
X103850000Y-166362462D01*
X111018967Y-178993892D02*
X103850000Y-171824925D01*
X111018967Y-187581433D02*
X111018967Y-178993892D01*
X117210523Y-193772989D02*
X111018967Y-187581433D01*
X126750000Y-197750000D02*
X122772989Y-193772989D01*
X108098672Y-162113790D02*
X108098672Y-162085247D01*
X122772989Y-193772989D02*
X117210523Y-193772989D01*
X108098672Y-162085247D02*
X108948671Y-161235248D01*
X129100000Y-197750000D02*
X124795978Y-193445978D01*
X111345978Y-178858440D02*
X108972989Y-176485452D01*
X117345975Y-193445978D02*
X111345978Y-187445981D01*
X124795978Y-193445978D02*
X117345975Y-193445978D01*
X111345978Y-187445981D02*
X111345978Y-178858440D01*
X108972989Y-176485452D02*
X108972989Y-168377011D01*
X108972989Y-168377011D02*
X111303718Y-166046282D01*
X111303718Y-166046282D02*
X111303718Y-163388829D01*
X111303718Y-163388829D02*
X111303718Y-162186748D01*
X113658765Y-164155003D02*
X113658765Y-163138249D01*
X109300000Y-168513768D02*
X113658765Y-164155003D01*
X131500000Y-197750000D02*
X126868967Y-193118967D01*
X126868967Y-193118967D02*
X117481427Y-193118967D01*
X117481427Y-193118967D02*
X111672989Y-187310529D01*
X111672989Y-187310529D02*
X111672989Y-178722989D01*
X111672989Y-178722989D02*
X109300000Y-176350000D01*
X109300000Y-176350000D02*
X109300000Y-168513768D01*
X99800000Y-176304880D02*
X99778867Y-176283747D01*
X96872989Y-182077011D02*
X99800000Y-179150000D01*
X96872989Y-192916739D02*
X96872989Y-182077011D01*
X99800000Y-179150000D02*
X99800000Y-176304880D01*
X108743750Y-204787500D02*
X96872989Y-192916739D01*
X102133914Y-177278548D02*
X102133914Y-177235248D01*
X97200000Y-182212462D02*
X102133914Y-177278548D01*
X111125000Y-204787500D02*
X97200000Y-190862500D01*
X97200000Y-190862500D02*
X97200000Y-182212462D01*
X104488961Y-181611036D02*
X104488961Y-179388829D01*
X102322989Y-183777008D02*
X104488961Y-181611036D01*
X102322989Y-193604239D02*
X102322989Y-183777008D01*
X113506250Y-204787500D02*
X102322989Y-193604239D01*
X104488961Y-179388829D02*
X104488961Y-178186748D01*
X106850000Y-179144241D02*
X106844008Y-179138249D01*
X106850000Y-179712460D02*
X106850000Y-179144241D01*
X102650000Y-183912460D02*
X106850000Y-179712460D01*
X102650000Y-191550000D02*
X102650000Y-183912460D01*
X115887500Y-204787500D02*
X102650000Y-191550000D01*
X103981250Y-204787500D02*
X103981250Y-201381250D01*
X103981250Y-201381250D02*
X90300000Y-187700000D01*
X82475000Y-200025000D02*
X69050000Y-186600000D01*
X99975000Y-200025000D02*
X82475000Y-200025000D01*
X101600000Y-204787500D02*
X101600000Y-201650000D01*
X101600000Y-201650000D02*
X99975000Y-200025000D01*
X121400000Y-157300000D02*
X121400000Y-155700000D01*
X117400000Y-161300000D02*
X121400000Y-157300000D01*
X126450000Y-175350000D02*
X122900000Y-175350000D01*
X122900000Y-175350000D02*
X117400000Y-169850000D01*
X117400000Y-169850000D02*
X117400000Y-161300000D01*
X114850000Y-175700000D02*
X114850000Y-171500000D01*
X112000000Y-178550000D02*
X114850000Y-175700000D01*
X112000000Y-187050000D02*
X112000000Y-178550000D01*
X121650000Y-192491967D02*
X117441967Y-192491967D01*
X117441967Y-192491967D02*
X112000000Y-187050000D01*
X136950000Y-183650000D02*
X136950000Y-173000000D01*
X136950000Y-173000000D02*
X136500000Y-172550000D01*
X168050000Y-155450000D02*
X168050000Y-150900000D01*
X158400000Y-165100000D02*
X168050000Y-155450000D01*
X158400000Y-172250000D02*
X158400000Y-165100000D01*
X153000000Y-177650000D02*
X158400000Y-172250000D01*
X163250000Y-185837540D02*
X174400000Y-174687540D01*
X163250000Y-188100000D02*
X163250000Y-185837540D01*
X158100000Y-193250000D02*
X163250000Y-188100000D01*
X174400000Y-174687540D02*
X174400000Y-167200000D01*
D21*
X183134000Y-198659750D02*
X177800000Y-203993750D01*
X181500000Y-183200000D02*
X183134000Y-184834000D01*
X183134000Y-184834000D02*
X183134000Y-198659750D01*
D20*
X172800000Y-161950000D02*
X172800000Y-161800000D01*
X165000000Y-177550000D02*
X165000000Y-169750000D01*
X165000000Y-169750000D02*
X172800000Y-161950000D01*
X171250000Y-186300008D02*
X178750001Y-178800007D01*
X178750001Y-178800007D02*
X179150000Y-178400008D01*
X171250000Y-192000000D02*
X171250000Y-186300008D01*
X170000000Y-193250000D02*
X171250000Y-192000000D01*
D21*
X187150000Y-201437500D02*
X187150000Y-195050000D01*
X189706250Y-203993750D02*
X187150000Y-201437500D01*
D20*
X162550000Y-177550000D02*
X159708044Y-174708044D01*
X180059486Y-145038228D02*
X180059486Y-143836147D01*
X159708044Y-174708044D02*
X159708044Y-165666882D01*
X159708044Y-165666882D02*
X180059486Y-145315440D01*
X180059486Y-145315440D02*
X180059486Y-145038228D01*
X177704439Y-145989729D02*
X177704439Y-144787648D01*
X159381033Y-176781033D02*
X159381033Y-165531430D01*
X177704439Y-147208024D02*
X177704439Y-145989729D01*
X159381033Y-165531430D02*
X177704439Y-147208024D01*
X160150000Y-177550000D02*
X159381033Y-176781033D01*
X175349392Y-149100608D02*
X175349392Y-146941229D01*
X159054022Y-165395980D02*
X175349392Y-149100608D01*
X159054022Y-176345978D02*
X159054022Y-165395980D01*
X175349392Y-146941229D02*
X175349392Y-145739148D01*
X157800000Y-177600000D02*
X159054022Y-176345978D01*
X158727011Y-174322989D02*
X158727011Y-165260529D01*
X158727011Y-165260529D02*
X172994345Y-150993195D01*
X155400000Y-177650000D02*
X158727011Y-174322989D01*
X172994345Y-150993195D02*
X172994345Y-147707403D01*
X172994345Y-147707403D02*
X172994345Y-146690649D01*
X187665141Y-162347579D02*
X187665141Y-161145498D01*
X187665141Y-163272248D02*
X187665141Y-162347579D01*
X164600000Y-186337389D02*
X187665141Y-163272248D01*
X164600000Y-190050000D02*
X164600000Y-186337389D01*
X167700000Y-193150000D02*
X164600000Y-190050000D01*
X164272989Y-186201937D02*
X185310094Y-165164830D01*
X185310094Y-165164830D02*
X185310094Y-163299080D01*
X164272989Y-192122989D02*
X164272989Y-186201937D01*
X185310094Y-163299080D02*
X185310094Y-162096999D01*
X165300000Y-193150000D02*
X164272989Y-192122989D01*
X163904022Y-186108441D02*
X182955047Y-167057415D01*
X163904022Y-192195978D02*
X163904022Y-186108441D01*
X182955047Y-164250580D02*
X182955047Y-163048499D01*
X182955047Y-167057415D02*
X182955047Y-164250580D01*
X162900000Y-193200000D02*
X163904022Y-192195978D01*
X160500000Y-193250000D02*
X163577011Y-190172989D01*
X163577011Y-190172989D02*
X163577011Y-185972991D01*
X163577011Y-185972991D02*
X180600000Y-168950000D01*
X180600000Y-168950000D02*
X180600000Y-165016754D01*
X180600000Y-165016754D02*
X180600000Y-164000000D01*
D21*
X184943750Y-201612500D02*
X187283098Y-203951848D01*
X184943750Y-188506250D02*
X184943750Y-201612500D01*
X194165141Y-177645498D02*
X194165141Y-179284859D01*
X194165141Y-179284859D02*
X184943750Y-188506250D01*
X184493739Y-203543739D02*
X184543751Y-203593751D01*
X184493739Y-188422609D02*
X184493739Y-203543739D01*
X191810094Y-181106254D02*
X184493739Y-188422609D01*
X191810094Y-178596999D02*
X191810094Y-181106254D01*
X184543751Y-203593751D02*
X184943750Y-203993750D01*
X189455047Y-182928127D02*
X184034022Y-188349152D01*
X189455047Y-179548499D02*
X189455047Y-182928127D01*
X184034022Y-188349152D02*
X184034022Y-202522228D01*
X184034022Y-202522228D02*
X182962499Y-203593751D01*
X182962499Y-203593751D02*
X182562500Y-203993750D01*
X183584011Y-188265989D02*
X183584011Y-200590989D01*
X187100000Y-180500000D02*
X187100000Y-184750000D01*
X187100000Y-184750000D02*
X183584011Y-188265989D01*
X183584011Y-200590989D02*
X180181250Y-203993750D01*
D20*
X98263033Y-213166187D02*
X92916187Y-213166187D01*
X92916187Y-213166187D02*
X75150000Y-195400000D01*
X75150000Y-195400000D02*
X75150000Y-194400000D01*
X75150000Y-194400000D02*
X75100000Y-194350000D01*
X52395205Y-182995205D02*
X52395205Y-182503276D01*
X75150000Y-195400000D02*
X64800000Y-195400000D01*
X64800000Y-195400000D02*
X52395205Y-182995205D01*
D22*
X97709848Y-213868000D02*
X97825061Y-213983213D01*
D20*
X52645785Y-184858323D02*
X51443704Y-184858323D01*
X53795860Y-184858323D02*
X52645785Y-184858323D01*
X64664548Y-195727011D02*
X53795860Y-184858323D01*
X75014549Y-195727011D02*
X64664548Y-195727011D01*
X97825061Y-213983213D02*
X93270751Y-213983213D01*
X93270751Y-213983213D02*
X75014549Y-195727011D01*
D21*
X89030476Y-211165681D02*
X94337070Y-216472275D01*
X98766013Y-216472275D02*
X99331698Y-216472275D01*
X81907015Y-211165681D02*
X89030476Y-211165681D01*
X94337070Y-216472275D02*
X98766013Y-216472275D01*
X198823946Y-192676054D02*
X198900000Y-192600000D01*
X194056000Y-216408006D02*
X198823946Y-211640060D01*
X198823946Y-211640060D02*
X198823946Y-192676054D01*
D20*
X200650000Y-204615685D02*
X200650000Y-204050000D01*
X193541787Y-217433320D02*
X194107472Y-217433320D01*
X194107472Y-217433320D02*
X200650000Y-210890792D01*
X200650000Y-210890792D02*
X200650000Y-204615685D01*
X200650000Y-203484315D02*
X200650000Y-204050000D01*
X200650000Y-197900000D02*
X200650000Y-203484315D01*
X200200000Y-197450000D02*
X200650000Y-197900000D01*
D21*
X194367677Y-218440000D02*
X193605681Y-218440000D01*
X193605681Y-218440000D02*
X193039996Y-218440000D01*
X218978839Y-193828839D02*
X194367677Y-218440000D01*
D20*
X218978839Y-193636517D02*
X218924959Y-193582637D01*
X218978839Y-193828839D02*
X218978839Y-193636517D01*
D21*
X218924959Y-193774959D02*
X218924959Y-193582637D01*
X218978839Y-193828839D02*
X218924959Y-193774959D01*
X237066137Y-184666137D02*
X234522989Y-182122989D01*
X234522989Y-182122989D02*
X228293836Y-182122990D01*
X224472989Y-185943837D02*
X224472989Y-188956689D01*
X193097685Y-219456000D02*
X192532000Y-219456000D01*
X228293836Y-182122990D02*
X224472989Y-185943837D01*
X224472989Y-188956689D02*
X193973678Y-219456000D01*
X242479882Y-184666137D02*
X237066137Y-184666137D01*
X193973678Y-219456000D02*
X193097685Y-219456000D01*
X180865033Y-226234299D02*
X180849484Y-226218750D01*
D19*
X141223685Y-221176000D02*
X140658000Y-221176000D01*
X147221344Y-212344000D02*
X147378673Y-212186671D01*
X142240000Y-212344000D02*
X147221344Y-212344000D01*
X140658000Y-213926000D02*
X142240000Y-212344000D01*
X152019000Y-211836000D02*
X147828000Y-211836000D01*
X153670000Y-213487000D02*
X152019000Y-211836000D01*
X147828000Y-211836000D02*
X147778672Y-211786672D01*
X140970000Y-199096000D02*
X140970000Y-207264000D01*
X140970000Y-207264000D02*
X140970000Y-208788000D01*
X140990000Y-199076000D02*
X140970000Y-199096000D01*
X140970000Y-208788000D02*
X141732000Y-209550000D01*
X153670000Y-213487000D02*
X153670000Y-220980000D01*
X148749977Y-224473011D02*
X145452966Y-221176000D01*
X140658000Y-213926000D02*
X140658000Y-221176000D01*
X148749977Y-224473011D02*
X175512033Y-224473011D01*
X175512033Y-224473011D02*
X177807813Y-222177231D01*
X147378673Y-212186671D02*
X147778672Y-211786672D01*
X145452966Y-221176000D02*
X141223685Y-221176000D01*
X146814315Y-206950000D02*
X148786315Y-204978000D01*
X141284000Y-206950000D02*
X146814315Y-206950000D01*
X140970000Y-207264000D02*
X141284000Y-206950000D01*
X148786315Y-204978000D02*
X149352000Y-204978000D01*
D20*
X147828000Y-210312000D02*
X151326315Y-210312000D01*
X146720000Y-211420000D02*
X147828000Y-210312000D01*
X142367000Y-211420000D02*
X146720000Y-211420000D01*
X142367000Y-211328000D02*
X142367000Y-211420000D01*
X140030999Y-213664001D02*
X142367000Y-211328000D01*
X142594750Y-225063000D02*
X140030999Y-222499249D01*
X144272000Y-225063000D02*
X142594750Y-225063000D01*
X140030999Y-222499249D02*
X140030999Y-213664001D01*
X151326315Y-210312000D02*
X151892000Y-210312000D01*
D22*
X147166000Y-201856004D02*
X147166000Y-201810990D01*
X147165998Y-201856006D02*
X147166000Y-201856004D01*
D20*
X145750000Y-203226990D02*
X145750000Y-204684315D01*
X145750000Y-204684315D02*
X145750000Y-205250000D01*
X147166000Y-201810990D02*
X145750000Y-203226990D01*
X146675585Y-203571413D02*
X146675585Y-204785737D01*
X148436008Y-201810990D02*
X146675585Y-203571413D01*
X146675585Y-204785737D02*
X146675585Y-205351422D01*
X98044000Y-214884000D02*
X93709076Y-214884000D01*
X64529096Y-196054022D02*
X55688444Y-187213370D01*
X74879098Y-196054022D02*
X64529096Y-196054022D01*
X55688444Y-187213370D02*
X51694285Y-187213370D01*
X51694285Y-187213370D02*
X50492204Y-187213370D01*
X93709076Y-214884000D02*
X74879098Y-196054022D01*
X57581029Y-189568417D02*
X50742784Y-189568417D01*
X98701468Y-215791519D02*
X94154133Y-215791519D01*
X50742784Y-189568417D02*
X49540703Y-189568417D01*
X74762615Y-196400001D02*
X64412613Y-196400001D01*
X64412613Y-196400001D02*
X57581029Y-189568417D01*
X94154133Y-215791519D02*
X74762615Y-196400001D01*
D21*
X224850000Y-186100000D02*
X224850000Y-189216089D01*
X228450000Y-182500000D02*
X224850000Y-186100000D01*
X234366826Y-182500000D02*
X228450000Y-182500000D01*
X192599481Y-220465080D02*
X192033796Y-220465080D01*
X193601009Y-220465080D02*
X192599481Y-220465080D01*
X238888010Y-187021184D02*
X234366826Y-182500000D01*
X243431382Y-187021184D02*
X238888010Y-187021184D01*
X224850000Y-189216089D02*
X193601009Y-220465080D01*
D22*
X191516000Y-221488000D02*
X193214500Y-221488000D01*
X193214500Y-221488000D02*
X194271470Y-220431030D01*
D21*
X221652500Y-193050000D02*
X194277467Y-220425033D01*
X235900000Y-193050000D02*
X221652500Y-193050000D01*
X244382883Y-189376231D02*
X239573769Y-189376231D01*
X239573769Y-189376231D02*
X235900000Y-193050000D01*
D20*
X152900000Y-162950000D02*
X152850000Y-163000000D01*
X149627663Y-157133003D02*
X152900000Y-160405340D01*
X152900000Y-160405340D02*
X152900000Y-162950000D01*
X108750000Y-219262863D02*
X108750000Y-215200000D01*
X113891504Y-224404367D02*
X108750000Y-219262863D01*
X112362894Y-226432901D02*
X106350000Y-220420007D01*
X106350000Y-220420007D02*
X106350000Y-215200000D01*
X134366000Y-220216000D02*
X136400000Y-222250000D01*
X134350000Y-220200000D02*
X134366000Y-220216000D01*
X129900000Y-222250000D02*
X131950000Y-220200000D01*
X131950000Y-220200000D02*
X134350000Y-220200000D01*
X134366000Y-220216000D02*
X134500000Y-220082000D01*
X134500000Y-220082000D02*
X134500000Y-215715685D01*
X134500000Y-215715685D02*
X134500000Y-215150000D01*
X143484600Y-227101400D02*
X143510000Y-227076000D01*
X126250000Y-222250000D02*
X119750000Y-222250000D01*
X127037499Y-223037499D02*
X126250000Y-222250000D01*
X128200000Y-224200000D02*
X127037499Y-223037499D01*
X136700000Y-224200000D02*
X128200000Y-224200000D01*
X143510000Y-227076000D02*
X139576000Y-227076000D01*
X139576000Y-227076000D02*
X136700000Y-224200000D01*
M02*
