G04 #@! TF.GenerationSoftware,KiCad,Pcbnew,(5.1.4)-1*
G04 #@! TF.CreationDate,2024-04-24T20:55:01-04:00*
G04 #@! TF.ProjectId,ThumbsUp,5468756d-6273-4557-902e-6b696361645f,rev?*
G04 #@! TF.SameCoordinates,Original*
G04 #@! TF.FileFunction,Legend,Bot*
G04 #@! TF.FilePolarity,Positive*
%FSLAX46Y46*%
G04 Gerber Fmt 4.6, Leading zero omitted, Abs format (unit mm)*
G04 Created by KiCad (PCBNEW (5.1.4)-1) date 2024-04-24 20:55:01*
%MOMM*%
%LPD*%
G04 APERTURE LIST*
%ADD10C,0.150000*%
%ADD11C,0.120000*%
%ADD12C,0.254000*%
%ADD13C,0.200000*%
G04 APERTURE END LIST*
D10*
X124721428Y-177804761D02*
X124721428Y-178566666D01*
X124435714Y-179042857D02*
X124721428Y-179804761D01*
X125007142Y-179042857D01*
X125435714Y-180519047D02*
X124007142Y-180519047D01*
X124721428Y-181233333D02*
X124721428Y-181995238D01*
X150921428Y-178104761D02*
X150921428Y-178866666D01*
X150635714Y-179342857D02*
X150921428Y-180104761D01*
X151207142Y-179342857D01*
X151635714Y-180819047D02*
X150207142Y-180819047D01*
X150921428Y-181533333D02*
X150921428Y-182295238D01*
X155771428Y-193804761D02*
X155771428Y-194566666D01*
X155485714Y-195042857D02*
X155771428Y-195804761D01*
X156057142Y-195042857D01*
X156485714Y-196519047D02*
X155057142Y-196519047D01*
X155771428Y-197233333D02*
X155771428Y-197995238D01*
X110836571Y-214923238D02*
X110836571Y-214161333D01*
X111122285Y-213685142D02*
X110836571Y-212923238D01*
X110550857Y-213685142D01*
X110122285Y-212208952D02*
X111550857Y-212208952D01*
X110836571Y-211494666D02*
X110836571Y-210732761D01*
X94813428Y-205676761D02*
X94813428Y-206438666D01*
X94527714Y-206914857D02*
X94813428Y-207676761D01*
X95099142Y-206914857D01*
X95527714Y-208391047D02*
X94099142Y-208391047D01*
X94813428Y-209105333D02*
X94813428Y-209867238D01*
X120011428Y-198218761D02*
X120011428Y-198980666D01*
X119725714Y-199456857D02*
X120011428Y-200218761D01*
X120297142Y-199456857D01*
X120725714Y-200933047D02*
X119297142Y-200933047D01*
X120011428Y-201647333D02*
X120011428Y-202409238D01*
X175585428Y-205676761D02*
X175585428Y-206438666D01*
X175299714Y-206914857D02*
X175585428Y-207676761D01*
X175871142Y-206914857D01*
X176299714Y-208391047D02*
X174871142Y-208391047D01*
X175585428Y-209105333D02*
X175585428Y-209867238D01*
X133254761Y-215452380D02*
X132683333Y-215452380D01*
X132969047Y-216452380D02*
X132969047Y-215452380D01*
X132350000Y-216452380D02*
X132350000Y-215452380D01*
X131921428Y-216452380D02*
X131921428Y-215928571D01*
X131969047Y-215833333D01*
X132064285Y-215785714D01*
X132207142Y-215785714D01*
X132302380Y-215833333D01*
X132350000Y-215880952D01*
X131016666Y-215785714D02*
X131016666Y-216452380D01*
X131445238Y-215785714D02*
X131445238Y-216309523D01*
X131397619Y-216404761D01*
X131302380Y-216452380D01*
X131159523Y-216452380D01*
X131064285Y-216404761D01*
X131016666Y-216357142D01*
X130540476Y-216452380D02*
X130540476Y-215785714D01*
X130540476Y-215880952D02*
X130492857Y-215833333D01*
X130397619Y-215785714D01*
X130254761Y-215785714D01*
X130159523Y-215833333D01*
X130111904Y-215928571D01*
X130111904Y-216452380D01*
X130111904Y-215928571D02*
X130064285Y-215833333D01*
X129969047Y-215785714D01*
X129826190Y-215785714D01*
X129730952Y-215833333D01*
X129683333Y-215928571D01*
X129683333Y-216452380D01*
X129207142Y-216452380D02*
X129207142Y-215452380D01*
X129207142Y-215833333D02*
X129111904Y-215785714D01*
X128921428Y-215785714D01*
X128826190Y-215833333D01*
X128778571Y-215880952D01*
X128730952Y-215976190D01*
X128730952Y-216261904D01*
X128778571Y-216357142D01*
X128826190Y-216404761D01*
X128921428Y-216452380D01*
X129111904Y-216452380D01*
X129207142Y-216404761D01*
X128350000Y-216404761D02*
X128254761Y-216452380D01*
X128064285Y-216452380D01*
X127969047Y-216404761D01*
X127921428Y-216309523D01*
X127921428Y-216261904D01*
X127969047Y-216166666D01*
X128064285Y-216119047D01*
X128207142Y-216119047D01*
X128302380Y-216071428D01*
X128350000Y-215976190D01*
X128350000Y-215928571D01*
X128302380Y-215833333D01*
X128207142Y-215785714D01*
X128064285Y-215785714D01*
X127969047Y-215833333D01*
X126730952Y-215452380D02*
X126730952Y-216261904D01*
X126683333Y-216357142D01*
X126635714Y-216404761D01*
X126540476Y-216452380D01*
X126350000Y-216452380D01*
X126254761Y-216404761D01*
X126207142Y-216357142D01*
X126159523Y-216261904D01*
X126159523Y-215452380D01*
X125683333Y-215785714D02*
X125683333Y-216785714D01*
X125683333Y-215833333D02*
X125588095Y-215785714D01*
X125397619Y-215785714D01*
X125302380Y-215833333D01*
X125254761Y-215880952D01*
X125207142Y-215976190D01*
X125207142Y-216261904D01*
X125254761Y-216357142D01*
X125302380Y-216404761D01*
X125397619Y-216452380D01*
X125588095Y-216452380D01*
X125683333Y-216404761D01*
X124778571Y-216357142D02*
X124730952Y-216404761D01*
X124778571Y-216452380D01*
X124826190Y-216404761D01*
X124778571Y-216357142D01*
X124778571Y-216452380D01*
X124778571Y-216071428D02*
X124826190Y-215500000D01*
X124778571Y-215452380D01*
X124730952Y-215500000D01*
X124778571Y-216071428D01*
X124778571Y-215452380D01*
X123635714Y-215785714D02*
X123397619Y-216452380D01*
X123159523Y-215785714D01*
X122254761Y-216452380D02*
X122826190Y-216452380D01*
X122540476Y-216452380D02*
X122540476Y-215452380D01*
X122635714Y-215595238D01*
X122730952Y-215690476D01*
X122826190Y-215738095D01*
X121635714Y-215452380D02*
X121540476Y-215452380D01*
X121445238Y-215500000D01*
X121397619Y-215547619D01*
X121350000Y-215642857D01*
X121302380Y-215833333D01*
X121302380Y-216071428D01*
X121350000Y-216261904D01*
X121397619Y-216357142D01*
X121445238Y-216404761D01*
X121540476Y-216452380D01*
X121635714Y-216452380D01*
X121730952Y-216404761D01*
X121778571Y-216357142D01*
X121826190Y-216261904D01*
X121873809Y-216071428D01*
X121873809Y-215833333D01*
X121826190Y-215642857D01*
X121778571Y-215547619D01*
X121730952Y-215500000D01*
X121635714Y-215452380D01*
X120111904Y-216452380D02*
X120111904Y-215452380D01*
X120111904Y-215833333D02*
X120016666Y-215785714D01*
X119826190Y-215785714D01*
X119730952Y-215833333D01*
X119683333Y-215880952D01*
X119635714Y-215976190D01*
X119635714Y-216261904D01*
X119683333Y-216357142D01*
X119730952Y-216404761D01*
X119826190Y-216452380D01*
X120016666Y-216452380D01*
X120111904Y-216404761D01*
X119302380Y-215785714D02*
X119064285Y-216452380D01*
X118826190Y-215785714D02*
X119064285Y-216452380D01*
X119159523Y-216690476D01*
X119207142Y-216738095D01*
X119302380Y-216785714D01*
X117730952Y-216404761D02*
X117588095Y-216452380D01*
X117350000Y-216452380D01*
X117254761Y-216404761D01*
X117207142Y-216357142D01*
X117159523Y-216261904D01*
X117159523Y-216166666D01*
X117207142Y-216071428D01*
X117254761Y-216023809D01*
X117350000Y-215976190D01*
X117540476Y-215928571D01*
X117635714Y-215880952D01*
X117683333Y-215833333D01*
X117730952Y-215738095D01*
X117730952Y-215642857D01*
X117683333Y-215547619D01*
X117635714Y-215500000D01*
X117540476Y-215452380D01*
X117302380Y-215452380D01*
X117159523Y-215500000D01*
X116302380Y-216452380D02*
X116302380Y-215928571D01*
X116350000Y-215833333D01*
X116445238Y-215785714D01*
X116635714Y-215785714D01*
X116730952Y-215833333D01*
X116302380Y-216404761D02*
X116397619Y-216452380D01*
X116635714Y-216452380D01*
X116730952Y-216404761D01*
X116778571Y-216309523D01*
X116778571Y-216214285D01*
X116730952Y-216119047D01*
X116635714Y-216071428D01*
X116397619Y-216071428D01*
X116302380Y-216023809D01*
X115873809Y-216404761D02*
X115778571Y-216452380D01*
X115588095Y-216452380D01*
X115492857Y-216404761D01*
X115445238Y-216309523D01*
X115445238Y-216261904D01*
X115492857Y-216166666D01*
X115588095Y-216119047D01*
X115730952Y-216119047D01*
X115826190Y-216071428D01*
X115873809Y-215976190D01*
X115873809Y-215928571D01*
X115826190Y-215833333D01*
X115730952Y-215785714D01*
X115588095Y-215785714D01*
X115492857Y-215833333D01*
X115016666Y-216452380D02*
X115016666Y-215452380D01*
X114588095Y-216452380D02*
X114588095Y-215928571D01*
X114635714Y-215833333D01*
X114730952Y-215785714D01*
X114873809Y-215785714D01*
X114969047Y-215833333D01*
X115016666Y-215880952D01*
X113683333Y-216452380D02*
X113683333Y-215928571D01*
X113730952Y-215833333D01*
X113826190Y-215785714D01*
X114016666Y-215785714D01*
X114111904Y-215833333D01*
X113683333Y-216404761D02*
X113778571Y-216452380D01*
X114016666Y-216452380D01*
X114111904Y-216404761D01*
X114159523Y-216309523D01*
X114159523Y-216214285D01*
X114111904Y-216119047D01*
X114016666Y-216071428D01*
X113778571Y-216071428D01*
X113683333Y-216023809D01*
X112445238Y-216452380D02*
X112445238Y-215452380D01*
X111873809Y-216452380D02*
X112302380Y-215880952D01*
X111873809Y-215452380D02*
X112445238Y-216023809D01*
X111016666Y-216452380D02*
X111016666Y-215928571D01*
X111064285Y-215833333D01*
X111159523Y-215785714D01*
X111350000Y-215785714D01*
X111445238Y-215833333D01*
X111016666Y-216404761D02*
X111111904Y-216452380D01*
X111350000Y-216452380D01*
X111445238Y-216404761D01*
X111492857Y-216309523D01*
X111492857Y-216214285D01*
X111445238Y-216119047D01*
X111350000Y-216071428D01*
X111111904Y-216071428D01*
X111016666Y-216023809D01*
X110540476Y-216452380D02*
X110540476Y-215785714D01*
X110540476Y-215976190D02*
X110492857Y-215880952D01*
X110445238Y-215833333D01*
X110350000Y-215785714D01*
X110254761Y-215785714D01*
X109921428Y-216452380D02*
X109921428Y-215785714D01*
X109921428Y-215880952D02*
X109873809Y-215833333D01*
X109778571Y-215785714D01*
X109635714Y-215785714D01*
X109540476Y-215833333D01*
X109492857Y-215928571D01*
X109492857Y-216452380D01*
X109492857Y-215928571D02*
X109445238Y-215833333D01*
X109350000Y-215785714D01*
X109207142Y-215785714D01*
X109111904Y-215833333D01*
X109064285Y-215928571D01*
X109064285Y-216452380D01*
X108159523Y-216452380D02*
X108159523Y-215928571D01*
X108207142Y-215833333D01*
X108302380Y-215785714D01*
X108492857Y-215785714D01*
X108588095Y-215833333D01*
X108159523Y-216404761D02*
X108254761Y-216452380D01*
X108492857Y-216452380D01*
X108588095Y-216404761D01*
X108635714Y-216309523D01*
X108635714Y-216214285D01*
X108588095Y-216119047D01*
X108492857Y-216071428D01*
X108254761Y-216071428D01*
X108159523Y-216023809D01*
X107683333Y-215785714D02*
X107683333Y-216452380D01*
X107683333Y-215880952D02*
X107635714Y-215833333D01*
X107540476Y-215785714D01*
X107397619Y-215785714D01*
X107302380Y-215833333D01*
X107254761Y-215928571D01*
X107254761Y-216452380D01*
X106635714Y-216452380D02*
X106730952Y-216404761D01*
X106778571Y-216357142D01*
X106826190Y-216261904D01*
X106826190Y-215976190D01*
X106778571Y-215880952D01*
X106730952Y-215833333D01*
X106635714Y-215785714D01*
X106492857Y-215785714D01*
X106397619Y-215833333D01*
X106350000Y-215880952D01*
X106302380Y-215976190D01*
X106302380Y-216261904D01*
X106350000Y-216357142D01*
X106397619Y-216404761D01*
X106492857Y-216452380D01*
X106635714Y-216452380D01*
X105969047Y-215785714D02*
X105730952Y-216452380D01*
X105492857Y-215785714D01*
X124707142Y-217816666D02*
X124230952Y-217816666D01*
X124802380Y-218102380D02*
X124469047Y-217102380D01*
X124135714Y-218102380D01*
X123802380Y-217435714D02*
X123802380Y-218435714D01*
X123802380Y-217483333D02*
X123707142Y-217435714D01*
X123516666Y-217435714D01*
X123421428Y-217483333D01*
X123373809Y-217530952D01*
X123326190Y-217626190D01*
X123326190Y-217911904D01*
X123373809Y-218007142D01*
X123421428Y-218054761D01*
X123516666Y-218102380D01*
X123707142Y-218102380D01*
X123802380Y-218054761D01*
X122897619Y-218102380D02*
X122897619Y-217435714D01*
X122897619Y-217626190D02*
X122850000Y-217530952D01*
X122802380Y-217483333D01*
X122707142Y-217435714D01*
X122611904Y-217435714D01*
X122278571Y-218102380D02*
X122278571Y-217435714D01*
X122278571Y-217102380D02*
X122326190Y-217150000D01*
X122278571Y-217197619D01*
X122230952Y-217150000D01*
X122278571Y-217102380D01*
X122278571Y-217197619D01*
X121659523Y-218102380D02*
X121754761Y-218054761D01*
X121802380Y-217959523D01*
X121802380Y-217102380D01*
X120326190Y-217102380D02*
X120230952Y-217102380D01*
X120135714Y-217150000D01*
X120088095Y-217197619D01*
X120040476Y-217292857D01*
X119992857Y-217483333D01*
X119992857Y-217721428D01*
X120040476Y-217911904D01*
X120088095Y-218007142D01*
X120135714Y-218054761D01*
X120230952Y-218102380D01*
X120326190Y-218102380D01*
X120421428Y-218054761D01*
X120469047Y-218007142D01*
X120516666Y-217911904D01*
X120564285Y-217721428D01*
X120564285Y-217483333D01*
X120516666Y-217292857D01*
X120469047Y-217197619D01*
X120421428Y-217150000D01*
X120326190Y-217102380D01*
X119611904Y-217197619D02*
X119564285Y-217150000D01*
X119469047Y-217102380D01*
X119230952Y-217102380D01*
X119135714Y-217150000D01*
X119088095Y-217197619D01*
X119040476Y-217292857D01*
X119040476Y-217388095D01*
X119088095Y-217530952D01*
X119659523Y-218102380D01*
X119040476Y-218102380D01*
X118564285Y-218054761D02*
X118564285Y-218102380D01*
X118611904Y-218197619D01*
X118659523Y-218245238D01*
X117421428Y-217197619D02*
X117373809Y-217150000D01*
X117278571Y-217102380D01*
X117040476Y-217102380D01*
X116945238Y-217150000D01*
X116897619Y-217197619D01*
X116850000Y-217292857D01*
X116850000Y-217388095D01*
X116897619Y-217530952D01*
X117469047Y-218102380D01*
X116850000Y-218102380D01*
X116230952Y-217102380D02*
X116135714Y-217102380D01*
X116040476Y-217150000D01*
X115992857Y-217197619D01*
X115945238Y-217292857D01*
X115897619Y-217483333D01*
X115897619Y-217721428D01*
X115945238Y-217911904D01*
X115992857Y-218007142D01*
X116040476Y-218054761D01*
X116135714Y-218102380D01*
X116230952Y-218102380D01*
X116326190Y-218054761D01*
X116373809Y-218007142D01*
X116421428Y-217911904D01*
X116469047Y-217721428D01*
X116469047Y-217483333D01*
X116421428Y-217292857D01*
X116373809Y-217197619D01*
X116326190Y-217150000D01*
X116230952Y-217102380D01*
X115516666Y-217197619D02*
X115469047Y-217150000D01*
X115373809Y-217102380D01*
X115135714Y-217102380D01*
X115040476Y-217150000D01*
X114992857Y-217197619D01*
X114945238Y-217292857D01*
X114945238Y-217388095D01*
X114992857Y-217530952D01*
X115564285Y-218102380D01*
X114945238Y-218102380D01*
X114088095Y-217435714D02*
X114088095Y-218102380D01*
X114326190Y-217054761D02*
X114564285Y-217769047D01*
X113945238Y-217769047D01*
X135850000Y-219752380D02*
X135850000Y-218752380D01*
X135421428Y-219752380D02*
X135421428Y-219228571D01*
X135469047Y-219133333D01*
X135564285Y-219085714D01*
X135707142Y-219085714D01*
X135802380Y-219133333D01*
X135850000Y-219180952D01*
X135088095Y-219085714D02*
X134707142Y-219085714D01*
X134945238Y-218752380D02*
X134945238Y-219609523D01*
X134897619Y-219704761D01*
X134802380Y-219752380D01*
X134707142Y-219752380D01*
X134516666Y-219085714D02*
X134135714Y-219085714D01*
X134373809Y-218752380D02*
X134373809Y-219609523D01*
X134326190Y-219704761D01*
X134230952Y-219752380D01*
X134135714Y-219752380D01*
X133802380Y-219085714D02*
X133802380Y-220085714D01*
X133802380Y-219133333D02*
X133707142Y-219085714D01*
X133516666Y-219085714D01*
X133421428Y-219133333D01*
X133373809Y-219180952D01*
X133326190Y-219276190D01*
X133326190Y-219561904D01*
X133373809Y-219657142D01*
X133421428Y-219704761D01*
X133516666Y-219752380D01*
X133707142Y-219752380D01*
X133802380Y-219704761D01*
X132945238Y-219704761D02*
X132850000Y-219752380D01*
X132659523Y-219752380D01*
X132564285Y-219704761D01*
X132516666Y-219609523D01*
X132516666Y-219561904D01*
X132564285Y-219466666D01*
X132659523Y-219419047D01*
X132802380Y-219419047D01*
X132897619Y-219371428D01*
X132945238Y-219276190D01*
X132945238Y-219228571D01*
X132897619Y-219133333D01*
X132802380Y-219085714D01*
X132659523Y-219085714D01*
X132564285Y-219133333D01*
X132088095Y-219657142D02*
X132040476Y-219704761D01*
X132088095Y-219752380D01*
X132135714Y-219704761D01*
X132088095Y-219657142D01*
X132088095Y-219752380D01*
X132088095Y-219133333D02*
X132040476Y-219180952D01*
X132088095Y-219228571D01*
X132135714Y-219180952D01*
X132088095Y-219133333D01*
X132088095Y-219228571D01*
X130897619Y-218704761D02*
X131754761Y-219990476D01*
X129850000Y-218704761D02*
X130707142Y-219990476D01*
X129088095Y-219085714D02*
X129088095Y-219895238D01*
X129135714Y-219990476D01*
X129183333Y-220038095D01*
X129278571Y-220085714D01*
X129421428Y-220085714D01*
X129516666Y-220038095D01*
X129088095Y-219704761D02*
X129183333Y-219752380D01*
X129373809Y-219752380D01*
X129469047Y-219704761D01*
X129516666Y-219657142D01*
X129564285Y-219561904D01*
X129564285Y-219276190D01*
X129516666Y-219180952D01*
X129469047Y-219133333D01*
X129373809Y-219085714D01*
X129183333Y-219085714D01*
X129088095Y-219133333D01*
X128611904Y-219752380D02*
X128611904Y-219085714D01*
X128611904Y-218752380D02*
X128659523Y-218800000D01*
X128611904Y-218847619D01*
X128564285Y-218800000D01*
X128611904Y-218752380D01*
X128611904Y-218847619D01*
X128278571Y-219085714D02*
X127897619Y-219085714D01*
X128135714Y-218752380D02*
X128135714Y-219609523D01*
X128088095Y-219704761D01*
X127992857Y-219752380D01*
X127897619Y-219752380D01*
X127564285Y-219752380D02*
X127564285Y-218752380D01*
X127135714Y-219752380D02*
X127135714Y-219228571D01*
X127183333Y-219133333D01*
X127278571Y-219085714D01*
X127421428Y-219085714D01*
X127516666Y-219133333D01*
X127564285Y-219180952D01*
X126230952Y-219085714D02*
X126230952Y-219752380D01*
X126659523Y-219085714D02*
X126659523Y-219609523D01*
X126611904Y-219704761D01*
X126516666Y-219752380D01*
X126373809Y-219752380D01*
X126278571Y-219704761D01*
X126230952Y-219657142D01*
X125754761Y-219752380D02*
X125754761Y-218752380D01*
X125754761Y-219133333D02*
X125659523Y-219085714D01*
X125469047Y-219085714D01*
X125373809Y-219133333D01*
X125326190Y-219180952D01*
X125278571Y-219276190D01*
X125278571Y-219561904D01*
X125326190Y-219657142D01*
X125373809Y-219704761D01*
X125469047Y-219752380D01*
X125659523Y-219752380D01*
X125754761Y-219704761D01*
X124850000Y-219657142D02*
X124802380Y-219704761D01*
X124850000Y-219752380D01*
X124897619Y-219704761D01*
X124850000Y-219657142D01*
X124850000Y-219752380D01*
X123945238Y-219704761D02*
X124040476Y-219752380D01*
X124230952Y-219752380D01*
X124326190Y-219704761D01*
X124373809Y-219657142D01*
X124421428Y-219561904D01*
X124421428Y-219276190D01*
X124373809Y-219180952D01*
X124326190Y-219133333D01*
X124230952Y-219085714D01*
X124040476Y-219085714D01*
X123945238Y-219133333D01*
X123373809Y-219752380D02*
X123469047Y-219704761D01*
X123516666Y-219657142D01*
X123564285Y-219561904D01*
X123564285Y-219276190D01*
X123516666Y-219180952D01*
X123469047Y-219133333D01*
X123373809Y-219085714D01*
X123230952Y-219085714D01*
X123135714Y-219133333D01*
X123088095Y-219180952D01*
X123040476Y-219276190D01*
X123040476Y-219561904D01*
X123088095Y-219657142D01*
X123135714Y-219704761D01*
X123230952Y-219752380D01*
X123373809Y-219752380D01*
X122611904Y-219752380D02*
X122611904Y-219085714D01*
X122611904Y-219180952D02*
X122564285Y-219133333D01*
X122469047Y-219085714D01*
X122326190Y-219085714D01*
X122230952Y-219133333D01*
X122183333Y-219228571D01*
X122183333Y-219752380D01*
X122183333Y-219228571D02*
X122135714Y-219133333D01*
X122040476Y-219085714D01*
X121897619Y-219085714D01*
X121802380Y-219133333D01*
X121754761Y-219228571D01*
X121754761Y-219752380D01*
X120564285Y-218704761D02*
X121421428Y-219990476D01*
X119802380Y-219752380D02*
X119802380Y-219228571D01*
X119850000Y-219133333D01*
X119945238Y-219085714D01*
X120135714Y-219085714D01*
X120230952Y-219133333D01*
X119802380Y-219704761D02*
X119897619Y-219752380D01*
X120135714Y-219752380D01*
X120230952Y-219704761D01*
X120278571Y-219609523D01*
X120278571Y-219514285D01*
X120230952Y-219419047D01*
X120135714Y-219371428D01*
X119897619Y-219371428D01*
X119802380Y-219323809D01*
X119326190Y-219752380D02*
X119326190Y-218752380D01*
X119230952Y-219371428D02*
X118945238Y-219752380D01*
X118945238Y-219085714D02*
X119326190Y-219466666D01*
X118088095Y-218752380D02*
X118278571Y-218752380D01*
X118373809Y-218800000D01*
X118421428Y-218847619D01*
X118516666Y-218990476D01*
X118564285Y-219180952D01*
X118564285Y-219561904D01*
X118516666Y-219657142D01*
X118469047Y-219704761D01*
X118373809Y-219752380D01*
X118183333Y-219752380D01*
X118088095Y-219704761D01*
X118040476Y-219657142D01*
X117992857Y-219561904D01*
X117992857Y-219323809D01*
X118040476Y-219228571D01*
X118088095Y-219180952D01*
X118183333Y-219133333D01*
X118373809Y-219133333D01*
X118469047Y-219180952D01*
X118516666Y-219228571D01*
X118564285Y-219323809D01*
X117135714Y-218752380D02*
X117326190Y-218752380D01*
X117421428Y-218800000D01*
X117469047Y-218847619D01*
X117564285Y-218990476D01*
X117611904Y-219180952D01*
X117611904Y-219561904D01*
X117564285Y-219657142D01*
X117516666Y-219704761D01*
X117421428Y-219752380D01*
X117230952Y-219752380D01*
X117135714Y-219704761D01*
X117088095Y-219657142D01*
X117040476Y-219561904D01*
X117040476Y-219323809D01*
X117088095Y-219228571D01*
X117135714Y-219180952D01*
X117230952Y-219133333D01*
X117421428Y-219133333D01*
X117516666Y-219180952D01*
X117564285Y-219228571D01*
X117611904Y-219323809D01*
X116183333Y-218752380D02*
X116373809Y-218752380D01*
X116469047Y-218800000D01*
X116516666Y-218847619D01*
X116611904Y-218990476D01*
X116659523Y-219180952D01*
X116659523Y-219561904D01*
X116611904Y-219657142D01*
X116564285Y-219704761D01*
X116469047Y-219752380D01*
X116278571Y-219752380D01*
X116183333Y-219704761D01*
X116135714Y-219657142D01*
X116088095Y-219561904D01*
X116088095Y-219323809D01*
X116135714Y-219228571D01*
X116183333Y-219180952D01*
X116278571Y-219133333D01*
X116469047Y-219133333D01*
X116564285Y-219180952D01*
X116611904Y-219228571D01*
X116659523Y-219323809D01*
X115230952Y-218752380D02*
X115421428Y-218752380D01*
X115516666Y-218800000D01*
X115564285Y-218847619D01*
X115659523Y-218990476D01*
X115707142Y-219180952D01*
X115707142Y-219561904D01*
X115659523Y-219657142D01*
X115611904Y-219704761D01*
X115516666Y-219752380D01*
X115326190Y-219752380D01*
X115230952Y-219704761D01*
X115183333Y-219657142D01*
X115135714Y-219561904D01*
X115135714Y-219323809D01*
X115183333Y-219228571D01*
X115230952Y-219180952D01*
X115326190Y-219133333D01*
X115516666Y-219133333D01*
X115611904Y-219180952D01*
X115659523Y-219228571D01*
X115707142Y-219323809D01*
X114278571Y-218752380D02*
X114469047Y-218752380D01*
X114564285Y-218800000D01*
X114611904Y-218847619D01*
X114707142Y-218990476D01*
X114754761Y-219180952D01*
X114754761Y-219561904D01*
X114707142Y-219657142D01*
X114659523Y-219704761D01*
X114564285Y-219752380D01*
X114373809Y-219752380D01*
X114278571Y-219704761D01*
X114230952Y-219657142D01*
X114183333Y-219561904D01*
X114183333Y-219323809D01*
X114230952Y-219228571D01*
X114278571Y-219180952D01*
X114373809Y-219133333D01*
X114564285Y-219133333D01*
X114659523Y-219180952D01*
X114707142Y-219228571D01*
X114754761Y-219323809D01*
X113040476Y-218704761D02*
X113897619Y-219990476D01*
X112850000Y-218752380D02*
X112278571Y-218752380D01*
X112564285Y-219752380D02*
X112564285Y-218752380D01*
X111945238Y-219752380D02*
X111945238Y-218752380D01*
X111516666Y-219752380D02*
X111516666Y-219228571D01*
X111564285Y-219133333D01*
X111659523Y-219085714D01*
X111802380Y-219085714D01*
X111897619Y-219133333D01*
X111945238Y-219180952D01*
X110611904Y-219085714D02*
X110611904Y-219752380D01*
X111040476Y-219085714D02*
X111040476Y-219609523D01*
X110992857Y-219704761D01*
X110897619Y-219752380D01*
X110754761Y-219752380D01*
X110659523Y-219704761D01*
X110611904Y-219657142D01*
X110135714Y-219752380D02*
X110135714Y-219085714D01*
X110135714Y-219180952D02*
X110088095Y-219133333D01*
X109992857Y-219085714D01*
X109850000Y-219085714D01*
X109754761Y-219133333D01*
X109707142Y-219228571D01*
X109707142Y-219752380D01*
X109707142Y-219228571D02*
X109659523Y-219133333D01*
X109564285Y-219085714D01*
X109421428Y-219085714D01*
X109326190Y-219133333D01*
X109278571Y-219228571D01*
X109278571Y-219752380D01*
X108802380Y-219752380D02*
X108802380Y-218752380D01*
X108802380Y-219133333D02*
X108707142Y-219085714D01*
X108516666Y-219085714D01*
X108421428Y-219133333D01*
X108373809Y-219180952D01*
X108326190Y-219276190D01*
X108326190Y-219561904D01*
X108373809Y-219657142D01*
X108421428Y-219704761D01*
X108516666Y-219752380D01*
X108707142Y-219752380D01*
X108802380Y-219704761D01*
X107945238Y-219704761D02*
X107850000Y-219752380D01*
X107659523Y-219752380D01*
X107564285Y-219704761D01*
X107516666Y-219609523D01*
X107516666Y-219561904D01*
X107564285Y-219466666D01*
X107659523Y-219419047D01*
X107802380Y-219419047D01*
X107897619Y-219371428D01*
X107945238Y-219276190D01*
X107945238Y-219228571D01*
X107897619Y-219133333D01*
X107802380Y-219085714D01*
X107659523Y-219085714D01*
X107564285Y-219133333D01*
X107088095Y-218752380D02*
X107088095Y-219561904D01*
X107040476Y-219657142D01*
X106992857Y-219704761D01*
X106897619Y-219752380D01*
X106707142Y-219752380D01*
X106611904Y-219704761D01*
X106564285Y-219657142D01*
X106516666Y-219561904D01*
X106516666Y-218752380D01*
X106040476Y-219085714D02*
X106040476Y-220085714D01*
X106040476Y-219133333D02*
X105945238Y-219085714D01*
X105754761Y-219085714D01*
X105659523Y-219133333D01*
X105611904Y-219180952D01*
X105564285Y-219276190D01*
X105564285Y-219561904D01*
X105611904Y-219657142D01*
X105659523Y-219704761D01*
X105754761Y-219752380D01*
X105945238Y-219752380D01*
X106040476Y-219704761D01*
X105278571Y-218752380D02*
X104945238Y-219752380D01*
X104611904Y-218752380D01*
X103754761Y-219752380D02*
X104326190Y-219752380D01*
X104040476Y-219752380D02*
X104040476Y-218752380D01*
X104135714Y-218895238D01*
X104230952Y-218990476D01*
X104326190Y-219038095D01*
X103135714Y-218752380D02*
X103040476Y-218752380D01*
X102945238Y-218800000D01*
X102897619Y-218847619D01*
X102850000Y-218942857D01*
X102802380Y-219133333D01*
X102802380Y-219371428D01*
X102850000Y-219561904D01*
X102897619Y-219657142D01*
X102945238Y-219704761D01*
X103040476Y-219752380D01*
X103135714Y-219752380D01*
X103230952Y-219704761D01*
X103278571Y-219657142D01*
X103326190Y-219561904D01*
X103373809Y-219371428D01*
X103373809Y-219133333D01*
X103326190Y-218942857D01*
X103278571Y-218847619D01*
X103230952Y-218800000D01*
X103135714Y-218752380D01*
X226993125Y-189046543D02*
X227180428Y-189510135D01*
X231165452Y-187360813D02*
X226993125Y-189046543D01*
X231427677Y-188009842D02*
X231165452Y-187360813D01*
X232926104Y-191718578D02*
G75*
G02X233576998Y-191994866I187303J-463591D01*
G01*
X237384052Y-192074519D02*
X234602500Y-193198338D01*
X237660340Y-191423623D02*
X237384052Y-192074519D01*
X236349217Y-188178480D02*
X235698322Y-187902191D01*
X228753776Y-193404307D02*
X232926103Y-191718577D01*
X233576998Y-191994866D02*
X233951605Y-192922050D01*
X234602500Y-193198338D02*
X233951605Y-192922050D01*
X233380363Y-188838708D02*
G75*
G02X231427677Y-188009842I-561910J1390776D01*
G01*
X235698322Y-187902191D02*
X233380363Y-188838708D01*
X228529012Y-192847997D02*
X228753776Y-193404307D01*
X207967191Y-191340846D02*
X208154494Y-191804438D01*
X212139518Y-189655116D02*
X207967191Y-191340846D01*
X212401743Y-190304145D02*
X212139518Y-189655116D01*
X213900170Y-194012881D02*
G75*
G02X214551064Y-194289169I187303J-463591D01*
G01*
X218358118Y-194368822D02*
X215576566Y-195492641D01*
X218634406Y-193717926D02*
X218358118Y-194368822D01*
X217323283Y-190472783D02*
X216672388Y-190196494D01*
X209727842Y-195698610D02*
X213900169Y-194012880D01*
X214551064Y-194289169D02*
X214925671Y-195216353D01*
X215576566Y-195492641D02*
X214925671Y-195216353D01*
X214354429Y-191133011D02*
G75*
G02X212401743Y-190304145I-561910J1390776D01*
G01*
X216672388Y-190196494D02*
X214354429Y-191133011D01*
X209503078Y-195142300D02*
X209727842Y-195698610D01*
X187630133Y-190390005D02*
X187817436Y-190853597D01*
X191802460Y-188704275D02*
X187630133Y-190390005D01*
X192064685Y-189353304D02*
X191802460Y-188704275D01*
X193563112Y-193062040D02*
G75*
G02X194214006Y-193338328I187303J-463591D01*
G01*
X198021060Y-193417981D02*
X195239508Y-194541800D01*
X198297348Y-192767085D02*
X198021060Y-193417981D01*
X196986225Y-189521942D02*
X196335330Y-189245653D01*
X189390784Y-194747769D02*
X193563111Y-193062039D01*
X194214006Y-193338328D02*
X194588613Y-194265512D01*
X195239508Y-194541800D02*
X194588613Y-194265512D01*
X194017371Y-190182170D02*
G75*
G02X192064685Y-189353304I-561910J1390776D01*
G01*
X196335330Y-189245653D02*
X194017371Y-190182170D01*
X189166020Y-194191459D02*
X189390784Y-194747769D01*
X181074518Y-174164287D02*
X181261821Y-174627879D01*
X185246845Y-172478557D02*
X181074518Y-174164287D01*
X185509070Y-173127586D02*
X185246845Y-172478557D01*
X187007497Y-176836322D02*
G75*
G02X187658391Y-177112610I187303J-463591D01*
G01*
X191465445Y-177192263D02*
X188683893Y-178316082D01*
X191741733Y-176541367D02*
X191465445Y-177192263D01*
X190430610Y-173296224D02*
X189779715Y-173019935D01*
X182835169Y-178522051D02*
X187007496Y-176836321D01*
X187658391Y-177112610D02*
X188032998Y-178039794D01*
X188683893Y-178316082D02*
X188032998Y-178039794D01*
X187461756Y-173956452D02*
G75*
G02X185509070Y-173127586I-561910J1390776D01*
G01*
X189779715Y-173019935D02*
X187461756Y-173956452D01*
X182610405Y-177965741D02*
X182835169Y-178522051D01*
X174518903Y-157938570D02*
X174706206Y-158402162D01*
X178691230Y-156252840D02*
X174518903Y-157938570D01*
X178953455Y-156901869D02*
X178691230Y-156252840D01*
X180451882Y-160610605D02*
G75*
G02X181102776Y-160886893I187303J-463591D01*
G01*
X184909830Y-160966546D02*
X182128278Y-162090365D01*
X185186118Y-160315650D02*
X184909830Y-160966546D01*
X183874995Y-157070507D02*
X183224100Y-156794218D01*
X176279554Y-162296334D02*
X180451881Y-160610604D01*
X181102776Y-160886893D02*
X181477383Y-161814077D01*
X182128278Y-162090365D02*
X181477383Y-161814077D01*
X180906141Y-157730735D02*
G75*
G02X178953455Y-156901869I-561910J1390776D01*
G01*
X183224100Y-156794218D02*
X180906141Y-157730735D01*
X176054790Y-161740024D02*
X176279554Y-162296334D01*
X180260166Y-184162631D02*
X180072863Y-183699039D01*
X176087839Y-185848361D02*
X180260166Y-184162631D01*
X175825614Y-185199332D02*
X176087839Y-185848361D01*
X174327187Y-181490596D02*
G75*
G02X173676293Y-181214308I-187303J463591D01*
G01*
X169869239Y-181134655D02*
X172650791Y-180010836D01*
X169592951Y-181785551D02*
X169869239Y-181134655D01*
X170904074Y-185030694D02*
X171554969Y-185306983D01*
X178499515Y-179804867D02*
X174327188Y-181490597D01*
X173676293Y-181214308D02*
X173301686Y-180287124D01*
X172650791Y-180010836D02*
X173301686Y-180287124D01*
X173872928Y-184370466D02*
G75*
G02X175825614Y-185199332I561910J-1390776D01*
G01*
X171554969Y-185306983D02*
X173872928Y-184370466D01*
X178724279Y-180361177D02*
X178499515Y-179804867D01*
X173704551Y-167936914D02*
X173517248Y-167473322D01*
X169532224Y-169622644D02*
X173704551Y-167936914D01*
X169269999Y-168973615D02*
X169532224Y-169622644D01*
X167771572Y-165264879D02*
G75*
G02X167120678Y-164988591I-187303J463591D01*
G01*
X163313624Y-164908938D02*
X166095176Y-163785119D01*
X163037336Y-165559834D02*
X163313624Y-164908938D01*
X164348459Y-168804977D02*
X164999354Y-169081266D01*
X171943900Y-163579150D02*
X167771573Y-165264880D01*
X167120678Y-164988591D02*
X166746071Y-164061407D01*
X166095176Y-163785119D02*
X166746071Y-164061407D01*
X167317313Y-168144749D02*
G75*
G02X169269999Y-168973615I561910J-1390776D01*
G01*
X164999354Y-169081266D02*
X167317313Y-168144749D01*
X172168664Y-164135460D02*
X171943900Y-163579150D01*
X167148936Y-151711196D02*
X166961633Y-151247604D01*
X162976609Y-153396926D02*
X167148936Y-151711196D01*
X162714384Y-152747897D02*
X162976609Y-153396926D01*
X161215957Y-149039161D02*
G75*
G02X160565063Y-148762873I-187303J463591D01*
G01*
X156758009Y-148683220D02*
X159539561Y-147559401D01*
X156481721Y-149334116D02*
X156758009Y-148683220D01*
X157792844Y-152579259D02*
X158443739Y-152855548D01*
X165388285Y-147353432D02*
X161215958Y-149039162D01*
X160565063Y-148762873D02*
X160190456Y-147835689D01*
X159539561Y-147559401D02*
X160190456Y-147835689D01*
X160761698Y-151919031D02*
G75*
G02X162714384Y-152747897I561910J-1390776D01*
G01*
X158443739Y-152855548D02*
X160761698Y-151919031D01*
X165613049Y-147909742D02*
X165388285Y-147353432D01*
X126172910Y-189430549D02*
X126360213Y-188966957D01*
X122000583Y-187744820D02*
X126172910Y-189430549D01*
X122262807Y-187095791D02*
X122000583Y-187744820D01*
X123761233Y-183387056D02*
G75*
G02X123484945Y-182736160I187304J463592D01*
G01*
X120801711Y-180034262D02*
X123583263Y-181158081D01*
X120150816Y-180310550D02*
X120801711Y-180034262D01*
X118839693Y-183555694D02*
X119115982Y-184206589D01*
X127933561Y-185072785D02*
X123761234Y-183387056D01*
X123484945Y-182736160D02*
X123859551Y-181808977D01*
X123583263Y-181158081D02*
X123859551Y-181808977D01*
X121433941Y-185143105D02*
G75*
G02X122262807Y-187095791I-561910J-1390776D01*
G01*
X119115982Y-184206589D02*
X121433941Y-185143105D01*
X127708797Y-185629096D02*
X127933561Y-185072785D01*
X132728525Y-173204832D02*
X132915828Y-172741240D01*
X128556198Y-171519103D02*
X132728525Y-173204832D01*
X128818422Y-170870074D02*
X128556198Y-171519103D01*
X130316848Y-167161339D02*
G75*
G02X130040560Y-166510443I187304J463592D01*
G01*
X127357326Y-163808545D02*
X130138878Y-164932364D01*
X126706431Y-164084833D02*
X127357326Y-163808545D01*
X125395308Y-167329977D02*
X125671597Y-167980872D01*
X134489176Y-168847068D02*
X130316849Y-167161339D01*
X130040560Y-166510443D02*
X130415166Y-165583260D01*
X130138878Y-164932364D02*
X130415166Y-165583260D01*
X127989556Y-168917388D02*
G75*
G02X128818422Y-170870074I-561910J-1390776D01*
G01*
X125671597Y-167980872D02*
X127989556Y-168917388D01*
X134264412Y-169403379D02*
X134489176Y-168847068D01*
X139284141Y-156979114D02*
X139471444Y-156515522D01*
X135111814Y-155293385D02*
X139284141Y-156979114D01*
X135374038Y-154644356D02*
X135111814Y-155293385D01*
X136872464Y-150935621D02*
G75*
G02X136596176Y-150284725I187304J463592D01*
G01*
X133912942Y-147582827D02*
X136694494Y-148706646D01*
X133262047Y-147859115D02*
X133912942Y-147582827D01*
X131950924Y-151104259D02*
X132227213Y-151755154D01*
X141044792Y-152621350D02*
X136872465Y-150935621D01*
X136596176Y-150284725D02*
X136970782Y-149357542D01*
X136694494Y-148706646D02*
X136970782Y-149357542D01*
X134545172Y-152691670D02*
G75*
G02X135374038Y-154644356I-561910J-1390776D01*
G01*
X132227213Y-151755154D02*
X134545172Y-152691670D01*
X140820028Y-153177661D02*
X141044792Y-152621350D01*
X106946189Y-187631879D02*
X107133492Y-187168287D01*
X102773862Y-185946150D02*
X106946189Y-187631879D01*
X103036086Y-185297121D02*
X102773862Y-185946150D01*
X104534512Y-181588386D02*
G75*
G02X104258224Y-180937490I187304J463592D01*
G01*
X101574990Y-178235592D02*
X104356542Y-179359411D01*
X100924095Y-178511880D02*
X101574990Y-178235592D01*
X99612972Y-181757024D02*
X99889261Y-182407919D01*
X108706840Y-183274115D02*
X104534513Y-181588386D01*
X104258224Y-180937490D02*
X104632830Y-180010307D01*
X104356542Y-179359411D02*
X104632830Y-180010307D01*
X102207220Y-183344435D02*
G75*
G02X103036086Y-185297121I-561910J-1390776D01*
G01*
X99889261Y-182407919D02*
X102207220Y-183344435D01*
X108482076Y-183830426D02*
X108706840Y-183274115D01*
X113501804Y-171406161D02*
X113689107Y-170942569D01*
X109329477Y-169720432D02*
X113501804Y-171406161D01*
X109591701Y-169071403D02*
X109329477Y-169720432D01*
X111090127Y-165362668D02*
G75*
G02X110813839Y-164711772I187304J463592D01*
G01*
X108130605Y-162009874D02*
X110912157Y-163133693D01*
X107479710Y-162286162D02*
X108130605Y-162009874D01*
X106168587Y-165531306D02*
X106444876Y-166182201D01*
X115262455Y-167048397D02*
X111090128Y-165362668D01*
X110813839Y-164711772D02*
X111188445Y-163784589D01*
X110912157Y-163133693D02*
X111188445Y-163784589D01*
X108762835Y-167118717D02*
G75*
G02X109591701Y-169071403I-561910J-1390776D01*
G01*
X106444876Y-166182201D02*
X108762835Y-167118717D01*
X115037691Y-167604708D02*
X115262455Y-167048397D01*
X120057420Y-155180444D02*
X120244723Y-154716852D01*
X115885093Y-153494715D02*
X120057420Y-155180444D01*
X116147317Y-152845686D02*
X115885093Y-153494715D01*
X117645743Y-149136951D02*
G75*
G02X117369455Y-148486055I187304J463592D01*
G01*
X114686221Y-145784157D02*
X117467773Y-146907976D01*
X114035326Y-146060445D02*
X114686221Y-145784157D01*
X112724203Y-149305589D02*
X113000492Y-149956484D01*
X121818071Y-150822680D02*
X117645744Y-149136951D01*
X117369455Y-148486055D02*
X117744061Y-147558872D01*
X117467773Y-146907976D02*
X117744061Y-147558872D01*
X115318451Y-150893000D02*
G75*
G02X116147317Y-152845686I-561910J-1390776D01*
G01*
X113000492Y-149956484D02*
X115318451Y-150893000D01*
X121593307Y-151378991D02*
X121818071Y-150822680D01*
X86609131Y-188582720D02*
X86796434Y-188119128D01*
X82436804Y-186896991D02*
X86609131Y-188582720D01*
X82699028Y-186247962D02*
X82436804Y-186896991D01*
X84197454Y-182539227D02*
G75*
G02X83921166Y-181888331I187304J463592D01*
G01*
X81237932Y-179186433D02*
X84019484Y-180310252D01*
X80587037Y-179462721D02*
X81237932Y-179186433D01*
X79275914Y-182707865D02*
X79552203Y-183358760D01*
X88369782Y-184224956D02*
X84197455Y-182539227D01*
X83921166Y-181888331D02*
X84295772Y-180961148D01*
X84019484Y-180310252D02*
X84295772Y-180961148D01*
X81870162Y-184295276D02*
G75*
G02X82699028Y-186247962I-561910J-1390776D01*
G01*
X79552203Y-183358760D02*
X81870162Y-184295276D01*
X88145018Y-184781267D02*
X88369782Y-184224956D01*
X67583197Y-186288417D02*
X67770500Y-185824825D01*
X63410870Y-184602688D02*
X67583197Y-186288417D01*
X63673094Y-183953659D02*
X63410870Y-184602688D01*
X65171520Y-180244924D02*
G75*
G02X64895232Y-179594028I187304J463592D01*
G01*
X62211998Y-176892130D02*
X64993550Y-178015949D01*
X61561103Y-177168418D02*
X62211998Y-176892130D01*
X60249980Y-180413562D02*
X60526269Y-181064457D01*
X69343848Y-181930653D02*
X65171521Y-180244924D01*
X64895232Y-179594028D02*
X65269838Y-178666845D01*
X64993550Y-178015949D02*
X65269838Y-178666845D01*
X62844228Y-182000973D02*
G75*
G02X63673094Y-183953659I-561910J-1390776D01*
G01*
X60526269Y-181064457D02*
X62844228Y-182000973D01*
X69119084Y-182486964D02*
X69343848Y-181930653D01*
D11*
X105350000Y-210550000D02*
X105350000Y-214450000D01*
X107350000Y-210550000D02*
X107350000Y-214450000D01*
X105350000Y-210550000D02*
X107350000Y-210550000D01*
X107750000Y-210550000D02*
X107750000Y-214450000D01*
X109750000Y-210550000D02*
X109750000Y-214450000D01*
X107750000Y-210550000D02*
X109750000Y-210550000D01*
X154340000Y-165096078D02*
X154340000Y-164578922D01*
X155760000Y-165096078D02*
X155760000Y-164578922D01*
X153660000Y-164578922D02*
X153660000Y-165096078D01*
X152240000Y-164578922D02*
X152240000Y-165096078D01*
X146406475Y-158005705D02*
X145732183Y-156336774D01*
X144342392Y-152896922D02*
X144889318Y-154250610D01*
X152631416Y-149547939D02*
X153178342Y-150901627D01*
X154695498Y-154656722D02*
X154021206Y-152987791D01*
X152631416Y-149547939D02*
X144342392Y-152896922D01*
D12*
X150983000Y-214340000D02*
G75*
G03X150983000Y-214340000I-100000J0D01*
G01*
D11*
X178800000Y-210212500D02*
X178800000Y-206312500D01*
X176800000Y-210212500D02*
X176800000Y-206312500D01*
X178800000Y-210212500D02*
X176800000Y-210212500D01*
D12*
X152548880Y-228078000D02*
G75*
G03X152548880Y-228078000I-125880J0D01*
G01*
D13*
X166228000Y-228968000D02*
X166228000Y-227868000D01*
X166228000Y-224168000D02*
X166228000Y-225268000D01*
X154828000Y-224168000D02*
X154828000Y-225268000D01*
X154828000Y-228968000D02*
X154828000Y-227868000D01*
X154828000Y-224168000D02*
X166228000Y-224168000D01*
X154828000Y-228968000D02*
X166228000Y-228968000D01*
D11*
X163629078Y-203783000D02*
X163111922Y-203783000D01*
X163629078Y-202363000D02*
X163111922Y-202363000D01*
D13*
X165701000Y-205435000D02*
X164051000Y-205435000D01*
X163701000Y-210655000D02*
X163701000Y-205375000D01*
X158851000Y-210655000D02*
X163701000Y-210655000D01*
X158851000Y-205375000D02*
X158851000Y-210655000D01*
X163701000Y-205375000D02*
X158851000Y-205375000D01*
D11*
X141472000Y-197224578D02*
X141472000Y-196707422D01*
X142892000Y-197224578D02*
X142892000Y-196707422D01*
X154505922Y-219254000D02*
X155023078Y-219254000D01*
X154505922Y-220674000D02*
X155023078Y-220674000D01*
X139979078Y-220547000D02*
X139461922Y-220547000D01*
X139979078Y-219127000D02*
X139461922Y-219127000D01*
X156459422Y-222302000D02*
X156976578Y-222302000D01*
X156459422Y-223722000D02*
X156976578Y-223722000D01*
X164596578Y-223595000D02*
X164079422Y-223595000D01*
X164596578Y-222175000D02*
X164079422Y-222175000D01*
X139900578Y-212800000D02*
X139383422Y-212800000D01*
X139900578Y-211380000D02*
X139383422Y-211380000D01*
X147314000Y-209670578D02*
X147314000Y-209153422D01*
X148734000Y-209670578D02*
X148734000Y-209153422D01*
X139880078Y-210514000D02*
X139362922Y-210514000D01*
X139880078Y-209094000D02*
X139362922Y-209094000D01*
X137580000Y-199960000D02*
X137580000Y-205970000D01*
X144400000Y-202210000D02*
X144400000Y-205970000D01*
X137580000Y-205970000D02*
X138840000Y-205970000D01*
X144400000Y-205970000D02*
X143140000Y-205970000D01*
X159976078Y-203783000D02*
X159458922Y-203783000D01*
X159976078Y-202363000D02*
X159458922Y-202363000D01*
X151332000Y-224912422D02*
X151332000Y-225429578D01*
X149912000Y-224912422D02*
X149912000Y-225429578D01*
X172645000Y-225478078D02*
X172645000Y-224960922D01*
X174065000Y-225478078D02*
X174065000Y-224960922D01*
X172033000Y-224960922D02*
X172033000Y-225478078D01*
X170613000Y-224960922D02*
X170613000Y-225478078D01*
X148226000Y-224901422D02*
X148226000Y-225418578D01*
X146806000Y-224901422D02*
X146806000Y-225418578D01*
X154369422Y-214036000D02*
X154886578Y-214036000D01*
X154369422Y-215456000D02*
X154886578Y-215456000D01*
X151274000Y-205421922D02*
X151274000Y-205939078D01*
X149854000Y-205421922D02*
X149854000Y-205939078D01*
X146194000Y-224901422D02*
X146194000Y-225418578D01*
X144774000Y-224901422D02*
X144774000Y-225418578D01*
X149854000Y-209670578D02*
X149854000Y-209153422D01*
X151274000Y-209670578D02*
X151274000Y-209153422D01*
X143504000Y-210765078D02*
X143504000Y-210247922D01*
X144924000Y-210765078D02*
X144924000Y-210247922D01*
X139186000Y-197303078D02*
X139186000Y-196785922D01*
X140606000Y-197303078D02*
X140606000Y-196785922D01*
X139979078Y-215086000D02*
X139461922Y-215086000D01*
X139979078Y-213666000D02*
X139461922Y-213666000D01*
X148234000Y-199653078D02*
X148234000Y-199135922D01*
X149654000Y-199653078D02*
X149654000Y-199135922D01*
X146202000Y-199653078D02*
X146202000Y-199135922D01*
X147622000Y-199653078D02*
X147622000Y-199135922D01*
X145797936Y-164190000D02*
X147002064Y-164190000D01*
X145797936Y-166010000D02*
X147002064Y-166010000D01*
X195468750Y-210212500D02*
X195468750Y-206312500D01*
X193468750Y-210212500D02*
X193468750Y-206312500D01*
X195468750Y-210212500D02*
X193468750Y-210212500D01*
X193087500Y-210212500D02*
X193087500Y-206312500D01*
X191087500Y-210212500D02*
X191087500Y-206312500D01*
X193087500Y-210212500D02*
X191087500Y-210212500D01*
X181181250Y-210212500D02*
X181181250Y-206312500D01*
X179181250Y-210212500D02*
X179181250Y-206312500D01*
X181181250Y-210212500D02*
X179181250Y-210212500D01*
X183562500Y-210212500D02*
X183562500Y-206312500D01*
X181562500Y-210212500D02*
X181562500Y-206312500D01*
X183562500Y-210212500D02*
X181562500Y-210212500D01*
X185943750Y-210212500D02*
X185943750Y-206312500D01*
X183943750Y-210212500D02*
X183943750Y-206312500D01*
X185943750Y-210212500D02*
X183943750Y-210212500D01*
X188325000Y-210212500D02*
X188325000Y-206312500D01*
X186325000Y-210212500D02*
X186325000Y-206312500D01*
X188325000Y-210212500D02*
X186325000Y-210212500D01*
X161471250Y-198093750D02*
X161471250Y-194193750D01*
X159471250Y-198093750D02*
X159471250Y-194193750D01*
X161471250Y-198093750D02*
X159471250Y-198093750D01*
X163852500Y-198093750D02*
X163852500Y-194193750D01*
X161852500Y-198093750D02*
X161852500Y-194193750D01*
X163852500Y-198093750D02*
X161852500Y-198093750D01*
X166233750Y-198093750D02*
X166233750Y-194193750D01*
X164233750Y-198093750D02*
X164233750Y-194193750D01*
X166233750Y-198093750D02*
X164233750Y-198093750D01*
X168615000Y-198093750D02*
X168615000Y-194193750D01*
X166615000Y-198093750D02*
X166615000Y-194193750D01*
X168615000Y-198093750D02*
X166615000Y-198093750D01*
X156390000Y-182370000D02*
X156390000Y-178470000D01*
X154390000Y-182370000D02*
X154390000Y-178470000D01*
X156390000Y-182370000D02*
X154390000Y-182370000D01*
X158771250Y-182370000D02*
X158771250Y-178470000D01*
X156771250Y-182370000D02*
X156771250Y-178470000D01*
X158771250Y-182370000D02*
X156771250Y-182370000D01*
X161152500Y-182370000D02*
X161152500Y-178470000D01*
X159152500Y-182370000D02*
X159152500Y-178470000D01*
X161152500Y-182370000D02*
X159152500Y-182370000D01*
X163533750Y-182370000D02*
X163533750Y-178470000D01*
X161533750Y-182370000D02*
X161533750Y-178470000D01*
X163533750Y-182370000D02*
X161533750Y-182370000D01*
X200231250Y-210212500D02*
X200231250Y-206312500D01*
X198231250Y-210212500D02*
X198231250Y-206312500D01*
X200231250Y-210212500D02*
X198231250Y-210212500D01*
X197850000Y-210212500D02*
X197850000Y-206312500D01*
X195850000Y-210212500D02*
X195850000Y-206312500D01*
X197850000Y-210212500D02*
X195850000Y-210212500D01*
X190706250Y-210212500D02*
X190706250Y-206312500D01*
X188706250Y-210212500D02*
X188706250Y-206312500D01*
X190706250Y-210212500D02*
X188706250Y-210212500D01*
X170996250Y-198093750D02*
X170996250Y-194193750D01*
X168996250Y-198093750D02*
X168996250Y-194193750D01*
X170996250Y-198093750D02*
X168996250Y-198093750D01*
X165915000Y-182370000D02*
X165915000Y-178470000D01*
X163915000Y-182370000D02*
X163915000Y-178470000D01*
X165915000Y-182370000D02*
X163915000Y-182370000D01*
X159090000Y-198093750D02*
X159090000Y-194193750D01*
X157090000Y-198093750D02*
X157090000Y-194193750D01*
X159090000Y-198093750D02*
X157090000Y-198093750D01*
X154008750Y-182370000D02*
X154008750Y-178470000D01*
X152008750Y-182370000D02*
X152008750Y-178470000D01*
X154008750Y-182370000D02*
X152008750Y-182370000D01*
X119268750Y-210212500D02*
X119268750Y-206312500D01*
X117268750Y-210212500D02*
X117268750Y-206312500D01*
X119268750Y-210212500D02*
X117268750Y-210212500D01*
X134910000Y-202627500D02*
X134910000Y-198727500D01*
X132910000Y-202627500D02*
X132910000Y-198727500D01*
X134910000Y-202627500D02*
X132910000Y-202627500D01*
X139471250Y-182442500D02*
X139471250Y-178542500D01*
X137471250Y-182442500D02*
X137471250Y-178542500D01*
X139471250Y-182442500D02*
X137471250Y-182442500D01*
X97837500Y-210212500D02*
X97837500Y-206312500D01*
X95837500Y-210212500D02*
X95837500Y-206312500D01*
X97837500Y-210212500D02*
X95837500Y-210212500D01*
X100218750Y-210212500D02*
X100218750Y-206312500D01*
X98218750Y-210212500D02*
X98218750Y-206312500D01*
X100218750Y-210212500D02*
X98218750Y-210212500D01*
X107350000Y-210212500D02*
X107350000Y-206312500D01*
X105350000Y-210212500D02*
X105350000Y-206312500D01*
X107350000Y-210212500D02*
X105350000Y-210212500D01*
X123003750Y-202627500D02*
X123003750Y-198727500D01*
X121003750Y-202627500D02*
X121003750Y-198727500D01*
X123003750Y-202627500D02*
X121003750Y-202627500D01*
X127565000Y-182442500D02*
X127565000Y-178542500D01*
X125565000Y-182442500D02*
X125565000Y-178542500D01*
X127565000Y-182442500D02*
X125565000Y-182442500D01*
X102600000Y-210212500D02*
X102600000Y-206312500D01*
X100600000Y-210212500D02*
X100600000Y-206312500D01*
X102600000Y-210212500D02*
X100600000Y-210212500D01*
X104981250Y-210212500D02*
X104981250Y-206312500D01*
X102981250Y-210212500D02*
X102981250Y-206312500D01*
X104981250Y-210212500D02*
X102981250Y-210212500D01*
X116887500Y-210212500D02*
X116887500Y-206312500D01*
X114887500Y-210212500D02*
X114887500Y-206312500D01*
X116887500Y-210212500D02*
X114887500Y-210212500D01*
X114506250Y-210212500D02*
X114506250Y-206312500D01*
X112506250Y-210212500D02*
X112506250Y-206312500D01*
X114506250Y-210212500D02*
X112506250Y-210212500D01*
X112125000Y-210212500D02*
X112125000Y-206312500D01*
X110125000Y-210212500D02*
X110125000Y-206312500D01*
X112125000Y-210212500D02*
X110125000Y-210212500D01*
X109743750Y-210212500D02*
X109743750Y-206312500D01*
X107743750Y-210212500D02*
X107743750Y-206312500D01*
X109743750Y-210212500D02*
X107743750Y-210212500D01*
X132528750Y-202627500D02*
X132528750Y-198727500D01*
X130528750Y-202627500D02*
X130528750Y-198727500D01*
X132528750Y-202627500D02*
X130528750Y-202627500D01*
X130147500Y-202627500D02*
X130147500Y-198727500D01*
X128147500Y-202627500D02*
X128147500Y-198727500D01*
X130147500Y-202627500D02*
X128147500Y-202627500D01*
X127766250Y-202627500D02*
X127766250Y-198727500D01*
X125766250Y-202627500D02*
X125766250Y-198727500D01*
X127766250Y-202627500D02*
X125766250Y-202627500D01*
X125385000Y-202627500D02*
X125385000Y-198727500D01*
X123385000Y-202627500D02*
X123385000Y-198727500D01*
X125385000Y-202627500D02*
X123385000Y-202627500D01*
X137090000Y-182442500D02*
X137090000Y-178542500D01*
X135090000Y-182442500D02*
X135090000Y-178542500D01*
X137090000Y-182442500D02*
X135090000Y-182442500D01*
X134708750Y-182442500D02*
X134708750Y-178542500D01*
X132708750Y-182442500D02*
X132708750Y-178542500D01*
X134708750Y-182442500D02*
X132708750Y-182442500D01*
X132327500Y-182442500D02*
X132327500Y-178542500D01*
X130327500Y-182442500D02*
X130327500Y-178542500D01*
X132327500Y-182442500D02*
X130327500Y-182442500D01*
X129946250Y-182442500D02*
X129946250Y-178542500D01*
X127946250Y-182442500D02*
X127946250Y-178542500D01*
X129946250Y-182442500D02*
X127946250Y-182442500D01*
D10*
X229339444Y-184811605D02*
X228964837Y-183884421D01*
X228923352Y-184671564D01*
X228346715Y-184134159D01*
X228721321Y-185061342D01*
X227993502Y-184276866D02*
X227749986Y-185453787D01*
X227375379Y-184526604D02*
X228368109Y-185204050D01*
X227110470Y-184633634D02*
X226536499Y-184865533D01*
X226988267Y-185093877D01*
X226855812Y-185147393D01*
X226785348Y-185227221D01*
X226759034Y-185289211D01*
X226750560Y-185395353D01*
X226839752Y-185616111D01*
X226919580Y-185686576D01*
X226981570Y-185712889D01*
X227087712Y-185721364D01*
X227352621Y-185614333D01*
X227423086Y-185534505D01*
X227449400Y-185472515D01*
X226167225Y-185476959D02*
X226237690Y-185397130D01*
X226264003Y-185335140D01*
X226272478Y-185228999D01*
X226254640Y-185184847D01*
X226174811Y-185114382D01*
X226112821Y-185088069D01*
X226006679Y-185079594D01*
X225830073Y-185150948D01*
X225759608Y-185230776D01*
X225733295Y-185292766D01*
X225724820Y-185398908D01*
X225742659Y-185443060D01*
X225822487Y-185513524D01*
X225884477Y-185539838D01*
X225990619Y-185548312D01*
X226167225Y-185476959D01*
X226273367Y-185485434D01*
X226335357Y-185511747D01*
X226415185Y-185582212D01*
X226486539Y-185758818D01*
X226478064Y-185864960D01*
X226451751Y-185926950D01*
X226381286Y-186006778D01*
X226204680Y-186078132D01*
X226098538Y-186069657D01*
X226036548Y-186043344D01*
X225956719Y-185972879D01*
X225885366Y-185796272D01*
X225893841Y-185690131D01*
X225920154Y-185628141D01*
X225990619Y-185548312D01*
X210313510Y-187105908D02*
X209938903Y-186178724D01*
X209897418Y-186965867D01*
X209320781Y-186428462D01*
X209695387Y-187355645D01*
X208967568Y-186571169D02*
X208724052Y-187748090D01*
X208349445Y-186820907D02*
X209342175Y-187498353D01*
X208084536Y-186927937D02*
X207510565Y-187159836D01*
X207962333Y-187388180D01*
X207829878Y-187441696D01*
X207759414Y-187521524D01*
X207733100Y-187583514D01*
X207724626Y-187689656D01*
X207813818Y-187910414D01*
X207893646Y-187980879D01*
X207955636Y-188007192D01*
X208061778Y-188015667D01*
X208326687Y-187908636D01*
X208397152Y-187828808D01*
X208423466Y-187766818D01*
X206840705Y-187789989D02*
X207090442Y-188408112D01*
X206918755Y-187347584D02*
X207407090Y-187920666D01*
X206833119Y-188152565D01*
X189976452Y-186155067D02*
X189601845Y-185227883D01*
X189560360Y-186015026D01*
X188983723Y-185477621D01*
X189358329Y-186404804D01*
X188630510Y-185620328D02*
X188386994Y-186797249D01*
X188012387Y-185870066D02*
X189005117Y-186547512D01*
X187739003Y-186083238D02*
X187677013Y-186056924D01*
X187570871Y-186048450D01*
X187350113Y-186137642D01*
X187279648Y-186217470D01*
X187253335Y-186279460D01*
X187244860Y-186385602D01*
X187280537Y-186473905D01*
X187378204Y-186588521D01*
X188122084Y-186904280D01*
X187548113Y-187136179D01*
X187106597Y-187314563D02*
X186929991Y-187385917D01*
X186823849Y-187377442D01*
X186761859Y-187351129D01*
X186620041Y-187254351D01*
X186504535Y-187095583D01*
X186361828Y-186742370D01*
X186370303Y-186636228D01*
X186396616Y-186574238D01*
X186467081Y-186494410D01*
X186643687Y-186423056D01*
X186749829Y-186431531D01*
X186811819Y-186457844D01*
X186891648Y-186528309D01*
X186980840Y-186749067D01*
X186972365Y-186855209D01*
X186946052Y-186917199D01*
X186875587Y-186997027D01*
X186698980Y-187068381D01*
X186592839Y-187059906D01*
X186530849Y-187033593D01*
X186451020Y-186963128D01*
X183420837Y-169929349D02*
X183046230Y-169002165D01*
X183004745Y-169789308D01*
X182428108Y-169251903D01*
X182802714Y-170179086D01*
X182074895Y-169394610D02*
X181831379Y-170571531D01*
X181456772Y-169644348D02*
X182449502Y-170321794D01*
X181183388Y-169857520D02*
X181121398Y-169831206D01*
X181015256Y-169822732D01*
X180794498Y-169911924D01*
X180724033Y-169991752D01*
X180697720Y-170053742D01*
X180689245Y-170159884D01*
X180724922Y-170248187D01*
X180822589Y-170362803D01*
X181566469Y-170678562D01*
X180992498Y-170910461D01*
X180248618Y-170594703D02*
X180319083Y-170514874D01*
X180345396Y-170452884D01*
X180353871Y-170346743D01*
X180336033Y-170302591D01*
X180256204Y-170232126D01*
X180194214Y-170205813D01*
X180088072Y-170197338D01*
X179911466Y-170268692D01*
X179841001Y-170348520D01*
X179814688Y-170410510D01*
X179806213Y-170516652D01*
X179824052Y-170560804D01*
X179903880Y-170631268D01*
X179965870Y-170657582D01*
X180072012Y-170666056D01*
X180248618Y-170594703D01*
X180354760Y-170603178D01*
X180416750Y-170629491D01*
X180496578Y-170699956D01*
X180567932Y-170876562D01*
X180559457Y-170982704D01*
X180533144Y-171044694D01*
X180462679Y-171124522D01*
X180286073Y-171195876D01*
X180179931Y-171187401D01*
X180117941Y-171161088D01*
X180038112Y-171090623D01*
X179966759Y-170914016D01*
X179975234Y-170807875D01*
X180001547Y-170745885D01*
X180072012Y-170666056D01*
X176865222Y-153703632D02*
X176490615Y-152776448D01*
X176449130Y-153563591D01*
X175872493Y-153026186D01*
X176247099Y-153953369D01*
X175519280Y-153168893D02*
X175275764Y-154345814D01*
X174901157Y-153418631D02*
X175893887Y-154096077D01*
X174627773Y-153631803D02*
X174565783Y-153605489D01*
X174459641Y-153597015D01*
X174238883Y-153686207D01*
X174168418Y-153766035D01*
X174142105Y-153828025D01*
X174133630Y-153934167D01*
X174169307Y-154022470D01*
X174266974Y-154137086D01*
X175010854Y-154452845D01*
X174436883Y-154684744D01*
X173753215Y-153882429D02*
X173135093Y-154132167D01*
X173907064Y-154898805D01*
X181519995Y-187916407D02*
X181145388Y-186989223D01*
X181103903Y-187776366D01*
X180527266Y-187238961D01*
X180901872Y-188166144D01*
X180174053Y-187381668D02*
X179930537Y-188558589D01*
X179555930Y-187631406D02*
X180548660Y-188308852D01*
X179282546Y-187844578D02*
X179220556Y-187818264D01*
X179114414Y-187809790D01*
X178893656Y-187898982D01*
X178823191Y-187978810D01*
X178796878Y-188040800D01*
X178788403Y-188146942D01*
X178824080Y-188235245D01*
X178921747Y-188349861D01*
X179665627Y-188665620D01*
X179091656Y-188897519D01*
X177878169Y-188309265D02*
X178319685Y-188130881D01*
X178542221Y-188554559D01*
X178480231Y-188528246D01*
X178374089Y-188519771D01*
X178153331Y-188608963D01*
X178082866Y-188688791D01*
X178056553Y-188750781D01*
X178048078Y-188856923D01*
X178137270Y-189077681D01*
X178217099Y-189148146D01*
X178279089Y-189174459D01*
X178385231Y-189182934D01*
X178605989Y-189093742D01*
X178676453Y-189013913D01*
X178702767Y-188951923D01*
X174964380Y-171690690D02*
X174589773Y-170763506D01*
X174548288Y-171550649D01*
X173971651Y-171013244D01*
X174346257Y-171940427D01*
X173618438Y-171155951D02*
X173374922Y-172332872D01*
X173000315Y-171405689D02*
X173993045Y-172083135D01*
X172726931Y-171618861D02*
X172664941Y-171592547D01*
X172558799Y-171584073D01*
X172338041Y-171673265D01*
X172267576Y-171753093D01*
X172241263Y-171815083D01*
X172232788Y-171921225D01*
X172268465Y-172009528D01*
X172366132Y-172124144D01*
X173110012Y-172439903D01*
X172536041Y-172671802D01*
X171491575Y-172374771D02*
X171741312Y-172992894D01*
X171569625Y-171932366D02*
X172057960Y-172505448D01*
X171483989Y-172737347D01*
X168408765Y-155464972D02*
X168034158Y-154537788D01*
X167992673Y-155324931D01*
X167416036Y-154787526D01*
X167790642Y-155714709D01*
X167062823Y-154930233D02*
X166819307Y-156107154D01*
X166444700Y-155179971D02*
X167437430Y-155857417D01*
X166171316Y-155393143D02*
X166109326Y-155366829D01*
X166003184Y-155358355D01*
X165782426Y-155447547D01*
X165711961Y-155527375D01*
X165685648Y-155589365D01*
X165677173Y-155695507D01*
X165712850Y-155783810D01*
X165810517Y-155898426D01*
X166554397Y-156214185D01*
X165980426Y-156446084D01*
X165296758Y-155643769D02*
X164722788Y-155875669D01*
X165174556Y-156104013D01*
X165042101Y-156157528D01*
X164971636Y-156237356D01*
X164945323Y-156299346D01*
X164936848Y-156405488D01*
X165026040Y-156626246D01*
X165105869Y-156696711D01*
X165167859Y-156723024D01*
X165274001Y-156731499D01*
X165538910Y-156624468D01*
X165609375Y-156544640D01*
X165635688Y-156482650D01*
X124471563Y-193005941D02*
X124846170Y-192078757D01*
X124269532Y-192616162D01*
X124228047Y-191829019D01*
X123853441Y-192756203D01*
X123874834Y-191686312D02*
X122882105Y-192363758D01*
X123256712Y-191436574D02*
X123500228Y-192613496D01*
X122911974Y-191400009D02*
X122885661Y-191338019D01*
X122815196Y-191258190D01*
X122594438Y-191168998D01*
X122488296Y-191177473D01*
X122426306Y-191203786D01*
X122346478Y-191274251D01*
X122310801Y-191362554D01*
X122301437Y-191512848D01*
X122617196Y-192256728D01*
X122043225Y-192024828D01*
X121160192Y-191668060D02*
X121690012Y-191882121D01*
X121425102Y-191775091D02*
X121799709Y-190847907D01*
X121834497Y-191016039D01*
X121887123Y-191140019D01*
X121957588Y-191219847D01*
X131027178Y-176780224D02*
X131401785Y-175853040D01*
X130825147Y-176390445D01*
X130783662Y-175603302D01*
X130409056Y-176530486D01*
X130430449Y-175460595D02*
X129437720Y-176138041D01*
X129812327Y-175210857D02*
X130055843Y-176387779D01*
X129467589Y-175174292D02*
X129441276Y-175112302D01*
X129370811Y-175032473D01*
X129150053Y-174943281D01*
X129043911Y-174951756D01*
X128981921Y-174978069D01*
X128902093Y-175048534D01*
X128866416Y-175136837D01*
X128857052Y-175287131D01*
X129172811Y-176031011D01*
X128598840Y-175799111D01*
X128399475Y-174640028D02*
X128311172Y-174604351D01*
X128205030Y-174612826D01*
X128143040Y-174639139D01*
X128063212Y-174709604D01*
X127947707Y-174868372D01*
X127858515Y-175089130D01*
X127831313Y-175283575D01*
X127839787Y-175389717D01*
X127866101Y-175451707D01*
X127936565Y-175531535D01*
X128024869Y-175567212D01*
X128131010Y-175558737D01*
X128193000Y-175532424D01*
X128272829Y-175461959D01*
X128388334Y-175303191D01*
X128477526Y-175082433D01*
X128504728Y-174887988D01*
X128496253Y-174781847D01*
X128469940Y-174719857D01*
X128399475Y-174640028D01*
X137582794Y-160554506D02*
X137957401Y-159627322D01*
X137380763Y-160164727D01*
X137339278Y-159377584D01*
X136964672Y-160304768D01*
X136986065Y-159234877D02*
X135993336Y-159912323D01*
X136367943Y-158985139D02*
X136611459Y-160162061D01*
X135154456Y-159573393D02*
X135684275Y-159787454D01*
X135419365Y-159680424D02*
X135793972Y-158753240D01*
X135828760Y-158921372D01*
X135881386Y-159045352D01*
X135951851Y-159125180D01*
X134712939Y-159395009D02*
X134536333Y-159323656D01*
X134465868Y-159243827D01*
X134439555Y-159181837D01*
X134404767Y-159013706D01*
X134431969Y-158819261D01*
X134574676Y-158466048D01*
X134654505Y-158395583D01*
X134716495Y-158369270D01*
X134822636Y-158360795D01*
X134999243Y-158432149D01*
X135069708Y-158511977D01*
X135096021Y-158573967D01*
X135104496Y-158680109D01*
X135015304Y-158900867D01*
X134935475Y-158971332D01*
X134873485Y-158997645D01*
X134767344Y-159006120D01*
X134590737Y-158934766D01*
X134520272Y-158854938D01*
X134493959Y-158792948D01*
X134485484Y-158686806D01*
X105244842Y-191207271D02*
X105619449Y-190280087D01*
X105042811Y-190817492D01*
X105001326Y-190030349D01*
X104626720Y-190957533D01*
X104648113Y-189887642D02*
X103655384Y-190565088D01*
X104029991Y-189637904D02*
X104273507Y-190814826D01*
X102816504Y-190226158D02*
X103346323Y-190440219D01*
X103081413Y-190333189D02*
X103456020Y-189406005D01*
X103490808Y-189574137D01*
X103543434Y-189698117D01*
X103613899Y-189777945D01*
X102882049Y-189174106D02*
X102263926Y-188924368D01*
X102286684Y-190012098D01*
X111800457Y-174981553D02*
X112175064Y-174054369D01*
X111598426Y-174591774D01*
X111556941Y-173804631D01*
X111182335Y-174731815D01*
X111203728Y-173661924D02*
X110210999Y-174339370D01*
X110585606Y-173412186D02*
X110829122Y-174589108D01*
X109372119Y-174000440D02*
X109901938Y-174214501D01*
X109637028Y-174107471D02*
X110011635Y-173180287D01*
X110046423Y-173348419D01*
X110099049Y-173472399D01*
X110169514Y-173552227D01*
X108951996Y-172752165D02*
X109128603Y-172823519D01*
X109199067Y-172903347D01*
X109225381Y-172965337D01*
X109260169Y-173133469D01*
X109232967Y-173327914D01*
X109090259Y-173681127D01*
X109010431Y-173751592D01*
X108948441Y-173777905D01*
X108842299Y-173786380D01*
X108665693Y-173715026D01*
X108595228Y-173635197D01*
X108568915Y-173573207D01*
X108560440Y-173467066D01*
X108649632Y-173246308D01*
X108729460Y-173175843D01*
X108791450Y-173149530D01*
X108897592Y-173141055D01*
X109074199Y-173212409D01*
X109144663Y-173292237D01*
X109170977Y-173354227D01*
X109179451Y-173460369D01*
X118356073Y-158755836D02*
X118730680Y-157828652D01*
X118154042Y-158366057D01*
X118112557Y-157578914D01*
X117737951Y-158506098D01*
X117759344Y-157436207D02*
X116766615Y-158113653D01*
X117141222Y-157186469D02*
X117384738Y-158363391D01*
X115927735Y-157774723D02*
X116457554Y-157988784D01*
X116192644Y-157881754D02*
X116567251Y-156954570D01*
X116602039Y-157122702D01*
X116654665Y-157246682D01*
X116725130Y-157326510D01*
X115463461Y-156508610D02*
X115904977Y-156686994D01*
X115770744Y-157146348D01*
X115744431Y-157084358D01*
X115673966Y-157004530D01*
X115453208Y-156915338D01*
X115347066Y-156923813D01*
X115285076Y-156950126D01*
X115205248Y-157020591D01*
X115116056Y-157241349D01*
X115124531Y-157347490D01*
X115150844Y-157409480D01*
X115221309Y-157489309D01*
X115442067Y-157578501D01*
X115548208Y-157570026D01*
X115610199Y-157543713D01*
X84907784Y-192158112D02*
X85282391Y-191230928D01*
X84705753Y-191768333D01*
X84664268Y-190981190D01*
X84289662Y-191908374D01*
X84311055Y-190838483D02*
X83318326Y-191515929D01*
X83692933Y-190588745D02*
X83936449Y-191765667D01*
X82479446Y-191176999D02*
X83009265Y-191391060D01*
X82744355Y-191284030D02*
X83118962Y-190356846D01*
X83153750Y-190524978D01*
X83206376Y-190648958D01*
X83276841Y-190728786D01*
X81934454Y-190237786D02*
X81684717Y-190855908D01*
X82297920Y-189973765D02*
X82251102Y-190725231D01*
X81677131Y-190493332D01*
X65881850Y-189863809D02*
X66256457Y-188936625D01*
X65679819Y-189474030D01*
X65638334Y-188686887D01*
X65263728Y-189614071D01*
X65285121Y-188544180D02*
X64292392Y-189221626D01*
X64666999Y-188294442D02*
X64910515Y-189471364D01*
X63453512Y-188882696D02*
X63983331Y-189096757D01*
X63718421Y-188989727D02*
X64093028Y-188062543D01*
X64127816Y-188230675D01*
X64180442Y-188354655D01*
X64250907Y-188434483D01*
X63254147Y-187723613D02*
X63165844Y-187687936D01*
X63059702Y-187696411D01*
X62997712Y-187722724D01*
X62917884Y-187793189D01*
X62802379Y-187951957D01*
X62713187Y-188172715D01*
X62685985Y-188367160D01*
X62694459Y-188473302D01*
X62720773Y-188535292D01*
X62791237Y-188615120D01*
X62879541Y-188650797D01*
X62985682Y-188642322D01*
X63047672Y-188616009D01*
X63127501Y-188545544D01*
X63243006Y-188386776D01*
X63332198Y-188166018D01*
X63359400Y-187971573D01*
X63350925Y-187865432D01*
X63324612Y-187803442D01*
X63254147Y-187723613D01*
D12*
X143421666Y-229009285D02*
X143240238Y-229069761D01*
X143179761Y-229130238D01*
X143119285Y-229251190D01*
X143119285Y-229432619D01*
X143179761Y-229553571D01*
X143240238Y-229614047D01*
X143361190Y-229674523D01*
X143845000Y-229674523D01*
X143845000Y-228404523D01*
X143421666Y-228404523D01*
X143300714Y-228465000D01*
X143240238Y-228525476D01*
X143179761Y-228646428D01*
X143179761Y-228767380D01*
X143240238Y-228888333D01*
X143300714Y-228948809D01*
X143421666Y-229009285D01*
X143845000Y-229009285D01*
X142333095Y-228404523D02*
X142091190Y-228404523D01*
X141970238Y-228465000D01*
X141849285Y-228585952D01*
X141788809Y-228827857D01*
X141788809Y-229251190D01*
X141849285Y-229493095D01*
X141970238Y-229614047D01*
X142091190Y-229674523D01*
X142333095Y-229674523D01*
X142454047Y-229614047D01*
X142575000Y-229493095D01*
X142635476Y-229251190D01*
X142635476Y-228827857D01*
X142575000Y-228585952D01*
X142454047Y-228465000D01*
X142333095Y-228404523D01*
X141002619Y-228404523D02*
X140760714Y-228404523D01*
X140639761Y-228465000D01*
X140518809Y-228585952D01*
X140458333Y-228827857D01*
X140458333Y-229251190D01*
X140518809Y-229493095D01*
X140639761Y-229614047D01*
X140760714Y-229674523D01*
X141002619Y-229674523D01*
X141123571Y-229614047D01*
X141244523Y-229493095D01*
X141305000Y-229251190D01*
X141305000Y-228827857D01*
X141244523Y-228585952D01*
X141123571Y-228465000D01*
X141002619Y-228404523D01*
X140095476Y-228404523D02*
X139369761Y-228404523D01*
X139732619Y-229674523D02*
X139732619Y-228404523D01*
X139006904Y-229614047D02*
X138825476Y-229674523D01*
X138523095Y-229674523D01*
X138402142Y-229614047D01*
X138341666Y-229553571D01*
X138281190Y-229432619D01*
X138281190Y-229311666D01*
X138341666Y-229190714D01*
X138402142Y-229130238D01*
X138523095Y-229069761D01*
X138765000Y-229009285D01*
X138885952Y-228948809D01*
X138946428Y-228888333D01*
X139006904Y-228767380D01*
X139006904Y-228646428D01*
X138946428Y-228525476D01*
X138885952Y-228465000D01*
X138765000Y-228404523D01*
X138462619Y-228404523D01*
X138281190Y-228465000D01*
X137736904Y-229009285D02*
X137313571Y-229009285D01*
X137132142Y-229674523D02*
X137736904Y-229674523D01*
X137736904Y-228404523D01*
X137132142Y-228404523D01*
X135983095Y-229674523D02*
X136587857Y-229674523D01*
X136587857Y-228404523D01*
X134894523Y-229674523D02*
X135620238Y-229674523D01*
X135257380Y-229674523D02*
X135257380Y-228404523D01*
X135378333Y-228585952D01*
X135499285Y-228706904D01*
X135620238Y-228767380D01*
X120242142Y-229924523D02*
X120665476Y-229319761D01*
X120967857Y-229924523D02*
X120967857Y-228654523D01*
X120484047Y-228654523D01*
X120363095Y-228715000D01*
X120302619Y-228775476D01*
X120242142Y-228896428D01*
X120242142Y-229077857D01*
X120302619Y-229198809D01*
X120363095Y-229259285D01*
X120484047Y-229319761D01*
X120967857Y-229319761D01*
X119697857Y-228654523D02*
X119697857Y-229682619D01*
X119637380Y-229803571D01*
X119576904Y-229864047D01*
X119455952Y-229924523D01*
X119214047Y-229924523D01*
X119093095Y-229864047D01*
X119032619Y-229803571D01*
X118972142Y-229682619D01*
X118972142Y-228654523D01*
X118367380Y-229924523D02*
X118367380Y-228654523D01*
X117641666Y-229924523D01*
X117641666Y-228654523D01*
X116371666Y-229924523D02*
X117097380Y-229924523D01*
X116734523Y-229924523D02*
X116734523Y-228654523D01*
X116855476Y-228835952D01*
X116976428Y-228956904D01*
X117097380Y-229017380D01*
D10*
X104802380Y-211585714D02*
X103802380Y-211585714D01*
X103802380Y-211823809D01*
X103850000Y-211966666D01*
X103945238Y-212061904D01*
X104040476Y-212109523D01*
X104230952Y-212157142D01*
X104373809Y-212157142D01*
X104564285Y-212109523D01*
X104659523Y-212061904D01*
X104754761Y-211966666D01*
X104802380Y-211823809D01*
X104802380Y-211585714D01*
X104135714Y-213014285D02*
X104802380Y-213014285D01*
X103754761Y-212776190D02*
X104469047Y-212538095D01*
X104469047Y-213157142D01*
X103802380Y-213966666D02*
X103802380Y-213776190D01*
X103850000Y-213680952D01*
X103897619Y-213633333D01*
X104040476Y-213538095D01*
X104230952Y-213490476D01*
X104611904Y-213490476D01*
X104707142Y-213538095D01*
X104754761Y-213585714D01*
X104802380Y-213680952D01*
X104802380Y-213871428D01*
X104754761Y-213966666D01*
X104707142Y-214014285D01*
X104611904Y-214061904D01*
X104373809Y-214061904D01*
X104278571Y-214014285D01*
X104230952Y-213966666D01*
X104183333Y-213871428D01*
X104183333Y-213680952D01*
X104230952Y-213585714D01*
X104278571Y-213538095D01*
X104373809Y-213490476D01*
X107202380Y-211585714D02*
X106202380Y-211585714D01*
X106202380Y-211823809D01*
X106250000Y-211966666D01*
X106345238Y-212061904D01*
X106440476Y-212109523D01*
X106630952Y-212157142D01*
X106773809Y-212157142D01*
X106964285Y-212109523D01*
X107059523Y-212061904D01*
X107154761Y-211966666D01*
X107202380Y-211823809D01*
X107202380Y-211585714D01*
X106535714Y-213014285D02*
X107202380Y-213014285D01*
X106154761Y-212776190D02*
X106869047Y-212538095D01*
X106869047Y-213157142D01*
X106202380Y-214014285D02*
X106202380Y-213538095D01*
X106678571Y-213490476D01*
X106630952Y-213538095D01*
X106583333Y-213633333D01*
X106583333Y-213871428D01*
X106630952Y-213966666D01*
X106678571Y-214014285D01*
X106773809Y-214061904D01*
X107011904Y-214061904D01*
X107107142Y-214014285D01*
X107154761Y-213966666D01*
X107202380Y-213871428D01*
X107202380Y-213633333D01*
X107154761Y-213538095D01*
X107107142Y-213490476D01*
X157152380Y-164670833D02*
X156676190Y-164337500D01*
X157152380Y-164099404D02*
X156152380Y-164099404D01*
X156152380Y-164480357D01*
X156200000Y-164575595D01*
X156247619Y-164623214D01*
X156342857Y-164670833D01*
X156485714Y-164670833D01*
X156580952Y-164623214D01*
X156628571Y-164575595D01*
X156676190Y-164480357D01*
X156676190Y-164099404D01*
X157152380Y-165147023D02*
X157152380Y-165337500D01*
X157104761Y-165432738D01*
X157057142Y-165480357D01*
X156914285Y-165575595D01*
X156723809Y-165623214D01*
X156342857Y-165623214D01*
X156247619Y-165575595D01*
X156200000Y-165527976D01*
X156152380Y-165432738D01*
X156152380Y-165242261D01*
X156200000Y-165147023D01*
X156247619Y-165099404D01*
X156342857Y-165051785D01*
X156580952Y-165051785D01*
X156676190Y-165099404D01*
X156723809Y-165147023D01*
X156771428Y-165242261D01*
X156771428Y-165432738D01*
X156723809Y-165527976D01*
X156676190Y-165575595D01*
X156580952Y-165623214D01*
X151752380Y-164670833D02*
X151276190Y-164337500D01*
X151752380Y-164099404D02*
X150752380Y-164099404D01*
X150752380Y-164480357D01*
X150800000Y-164575595D01*
X150847619Y-164623214D01*
X150942857Y-164670833D01*
X151085714Y-164670833D01*
X151180952Y-164623214D01*
X151228571Y-164575595D01*
X151276190Y-164480357D01*
X151276190Y-164099404D01*
X151180952Y-165242261D02*
X151133333Y-165147023D01*
X151085714Y-165099404D01*
X150990476Y-165051785D01*
X150942857Y-165051785D01*
X150847619Y-165099404D01*
X150800000Y-165147023D01*
X150752380Y-165242261D01*
X150752380Y-165432738D01*
X150800000Y-165527976D01*
X150847619Y-165575595D01*
X150942857Y-165623214D01*
X150990476Y-165623214D01*
X151085714Y-165575595D01*
X151133333Y-165527976D01*
X151180952Y-165432738D01*
X151180952Y-165242261D01*
X151228571Y-165147023D01*
X151276190Y-165099404D01*
X151371428Y-165051785D01*
X151561904Y-165051785D01*
X151657142Y-165099404D01*
X151704761Y-165147023D01*
X151752380Y-165242261D01*
X151752380Y-165432738D01*
X151704761Y-165527976D01*
X151657142Y-165575595D01*
X151561904Y-165623214D01*
X151371428Y-165623214D01*
X151276190Y-165575595D01*
X151228571Y-165527976D01*
X151180952Y-165432738D01*
X152561133Y-159145505D02*
X152828709Y-159807779D01*
X152926376Y-159922396D01*
X153050356Y-159975022D01*
X153200649Y-159965658D01*
X153288953Y-159929982D01*
X152207920Y-159288212D02*
X151633949Y-159520112D01*
X152085718Y-159748456D01*
X151953263Y-159801971D01*
X151882798Y-159881799D01*
X151856485Y-159943789D01*
X151848010Y-160049931D01*
X151937202Y-160270689D01*
X152017031Y-160341154D01*
X152079021Y-160367467D01*
X152185162Y-160375942D01*
X152450072Y-160268911D01*
X152520537Y-160189083D01*
X152546850Y-160127093D01*
X151316413Y-159751122D02*
X151254423Y-159724809D01*
X151148282Y-159716334D01*
X150927524Y-159805526D01*
X150857059Y-159885355D01*
X150830746Y-159947345D01*
X150822271Y-160053486D01*
X150857948Y-160141789D01*
X150955614Y-160256406D01*
X151699495Y-160572164D01*
X151125524Y-160804064D01*
D12*
X153131761Y-213172523D02*
X153131761Y-211902523D01*
X151801285Y-213051571D02*
X151861761Y-213112047D01*
X152043190Y-213172523D01*
X152164142Y-213172523D01*
X152345571Y-213112047D01*
X152466523Y-212991095D01*
X152527000Y-212870142D01*
X152587476Y-212628238D01*
X152587476Y-212446809D01*
X152527000Y-212204904D01*
X152466523Y-212083952D01*
X152345571Y-211963000D01*
X152164142Y-211902523D01*
X152043190Y-211902523D01*
X151861761Y-211963000D01*
X151801285Y-212023476D01*
X150591761Y-213172523D02*
X151317476Y-213172523D01*
X150954619Y-213172523D02*
X150954619Y-211902523D01*
X151075571Y-212083952D01*
X151196523Y-212204904D01*
X151317476Y-212265380D01*
D10*
X180252380Y-206748214D02*
X179252380Y-206748214D01*
X179252380Y-206986309D01*
X179300000Y-207129166D01*
X179395238Y-207224404D01*
X179490476Y-207272023D01*
X179680952Y-207319642D01*
X179823809Y-207319642D01*
X180014285Y-207272023D01*
X180109523Y-207224404D01*
X180204761Y-207129166D01*
X180252380Y-206986309D01*
X180252380Y-206748214D01*
X179347619Y-207700595D02*
X179300000Y-207748214D01*
X179252380Y-207843452D01*
X179252380Y-208081547D01*
X179300000Y-208176785D01*
X179347619Y-208224404D01*
X179442857Y-208272023D01*
X179538095Y-208272023D01*
X179680952Y-208224404D01*
X180252380Y-207652976D01*
X180252380Y-208272023D01*
X179252380Y-209176785D02*
X179252380Y-208700595D01*
X179728571Y-208652976D01*
X179680952Y-208700595D01*
X179633333Y-208795833D01*
X179633333Y-209033928D01*
X179680952Y-209129166D01*
X179728571Y-209176785D01*
X179823809Y-209224404D01*
X180061904Y-209224404D01*
X180157142Y-209176785D01*
X180204761Y-209129166D01*
X180252380Y-209033928D01*
X180252380Y-208795833D01*
X180204761Y-208700595D01*
X180157142Y-208652976D01*
D12*
X161640761Y-230093761D02*
X161640761Y-230698523D01*
X162064095Y-229428523D02*
X161640761Y-230093761D01*
X161217428Y-229428523D01*
X160128857Y-230698523D02*
X160854571Y-230698523D01*
X160491714Y-230698523D02*
X160491714Y-229428523D01*
X160612666Y-229609952D01*
X160733619Y-229730904D01*
X160854571Y-229791380D01*
D10*
X163234666Y-201874380D02*
X163568000Y-201398190D01*
X163806095Y-201874380D02*
X163806095Y-200874380D01*
X163425142Y-200874380D01*
X163329904Y-200922000D01*
X163282285Y-200969619D01*
X163234666Y-201064857D01*
X163234666Y-201207714D01*
X163282285Y-201302952D01*
X163329904Y-201350571D01*
X163425142Y-201398190D01*
X163806095Y-201398190D01*
X162901333Y-200874380D02*
X162282285Y-200874380D01*
X162615619Y-201255333D01*
X162472761Y-201255333D01*
X162377523Y-201302952D01*
X162329904Y-201350571D01*
X162282285Y-201445809D01*
X162282285Y-201683904D01*
X162329904Y-201779142D01*
X162377523Y-201826761D01*
X162472761Y-201874380D01*
X162758476Y-201874380D01*
X162853714Y-201826761D01*
X162901333Y-201779142D01*
D12*
X169133761Y-205552523D02*
X169133761Y-204282523D01*
X167803285Y-205431571D02*
X167863761Y-205492047D01*
X168045190Y-205552523D01*
X168166142Y-205552523D01*
X168347571Y-205492047D01*
X168468523Y-205371095D01*
X168529000Y-205250142D01*
X168589476Y-205008238D01*
X168589476Y-204826809D01*
X168529000Y-204584904D01*
X168468523Y-204463952D01*
X168347571Y-204343000D01*
X168166142Y-204282523D01*
X168045190Y-204282523D01*
X167863761Y-204343000D01*
X167803285Y-204403476D01*
X167319476Y-204403476D02*
X167259000Y-204343000D01*
X167138047Y-204282523D01*
X166835666Y-204282523D01*
X166714714Y-204343000D01*
X166654238Y-204403476D01*
X166593761Y-204524428D01*
X166593761Y-204645380D01*
X166654238Y-204826809D01*
X167379952Y-205552523D01*
X166593761Y-205552523D01*
D10*
X142343142Y-192619333D02*
X142390761Y-192571714D01*
X142438380Y-192428857D01*
X142438380Y-192333619D01*
X142390761Y-192190761D01*
X142295523Y-192095523D01*
X142200285Y-192047904D01*
X142009809Y-192000285D01*
X141866952Y-192000285D01*
X141676476Y-192047904D01*
X141581238Y-192095523D01*
X141486000Y-192190761D01*
X141438380Y-192333619D01*
X141438380Y-192428857D01*
X141486000Y-192571714D01*
X141533619Y-192619333D01*
X142438380Y-193095523D02*
X142438380Y-193286000D01*
X142390761Y-193381238D01*
X142343142Y-193428857D01*
X142200285Y-193524095D01*
X142009809Y-193571714D01*
X141628857Y-193571714D01*
X141533619Y-193524095D01*
X141486000Y-193476476D01*
X141438380Y-193381238D01*
X141438380Y-193190761D01*
X141486000Y-193095523D01*
X141533619Y-193047904D01*
X141628857Y-193000285D01*
X141866952Y-193000285D01*
X141962190Y-193047904D01*
X142009809Y-193095523D01*
X142057428Y-193190761D01*
X142057428Y-193381238D01*
X142009809Y-193476476D01*
X141962190Y-193524095D01*
X141866952Y-193571714D01*
X158662666Y-220067142D02*
X158710285Y-220114761D01*
X158853142Y-220162380D01*
X158948380Y-220162380D01*
X159091238Y-220114761D01*
X159186476Y-220019523D01*
X159234095Y-219924285D01*
X159281714Y-219733809D01*
X159281714Y-219590952D01*
X159234095Y-219400476D01*
X159186476Y-219305238D01*
X159091238Y-219210000D01*
X158948380Y-219162380D01*
X158853142Y-219162380D01*
X158710285Y-219210000D01*
X158662666Y-219257619D01*
X158329333Y-219162380D02*
X157662666Y-219162380D01*
X158091238Y-220162380D01*
X137072666Y-220321142D02*
X137120285Y-220368761D01*
X137263142Y-220416380D01*
X137358380Y-220416380D01*
X137501238Y-220368761D01*
X137596476Y-220273523D01*
X137644095Y-220178285D01*
X137691714Y-219987809D01*
X137691714Y-219844952D01*
X137644095Y-219654476D01*
X137596476Y-219559238D01*
X137501238Y-219464000D01*
X137358380Y-219416380D01*
X137263142Y-219416380D01*
X137120285Y-219464000D01*
X137072666Y-219511619D01*
X136215523Y-219416380D02*
X136406000Y-219416380D01*
X136501238Y-219464000D01*
X136548857Y-219511619D01*
X136644095Y-219654476D01*
X136691714Y-219844952D01*
X136691714Y-220225904D01*
X136644095Y-220321142D01*
X136596476Y-220368761D01*
X136501238Y-220416380D01*
X136310761Y-220416380D01*
X136215523Y-220368761D01*
X136167904Y-220321142D01*
X136120285Y-220225904D01*
X136120285Y-219987809D01*
X136167904Y-219892571D01*
X136215523Y-219844952D01*
X136310761Y-219797333D01*
X136501238Y-219797333D01*
X136596476Y-219844952D01*
X136644095Y-219892571D01*
X136691714Y-219987809D01*
X158662666Y-221591142D02*
X158710285Y-221638761D01*
X158853142Y-221686380D01*
X158948380Y-221686380D01*
X159091238Y-221638761D01*
X159186476Y-221543523D01*
X159234095Y-221448285D01*
X159281714Y-221257809D01*
X159281714Y-221114952D01*
X159234095Y-220924476D01*
X159186476Y-220829238D01*
X159091238Y-220734000D01*
X158948380Y-220686380D01*
X158853142Y-220686380D01*
X158710285Y-220734000D01*
X158662666Y-220781619D01*
X157757904Y-220686380D02*
X158234095Y-220686380D01*
X158281714Y-221162571D01*
X158234095Y-221114952D01*
X158138857Y-221067333D01*
X157900761Y-221067333D01*
X157805523Y-221114952D01*
X157757904Y-221162571D01*
X157710285Y-221257809D01*
X157710285Y-221495904D01*
X157757904Y-221591142D01*
X157805523Y-221638761D01*
X157900761Y-221686380D01*
X158138857Y-221686380D01*
X158234095Y-221638761D01*
X158281714Y-221591142D01*
X164504666Y-221592142D02*
X164552285Y-221639761D01*
X164695142Y-221687380D01*
X164790380Y-221687380D01*
X164933238Y-221639761D01*
X165028476Y-221544523D01*
X165076095Y-221449285D01*
X165123714Y-221258809D01*
X165123714Y-221115952D01*
X165076095Y-220925476D01*
X165028476Y-220830238D01*
X164933238Y-220735000D01*
X164790380Y-220687380D01*
X164695142Y-220687380D01*
X164552285Y-220735000D01*
X164504666Y-220782619D01*
X163647523Y-221020714D02*
X163647523Y-221687380D01*
X163885619Y-220639761D02*
X164123714Y-221354047D01*
X163504666Y-221354047D01*
X137072666Y-212447142D02*
X137120285Y-212494761D01*
X137263142Y-212542380D01*
X137358380Y-212542380D01*
X137501238Y-212494761D01*
X137596476Y-212399523D01*
X137644095Y-212304285D01*
X137691714Y-212113809D01*
X137691714Y-211970952D01*
X137644095Y-211780476D01*
X137596476Y-211685238D01*
X137501238Y-211590000D01*
X137358380Y-211542380D01*
X137263142Y-211542380D01*
X137120285Y-211590000D01*
X137072666Y-211637619D01*
X136739333Y-211542380D02*
X136120285Y-211542380D01*
X136453619Y-211923333D01*
X136310761Y-211923333D01*
X136215523Y-211970952D01*
X136167904Y-212018571D01*
X136120285Y-212113809D01*
X136120285Y-212351904D01*
X136167904Y-212447142D01*
X136215523Y-212494761D01*
X136310761Y-212542380D01*
X136596476Y-212542380D01*
X136691714Y-212494761D01*
X136739333Y-212447142D01*
X148439142Y-206081333D02*
X148486761Y-206033714D01*
X148534380Y-205890857D01*
X148534380Y-205795619D01*
X148486761Y-205652761D01*
X148391523Y-205557523D01*
X148296285Y-205509904D01*
X148105809Y-205462285D01*
X147962952Y-205462285D01*
X147772476Y-205509904D01*
X147677238Y-205557523D01*
X147582000Y-205652761D01*
X147534380Y-205795619D01*
X147534380Y-205890857D01*
X147582000Y-206033714D01*
X147629619Y-206081333D01*
X147629619Y-206462285D02*
X147582000Y-206509904D01*
X147534380Y-206605142D01*
X147534380Y-206843238D01*
X147582000Y-206938476D01*
X147629619Y-206986095D01*
X147724857Y-207033714D01*
X147820095Y-207033714D01*
X147962952Y-206986095D01*
X148534380Y-206414666D01*
X148534380Y-207033714D01*
X137072666Y-210161142D02*
X137120285Y-210208761D01*
X137263142Y-210256380D01*
X137358380Y-210256380D01*
X137501238Y-210208761D01*
X137596476Y-210113523D01*
X137644095Y-210018285D01*
X137691714Y-209827809D01*
X137691714Y-209684952D01*
X137644095Y-209494476D01*
X137596476Y-209399238D01*
X137501238Y-209304000D01*
X137358380Y-209256380D01*
X137263142Y-209256380D01*
X137120285Y-209304000D01*
X137072666Y-209351619D01*
X136120285Y-210256380D02*
X136691714Y-210256380D01*
X136406000Y-210256380D02*
X136406000Y-209256380D01*
X136501238Y-209399238D01*
X136596476Y-209494476D01*
X136691714Y-209542095D01*
X135942380Y-203298095D02*
X136751904Y-203298095D01*
X136847142Y-203345714D01*
X136894761Y-203393333D01*
X136942380Y-203488571D01*
X136942380Y-203679047D01*
X136894761Y-203774285D01*
X136847142Y-203821904D01*
X136751904Y-203869523D01*
X135942380Y-203869523D01*
X136942380Y-204869523D02*
X136942380Y-204298095D01*
X136942380Y-204583809D02*
X135942380Y-204583809D01*
X136085238Y-204488571D01*
X136180476Y-204393333D01*
X136228095Y-204298095D01*
X159884166Y-201875380D02*
X160217500Y-201399190D01*
X160455595Y-201875380D02*
X160455595Y-200875380D01*
X160074642Y-200875380D01*
X159979404Y-200923000D01*
X159931785Y-200970619D01*
X159884166Y-201065857D01*
X159884166Y-201208714D01*
X159931785Y-201303952D01*
X159979404Y-201351571D01*
X160074642Y-201399190D01*
X160455595Y-201399190D01*
X159550833Y-200875380D02*
X158884166Y-200875380D01*
X159312738Y-201875380D01*
X151074380Y-228179333D02*
X150598190Y-227846000D01*
X151074380Y-227607904D02*
X150074380Y-227607904D01*
X150074380Y-227988857D01*
X150122000Y-228084095D01*
X150169619Y-228131714D01*
X150264857Y-228179333D01*
X150407714Y-228179333D01*
X150502952Y-228131714D01*
X150550571Y-228084095D01*
X150598190Y-227988857D01*
X150598190Y-227607904D01*
X150074380Y-229036476D02*
X150074380Y-228846000D01*
X150122000Y-228750761D01*
X150169619Y-228703142D01*
X150312476Y-228607904D01*
X150502952Y-228560285D01*
X150883904Y-228560285D01*
X150979142Y-228607904D01*
X151026761Y-228655523D01*
X151074380Y-228750761D01*
X151074380Y-228941238D01*
X151026761Y-229036476D01*
X150979142Y-229084095D01*
X150883904Y-229131714D01*
X150645809Y-229131714D01*
X150550571Y-229084095D01*
X150502952Y-229036476D01*
X150455333Y-228941238D01*
X150455333Y-228750761D01*
X150502952Y-228655523D01*
X150550571Y-228607904D01*
X150645809Y-228560285D01*
X173680380Y-221829333D02*
X173204190Y-221496000D01*
X173680380Y-221257904D02*
X172680380Y-221257904D01*
X172680380Y-221638857D01*
X172728000Y-221734095D01*
X172775619Y-221781714D01*
X172870857Y-221829333D01*
X173013714Y-221829333D01*
X173108952Y-221781714D01*
X173156571Y-221734095D01*
X173204190Y-221638857D01*
X173204190Y-221257904D01*
X172680380Y-222734095D02*
X172680380Y-222257904D01*
X173156571Y-222210285D01*
X173108952Y-222257904D01*
X173061333Y-222353142D01*
X173061333Y-222591238D01*
X173108952Y-222686476D01*
X173156571Y-222734095D01*
X173251809Y-222781714D01*
X173489904Y-222781714D01*
X173585142Y-222734095D01*
X173632761Y-222686476D01*
X173680380Y-222591238D01*
X173680380Y-222353142D01*
X173632761Y-222257904D01*
X173585142Y-222210285D01*
X171648380Y-221829333D02*
X171172190Y-221496000D01*
X171648380Y-221257904D02*
X170648380Y-221257904D01*
X170648380Y-221638857D01*
X170696000Y-221734095D01*
X170743619Y-221781714D01*
X170838857Y-221829333D01*
X170981714Y-221829333D01*
X171076952Y-221781714D01*
X171124571Y-221734095D01*
X171172190Y-221638857D01*
X171172190Y-221257904D01*
X170981714Y-222686476D02*
X171648380Y-222686476D01*
X170600761Y-222448380D02*
X171315047Y-222210285D01*
X171315047Y-222829333D01*
X147931142Y-227957142D02*
X147978761Y-227909523D01*
X148026380Y-227766666D01*
X148026380Y-227671428D01*
X147978761Y-227528571D01*
X147883523Y-227433333D01*
X147788285Y-227385714D01*
X147597809Y-227338095D01*
X147454952Y-227338095D01*
X147264476Y-227385714D01*
X147169238Y-227433333D01*
X147074000Y-227528571D01*
X147026380Y-227671428D01*
X147026380Y-227766666D01*
X147074000Y-227909523D01*
X147121619Y-227957142D01*
X148026380Y-228909523D02*
X148026380Y-228338095D01*
X148026380Y-228623809D02*
X147026380Y-228623809D01*
X147169238Y-228528571D01*
X147264476Y-228433333D01*
X147312095Y-228338095D01*
X147026380Y-229242857D02*
X147026380Y-229909523D01*
X148026380Y-229480952D01*
X158630857Y-214987142D02*
X158678476Y-215034761D01*
X158821333Y-215082380D01*
X158916571Y-215082380D01*
X159059428Y-215034761D01*
X159154666Y-214939523D01*
X159202285Y-214844285D01*
X159249904Y-214653809D01*
X159249904Y-214510952D01*
X159202285Y-214320476D01*
X159154666Y-214225238D01*
X159059428Y-214130000D01*
X158916571Y-214082380D01*
X158821333Y-214082380D01*
X158678476Y-214130000D01*
X158630857Y-214177619D01*
X157678476Y-215082380D02*
X158249904Y-215082380D01*
X157964190Y-215082380D02*
X157964190Y-214082380D01*
X158059428Y-214225238D01*
X158154666Y-214320476D01*
X158249904Y-214368095D01*
X156821333Y-214082380D02*
X157011809Y-214082380D01*
X157107047Y-214130000D01*
X157154666Y-214177619D01*
X157249904Y-214320476D01*
X157297523Y-214510952D01*
X157297523Y-214891904D01*
X157249904Y-214987142D01*
X157202285Y-215034761D01*
X157107047Y-215082380D01*
X156916571Y-215082380D01*
X156821333Y-215034761D01*
X156773714Y-214987142D01*
X156726095Y-214891904D01*
X156726095Y-214653809D01*
X156773714Y-214558571D01*
X156821333Y-214510952D01*
X156916571Y-214463333D01*
X157107047Y-214463333D01*
X157202285Y-214510952D01*
X157249904Y-214558571D01*
X157297523Y-214653809D01*
X150979142Y-202049142D02*
X151026761Y-202001523D01*
X151074380Y-201858666D01*
X151074380Y-201763428D01*
X151026761Y-201620571D01*
X150931523Y-201525333D01*
X150836285Y-201477714D01*
X150645809Y-201430095D01*
X150502952Y-201430095D01*
X150312476Y-201477714D01*
X150217238Y-201525333D01*
X150122000Y-201620571D01*
X150074380Y-201763428D01*
X150074380Y-201858666D01*
X150122000Y-202001523D01*
X150169619Y-202049142D01*
X151074380Y-203001523D02*
X151074380Y-202430095D01*
X151074380Y-202715809D02*
X150074380Y-202715809D01*
X150217238Y-202620571D01*
X150312476Y-202525333D01*
X150360095Y-202430095D01*
X150074380Y-203906285D02*
X150074380Y-203430095D01*
X150550571Y-203382476D01*
X150502952Y-203430095D01*
X150455333Y-203525333D01*
X150455333Y-203763428D01*
X150502952Y-203858666D01*
X150550571Y-203906285D01*
X150645809Y-203953904D01*
X150883904Y-203953904D01*
X150979142Y-203906285D01*
X151026761Y-203858666D01*
X151074380Y-203763428D01*
X151074380Y-203525333D01*
X151026761Y-203430095D01*
X150979142Y-203382476D01*
X145899142Y-227957142D02*
X145946761Y-227909523D01*
X145994380Y-227766666D01*
X145994380Y-227671428D01*
X145946761Y-227528571D01*
X145851523Y-227433333D01*
X145756285Y-227385714D01*
X145565809Y-227338095D01*
X145422952Y-227338095D01*
X145232476Y-227385714D01*
X145137238Y-227433333D01*
X145042000Y-227528571D01*
X144994380Y-227671428D01*
X144994380Y-227766666D01*
X145042000Y-227909523D01*
X145089619Y-227957142D01*
X145994380Y-228909523D02*
X145994380Y-228338095D01*
X145994380Y-228623809D02*
X144994380Y-228623809D01*
X145137238Y-228528571D01*
X145232476Y-228433333D01*
X145280095Y-228338095D01*
X145327714Y-229766666D02*
X145994380Y-229766666D01*
X144946761Y-229528571D02*
X145661047Y-229290476D01*
X145661047Y-229909523D01*
X152571142Y-208769142D02*
X152618761Y-208721523D01*
X152666380Y-208578666D01*
X152666380Y-208483428D01*
X152618761Y-208340571D01*
X152523523Y-208245333D01*
X152428285Y-208197714D01*
X152237809Y-208150095D01*
X152094952Y-208150095D01*
X151904476Y-208197714D01*
X151809238Y-208245333D01*
X151714000Y-208340571D01*
X151666380Y-208483428D01*
X151666380Y-208578666D01*
X151714000Y-208721523D01*
X151761619Y-208769142D01*
X152666380Y-209721523D02*
X152666380Y-209150095D01*
X152666380Y-209435809D02*
X151666380Y-209435809D01*
X151809238Y-209340571D01*
X151904476Y-209245333D01*
X151952095Y-209150095D01*
X151666380Y-210054857D02*
X151666380Y-210673904D01*
X152047333Y-210340571D01*
X152047333Y-210483428D01*
X152094952Y-210578666D01*
X152142571Y-210626285D01*
X152237809Y-210673904D01*
X152475904Y-210673904D01*
X152571142Y-210626285D01*
X152618761Y-210578666D01*
X152666380Y-210483428D01*
X152666380Y-210197714D01*
X152618761Y-210102476D01*
X152571142Y-210054857D01*
X145645142Y-206621142D02*
X145692761Y-206573523D01*
X145740380Y-206430666D01*
X145740380Y-206335428D01*
X145692761Y-206192571D01*
X145597523Y-206097333D01*
X145502285Y-206049714D01*
X145311809Y-206002095D01*
X145168952Y-206002095D01*
X144978476Y-206049714D01*
X144883238Y-206097333D01*
X144788000Y-206192571D01*
X144740380Y-206335428D01*
X144740380Y-206430666D01*
X144788000Y-206573523D01*
X144835619Y-206621142D01*
X145740380Y-207573523D02*
X145740380Y-207002095D01*
X145740380Y-207287809D02*
X144740380Y-207287809D01*
X144883238Y-207192571D01*
X144978476Y-207097333D01*
X145026095Y-207002095D01*
X144835619Y-207954476D02*
X144788000Y-208002095D01*
X144740380Y-208097333D01*
X144740380Y-208335428D01*
X144788000Y-208430666D01*
X144835619Y-208478285D01*
X144930857Y-208525904D01*
X145026095Y-208525904D01*
X145168952Y-208478285D01*
X145740380Y-207906857D01*
X145740380Y-208525904D01*
X140057142Y-192651142D02*
X140104761Y-192603523D01*
X140152380Y-192460666D01*
X140152380Y-192365428D01*
X140104761Y-192222571D01*
X140009523Y-192127333D01*
X139914285Y-192079714D01*
X139723809Y-192032095D01*
X139580952Y-192032095D01*
X139390476Y-192079714D01*
X139295238Y-192127333D01*
X139200000Y-192222571D01*
X139152380Y-192365428D01*
X139152380Y-192460666D01*
X139200000Y-192603523D01*
X139247619Y-192651142D01*
X140152380Y-193603523D02*
X140152380Y-193032095D01*
X140152380Y-193317809D02*
X139152380Y-193317809D01*
X139295238Y-193222571D01*
X139390476Y-193127333D01*
X139438095Y-193032095D01*
X140152380Y-194555904D02*
X140152380Y-193984476D01*
X140152380Y-194270190D02*
X139152380Y-194270190D01*
X139295238Y-194174952D01*
X139390476Y-194079714D01*
X139438095Y-193984476D01*
X137040857Y-214733142D02*
X137088476Y-214780761D01*
X137231333Y-214828380D01*
X137326571Y-214828380D01*
X137469428Y-214780761D01*
X137564666Y-214685523D01*
X137612285Y-214590285D01*
X137659904Y-214399809D01*
X137659904Y-214256952D01*
X137612285Y-214066476D01*
X137564666Y-213971238D01*
X137469428Y-213876000D01*
X137326571Y-213828380D01*
X137231333Y-213828380D01*
X137088476Y-213876000D01*
X137040857Y-213923619D01*
X136088476Y-214828380D02*
X136659904Y-214828380D01*
X136374190Y-214828380D02*
X136374190Y-213828380D01*
X136469428Y-213971238D01*
X136564666Y-214066476D01*
X136659904Y-214114095D01*
X135469428Y-213828380D02*
X135374190Y-213828380D01*
X135278952Y-213876000D01*
X135231333Y-213923619D01*
X135183714Y-214018857D01*
X135136095Y-214209333D01*
X135136095Y-214447428D01*
X135183714Y-214637904D01*
X135231333Y-214733142D01*
X135278952Y-214780761D01*
X135374190Y-214828380D01*
X135469428Y-214828380D01*
X135564666Y-214780761D01*
X135612285Y-214733142D01*
X135659904Y-214637904D01*
X135707523Y-214447428D01*
X135707523Y-214209333D01*
X135659904Y-214018857D01*
X135612285Y-213923619D01*
X135564666Y-213876000D01*
X135469428Y-213828380D01*
X149396380Y-196101333D02*
X148920190Y-195768000D01*
X149396380Y-195529904D02*
X148396380Y-195529904D01*
X148396380Y-195910857D01*
X148444000Y-196006095D01*
X148491619Y-196053714D01*
X148586857Y-196101333D01*
X148729714Y-196101333D01*
X148824952Y-196053714D01*
X148872571Y-196006095D01*
X148920190Y-195910857D01*
X148920190Y-195529904D01*
X148491619Y-196482285D02*
X148444000Y-196529904D01*
X148396380Y-196625142D01*
X148396380Y-196863238D01*
X148444000Y-196958476D01*
X148491619Y-197006095D01*
X148586857Y-197053714D01*
X148682095Y-197053714D01*
X148824952Y-197006095D01*
X149396380Y-196434666D01*
X149396380Y-197053714D01*
X147364380Y-196101333D02*
X146888190Y-195768000D01*
X147364380Y-195529904D02*
X146364380Y-195529904D01*
X146364380Y-195910857D01*
X146412000Y-196006095D01*
X146459619Y-196053714D01*
X146554857Y-196101333D01*
X146697714Y-196101333D01*
X146792952Y-196053714D01*
X146840571Y-196006095D01*
X146888190Y-195910857D01*
X146888190Y-195529904D01*
X147364380Y-197053714D02*
X147364380Y-196482285D01*
X147364380Y-196768000D02*
X146364380Y-196768000D01*
X146507238Y-196672761D01*
X146602476Y-196577523D01*
X146650095Y-196482285D01*
X146733333Y-166848571D02*
X147066666Y-166848571D01*
X147066666Y-167372380D02*
X147066666Y-166372380D01*
X146590476Y-166372380D01*
X145685714Y-167372380D02*
X146257142Y-167372380D01*
X145971428Y-167372380D02*
X145971428Y-166372380D01*
X146066666Y-166515238D01*
X146161904Y-166610476D01*
X146257142Y-166658095D01*
X196921130Y-206748214D02*
X195921130Y-206748214D01*
X195921130Y-206986309D01*
X195968750Y-207129166D01*
X196063988Y-207224404D01*
X196159226Y-207272023D01*
X196349702Y-207319642D01*
X196492559Y-207319642D01*
X196683035Y-207272023D01*
X196778273Y-207224404D01*
X196873511Y-207129166D01*
X196921130Y-206986309D01*
X196921130Y-206748214D01*
X196254464Y-208176785D02*
X196921130Y-208176785D01*
X195873511Y-207938690D02*
X196587797Y-207700595D01*
X196587797Y-208319642D01*
X196254464Y-209129166D02*
X196921130Y-209129166D01*
X195873511Y-208891071D02*
X196587797Y-208652976D01*
X196587797Y-209272023D01*
X194539880Y-206748214D02*
X193539880Y-206748214D01*
X193539880Y-206986309D01*
X193587500Y-207129166D01*
X193682738Y-207224404D01*
X193777976Y-207272023D01*
X193968452Y-207319642D01*
X194111309Y-207319642D01*
X194301785Y-207272023D01*
X194397023Y-207224404D01*
X194492261Y-207129166D01*
X194539880Y-206986309D01*
X194539880Y-206748214D01*
X193873214Y-208176785D02*
X194539880Y-208176785D01*
X193492261Y-207938690D02*
X194206547Y-207700595D01*
X194206547Y-208319642D01*
X193539880Y-208605357D02*
X193539880Y-209224404D01*
X193920833Y-208891071D01*
X193920833Y-209033928D01*
X193968452Y-209129166D01*
X194016071Y-209176785D01*
X194111309Y-209224404D01*
X194349404Y-209224404D01*
X194444642Y-209176785D01*
X194492261Y-209129166D01*
X194539880Y-209033928D01*
X194539880Y-208748214D01*
X194492261Y-208652976D01*
X194444642Y-208605357D01*
X182633630Y-206748214D02*
X181633630Y-206748214D01*
X181633630Y-206986309D01*
X181681250Y-207129166D01*
X181776488Y-207224404D01*
X181871726Y-207272023D01*
X182062202Y-207319642D01*
X182205059Y-207319642D01*
X182395535Y-207272023D01*
X182490773Y-207224404D01*
X182586011Y-207129166D01*
X182633630Y-206986309D01*
X182633630Y-206748214D01*
X181966964Y-208176785D02*
X182633630Y-208176785D01*
X181586011Y-207938690D02*
X182300297Y-207700595D01*
X182300297Y-208319642D01*
X181728869Y-208652976D02*
X181681250Y-208700595D01*
X181633630Y-208795833D01*
X181633630Y-209033928D01*
X181681250Y-209129166D01*
X181728869Y-209176785D01*
X181824107Y-209224404D01*
X181919345Y-209224404D01*
X182062202Y-209176785D01*
X182633630Y-208605357D01*
X182633630Y-209224404D01*
X185014880Y-206748214D02*
X184014880Y-206748214D01*
X184014880Y-206986309D01*
X184062500Y-207129166D01*
X184157738Y-207224404D01*
X184252976Y-207272023D01*
X184443452Y-207319642D01*
X184586309Y-207319642D01*
X184776785Y-207272023D01*
X184872023Y-207224404D01*
X184967261Y-207129166D01*
X185014880Y-206986309D01*
X185014880Y-206748214D01*
X184348214Y-208176785D02*
X185014880Y-208176785D01*
X183967261Y-207938690D02*
X184681547Y-207700595D01*
X184681547Y-208319642D01*
X185014880Y-209224404D02*
X185014880Y-208652976D01*
X185014880Y-208938690D02*
X184014880Y-208938690D01*
X184157738Y-208843452D01*
X184252976Y-208748214D01*
X184300595Y-208652976D01*
X187396130Y-206748214D02*
X186396130Y-206748214D01*
X186396130Y-206986309D01*
X186443750Y-207129166D01*
X186538988Y-207224404D01*
X186634226Y-207272023D01*
X186824702Y-207319642D01*
X186967559Y-207319642D01*
X187158035Y-207272023D01*
X187253273Y-207224404D01*
X187348511Y-207129166D01*
X187396130Y-206986309D01*
X187396130Y-206748214D01*
X186729464Y-208176785D02*
X187396130Y-208176785D01*
X186348511Y-207938690D02*
X187062797Y-207700595D01*
X187062797Y-208319642D01*
X186396130Y-208891071D02*
X186396130Y-208986309D01*
X186443750Y-209081547D01*
X186491369Y-209129166D01*
X186586607Y-209176785D01*
X186777083Y-209224404D01*
X187015178Y-209224404D01*
X187205654Y-209176785D01*
X187300892Y-209129166D01*
X187348511Y-209081547D01*
X187396130Y-208986309D01*
X187396130Y-208891071D01*
X187348511Y-208795833D01*
X187300892Y-208748214D01*
X187205654Y-208700595D01*
X187015178Y-208652976D01*
X186777083Y-208652976D01*
X186586607Y-208700595D01*
X186491369Y-208748214D01*
X186443750Y-208795833D01*
X186396130Y-208891071D01*
X189777380Y-206748214D02*
X188777380Y-206748214D01*
X188777380Y-206986309D01*
X188825000Y-207129166D01*
X188920238Y-207224404D01*
X189015476Y-207272023D01*
X189205952Y-207319642D01*
X189348809Y-207319642D01*
X189539285Y-207272023D01*
X189634523Y-207224404D01*
X189729761Y-207129166D01*
X189777380Y-206986309D01*
X189777380Y-206748214D01*
X188777380Y-207652976D02*
X188777380Y-208272023D01*
X189158333Y-207938690D01*
X189158333Y-208081547D01*
X189205952Y-208176785D01*
X189253571Y-208224404D01*
X189348809Y-208272023D01*
X189586904Y-208272023D01*
X189682142Y-208224404D01*
X189729761Y-208176785D01*
X189777380Y-208081547D01*
X189777380Y-207795833D01*
X189729761Y-207700595D01*
X189682142Y-207652976D01*
X189777380Y-208748214D02*
X189777380Y-208938690D01*
X189729761Y-209033928D01*
X189682142Y-209081547D01*
X189539285Y-209176785D01*
X189348809Y-209224404D01*
X188967857Y-209224404D01*
X188872619Y-209176785D01*
X188825000Y-209129166D01*
X188777380Y-209033928D01*
X188777380Y-208843452D01*
X188825000Y-208748214D01*
X188872619Y-208700595D01*
X188967857Y-208652976D01*
X189205952Y-208652976D01*
X189301190Y-208700595D01*
X189348809Y-208748214D01*
X189396428Y-208843452D01*
X189396428Y-209033928D01*
X189348809Y-209129166D01*
X189301190Y-209176785D01*
X189205952Y-209224404D01*
X162923630Y-194629464D02*
X161923630Y-194629464D01*
X161923630Y-194867559D01*
X161971250Y-195010416D01*
X162066488Y-195105654D01*
X162161726Y-195153273D01*
X162352202Y-195200892D01*
X162495059Y-195200892D01*
X162685535Y-195153273D01*
X162780773Y-195105654D01*
X162876011Y-195010416D01*
X162923630Y-194867559D01*
X162923630Y-194629464D01*
X161923630Y-195534226D02*
X161923630Y-196153273D01*
X162304583Y-195819940D01*
X162304583Y-195962797D01*
X162352202Y-196058035D01*
X162399821Y-196105654D01*
X162495059Y-196153273D01*
X162733154Y-196153273D01*
X162828392Y-196105654D01*
X162876011Y-196058035D01*
X162923630Y-195962797D01*
X162923630Y-195677083D01*
X162876011Y-195581845D01*
X162828392Y-195534226D01*
X162352202Y-196724702D02*
X162304583Y-196629464D01*
X162256964Y-196581845D01*
X162161726Y-196534226D01*
X162114107Y-196534226D01*
X162018869Y-196581845D01*
X161971250Y-196629464D01*
X161923630Y-196724702D01*
X161923630Y-196915178D01*
X161971250Y-197010416D01*
X162018869Y-197058035D01*
X162114107Y-197105654D01*
X162161726Y-197105654D01*
X162256964Y-197058035D01*
X162304583Y-197010416D01*
X162352202Y-196915178D01*
X162352202Y-196724702D01*
X162399821Y-196629464D01*
X162447440Y-196581845D01*
X162542678Y-196534226D01*
X162733154Y-196534226D01*
X162828392Y-196581845D01*
X162876011Y-196629464D01*
X162923630Y-196724702D01*
X162923630Y-196915178D01*
X162876011Y-197010416D01*
X162828392Y-197058035D01*
X162733154Y-197105654D01*
X162542678Y-197105654D01*
X162447440Y-197058035D01*
X162399821Y-197010416D01*
X162352202Y-196915178D01*
X165304880Y-194629464D02*
X164304880Y-194629464D01*
X164304880Y-194867559D01*
X164352500Y-195010416D01*
X164447738Y-195105654D01*
X164542976Y-195153273D01*
X164733452Y-195200892D01*
X164876309Y-195200892D01*
X165066785Y-195153273D01*
X165162023Y-195105654D01*
X165257261Y-195010416D01*
X165304880Y-194867559D01*
X165304880Y-194629464D01*
X164304880Y-195534226D02*
X164304880Y-196153273D01*
X164685833Y-195819940D01*
X164685833Y-195962797D01*
X164733452Y-196058035D01*
X164781071Y-196105654D01*
X164876309Y-196153273D01*
X165114404Y-196153273D01*
X165209642Y-196105654D01*
X165257261Y-196058035D01*
X165304880Y-195962797D01*
X165304880Y-195677083D01*
X165257261Y-195581845D01*
X165209642Y-195534226D01*
X164304880Y-196486607D02*
X164304880Y-197153273D01*
X165304880Y-196724702D01*
X167686130Y-194629464D02*
X166686130Y-194629464D01*
X166686130Y-194867559D01*
X166733750Y-195010416D01*
X166828988Y-195105654D01*
X166924226Y-195153273D01*
X167114702Y-195200892D01*
X167257559Y-195200892D01*
X167448035Y-195153273D01*
X167543273Y-195105654D01*
X167638511Y-195010416D01*
X167686130Y-194867559D01*
X167686130Y-194629464D01*
X166686130Y-195534226D02*
X166686130Y-196153273D01*
X167067083Y-195819940D01*
X167067083Y-195962797D01*
X167114702Y-196058035D01*
X167162321Y-196105654D01*
X167257559Y-196153273D01*
X167495654Y-196153273D01*
X167590892Y-196105654D01*
X167638511Y-196058035D01*
X167686130Y-195962797D01*
X167686130Y-195677083D01*
X167638511Y-195581845D01*
X167590892Y-195534226D01*
X166686130Y-197010416D02*
X166686130Y-196819940D01*
X166733750Y-196724702D01*
X166781369Y-196677083D01*
X166924226Y-196581845D01*
X167114702Y-196534226D01*
X167495654Y-196534226D01*
X167590892Y-196581845D01*
X167638511Y-196629464D01*
X167686130Y-196724702D01*
X167686130Y-196915178D01*
X167638511Y-197010416D01*
X167590892Y-197058035D01*
X167495654Y-197105654D01*
X167257559Y-197105654D01*
X167162321Y-197058035D01*
X167114702Y-197010416D01*
X167067083Y-196915178D01*
X167067083Y-196724702D01*
X167114702Y-196629464D01*
X167162321Y-196581845D01*
X167257559Y-196534226D01*
X170067380Y-194629464D02*
X169067380Y-194629464D01*
X169067380Y-194867559D01*
X169115000Y-195010416D01*
X169210238Y-195105654D01*
X169305476Y-195153273D01*
X169495952Y-195200892D01*
X169638809Y-195200892D01*
X169829285Y-195153273D01*
X169924523Y-195105654D01*
X170019761Y-195010416D01*
X170067380Y-194867559D01*
X170067380Y-194629464D01*
X169067380Y-195534226D02*
X169067380Y-196153273D01*
X169448333Y-195819940D01*
X169448333Y-195962797D01*
X169495952Y-196058035D01*
X169543571Y-196105654D01*
X169638809Y-196153273D01*
X169876904Y-196153273D01*
X169972142Y-196105654D01*
X170019761Y-196058035D01*
X170067380Y-195962797D01*
X170067380Y-195677083D01*
X170019761Y-195581845D01*
X169972142Y-195534226D01*
X169067380Y-197058035D02*
X169067380Y-196581845D01*
X169543571Y-196534226D01*
X169495952Y-196581845D01*
X169448333Y-196677083D01*
X169448333Y-196915178D01*
X169495952Y-197010416D01*
X169543571Y-197058035D01*
X169638809Y-197105654D01*
X169876904Y-197105654D01*
X169972142Y-197058035D01*
X170019761Y-197010416D01*
X170067380Y-196915178D01*
X170067380Y-196677083D01*
X170019761Y-196581845D01*
X169972142Y-196534226D01*
X157842380Y-178905714D02*
X156842380Y-178905714D01*
X156842380Y-179143809D01*
X156890000Y-179286666D01*
X156985238Y-179381904D01*
X157080476Y-179429523D01*
X157270952Y-179477142D01*
X157413809Y-179477142D01*
X157604285Y-179429523D01*
X157699523Y-179381904D01*
X157794761Y-179286666D01*
X157842380Y-179143809D01*
X157842380Y-178905714D01*
X156842380Y-179810476D02*
X156842380Y-180429523D01*
X157223333Y-180096190D01*
X157223333Y-180239047D01*
X157270952Y-180334285D01*
X157318571Y-180381904D01*
X157413809Y-180429523D01*
X157651904Y-180429523D01*
X157747142Y-180381904D01*
X157794761Y-180334285D01*
X157842380Y-180239047D01*
X157842380Y-179953333D01*
X157794761Y-179858095D01*
X157747142Y-179810476D01*
X157175714Y-181286666D02*
X157842380Y-181286666D01*
X156794761Y-181048571D02*
X157509047Y-180810476D01*
X157509047Y-181429523D01*
X160223630Y-178905714D02*
X159223630Y-178905714D01*
X159223630Y-179143809D01*
X159271250Y-179286666D01*
X159366488Y-179381904D01*
X159461726Y-179429523D01*
X159652202Y-179477142D01*
X159795059Y-179477142D01*
X159985535Y-179429523D01*
X160080773Y-179381904D01*
X160176011Y-179286666D01*
X160223630Y-179143809D01*
X160223630Y-178905714D01*
X159223630Y-179810476D02*
X159223630Y-180429523D01*
X159604583Y-180096190D01*
X159604583Y-180239047D01*
X159652202Y-180334285D01*
X159699821Y-180381904D01*
X159795059Y-180429523D01*
X160033154Y-180429523D01*
X160128392Y-180381904D01*
X160176011Y-180334285D01*
X160223630Y-180239047D01*
X160223630Y-179953333D01*
X160176011Y-179858095D01*
X160128392Y-179810476D01*
X159223630Y-180762857D02*
X159223630Y-181381904D01*
X159604583Y-181048571D01*
X159604583Y-181191428D01*
X159652202Y-181286666D01*
X159699821Y-181334285D01*
X159795059Y-181381904D01*
X160033154Y-181381904D01*
X160128392Y-181334285D01*
X160176011Y-181286666D01*
X160223630Y-181191428D01*
X160223630Y-180905714D01*
X160176011Y-180810476D01*
X160128392Y-180762857D01*
X162604880Y-178905714D02*
X161604880Y-178905714D01*
X161604880Y-179143809D01*
X161652500Y-179286666D01*
X161747738Y-179381904D01*
X161842976Y-179429523D01*
X162033452Y-179477142D01*
X162176309Y-179477142D01*
X162366785Y-179429523D01*
X162462023Y-179381904D01*
X162557261Y-179286666D01*
X162604880Y-179143809D01*
X162604880Y-178905714D01*
X161604880Y-179810476D02*
X161604880Y-180429523D01*
X161985833Y-180096190D01*
X161985833Y-180239047D01*
X162033452Y-180334285D01*
X162081071Y-180381904D01*
X162176309Y-180429523D01*
X162414404Y-180429523D01*
X162509642Y-180381904D01*
X162557261Y-180334285D01*
X162604880Y-180239047D01*
X162604880Y-179953333D01*
X162557261Y-179858095D01*
X162509642Y-179810476D01*
X161700119Y-180810476D02*
X161652500Y-180858095D01*
X161604880Y-180953333D01*
X161604880Y-181191428D01*
X161652500Y-181286666D01*
X161700119Y-181334285D01*
X161795357Y-181381904D01*
X161890595Y-181381904D01*
X162033452Y-181334285D01*
X162604880Y-180762857D01*
X162604880Y-181381904D01*
X164986130Y-178905714D02*
X163986130Y-178905714D01*
X163986130Y-179143809D01*
X164033750Y-179286666D01*
X164128988Y-179381904D01*
X164224226Y-179429523D01*
X164414702Y-179477142D01*
X164557559Y-179477142D01*
X164748035Y-179429523D01*
X164843273Y-179381904D01*
X164938511Y-179286666D01*
X164986130Y-179143809D01*
X164986130Y-178905714D01*
X163986130Y-179810476D02*
X163986130Y-180429523D01*
X164367083Y-180096190D01*
X164367083Y-180239047D01*
X164414702Y-180334285D01*
X164462321Y-180381904D01*
X164557559Y-180429523D01*
X164795654Y-180429523D01*
X164890892Y-180381904D01*
X164938511Y-180334285D01*
X164986130Y-180239047D01*
X164986130Y-179953333D01*
X164938511Y-179858095D01*
X164890892Y-179810476D01*
X164986130Y-181381904D02*
X164986130Y-180810476D01*
X164986130Y-181096190D02*
X163986130Y-181096190D01*
X164128988Y-181000952D01*
X164224226Y-180905714D01*
X164271845Y-180810476D01*
X201683630Y-206748214D02*
X200683630Y-206748214D01*
X200683630Y-206986309D01*
X200731250Y-207129166D01*
X200826488Y-207224404D01*
X200921726Y-207272023D01*
X201112202Y-207319642D01*
X201255059Y-207319642D01*
X201445535Y-207272023D01*
X201540773Y-207224404D01*
X201636011Y-207129166D01*
X201683630Y-206986309D01*
X201683630Y-206748214D01*
X200683630Y-207652976D02*
X200683630Y-208272023D01*
X201064583Y-207938690D01*
X201064583Y-208081547D01*
X201112202Y-208176785D01*
X201159821Y-208224404D01*
X201255059Y-208272023D01*
X201493154Y-208272023D01*
X201588392Y-208224404D01*
X201636011Y-208176785D01*
X201683630Y-208081547D01*
X201683630Y-207795833D01*
X201636011Y-207700595D01*
X201588392Y-207652976D01*
X200683630Y-208891071D02*
X200683630Y-208986309D01*
X200731250Y-209081547D01*
X200778869Y-209129166D01*
X200874107Y-209176785D01*
X201064583Y-209224404D01*
X201302678Y-209224404D01*
X201493154Y-209176785D01*
X201588392Y-209129166D01*
X201636011Y-209081547D01*
X201683630Y-208986309D01*
X201683630Y-208891071D01*
X201636011Y-208795833D01*
X201588392Y-208748214D01*
X201493154Y-208700595D01*
X201302678Y-208652976D01*
X201064583Y-208652976D01*
X200874107Y-208700595D01*
X200778869Y-208748214D01*
X200731250Y-208795833D01*
X200683630Y-208891071D01*
X199302380Y-206748214D02*
X198302380Y-206748214D01*
X198302380Y-206986309D01*
X198350000Y-207129166D01*
X198445238Y-207224404D01*
X198540476Y-207272023D01*
X198730952Y-207319642D01*
X198873809Y-207319642D01*
X199064285Y-207272023D01*
X199159523Y-207224404D01*
X199254761Y-207129166D01*
X199302380Y-206986309D01*
X199302380Y-206748214D01*
X198397619Y-207700595D02*
X198350000Y-207748214D01*
X198302380Y-207843452D01*
X198302380Y-208081547D01*
X198350000Y-208176785D01*
X198397619Y-208224404D01*
X198492857Y-208272023D01*
X198588095Y-208272023D01*
X198730952Y-208224404D01*
X199302380Y-207652976D01*
X199302380Y-208272023D01*
X199302380Y-208748214D02*
X199302380Y-208938690D01*
X199254761Y-209033928D01*
X199207142Y-209081547D01*
X199064285Y-209176785D01*
X198873809Y-209224404D01*
X198492857Y-209224404D01*
X198397619Y-209176785D01*
X198350000Y-209129166D01*
X198302380Y-209033928D01*
X198302380Y-208843452D01*
X198350000Y-208748214D01*
X198397619Y-208700595D01*
X198492857Y-208652976D01*
X198730952Y-208652976D01*
X198826190Y-208700595D01*
X198873809Y-208748214D01*
X198921428Y-208843452D01*
X198921428Y-209033928D01*
X198873809Y-209129166D01*
X198826190Y-209176785D01*
X198730952Y-209224404D01*
X192158630Y-206748214D02*
X191158630Y-206748214D01*
X191158630Y-206986309D01*
X191206250Y-207129166D01*
X191301488Y-207224404D01*
X191396726Y-207272023D01*
X191587202Y-207319642D01*
X191730059Y-207319642D01*
X191920535Y-207272023D01*
X192015773Y-207224404D01*
X192111011Y-207129166D01*
X192158630Y-206986309D01*
X192158630Y-206748214D01*
X191253869Y-207700595D02*
X191206250Y-207748214D01*
X191158630Y-207843452D01*
X191158630Y-208081547D01*
X191206250Y-208176785D01*
X191253869Y-208224404D01*
X191349107Y-208272023D01*
X191444345Y-208272023D01*
X191587202Y-208224404D01*
X192158630Y-207652976D01*
X192158630Y-208272023D01*
X191587202Y-208843452D02*
X191539583Y-208748214D01*
X191491964Y-208700595D01*
X191396726Y-208652976D01*
X191349107Y-208652976D01*
X191253869Y-208700595D01*
X191206250Y-208748214D01*
X191158630Y-208843452D01*
X191158630Y-209033928D01*
X191206250Y-209129166D01*
X191253869Y-209176785D01*
X191349107Y-209224404D01*
X191396726Y-209224404D01*
X191491964Y-209176785D01*
X191539583Y-209129166D01*
X191587202Y-209033928D01*
X191587202Y-208843452D01*
X191634821Y-208748214D01*
X191682440Y-208700595D01*
X191777678Y-208652976D01*
X191968154Y-208652976D01*
X192063392Y-208700595D01*
X192111011Y-208748214D01*
X192158630Y-208843452D01*
X192158630Y-209033928D01*
X192111011Y-209129166D01*
X192063392Y-209176785D01*
X191968154Y-209224404D01*
X191777678Y-209224404D01*
X191682440Y-209176785D01*
X191634821Y-209129166D01*
X191587202Y-209033928D01*
X172448630Y-194629464D02*
X171448630Y-194629464D01*
X171448630Y-194867559D01*
X171496250Y-195010416D01*
X171591488Y-195105654D01*
X171686726Y-195153273D01*
X171877202Y-195200892D01*
X172020059Y-195200892D01*
X172210535Y-195153273D01*
X172305773Y-195105654D01*
X172401011Y-195010416D01*
X172448630Y-194867559D01*
X172448630Y-194629464D01*
X171543869Y-195581845D02*
X171496250Y-195629464D01*
X171448630Y-195724702D01*
X171448630Y-195962797D01*
X171496250Y-196058035D01*
X171543869Y-196105654D01*
X171639107Y-196153273D01*
X171734345Y-196153273D01*
X171877202Y-196105654D01*
X172448630Y-195534226D01*
X172448630Y-196153273D01*
X171448630Y-196486607D02*
X171448630Y-197153273D01*
X172448630Y-196724702D01*
X167367380Y-178905714D02*
X166367380Y-178905714D01*
X166367380Y-179143809D01*
X166415000Y-179286666D01*
X166510238Y-179381904D01*
X166605476Y-179429523D01*
X166795952Y-179477142D01*
X166938809Y-179477142D01*
X167129285Y-179429523D01*
X167224523Y-179381904D01*
X167319761Y-179286666D01*
X167367380Y-179143809D01*
X167367380Y-178905714D01*
X166462619Y-179858095D02*
X166415000Y-179905714D01*
X166367380Y-180000952D01*
X166367380Y-180239047D01*
X166415000Y-180334285D01*
X166462619Y-180381904D01*
X166557857Y-180429523D01*
X166653095Y-180429523D01*
X166795952Y-180381904D01*
X167367380Y-179810476D01*
X167367380Y-180429523D01*
X166367380Y-181286666D02*
X166367380Y-181096190D01*
X166415000Y-181000952D01*
X166462619Y-180953333D01*
X166605476Y-180858095D01*
X166795952Y-180810476D01*
X167176904Y-180810476D01*
X167272142Y-180858095D01*
X167319761Y-180905714D01*
X167367380Y-181000952D01*
X167367380Y-181191428D01*
X167319761Y-181286666D01*
X167272142Y-181334285D01*
X167176904Y-181381904D01*
X166938809Y-181381904D01*
X166843571Y-181334285D01*
X166795952Y-181286666D01*
X166748333Y-181191428D01*
X166748333Y-181000952D01*
X166795952Y-180905714D01*
X166843571Y-180858095D01*
X166938809Y-180810476D01*
X160542380Y-194629464D02*
X159542380Y-194629464D01*
X159542380Y-194867559D01*
X159590000Y-195010416D01*
X159685238Y-195105654D01*
X159780476Y-195153273D01*
X159970952Y-195200892D01*
X160113809Y-195200892D01*
X160304285Y-195153273D01*
X160399523Y-195105654D01*
X160494761Y-195010416D01*
X160542380Y-194867559D01*
X160542380Y-194629464D01*
X159637619Y-195581845D02*
X159590000Y-195629464D01*
X159542380Y-195724702D01*
X159542380Y-195962797D01*
X159590000Y-196058035D01*
X159637619Y-196105654D01*
X159732857Y-196153273D01*
X159828095Y-196153273D01*
X159970952Y-196105654D01*
X160542380Y-195534226D01*
X160542380Y-196153273D01*
X159875714Y-197010416D02*
X160542380Y-197010416D01*
X159494761Y-196772321D02*
X160209047Y-196534226D01*
X160209047Y-197153273D01*
X155461130Y-178905714D02*
X154461130Y-178905714D01*
X154461130Y-179143809D01*
X154508750Y-179286666D01*
X154603988Y-179381904D01*
X154699226Y-179429523D01*
X154889702Y-179477142D01*
X155032559Y-179477142D01*
X155223035Y-179429523D01*
X155318273Y-179381904D01*
X155413511Y-179286666D01*
X155461130Y-179143809D01*
X155461130Y-178905714D01*
X154556369Y-179858095D02*
X154508750Y-179905714D01*
X154461130Y-180000952D01*
X154461130Y-180239047D01*
X154508750Y-180334285D01*
X154556369Y-180381904D01*
X154651607Y-180429523D01*
X154746845Y-180429523D01*
X154889702Y-180381904D01*
X155461130Y-179810476D01*
X155461130Y-180429523D01*
X154461130Y-180762857D02*
X154461130Y-181381904D01*
X154842083Y-181048571D01*
X154842083Y-181191428D01*
X154889702Y-181286666D01*
X154937321Y-181334285D01*
X155032559Y-181381904D01*
X155270654Y-181381904D01*
X155365892Y-181334285D01*
X155413511Y-181286666D01*
X155461130Y-181191428D01*
X155461130Y-180905714D01*
X155413511Y-180810476D01*
X155365892Y-180762857D01*
X120721130Y-206748214D02*
X119721130Y-206748214D01*
X119721130Y-206986309D01*
X119768750Y-207129166D01*
X119863988Y-207224404D01*
X119959226Y-207272023D01*
X120149702Y-207319642D01*
X120292559Y-207319642D01*
X120483035Y-207272023D01*
X120578273Y-207224404D01*
X120673511Y-207129166D01*
X120721130Y-206986309D01*
X120721130Y-206748214D01*
X119816369Y-207700595D02*
X119768750Y-207748214D01*
X119721130Y-207843452D01*
X119721130Y-208081547D01*
X119768750Y-208176785D01*
X119816369Y-208224404D01*
X119911607Y-208272023D01*
X120006845Y-208272023D01*
X120149702Y-208224404D01*
X120721130Y-207652976D01*
X120721130Y-208272023D01*
X119816369Y-208652976D02*
X119768750Y-208700595D01*
X119721130Y-208795833D01*
X119721130Y-209033928D01*
X119768750Y-209129166D01*
X119816369Y-209176785D01*
X119911607Y-209224404D01*
X120006845Y-209224404D01*
X120149702Y-209176785D01*
X120721130Y-208605357D01*
X120721130Y-209224404D01*
X136362380Y-199163214D02*
X135362380Y-199163214D01*
X135362380Y-199401309D01*
X135410000Y-199544166D01*
X135505238Y-199639404D01*
X135600476Y-199687023D01*
X135790952Y-199734642D01*
X135933809Y-199734642D01*
X136124285Y-199687023D01*
X136219523Y-199639404D01*
X136314761Y-199544166D01*
X136362380Y-199401309D01*
X136362380Y-199163214D01*
X135457619Y-200115595D02*
X135410000Y-200163214D01*
X135362380Y-200258452D01*
X135362380Y-200496547D01*
X135410000Y-200591785D01*
X135457619Y-200639404D01*
X135552857Y-200687023D01*
X135648095Y-200687023D01*
X135790952Y-200639404D01*
X136362380Y-200067976D01*
X136362380Y-200687023D01*
X136362380Y-201639404D02*
X136362380Y-201067976D01*
X136362380Y-201353690D02*
X135362380Y-201353690D01*
X135505238Y-201258452D01*
X135600476Y-201163214D01*
X135648095Y-201067976D01*
X140923630Y-178978214D02*
X139923630Y-178978214D01*
X139923630Y-179216309D01*
X139971250Y-179359166D01*
X140066488Y-179454404D01*
X140161726Y-179502023D01*
X140352202Y-179549642D01*
X140495059Y-179549642D01*
X140685535Y-179502023D01*
X140780773Y-179454404D01*
X140876011Y-179359166D01*
X140923630Y-179216309D01*
X140923630Y-178978214D01*
X140018869Y-179930595D02*
X139971250Y-179978214D01*
X139923630Y-180073452D01*
X139923630Y-180311547D01*
X139971250Y-180406785D01*
X140018869Y-180454404D01*
X140114107Y-180502023D01*
X140209345Y-180502023D01*
X140352202Y-180454404D01*
X140923630Y-179882976D01*
X140923630Y-180502023D01*
X139923630Y-181121071D02*
X139923630Y-181216309D01*
X139971250Y-181311547D01*
X140018869Y-181359166D01*
X140114107Y-181406785D01*
X140304583Y-181454404D01*
X140542678Y-181454404D01*
X140733154Y-181406785D01*
X140828392Y-181359166D01*
X140876011Y-181311547D01*
X140923630Y-181216309D01*
X140923630Y-181121071D01*
X140876011Y-181025833D01*
X140828392Y-180978214D01*
X140733154Y-180930595D01*
X140542678Y-180882976D01*
X140304583Y-180882976D01*
X140114107Y-180930595D01*
X140018869Y-180978214D01*
X139971250Y-181025833D01*
X139923630Y-181121071D01*
X99289880Y-206748214D02*
X98289880Y-206748214D01*
X98289880Y-206986309D01*
X98337500Y-207129166D01*
X98432738Y-207224404D01*
X98527976Y-207272023D01*
X98718452Y-207319642D01*
X98861309Y-207319642D01*
X99051785Y-207272023D01*
X99147023Y-207224404D01*
X99242261Y-207129166D01*
X99289880Y-206986309D01*
X99289880Y-206748214D01*
X99289880Y-208272023D02*
X99289880Y-207700595D01*
X99289880Y-207986309D02*
X98289880Y-207986309D01*
X98432738Y-207891071D01*
X98527976Y-207795833D01*
X98575595Y-207700595D01*
X99289880Y-208748214D02*
X99289880Y-208938690D01*
X99242261Y-209033928D01*
X99194642Y-209081547D01*
X99051785Y-209176785D01*
X98861309Y-209224404D01*
X98480357Y-209224404D01*
X98385119Y-209176785D01*
X98337500Y-209129166D01*
X98289880Y-209033928D01*
X98289880Y-208843452D01*
X98337500Y-208748214D01*
X98385119Y-208700595D01*
X98480357Y-208652976D01*
X98718452Y-208652976D01*
X98813690Y-208700595D01*
X98861309Y-208748214D01*
X98908928Y-208843452D01*
X98908928Y-209033928D01*
X98861309Y-209129166D01*
X98813690Y-209176785D01*
X98718452Y-209224404D01*
X101671130Y-206748214D02*
X100671130Y-206748214D01*
X100671130Y-206986309D01*
X100718750Y-207129166D01*
X100813988Y-207224404D01*
X100909226Y-207272023D01*
X101099702Y-207319642D01*
X101242559Y-207319642D01*
X101433035Y-207272023D01*
X101528273Y-207224404D01*
X101623511Y-207129166D01*
X101671130Y-206986309D01*
X101671130Y-206748214D01*
X101671130Y-208272023D02*
X101671130Y-207700595D01*
X101671130Y-207986309D02*
X100671130Y-207986309D01*
X100813988Y-207891071D01*
X100909226Y-207795833D01*
X100956845Y-207700595D01*
X101099702Y-208843452D02*
X101052083Y-208748214D01*
X101004464Y-208700595D01*
X100909226Y-208652976D01*
X100861607Y-208652976D01*
X100766369Y-208700595D01*
X100718750Y-208748214D01*
X100671130Y-208843452D01*
X100671130Y-209033928D01*
X100718750Y-209129166D01*
X100766369Y-209176785D01*
X100861607Y-209224404D01*
X100909226Y-209224404D01*
X101004464Y-209176785D01*
X101052083Y-209129166D01*
X101099702Y-209033928D01*
X101099702Y-208843452D01*
X101147321Y-208748214D01*
X101194940Y-208700595D01*
X101290178Y-208652976D01*
X101480654Y-208652976D01*
X101575892Y-208700595D01*
X101623511Y-208748214D01*
X101671130Y-208843452D01*
X101671130Y-209033928D01*
X101623511Y-209129166D01*
X101575892Y-209176785D01*
X101480654Y-209224404D01*
X101290178Y-209224404D01*
X101194940Y-209176785D01*
X101147321Y-209129166D01*
X101099702Y-209033928D01*
X108802380Y-206748214D02*
X107802380Y-206748214D01*
X107802380Y-206986309D01*
X107850000Y-207129166D01*
X107945238Y-207224404D01*
X108040476Y-207272023D01*
X108230952Y-207319642D01*
X108373809Y-207319642D01*
X108564285Y-207272023D01*
X108659523Y-207224404D01*
X108754761Y-207129166D01*
X108802380Y-206986309D01*
X108802380Y-206748214D01*
X108802380Y-208272023D02*
X108802380Y-207700595D01*
X108802380Y-207986309D02*
X107802380Y-207986309D01*
X107945238Y-207891071D01*
X108040476Y-207795833D01*
X108088095Y-207700595D01*
X107802380Y-208605357D02*
X107802380Y-209272023D01*
X108802380Y-208843452D01*
X124456130Y-199163214D02*
X123456130Y-199163214D01*
X123456130Y-199401309D01*
X123503750Y-199544166D01*
X123598988Y-199639404D01*
X123694226Y-199687023D01*
X123884702Y-199734642D01*
X124027559Y-199734642D01*
X124218035Y-199687023D01*
X124313273Y-199639404D01*
X124408511Y-199544166D01*
X124456130Y-199401309D01*
X124456130Y-199163214D01*
X124456130Y-200687023D02*
X124456130Y-200115595D01*
X124456130Y-200401309D02*
X123456130Y-200401309D01*
X123598988Y-200306071D01*
X123694226Y-200210833D01*
X123741845Y-200115595D01*
X123456130Y-201544166D02*
X123456130Y-201353690D01*
X123503750Y-201258452D01*
X123551369Y-201210833D01*
X123694226Y-201115595D01*
X123884702Y-201067976D01*
X124265654Y-201067976D01*
X124360892Y-201115595D01*
X124408511Y-201163214D01*
X124456130Y-201258452D01*
X124456130Y-201448928D01*
X124408511Y-201544166D01*
X124360892Y-201591785D01*
X124265654Y-201639404D01*
X124027559Y-201639404D01*
X123932321Y-201591785D01*
X123884702Y-201544166D01*
X123837083Y-201448928D01*
X123837083Y-201258452D01*
X123884702Y-201163214D01*
X123932321Y-201115595D01*
X124027559Y-201067976D01*
X129017380Y-178978214D02*
X128017380Y-178978214D01*
X128017380Y-179216309D01*
X128065000Y-179359166D01*
X128160238Y-179454404D01*
X128255476Y-179502023D01*
X128445952Y-179549642D01*
X128588809Y-179549642D01*
X128779285Y-179502023D01*
X128874523Y-179454404D01*
X128969761Y-179359166D01*
X129017380Y-179216309D01*
X129017380Y-178978214D01*
X129017380Y-180502023D02*
X129017380Y-179930595D01*
X129017380Y-180216309D02*
X128017380Y-180216309D01*
X128160238Y-180121071D01*
X128255476Y-180025833D01*
X128303095Y-179930595D01*
X128017380Y-181406785D02*
X128017380Y-180930595D01*
X128493571Y-180882976D01*
X128445952Y-180930595D01*
X128398333Y-181025833D01*
X128398333Y-181263928D01*
X128445952Y-181359166D01*
X128493571Y-181406785D01*
X128588809Y-181454404D01*
X128826904Y-181454404D01*
X128922142Y-181406785D01*
X128969761Y-181359166D01*
X129017380Y-181263928D01*
X129017380Y-181025833D01*
X128969761Y-180930595D01*
X128922142Y-180882976D01*
X104052380Y-206748214D02*
X103052380Y-206748214D01*
X103052380Y-206986309D01*
X103100000Y-207129166D01*
X103195238Y-207224404D01*
X103290476Y-207272023D01*
X103480952Y-207319642D01*
X103623809Y-207319642D01*
X103814285Y-207272023D01*
X103909523Y-207224404D01*
X104004761Y-207129166D01*
X104052380Y-206986309D01*
X104052380Y-206748214D01*
X104052380Y-208272023D02*
X104052380Y-207700595D01*
X104052380Y-207986309D02*
X103052380Y-207986309D01*
X103195238Y-207891071D01*
X103290476Y-207795833D01*
X103338095Y-207700595D01*
X103385714Y-209129166D02*
X104052380Y-209129166D01*
X103004761Y-208891071D02*
X103719047Y-208652976D01*
X103719047Y-209272023D01*
X106433630Y-206748214D02*
X105433630Y-206748214D01*
X105433630Y-206986309D01*
X105481250Y-207129166D01*
X105576488Y-207224404D01*
X105671726Y-207272023D01*
X105862202Y-207319642D01*
X106005059Y-207319642D01*
X106195535Y-207272023D01*
X106290773Y-207224404D01*
X106386011Y-207129166D01*
X106433630Y-206986309D01*
X106433630Y-206748214D01*
X106433630Y-208272023D02*
X106433630Y-207700595D01*
X106433630Y-207986309D02*
X105433630Y-207986309D01*
X105576488Y-207891071D01*
X105671726Y-207795833D01*
X105719345Y-207700595D01*
X105433630Y-208605357D02*
X105433630Y-209224404D01*
X105814583Y-208891071D01*
X105814583Y-209033928D01*
X105862202Y-209129166D01*
X105909821Y-209176785D01*
X106005059Y-209224404D01*
X106243154Y-209224404D01*
X106338392Y-209176785D01*
X106386011Y-209129166D01*
X106433630Y-209033928D01*
X106433630Y-208748214D01*
X106386011Y-208652976D01*
X106338392Y-208605357D01*
X118339880Y-206748214D02*
X117339880Y-206748214D01*
X117339880Y-206986309D01*
X117387500Y-207129166D01*
X117482738Y-207224404D01*
X117577976Y-207272023D01*
X117768452Y-207319642D01*
X117911309Y-207319642D01*
X118101785Y-207272023D01*
X118197023Y-207224404D01*
X118292261Y-207129166D01*
X118339880Y-206986309D01*
X118339880Y-206748214D01*
X118339880Y-208272023D02*
X118339880Y-207700595D01*
X118339880Y-207986309D02*
X117339880Y-207986309D01*
X117482738Y-207891071D01*
X117577976Y-207795833D01*
X117625595Y-207700595D01*
X117435119Y-208652976D02*
X117387500Y-208700595D01*
X117339880Y-208795833D01*
X117339880Y-209033928D01*
X117387500Y-209129166D01*
X117435119Y-209176785D01*
X117530357Y-209224404D01*
X117625595Y-209224404D01*
X117768452Y-209176785D01*
X118339880Y-208605357D01*
X118339880Y-209224404D01*
X115958630Y-206748214D02*
X114958630Y-206748214D01*
X114958630Y-206986309D01*
X115006250Y-207129166D01*
X115101488Y-207224404D01*
X115196726Y-207272023D01*
X115387202Y-207319642D01*
X115530059Y-207319642D01*
X115720535Y-207272023D01*
X115815773Y-207224404D01*
X115911011Y-207129166D01*
X115958630Y-206986309D01*
X115958630Y-206748214D01*
X115958630Y-208272023D02*
X115958630Y-207700595D01*
X115958630Y-207986309D02*
X114958630Y-207986309D01*
X115101488Y-207891071D01*
X115196726Y-207795833D01*
X115244345Y-207700595D01*
X115958630Y-209224404D02*
X115958630Y-208652976D01*
X115958630Y-208938690D02*
X114958630Y-208938690D01*
X115101488Y-208843452D01*
X115196726Y-208748214D01*
X115244345Y-208652976D01*
X113577380Y-206748214D02*
X112577380Y-206748214D01*
X112577380Y-206986309D01*
X112625000Y-207129166D01*
X112720238Y-207224404D01*
X112815476Y-207272023D01*
X113005952Y-207319642D01*
X113148809Y-207319642D01*
X113339285Y-207272023D01*
X113434523Y-207224404D01*
X113529761Y-207129166D01*
X113577380Y-206986309D01*
X113577380Y-206748214D01*
X113577380Y-208272023D02*
X113577380Y-207700595D01*
X113577380Y-207986309D02*
X112577380Y-207986309D01*
X112720238Y-207891071D01*
X112815476Y-207795833D01*
X112863095Y-207700595D01*
X112577380Y-208891071D02*
X112577380Y-208986309D01*
X112625000Y-209081547D01*
X112672619Y-209129166D01*
X112767857Y-209176785D01*
X112958333Y-209224404D01*
X113196428Y-209224404D01*
X113386904Y-209176785D01*
X113482142Y-209129166D01*
X113529761Y-209081547D01*
X113577380Y-208986309D01*
X113577380Y-208891071D01*
X113529761Y-208795833D01*
X113482142Y-208748214D01*
X113386904Y-208700595D01*
X113196428Y-208652976D01*
X112958333Y-208652976D01*
X112767857Y-208700595D01*
X112672619Y-208748214D01*
X112625000Y-208795833D01*
X112577380Y-208891071D01*
X111196130Y-207224404D02*
X110196130Y-207224404D01*
X110196130Y-207462500D01*
X110243750Y-207605357D01*
X110338988Y-207700595D01*
X110434226Y-207748214D01*
X110624702Y-207795833D01*
X110767559Y-207795833D01*
X110958035Y-207748214D01*
X111053273Y-207700595D01*
X111148511Y-207605357D01*
X111196130Y-207462500D01*
X111196130Y-207224404D01*
X111196130Y-208272023D02*
X111196130Y-208462500D01*
X111148511Y-208557738D01*
X111100892Y-208605357D01*
X110958035Y-208700595D01*
X110767559Y-208748214D01*
X110386607Y-208748214D01*
X110291369Y-208700595D01*
X110243750Y-208652976D01*
X110196130Y-208557738D01*
X110196130Y-208367261D01*
X110243750Y-208272023D01*
X110291369Y-208224404D01*
X110386607Y-208176785D01*
X110624702Y-208176785D01*
X110719940Y-208224404D01*
X110767559Y-208272023D01*
X110815178Y-208367261D01*
X110815178Y-208557738D01*
X110767559Y-208652976D01*
X110719940Y-208700595D01*
X110624702Y-208748214D01*
X133981130Y-199639404D02*
X132981130Y-199639404D01*
X132981130Y-199877500D01*
X133028750Y-200020357D01*
X133123988Y-200115595D01*
X133219226Y-200163214D01*
X133409702Y-200210833D01*
X133552559Y-200210833D01*
X133743035Y-200163214D01*
X133838273Y-200115595D01*
X133933511Y-200020357D01*
X133981130Y-199877500D01*
X133981130Y-199639404D01*
X133409702Y-200782261D02*
X133362083Y-200687023D01*
X133314464Y-200639404D01*
X133219226Y-200591785D01*
X133171607Y-200591785D01*
X133076369Y-200639404D01*
X133028750Y-200687023D01*
X132981130Y-200782261D01*
X132981130Y-200972738D01*
X133028750Y-201067976D01*
X133076369Y-201115595D01*
X133171607Y-201163214D01*
X133219226Y-201163214D01*
X133314464Y-201115595D01*
X133362083Y-201067976D01*
X133409702Y-200972738D01*
X133409702Y-200782261D01*
X133457321Y-200687023D01*
X133504940Y-200639404D01*
X133600178Y-200591785D01*
X133790654Y-200591785D01*
X133885892Y-200639404D01*
X133933511Y-200687023D01*
X133981130Y-200782261D01*
X133981130Y-200972738D01*
X133933511Y-201067976D01*
X133885892Y-201115595D01*
X133790654Y-201163214D01*
X133600178Y-201163214D01*
X133504940Y-201115595D01*
X133457321Y-201067976D01*
X133409702Y-200972738D01*
X131599880Y-199639404D02*
X130599880Y-199639404D01*
X130599880Y-199877500D01*
X130647500Y-200020357D01*
X130742738Y-200115595D01*
X130837976Y-200163214D01*
X131028452Y-200210833D01*
X131171309Y-200210833D01*
X131361785Y-200163214D01*
X131457023Y-200115595D01*
X131552261Y-200020357D01*
X131599880Y-199877500D01*
X131599880Y-199639404D01*
X130599880Y-200544166D02*
X130599880Y-201210833D01*
X131599880Y-200782261D01*
X129218630Y-199639404D02*
X128218630Y-199639404D01*
X128218630Y-199877500D01*
X128266250Y-200020357D01*
X128361488Y-200115595D01*
X128456726Y-200163214D01*
X128647202Y-200210833D01*
X128790059Y-200210833D01*
X128980535Y-200163214D01*
X129075773Y-200115595D01*
X129171011Y-200020357D01*
X129218630Y-199877500D01*
X129218630Y-199639404D01*
X128218630Y-201067976D02*
X128218630Y-200877500D01*
X128266250Y-200782261D01*
X128313869Y-200734642D01*
X128456726Y-200639404D01*
X128647202Y-200591785D01*
X129028154Y-200591785D01*
X129123392Y-200639404D01*
X129171011Y-200687023D01*
X129218630Y-200782261D01*
X129218630Y-200972738D01*
X129171011Y-201067976D01*
X129123392Y-201115595D01*
X129028154Y-201163214D01*
X128790059Y-201163214D01*
X128694821Y-201115595D01*
X128647202Y-201067976D01*
X128599583Y-200972738D01*
X128599583Y-200782261D01*
X128647202Y-200687023D01*
X128694821Y-200639404D01*
X128790059Y-200591785D01*
X126837380Y-199639404D02*
X125837380Y-199639404D01*
X125837380Y-199877500D01*
X125885000Y-200020357D01*
X125980238Y-200115595D01*
X126075476Y-200163214D01*
X126265952Y-200210833D01*
X126408809Y-200210833D01*
X126599285Y-200163214D01*
X126694523Y-200115595D01*
X126789761Y-200020357D01*
X126837380Y-199877500D01*
X126837380Y-199639404D01*
X125837380Y-201115595D02*
X125837380Y-200639404D01*
X126313571Y-200591785D01*
X126265952Y-200639404D01*
X126218333Y-200734642D01*
X126218333Y-200972738D01*
X126265952Y-201067976D01*
X126313571Y-201115595D01*
X126408809Y-201163214D01*
X126646904Y-201163214D01*
X126742142Y-201115595D01*
X126789761Y-201067976D01*
X126837380Y-200972738D01*
X126837380Y-200734642D01*
X126789761Y-200639404D01*
X126742142Y-200591785D01*
X138542380Y-179454404D02*
X137542380Y-179454404D01*
X137542380Y-179692500D01*
X137590000Y-179835357D01*
X137685238Y-179930595D01*
X137780476Y-179978214D01*
X137970952Y-180025833D01*
X138113809Y-180025833D01*
X138304285Y-179978214D01*
X138399523Y-179930595D01*
X138494761Y-179835357D01*
X138542380Y-179692500D01*
X138542380Y-179454404D01*
X137875714Y-180882976D02*
X138542380Y-180882976D01*
X137494761Y-180644880D02*
X138209047Y-180406785D01*
X138209047Y-181025833D01*
X136161130Y-179454404D02*
X135161130Y-179454404D01*
X135161130Y-179692500D01*
X135208750Y-179835357D01*
X135303988Y-179930595D01*
X135399226Y-179978214D01*
X135589702Y-180025833D01*
X135732559Y-180025833D01*
X135923035Y-179978214D01*
X136018273Y-179930595D01*
X136113511Y-179835357D01*
X136161130Y-179692500D01*
X136161130Y-179454404D01*
X135161130Y-180359166D02*
X135161130Y-180978214D01*
X135542083Y-180644880D01*
X135542083Y-180787738D01*
X135589702Y-180882976D01*
X135637321Y-180930595D01*
X135732559Y-180978214D01*
X135970654Y-180978214D01*
X136065892Y-180930595D01*
X136113511Y-180882976D01*
X136161130Y-180787738D01*
X136161130Y-180502023D01*
X136113511Y-180406785D01*
X136065892Y-180359166D01*
X133779880Y-179454404D02*
X132779880Y-179454404D01*
X132779880Y-179692500D01*
X132827500Y-179835357D01*
X132922738Y-179930595D01*
X133017976Y-179978214D01*
X133208452Y-180025833D01*
X133351309Y-180025833D01*
X133541785Y-179978214D01*
X133637023Y-179930595D01*
X133732261Y-179835357D01*
X133779880Y-179692500D01*
X133779880Y-179454404D01*
X132875119Y-180406785D02*
X132827500Y-180454404D01*
X132779880Y-180549642D01*
X132779880Y-180787738D01*
X132827500Y-180882976D01*
X132875119Y-180930595D01*
X132970357Y-180978214D01*
X133065595Y-180978214D01*
X133208452Y-180930595D01*
X133779880Y-180359166D01*
X133779880Y-180978214D01*
X131398630Y-179454404D02*
X130398630Y-179454404D01*
X130398630Y-179692500D01*
X130446250Y-179835357D01*
X130541488Y-179930595D01*
X130636726Y-179978214D01*
X130827202Y-180025833D01*
X130970059Y-180025833D01*
X131160535Y-179978214D01*
X131255773Y-179930595D01*
X131351011Y-179835357D01*
X131398630Y-179692500D01*
X131398630Y-179454404D01*
X131398630Y-180978214D02*
X131398630Y-180406785D01*
X131398630Y-180692500D02*
X130398630Y-180692500D01*
X130541488Y-180597261D01*
X130636726Y-180502023D01*
X130684345Y-180406785D01*
M02*
