M48
; DRILL file {KiCad (5.1.4)-1} date 3/14/2023 2:36:20 PM
; FORMAT={-:-/ absolute / metric / decimal}
; #@! TF.CreationDate,2023-03-14T14:36:20-04:00
; #@! TF.GenerationSoftware,Kicad,Pcbnew,(5.1.4)-1
; #@! TF.FileFunction,Plated,1,2,PTH
FMAT,2
METRIC
T1C0.400
T2C0.600
T3C1.000
T4C1.270
%
G90
G05
T1
X57.9Y-180.2
X69.55Y-187.85
X88.9Y-189.706
X97.825Y-213.983
X98.044Y-214.884
X98.263Y-213.166
X98.701Y-215.792
X99.167Y-212.96
X99.219Y-201.612
X99.332Y-216.472
X101.6Y-204.787
X103.981Y-204.787
X106.362Y-204.787
X108.744Y-204.787
X111.125Y-204.787
X113.506Y-204.787
X115.887Y-204.787
X118.269Y-204.787
X130.556Y-228.092
X131.762Y-186.531
X131.762Y-188.912
X131.762Y-191.294
X131.762Y-193.675
X131.762Y-196.056
X133.096Y-225.806
X134.366Y-203.962
X136.906Y-200.914
X137.319Y-171.45
X137.319Y-173.831
X137.319Y-176.213
X137.319Y-178.594
X137.319Y-180.975
X137.668Y-210.566
X138.303Y-229.108
X138.684Y-221.107
X140.658Y-213.926
X140.658Y-213.926
X140.658Y-221.176
X140.99Y-199.076
X141.732Y-209.55
X141.732Y-209.55
X142.367Y-211.42
X142.494Y-194.622
X143.002Y-209.55
X143.002Y-209.55
X143.256Y-161.544
X143.256Y-161.544
X143.51Y-227.076
X143.889Y-169.873
X143.98Y-198.45
X144.272Y-225.063
X144.946Y-167.552
X145.484Y-206.11
X145.796Y-191.516
X146.224Y-205.505
X147.066Y-191.516
X147.779Y-211.787
X148.75Y-224.473
X148.844Y-226.06
X148.844Y-226.06
X149.003Y-222.689
X149.098Y-207.518
X149.098Y-207.518
X149.098Y-219.964
X149.352Y-204.978
X149.666Y-161.544
X150.622Y-162.052
X151.892Y-185.42
X151.892Y-210.312
X153.416Y-200.152
X153.67Y-213.487
X153.67Y-220.98
X154.656Y-197.074
X154.686Y-200.106
X155.448Y-213.614
X156.216Y-211.345
X157.162Y-171.45
X157.162Y-173.831
X157.162Y-176.213
X157.162Y-178.594
X157.162Y-180.975
X157.353Y-220.091
X159.428Y-193.559
X159.544Y-186.531
X159.544Y-188.912
X159.544Y-191.294
X159.544Y-196.056
X160.528Y-222.885
X177.8Y-203.994
X180.1Y-190.85
X180.15Y-192.45
X180.181Y-203.994
X182.562Y-203.994
X184.944Y-203.994
X187.283Y-203.952
X189.706Y-203.994
X191.516Y-221.488
X192.034Y-220.465
X192.532Y-219.456
X193.04Y-218.44
X193.542Y-217.433
X194.056Y-216.408
X198.824Y-187.874
X199.644Y-195.834
X201.612Y-200.819
T3
X113.133Y-143.97
X115.488Y-144.922
X117.843Y-145.873
X120.198Y-146.825
X106.594Y-160.284
X108.949Y-161.235
X111.304Y-162.187
X113.659Y-163.138
X241.528Y-182.311
X242.48Y-184.666
X243.431Y-187.021
X244.383Y-189.376
X146.659Y-172.638
X146.659Y-175.178
X146.659Y-177.718
X146.659Y-180.258
X81.907Y-211.166
X83.936Y-212.694
X85.964Y-214.223
X87.993Y-215.752
X187.1Y-180.5
X189.455Y-179.548
X191.81Y-178.597
X194.165Y-177.645
X205.515Y-215.598
X207.544Y-214.069
X209.572Y-212.541
X211.601Y-211.012
X191.717Y-226.026
X193.745Y-224.498
X195.774Y-222.969
X197.803Y-221.44
X110.834Y-228.461
X112.363Y-226.433
X113.892Y-224.404
X115.42Y-222.376
X177.808Y-222.177
X179.336Y-224.206
X180.865Y-226.234
X182.394Y-228.263
X49.541Y-189.568
X50.492Y-187.213
X51.444Y-184.858
X52.395Y-182.503
X95.743Y-221.501
X97.771Y-223.03
X99.8Y-224.558
X101.828Y-226.087
X99.779Y-176.284
X102.134Y-177.235
X104.489Y-178.187
X106.844Y-179.138
X180.6Y-164.0
X182.955Y-163.048
X185.31Y-162.097
X187.665Y-161.145
X172.994Y-146.691
X175.349Y-145.739
X177.704Y-144.788
X180.059Y-143.836
T4
X100.39Y-171.825
X104.239Y-175.645
X125.223Y-159.748
X129.072Y-163.568
X73.498Y-189.002
X77.347Y-192.822
X230.711Y-179.563
X236.134Y-179.637
X166.516Y-168.83
X171.939Y-168.904
X191.348Y-180.907
X196.771Y-180.981
X93.835Y-188.051
X97.684Y-191.871
X159.96Y-152.604
X165.383Y-152.678
X112.111Y-192.199
X115.961Y-196.019
X211.685Y-181.857
X217.108Y-181.931
X184.793Y-164.681
X190.215Y-164.755
X106.946Y-155.599
X110.795Y-159.419
X173.072Y-185.055
X178.494Y-185.129
X178.237Y-148.455
X183.66Y-148.529
X54.472Y-186.707
X58.321Y-190.527
X118.667Y-175.974
X122.516Y-179.794
T2
X143.0Y-154.332G85X143.0Y-155.132
G05
X143.0Y-158.352G85X143.0Y-159.452
G05
X151.64Y-154.332G85X151.64Y-155.132
G05
X151.64Y-158.352G85X151.64Y-159.452
G05
T0
M30
