G04 #@! TF.GenerationSoftware,KiCad,Pcbnew,(5.1.4)-1*
G04 #@! TF.CreationDate,2023-03-14T14:36:14-04:00*
G04 #@! TF.ProjectId,ThumbsUp,5468756d-6273-4557-902e-6b696361645f,rev?*
G04 #@! TF.SameCoordinates,Original*
G04 #@! TF.FileFunction,Legend,Bot*
G04 #@! TF.FilePolarity,Positive*
%FSLAX46Y46*%
G04 Gerber Fmt 4.6, Leading zero omitted, Abs format (unit mm)*
G04 Created by KiCad (PCBNEW (5.1.4)-1) date 2023-03-14 14:36:14*
%MOMM*%
%LPD*%
G04 APERTURE LIST*
%ADD10C,0.150000*%
%ADD11C,0.120000*%
%ADD12C,0.100000*%
%ADD13C,0.200000*%
%ADD14C,0.254000*%
G04 APERTURE END LIST*
D10*
X94813428Y-205676761D02*
X94813428Y-206438666D01*
X94527714Y-206914857D02*
X94813428Y-207676761D01*
X95099142Y-206914857D01*
X95527714Y-208391047D02*
X94099142Y-208391047D01*
X94813428Y-209105333D02*
X94813428Y-209867238D01*
X132778761Y-198048571D02*
X133540666Y-198048571D01*
X134016857Y-198334285D02*
X134778761Y-198048571D01*
X134016857Y-197762857D01*
X135493047Y-197334285D02*
X135493047Y-198762857D01*
X136207333Y-198048571D02*
X136969238Y-198048571D01*
X158559238Y-199207428D02*
X157797333Y-199207428D01*
X157321142Y-198921714D02*
X156559238Y-199207428D01*
X157321142Y-199493142D01*
X155844952Y-199921714D02*
X155844952Y-198493142D01*
X155130666Y-199207428D02*
X154368761Y-199207428D01*
X175585428Y-205676761D02*
X175585428Y-206438666D01*
X175299714Y-206914857D02*
X175585428Y-207676761D01*
X175871142Y-206914857D01*
X176299714Y-208391047D02*
X174871142Y-208391047D01*
X175585428Y-209105333D02*
X175585428Y-209867238D01*
X125311916Y-214103700D02*
X124740487Y-214103700D01*
X125026201Y-215103700D02*
X125026201Y-214103700D01*
X124407154Y-215103700D02*
X124407154Y-214103700D01*
X123978582Y-215103700D02*
X123978582Y-214579891D01*
X124026201Y-214484653D01*
X124121440Y-214437034D01*
X124264297Y-214437034D01*
X124359535Y-214484653D01*
X124407154Y-214532272D01*
X123073820Y-214437034D02*
X123073820Y-215103700D01*
X123502392Y-214437034D02*
X123502392Y-214960843D01*
X123454773Y-215056081D01*
X123359535Y-215103700D01*
X123216678Y-215103700D01*
X123121440Y-215056081D01*
X123073820Y-215008462D01*
X122597630Y-215103700D02*
X122597630Y-214437034D01*
X122597630Y-214532272D02*
X122550011Y-214484653D01*
X122454773Y-214437034D01*
X122311916Y-214437034D01*
X122216678Y-214484653D01*
X122169059Y-214579891D01*
X122169059Y-215103700D01*
X122169059Y-214579891D02*
X122121440Y-214484653D01*
X122026201Y-214437034D01*
X121883344Y-214437034D01*
X121788106Y-214484653D01*
X121740487Y-214579891D01*
X121740487Y-215103700D01*
X121264297Y-215103700D02*
X121264297Y-214103700D01*
X121264297Y-214484653D02*
X121169059Y-214437034D01*
X120978582Y-214437034D01*
X120883344Y-214484653D01*
X120835725Y-214532272D01*
X120788106Y-214627510D01*
X120788106Y-214913224D01*
X120835725Y-215008462D01*
X120883344Y-215056081D01*
X120978582Y-215103700D01*
X121169059Y-215103700D01*
X121264297Y-215056081D01*
X120407154Y-215056081D02*
X120311916Y-215103700D01*
X120121440Y-215103700D01*
X120026201Y-215056081D01*
X119978582Y-214960843D01*
X119978582Y-214913224D01*
X120026201Y-214817986D01*
X120121440Y-214770367D01*
X120264297Y-214770367D01*
X120359535Y-214722748D01*
X120407154Y-214627510D01*
X120407154Y-214579891D01*
X120359535Y-214484653D01*
X120264297Y-214437034D01*
X120121440Y-214437034D01*
X120026201Y-214484653D01*
X118788106Y-214103700D02*
X118788106Y-214913224D01*
X118740487Y-215008462D01*
X118692868Y-215056081D01*
X118597630Y-215103700D01*
X118407154Y-215103700D01*
X118311916Y-215056081D01*
X118264297Y-215008462D01*
X118216678Y-214913224D01*
X118216678Y-214103700D01*
X117740487Y-214437034D02*
X117740487Y-215437034D01*
X117740487Y-214484653D02*
X117645249Y-214437034D01*
X117454773Y-214437034D01*
X117359535Y-214484653D01*
X117311916Y-214532272D01*
X117264297Y-214627510D01*
X117264297Y-214913224D01*
X117311916Y-215008462D01*
X117359535Y-215056081D01*
X117454773Y-215103700D01*
X117645249Y-215103700D01*
X117740487Y-215056081D01*
X116835725Y-215008462D02*
X116788106Y-215056081D01*
X116835725Y-215103700D01*
X116883344Y-215056081D01*
X116835725Y-215008462D01*
X116835725Y-215103700D01*
X116835725Y-214722748D02*
X116883344Y-214151320D01*
X116835725Y-214103700D01*
X116788106Y-214151320D01*
X116835725Y-214722748D01*
X116835725Y-214103700D01*
X115597630Y-215103700D02*
X115597630Y-214103700D01*
X115597630Y-214484653D02*
X115502392Y-214437034D01*
X115311916Y-214437034D01*
X115216678Y-214484653D01*
X115169059Y-214532272D01*
X115121440Y-214627510D01*
X115121440Y-214913224D01*
X115169059Y-215008462D01*
X115216678Y-215056081D01*
X115311916Y-215103700D01*
X115502392Y-215103700D01*
X115597630Y-215056081D01*
X114788106Y-214437034D02*
X114550011Y-215103700D01*
X114311916Y-214437034D02*
X114550011Y-215103700D01*
X114645249Y-215341796D01*
X114692868Y-215389415D01*
X114788106Y-215437034D01*
X113216678Y-215056081D02*
X113073820Y-215103700D01*
X112835725Y-215103700D01*
X112740487Y-215056081D01*
X112692868Y-215008462D01*
X112645249Y-214913224D01*
X112645249Y-214817986D01*
X112692868Y-214722748D01*
X112740487Y-214675129D01*
X112835725Y-214627510D01*
X113026201Y-214579891D01*
X113121440Y-214532272D01*
X113169059Y-214484653D01*
X113216678Y-214389415D01*
X113216678Y-214294177D01*
X113169059Y-214198939D01*
X113121440Y-214151320D01*
X113026201Y-214103700D01*
X112788106Y-214103700D01*
X112645249Y-214151320D01*
X111788106Y-215103700D02*
X111788106Y-214579891D01*
X111835725Y-214484653D01*
X111930963Y-214437034D01*
X112121440Y-214437034D01*
X112216678Y-214484653D01*
X111788106Y-215056081D02*
X111883344Y-215103700D01*
X112121440Y-215103700D01*
X112216678Y-215056081D01*
X112264297Y-214960843D01*
X112264297Y-214865605D01*
X112216678Y-214770367D01*
X112121440Y-214722748D01*
X111883344Y-214722748D01*
X111788106Y-214675129D01*
X111359535Y-215056081D02*
X111264297Y-215103700D01*
X111073820Y-215103700D01*
X110978582Y-215056081D01*
X110930963Y-214960843D01*
X110930963Y-214913224D01*
X110978582Y-214817986D01*
X111073820Y-214770367D01*
X111216678Y-214770367D01*
X111311916Y-214722748D01*
X111359535Y-214627510D01*
X111359535Y-214579891D01*
X111311916Y-214484653D01*
X111216678Y-214437034D01*
X111073820Y-214437034D01*
X110978582Y-214484653D01*
X110502392Y-215103700D02*
X110502392Y-214103700D01*
X110073820Y-215103700D02*
X110073820Y-214579891D01*
X110121440Y-214484653D01*
X110216678Y-214437034D01*
X110359535Y-214437034D01*
X110454773Y-214484653D01*
X110502392Y-214532272D01*
X109169059Y-215103700D02*
X109169059Y-214579891D01*
X109216678Y-214484653D01*
X109311916Y-214437034D01*
X109502392Y-214437034D01*
X109597630Y-214484653D01*
X109169059Y-215056081D02*
X109264297Y-215103700D01*
X109502392Y-215103700D01*
X109597630Y-215056081D01*
X109645249Y-214960843D01*
X109645249Y-214865605D01*
X109597630Y-214770367D01*
X109502392Y-214722748D01*
X109264297Y-214722748D01*
X109169059Y-214675129D01*
X107930963Y-215103700D02*
X107930963Y-214103700D01*
X107359535Y-215103700D02*
X107788106Y-214532272D01*
X107359535Y-214103700D02*
X107930963Y-214675129D01*
X106502392Y-215103700D02*
X106502392Y-214579891D01*
X106550011Y-214484653D01*
X106645249Y-214437034D01*
X106835725Y-214437034D01*
X106930963Y-214484653D01*
X106502392Y-215056081D02*
X106597630Y-215103700D01*
X106835725Y-215103700D01*
X106930963Y-215056081D01*
X106978582Y-214960843D01*
X106978582Y-214865605D01*
X106930963Y-214770367D01*
X106835725Y-214722748D01*
X106597630Y-214722748D01*
X106502392Y-214675129D01*
X106026201Y-215103700D02*
X106026201Y-214437034D01*
X106026201Y-214627510D02*
X105978582Y-214532272D01*
X105930963Y-214484653D01*
X105835725Y-214437034D01*
X105740487Y-214437034D01*
X105407154Y-215103700D02*
X105407154Y-214437034D01*
X105407154Y-214532272D02*
X105359535Y-214484653D01*
X105264297Y-214437034D01*
X105121440Y-214437034D01*
X105026201Y-214484653D01*
X104978582Y-214579891D01*
X104978582Y-215103700D01*
X104978582Y-214579891D02*
X104930963Y-214484653D01*
X104835725Y-214437034D01*
X104692868Y-214437034D01*
X104597630Y-214484653D01*
X104550011Y-214579891D01*
X104550011Y-215103700D01*
X103645249Y-215103700D02*
X103645249Y-214579891D01*
X103692868Y-214484653D01*
X103788106Y-214437034D01*
X103978582Y-214437034D01*
X104073820Y-214484653D01*
X103645249Y-215056081D02*
X103740487Y-215103700D01*
X103978582Y-215103700D01*
X104073820Y-215056081D01*
X104121440Y-214960843D01*
X104121440Y-214865605D01*
X104073820Y-214770367D01*
X103978582Y-214722748D01*
X103740487Y-214722748D01*
X103645249Y-214675129D01*
X103169059Y-214437034D02*
X103169059Y-215103700D01*
X103169059Y-214532272D02*
X103121440Y-214484653D01*
X103026201Y-214437034D01*
X102883344Y-214437034D01*
X102788106Y-214484653D01*
X102740487Y-214579891D01*
X102740487Y-215103700D01*
X102121440Y-215103700D02*
X102216678Y-215056081D01*
X102264297Y-215008462D01*
X102311916Y-214913224D01*
X102311916Y-214627510D01*
X102264297Y-214532272D01*
X102216678Y-214484653D01*
X102121440Y-214437034D01*
X101978582Y-214437034D01*
X101883344Y-214484653D01*
X101835725Y-214532272D01*
X101788106Y-214627510D01*
X101788106Y-214913224D01*
X101835725Y-215008462D01*
X101883344Y-215056081D01*
X101978582Y-215103700D01*
X102121440Y-215103700D01*
X101454773Y-214437034D02*
X101216678Y-215103700D01*
X100978582Y-214437034D01*
X119430963Y-215753700D02*
X119240487Y-215753700D01*
X119145249Y-215801320D01*
X119050011Y-215896558D01*
X119002392Y-216087034D01*
X119002392Y-216420367D01*
X119050011Y-216610843D01*
X119145249Y-216706081D01*
X119240487Y-216753700D01*
X119430963Y-216753700D01*
X119526201Y-216706081D01*
X119621440Y-216610843D01*
X119669059Y-216420367D01*
X119669059Y-216087034D01*
X119621440Y-215896558D01*
X119526201Y-215801320D01*
X119430963Y-215753700D01*
X118145249Y-216706081D02*
X118240487Y-216753700D01*
X118430963Y-216753700D01*
X118526201Y-216706081D01*
X118573820Y-216658462D01*
X118621440Y-216563224D01*
X118621440Y-216277510D01*
X118573820Y-216182272D01*
X118526201Y-216134653D01*
X118430963Y-216087034D01*
X118240487Y-216087034D01*
X118145249Y-216134653D01*
X117859535Y-216087034D02*
X117478582Y-216087034D01*
X117716678Y-215753700D02*
X117716678Y-216610843D01*
X117669059Y-216706081D01*
X117573820Y-216753700D01*
X117478582Y-216753700D01*
X117002392Y-216753700D02*
X117097630Y-216706081D01*
X117145249Y-216658462D01*
X117192868Y-216563224D01*
X117192868Y-216277510D01*
X117145249Y-216182272D01*
X117097630Y-216134653D01*
X117002392Y-216087034D01*
X116859535Y-216087034D01*
X116764297Y-216134653D01*
X116716678Y-216182272D01*
X116669059Y-216277510D01*
X116669059Y-216563224D01*
X116716678Y-216658462D01*
X116764297Y-216706081D01*
X116859535Y-216753700D01*
X117002392Y-216753700D01*
X116240487Y-216753700D02*
X116240487Y-215753700D01*
X116240487Y-216134653D02*
X116145249Y-216087034D01*
X115954773Y-216087034D01*
X115859535Y-216134653D01*
X115811916Y-216182272D01*
X115764297Y-216277510D01*
X115764297Y-216563224D01*
X115811916Y-216658462D01*
X115859535Y-216706081D01*
X115954773Y-216753700D01*
X116145249Y-216753700D01*
X116240487Y-216706081D01*
X114954773Y-216706081D02*
X115050011Y-216753700D01*
X115240487Y-216753700D01*
X115335725Y-216706081D01*
X115383344Y-216610843D01*
X115383344Y-216229891D01*
X115335725Y-216134653D01*
X115240487Y-216087034D01*
X115050011Y-216087034D01*
X114954773Y-216134653D01*
X114907154Y-216229891D01*
X114907154Y-216325129D01*
X115383344Y-216420367D01*
X114478582Y-216753700D02*
X114478582Y-216087034D01*
X114478582Y-216277510D02*
X114430963Y-216182272D01*
X114383344Y-216134653D01*
X114288106Y-216087034D01*
X114192868Y-216087034D01*
X113145249Y-215848939D02*
X113097630Y-215801320D01*
X113002392Y-215753700D01*
X112764297Y-215753700D01*
X112669059Y-215801320D01*
X112621440Y-215848939D01*
X112573820Y-215944177D01*
X112573820Y-216039415D01*
X112621440Y-216182272D01*
X113192868Y-216753700D01*
X112573820Y-216753700D01*
X112002392Y-216182272D02*
X112097630Y-216134653D01*
X112145249Y-216087034D01*
X112192868Y-215991796D01*
X112192868Y-215944177D01*
X112145249Y-215848939D01*
X112097630Y-215801320D01*
X112002392Y-215753700D01*
X111811916Y-215753700D01*
X111716678Y-215801320D01*
X111669059Y-215848939D01*
X111621440Y-215944177D01*
X111621440Y-215991796D01*
X111669059Y-216087034D01*
X111716678Y-216134653D01*
X111811916Y-216182272D01*
X112002392Y-216182272D01*
X112097630Y-216229891D01*
X112145249Y-216277510D01*
X112192868Y-216372748D01*
X112192868Y-216563224D01*
X112145249Y-216658462D01*
X112097630Y-216706081D01*
X112002392Y-216753700D01*
X111811916Y-216753700D01*
X111716678Y-216706081D01*
X111669059Y-216658462D01*
X111621440Y-216563224D01*
X111621440Y-216372748D01*
X111669059Y-216277510D01*
X111716678Y-216229891D01*
X111811916Y-216182272D01*
X111145249Y-216706081D02*
X111145249Y-216753700D01*
X111192868Y-216848939D01*
X111240487Y-216896558D01*
X110002392Y-215848939D02*
X109954773Y-215801320D01*
X109859535Y-215753700D01*
X109621440Y-215753700D01*
X109526201Y-215801320D01*
X109478582Y-215848939D01*
X109430963Y-215944177D01*
X109430963Y-216039415D01*
X109478582Y-216182272D01*
X110050011Y-216753700D01*
X109430963Y-216753700D01*
X108811916Y-215753700D02*
X108716678Y-215753700D01*
X108621440Y-215801320D01*
X108573820Y-215848939D01*
X108526201Y-215944177D01*
X108478582Y-216134653D01*
X108478582Y-216372748D01*
X108526201Y-216563224D01*
X108573820Y-216658462D01*
X108621440Y-216706081D01*
X108716678Y-216753700D01*
X108811916Y-216753700D01*
X108907154Y-216706081D01*
X108954773Y-216658462D01*
X109002392Y-216563224D01*
X109050011Y-216372748D01*
X109050011Y-216134653D01*
X109002392Y-215944177D01*
X108954773Y-215848939D01*
X108907154Y-215801320D01*
X108811916Y-215753700D01*
X108097630Y-215848939D02*
X108050011Y-215801320D01*
X107954773Y-215753700D01*
X107716678Y-215753700D01*
X107621440Y-215801320D01*
X107573820Y-215848939D01*
X107526201Y-215944177D01*
X107526201Y-216039415D01*
X107573820Y-216182272D01*
X108145249Y-216753700D01*
X107526201Y-216753700D01*
X107145249Y-215848939D02*
X107097630Y-215801320D01*
X107002392Y-215753700D01*
X106764297Y-215753700D01*
X106669059Y-215801320D01*
X106621440Y-215848939D01*
X106573820Y-215944177D01*
X106573820Y-216039415D01*
X106621440Y-216182272D01*
X107192868Y-216753700D01*
X106573820Y-216753700D01*
X134621440Y-218403700D02*
X134621440Y-217403700D01*
X134192868Y-218403700D02*
X134192868Y-217879891D01*
X134240487Y-217784653D01*
X134335725Y-217737034D01*
X134478582Y-217737034D01*
X134573820Y-217784653D01*
X134621440Y-217832272D01*
X133859535Y-217737034D02*
X133478582Y-217737034D01*
X133716678Y-217403700D02*
X133716678Y-218260843D01*
X133669059Y-218356081D01*
X133573820Y-218403700D01*
X133478582Y-218403700D01*
X133288106Y-217737034D02*
X132907154Y-217737034D01*
X133145249Y-217403700D02*
X133145249Y-218260843D01*
X133097630Y-218356081D01*
X133002392Y-218403700D01*
X132907154Y-218403700D01*
X132573820Y-217737034D02*
X132573820Y-218737034D01*
X132573820Y-217784653D02*
X132478582Y-217737034D01*
X132288106Y-217737034D01*
X132192868Y-217784653D01*
X132145249Y-217832272D01*
X132097630Y-217927510D01*
X132097630Y-218213224D01*
X132145249Y-218308462D01*
X132192868Y-218356081D01*
X132288106Y-218403700D01*
X132478582Y-218403700D01*
X132573820Y-218356081D01*
X131716678Y-218356081D02*
X131621440Y-218403700D01*
X131430963Y-218403700D01*
X131335725Y-218356081D01*
X131288106Y-218260843D01*
X131288106Y-218213224D01*
X131335725Y-218117986D01*
X131430963Y-218070367D01*
X131573820Y-218070367D01*
X131669059Y-218022748D01*
X131716678Y-217927510D01*
X131716678Y-217879891D01*
X131669059Y-217784653D01*
X131573820Y-217737034D01*
X131430963Y-217737034D01*
X131335725Y-217784653D01*
X130859535Y-218308462D02*
X130811916Y-218356081D01*
X130859535Y-218403700D01*
X130907154Y-218356081D01*
X130859535Y-218308462D01*
X130859535Y-218403700D01*
X130859535Y-217784653D02*
X130811916Y-217832272D01*
X130859535Y-217879891D01*
X130907154Y-217832272D01*
X130859535Y-217784653D01*
X130859535Y-217879891D01*
X129669059Y-217356081D02*
X130526201Y-218641796D01*
X128621440Y-217356081D02*
X129478582Y-218641796D01*
X127859535Y-217737034D02*
X127859535Y-218546558D01*
X127907154Y-218641796D01*
X127954773Y-218689415D01*
X128050011Y-218737034D01*
X128192868Y-218737034D01*
X128288106Y-218689415D01*
X127859535Y-218356081D02*
X127954773Y-218403700D01*
X128145249Y-218403700D01*
X128240487Y-218356081D01*
X128288106Y-218308462D01*
X128335725Y-218213224D01*
X128335725Y-217927510D01*
X128288106Y-217832272D01*
X128240487Y-217784653D01*
X128145249Y-217737034D01*
X127954773Y-217737034D01*
X127859535Y-217784653D01*
X127383344Y-218403700D02*
X127383344Y-217737034D01*
X127383344Y-217403700D02*
X127430963Y-217451320D01*
X127383344Y-217498939D01*
X127335725Y-217451320D01*
X127383344Y-217403700D01*
X127383344Y-217498939D01*
X127050011Y-217737034D02*
X126669059Y-217737034D01*
X126907154Y-217403700D02*
X126907154Y-218260843D01*
X126859535Y-218356081D01*
X126764297Y-218403700D01*
X126669059Y-218403700D01*
X126335725Y-218403700D02*
X126335725Y-217403700D01*
X125907154Y-218403700D02*
X125907154Y-217879891D01*
X125954773Y-217784653D01*
X126050011Y-217737034D01*
X126192868Y-217737034D01*
X126288106Y-217784653D01*
X126335725Y-217832272D01*
X125002392Y-217737034D02*
X125002392Y-218403700D01*
X125430963Y-217737034D02*
X125430963Y-218260843D01*
X125383344Y-218356081D01*
X125288106Y-218403700D01*
X125145249Y-218403700D01*
X125050011Y-218356081D01*
X125002392Y-218308462D01*
X124526201Y-218403700D02*
X124526201Y-217403700D01*
X124526201Y-217784653D02*
X124430963Y-217737034D01*
X124240487Y-217737034D01*
X124145249Y-217784653D01*
X124097630Y-217832272D01*
X124050011Y-217927510D01*
X124050011Y-218213224D01*
X124097630Y-218308462D01*
X124145249Y-218356081D01*
X124240487Y-218403700D01*
X124430963Y-218403700D01*
X124526201Y-218356081D01*
X123621440Y-218308462D02*
X123573820Y-218356081D01*
X123621440Y-218403700D01*
X123669059Y-218356081D01*
X123621440Y-218308462D01*
X123621440Y-218403700D01*
X122716678Y-218356081D02*
X122811916Y-218403700D01*
X123002392Y-218403700D01*
X123097630Y-218356081D01*
X123145249Y-218308462D01*
X123192868Y-218213224D01*
X123192868Y-217927510D01*
X123145249Y-217832272D01*
X123097630Y-217784653D01*
X123002392Y-217737034D01*
X122811916Y-217737034D01*
X122716678Y-217784653D01*
X122145249Y-218403700D02*
X122240487Y-218356081D01*
X122288106Y-218308462D01*
X122335725Y-218213224D01*
X122335725Y-217927510D01*
X122288106Y-217832272D01*
X122240487Y-217784653D01*
X122145249Y-217737034D01*
X122002392Y-217737034D01*
X121907154Y-217784653D01*
X121859535Y-217832272D01*
X121811916Y-217927510D01*
X121811916Y-218213224D01*
X121859535Y-218308462D01*
X121907154Y-218356081D01*
X122002392Y-218403700D01*
X122145249Y-218403700D01*
X121383344Y-218403700D02*
X121383344Y-217737034D01*
X121383344Y-217832272D02*
X121335725Y-217784653D01*
X121240487Y-217737034D01*
X121097630Y-217737034D01*
X121002392Y-217784653D01*
X120954773Y-217879891D01*
X120954773Y-218403700D01*
X120954773Y-217879891D02*
X120907154Y-217784653D01*
X120811916Y-217737034D01*
X120669059Y-217737034D01*
X120573820Y-217784653D01*
X120526201Y-217879891D01*
X120526201Y-218403700D01*
X119335725Y-217356081D02*
X120192868Y-218641796D01*
X118573820Y-218403700D02*
X118573820Y-217879891D01*
X118621440Y-217784653D01*
X118716678Y-217737034D01*
X118907154Y-217737034D01*
X119002392Y-217784653D01*
X118573820Y-218356081D02*
X118669059Y-218403700D01*
X118907154Y-218403700D01*
X119002392Y-218356081D01*
X119050011Y-218260843D01*
X119050011Y-218165605D01*
X119002392Y-218070367D01*
X118907154Y-218022748D01*
X118669059Y-218022748D01*
X118573820Y-217975129D01*
X118097630Y-218403700D02*
X118097630Y-217403700D01*
X118002392Y-218022748D02*
X117716678Y-218403700D01*
X117716678Y-217737034D02*
X118097630Y-218117986D01*
X116859535Y-217403700D02*
X117050011Y-217403700D01*
X117145249Y-217451320D01*
X117192868Y-217498939D01*
X117288106Y-217641796D01*
X117335725Y-217832272D01*
X117335725Y-218213224D01*
X117288106Y-218308462D01*
X117240487Y-218356081D01*
X117145249Y-218403700D01*
X116954773Y-218403700D01*
X116859535Y-218356081D01*
X116811916Y-218308462D01*
X116764297Y-218213224D01*
X116764297Y-217975129D01*
X116811916Y-217879891D01*
X116859535Y-217832272D01*
X116954773Y-217784653D01*
X117145249Y-217784653D01*
X117240487Y-217832272D01*
X117288106Y-217879891D01*
X117335725Y-217975129D01*
X115907154Y-217403700D02*
X116097630Y-217403700D01*
X116192868Y-217451320D01*
X116240487Y-217498939D01*
X116335725Y-217641796D01*
X116383344Y-217832272D01*
X116383344Y-218213224D01*
X116335725Y-218308462D01*
X116288106Y-218356081D01*
X116192868Y-218403700D01*
X116002392Y-218403700D01*
X115907154Y-218356081D01*
X115859535Y-218308462D01*
X115811916Y-218213224D01*
X115811916Y-217975129D01*
X115859535Y-217879891D01*
X115907154Y-217832272D01*
X116002392Y-217784653D01*
X116192868Y-217784653D01*
X116288106Y-217832272D01*
X116335725Y-217879891D01*
X116383344Y-217975129D01*
X114954773Y-217403700D02*
X115145249Y-217403700D01*
X115240487Y-217451320D01*
X115288106Y-217498939D01*
X115383344Y-217641796D01*
X115430963Y-217832272D01*
X115430963Y-218213224D01*
X115383344Y-218308462D01*
X115335725Y-218356081D01*
X115240487Y-218403700D01*
X115050011Y-218403700D01*
X114954773Y-218356081D01*
X114907154Y-218308462D01*
X114859535Y-218213224D01*
X114859535Y-217975129D01*
X114907154Y-217879891D01*
X114954773Y-217832272D01*
X115050011Y-217784653D01*
X115240487Y-217784653D01*
X115335725Y-217832272D01*
X115383344Y-217879891D01*
X115430963Y-217975129D01*
X114002392Y-217403700D02*
X114192868Y-217403700D01*
X114288106Y-217451320D01*
X114335725Y-217498939D01*
X114430963Y-217641796D01*
X114478582Y-217832272D01*
X114478582Y-218213224D01*
X114430963Y-218308462D01*
X114383344Y-218356081D01*
X114288106Y-218403700D01*
X114097630Y-218403700D01*
X114002392Y-218356081D01*
X113954773Y-218308462D01*
X113907154Y-218213224D01*
X113907154Y-217975129D01*
X113954773Y-217879891D01*
X114002392Y-217832272D01*
X114097630Y-217784653D01*
X114288106Y-217784653D01*
X114383344Y-217832272D01*
X114430963Y-217879891D01*
X114478582Y-217975129D01*
X113050011Y-217403700D02*
X113240487Y-217403700D01*
X113335725Y-217451320D01*
X113383344Y-217498939D01*
X113478582Y-217641796D01*
X113526201Y-217832272D01*
X113526201Y-218213224D01*
X113478582Y-218308462D01*
X113430963Y-218356081D01*
X113335725Y-218403700D01*
X113145249Y-218403700D01*
X113050011Y-218356081D01*
X113002392Y-218308462D01*
X112954773Y-218213224D01*
X112954773Y-217975129D01*
X113002392Y-217879891D01*
X113050011Y-217832272D01*
X113145249Y-217784653D01*
X113335725Y-217784653D01*
X113430963Y-217832272D01*
X113478582Y-217879891D01*
X113526201Y-217975129D01*
X111811916Y-217356081D02*
X112669059Y-218641796D01*
X111621440Y-217403700D02*
X111050011Y-217403700D01*
X111335725Y-218403700D02*
X111335725Y-217403700D01*
X110716678Y-218403700D02*
X110716678Y-217403700D01*
X110288106Y-218403700D02*
X110288106Y-217879891D01*
X110335725Y-217784653D01*
X110430963Y-217737034D01*
X110573820Y-217737034D01*
X110669059Y-217784653D01*
X110716678Y-217832272D01*
X109383344Y-217737034D02*
X109383344Y-218403700D01*
X109811916Y-217737034D02*
X109811916Y-218260843D01*
X109764297Y-218356081D01*
X109669059Y-218403700D01*
X109526201Y-218403700D01*
X109430963Y-218356081D01*
X109383344Y-218308462D01*
X108907154Y-218403700D02*
X108907154Y-217737034D01*
X108907154Y-217832272D02*
X108859535Y-217784653D01*
X108764297Y-217737034D01*
X108621440Y-217737034D01*
X108526201Y-217784653D01*
X108478582Y-217879891D01*
X108478582Y-218403700D01*
X108478582Y-217879891D02*
X108430963Y-217784653D01*
X108335725Y-217737034D01*
X108192868Y-217737034D01*
X108097630Y-217784653D01*
X108050011Y-217879891D01*
X108050011Y-218403700D01*
X107573820Y-218403700D02*
X107573820Y-217403700D01*
X107573820Y-217784653D02*
X107478582Y-217737034D01*
X107288106Y-217737034D01*
X107192868Y-217784653D01*
X107145249Y-217832272D01*
X107097630Y-217927510D01*
X107097630Y-218213224D01*
X107145249Y-218308462D01*
X107192868Y-218356081D01*
X107288106Y-218403700D01*
X107478582Y-218403700D01*
X107573820Y-218356081D01*
X106716678Y-218356081D02*
X106621440Y-218403700D01*
X106430963Y-218403700D01*
X106335725Y-218356081D01*
X106288106Y-218260843D01*
X106288106Y-218213224D01*
X106335725Y-218117986D01*
X106430963Y-218070367D01*
X106573820Y-218070367D01*
X106669059Y-218022748D01*
X106716678Y-217927510D01*
X106716678Y-217879891D01*
X106669059Y-217784653D01*
X106573820Y-217737034D01*
X106430963Y-217737034D01*
X106335725Y-217784653D01*
X105859535Y-217403700D02*
X105859535Y-218213224D01*
X105811916Y-218308462D01*
X105764297Y-218356081D01*
X105669059Y-218403700D01*
X105478582Y-218403700D01*
X105383344Y-218356081D01*
X105335725Y-218308462D01*
X105288106Y-218213224D01*
X105288106Y-217403700D01*
X104811916Y-217737034D02*
X104811916Y-218737034D01*
X104811916Y-217784653D02*
X104716678Y-217737034D01*
X104526201Y-217737034D01*
X104430963Y-217784653D01*
X104383344Y-217832272D01*
X104335725Y-217927510D01*
X104335725Y-218213224D01*
X104383344Y-218308462D01*
X104430963Y-218356081D01*
X104526201Y-218403700D01*
X104716678Y-218403700D01*
X104811916Y-218356081D01*
X103907154Y-217403700D02*
X103907154Y-218213224D01*
X103859535Y-218308462D01*
X103811916Y-218356081D01*
X103716678Y-218403700D01*
X103526201Y-218403700D01*
X103430963Y-218356081D01*
X103383344Y-218308462D01*
X103335725Y-218213224D01*
X103335725Y-217403700D01*
X102859535Y-217737034D02*
X102859535Y-218403700D01*
X102859535Y-217832272D02*
X102811916Y-217784653D01*
X102716678Y-217737034D01*
X102573820Y-217737034D01*
X102478582Y-217784653D01*
X102430963Y-217879891D01*
X102430963Y-218403700D01*
X102002392Y-218356081D02*
X101907154Y-218403700D01*
X101716678Y-218403700D01*
X101621440Y-218356081D01*
X101573820Y-218260843D01*
X101573820Y-218213224D01*
X101621440Y-218117986D01*
X101716678Y-218070367D01*
X101859535Y-218070367D01*
X101954773Y-218022748D01*
X102002392Y-217927510D01*
X102002392Y-217879891D01*
X101954773Y-217784653D01*
X101859535Y-217737034D01*
X101716678Y-217737034D01*
X101621440Y-217784653D01*
X101145249Y-217737034D02*
X101145249Y-218737034D01*
X101145249Y-217784653D02*
X101050011Y-217737034D01*
X100859535Y-217737034D01*
X100764297Y-217784653D01*
X100716678Y-217832272D01*
X100669059Y-217927510D01*
X100669059Y-218213224D01*
X100716678Y-218308462D01*
X100764297Y-218356081D01*
X100859535Y-218403700D01*
X101050011Y-218403700D01*
X101145249Y-218356081D01*
X100097630Y-218403700D02*
X100192868Y-218356081D01*
X100240487Y-218260843D01*
X100240487Y-217403700D01*
X99716678Y-218403700D02*
X99716678Y-217737034D01*
X99716678Y-217403700D02*
X99764297Y-217451320D01*
X99716678Y-217498939D01*
X99669059Y-217451320D01*
X99716678Y-217403700D01*
X99716678Y-217498939D01*
X99383344Y-217737034D02*
X99002392Y-217737034D01*
X99240487Y-217403700D02*
X99240487Y-218260843D01*
X99192868Y-218356081D01*
X99097630Y-218403700D01*
X99002392Y-218403700D01*
X98811916Y-217403700D02*
X98478582Y-218403700D01*
X98145249Y-217403700D01*
X97859535Y-217498939D02*
X97811916Y-217451320D01*
X97716678Y-217403700D01*
X97478582Y-217403700D01*
X97383344Y-217451320D01*
X97335725Y-217498939D01*
X97288106Y-217594177D01*
X97288106Y-217689415D01*
X97335725Y-217832272D01*
X97907154Y-218403700D01*
X97288106Y-218403700D01*
X96288106Y-218403700D02*
X96621440Y-217927510D01*
X96859535Y-218403700D02*
X96859535Y-217403700D01*
X96478582Y-217403700D01*
X96383344Y-217451320D01*
X96335725Y-217498939D01*
X96288106Y-217594177D01*
X96288106Y-217737034D01*
X96335725Y-217832272D01*
X96383344Y-217879891D01*
X96478582Y-217927510D01*
X96859535Y-217927510D01*
X95859535Y-217737034D02*
X95859535Y-218737034D01*
X95859535Y-217784653D02*
X95764297Y-217737034D01*
X95573820Y-217737034D01*
X95478582Y-217784653D01*
X95430963Y-217832272D01*
X95383344Y-217927510D01*
X95383344Y-218213224D01*
X95430963Y-218308462D01*
X95478582Y-218356081D01*
X95573820Y-218403700D01*
X95764297Y-218403700D01*
X95859535Y-218356081D01*
X95002392Y-217498939D02*
X94954773Y-217451320D01*
X94859535Y-217403700D01*
X94621440Y-217403700D01*
X94526201Y-217451320D01*
X94478582Y-217498939D01*
X94430963Y-217594177D01*
X94430963Y-217689415D01*
X94478582Y-217832272D01*
X95050011Y-218403700D01*
X94430963Y-218403700D01*
X93811916Y-217403700D02*
X93716678Y-217403700D01*
X93621440Y-217451320D01*
X93573820Y-217498939D01*
X93526201Y-217594177D01*
X93478582Y-217784653D01*
X93478582Y-218022748D01*
X93526201Y-218213224D01*
X93573820Y-218308462D01*
X93621440Y-218356081D01*
X93716678Y-218403700D01*
X93811916Y-218403700D01*
X93907154Y-218356081D01*
X93954773Y-218308462D01*
X94002392Y-218213224D01*
X94050011Y-218022748D01*
X94050011Y-217784653D01*
X94002392Y-217594177D01*
X93954773Y-217498939D01*
X93907154Y-217451320D01*
X93811916Y-217403700D01*
X92621440Y-217737034D02*
X92621440Y-218403700D01*
X92859535Y-217356081D02*
X93097630Y-218070367D01*
X92478582Y-218070367D01*
X91907154Y-217403700D02*
X91811916Y-217403700D01*
X91716678Y-217451320D01*
X91669059Y-217498939D01*
X91621440Y-217594177D01*
X91573820Y-217784653D01*
X91573820Y-218022748D01*
X91621440Y-218213224D01*
X91669059Y-218308462D01*
X91716678Y-218356081D01*
X91811916Y-218403700D01*
X91907154Y-218403700D01*
X92002392Y-218356081D01*
X92050011Y-218308462D01*
X92097630Y-218213224D01*
X92145249Y-218022748D01*
X92145249Y-217784653D01*
X92097630Y-217594177D01*
X92050011Y-217498939D01*
X92002392Y-217451320D01*
X91907154Y-217403700D01*
D11*
X150824000Y-164762922D02*
X150824000Y-165280078D01*
X149404000Y-164762922D02*
X149404000Y-165280078D01*
X146506000Y-164762922D02*
X146506000Y-165280078D01*
X145086000Y-164762922D02*
X145086000Y-165280078D01*
X142850000Y-157642000D02*
X142850000Y-155842000D01*
X142850000Y-152132000D02*
X142850000Y-153592000D01*
X151790000Y-152132000D02*
X151790000Y-153592000D01*
X151790000Y-157642000D02*
X151790000Y-155842000D01*
X151790000Y-152132000D02*
X142850000Y-152132000D01*
D12*
X129978000Y-228142000D02*
G75*
G03X130078000Y-228142000I50000J0D01*
G01*
X130078000Y-228142000D02*
G75*
G03X129978000Y-228142000I-50000J0D01*
G01*
X130078000Y-228142000D02*
X130078000Y-228142000D01*
X129978000Y-228142000D02*
X129978000Y-228142000D01*
D13*
X127778000Y-227367000D02*
X126128000Y-227367000D01*
X127778000Y-230267000D02*
X126178000Y-230267000D01*
X126128000Y-230917000D02*
X126128000Y-230267000D01*
X127828000Y-230917000D02*
X126128000Y-230917000D01*
X127828000Y-230267000D02*
X127828000Y-230917000D01*
D12*
X137896000Y-228142000D02*
G75*
G03X137996000Y-228142000I50000J0D01*
G01*
X137996000Y-228142000D02*
G75*
G03X137896000Y-228142000I-50000J0D01*
G01*
X137996000Y-228142000D02*
X137996000Y-228142000D01*
X137896000Y-228142000D02*
X137896000Y-228142000D01*
D13*
X135696000Y-227367000D02*
X134046000Y-227367000D01*
X135696000Y-230267000D02*
X134096000Y-230267000D01*
X134046000Y-230917000D02*
X134046000Y-230267000D01*
X135746000Y-230917000D02*
X134046000Y-230917000D01*
X135746000Y-230267000D02*
X135746000Y-230917000D01*
D14*
X150983000Y-214340000D02*
G75*
G03X150983000Y-214340000I-100000J0D01*
G01*
D11*
X178800000Y-210212500D02*
X178800000Y-206312500D01*
X176800000Y-210212500D02*
X176800000Y-206312500D01*
X178800000Y-210212500D02*
X176800000Y-210212500D01*
D14*
X152548880Y-228078000D02*
G75*
G03X152548880Y-228078000I-125880J0D01*
G01*
D13*
X166228000Y-228968000D02*
X166228000Y-227868000D01*
X166228000Y-224168000D02*
X166228000Y-225268000D01*
X154828000Y-224168000D02*
X154828000Y-225268000D01*
X154828000Y-228968000D02*
X154828000Y-227868000D01*
X154828000Y-224168000D02*
X166228000Y-224168000D01*
X154828000Y-228968000D02*
X166228000Y-228968000D01*
D11*
X163629078Y-203783000D02*
X163111922Y-203783000D01*
X163629078Y-202363000D02*
X163111922Y-202363000D01*
D13*
X165701000Y-205435000D02*
X164051000Y-205435000D01*
X163701000Y-210655000D02*
X163701000Y-205375000D01*
X158851000Y-210655000D02*
X163701000Y-210655000D01*
X158851000Y-205375000D02*
X158851000Y-210655000D01*
X163701000Y-205375000D02*
X158851000Y-205375000D01*
D11*
X141472000Y-197224578D02*
X141472000Y-196707422D01*
X142892000Y-197224578D02*
X142892000Y-196707422D01*
X154505922Y-219254000D02*
X155023078Y-219254000D01*
X154505922Y-220674000D02*
X155023078Y-220674000D01*
X139979078Y-220547000D02*
X139461922Y-220547000D01*
X139979078Y-219127000D02*
X139461922Y-219127000D01*
X156459422Y-222302000D02*
X156976578Y-222302000D01*
X156459422Y-223722000D02*
X156976578Y-223722000D01*
X164596578Y-223595000D02*
X164079422Y-223595000D01*
X164596578Y-222175000D02*
X164079422Y-222175000D01*
X139900578Y-212800000D02*
X139383422Y-212800000D01*
X139900578Y-211380000D02*
X139383422Y-211380000D01*
X147314000Y-209670578D02*
X147314000Y-209153422D01*
X148734000Y-209670578D02*
X148734000Y-209153422D01*
X139880078Y-210514000D02*
X139362922Y-210514000D01*
X139880078Y-209094000D02*
X139362922Y-209094000D01*
X137580000Y-199960000D02*
X137580000Y-205970000D01*
X144400000Y-202210000D02*
X144400000Y-205970000D01*
X137580000Y-205970000D02*
X138840000Y-205970000D01*
X144400000Y-205970000D02*
X143140000Y-205970000D01*
X159976078Y-203783000D02*
X159458922Y-203783000D01*
X159976078Y-202363000D02*
X159458922Y-202363000D01*
X151332000Y-224912422D02*
X151332000Y-225429578D01*
X149912000Y-224912422D02*
X149912000Y-225429578D01*
X172645000Y-225478078D02*
X172645000Y-224960922D01*
X174065000Y-225478078D02*
X174065000Y-224960922D01*
X172033000Y-224960922D02*
X172033000Y-225478078D01*
X170613000Y-224960922D02*
X170613000Y-225478078D01*
X148226000Y-224901422D02*
X148226000Y-225418578D01*
X146806000Y-224901422D02*
X146806000Y-225418578D01*
X154369422Y-214036000D02*
X154886578Y-214036000D01*
X154369422Y-215456000D02*
X154886578Y-215456000D01*
X151274000Y-205421922D02*
X151274000Y-205939078D01*
X149854000Y-205421922D02*
X149854000Y-205939078D01*
X146194000Y-224901422D02*
X146194000Y-225418578D01*
X144774000Y-224901422D02*
X144774000Y-225418578D01*
X149854000Y-209670578D02*
X149854000Y-209153422D01*
X151274000Y-209670578D02*
X151274000Y-209153422D01*
X143504000Y-210765078D02*
X143504000Y-210247922D01*
X144924000Y-210765078D02*
X144924000Y-210247922D01*
X139186000Y-197303078D02*
X139186000Y-196785922D01*
X140606000Y-197303078D02*
X140606000Y-196785922D01*
X139979078Y-215086000D02*
X139461922Y-215086000D01*
X139979078Y-213666000D02*
X139461922Y-213666000D01*
X146864000Y-189313078D02*
X146864000Y-188795922D01*
X148284000Y-189313078D02*
X148284000Y-188795922D01*
X144832000Y-189313078D02*
X144832000Y-188795922D01*
X146252000Y-189313078D02*
X146252000Y-188795922D01*
X142092000Y-165578064D02*
X142092000Y-164373936D01*
X143912000Y-165578064D02*
X143912000Y-164373936D01*
D10*
X231427677Y-188009842D02*
X231165452Y-187360813D01*
X231165452Y-187360813D02*
X226993125Y-189046543D01*
X233380363Y-188838708D02*
G75*
G02X231427677Y-188009842I-561910J1390776D01*
G01*
X234602500Y-193198338D02*
X233951605Y-192922050D01*
X233576998Y-191994866D02*
X233951605Y-192922050D01*
X228753776Y-193404307D02*
X232926103Y-191718577D01*
X236349217Y-188178480D02*
X235698322Y-187902191D01*
X228529012Y-192847997D02*
X228753776Y-193404307D01*
X235698322Y-187902191D02*
X233380363Y-188838708D01*
X237660340Y-191423623D02*
X237384052Y-192074519D01*
X237384052Y-192074519D02*
X234602500Y-193198338D01*
X232926104Y-191718578D02*
G75*
G02X233576998Y-191994866I187303J-463591D01*
G01*
X226993125Y-189046543D02*
X227180428Y-189510135D01*
X178953455Y-156901869D02*
X178691230Y-156252840D01*
X178691230Y-156252840D02*
X174518903Y-157938570D01*
X180906141Y-157730735D02*
G75*
G02X178953455Y-156901869I-561910J1390776D01*
G01*
X182128278Y-162090365D02*
X181477383Y-161814077D01*
X181102776Y-160886893D02*
X181477383Y-161814077D01*
X176279554Y-162296334D02*
X180451881Y-160610604D01*
X183874995Y-157070507D02*
X183224100Y-156794218D01*
X176054790Y-161740024D02*
X176279554Y-162296334D01*
X183224100Y-156794218D02*
X180906141Y-157730735D01*
X185186118Y-160315650D02*
X184909830Y-160966546D01*
X184909830Y-160966546D02*
X182128278Y-162090365D01*
X180451882Y-160610605D02*
G75*
G02X181102776Y-160886893I187303J-463591D01*
G01*
X174518903Y-157938570D02*
X174706206Y-158402162D01*
X185509070Y-173127586D02*
X185246845Y-172478557D01*
X185246845Y-172478557D02*
X181074518Y-174164287D01*
X187461756Y-173956452D02*
G75*
G02X185509070Y-173127586I-561910J1390776D01*
G01*
X188683893Y-178316082D02*
X188032998Y-178039794D01*
X187658391Y-177112610D02*
X188032998Y-178039794D01*
X182835169Y-178522051D02*
X187007496Y-176836321D01*
X190430610Y-173296224D02*
X189779715Y-173019935D01*
X182610405Y-177965741D02*
X182835169Y-178522051D01*
X189779715Y-173019935D02*
X187461756Y-173956452D01*
X191741733Y-176541367D02*
X191465445Y-177192263D01*
X191465445Y-177192263D02*
X188683893Y-178316082D01*
X187007497Y-176836322D02*
G75*
G02X187658391Y-177112610I187303J-463591D01*
G01*
X181074518Y-174164287D02*
X181261821Y-174627879D01*
X192064685Y-189353304D02*
X191802460Y-188704275D01*
X191802460Y-188704275D02*
X187630133Y-190390005D01*
X194017371Y-190182170D02*
G75*
G02X192064685Y-189353304I-561910J1390776D01*
G01*
X195239508Y-194541800D02*
X194588613Y-194265512D01*
X194214006Y-193338328D02*
X194588613Y-194265512D01*
X189390784Y-194747769D02*
X193563111Y-193062039D01*
X196986225Y-189521942D02*
X196335330Y-189245653D01*
X189166020Y-194191459D02*
X189390784Y-194747769D01*
X196335330Y-189245653D02*
X194017371Y-190182170D01*
X198297348Y-192767085D02*
X198021060Y-193417981D01*
X198021060Y-193417981D02*
X195239508Y-194541800D01*
X193563112Y-193062040D02*
G75*
G02X194214006Y-193338328I187303J-463591D01*
G01*
X187630133Y-190390005D02*
X187817436Y-190853597D01*
X212401743Y-190304145D02*
X212139518Y-189655116D01*
X212139518Y-189655116D02*
X207967191Y-191340846D01*
X214354429Y-191133011D02*
G75*
G02X212401743Y-190304145I-561910J1390776D01*
G01*
X215576566Y-195492641D02*
X214925671Y-195216353D01*
X214551064Y-194289169D02*
X214925671Y-195216353D01*
X209727842Y-195698610D02*
X213900169Y-194012880D01*
X217323283Y-190472783D02*
X216672388Y-190196494D01*
X209503078Y-195142300D02*
X209727842Y-195698610D01*
X216672388Y-190196494D02*
X214354429Y-191133011D01*
X218634406Y-193717926D02*
X218358118Y-194368822D01*
X218358118Y-194368822D02*
X215576566Y-195492641D01*
X213900170Y-194012881D02*
G75*
G02X214551064Y-194289169I187303J-463591D01*
G01*
X207967191Y-191340846D02*
X208154494Y-191804438D01*
X116147317Y-152845686D02*
X115885093Y-153494715D01*
X115885093Y-153494715D02*
X120057420Y-155180444D01*
X115318451Y-150893000D02*
G75*
G02X116147317Y-152845686I-561910J-1390776D01*
G01*
X117467773Y-146907976D02*
X117744061Y-147558872D01*
X117369455Y-148486055D02*
X117744061Y-147558872D01*
X121818071Y-150822680D02*
X117645744Y-149136951D01*
X112724203Y-149305589D02*
X113000492Y-149956484D01*
X121593307Y-151378991D02*
X121818071Y-150822680D01*
X113000492Y-149956484D02*
X115318451Y-150893000D01*
X114035326Y-146060445D02*
X114686221Y-145784157D01*
X114686221Y-145784157D02*
X117467773Y-146907976D01*
X117645743Y-149136951D02*
G75*
G02X117369455Y-148486055I187304J463592D01*
G01*
X120057420Y-155180444D02*
X120244723Y-154716852D01*
X167232349Y-177276257D02*
X166970124Y-176627228D01*
X166970124Y-176627228D02*
X162797797Y-178312958D01*
X169185035Y-178105123D02*
G75*
G02X167232349Y-177276257I-561910J1390776D01*
G01*
X170407172Y-182464753D02*
X169756277Y-182188465D01*
X169381670Y-181261281D02*
X169756277Y-182188465D01*
X164558448Y-182670722D02*
X168730775Y-180984992D01*
X172153889Y-177444895D02*
X171502994Y-177168606D01*
X164333684Y-182114412D02*
X164558448Y-182670722D01*
X171502994Y-177168606D02*
X169185035Y-178105123D01*
X173465012Y-180690038D02*
X173188724Y-181340934D01*
X173188724Y-181340934D02*
X170407172Y-182464753D01*
X168730776Y-180984993D02*
G75*
G02X169381670Y-181261281I187303J-463591D01*
G01*
X162797797Y-178312958D02*
X162985100Y-178776550D01*
X63673094Y-183953659D02*
X63410870Y-184602688D01*
X63410870Y-184602688D02*
X67583197Y-186288417D01*
X62844228Y-182000973D02*
G75*
G02X63673094Y-183953659I-561910J-1390776D01*
G01*
X64993550Y-178015949D02*
X65269838Y-178666845D01*
X64895232Y-179594028D02*
X65269838Y-178666845D01*
X69343848Y-181930653D02*
X65171521Y-180244924D01*
X60249980Y-180413562D02*
X60526269Y-181064457D01*
X69119084Y-182486964D02*
X69343848Y-181930653D01*
X60526269Y-181064457D02*
X62844228Y-182000973D01*
X61561103Y-177168418D02*
X62211998Y-176892130D01*
X62211998Y-176892130D02*
X64993550Y-178015949D01*
X65171520Y-180244924D02*
G75*
G02X64895232Y-179594028I187304J463592D01*
G01*
X67583197Y-186288417D02*
X67770500Y-185824825D01*
X82699028Y-186247962D02*
X82436804Y-186896991D01*
X82436804Y-186896991D02*
X86609131Y-188582720D01*
X81870162Y-184295276D02*
G75*
G02X82699028Y-186247962I-561910J-1390776D01*
G01*
X84019484Y-180310252D02*
X84295772Y-180961148D01*
X83921166Y-181888331D02*
X84295772Y-180961148D01*
X88369782Y-184224956D02*
X84197455Y-182539227D01*
X79275914Y-182707865D02*
X79552203Y-183358760D01*
X88145018Y-184781267D02*
X88369782Y-184224956D01*
X79552203Y-183358760D02*
X81870162Y-184295276D01*
X80587037Y-179462721D02*
X81237932Y-179186433D01*
X81237932Y-179186433D02*
X84019484Y-180310252D01*
X84197454Y-182539227D02*
G75*
G02X83921166Y-181888331I187304J463592D01*
G01*
X86609131Y-188582720D02*
X86796434Y-188119128D01*
X103036086Y-185297121D02*
X102773862Y-185946150D01*
X102773862Y-185946150D02*
X106946189Y-187631879D01*
X102207220Y-183344435D02*
G75*
G02X103036086Y-185297121I-561910J-1390776D01*
G01*
X104356542Y-179359411D02*
X104632830Y-180010307D01*
X104258224Y-180937490D02*
X104632830Y-180010307D01*
X108706840Y-183274115D02*
X104534513Y-181588386D01*
X99612972Y-181757024D02*
X99889261Y-182407919D01*
X108482076Y-183830426D02*
X108706840Y-183274115D01*
X99889261Y-182407919D02*
X102207220Y-183344435D01*
X100924095Y-178511880D02*
X101574990Y-178235592D01*
X101574990Y-178235592D02*
X104356542Y-179359411D01*
X104534512Y-181588386D02*
G75*
G02X104258224Y-180937490I187304J463592D01*
G01*
X106946189Y-187631879D02*
X107133492Y-187168287D01*
X173787964Y-193501974D02*
X173525739Y-192852945D01*
X173525739Y-192852945D02*
X169353412Y-194538675D01*
X175740650Y-194330840D02*
G75*
G02X173787964Y-193501974I-561910J1390776D01*
G01*
X176962787Y-198690470D02*
X176311892Y-198414182D01*
X175937285Y-197486998D02*
X176311892Y-198414182D01*
X171114063Y-198896439D02*
X175286390Y-197210709D01*
X178709504Y-193670612D02*
X178058609Y-193394323D01*
X170889299Y-198340129D02*
X171114063Y-198896439D01*
X178058609Y-193394323D02*
X175740650Y-194330840D01*
X180020627Y-196915755D02*
X179744339Y-197566651D01*
X179744339Y-197566651D02*
X176962787Y-198690470D01*
X175286391Y-197210710D02*
G75*
G02X175937285Y-197486998I187303J-463591D01*
G01*
X169353412Y-194538675D02*
X169540715Y-195002267D01*
X134424038Y-156994356D02*
X134161814Y-157643385D01*
X134161814Y-157643385D02*
X138334141Y-159329114D01*
X133595172Y-155041670D02*
G75*
G02X134424038Y-156994356I-561910J-1390776D01*
G01*
X135744494Y-151056646D02*
X136020782Y-151707542D01*
X135646176Y-152634725D02*
X136020782Y-151707542D01*
X140094792Y-154971350D02*
X135922465Y-153285621D01*
X131000924Y-153454259D02*
X131277213Y-154105154D01*
X139870028Y-155527661D02*
X140094792Y-154971350D01*
X131277213Y-154105154D02*
X133595172Y-155041670D01*
X132312047Y-150209115D02*
X132962942Y-149932827D01*
X132962942Y-149932827D02*
X135744494Y-151056646D01*
X135922464Y-153285621D02*
G75*
G02X135646176Y-152634725I187304J463592D01*
G01*
X138334141Y-159329114D02*
X138521444Y-158865522D01*
X121312807Y-189445791D02*
X121050583Y-190094820D01*
X121050583Y-190094820D02*
X125222910Y-191780549D01*
X120483941Y-187493105D02*
G75*
G02X121312807Y-189445791I-561910J-1390776D01*
G01*
X122633263Y-183508081D02*
X122909551Y-184158977D01*
X122534945Y-185086160D02*
X122909551Y-184158977D01*
X126983561Y-187422785D02*
X122811234Y-185737056D01*
X117889693Y-185905694D02*
X118165982Y-186556589D01*
X126758797Y-187979096D02*
X126983561Y-187422785D01*
X118165982Y-186556589D02*
X120483941Y-187493105D01*
X119200816Y-182660550D02*
X119851711Y-182384262D01*
X119851711Y-182384262D02*
X122633263Y-183508081D01*
X122811233Y-185737056D02*
G75*
G02X122534945Y-185086160I187304J463592D01*
G01*
X125222910Y-191780549D02*
X125410213Y-191316957D01*
X127868422Y-173220074D02*
X127606198Y-173869103D01*
X127606198Y-173869103D02*
X131778525Y-175554832D01*
X127039556Y-171267388D02*
G75*
G02X127868422Y-173220074I-561910J-1390776D01*
G01*
X129188878Y-167282364D02*
X129465166Y-167933260D01*
X129090560Y-168860443D02*
X129465166Y-167933260D01*
X133539176Y-171197068D02*
X129366849Y-169511339D01*
X124445308Y-169679977D02*
X124721597Y-170330872D01*
X133314412Y-171753379D02*
X133539176Y-171197068D01*
X124721597Y-170330872D02*
X127039556Y-171267388D01*
X125756431Y-166434833D02*
X126407326Y-166158545D01*
X126407326Y-166158545D02*
X129188878Y-167282364D01*
X129366848Y-169511339D02*
G75*
G02X129090560Y-168860443I187304J463592D01*
G01*
X131778525Y-175554832D02*
X131965828Y-175091240D01*
X160676734Y-161050539D02*
X160414509Y-160401510D01*
X160414509Y-160401510D02*
X156242182Y-162087240D01*
X162629420Y-161879405D02*
G75*
G02X160676734Y-161050539I-561910J1390776D01*
G01*
X163851557Y-166239035D02*
X163200662Y-165962747D01*
X162826055Y-165035563D02*
X163200662Y-165962747D01*
X158002833Y-166445004D02*
X162175160Y-164759274D01*
X165598274Y-161219177D02*
X164947379Y-160942888D01*
X157778069Y-165888694D02*
X158002833Y-166445004D01*
X164947379Y-160942888D02*
X162629420Y-161879405D01*
X166909397Y-164464320D02*
X166633109Y-165115216D01*
X166633109Y-165115216D02*
X163851557Y-166239035D01*
X162175161Y-164759275D02*
G75*
G02X162826055Y-165035563I187303J-463591D01*
G01*
X156242182Y-162087240D02*
X156429485Y-162550832D01*
X109591701Y-169071403D02*
X109329477Y-169720432D01*
X109329477Y-169720432D02*
X113501804Y-171406161D01*
X108762835Y-167118717D02*
G75*
G02X109591701Y-169071403I-561910J-1390776D01*
G01*
X110912157Y-163133693D02*
X111188445Y-163784589D01*
X110813839Y-164711772D02*
X111188445Y-163784589D01*
X115262455Y-167048397D02*
X111090128Y-165362668D01*
X106168587Y-165531306D02*
X106444876Y-166182201D01*
X115037691Y-167604708D02*
X115262455Y-167048397D01*
X106444876Y-166182201D02*
X108762835Y-167118717D01*
X107479710Y-162286162D02*
X108130605Y-162009874D01*
X108130605Y-162009874D02*
X110912157Y-163133693D01*
X111090127Y-165362668D02*
G75*
G02X110813839Y-164711772I187304J463592D01*
G01*
X113501804Y-171406161D02*
X113689107Y-170942569D01*
D11*
X195468750Y-210212500D02*
X195468750Y-206312500D01*
X193468750Y-210212500D02*
X193468750Y-206312500D01*
X195468750Y-210212500D02*
X193468750Y-210212500D01*
X193087500Y-210212500D02*
X193087500Y-206312500D01*
X191087500Y-210212500D02*
X191087500Y-206312500D01*
X193087500Y-210212500D02*
X191087500Y-210212500D01*
X181181250Y-210212500D02*
X181181250Y-206312500D01*
X179181250Y-210212500D02*
X179181250Y-206312500D01*
X181181250Y-210212500D02*
X179181250Y-210212500D01*
X183562500Y-210212500D02*
X183562500Y-206312500D01*
X181562500Y-210212500D02*
X181562500Y-206312500D01*
X183562500Y-210212500D02*
X181562500Y-210212500D01*
X185943750Y-210212500D02*
X185943750Y-206312500D01*
X183943750Y-210212500D02*
X183943750Y-206312500D01*
X185943750Y-210212500D02*
X183943750Y-210212500D01*
X188325000Y-210212500D02*
X188325000Y-206312500D01*
X186325000Y-210212500D02*
X186325000Y-206312500D01*
X188325000Y-210212500D02*
X186325000Y-210212500D01*
X154056250Y-187531250D02*
X157956250Y-187531250D01*
X154056250Y-185531250D02*
X157956250Y-185531250D01*
X154056250Y-187531250D02*
X154056250Y-185531250D01*
X154056250Y-189912500D02*
X157956250Y-189912500D01*
X154056250Y-187912500D02*
X157956250Y-187912500D01*
X154056250Y-189912500D02*
X154056250Y-187912500D01*
X154056250Y-192293750D02*
X157956250Y-192293750D01*
X154056250Y-190293750D02*
X157956250Y-190293750D01*
X154056250Y-192293750D02*
X154056250Y-190293750D01*
X154056250Y-194675000D02*
X157956250Y-194675000D01*
X154056250Y-192675000D02*
X157956250Y-192675000D01*
X154056250Y-194675000D02*
X154056250Y-192675000D01*
X151800000Y-172450000D02*
X155700000Y-172450000D01*
X151800000Y-170450000D02*
X155700000Y-170450000D01*
X151800000Y-172450000D02*
X151800000Y-170450000D01*
X151800000Y-174831250D02*
X155700000Y-174831250D01*
X151800000Y-172831250D02*
X155700000Y-172831250D01*
X151800000Y-174831250D02*
X151800000Y-172831250D01*
X151800000Y-177212500D02*
X155700000Y-177212500D01*
X151800000Y-175212500D02*
X155700000Y-175212500D01*
X151800000Y-177212500D02*
X151800000Y-175212500D01*
X151800000Y-179593750D02*
X155700000Y-179593750D01*
X151800000Y-177593750D02*
X155700000Y-177593750D01*
X151800000Y-179593750D02*
X151800000Y-177593750D01*
X200231250Y-210212500D02*
X200231250Y-206312500D01*
X198231250Y-210212500D02*
X198231250Y-206312500D01*
X200231250Y-210212500D02*
X198231250Y-210212500D01*
X197850000Y-210212500D02*
X197850000Y-206312500D01*
X195850000Y-210212500D02*
X195850000Y-206312500D01*
X197850000Y-210212500D02*
X195850000Y-210212500D01*
X190706250Y-210212500D02*
X190706250Y-206312500D01*
X188706250Y-210212500D02*
X188706250Y-206312500D01*
X190706250Y-210212500D02*
X188706250Y-210212500D01*
X154056250Y-197056250D02*
X157956250Y-197056250D01*
X154056250Y-195056250D02*
X157956250Y-195056250D01*
X154056250Y-197056250D02*
X154056250Y-195056250D01*
X151800000Y-181975000D02*
X155700000Y-181975000D01*
X151800000Y-179975000D02*
X155700000Y-179975000D01*
X151800000Y-181975000D02*
X151800000Y-179975000D01*
X154056250Y-185150000D02*
X157956250Y-185150000D01*
X154056250Y-183150000D02*
X157956250Y-183150000D01*
X154056250Y-185150000D02*
X154056250Y-183150000D01*
X151800000Y-170068750D02*
X155700000Y-170068750D01*
X151800000Y-168068750D02*
X155700000Y-168068750D01*
X151800000Y-170068750D02*
X151800000Y-168068750D01*
X119268750Y-210212500D02*
X119268750Y-206312500D01*
X117268750Y-210212500D02*
X117268750Y-206312500D01*
X119268750Y-210212500D02*
X117268750Y-210212500D01*
X137187500Y-183150000D02*
X133287500Y-183150000D01*
X137187500Y-185150000D02*
X133287500Y-185150000D01*
X137187500Y-183150000D02*
X137187500Y-185150000D01*
X142012500Y-168068750D02*
X138112500Y-168068750D01*
X142012500Y-170068750D02*
X138112500Y-170068750D01*
X142012500Y-168068750D02*
X142012500Y-170068750D01*
X97837500Y-210212500D02*
X97837500Y-206312500D01*
X95837500Y-210212500D02*
X95837500Y-206312500D01*
X97837500Y-210212500D02*
X95837500Y-210212500D01*
X100218750Y-210212500D02*
X100218750Y-206312500D01*
X98218750Y-210212500D02*
X98218750Y-206312500D01*
X100218750Y-210212500D02*
X98218750Y-210212500D01*
X107362500Y-210212500D02*
X107362500Y-206312500D01*
X105362500Y-210212500D02*
X105362500Y-206312500D01*
X107362500Y-210212500D02*
X105362500Y-210212500D01*
X137187500Y-195056250D02*
X133287500Y-195056250D01*
X137187500Y-197056250D02*
X133287500Y-197056250D01*
X137187500Y-195056250D02*
X137187500Y-197056250D01*
X142012500Y-179975000D02*
X138112500Y-179975000D01*
X142012500Y-181975000D02*
X138112500Y-181975000D01*
X142012500Y-179975000D02*
X142012500Y-181975000D01*
X102600000Y-210212500D02*
X102600000Y-206312500D01*
X100600000Y-210212500D02*
X100600000Y-206312500D01*
X102600000Y-210212500D02*
X100600000Y-210212500D01*
X104981250Y-210212500D02*
X104981250Y-206312500D01*
X102981250Y-210212500D02*
X102981250Y-206312500D01*
X104981250Y-210212500D02*
X102981250Y-210212500D01*
X116887500Y-210212500D02*
X116887500Y-206312500D01*
X114887500Y-210212500D02*
X114887500Y-206312500D01*
X116887500Y-210212500D02*
X114887500Y-210212500D01*
X114506250Y-210212500D02*
X114506250Y-206312500D01*
X112506250Y-210212500D02*
X112506250Y-206312500D01*
X114506250Y-210212500D02*
X112506250Y-210212500D01*
X112125000Y-210212500D02*
X112125000Y-206312500D01*
X110125000Y-210212500D02*
X110125000Y-206312500D01*
X112125000Y-210212500D02*
X110125000Y-210212500D01*
X109743750Y-210212500D02*
X109743750Y-206312500D01*
X107743750Y-210212500D02*
X107743750Y-206312500D01*
X109743750Y-210212500D02*
X107743750Y-210212500D01*
X137187500Y-185531250D02*
X133287500Y-185531250D01*
X137187500Y-187531250D02*
X133287500Y-187531250D01*
X137187500Y-185531250D02*
X137187500Y-187531250D01*
X137187500Y-187912500D02*
X133287500Y-187912500D01*
X137187500Y-189912500D02*
X133287500Y-189912500D01*
X137187500Y-187912500D02*
X137187500Y-189912500D01*
X137187500Y-190293750D02*
X133287500Y-190293750D01*
X137187500Y-192293750D02*
X133287500Y-192293750D01*
X137187500Y-190293750D02*
X137187500Y-192293750D01*
X137187500Y-192675000D02*
X133287500Y-192675000D01*
X137187500Y-194675000D02*
X133287500Y-194675000D01*
X137187500Y-192675000D02*
X137187500Y-194675000D01*
X142012500Y-170450000D02*
X138112500Y-170450000D01*
X142012500Y-172450000D02*
X138112500Y-172450000D01*
X142012500Y-170450000D02*
X142012500Y-172450000D01*
X142012500Y-172831250D02*
X138112500Y-172831250D01*
X142012500Y-174831250D02*
X138112500Y-174831250D01*
X142012500Y-172831250D02*
X142012500Y-174831250D01*
X142012500Y-175212500D02*
X138112500Y-175212500D01*
X142012500Y-177212500D02*
X138112500Y-177212500D01*
X142012500Y-175212500D02*
X142012500Y-177212500D01*
X142012500Y-177593750D02*
X138112500Y-177593750D01*
X142012500Y-179593750D02*
X138112500Y-179593750D01*
X142012500Y-177593750D02*
X142012500Y-179593750D01*
D10*
X148916380Y-164854833D02*
X148440190Y-164521500D01*
X148916380Y-164283404D02*
X147916380Y-164283404D01*
X147916380Y-164664357D01*
X147964000Y-164759595D01*
X148011619Y-164807214D01*
X148106857Y-164854833D01*
X148249714Y-164854833D01*
X148344952Y-164807214D01*
X148392571Y-164759595D01*
X148440190Y-164664357D01*
X148440190Y-164283404D01*
X148916380Y-165331023D02*
X148916380Y-165521500D01*
X148868761Y-165616738D01*
X148821142Y-165664357D01*
X148678285Y-165759595D01*
X148487809Y-165807214D01*
X148106857Y-165807214D01*
X148011619Y-165759595D01*
X147964000Y-165711976D01*
X147916380Y-165616738D01*
X147916380Y-165426261D01*
X147964000Y-165331023D01*
X148011619Y-165283404D01*
X148106857Y-165235785D01*
X148344952Y-165235785D01*
X148440190Y-165283404D01*
X148487809Y-165331023D01*
X148535428Y-165426261D01*
X148535428Y-165616738D01*
X148487809Y-165711976D01*
X148440190Y-165759595D01*
X148344952Y-165807214D01*
X144598380Y-164854833D02*
X144122190Y-164521500D01*
X144598380Y-164283404D02*
X143598380Y-164283404D01*
X143598380Y-164664357D01*
X143646000Y-164759595D01*
X143693619Y-164807214D01*
X143788857Y-164854833D01*
X143931714Y-164854833D01*
X144026952Y-164807214D01*
X144074571Y-164759595D01*
X144122190Y-164664357D01*
X144122190Y-164283404D01*
X144026952Y-165426261D02*
X143979333Y-165331023D01*
X143931714Y-165283404D01*
X143836476Y-165235785D01*
X143788857Y-165235785D01*
X143693619Y-165283404D01*
X143646000Y-165331023D01*
X143598380Y-165426261D01*
X143598380Y-165616738D01*
X143646000Y-165711976D01*
X143693619Y-165759595D01*
X143788857Y-165807214D01*
X143836476Y-165807214D01*
X143931714Y-165759595D01*
X143979333Y-165711976D01*
X144026952Y-165616738D01*
X144026952Y-165426261D01*
X144074571Y-165331023D01*
X144122190Y-165283404D01*
X144217428Y-165235785D01*
X144407904Y-165235785D01*
X144503142Y-165283404D01*
X144550761Y-165331023D01*
X144598380Y-165426261D01*
X144598380Y-165616738D01*
X144550761Y-165711976D01*
X144503142Y-165759595D01*
X144407904Y-165807214D01*
X144217428Y-165807214D01*
X144122190Y-165759595D01*
X144074571Y-165711976D01*
X144026952Y-165616738D01*
X148129523Y-161004380D02*
X148129523Y-161718666D01*
X148177142Y-161861523D01*
X148272380Y-161956761D01*
X148415238Y-162004380D01*
X148510476Y-162004380D01*
X147748571Y-161004380D02*
X147129523Y-161004380D01*
X147462857Y-161385333D01*
X147320000Y-161385333D01*
X147224761Y-161432952D01*
X147177142Y-161480571D01*
X147129523Y-161575809D01*
X147129523Y-161813904D01*
X147177142Y-161909142D01*
X147224761Y-161956761D01*
X147320000Y-162004380D01*
X147605714Y-162004380D01*
X147700952Y-161956761D01*
X147748571Y-161909142D01*
X146748571Y-161099619D02*
X146700952Y-161052000D01*
X146605714Y-161004380D01*
X146367619Y-161004380D01*
X146272380Y-161052000D01*
X146224761Y-161099619D01*
X146177142Y-161194857D01*
X146177142Y-161290095D01*
X146224761Y-161432952D01*
X146796190Y-162004380D01*
X146177142Y-162004380D01*
D14*
X128542142Y-225798523D02*
X128965476Y-225193761D01*
X129267857Y-225798523D02*
X129267857Y-224528523D01*
X128784047Y-224528523D01*
X128663095Y-224589000D01*
X128602619Y-224649476D01*
X128542142Y-224770428D01*
X128542142Y-224951857D01*
X128602619Y-225072809D01*
X128663095Y-225133285D01*
X128784047Y-225193761D01*
X129267857Y-225193761D01*
X127997857Y-224528523D02*
X127997857Y-225556619D01*
X127937380Y-225677571D01*
X127876904Y-225738047D01*
X127755952Y-225798523D01*
X127514047Y-225798523D01*
X127393095Y-225738047D01*
X127332619Y-225677571D01*
X127272142Y-225556619D01*
X127272142Y-224528523D01*
X126667380Y-225798523D02*
X126667380Y-224528523D01*
X125941666Y-225798523D01*
X125941666Y-224528523D01*
X124671666Y-225798523D02*
X125397380Y-225798523D01*
X125034523Y-225798523D02*
X125034523Y-224528523D01*
X125155476Y-224709952D01*
X125276428Y-224830904D01*
X125397380Y-224891380D01*
X138875666Y-225161285D02*
X138694238Y-225221761D01*
X138633761Y-225282238D01*
X138573285Y-225403190D01*
X138573285Y-225584619D01*
X138633761Y-225705571D01*
X138694238Y-225766047D01*
X138815190Y-225826523D01*
X139299000Y-225826523D01*
X139299000Y-224556523D01*
X138875666Y-224556523D01*
X138754714Y-224617000D01*
X138694238Y-224677476D01*
X138633761Y-224798428D01*
X138633761Y-224919380D01*
X138694238Y-225040333D01*
X138754714Y-225100809D01*
X138875666Y-225161285D01*
X139299000Y-225161285D01*
X137787095Y-224556523D02*
X137545190Y-224556523D01*
X137424238Y-224617000D01*
X137303285Y-224737952D01*
X137242809Y-224979857D01*
X137242809Y-225403190D01*
X137303285Y-225645095D01*
X137424238Y-225766047D01*
X137545190Y-225826523D01*
X137787095Y-225826523D01*
X137908047Y-225766047D01*
X138029000Y-225645095D01*
X138089476Y-225403190D01*
X138089476Y-224979857D01*
X138029000Y-224737952D01*
X137908047Y-224617000D01*
X137787095Y-224556523D01*
X136456619Y-224556523D02*
X136214714Y-224556523D01*
X136093761Y-224617000D01*
X135972809Y-224737952D01*
X135912333Y-224979857D01*
X135912333Y-225403190D01*
X135972809Y-225645095D01*
X136093761Y-225766047D01*
X136214714Y-225826523D01*
X136456619Y-225826523D01*
X136577571Y-225766047D01*
X136698523Y-225645095D01*
X136759000Y-225403190D01*
X136759000Y-224979857D01*
X136698523Y-224737952D01*
X136577571Y-224617000D01*
X136456619Y-224556523D01*
X135549476Y-224556523D02*
X134823761Y-224556523D01*
X135186619Y-225826523D02*
X135186619Y-224556523D01*
X134460904Y-225766047D02*
X134279476Y-225826523D01*
X133977095Y-225826523D01*
X133856142Y-225766047D01*
X133795666Y-225705571D01*
X133735190Y-225584619D01*
X133735190Y-225463666D01*
X133795666Y-225342714D01*
X133856142Y-225282238D01*
X133977095Y-225221761D01*
X134219000Y-225161285D01*
X134339952Y-225100809D01*
X134400428Y-225040333D01*
X134460904Y-224919380D01*
X134460904Y-224798428D01*
X134400428Y-224677476D01*
X134339952Y-224617000D01*
X134219000Y-224556523D01*
X133916619Y-224556523D01*
X133735190Y-224617000D01*
X133190904Y-225161285D02*
X132767571Y-225161285D01*
X132586142Y-225826523D02*
X133190904Y-225826523D01*
X133190904Y-224556523D01*
X132586142Y-224556523D01*
X131437095Y-225826523D02*
X132041857Y-225826523D01*
X132041857Y-224556523D01*
X130348523Y-225826523D02*
X131074238Y-225826523D01*
X130711380Y-225826523D02*
X130711380Y-224556523D01*
X130832333Y-224737952D01*
X130953285Y-224858904D01*
X131074238Y-224919380D01*
X153131761Y-213172523D02*
X153131761Y-211902523D01*
X151801285Y-213051571D02*
X151861761Y-213112047D01*
X152043190Y-213172523D01*
X152164142Y-213172523D01*
X152345571Y-213112047D01*
X152466523Y-212991095D01*
X152527000Y-212870142D01*
X152587476Y-212628238D01*
X152587476Y-212446809D01*
X152527000Y-212204904D01*
X152466523Y-212083952D01*
X152345571Y-211963000D01*
X152164142Y-211902523D01*
X152043190Y-211902523D01*
X151861761Y-211963000D01*
X151801285Y-212023476D01*
X150591761Y-213172523D02*
X151317476Y-213172523D01*
X150954619Y-213172523D02*
X150954619Y-211902523D01*
X151075571Y-212083952D01*
X151196523Y-212204904D01*
X151317476Y-212265380D01*
D10*
X180252380Y-206748214D02*
X179252380Y-206748214D01*
X179252380Y-206986309D01*
X179300000Y-207129166D01*
X179395238Y-207224404D01*
X179490476Y-207272023D01*
X179680952Y-207319642D01*
X179823809Y-207319642D01*
X180014285Y-207272023D01*
X180109523Y-207224404D01*
X180204761Y-207129166D01*
X180252380Y-206986309D01*
X180252380Y-206748214D01*
X179347619Y-207700595D02*
X179300000Y-207748214D01*
X179252380Y-207843452D01*
X179252380Y-208081547D01*
X179300000Y-208176785D01*
X179347619Y-208224404D01*
X179442857Y-208272023D01*
X179538095Y-208272023D01*
X179680952Y-208224404D01*
X180252380Y-207652976D01*
X180252380Y-208272023D01*
X179252380Y-209176785D02*
X179252380Y-208700595D01*
X179728571Y-208652976D01*
X179680952Y-208700595D01*
X179633333Y-208795833D01*
X179633333Y-209033928D01*
X179680952Y-209129166D01*
X179728571Y-209176785D01*
X179823809Y-209224404D01*
X180061904Y-209224404D01*
X180157142Y-209176785D01*
X180204761Y-209129166D01*
X180252380Y-209033928D01*
X180252380Y-208795833D01*
X180204761Y-208700595D01*
X180157142Y-208652976D01*
D14*
X161640761Y-230093761D02*
X161640761Y-230698523D01*
X162064095Y-229428523D02*
X161640761Y-230093761D01*
X161217428Y-229428523D01*
X160128857Y-230698523D02*
X160854571Y-230698523D01*
X160491714Y-230698523D02*
X160491714Y-229428523D01*
X160612666Y-229609952D01*
X160733619Y-229730904D01*
X160854571Y-229791380D01*
D10*
X163234666Y-201874380D02*
X163568000Y-201398190D01*
X163806095Y-201874380D02*
X163806095Y-200874380D01*
X163425142Y-200874380D01*
X163329904Y-200922000D01*
X163282285Y-200969619D01*
X163234666Y-201064857D01*
X163234666Y-201207714D01*
X163282285Y-201302952D01*
X163329904Y-201350571D01*
X163425142Y-201398190D01*
X163806095Y-201398190D01*
X162901333Y-200874380D02*
X162282285Y-200874380D01*
X162615619Y-201255333D01*
X162472761Y-201255333D01*
X162377523Y-201302952D01*
X162329904Y-201350571D01*
X162282285Y-201445809D01*
X162282285Y-201683904D01*
X162329904Y-201779142D01*
X162377523Y-201826761D01*
X162472761Y-201874380D01*
X162758476Y-201874380D01*
X162853714Y-201826761D01*
X162901333Y-201779142D01*
D14*
X169133761Y-205552523D02*
X169133761Y-204282523D01*
X167803285Y-205431571D02*
X167863761Y-205492047D01*
X168045190Y-205552523D01*
X168166142Y-205552523D01*
X168347571Y-205492047D01*
X168468523Y-205371095D01*
X168529000Y-205250142D01*
X168589476Y-205008238D01*
X168589476Y-204826809D01*
X168529000Y-204584904D01*
X168468523Y-204463952D01*
X168347571Y-204343000D01*
X168166142Y-204282523D01*
X168045190Y-204282523D01*
X167863761Y-204343000D01*
X167803285Y-204403476D01*
X167319476Y-204403476D02*
X167259000Y-204343000D01*
X167138047Y-204282523D01*
X166835666Y-204282523D01*
X166714714Y-204343000D01*
X166654238Y-204403476D01*
X166593761Y-204524428D01*
X166593761Y-204645380D01*
X166654238Y-204826809D01*
X167379952Y-205552523D01*
X166593761Y-205552523D01*
D10*
X142343142Y-192619333D02*
X142390761Y-192571714D01*
X142438380Y-192428857D01*
X142438380Y-192333619D01*
X142390761Y-192190761D01*
X142295523Y-192095523D01*
X142200285Y-192047904D01*
X142009809Y-192000285D01*
X141866952Y-192000285D01*
X141676476Y-192047904D01*
X141581238Y-192095523D01*
X141486000Y-192190761D01*
X141438380Y-192333619D01*
X141438380Y-192428857D01*
X141486000Y-192571714D01*
X141533619Y-192619333D01*
X142438380Y-193095523D02*
X142438380Y-193286000D01*
X142390761Y-193381238D01*
X142343142Y-193428857D01*
X142200285Y-193524095D01*
X142009809Y-193571714D01*
X141628857Y-193571714D01*
X141533619Y-193524095D01*
X141486000Y-193476476D01*
X141438380Y-193381238D01*
X141438380Y-193190761D01*
X141486000Y-193095523D01*
X141533619Y-193047904D01*
X141628857Y-193000285D01*
X141866952Y-193000285D01*
X141962190Y-193047904D01*
X142009809Y-193095523D01*
X142057428Y-193190761D01*
X142057428Y-193381238D01*
X142009809Y-193476476D01*
X141962190Y-193524095D01*
X141866952Y-193571714D01*
X158662666Y-220067142D02*
X158710285Y-220114761D01*
X158853142Y-220162380D01*
X158948380Y-220162380D01*
X159091238Y-220114761D01*
X159186476Y-220019523D01*
X159234095Y-219924285D01*
X159281714Y-219733809D01*
X159281714Y-219590952D01*
X159234095Y-219400476D01*
X159186476Y-219305238D01*
X159091238Y-219210000D01*
X158948380Y-219162380D01*
X158853142Y-219162380D01*
X158710285Y-219210000D01*
X158662666Y-219257619D01*
X158329333Y-219162380D02*
X157662666Y-219162380D01*
X158091238Y-220162380D01*
X137072666Y-220321142D02*
X137120285Y-220368761D01*
X137263142Y-220416380D01*
X137358380Y-220416380D01*
X137501238Y-220368761D01*
X137596476Y-220273523D01*
X137644095Y-220178285D01*
X137691714Y-219987809D01*
X137691714Y-219844952D01*
X137644095Y-219654476D01*
X137596476Y-219559238D01*
X137501238Y-219464000D01*
X137358380Y-219416380D01*
X137263142Y-219416380D01*
X137120285Y-219464000D01*
X137072666Y-219511619D01*
X136215523Y-219416380D02*
X136406000Y-219416380D01*
X136501238Y-219464000D01*
X136548857Y-219511619D01*
X136644095Y-219654476D01*
X136691714Y-219844952D01*
X136691714Y-220225904D01*
X136644095Y-220321142D01*
X136596476Y-220368761D01*
X136501238Y-220416380D01*
X136310761Y-220416380D01*
X136215523Y-220368761D01*
X136167904Y-220321142D01*
X136120285Y-220225904D01*
X136120285Y-219987809D01*
X136167904Y-219892571D01*
X136215523Y-219844952D01*
X136310761Y-219797333D01*
X136501238Y-219797333D01*
X136596476Y-219844952D01*
X136644095Y-219892571D01*
X136691714Y-219987809D01*
X158662666Y-221591142D02*
X158710285Y-221638761D01*
X158853142Y-221686380D01*
X158948380Y-221686380D01*
X159091238Y-221638761D01*
X159186476Y-221543523D01*
X159234095Y-221448285D01*
X159281714Y-221257809D01*
X159281714Y-221114952D01*
X159234095Y-220924476D01*
X159186476Y-220829238D01*
X159091238Y-220734000D01*
X158948380Y-220686380D01*
X158853142Y-220686380D01*
X158710285Y-220734000D01*
X158662666Y-220781619D01*
X157757904Y-220686380D02*
X158234095Y-220686380D01*
X158281714Y-221162571D01*
X158234095Y-221114952D01*
X158138857Y-221067333D01*
X157900761Y-221067333D01*
X157805523Y-221114952D01*
X157757904Y-221162571D01*
X157710285Y-221257809D01*
X157710285Y-221495904D01*
X157757904Y-221591142D01*
X157805523Y-221638761D01*
X157900761Y-221686380D01*
X158138857Y-221686380D01*
X158234095Y-221638761D01*
X158281714Y-221591142D01*
X164504666Y-221592142D02*
X164552285Y-221639761D01*
X164695142Y-221687380D01*
X164790380Y-221687380D01*
X164933238Y-221639761D01*
X165028476Y-221544523D01*
X165076095Y-221449285D01*
X165123714Y-221258809D01*
X165123714Y-221115952D01*
X165076095Y-220925476D01*
X165028476Y-220830238D01*
X164933238Y-220735000D01*
X164790380Y-220687380D01*
X164695142Y-220687380D01*
X164552285Y-220735000D01*
X164504666Y-220782619D01*
X163647523Y-221020714D02*
X163647523Y-221687380D01*
X163885619Y-220639761D02*
X164123714Y-221354047D01*
X163504666Y-221354047D01*
X137072666Y-212447142D02*
X137120285Y-212494761D01*
X137263142Y-212542380D01*
X137358380Y-212542380D01*
X137501238Y-212494761D01*
X137596476Y-212399523D01*
X137644095Y-212304285D01*
X137691714Y-212113809D01*
X137691714Y-211970952D01*
X137644095Y-211780476D01*
X137596476Y-211685238D01*
X137501238Y-211590000D01*
X137358380Y-211542380D01*
X137263142Y-211542380D01*
X137120285Y-211590000D01*
X137072666Y-211637619D01*
X136739333Y-211542380D02*
X136120285Y-211542380D01*
X136453619Y-211923333D01*
X136310761Y-211923333D01*
X136215523Y-211970952D01*
X136167904Y-212018571D01*
X136120285Y-212113809D01*
X136120285Y-212351904D01*
X136167904Y-212447142D01*
X136215523Y-212494761D01*
X136310761Y-212542380D01*
X136596476Y-212542380D01*
X136691714Y-212494761D01*
X136739333Y-212447142D01*
X148439142Y-206081333D02*
X148486761Y-206033714D01*
X148534380Y-205890857D01*
X148534380Y-205795619D01*
X148486761Y-205652761D01*
X148391523Y-205557523D01*
X148296285Y-205509904D01*
X148105809Y-205462285D01*
X147962952Y-205462285D01*
X147772476Y-205509904D01*
X147677238Y-205557523D01*
X147582000Y-205652761D01*
X147534380Y-205795619D01*
X147534380Y-205890857D01*
X147582000Y-206033714D01*
X147629619Y-206081333D01*
X147629619Y-206462285D02*
X147582000Y-206509904D01*
X147534380Y-206605142D01*
X147534380Y-206843238D01*
X147582000Y-206938476D01*
X147629619Y-206986095D01*
X147724857Y-207033714D01*
X147820095Y-207033714D01*
X147962952Y-206986095D01*
X148534380Y-206414666D01*
X148534380Y-207033714D01*
X137072666Y-210161142D02*
X137120285Y-210208761D01*
X137263142Y-210256380D01*
X137358380Y-210256380D01*
X137501238Y-210208761D01*
X137596476Y-210113523D01*
X137644095Y-210018285D01*
X137691714Y-209827809D01*
X137691714Y-209684952D01*
X137644095Y-209494476D01*
X137596476Y-209399238D01*
X137501238Y-209304000D01*
X137358380Y-209256380D01*
X137263142Y-209256380D01*
X137120285Y-209304000D01*
X137072666Y-209351619D01*
X136120285Y-210256380D02*
X136691714Y-210256380D01*
X136406000Y-210256380D02*
X136406000Y-209256380D01*
X136501238Y-209399238D01*
X136596476Y-209494476D01*
X136691714Y-209542095D01*
X135942380Y-203298095D02*
X136751904Y-203298095D01*
X136847142Y-203345714D01*
X136894761Y-203393333D01*
X136942380Y-203488571D01*
X136942380Y-203679047D01*
X136894761Y-203774285D01*
X136847142Y-203821904D01*
X136751904Y-203869523D01*
X135942380Y-203869523D01*
X136942380Y-204869523D02*
X136942380Y-204298095D01*
X136942380Y-204583809D02*
X135942380Y-204583809D01*
X136085238Y-204488571D01*
X136180476Y-204393333D01*
X136228095Y-204298095D01*
X159884166Y-201875380D02*
X160217500Y-201399190D01*
X160455595Y-201875380D02*
X160455595Y-200875380D01*
X160074642Y-200875380D01*
X159979404Y-200923000D01*
X159931785Y-200970619D01*
X159884166Y-201065857D01*
X159884166Y-201208714D01*
X159931785Y-201303952D01*
X159979404Y-201351571D01*
X160074642Y-201399190D01*
X160455595Y-201399190D01*
X159550833Y-200875380D02*
X158884166Y-200875380D01*
X159312738Y-201875380D01*
X151074380Y-228179333D02*
X150598190Y-227846000D01*
X151074380Y-227607904D02*
X150074380Y-227607904D01*
X150074380Y-227988857D01*
X150122000Y-228084095D01*
X150169619Y-228131714D01*
X150264857Y-228179333D01*
X150407714Y-228179333D01*
X150502952Y-228131714D01*
X150550571Y-228084095D01*
X150598190Y-227988857D01*
X150598190Y-227607904D01*
X150074380Y-229036476D02*
X150074380Y-228846000D01*
X150122000Y-228750761D01*
X150169619Y-228703142D01*
X150312476Y-228607904D01*
X150502952Y-228560285D01*
X150883904Y-228560285D01*
X150979142Y-228607904D01*
X151026761Y-228655523D01*
X151074380Y-228750761D01*
X151074380Y-228941238D01*
X151026761Y-229036476D01*
X150979142Y-229084095D01*
X150883904Y-229131714D01*
X150645809Y-229131714D01*
X150550571Y-229084095D01*
X150502952Y-229036476D01*
X150455333Y-228941238D01*
X150455333Y-228750761D01*
X150502952Y-228655523D01*
X150550571Y-228607904D01*
X150645809Y-228560285D01*
X173680380Y-221829333D02*
X173204190Y-221496000D01*
X173680380Y-221257904D02*
X172680380Y-221257904D01*
X172680380Y-221638857D01*
X172728000Y-221734095D01*
X172775619Y-221781714D01*
X172870857Y-221829333D01*
X173013714Y-221829333D01*
X173108952Y-221781714D01*
X173156571Y-221734095D01*
X173204190Y-221638857D01*
X173204190Y-221257904D01*
X172680380Y-222734095D02*
X172680380Y-222257904D01*
X173156571Y-222210285D01*
X173108952Y-222257904D01*
X173061333Y-222353142D01*
X173061333Y-222591238D01*
X173108952Y-222686476D01*
X173156571Y-222734095D01*
X173251809Y-222781714D01*
X173489904Y-222781714D01*
X173585142Y-222734095D01*
X173632761Y-222686476D01*
X173680380Y-222591238D01*
X173680380Y-222353142D01*
X173632761Y-222257904D01*
X173585142Y-222210285D01*
X171648380Y-221829333D02*
X171172190Y-221496000D01*
X171648380Y-221257904D02*
X170648380Y-221257904D01*
X170648380Y-221638857D01*
X170696000Y-221734095D01*
X170743619Y-221781714D01*
X170838857Y-221829333D01*
X170981714Y-221829333D01*
X171076952Y-221781714D01*
X171124571Y-221734095D01*
X171172190Y-221638857D01*
X171172190Y-221257904D01*
X170981714Y-222686476D02*
X171648380Y-222686476D01*
X170600761Y-222448380D02*
X171315047Y-222210285D01*
X171315047Y-222829333D01*
X147931142Y-227957142D02*
X147978761Y-227909523D01*
X148026380Y-227766666D01*
X148026380Y-227671428D01*
X147978761Y-227528571D01*
X147883523Y-227433333D01*
X147788285Y-227385714D01*
X147597809Y-227338095D01*
X147454952Y-227338095D01*
X147264476Y-227385714D01*
X147169238Y-227433333D01*
X147074000Y-227528571D01*
X147026380Y-227671428D01*
X147026380Y-227766666D01*
X147074000Y-227909523D01*
X147121619Y-227957142D01*
X148026380Y-228909523D02*
X148026380Y-228338095D01*
X148026380Y-228623809D02*
X147026380Y-228623809D01*
X147169238Y-228528571D01*
X147264476Y-228433333D01*
X147312095Y-228338095D01*
X147026380Y-229242857D02*
X147026380Y-229909523D01*
X148026380Y-229480952D01*
X158630857Y-214987142D02*
X158678476Y-215034761D01*
X158821333Y-215082380D01*
X158916571Y-215082380D01*
X159059428Y-215034761D01*
X159154666Y-214939523D01*
X159202285Y-214844285D01*
X159249904Y-214653809D01*
X159249904Y-214510952D01*
X159202285Y-214320476D01*
X159154666Y-214225238D01*
X159059428Y-214130000D01*
X158916571Y-214082380D01*
X158821333Y-214082380D01*
X158678476Y-214130000D01*
X158630857Y-214177619D01*
X157678476Y-215082380D02*
X158249904Y-215082380D01*
X157964190Y-215082380D02*
X157964190Y-214082380D01*
X158059428Y-214225238D01*
X158154666Y-214320476D01*
X158249904Y-214368095D01*
X156821333Y-214082380D02*
X157011809Y-214082380D01*
X157107047Y-214130000D01*
X157154666Y-214177619D01*
X157249904Y-214320476D01*
X157297523Y-214510952D01*
X157297523Y-214891904D01*
X157249904Y-214987142D01*
X157202285Y-215034761D01*
X157107047Y-215082380D01*
X156916571Y-215082380D01*
X156821333Y-215034761D01*
X156773714Y-214987142D01*
X156726095Y-214891904D01*
X156726095Y-214653809D01*
X156773714Y-214558571D01*
X156821333Y-214510952D01*
X156916571Y-214463333D01*
X157107047Y-214463333D01*
X157202285Y-214510952D01*
X157249904Y-214558571D01*
X157297523Y-214653809D01*
X150979142Y-202049142D02*
X151026761Y-202001523D01*
X151074380Y-201858666D01*
X151074380Y-201763428D01*
X151026761Y-201620571D01*
X150931523Y-201525333D01*
X150836285Y-201477714D01*
X150645809Y-201430095D01*
X150502952Y-201430095D01*
X150312476Y-201477714D01*
X150217238Y-201525333D01*
X150122000Y-201620571D01*
X150074380Y-201763428D01*
X150074380Y-201858666D01*
X150122000Y-202001523D01*
X150169619Y-202049142D01*
X151074380Y-203001523D02*
X151074380Y-202430095D01*
X151074380Y-202715809D02*
X150074380Y-202715809D01*
X150217238Y-202620571D01*
X150312476Y-202525333D01*
X150360095Y-202430095D01*
X150074380Y-203906285D02*
X150074380Y-203430095D01*
X150550571Y-203382476D01*
X150502952Y-203430095D01*
X150455333Y-203525333D01*
X150455333Y-203763428D01*
X150502952Y-203858666D01*
X150550571Y-203906285D01*
X150645809Y-203953904D01*
X150883904Y-203953904D01*
X150979142Y-203906285D01*
X151026761Y-203858666D01*
X151074380Y-203763428D01*
X151074380Y-203525333D01*
X151026761Y-203430095D01*
X150979142Y-203382476D01*
X145899142Y-227957142D02*
X145946761Y-227909523D01*
X145994380Y-227766666D01*
X145994380Y-227671428D01*
X145946761Y-227528571D01*
X145851523Y-227433333D01*
X145756285Y-227385714D01*
X145565809Y-227338095D01*
X145422952Y-227338095D01*
X145232476Y-227385714D01*
X145137238Y-227433333D01*
X145042000Y-227528571D01*
X144994380Y-227671428D01*
X144994380Y-227766666D01*
X145042000Y-227909523D01*
X145089619Y-227957142D01*
X145994380Y-228909523D02*
X145994380Y-228338095D01*
X145994380Y-228623809D02*
X144994380Y-228623809D01*
X145137238Y-228528571D01*
X145232476Y-228433333D01*
X145280095Y-228338095D01*
X145327714Y-229766666D02*
X145994380Y-229766666D01*
X144946761Y-229528571D02*
X145661047Y-229290476D01*
X145661047Y-229909523D01*
X152571142Y-208769142D02*
X152618761Y-208721523D01*
X152666380Y-208578666D01*
X152666380Y-208483428D01*
X152618761Y-208340571D01*
X152523523Y-208245333D01*
X152428285Y-208197714D01*
X152237809Y-208150095D01*
X152094952Y-208150095D01*
X151904476Y-208197714D01*
X151809238Y-208245333D01*
X151714000Y-208340571D01*
X151666380Y-208483428D01*
X151666380Y-208578666D01*
X151714000Y-208721523D01*
X151761619Y-208769142D01*
X152666380Y-209721523D02*
X152666380Y-209150095D01*
X152666380Y-209435809D02*
X151666380Y-209435809D01*
X151809238Y-209340571D01*
X151904476Y-209245333D01*
X151952095Y-209150095D01*
X151666380Y-210054857D02*
X151666380Y-210673904D01*
X152047333Y-210340571D01*
X152047333Y-210483428D01*
X152094952Y-210578666D01*
X152142571Y-210626285D01*
X152237809Y-210673904D01*
X152475904Y-210673904D01*
X152571142Y-210626285D01*
X152618761Y-210578666D01*
X152666380Y-210483428D01*
X152666380Y-210197714D01*
X152618761Y-210102476D01*
X152571142Y-210054857D01*
X145645142Y-206621142D02*
X145692761Y-206573523D01*
X145740380Y-206430666D01*
X145740380Y-206335428D01*
X145692761Y-206192571D01*
X145597523Y-206097333D01*
X145502285Y-206049714D01*
X145311809Y-206002095D01*
X145168952Y-206002095D01*
X144978476Y-206049714D01*
X144883238Y-206097333D01*
X144788000Y-206192571D01*
X144740380Y-206335428D01*
X144740380Y-206430666D01*
X144788000Y-206573523D01*
X144835619Y-206621142D01*
X145740380Y-207573523D02*
X145740380Y-207002095D01*
X145740380Y-207287809D02*
X144740380Y-207287809D01*
X144883238Y-207192571D01*
X144978476Y-207097333D01*
X145026095Y-207002095D01*
X144835619Y-207954476D02*
X144788000Y-208002095D01*
X144740380Y-208097333D01*
X144740380Y-208335428D01*
X144788000Y-208430666D01*
X144835619Y-208478285D01*
X144930857Y-208525904D01*
X145026095Y-208525904D01*
X145168952Y-208478285D01*
X145740380Y-207906857D01*
X145740380Y-208525904D01*
X140057142Y-192651142D02*
X140104761Y-192603523D01*
X140152380Y-192460666D01*
X140152380Y-192365428D01*
X140104761Y-192222571D01*
X140009523Y-192127333D01*
X139914285Y-192079714D01*
X139723809Y-192032095D01*
X139580952Y-192032095D01*
X139390476Y-192079714D01*
X139295238Y-192127333D01*
X139200000Y-192222571D01*
X139152380Y-192365428D01*
X139152380Y-192460666D01*
X139200000Y-192603523D01*
X139247619Y-192651142D01*
X140152380Y-193603523D02*
X140152380Y-193032095D01*
X140152380Y-193317809D02*
X139152380Y-193317809D01*
X139295238Y-193222571D01*
X139390476Y-193127333D01*
X139438095Y-193032095D01*
X140152380Y-194555904D02*
X140152380Y-193984476D01*
X140152380Y-194270190D02*
X139152380Y-194270190D01*
X139295238Y-194174952D01*
X139390476Y-194079714D01*
X139438095Y-193984476D01*
X137040857Y-214733142D02*
X137088476Y-214780761D01*
X137231333Y-214828380D01*
X137326571Y-214828380D01*
X137469428Y-214780761D01*
X137564666Y-214685523D01*
X137612285Y-214590285D01*
X137659904Y-214399809D01*
X137659904Y-214256952D01*
X137612285Y-214066476D01*
X137564666Y-213971238D01*
X137469428Y-213876000D01*
X137326571Y-213828380D01*
X137231333Y-213828380D01*
X137088476Y-213876000D01*
X137040857Y-213923619D01*
X136088476Y-214828380D02*
X136659904Y-214828380D01*
X136374190Y-214828380D02*
X136374190Y-213828380D01*
X136469428Y-213971238D01*
X136564666Y-214066476D01*
X136659904Y-214114095D01*
X135469428Y-213828380D02*
X135374190Y-213828380D01*
X135278952Y-213876000D01*
X135231333Y-213923619D01*
X135183714Y-214018857D01*
X135136095Y-214209333D01*
X135136095Y-214447428D01*
X135183714Y-214637904D01*
X135231333Y-214733142D01*
X135278952Y-214780761D01*
X135374190Y-214828380D01*
X135469428Y-214828380D01*
X135564666Y-214780761D01*
X135612285Y-214733142D01*
X135659904Y-214637904D01*
X135707523Y-214447428D01*
X135707523Y-214209333D01*
X135659904Y-214018857D01*
X135612285Y-213923619D01*
X135564666Y-213876000D01*
X135469428Y-213828380D01*
X148026380Y-185761333D02*
X147550190Y-185428000D01*
X148026380Y-185189904D02*
X147026380Y-185189904D01*
X147026380Y-185570857D01*
X147074000Y-185666095D01*
X147121619Y-185713714D01*
X147216857Y-185761333D01*
X147359714Y-185761333D01*
X147454952Y-185713714D01*
X147502571Y-185666095D01*
X147550190Y-185570857D01*
X147550190Y-185189904D01*
X147121619Y-186142285D02*
X147074000Y-186189904D01*
X147026380Y-186285142D01*
X147026380Y-186523238D01*
X147074000Y-186618476D01*
X147121619Y-186666095D01*
X147216857Y-186713714D01*
X147312095Y-186713714D01*
X147454952Y-186666095D01*
X148026380Y-186094666D01*
X148026380Y-186713714D01*
X145994380Y-185761333D02*
X145518190Y-185428000D01*
X145994380Y-185189904D02*
X144994380Y-185189904D01*
X144994380Y-185570857D01*
X145042000Y-185666095D01*
X145089619Y-185713714D01*
X145184857Y-185761333D01*
X145327714Y-185761333D01*
X145422952Y-185713714D01*
X145470571Y-185666095D01*
X145518190Y-185570857D01*
X145518190Y-185189904D01*
X145994380Y-186713714D02*
X145994380Y-186142285D01*
X145994380Y-186428000D02*
X144994380Y-186428000D01*
X145137238Y-186332761D01*
X145232476Y-186237523D01*
X145280095Y-186142285D01*
X144750571Y-164642666D02*
X144750571Y-164309333D01*
X145274380Y-164309333D02*
X144274380Y-164309333D01*
X144274380Y-164785523D01*
X145274380Y-165690285D02*
X145274380Y-165118857D01*
X145274380Y-165404571D02*
X144274380Y-165404571D01*
X144417238Y-165309333D01*
X144512476Y-165214095D01*
X144560095Y-165118857D01*
X233457746Y-193523207D02*
X233083139Y-192596023D01*
X233041654Y-193383166D01*
X232465017Y-192845761D01*
X232839623Y-193772944D01*
X232111804Y-192988468D02*
X231868288Y-194165389D01*
X231493681Y-193238206D02*
X232486411Y-193915652D01*
X231228772Y-193345236D02*
X230654801Y-193577135D01*
X231106569Y-193805479D01*
X230974114Y-193858995D01*
X230903650Y-193938823D01*
X230877336Y-194000813D01*
X230868862Y-194106955D01*
X230958054Y-194327713D01*
X231037882Y-194398178D01*
X231099872Y-194424491D01*
X231206014Y-194432966D01*
X231470923Y-194325935D01*
X231541388Y-194246107D01*
X231567702Y-194184117D01*
X230285527Y-194188561D02*
X230355992Y-194108732D01*
X230382305Y-194046742D01*
X230390780Y-193940601D01*
X230372942Y-193896449D01*
X230293113Y-193825984D01*
X230231123Y-193799671D01*
X230124981Y-193791196D01*
X229948375Y-193862550D01*
X229877910Y-193942378D01*
X229851597Y-194004368D01*
X229843122Y-194110510D01*
X229860961Y-194154662D01*
X229940789Y-194225126D01*
X230002779Y-194251440D01*
X230108921Y-194259914D01*
X230285527Y-194188561D01*
X230391669Y-194197036D01*
X230453659Y-194223349D01*
X230533487Y-194293814D01*
X230604841Y-194470420D01*
X230596366Y-194576562D01*
X230570053Y-194638552D01*
X230499588Y-194718380D01*
X230322982Y-194789734D01*
X230216840Y-194781259D01*
X230154850Y-194754946D01*
X230075021Y-194684481D01*
X230003668Y-194507874D01*
X230012143Y-194401733D01*
X230038456Y-194339743D01*
X230108921Y-194259914D01*
X180983524Y-162415234D02*
X180608917Y-161488050D01*
X180567432Y-162275193D01*
X179990795Y-161737788D01*
X180365401Y-162664971D01*
X179637582Y-161880495D02*
X179394066Y-163057416D01*
X179019459Y-162130233D02*
X180012189Y-162807679D01*
X178746075Y-162343405D02*
X178684085Y-162317091D01*
X178577943Y-162308617D01*
X178357185Y-162397809D01*
X178286720Y-162477637D01*
X178260407Y-162539627D01*
X178251932Y-162645769D01*
X178287609Y-162734072D01*
X178385276Y-162848688D01*
X179129156Y-163164447D01*
X178555185Y-163396346D01*
X177871517Y-162594031D02*
X177253395Y-162843769D01*
X178025366Y-163610407D01*
X187539139Y-178640951D02*
X187164532Y-177713767D01*
X187123047Y-178500910D01*
X186546410Y-177963505D01*
X186921016Y-178890688D01*
X186193197Y-178106212D02*
X185949681Y-179283133D01*
X185575074Y-178355950D02*
X186567804Y-179033396D01*
X185301690Y-178569122D02*
X185239700Y-178542808D01*
X185133558Y-178534334D01*
X184912800Y-178623526D01*
X184842335Y-178703354D01*
X184816022Y-178765344D01*
X184807547Y-178871486D01*
X184843224Y-178959789D01*
X184940891Y-179074405D01*
X185684771Y-179390164D01*
X185110800Y-179622063D01*
X184366920Y-179306305D02*
X184437385Y-179226476D01*
X184463698Y-179164486D01*
X184472173Y-179058345D01*
X184454335Y-179014193D01*
X184374506Y-178943728D01*
X184312516Y-178917415D01*
X184206374Y-178908940D01*
X184029768Y-178980294D01*
X183959303Y-179060122D01*
X183932990Y-179122112D01*
X183924515Y-179228254D01*
X183942354Y-179272406D01*
X184022182Y-179342870D01*
X184084172Y-179369184D01*
X184190314Y-179377658D01*
X184366920Y-179306305D01*
X184473062Y-179314780D01*
X184535052Y-179341093D01*
X184614880Y-179411558D01*
X184686234Y-179588164D01*
X184677759Y-179694306D01*
X184651446Y-179756296D01*
X184580981Y-179836124D01*
X184404375Y-179907478D01*
X184298233Y-179899003D01*
X184236243Y-179872690D01*
X184156414Y-179802225D01*
X184085061Y-179625618D01*
X184093536Y-179519477D01*
X184119849Y-179457487D01*
X184190314Y-179377658D01*
X194094754Y-194866669D02*
X193720147Y-193939485D01*
X193678662Y-194726628D01*
X193102025Y-194189223D01*
X193476631Y-195116406D01*
X192748812Y-194331930D02*
X192505296Y-195508851D01*
X192130689Y-194581668D02*
X193123419Y-195259114D01*
X191857305Y-194794840D02*
X191795315Y-194768526D01*
X191689173Y-194760052D01*
X191468415Y-194849244D01*
X191397950Y-194929072D01*
X191371637Y-194991062D01*
X191363162Y-195097204D01*
X191398839Y-195185507D01*
X191496506Y-195300123D01*
X192240386Y-195615882D01*
X191666415Y-195847781D01*
X191224899Y-196026165D02*
X191048293Y-196097519D01*
X190942151Y-196089044D01*
X190880161Y-196062731D01*
X190738343Y-195965953D01*
X190622837Y-195807185D01*
X190480130Y-195453972D01*
X190488605Y-195347830D01*
X190514918Y-195285840D01*
X190585383Y-195206012D01*
X190761989Y-195134658D01*
X190868131Y-195143133D01*
X190930121Y-195169446D01*
X191009950Y-195239911D01*
X191099142Y-195460669D01*
X191090667Y-195566811D01*
X191064354Y-195628801D01*
X190993889Y-195708629D01*
X190817282Y-195779983D01*
X190711141Y-195771508D01*
X190649151Y-195745195D01*
X190569322Y-195674730D01*
X214431812Y-195817510D02*
X214057205Y-194890326D01*
X214015720Y-195677469D01*
X213439083Y-195140064D01*
X213813689Y-196067247D01*
X213085870Y-195282771D02*
X212842354Y-196459692D01*
X212467747Y-195532509D02*
X213460477Y-196209955D01*
X212202838Y-195639539D02*
X211628867Y-195871438D01*
X212080635Y-196099782D01*
X211948180Y-196153298D01*
X211877716Y-196233126D01*
X211851402Y-196295116D01*
X211842928Y-196401258D01*
X211932120Y-196622016D01*
X212011948Y-196692481D01*
X212073938Y-196718794D01*
X212180080Y-196727269D01*
X212444989Y-196620238D01*
X212515454Y-196540410D01*
X212541768Y-196478420D01*
X210959007Y-196501591D02*
X211208744Y-197119714D01*
X211037057Y-196059186D02*
X211525392Y-196632268D01*
X210951421Y-196864167D01*
X121445201Y-149628420D02*
X121819808Y-148701236D01*
X121243170Y-149238641D01*
X121201685Y-148451498D01*
X120827079Y-149378682D01*
X120848472Y-148308791D02*
X119855743Y-148986237D01*
X120230350Y-148059053D02*
X120473866Y-149235975D01*
X119016863Y-148647307D02*
X119546682Y-148861368D01*
X119281772Y-148754338D02*
X119656379Y-147827154D01*
X119691167Y-147995286D01*
X119743793Y-148119266D01*
X119814258Y-148199094D01*
X118552589Y-147381194D02*
X118994105Y-147559578D01*
X118859872Y-148018932D01*
X118833559Y-147956942D01*
X118763094Y-147877114D01*
X118542336Y-147787922D01*
X118436194Y-147796397D01*
X118374204Y-147822710D01*
X118294376Y-147893175D01*
X118205184Y-148113933D01*
X118213659Y-148220074D01*
X118239972Y-148282064D01*
X118310437Y-148361893D01*
X118531195Y-148451085D01*
X118637336Y-148442610D01*
X118699327Y-148416297D01*
X169262418Y-182789622D02*
X168887811Y-181862438D01*
X168846326Y-182649581D01*
X168269689Y-182112176D01*
X168644295Y-183039359D01*
X167916476Y-182254883D02*
X167672960Y-183431804D01*
X167298353Y-182504621D02*
X168291083Y-183182067D01*
X167024969Y-182717793D02*
X166962979Y-182691479D01*
X166856837Y-182683005D01*
X166636079Y-182772197D01*
X166565614Y-182852025D01*
X166539301Y-182914015D01*
X166530826Y-183020157D01*
X166566503Y-183108460D01*
X166664170Y-183223076D01*
X167408050Y-183538835D01*
X166834079Y-183770734D01*
X165789613Y-183473703D02*
X166039350Y-184091826D01*
X165867663Y-183031298D02*
X166355998Y-183604380D01*
X165782027Y-183836279D01*
X68970978Y-180736393D02*
X69345585Y-179809209D01*
X68768947Y-180346614D01*
X68727462Y-179559471D01*
X68352856Y-180486655D01*
X68374249Y-179416764D02*
X67381520Y-180094210D01*
X67756127Y-179167026D02*
X67999643Y-180343948D01*
X66542640Y-179755280D02*
X67072459Y-179969341D01*
X66807549Y-179862311D02*
X67182156Y-178935127D01*
X67216944Y-179103259D01*
X67269570Y-179227239D01*
X67340035Y-179307067D01*
X66343275Y-178596197D02*
X66254972Y-178560520D01*
X66148830Y-178568995D01*
X66086840Y-178595308D01*
X66007012Y-178665773D01*
X65891507Y-178824541D01*
X65802315Y-179045299D01*
X65775113Y-179239744D01*
X65783587Y-179345886D01*
X65809901Y-179407876D01*
X65880365Y-179487704D01*
X65968669Y-179523381D01*
X66074810Y-179514906D01*
X66136800Y-179488593D01*
X66216629Y-179418128D01*
X66332134Y-179259360D01*
X66421326Y-179038602D01*
X66448528Y-178844157D01*
X66440053Y-178738016D01*
X66413740Y-178676026D01*
X66343275Y-178596197D01*
X87996912Y-183030696D02*
X88371519Y-182103512D01*
X87794881Y-182640917D01*
X87753396Y-181853774D01*
X87378790Y-182780958D01*
X87400183Y-181711067D02*
X86407454Y-182388513D01*
X86782061Y-181461329D02*
X87025577Y-182638251D01*
X85568574Y-182049583D02*
X86098393Y-182263644D01*
X85833483Y-182156614D02*
X86208090Y-181229430D01*
X86242878Y-181397562D01*
X86295504Y-181521542D01*
X86365969Y-181601370D01*
X85023582Y-181110370D02*
X84773845Y-181728492D01*
X85387048Y-180846349D02*
X85340230Y-181597815D01*
X84766259Y-181365916D01*
X108333970Y-182079855D02*
X108708577Y-181152671D01*
X108131939Y-181690076D01*
X108090454Y-180902933D01*
X107715848Y-181830117D01*
X107737241Y-180760226D02*
X106744512Y-181437672D01*
X107119119Y-180510488D02*
X107362635Y-181687410D01*
X105905632Y-181098742D02*
X106435451Y-181312803D01*
X106170541Y-181205773D02*
X106545148Y-180278589D01*
X106579936Y-180446721D01*
X106632562Y-180570701D01*
X106703027Y-180650529D01*
X105971177Y-180046690D02*
X105353054Y-179796952D01*
X105375812Y-180884682D01*
X175818033Y-199015339D02*
X175443426Y-198088155D01*
X175401941Y-198875298D01*
X174825304Y-198337893D01*
X175199910Y-199265076D01*
X174472091Y-198480600D02*
X174228575Y-199657521D01*
X173853968Y-198730338D02*
X174846698Y-199407784D01*
X173580584Y-198943510D02*
X173518594Y-198917196D01*
X173412452Y-198908722D01*
X173191694Y-198997914D01*
X173121229Y-199077742D01*
X173094916Y-199139732D01*
X173086441Y-199245874D01*
X173122118Y-199334177D01*
X173219785Y-199448793D01*
X173963665Y-199764552D01*
X173389694Y-199996451D01*
X172176207Y-199408197D02*
X172617723Y-199229813D01*
X172840259Y-199653491D01*
X172778269Y-199627178D01*
X172672127Y-199618703D01*
X172451369Y-199707895D01*
X172380904Y-199787723D01*
X172354591Y-199849713D01*
X172346116Y-199955855D01*
X172435308Y-200176613D01*
X172515137Y-200247078D01*
X172577127Y-200273391D01*
X172683269Y-200281866D01*
X172904027Y-200192674D01*
X172974491Y-200112845D01*
X173000805Y-200050855D01*
X139721922Y-153777090D02*
X140096529Y-152849906D01*
X139519891Y-153387311D01*
X139478406Y-152600168D01*
X139103800Y-153527352D01*
X139125193Y-152457461D02*
X138132464Y-153134907D01*
X138507071Y-152207723D02*
X138750587Y-153384645D01*
X137293584Y-152795977D02*
X137823403Y-153010038D01*
X137558493Y-152903008D02*
X137933100Y-151975824D01*
X137967888Y-152143956D01*
X138020514Y-152267936D01*
X138090979Y-152347764D01*
X136852067Y-152617593D02*
X136675461Y-152546240D01*
X136604996Y-152466411D01*
X136578683Y-152404421D01*
X136543895Y-152236290D01*
X136571097Y-152041845D01*
X136713804Y-151688632D01*
X136793633Y-151618167D01*
X136855623Y-151591854D01*
X136961764Y-151583379D01*
X137138371Y-151654733D01*
X137208836Y-151734561D01*
X137235149Y-151796551D01*
X137243624Y-151902693D01*
X137154432Y-152123451D01*
X137074603Y-152193916D01*
X137012613Y-152220229D01*
X136906472Y-152228704D01*
X136729865Y-152157350D01*
X136659400Y-152077522D01*
X136633087Y-152015532D01*
X136624612Y-151909390D01*
X126610691Y-186228525D02*
X126985298Y-185301341D01*
X126408660Y-185838746D01*
X126367175Y-185051603D01*
X125992569Y-185978787D01*
X126013962Y-184908896D02*
X125021233Y-185586342D01*
X125395840Y-184659158D02*
X125639356Y-185836080D01*
X125051102Y-184622593D02*
X125024789Y-184560603D01*
X124954324Y-184480774D01*
X124733566Y-184391582D01*
X124627424Y-184400057D01*
X124565434Y-184426370D01*
X124485606Y-184496835D01*
X124449929Y-184585138D01*
X124440565Y-184735432D01*
X124756324Y-185479312D01*
X124182353Y-185247412D01*
X123299320Y-184890644D02*
X123829140Y-185104705D01*
X123564230Y-184997675D02*
X123938837Y-184070491D01*
X123973625Y-184238623D01*
X124026251Y-184362603D01*
X124096716Y-184442431D01*
X133166306Y-170002808D02*
X133540913Y-169075624D01*
X132964275Y-169613029D01*
X132922790Y-168825886D01*
X132548184Y-169753070D01*
X132569577Y-168683179D02*
X131576848Y-169360625D01*
X131951455Y-168433441D02*
X132194971Y-169610363D01*
X131606717Y-168396876D02*
X131580404Y-168334886D01*
X131509939Y-168255057D01*
X131289181Y-168165865D01*
X131183039Y-168174340D01*
X131121049Y-168200653D01*
X131041221Y-168271118D01*
X131005544Y-168359421D01*
X130996180Y-168509715D01*
X131311939Y-169253595D01*
X130737968Y-169021695D01*
X130538603Y-167862612D02*
X130450300Y-167826935D01*
X130344158Y-167835410D01*
X130282168Y-167861723D01*
X130202340Y-167932188D01*
X130086835Y-168090956D01*
X129997643Y-168311714D01*
X129970441Y-168506159D01*
X129978915Y-168612301D01*
X130005229Y-168674291D01*
X130075693Y-168754119D01*
X130163997Y-168789796D01*
X130270138Y-168781321D01*
X130332128Y-168755008D01*
X130411957Y-168684543D01*
X130527462Y-168525775D01*
X130616654Y-168305017D01*
X130643856Y-168110572D01*
X130635381Y-168004431D01*
X130609068Y-167942441D01*
X130538603Y-167862612D01*
X162706803Y-166563904D02*
X162332196Y-165636720D01*
X162290711Y-166423863D01*
X161714074Y-165886458D01*
X162088680Y-166813641D01*
X161360861Y-166029165D02*
X161117345Y-167206086D01*
X160742738Y-166278903D02*
X161735468Y-166956349D01*
X160469354Y-166492075D02*
X160407364Y-166465761D01*
X160301222Y-166457287D01*
X160080464Y-166546479D01*
X160009999Y-166626307D01*
X159983686Y-166688297D01*
X159975211Y-166794439D01*
X160010888Y-166882742D01*
X160108555Y-166997358D01*
X160852435Y-167313117D01*
X160278464Y-167545016D01*
X159594796Y-166742701D02*
X159020826Y-166974601D01*
X159472594Y-167202945D01*
X159340139Y-167256460D01*
X159269674Y-167336288D01*
X159243361Y-167398278D01*
X159234886Y-167504420D01*
X159324078Y-167725178D01*
X159403907Y-167795643D01*
X159465897Y-167821956D01*
X159572039Y-167830431D01*
X159836948Y-167723400D01*
X159907413Y-167643572D01*
X159933726Y-167581582D01*
X114889585Y-165854137D02*
X115264192Y-164926953D01*
X114687554Y-165464358D01*
X114646069Y-164677215D01*
X114271463Y-165604399D01*
X114292856Y-164534508D02*
X113300127Y-165211954D01*
X113674734Y-164284770D02*
X113918250Y-165461692D01*
X112461247Y-164873024D02*
X112991066Y-165087085D01*
X112726156Y-164980055D02*
X113100763Y-164052871D01*
X113135551Y-164221003D01*
X113188177Y-164344983D01*
X113258642Y-164424811D01*
X112041124Y-163624749D02*
X112217731Y-163696103D01*
X112288195Y-163775931D01*
X112314509Y-163837921D01*
X112349297Y-164006053D01*
X112322095Y-164200498D01*
X112179387Y-164553711D01*
X112099559Y-164624176D01*
X112037569Y-164650489D01*
X111931427Y-164658964D01*
X111754821Y-164587610D01*
X111684356Y-164507781D01*
X111658043Y-164445791D01*
X111649568Y-164339650D01*
X111738760Y-164118892D01*
X111818588Y-164048427D01*
X111880578Y-164022114D01*
X111986720Y-164013639D01*
X112163327Y-164084993D01*
X112233791Y-164164821D01*
X112260105Y-164226811D01*
X112268579Y-164332953D01*
X196921130Y-206748214D02*
X195921130Y-206748214D01*
X195921130Y-206986309D01*
X195968750Y-207129166D01*
X196063988Y-207224404D01*
X196159226Y-207272023D01*
X196349702Y-207319642D01*
X196492559Y-207319642D01*
X196683035Y-207272023D01*
X196778273Y-207224404D01*
X196873511Y-207129166D01*
X196921130Y-206986309D01*
X196921130Y-206748214D01*
X196254464Y-208176785D02*
X196921130Y-208176785D01*
X195873511Y-207938690D02*
X196587797Y-207700595D01*
X196587797Y-208319642D01*
X196254464Y-209129166D02*
X196921130Y-209129166D01*
X195873511Y-208891071D02*
X196587797Y-208652976D01*
X196587797Y-209272023D01*
X194539880Y-206748214D02*
X193539880Y-206748214D01*
X193539880Y-206986309D01*
X193587500Y-207129166D01*
X193682738Y-207224404D01*
X193777976Y-207272023D01*
X193968452Y-207319642D01*
X194111309Y-207319642D01*
X194301785Y-207272023D01*
X194397023Y-207224404D01*
X194492261Y-207129166D01*
X194539880Y-206986309D01*
X194539880Y-206748214D01*
X193873214Y-208176785D02*
X194539880Y-208176785D01*
X193492261Y-207938690D02*
X194206547Y-207700595D01*
X194206547Y-208319642D01*
X193539880Y-208605357D02*
X193539880Y-209224404D01*
X193920833Y-208891071D01*
X193920833Y-209033928D01*
X193968452Y-209129166D01*
X194016071Y-209176785D01*
X194111309Y-209224404D01*
X194349404Y-209224404D01*
X194444642Y-209176785D01*
X194492261Y-209129166D01*
X194539880Y-209033928D01*
X194539880Y-208748214D01*
X194492261Y-208652976D01*
X194444642Y-208605357D01*
X182633630Y-206748214D02*
X181633630Y-206748214D01*
X181633630Y-206986309D01*
X181681250Y-207129166D01*
X181776488Y-207224404D01*
X181871726Y-207272023D01*
X182062202Y-207319642D01*
X182205059Y-207319642D01*
X182395535Y-207272023D01*
X182490773Y-207224404D01*
X182586011Y-207129166D01*
X182633630Y-206986309D01*
X182633630Y-206748214D01*
X181966964Y-208176785D02*
X182633630Y-208176785D01*
X181586011Y-207938690D02*
X182300297Y-207700595D01*
X182300297Y-208319642D01*
X181728869Y-208652976D02*
X181681250Y-208700595D01*
X181633630Y-208795833D01*
X181633630Y-209033928D01*
X181681250Y-209129166D01*
X181728869Y-209176785D01*
X181824107Y-209224404D01*
X181919345Y-209224404D01*
X182062202Y-209176785D01*
X182633630Y-208605357D01*
X182633630Y-209224404D01*
X185014880Y-206748214D02*
X184014880Y-206748214D01*
X184014880Y-206986309D01*
X184062500Y-207129166D01*
X184157738Y-207224404D01*
X184252976Y-207272023D01*
X184443452Y-207319642D01*
X184586309Y-207319642D01*
X184776785Y-207272023D01*
X184872023Y-207224404D01*
X184967261Y-207129166D01*
X185014880Y-206986309D01*
X185014880Y-206748214D01*
X184348214Y-208176785D02*
X185014880Y-208176785D01*
X183967261Y-207938690D02*
X184681547Y-207700595D01*
X184681547Y-208319642D01*
X185014880Y-209224404D02*
X185014880Y-208652976D01*
X185014880Y-208938690D02*
X184014880Y-208938690D01*
X184157738Y-208843452D01*
X184252976Y-208748214D01*
X184300595Y-208652976D01*
X187396130Y-206748214D02*
X186396130Y-206748214D01*
X186396130Y-206986309D01*
X186443750Y-207129166D01*
X186538988Y-207224404D01*
X186634226Y-207272023D01*
X186824702Y-207319642D01*
X186967559Y-207319642D01*
X187158035Y-207272023D01*
X187253273Y-207224404D01*
X187348511Y-207129166D01*
X187396130Y-206986309D01*
X187396130Y-206748214D01*
X186729464Y-208176785D02*
X187396130Y-208176785D01*
X186348511Y-207938690D02*
X187062797Y-207700595D01*
X187062797Y-208319642D01*
X186396130Y-208891071D02*
X186396130Y-208986309D01*
X186443750Y-209081547D01*
X186491369Y-209129166D01*
X186586607Y-209176785D01*
X186777083Y-209224404D01*
X187015178Y-209224404D01*
X187205654Y-209176785D01*
X187300892Y-209129166D01*
X187348511Y-209081547D01*
X187396130Y-208986309D01*
X187396130Y-208891071D01*
X187348511Y-208795833D01*
X187300892Y-208748214D01*
X187205654Y-208700595D01*
X187015178Y-208652976D01*
X186777083Y-208652976D01*
X186586607Y-208700595D01*
X186491369Y-208748214D01*
X186443750Y-208795833D01*
X186396130Y-208891071D01*
X189777380Y-206748214D02*
X188777380Y-206748214D01*
X188777380Y-206986309D01*
X188825000Y-207129166D01*
X188920238Y-207224404D01*
X189015476Y-207272023D01*
X189205952Y-207319642D01*
X189348809Y-207319642D01*
X189539285Y-207272023D01*
X189634523Y-207224404D01*
X189729761Y-207129166D01*
X189777380Y-206986309D01*
X189777380Y-206748214D01*
X188777380Y-207652976D02*
X188777380Y-208272023D01*
X189158333Y-207938690D01*
X189158333Y-208081547D01*
X189205952Y-208176785D01*
X189253571Y-208224404D01*
X189348809Y-208272023D01*
X189586904Y-208272023D01*
X189682142Y-208224404D01*
X189729761Y-208176785D01*
X189777380Y-208081547D01*
X189777380Y-207795833D01*
X189729761Y-207700595D01*
X189682142Y-207652976D01*
X189777380Y-208748214D02*
X189777380Y-208938690D01*
X189729761Y-209033928D01*
X189682142Y-209081547D01*
X189539285Y-209176785D01*
X189348809Y-209224404D01*
X188967857Y-209224404D01*
X188872619Y-209176785D01*
X188825000Y-209129166D01*
X188777380Y-209033928D01*
X188777380Y-208843452D01*
X188825000Y-208748214D01*
X188872619Y-208700595D01*
X188967857Y-208652976D01*
X189205952Y-208652976D01*
X189301190Y-208700595D01*
X189348809Y-208748214D01*
X189396428Y-208843452D01*
X189396428Y-209033928D01*
X189348809Y-209129166D01*
X189301190Y-209176785D01*
X189205952Y-209224404D01*
X157520535Y-188983630D02*
X157520535Y-187983630D01*
X157282440Y-187983630D01*
X157139583Y-188031250D01*
X157044345Y-188126488D01*
X156996726Y-188221726D01*
X156949107Y-188412202D01*
X156949107Y-188555059D01*
X156996726Y-188745535D01*
X157044345Y-188840773D01*
X157139583Y-188936011D01*
X157282440Y-188983630D01*
X157520535Y-188983630D01*
X156615773Y-187983630D02*
X155996726Y-187983630D01*
X156330059Y-188364583D01*
X156187202Y-188364583D01*
X156091964Y-188412202D01*
X156044345Y-188459821D01*
X155996726Y-188555059D01*
X155996726Y-188793154D01*
X156044345Y-188888392D01*
X156091964Y-188936011D01*
X156187202Y-188983630D01*
X156472916Y-188983630D01*
X156568154Y-188936011D01*
X156615773Y-188888392D01*
X155425297Y-188412202D02*
X155520535Y-188364583D01*
X155568154Y-188316964D01*
X155615773Y-188221726D01*
X155615773Y-188174107D01*
X155568154Y-188078869D01*
X155520535Y-188031250D01*
X155425297Y-187983630D01*
X155234821Y-187983630D01*
X155139583Y-188031250D01*
X155091964Y-188078869D01*
X155044345Y-188174107D01*
X155044345Y-188221726D01*
X155091964Y-188316964D01*
X155139583Y-188364583D01*
X155234821Y-188412202D01*
X155425297Y-188412202D01*
X155520535Y-188459821D01*
X155568154Y-188507440D01*
X155615773Y-188602678D01*
X155615773Y-188793154D01*
X155568154Y-188888392D01*
X155520535Y-188936011D01*
X155425297Y-188983630D01*
X155234821Y-188983630D01*
X155139583Y-188936011D01*
X155091964Y-188888392D01*
X155044345Y-188793154D01*
X155044345Y-188602678D01*
X155091964Y-188507440D01*
X155139583Y-188459821D01*
X155234821Y-188412202D01*
X157520535Y-191364880D02*
X157520535Y-190364880D01*
X157282440Y-190364880D01*
X157139583Y-190412500D01*
X157044345Y-190507738D01*
X156996726Y-190602976D01*
X156949107Y-190793452D01*
X156949107Y-190936309D01*
X156996726Y-191126785D01*
X157044345Y-191222023D01*
X157139583Y-191317261D01*
X157282440Y-191364880D01*
X157520535Y-191364880D01*
X156615773Y-190364880D02*
X155996726Y-190364880D01*
X156330059Y-190745833D01*
X156187202Y-190745833D01*
X156091964Y-190793452D01*
X156044345Y-190841071D01*
X155996726Y-190936309D01*
X155996726Y-191174404D01*
X156044345Y-191269642D01*
X156091964Y-191317261D01*
X156187202Y-191364880D01*
X156472916Y-191364880D01*
X156568154Y-191317261D01*
X156615773Y-191269642D01*
X155663392Y-190364880D02*
X154996726Y-190364880D01*
X155425297Y-191364880D01*
X157520535Y-193746130D02*
X157520535Y-192746130D01*
X157282440Y-192746130D01*
X157139583Y-192793750D01*
X157044345Y-192888988D01*
X156996726Y-192984226D01*
X156949107Y-193174702D01*
X156949107Y-193317559D01*
X156996726Y-193508035D01*
X157044345Y-193603273D01*
X157139583Y-193698511D01*
X157282440Y-193746130D01*
X157520535Y-193746130D01*
X156615773Y-192746130D02*
X155996726Y-192746130D01*
X156330059Y-193127083D01*
X156187202Y-193127083D01*
X156091964Y-193174702D01*
X156044345Y-193222321D01*
X155996726Y-193317559D01*
X155996726Y-193555654D01*
X156044345Y-193650892D01*
X156091964Y-193698511D01*
X156187202Y-193746130D01*
X156472916Y-193746130D01*
X156568154Y-193698511D01*
X156615773Y-193650892D01*
X155139583Y-192746130D02*
X155330059Y-192746130D01*
X155425297Y-192793750D01*
X155472916Y-192841369D01*
X155568154Y-192984226D01*
X155615773Y-193174702D01*
X155615773Y-193555654D01*
X155568154Y-193650892D01*
X155520535Y-193698511D01*
X155425297Y-193746130D01*
X155234821Y-193746130D01*
X155139583Y-193698511D01*
X155091964Y-193650892D01*
X155044345Y-193555654D01*
X155044345Y-193317559D01*
X155091964Y-193222321D01*
X155139583Y-193174702D01*
X155234821Y-193127083D01*
X155425297Y-193127083D01*
X155520535Y-193174702D01*
X155568154Y-193222321D01*
X155615773Y-193317559D01*
X157520535Y-196127380D02*
X157520535Y-195127380D01*
X157282440Y-195127380D01*
X157139583Y-195175000D01*
X157044345Y-195270238D01*
X156996726Y-195365476D01*
X156949107Y-195555952D01*
X156949107Y-195698809D01*
X156996726Y-195889285D01*
X157044345Y-195984523D01*
X157139583Y-196079761D01*
X157282440Y-196127380D01*
X157520535Y-196127380D01*
X156615773Y-195127380D02*
X155996726Y-195127380D01*
X156330059Y-195508333D01*
X156187202Y-195508333D01*
X156091964Y-195555952D01*
X156044345Y-195603571D01*
X155996726Y-195698809D01*
X155996726Y-195936904D01*
X156044345Y-196032142D01*
X156091964Y-196079761D01*
X156187202Y-196127380D01*
X156472916Y-196127380D01*
X156568154Y-196079761D01*
X156615773Y-196032142D01*
X155091964Y-195127380D02*
X155568154Y-195127380D01*
X155615773Y-195603571D01*
X155568154Y-195555952D01*
X155472916Y-195508333D01*
X155234821Y-195508333D01*
X155139583Y-195555952D01*
X155091964Y-195603571D01*
X155044345Y-195698809D01*
X155044345Y-195936904D01*
X155091964Y-196032142D01*
X155139583Y-196079761D01*
X155234821Y-196127380D01*
X155472916Y-196127380D01*
X155568154Y-196079761D01*
X155615773Y-196032142D01*
X155264285Y-173902380D02*
X155264285Y-172902380D01*
X155026190Y-172902380D01*
X154883333Y-172950000D01*
X154788095Y-173045238D01*
X154740476Y-173140476D01*
X154692857Y-173330952D01*
X154692857Y-173473809D01*
X154740476Y-173664285D01*
X154788095Y-173759523D01*
X154883333Y-173854761D01*
X155026190Y-173902380D01*
X155264285Y-173902380D01*
X154359523Y-172902380D02*
X153740476Y-172902380D01*
X154073809Y-173283333D01*
X153930952Y-173283333D01*
X153835714Y-173330952D01*
X153788095Y-173378571D01*
X153740476Y-173473809D01*
X153740476Y-173711904D01*
X153788095Y-173807142D01*
X153835714Y-173854761D01*
X153930952Y-173902380D01*
X154216666Y-173902380D01*
X154311904Y-173854761D01*
X154359523Y-173807142D01*
X152883333Y-173235714D02*
X152883333Y-173902380D01*
X153121428Y-172854761D02*
X153359523Y-173569047D01*
X152740476Y-173569047D01*
X155264285Y-176283630D02*
X155264285Y-175283630D01*
X155026190Y-175283630D01*
X154883333Y-175331250D01*
X154788095Y-175426488D01*
X154740476Y-175521726D01*
X154692857Y-175712202D01*
X154692857Y-175855059D01*
X154740476Y-176045535D01*
X154788095Y-176140773D01*
X154883333Y-176236011D01*
X155026190Y-176283630D01*
X155264285Y-176283630D01*
X154359523Y-175283630D02*
X153740476Y-175283630D01*
X154073809Y-175664583D01*
X153930952Y-175664583D01*
X153835714Y-175712202D01*
X153788095Y-175759821D01*
X153740476Y-175855059D01*
X153740476Y-176093154D01*
X153788095Y-176188392D01*
X153835714Y-176236011D01*
X153930952Y-176283630D01*
X154216666Y-176283630D01*
X154311904Y-176236011D01*
X154359523Y-176188392D01*
X153407142Y-175283630D02*
X152788095Y-175283630D01*
X153121428Y-175664583D01*
X152978571Y-175664583D01*
X152883333Y-175712202D01*
X152835714Y-175759821D01*
X152788095Y-175855059D01*
X152788095Y-176093154D01*
X152835714Y-176188392D01*
X152883333Y-176236011D01*
X152978571Y-176283630D01*
X153264285Y-176283630D01*
X153359523Y-176236011D01*
X153407142Y-176188392D01*
X155264285Y-178664880D02*
X155264285Y-177664880D01*
X155026190Y-177664880D01*
X154883333Y-177712500D01*
X154788095Y-177807738D01*
X154740476Y-177902976D01*
X154692857Y-178093452D01*
X154692857Y-178236309D01*
X154740476Y-178426785D01*
X154788095Y-178522023D01*
X154883333Y-178617261D01*
X155026190Y-178664880D01*
X155264285Y-178664880D01*
X154359523Y-177664880D02*
X153740476Y-177664880D01*
X154073809Y-178045833D01*
X153930952Y-178045833D01*
X153835714Y-178093452D01*
X153788095Y-178141071D01*
X153740476Y-178236309D01*
X153740476Y-178474404D01*
X153788095Y-178569642D01*
X153835714Y-178617261D01*
X153930952Y-178664880D01*
X154216666Y-178664880D01*
X154311904Y-178617261D01*
X154359523Y-178569642D01*
X153359523Y-177760119D02*
X153311904Y-177712500D01*
X153216666Y-177664880D01*
X152978571Y-177664880D01*
X152883333Y-177712500D01*
X152835714Y-177760119D01*
X152788095Y-177855357D01*
X152788095Y-177950595D01*
X152835714Y-178093452D01*
X153407142Y-178664880D01*
X152788095Y-178664880D01*
X155264285Y-181046130D02*
X155264285Y-180046130D01*
X155026190Y-180046130D01*
X154883333Y-180093750D01*
X154788095Y-180188988D01*
X154740476Y-180284226D01*
X154692857Y-180474702D01*
X154692857Y-180617559D01*
X154740476Y-180808035D01*
X154788095Y-180903273D01*
X154883333Y-180998511D01*
X155026190Y-181046130D01*
X155264285Y-181046130D01*
X154359523Y-180046130D02*
X153740476Y-180046130D01*
X154073809Y-180427083D01*
X153930952Y-180427083D01*
X153835714Y-180474702D01*
X153788095Y-180522321D01*
X153740476Y-180617559D01*
X153740476Y-180855654D01*
X153788095Y-180950892D01*
X153835714Y-180998511D01*
X153930952Y-181046130D01*
X154216666Y-181046130D01*
X154311904Y-180998511D01*
X154359523Y-180950892D01*
X152788095Y-181046130D02*
X153359523Y-181046130D01*
X153073809Y-181046130D02*
X153073809Y-180046130D01*
X153169047Y-180188988D01*
X153264285Y-180284226D01*
X153359523Y-180331845D01*
X201683630Y-206748214D02*
X200683630Y-206748214D01*
X200683630Y-206986309D01*
X200731250Y-207129166D01*
X200826488Y-207224404D01*
X200921726Y-207272023D01*
X201112202Y-207319642D01*
X201255059Y-207319642D01*
X201445535Y-207272023D01*
X201540773Y-207224404D01*
X201636011Y-207129166D01*
X201683630Y-206986309D01*
X201683630Y-206748214D01*
X200683630Y-207652976D02*
X200683630Y-208272023D01*
X201064583Y-207938690D01*
X201064583Y-208081547D01*
X201112202Y-208176785D01*
X201159821Y-208224404D01*
X201255059Y-208272023D01*
X201493154Y-208272023D01*
X201588392Y-208224404D01*
X201636011Y-208176785D01*
X201683630Y-208081547D01*
X201683630Y-207795833D01*
X201636011Y-207700595D01*
X201588392Y-207652976D01*
X200683630Y-208891071D02*
X200683630Y-208986309D01*
X200731250Y-209081547D01*
X200778869Y-209129166D01*
X200874107Y-209176785D01*
X201064583Y-209224404D01*
X201302678Y-209224404D01*
X201493154Y-209176785D01*
X201588392Y-209129166D01*
X201636011Y-209081547D01*
X201683630Y-208986309D01*
X201683630Y-208891071D01*
X201636011Y-208795833D01*
X201588392Y-208748214D01*
X201493154Y-208700595D01*
X201302678Y-208652976D01*
X201064583Y-208652976D01*
X200874107Y-208700595D01*
X200778869Y-208748214D01*
X200731250Y-208795833D01*
X200683630Y-208891071D01*
X199302380Y-206748214D02*
X198302380Y-206748214D01*
X198302380Y-206986309D01*
X198350000Y-207129166D01*
X198445238Y-207224404D01*
X198540476Y-207272023D01*
X198730952Y-207319642D01*
X198873809Y-207319642D01*
X199064285Y-207272023D01*
X199159523Y-207224404D01*
X199254761Y-207129166D01*
X199302380Y-206986309D01*
X199302380Y-206748214D01*
X198397619Y-207700595D02*
X198350000Y-207748214D01*
X198302380Y-207843452D01*
X198302380Y-208081547D01*
X198350000Y-208176785D01*
X198397619Y-208224404D01*
X198492857Y-208272023D01*
X198588095Y-208272023D01*
X198730952Y-208224404D01*
X199302380Y-207652976D01*
X199302380Y-208272023D01*
X199302380Y-208748214D02*
X199302380Y-208938690D01*
X199254761Y-209033928D01*
X199207142Y-209081547D01*
X199064285Y-209176785D01*
X198873809Y-209224404D01*
X198492857Y-209224404D01*
X198397619Y-209176785D01*
X198350000Y-209129166D01*
X198302380Y-209033928D01*
X198302380Y-208843452D01*
X198350000Y-208748214D01*
X198397619Y-208700595D01*
X198492857Y-208652976D01*
X198730952Y-208652976D01*
X198826190Y-208700595D01*
X198873809Y-208748214D01*
X198921428Y-208843452D01*
X198921428Y-209033928D01*
X198873809Y-209129166D01*
X198826190Y-209176785D01*
X198730952Y-209224404D01*
X192158630Y-206748214D02*
X191158630Y-206748214D01*
X191158630Y-206986309D01*
X191206250Y-207129166D01*
X191301488Y-207224404D01*
X191396726Y-207272023D01*
X191587202Y-207319642D01*
X191730059Y-207319642D01*
X191920535Y-207272023D01*
X192015773Y-207224404D01*
X192111011Y-207129166D01*
X192158630Y-206986309D01*
X192158630Y-206748214D01*
X191253869Y-207700595D02*
X191206250Y-207748214D01*
X191158630Y-207843452D01*
X191158630Y-208081547D01*
X191206250Y-208176785D01*
X191253869Y-208224404D01*
X191349107Y-208272023D01*
X191444345Y-208272023D01*
X191587202Y-208224404D01*
X192158630Y-207652976D01*
X192158630Y-208272023D01*
X191587202Y-208843452D02*
X191539583Y-208748214D01*
X191491964Y-208700595D01*
X191396726Y-208652976D01*
X191349107Y-208652976D01*
X191253869Y-208700595D01*
X191206250Y-208748214D01*
X191158630Y-208843452D01*
X191158630Y-209033928D01*
X191206250Y-209129166D01*
X191253869Y-209176785D01*
X191349107Y-209224404D01*
X191396726Y-209224404D01*
X191491964Y-209176785D01*
X191539583Y-209129166D01*
X191587202Y-209033928D01*
X191587202Y-208843452D01*
X191634821Y-208748214D01*
X191682440Y-208700595D01*
X191777678Y-208652976D01*
X191968154Y-208652976D01*
X192063392Y-208700595D01*
X192111011Y-208748214D01*
X192158630Y-208843452D01*
X192158630Y-209033928D01*
X192111011Y-209129166D01*
X192063392Y-209176785D01*
X191968154Y-209224404D01*
X191777678Y-209224404D01*
X191682440Y-209176785D01*
X191634821Y-209129166D01*
X191587202Y-209033928D01*
X157520535Y-198508630D02*
X157520535Y-197508630D01*
X157282440Y-197508630D01*
X157139583Y-197556250D01*
X157044345Y-197651488D01*
X156996726Y-197746726D01*
X156949107Y-197937202D01*
X156949107Y-198080059D01*
X156996726Y-198270535D01*
X157044345Y-198365773D01*
X157139583Y-198461011D01*
X157282440Y-198508630D01*
X157520535Y-198508630D01*
X156568154Y-197603869D02*
X156520535Y-197556250D01*
X156425297Y-197508630D01*
X156187202Y-197508630D01*
X156091964Y-197556250D01*
X156044345Y-197603869D01*
X155996726Y-197699107D01*
X155996726Y-197794345D01*
X156044345Y-197937202D01*
X156615773Y-198508630D01*
X155996726Y-198508630D01*
X155663392Y-197508630D02*
X154996726Y-197508630D01*
X155425297Y-198508630D01*
X155264285Y-183427380D02*
X155264285Y-182427380D01*
X155026190Y-182427380D01*
X154883333Y-182475000D01*
X154788095Y-182570238D01*
X154740476Y-182665476D01*
X154692857Y-182855952D01*
X154692857Y-182998809D01*
X154740476Y-183189285D01*
X154788095Y-183284523D01*
X154883333Y-183379761D01*
X155026190Y-183427380D01*
X155264285Y-183427380D01*
X154311904Y-182522619D02*
X154264285Y-182475000D01*
X154169047Y-182427380D01*
X153930952Y-182427380D01*
X153835714Y-182475000D01*
X153788095Y-182522619D01*
X153740476Y-182617857D01*
X153740476Y-182713095D01*
X153788095Y-182855952D01*
X154359523Y-183427380D01*
X153740476Y-183427380D01*
X152883333Y-182427380D02*
X153073809Y-182427380D01*
X153169047Y-182475000D01*
X153216666Y-182522619D01*
X153311904Y-182665476D01*
X153359523Y-182855952D01*
X153359523Y-183236904D01*
X153311904Y-183332142D01*
X153264285Y-183379761D01*
X153169047Y-183427380D01*
X152978571Y-183427380D01*
X152883333Y-183379761D01*
X152835714Y-183332142D01*
X152788095Y-183236904D01*
X152788095Y-182998809D01*
X152835714Y-182903571D01*
X152883333Y-182855952D01*
X152978571Y-182808333D01*
X153169047Y-182808333D01*
X153264285Y-182855952D01*
X153311904Y-182903571D01*
X153359523Y-182998809D01*
X157520535Y-186602380D02*
X157520535Y-185602380D01*
X157282440Y-185602380D01*
X157139583Y-185650000D01*
X157044345Y-185745238D01*
X156996726Y-185840476D01*
X156949107Y-186030952D01*
X156949107Y-186173809D01*
X156996726Y-186364285D01*
X157044345Y-186459523D01*
X157139583Y-186554761D01*
X157282440Y-186602380D01*
X157520535Y-186602380D01*
X156568154Y-185697619D02*
X156520535Y-185650000D01*
X156425297Y-185602380D01*
X156187202Y-185602380D01*
X156091964Y-185650000D01*
X156044345Y-185697619D01*
X155996726Y-185792857D01*
X155996726Y-185888095D01*
X156044345Y-186030952D01*
X156615773Y-186602380D01*
X155996726Y-186602380D01*
X155139583Y-185935714D02*
X155139583Y-186602380D01*
X155377678Y-185554761D02*
X155615773Y-186269047D01*
X154996726Y-186269047D01*
X155264285Y-171521130D02*
X155264285Y-170521130D01*
X155026190Y-170521130D01*
X154883333Y-170568750D01*
X154788095Y-170663988D01*
X154740476Y-170759226D01*
X154692857Y-170949702D01*
X154692857Y-171092559D01*
X154740476Y-171283035D01*
X154788095Y-171378273D01*
X154883333Y-171473511D01*
X155026190Y-171521130D01*
X155264285Y-171521130D01*
X154311904Y-170616369D02*
X154264285Y-170568750D01*
X154169047Y-170521130D01*
X153930952Y-170521130D01*
X153835714Y-170568750D01*
X153788095Y-170616369D01*
X153740476Y-170711607D01*
X153740476Y-170806845D01*
X153788095Y-170949702D01*
X154359523Y-171521130D01*
X153740476Y-171521130D01*
X153407142Y-170521130D02*
X152788095Y-170521130D01*
X153121428Y-170902083D01*
X152978571Y-170902083D01*
X152883333Y-170949702D01*
X152835714Y-170997321D01*
X152788095Y-171092559D01*
X152788095Y-171330654D01*
X152835714Y-171425892D01*
X152883333Y-171473511D01*
X152978571Y-171521130D01*
X153264285Y-171521130D01*
X153359523Y-171473511D01*
X153407142Y-171425892D01*
X120721130Y-206748214D02*
X119721130Y-206748214D01*
X119721130Y-206986309D01*
X119768750Y-207129166D01*
X119863988Y-207224404D01*
X119959226Y-207272023D01*
X120149702Y-207319642D01*
X120292559Y-207319642D01*
X120483035Y-207272023D01*
X120578273Y-207224404D01*
X120673511Y-207129166D01*
X120721130Y-206986309D01*
X120721130Y-206748214D01*
X119816369Y-207700595D02*
X119768750Y-207748214D01*
X119721130Y-207843452D01*
X119721130Y-208081547D01*
X119768750Y-208176785D01*
X119816369Y-208224404D01*
X119911607Y-208272023D01*
X120006845Y-208272023D01*
X120149702Y-208224404D01*
X120721130Y-207652976D01*
X120721130Y-208272023D01*
X119816369Y-208652976D02*
X119768750Y-208700595D01*
X119721130Y-208795833D01*
X119721130Y-209033928D01*
X119768750Y-209129166D01*
X119816369Y-209176785D01*
X119911607Y-209224404D01*
X120006845Y-209224404D01*
X120149702Y-209176785D01*
X120721130Y-208605357D01*
X120721130Y-209224404D01*
X136151785Y-182602380D02*
X136151785Y-181602380D01*
X135913690Y-181602380D01*
X135770833Y-181650000D01*
X135675595Y-181745238D01*
X135627976Y-181840476D01*
X135580357Y-182030952D01*
X135580357Y-182173809D01*
X135627976Y-182364285D01*
X135675595Y-182459523D01*
X135770833Y-182554761D01*
X135913690Y-182602380D01*
X136151785Y-182602380D01*
X135199404Y-181697619D02*
X135151785Y-181650000D01*
X135056547Y-181602380D01*
X134818452Y-181602380D01*
X134723214Y-181650000D01*
X134675595Y-181697619D01*
X134627976Y-181792857D01*
X134627976Y-181888095D01*
X134675595Y-182030952D01*
X135247023Y-182602380D01*
X134627976Y-182602380D01*
X133675595Y-182602380D02*
X134247023Y-182602380D01*
X133961309Y-182602380D02*
X133961309Y-181602380D01*
X134056547Y-181745238D01*
X134151785Y-181840476D01*
X134247023Y-181888095D01*
X140976785Y-167521130D02*
X140976785Y-166521130D01*
X140738690Y-166521130D01*
X140595833Y-166568750D01*
X140500595Y-166663988D01*
X140452976Y-166759226D01*
X140405357Y-166949702D01*
X140405357Y-167092559D01*
X140452976Y-167283035D01*
X140500595Y-167378273D01*
X140595833Y-167473511D01*
X140738690Y-167521130D01*
X140976785Y-167521130D01*
X140024404Y-166616369D02*
X139976785Y-166568750D01*
X139881547Y-166521130D01*
X139643452Y-166521130D01*
X139548214Y-166568750D01*
X139500595Y-166616369D01*
X139452976Y-166711607D01*
X139452976Y-166806845D01*
X139500595Y-166949702D01*
X140072023Y-167521130D01*
X139452976Y-167521130D01*
X138833928Y-166521130D02*
X138738690Y-166521130D01*
X138643452Y-166568750D01*
X138595833Y-166616369D01*
X138548214Y-166711607D01*
X138500595Y-166902083D01*
X138500595Y-167140178D01*
X138548214Y-167330654D01*
X138595833Y-167425892D01*
X138643452Y-167473511D01*
X138738690Y-167521130D01*
X138833928Y-167521130D01*
X138929166Y-167473511D01*
X138976785Y-167425892D01*
X139024404Y-167330654D01*
X139072023Y-167140178D01*
X139072023Y-166902083D01*
X139024404Y-166711607D01*
X138976785Y-166616369D01*
X138929166Y-166568750D01*
X138833928Y-166521130D01*
X99289880Y-206748214D02*
X98289880Y-206748214D01*
X98289880Y-206986309D01*
X98337500Y-207129166D01*
X98432738Y-207224404D01*
X98527976Y-207272023D01*
X98718452Y-207319642D01*
X98861309Y-207319642D01*
X99051785Y-207272023D01*
X99147023Y-207224404D01*
X99242261Y-207129166D01*
X99289880Y-206986309D01*
X99289880Y-206748214D01*
X99289880Y-208272023D02*
X99289880Y-207700595D01*
X99289880Y-207986309D02*
X98289880Y-207986309D01*
X98432738Y-207891071D01*
X98527976Y-207795833D01*
X98575595Y-207700595D01*
X99289880Y-208748214D02*
X99289880Y-208938690D01*
X99242261Y-209033928D01*
X99194642Y-209081547D01*
X99051785Y-209176785D01*
X98861309Y-209224404D01*
X98480357Y-209224404D01*
X98385119Y-209176785D01*
X98337500Y-209129166D01*
X98289880Y-209033928D01*
X98289880Y-208843452D01*
X98337500Y-208748214D01*
X98385119Y-208700595D01*
X98480357Y-208652976D01*
X98718452Y-208652976D01*
X98813690Y-208700595D01*
X98861309Y-208748214D01*
X98908928Y-208843452D01*
X98908928Y-209033928D01*
X98861309Y-209129166D01*
X98813690Y-209176785D01*
X98718452Y-209224404D01*
X101671130Y-206748214D02*
X100671130Y-206748214D01*
X100671130Y-206986309D01*
X100718750Y-207129166D01*
X100813988Y-207224404D01*
X100909226Y-207272023D01*
X101099702Y-207319642D01*
X101242559Y-207319642D01*
X101433035Y-207272023D01*
X101528273Y-207224404D01*
X101623511Y-207129166D01*
X101671130Y-206986309D01*
X101671130Y-206748214D01*
X101671130Y-208272023D02*
X101671130Y-207700595D01*
X101671130Y-207986309D02*
X100671130Y-207986309D01*
X100813988Y-207891071D01*
X100909226Y-207795833D01*
X100956845Y-207700595D01*
X101099702Y-208843452D02*
X101052083Y-208748214D01*
X101004464Y-208700595D01*
X100909226Y-208652976D01*
X100861607Y-208652976D01*
X100766369Y-208700595D01*
X100718750Y-208748214D01*
X100671130Y-208843452D01*
X100671130Y-209033928D01*
X100718750Y-209129166D01*
X100766369Y-209176785D01*
X100861607Y-209224404D01*
X100909226Y-209224404D01*
X101004464Y-209176785D01*
X101052083Y-209129166D01*
X101099702Y-209033928D01*
X101099702Y-208843452D01*
X101147321Y-208748214D01*
X101194940Y-208700595D01*
X101290178Y-208652976D01*
X101480654Y-208652976D01*
X101575892Y-208700595D01*
X101623511Y-208748214D01*
X101671130Y-208843452D01*
X101671130Y-209033928D01*
X101623511Y-209129166D01*
X101575892Y-209176785D01*
X101480654Y-209224404D01*
X101290178Y-209224404D01*
X101194940Y-209176785D01*
X101147321Y-209129166D01*
X101099702Y-209033928D01*
X108814880Y-206748214D02*
X107814880Y-206748214D01*
X107814880Y-206986309D01*
X107862500Y-207129166D01*
X107957738Y-207224404D01*
X108052976Y-207272023D01*
X108243452Y-207319642D01*
X108386309Y-207319642D01*
X108576785Y-207272023D01*
X108672023Y-207224404D01*
X108767261Y-207129166D01*
X108814880Y-206986309D01*
X108814880Y-206748214D01*
X108814880Y-208272023D02*
X108814880Y-207700595D01*
X108814880Y-207986309D02*
X107814880Y-207986309D01*
X107957738Y-207891071D01*
X108052976Y-207795833D01*
X108100595Y-207700595D01*
X107814880Y-208605357D02*
X107814880Y-209272023D01*
X108814880Y-208843452D01*
X136151785Y-194508630D02*
X136151785Y-193508630D01*
X135913690Y-193508630D01*
X135770833Y-193556250D01*
X135675595Y-193651488D01*
X135627976Y-193746726D01*
X135580357Y-193937202D01*
X135580357Y-194080059D01*
X135627976Y-194270535D01*
X135675595Y-194365773D01*
X135770833Y-194461011D01*
X135913690Y-194508630D01*
X136151785Y-194508630D01*
X134627976Y-194508630D02*
X135199404Y-194508630D01*
X134913690Y-194508630D02*
X134913690Y-193508630D01*
X135008928Y-193651488D01*
X135104166Y-193746726D01*
X135199404Y-193794345D01*
X133770833Y-193508630D02*
X133961309Y-193508630D01*
X134056547Y-193556250D01*
X134104166Y-193603869D01*
X134199404Y-193746726D01*
X134247023Y-193937202D01*
X134247023Y-194318154D01*
X134199404Y-194413392D01*
X134151785Y-194461011D01*
X134056547Y-194508630D01*
X133866071Y-194508630D01*
X133770833Y-194461011D01*
X133723214Y-194413392D01*
X133675595Y-194318154D01*
X133675595Y-194080059D01*
X133723214Y-193984821D01*
X133770833Y-193937202D01*
X133866071Y-193889583D01*
X134056547Y-193889583D01*
X134151785Y-193937202D01*
X134199404Y-193984821D01*
X134247023Y-194080059D01*
X140976785Y-179427380D02*
X140976785Y-178427380D01*
X140738690Y-178427380D01*
X140595833Y-178475000D01*
X140500595Y-178570238D01*
X140452976Y-178665476D01*
X140405357Y-178855952D01*
X140405357Y-178998809D01*
X140452976Y-179189285D01*
X140500595Y-179284523D01*
X140595833Y-179379761D01*
X140738690Y-179427380D01*
X140976785Y-179427380D01*
X139452976Y-179427380D02*
X140024404Y-179427380D01*
X139738690Y-179427380D02*
X139738690Y-178427380D01*
X139833928Y-178570238D01*
X139929166Y-178665476D01*
X140024404Y-178713095D01*
X138548214Y-178427380D02*
X139024404Y-178427380D01*
X139072023Y-178903571D01*
X139024404Y-178855952D01*
X138929166Y-178808333D01*
X138691071Y-178808333D01*
X138595833Y-178855952D01*
X138548214Y-178903571D01*
X138500595Y-178998809D01*
X138500595Y-179236904D01*
X138548214Y-179332142D01*
X138595833Y-179379761D01*
X138691071Y-179427380D01*
X138929166Y-179427380D01*
X139024404Y-179379761D01*
X139072023Y-179332142D01*
X104052380Y-206748214D02*
X103052380Y-206748214D01*
X103052380Y-206986309D01*
X103100000Y-207129166D01*
X103195238Y-207224404D01*
X103290476Y-207272023D01*
X103480952Y-207319642D01*
X103623809Y-207319642D01*
X103814285Y-207272023D01*
X103909523Y-207224404D01*
X104004761Y-207129166D01*
X104052380Y-206986309D01*
X104052380Y-206748214D01*
X104052380Y-208272023D02*
X104052380Y-207700595D01*
X104052380Y-207986309D02*
X103052380Y-207986309D01*
X103195238Y-207891071D01*
X103290476Y-207795833D01*
X103338095Y-207700595D01*
X103385714Y-209129166D02*
X104052380Y-209129166D01*
X103004761Y-208891071D02*
X103719047Y-208652976D01*
X103719047Y-209272023D01*
X106433630Y-206748214D02*
X105433630Y-206748214D01*
X105433630Y-206986309D01*
X105481250Y-207129166D01*
X105576488Y-207224404D01*
X105671726Y-207272023D01*
X105862202Y-207319642D01*
X106005059Y-207319642D01*
X106195535Y-207272023D01*
X106290773Y-207224404D01*
X106386011Y-207129166D01*
X106433630Y-206986309D01*
X106433630Y-206748214D01*
X106433630Y-208272023D02*
X106433630Y-207700595D01*
X106433630Y-207986309D02*
X105433630Y-207986309D01*
X105576488Y-207891071D01*
X105671726Y-207795833D01*
X105719345Y-207700595D01*
X105433630Y-208605357D02*
X105433630Y-209224404D01*
X105814583Y-208891071D01*
X105814583Y-209033928D01*
X105862202Y-209129166D01*
X105909821Y-209176785D01*
X106005059Y-209224404D01*
X106243154Y-209224404D01*
X106338392Y-209176785D01*
X106386011Y-209129166D01*
X106433630Y-209033928D01*
X106433630Y-208748214D01*
X106386011Y-208652976D01*
X106338392Y-208605357D01*
X118339880Y-206748214D02*
X117339880Y-206748214D01*
X117339880Y-206986309D01*
X117387500Y-207129166D01*
X117482738Y-207224404D01*
X117577976Y-207272023D01*
X117768452Y-207319642D01*
X117911309Y-207319642D01*
X118101785Y-207272023D01*
X118197023Y-207224404D01*
X118292261Y-207129166D01*
X118339880Y-206986309D01*
X118339880Y-206748214D01*
X118339880Y-208272023D02*
X118339880Y-207700595D01*
X118339880Y-207986309D02*
X117339880Y-207986309D01*
X117482738Y-207891071D01*
X117577976Y-207795833D01*
X117625595Y-207700595D01*
X117435119Y-208652976D02*
X117387500Y-208700595D01*
X117339880Y-208795833D01*
X117339880Y-209033928D01*
X117387500Y-209129166D01*
X117435119Y-209176785D01*
X117530357Y-209224404D01*
X117625595Y-209224404D01*
X117768452Y-209176785D01*
X118339880Y-208605357D01*
X118339880Y-209224404D01*
X115958630Y-206748214D02*
X114958630Y-206748214D01*
X114958630Y-206986309D01*
X115006250Y-207129166D01*
X115101488Y-207224404D01*
X115196726Y-207272023D01*
X115387202Y-207319642D01*
X115530059Y-207319642D01*
X115720535Y-207272023D01*
X115815773Y-207224404D01*
X115911011Y-207129166D01*
X115958630Y-206986309D01*
X115958630Y-206748214D01*
X115958630Y-208272023D02*
X115958630Y-207700595D01*
X115958630Y-207986309D02*
X114958630Y-207986309D01*
X115101488Y-207891071D01*
X115196726Y-207795833D01*
X115244345Y-207700595D01*
X115958630Y-209224404D02*
X115958630Y-208652976D01*
X115958630Y-208938690D02*
X114958630Y-208938690D01*
X115101488Y-208843452D01*
X115196726Y-208748214D01*
X115244345Y-208652976D01*
X113577380Y-206748214D02*
X112577380Y-206748214D01*
X112577380Y-206986309D01*
X112625000Y-207129166D01*
X112720238Y-207224404D01*
X112815476Y-207272023D01*
X113005952Y-207319642D01*
X113148809Y-207319642D01*
X113339285Y-207272023D01*
X113434523Y-207224404D01*
X113529761Y-207129166D01*
X113577380Y-206986309D01*
X113577380Y-206748214D01*
X113577380Y-208272023D02*
X113577380Y-207700595D01*
X113577380Y-207986309D02*
X112577380Y-207986309D01*
X112720238Y-207891071D01*
X112815476Y-207795833D01*
X112863095Y-207700595D01*
X112577380Y-208891071D02*
X112577380Y-208986309D01*
X112625000Y-209081547D01*
X112672619Y-209129166D01*
X112767857Y-209176785D01*
X112958333Y-209224404D01*
X113196428Y-209224404D01*
X113386904Y-209176785D01*
X113482142Y-209129166D01*
X113529761Y-209081547D01*
X113577380Y-208986309D01*
X113577380Y-208891071D01*
X113529761Y-208795833D01*
X113482142Y-208748214D01*
X113386904Y-208700595D01*
X113196428Y-208652976D01*
X112958333Y-208652976D01*
X112767857Y-208700595D01*
X112672619Y-208748214D01*
X112625000Y-208795833D01*
X112577380Y-208891071D01*
X111196130Y-207224404D02*
X110196130Y-207224404D01*
X110196130Y-207462500D01*
X110243750Y-207605357D01*
X110338988Y-207700595D01*
X110434226Y-207748214D01*
X110624702Y-207795833D01*
X110767559Y-207795833D01*
X110958035Y-207748214D01*
X111053273Y-207700595D01*
X111148511Y-207605357D01*
X111196130Y-207462500D01*
X111196130Y-207224404D01*
X111196130Y-208272023D02*
X111196130Y-208462500D01*
X111148511Y-208557738D01*
X111100892Y-208605357D01*
X110958035Y-208700595D01*
X110767559Y-208748214D01*
X110386607Y-208748214D01*
X110291369Y-208700595D01*
X110243750Y-208652976D01*
X110196130Y-208557738D01*
X110196130Y-208367261D01*
X110243750Y-208272023D01*
X110291369Y-208224404D01*
X110386607Y-208176785D01*
X110624702Y-208176785D01*
X110719940Y-208224404D01*
X110767559Y-208272023D01*
X110815178Y-208367261D01*
X110815178Y-208557738D01*
X110767559Y-208652976D01*
X110719940Y-208700595D01*
X110624702Y-208748214D01*
X135675595Y-184983630D02*
X135675595Y-183983630D01*
X135437500Y-183983630D01*
X135294642Y-184031250D01*
X135199404Y-184126488D01*
X135151785Y-184221726D01*
X135104166Y-184412202D01*
X135104166Y-184555059D01*
X135151785Y-184745535D01*
X135199404Y-184840773D01*
X135294642Y-184936011D01*
X135437500Y-184983630D01*
X135675595Y-184983630D01*
X134532738Y-184412202D02*
X134627976Y-184364583D01*
X134675595Y-184316964D01*
X134723214Y-184221726D01*
X134723214Y-184174107D01*
X134675595Y-184078869D01*
X134627976Y-184031250D01*
X134532738Y-183983630D01*
X134342261Y-183983630D01*
X134247023Y-184031250D01*
X134199404Y-184078869D01*
X134151785Y-184174107D01*
X134151785Y-184221726D01*
X134199404Y-184316964D01*
X134247023Y-184364583D01*
X134342261Y-184412202D01*
X134532738Y-184412202D01*
X134627976Y-184459821D01*
X134675595Y-184507440D01*
X134723214Y-184602678D01*
X134723214Y-184793154D01*
X134675595Y-184888392D01*
X134627976Y-184936011D01*
X134532738Y-184983630D01*
X134342261Y-184983630D01*
X134247023Y-184936011D01*
X134199404Y-184888392D01*
X134151785Y-184793154D01*
X134151785Y-184602678D01*
X134199404Y-184507440D01*
X134247023Y-184459821D01*
X134342261Y-184412202D01*
X135675595Y-187364880D02*
X135675595Y-186364880D01*
X135437500Y-186364880D01*
X135294642Y-186412500D01*
X135199404Y-186507738D01*
X135151785Y-186602976D01*
X135104166Y-186793452D01*
X135104166Y-186936309D01*
X135151785Y-187126785D01*
X135199404Y-187222023D01*
X135294642Y-187317261D01*
X135437500Y-187364880D01*
X135675595Y-187364880D01*
X134770833Y-186364880D02*
X134104166Y-186364880D01*
X134532738Y-187364880D01*
X135675595Y-189746130D02*
X135675595Y-188746130D01*
X135437500Y-188746130D01*
X135294642Y-188793750D01*
X135199404Y-188888988D01*
X135151785Y-188984226D01*
X135104166Y-189174702D01*
X135104166Y-189317559D01*
X135151785Y-189508035D01*
X135199404Y-189603273D01*
X135294642Y-189698511D01*
X135437500Y-189746130D01*
X135675595Y-189746130D01*
X134247023Y-188746130D02*
X134437500Y-188746130D01*
X134532738Y-188793750D01*
X134580357Y-188841369D01*
X134675595Y-188984226D01*
X134723214Y-189174702D01*
X134723214Y-189555654D01*
X134675595Y-189650892D01*
X134627976Y-189698511D01*
X134532738Y-189746130D01*
X134342261Y-189746130D01*
X134247023Y-189698511D01*
X134199404Y-189650892D01*
X134151785Y-189555654D01*
X134151785Y-189317559D01*
X134199404Y-189222321D01*
X134247023Y-189174702D01*
X134342261Y-189127083D01*
X134532738Y-189127083D01*
X134627976Y-189174702D01*
X134675595Y-189222321D01*
X134723214Y-189317559D01*
X135675595Y-192127380D02*
X135675595Y-191127380D01*
X135437500Y-191127380D01*
X135294642Y-191175000D01*
X135199404Y-191270238D01*
X135151785Y-191365476D01*
X135104166Y-191555952D01*
X135104166Y-191698809D01*
X135151785Y-191889285D01*
X135199404Y-191984523D01*
X135294642Y-192079761D01*
X135437500Y-192127380D01*
X135675595Y-192127380D01*
X134199404Y-191127380D02*
X134675595Y-191127380D01*
X134723214Y-191603571D01*
X134675595Y-191555952D01*
X134580357Y-191508333D01*
X134342261Y-191508333D01*
X134247023Y-191555952D01*
X134199404Y-191603571D01*
X134151785Y-191698809D01*
X134151785Y-191936904D01*
X134199404Y-192032142D01*
X134247023Y-192079761D01*
X134342261Y-192127380D01*
X134580357Y-192127380D01*
X134675595Y-192079761D01*
X134723214Y-192032142D01*
X140500595Y-169902380D02*
X140500595Y-168902380D01*
X140262500Y-168902380D01*
X140119642Y-168950000D01*
X140024404Y-169045238D01*
X139976785Y-169140476D01*
X139929166Y-169330952D01*
X139929166Y-169473809D01*
X139976785Y-169664285D01*
X140024404Y-169759523D01*
X140119642Y-169854761D01*
X140262500Y-169902380D01*
X140500595Y-169902380D01*
X139072023Y-169235714D02*
X139072023Y-169902380D01*
X139310119Y-168854761D02*
X139548214Y-169569047D01*
X138929166Y-169569047D01*
X140500595Y-172283630D02*
X140500595Y-171283630D01*
X140262500Y-171283630D01*
X140119642Y-171331250D01*
X140024404Y-171426488D01*
X139976785Y-171521726D01*
X139929166Y-171712202D01*
X139929166Y-171855059D01*
X139976785Y-172045535D01*
X140024404Y-172140773D01*
X140119642Y-172236011D01*
X140262500Y-172283630D01*
X140500595Y-172283630D01*
X139595833Y-171283630D02*
X138976785Y-171283630D01*
X139310119Y-171664583D01*
X139167261Y-171664583D01*
X139072023Y-171712202D01*
X139024404Y-171759821D01*
X138976785Y-171855059D01*
X138976785Y-172093154D01*
X139024404Y-172188392D01*
X139072023Y-172236011D01*
X139167261Y-172283630D01*
X139452976Y-172283630D01*
X139548214Y-172236011D01*
X139595833Y-172188392D01*
X140500595Y-174664880D02*
X140500595Y-173664880D01*
X140262500Y-173664880D01*
X140119642Y-173712500D01*
X140024404Y-173807738D01*
X139976785Y-173902976D01*
X139929166Y-174093452D01*
X139929166Y-174236309D01*
X139976785Y-174426785D01*
X140024404Y-174522023D01*
X140119642Y-174617261D01*
X140262500Y-174664880D01*
X140500595Y-174664880D01*
X139548214Y-173760119D02*
X139500595Y-173712500D01*
X139405357Y-173664880D01*
X139167261Y-173664880D01*
X139072023Y-173712500D01*
X139024404Y-173760119D01*
X138976785Y-173855357D01*
X138976785Y-173950595D01*
X139024404Y-174093452D01*
X139595833Y-174664880D01*
X138976785Y-174664880D01*
X140500595Y-177046130D02*
X140500595Y-176046130D01*
X140262500Y-176046130D01*
X140119642Y-176093750D01*
X140024404Y-176188988D01*
X139976785Y-176284226D01*
X139929166Y-176474702D01*
X139929166Y-176617559D01*
X139976785Y-176808035D01*
X140024404Y-176903273D01*
X140119642Y-176998511D01*
X140262500Y-177046130D01*
X140500595Y-177046130D01*
X138976785Y-177046130D02*
X139548214Y-177046130D01*
X139262500Y-177046130D02*
X139262500Y-176046130D01*
X139357738Y-176188988D01*
X139452976Y-176284226D01*
X139548214Y-176331845D01*
M02*
