M48
; DRILL file {KiCad (5.1.4)-1} date 4/24/2024 8:55:04 PM
; FORMAT={-:-/ absolute / metric / decimal}
; #@! TF.CreationDate,2024-04-24T20:55:04-04:00
; #@! TF.GenerationSoftware,Kicad,Pcbnew,(5.1.4)-1
; #@! TF.FileFunction,Plated,1,2,PTH
FMAT,2
METRIC
T1C0.400
T2C0.600
T3C1.000
T4C1.050
%
G90
G05
T1
X69.05Y-186.6
X75.1Y-194.35
X85.8Y-204.1
X90.3Y-187.7
X97.825Y-213.983
X98.044Y-214.884
X98.263Y-213.166
X98.701Y-215.792
X99.332Y-216.472
X100.2Y-212.3
X101.6Y-204.787
X103.981Y-204.787
X106.35Y-215.2
X108.744Y-204.787
X108.75Y-215.2
X111.125Y-204.787
X113.506Y-204.787
X114.85Y-171.5
X115.15Y-212.3
X115.887Y-204.787
X118.269Y-204.787
X121.4Y-155.7
X121.65Y-192.492
X122.8Y-160.1
X124.4Y-197.75
X126.45Y-175.35
X126.75Y-197.75
X126.75Y-212.3
X128.9Y-177.55
X129.1Y-197.75
X131.3Y-177.5
X131.5Y-197.75
X133.7Y-177.6
X133.75Y-203.0
X134.5Y-215.15
X136.05Y-177.55
X136.5Y-172.55
X136.906Y-200.914
X136.95Y-183.65
X137.668Y-210.566
X138.55Y-182.8
X138.684Y-221.107
X140.658Y-213.926
X140.658Y-213.926
X140.658Y-221.176
X140.99Y-199.076
X141.732Y-209.55
X141.732Y-209.55
X142.367Y-211.42
X142.494Y-194.622
X143.002Y-209.55
X143.002Y-209.55
X143.51Y-227.076
X143.98Y-198.45
X144.272Y-225.063
X145.75Y-205.25
X146.676Y-205.351
X147.166Y-201.811
X147.779Y-211.787
X148.436Y-201.811
X148.75Y-224.473
X148.844Y-226.06
X148.844Y-226.06
X149.003Y-222.689
X149.098Y-207.518
X149.098Y-207.518
X149.098Y-219.964
X149.352Y-204.978
X149.628Y-157.133
X151.892Y-210.312
X152.85Y-163.0
X153.0Y-177.65
X153.0Y-182.9
X153.4Y-203.05
X153.416Y-200.152
X153.67Y-213.487
X153.67Y-220.98
X154.686Y-200.106
X155.4Y-177.65
X155.448Y-213.614
X156.216Y-211.345
X157.05Y-197.45
X157.353Y-220.091
X157.8Y-177.6
X158.1Y-193.25
X160.15Y-177.55
X160.5Y-193.25
X160.528Y-222.885
X162.1Y-152.65
X162.55Y-177.55
X162.9Y-193.2
X165.0Y-177.55
X165.3Y-193.15
X167.7Y-193.15
X168.05Y-150.9
X170.0Y-193.25
X171.1Y-211.2
X172.8Y-161.8
X174.4Y-167.2
X177.8Y-203.994
X179.15Y-178.4
X180.181Y-203.994
X181.5Y-183.2
X182.562Y-203.994
X184.944Y-203.994
X187.15Y-195.05
X187.283Y-203.952
X189.706Y-203.994
X191.516Y-221.488
X192.034Y-220.465
X192.532Y-219.456
X193.04Y-218.44
X193.542Y-217.433
X194.056Y-216.408
X198.824Y-192.676
X200.2Y-197.45
X200.65Y-204.05
X218.925Y-193.583
T3
X95.743Y-221.501
X97.771Y-223.03
X99.8Y-224.558
X101.828Y-226.087
X180.6Y-164.0
X182.955Y-163.048
X185.31Y-162.097
X187.665Y-161.145
X110.834Y-228.461
X112.363Y-226.433
X113.892Y-224.404
X115.42Y-222.376
X106.594Y-160.284
X108.949Y-161.235
X111.304Y-162.187
X113.659Y-163.138
X146.659Y-172.638
X146.659Y-175.178
X146.659Y-177.718
X146.659Y-180.258
X177.808Y-222.177
X179.336Y-224.206
X180.865Y-226.234
X182.394Y-228.263
X81.907Y-211.166
X83.936Y-212.694
X85.964Y-214.223
X87.993Y-215.752
X205.515Y-215.598
X207.544Y-214.069
X209.572Y-212.541
X211.601Y-211.012
X99.779Y-176.284
X102.134Y-177.235
X104.489Y-178.187
X106.844Y-179.138
X187.1Y-180.5
X189.455Y-179.548
X191.81Y-178.597
X194.165Y-177.645
X191.717Y-226.026
X193.745Y-224.498
X195.774Y-222.969
X197.803Y-221.44
X241.528Y-182.311
X242.48Y-184.666
X243.431Y-187.021
X244.383Y-189.376
X49.541Y-189.568
X50.492Y-187.213
X51.444Y-184.858
X52.395Y-182.503
X113.133Y-143.97
X115.488Y-144.922
X117.843Y-145.873
X120.198Y-146.825
X172.994Y-146.691
X175.349Y-145.739
X177.704Y-144.788
X180.059Y-143.836
T4
X119.75Y-222.25
X119.75Y-226.75
X123.0Y-229.0
X126.25Y-222.25
X126.25Y-226.75
X129.9Y-222.25
X129.9Y-226.75
X133.15Y-229.0
X136.4Y-222.25
X136.4Y-226.75
T2
X145.306Y-154.881G85X145.605Y-155.622
G05
X146.812Y-158.608G85X147.224Y-159.628
G05
X153.316Y-151.644G85X153.616Y-152.386
G05
X154.822Y-155.371G85X155.234Y-156.391
G05
T0
M30
