%FSLAX45Y45*%
G04 Gerber Fmt 4.5, Leading zero omitted, Abs format (unit mm)*
G04 Created by KiCad (PCBNEW (5.1.4)-1) date 2024-04-24 20:55:05*
%MOMM*%
%LPD*%
G04 APERTURE LIST*
%ADD10C,0.050000*%
%ADD11C,0.200000*%
%ADD12C,0.300000*%
G04 APERTURE END LIST*
D10*
X17040978Y-14503403D02*
X16775978Y-14404403D01*
X18012433Y-14111361D02*
X17040978Y-14503403D01*
X14273000Y-15414000D02*
X13795000Y-14902000D01*
X15164978Y-15054403D02*
X14273000Y-15414000D01*
X12295000Y-14502000D02*
X12560000Y-14403000D01*
X16775978Y-14404403D02*
X15164978Y-15054403D01*
X12560000Y-14403000D02*
X13795000Y-14902000D01*
X18195877Y-23093825D02*
X19097407Y-22829763D01*
X11125877Y-23093825D02*
X18195877Y-23093825D01*
X11125877Y-23093825D02*
X10238571Y-22828360D01*
X11323546Y-14109958D02*
X12295000Y-14502000D01*
X22293704Y-18140991D02*
X23573218Y-17624034D01*
X20465286Y-18340453D02*
X21637283Y-17877720D01*
X20465286Y-18340453D02*
X19899990Y-18115862D01*
X23627703Y-19413959D02*
X24480712Y-19069321D01*
X19097407Y-22829763D02*
X23609159Y-19421451D01*
X18012433Y-14111361D02*
X18345373Y-14268049D01*
X24565565Y-18905614D02*
X24480712Y-19069321D01*
X24187212Y-17969158D02*
X23573218Y-17624034D01*
X10238571Y-22828360D02*
X5726819Y-19420047D01*
X24187212Y-17969158D02*
X24565565Y-18905614D01*
X5708275Y-19412555D02*
X5726819Y-19420047D01*
X5148766Y-17967754D02*
X4770413Y-18904210D01*
X7698695Y-17876317D02*
X7042274Y-18139587D01*
X21637283Y-17877720D02*
X22293704Y-18140991D01*
X5148766Y-17967754D02*
X5762760Y-17622630D01*
X7042274Y-18139587D02*
X5762760Y-17622630D01*
X18345373Y-14268049D02*
X19899990Y-18115862D01*
X23627703Y-19413959D02*
X23609159Y-19421451D01*
X8870693Y-18339049D02*
X9435989Y-18114459D01*
X10990606Y-14266646D02*
X9435989Y-18114459D01*
X8870693Y-18339049D02*
X7698695Y-17876317D01*
X4770413Y-18904210D02*
X4855266Y-19067917D01*
X11323546Y-14109958D02*
X10990606Y-14266646D01*
X5708275Y-19412555D02*
X4855266Y-19067917D01*
D11*
X14786362Y-15783703D02*
X14846362Y-15843703D01*
X14846362Y-15783703D02*
X14786362Y-15843703D01*
X15322274Y-15567180D02*
X15382274Y-15627180D01*
X15382274Y-15567180D02*
X15322274Y-15627180D01*
X5628239Y-18299661D02*
G75*
G03X5628239Y-18299661I-85090J0D01*
G01*
X6648141Y-18711728D02*
G75*
G03X6648141Y-18711728I-85090J0D01*
G01*
X12142772Y-16991303D02*
G75*
G03X12142772Y-16991303I-85090J0D01*
G01*
X13162674Y-17403370D02*
G75*
G03X13162674Y-17403370I-85090J0D01*
G01*
X10875661Y-15188864D02*
G75*
G03X10875661Y-15188864I-85090J0D01*
G01*
X11895563Y-15600931D02*
G75*
G03X11895563Y-15600931I-85090J0D01*
G01*
X17008318Y-19023599D02*
G75*
G03X17008318Y-19023599I-85090J0D01*
G01*
X18028220Y-18611532D02*
G75*
G03X18028220Y-18611532I-85090J0D01*
G01*
X17619867Y-15598588D02*
G75*
G03X17619867Y-15598588I-85090J0D01*
G01*
X18639769Y-15186521D02*
G75*
G03X18639769Y-15186521I-85090J0D01*
G01*
X7530832Y-18529091D02*
G75*
G03X7530832Y-18529091I-85090J0D01*
G01*
X8550735Y-18941159D02*
G75*
G03X8550735Y-18941159I-85090J0D01*
G01*
X11487210Y-18613874D02*
G75*
G03X11487210Y-18613874I-85090J0D01*
G01*
X12507112Y-19025942D02*
G75*
G03X12507112Y-19025942I-85090J0D01*
G01*
X12798333Y-15368731D02*
G75*
G03X12798333Y-15368731I-85090J0D01*
G01*
X13818235Y-15780798D02*
G75*
G03X13818235Y-15780798I-85090J0D01*
G01*
X15697195Y-15778455D02*
G75*
G03X15697195Y-15778455I-85090J0D01*
G01*
X16717097Y-15366388D02*
G75*
G03X16717097Y-15366388I-85090J0D01*
G01*
X18275428Y-17221160D02*
G75*
G03X18275428Y-17221160I-85090J0D01*
G01*
X19295331Y-16809093D02*
G75*
G03X19295331Y-16809093I-85090J0D01*
G01*
X18930990Y-18843732D02*
G75*
G03X18930990Y-18843732I-85090J0D01*
G01*
X19950892Y-18431665D02*
G75*
G03X19950892Y-18431665I-85090J0D01*
G01*
X10220100Y-16811436D02*
G75*
G03X10220100Y-16811436I-85090J0D01*
G01*
X11240002Y-17223503D02*
G75*
G03X11240002Y-17223503I-85090J0D01*
G01*
X9564538Y-18434007D02*
G75*
G03X9564538Y-18434007I-85090J0D01*
G01*
X10584440Y-18846075D02*
G75*
G03X10584440Y-18846075I-85090J0D01*
G01*
X16352756Y-17401027D02*
G75*
G03X16352756Y-17401027I-85090J0D01*
G01*
X17372659Y-16988960D02*
G75*
G03X17372659Y-16988960I-85090J0D01*
G01*
X20964696Y-18938816D02*
G75*
G03X20964696Y-18938816I-85090J0D01*
G01*
X21984598Y-18526749D02*
G75*
G03X21984598Y-18526749I-85090J0D01*
G01*
X22867289Y-18709386D02*
G75*
G03X22867289Y-18709386I-85090J0D01*
G01*
X23887191Y-18297319D02*
G75*
G03X23887191Y-18297319I-85090J0D01*
G01*
X6275991Y-17804020D02*
X6275991Y-18104020D01*
X6125991Y-17954020D02*
X6425991Y-17954020D01*
X6657169Y-18195304D02*
X6657169Y-18495304D01*
X6507169Y-18345304D02*
X6807169Y-18345304D01*
X12790524Y-16495662D02*
X12790524Y-16795662D01*
X12640524Y-16645662D02*
X12940524Y-16645662D01*
X13171702Y-16886946D02*
X13171702Y-17186946D01*
X13021702Y-17036946D02*
X13321702Y-17036946D01*
X11523413Y-14693223D02*
X11523413Y-14993223D01*
X11373413Y-14843223D02*
X11673413Y-14843223D01*
X11904592Y-15084507D02*
X11904592Y-15384507D01*
X11754592Y-15234507D02*
X12054592Y-15234507D01*
X17210288Y-18115891D02*
X17210288Y-18415891D01*
X17060288Y-18265891D02*
X17360288Y-18265891D01*
X17756293Y-18132568D02*
X17756293Y-18432568D01*
X17606293Y-18282568D02*
X17906293Y-18282568D01*
X17721614Y-15777552D02*
X17721614Y-16077552D01*
X17571614Y-15927552D02*
X17871614Y-15927552D01*
X18267619Y-15794229D02*
X18267619Y-16094229D01*
X18117619Y-15944229D02*
X18417619Y-15944229D01*
X8178584Y-18033451D02*
X8178584Y-18333451D01*
X8028584Y-18183451D02*
X8328584Y-18183451D01*
X8559763Y-18424734D02*
X8559763Y-18724734D01*
X8409763Y-18574734D02*
X8709763Y-18574734D01*
X12134962Y-18118234D02*
X12134962Y-18418234D01*
X11984962Y-18268234D02*
X12284962Y-18268234D01*
X12516141Y-18509517D02*
X12516141Y-18809517D01*
X12366141Y-18659517D02*
X12666141Y-18659517D01*
X13446085Y-14873090D02*
X13446085Y-15173090D01*
X13296085Y-15023090D02*
X13596085Y-15023090D01*
X13827264Y-15264374D02*
X13827264Y-15564374D01*
X13677264Y-15414374D02*
X13977264Y-15414374D01*
X15899165Y-14870747D02*
X15899165Y-15170747D01*
X15749165Y-15020747D02*
X16049165Y-15020747D01*
X16445170Y-14887425D02*
X16445170Y-15187425D01*
X16295170Y-15037425D02*
X16595170Y-15037425D01*
X18377175Y-17400124D02*
X18377175Y-17700124D01*
X18227175Y-17550124D02*
X18527175Y-17550124D01*
X18923180Y-17416801D02*
X18923180Y-17716801D01*
X18773180Y-17566801D02*
X19073180Y-17566801D01*
X19032737Y-19022696D02*
X19032737Y-19322696D01*
X18882737Y-19172696D02*
X19182737Y-19172696D01*
X19578742Y-19039373D02*
X19578742Y-19339373D01*
X19428742Y-19189373D02*
X19728742Y-19189373D01*
X10867852Y-16315795D02*
X10867852Y-16615795D01*
X10717852Y-16465795D02*
X11017852Y-16465795D01*
X11249030Y-16707078D02*
X11249030Y-17007079D01*
X11099030Y-16857079D02*
X11399030Y-16857079D01*
X10212290Y-17938367D02*
X10212290Y-18238367D01*
X10062290Y-18088367D02*
X10362290Y-18088367D01*
X10593469Y-18329650D02*
X10593469Y-18629650D01*
X10443469Y-18479650D02*
X10743469Y-18479650D01*
X16554726Y-16493319D02*
X16554726Y-16793319D01*
X16404726Y-16643319D02*
X16704726Y-16643319D01*
X17100732Y-16509996D02*
X17100732Y-16809996D01*
X16950732Y-16659996D02*
X17250732Y-16659996D01*
X21066442Y-19117780D02*
X21066442Y-19417780D01*
X20916442Y-19267780D02*
X21216442Y-19267780D01*
X21612448Y-19134457D02*
X21612448Y-19434457D01*
X21462448Y-19284457D02*
X21762448Y-19284457D01*
X22969036Y-18888349D02*
X22969036Y-19188349D01*
X22819036Y-19038349D02*
X23119036Y-19038349D01*
X23515041Y-18905027D02*
X23515041Y-19205027D01*
X23365041Y-19055027D02*
X23665041Y-19055027D01*
X18165963Y-15513789D02*
X18165963Y-15271320D01*
X17923493Y-15271320D01*
X17923493Y-15513789D01*
X18165963Y-15513789D01*
X8076928Y-18856360D02*
X8076928Y-18613890D01*
X7834459Y-18613890D01*
X7834459Y-18856360D01*
X8076928Y-18856360D01*
X12033306Y-18941143D02*
X12033306Y-18698673D01*
X11790837Y-18698673D01*
X11790837Y-18941143D01*
X12033306Y-18941143D01*
X13344429Y-15695999D02*
X13344429Y-15453530D01*
X13101960Y-15453530D01*
X13101960Y-15695999D01*
X13344429Y-15695999D01*
X16243290Y-15693656D02*
X16243290Y-15451187D01*
X16000821Y-15451187D01*
X16000821Y-15693656D01*
X16243290Y-15693656D01*
X18821524Y-17136361D02*
X18821524Y-16893892D01*
X18579055Y-16893892D01*
X18579055Y-17136361D01*
X18821524Y-17136361D01*
X19477086Y-18758933D02*
X19477086Y-18516464D01*
X19234616Y-18516464D01*
X19234616Y-18758933D01*
X19477086Y-18758933D01*
X10766195Y-17138704D02*
X10766195Y-16896235D01*
X10523726Y-16896235D01*
X10523726Y-17138704D01*
X10766195Y-17138704D01*
X10110634Y-18761276D02*
X10110634Y-18518806D01*
X9868165Y-18518806D01*
X9868165Y-18761276D01*
X10110634Y-18761276D01*
X16898852Y-17316228D02*
X16898852Y-17073759D01*
X16656383Y-17073759D01*
X16656383Y-17316228D01*
X16898852Y-17316228D01*
X21510791Y-18854017D02*
X21510791Y-18611548D01*
X21268322Y-18611548D01*
X21268322Y-18854017D01*
X21510791Y-18854017D01*
X23413385Y-18624587D02*
X23413385Y-18382118D01*
X23170916Y-18382118D01*
X23170916Y-18624587D01*
X23413385Y-18624587D01*
X6174335Y-18626929D02*
X6174335Y-18384460D01*
X5931865Y-18384460D01*
X5931865Y-18626929D01*
X6174335Y-18626929D01*
X12688867Y-17318571D02*
X12688867Y-17076102D01*
X12446398Y-17076102D01*
X12446398Y-17318571D01*
X12688867Y-17318571D01*
X11421757Y-15516132D02*
X11421757Y-15273663D01*
X11179288Y-15273663D01*
X11179288Y-15516132D01*
X11421757Y-15516132D01*
X17554414Y-18938800D02*
X17554414Y-18696331D01*
X17311944Y-18696331D01*
X17311944Y-18938800D01*
X17554414Y-18938800D01*
D12*
X5054342Y-23562039D02*
X5054342Y-23262039D01*
X5125770Y-23262039D01*
X5168627Y-23276325D01*
X5197199Y-23304896D01*
X5211485Y-23333468D01*
X5225770Y-23390611D01*
X5225770Y-23433468D01*
X5211485Y-23490611D01*
X5197199Y-23519182D01*
X5168627Y-23547753D01*
X5125770Y-23562039D01*
X5054342Y-23562039D01*
X5354342Y-23562039D02*
X5354342Y-23362039D01*
X5354342Y-23419182D02*
X5368627Y-23390611D01*
X5382913Y-23376325D01*
X5411485Y-23362039D01*
X5440056Y-23362039D01*
X5540056Y-23562039D02*
X5540056Y-23362039D01*
X5540056Y-23262039D02*
X5525770Y-23276325D01*
X5540056Y-23290611D01*
X5554342Y-23276325D01*
X5540056Y-23262039D01*
X5540056Y-23290611D01*
X5725770Y-23562039D02*
X5697199Y-23547753D01*
X5682913Y-23519182D01*
X5682913Y-23262039D01*
X5882913Y-23562039D02*
X5854342Y-23547753D01*
X5840056Y-23519182D01*
X5840056Y-23262039D01*
X6225770Y-23562039D02*
X6225770Y-23262039D01*
X6325770Y-23476325D01*
X6425770Y-23262039D01*
X6425770Y-23562039D01*
X6697199Y-23562039D02*
X6697199Y-23404896D01*
X6682913Y-23376325D01*
X6654342Y-23362039D01*
X6597199Y-23362039D01*
X6568627Y-23376325D01*
X6697199Y-23547753D02*
X6668627Y-23562039D01*
X6597199Y-23562039D01*
X6568627Y-23547753D01*
X6554342Y-23519182D01*
X6554342Y-23490611D01*
X6568627Y-23462039D01*
X6597199Y-23447753D01*
X6668627Y-23447753D01*
X6697199Y-23433468D01*
X6840056Y-23362039D02*
X6840056Y-23662039D01*
X6840056Y-23376325D02*
X6868627Y-23362039D01*
X6925770Y-23362039D01*
X6954342Y-23376325D01*
X6968627Y-23390611D01*
X6982913Y-23419182D01*
X6982913Y-23504896D01*
X6968627Y-23533468D01*
X6954342Y-23547753D01*
X6925770Y-23562039D01*
X6868627Y-23562039D01*
X6840056Y-23547753D01*
X7111484Y-23533468D02*
X7125770Y-23547753D01*
X7111484Y-23562039D01*
X7097199Y-23547753D01*
X7111484Y-23533468D01*
X7111484Y-23562039D01*
X7111484Y-23376325D02*
X7125770Y-23390611D01*
X7111484Y-23404896D01*
X7097199Y-23390611D01*
X7111484Y-23376325D01*
X7111484Y-23404896D01*
X4707913Y-24026325D02*
X4767913Y-24086325D01*
X4767913Y-24026325D02*
X4707913Y-24086325D01*
X5111485Y-23892039D02*
X5140056Y-23892039D01*
X5168627Y-23906325D01*
X5182913Y-23920611D01*
X5197199Y-23949182D01*
X5211485Y-24006325D01*
X5211485Y-24077753D01*
X5197199Y-24134896D01*
X5182913Y-24163468D01*
X5168627Y-24177753D01*
X5140056Y-24192039D01*
X5111485Y-24192039D01*
X5082913Y-24177753D01*
X5068627Y-24163468D01*
X5054342Y-24134896D01*
X5040056Y-24077753D01*
X5040056Y-24006325D01*
X5054342Y-23949182D01*
X5068627Y-23920611D01*
X5082913Y-23906325D01*
X5111485Y-23892039D01*
X5340056Y-24163468D02*
X5354342Y-24177753D01*
X5340056Y-24192039D01*
X5325770Y-24177753D01*
X5340056Y-24163468D01*
X5340056Y-24192039D01*
X5611484Y-23892039D02*
X5554342Y-23892039D01*
X5525770Y-23906325D01*
X5511485Y-23920611D01*
X5482913Y-23963468D01*
X5468627Y-24020611D01*
X5468627Y-24134896D01*
X5482913Y-24163468D01*
X5497199Y-24177753D01*
X5525770Y-24192039D01*
X5582913Y-24192039D01*
X5611484Y-24177753D01*
X5625770Y-24163468D01*
X5640056Y-24134896D01*
X5640056Y-24063468D01*
X5625770Y-24034896D01*
X5611484Y-24020611D01*
X5582913Y-24006325D01*
X5525770Y-24006325D01*
X5497199Y-24020611D01*
X5482913Y-24034896D01*
X5468627Y-24063468D01*
X5825770Y-23892039D02*
X5854342Y-23892039D01*
X5882913Y-23906325D01*
X5897199Y-23920611D01*
X5911484Y-23949182D01*
X5925770Y-24006325D01*
X5925770Y-24077753D01*
X5911484Y-24134896D01*
X5897199Y-24163468D01*
X5882913Y-24177753D01*
X5854342Y-24192039D01*
X5825770Y-24192039D01*
X5797199Y-24177753D01*
X5782913Y-24163468D01*
X5768627Y-24134896D01*
X5754342Y-24077753D01*
X5754342Y-24006325D01*
X5768627Y-23949182D01*
X5782913Y-23920611D01*
X5797199Y-23906325D01*
X5825770Y-23892039D01*
X6054342Y-24192039D02*
X6054342Y-23992039D01*
X6054342Y-24020611D02*
X6068627Y-24006325D01*
X6097199Y-23992039D01*
X6140056Y-23992039D01*
X6168627Y-24006325D01*
X6182913Y-24034896D01*
X6182913Y-24192039D01*
X6182913Y-24034896D02*
X6197199Y-24006325D01*
X6225770Y-23992039D01*
X6268627Y-23992039D01*
X6297199Y-24006325D01*
X6311484Y-24034896D01*
X6311484Y-24192039D01*
X6454342Y-24192039D02*
X6454342Y-23992039D01*
X6454342Y-24020611D02*
X6468627Y-24006325D01*
X6497199Y-23992039D01*
X6540056Y-23992039D01*
X6568627Y-24006325D01*
X6582913Y-24034896D01*
X6582913Y-24192039D01*
X6582913Y-24034896D02*
X6597199Y-24006325D01*
X6625770Y-23992039D01*
X6668627Y-23992039D01*
X6697199Y-24006325D01*
X6711484Y-24034896D01*
X6711484Y-24192039D01*
X7297199Y-23877753D02*
X7040056Y-24263468D01*
X7682913Y-23892039D02*
X7711484Y-23892039D01*
X7740056Y-23906325D01*
X7754342Y-23920611D01*
X7768627Y-23949182D01*
X7782913Y-24006325D01*
X7782913Y-24077753D01*
X7768627Y-24134896D01*
X7754342Y-24163468D01*
X7740056Y-24177753D01*
X7711484Y-24192039D01*
X7682913Y-24192039D01*
X7654342Y-24177753D01*
X7640056Y-24163468D01*
X7625770Y-24134896D01*
X7611484Y-24077753D01*
X7611484Y-24006325D01*
X7625770Y-23949182D01*
X7640056Y-23920611D01*
X7654342Y-23906325D01*
X7682913Y-23892039D01*
X7911484Y-24163468D02*
X7925770Y-24177753D01*
X7911484Y-24192039D01*
X7897199Y-24177753D01*
X7911484Y-24163468D01*
X7911484Y-24192039D01*
X8111484Y-23892039D02*
X8140056Y-23892039D01*
X8168627Y-23906325D01*
X8182913Y-23920611D01*
X8197199Y-23949182D01*
X8211484Y-24006325D01*
X8211484Y-24077753D01*
X8197199Y-24134896D01*
X8182913Y-24163468D01*
X8168627Y-24177753D01*
X8140056Y-24192039D01*
X8111484Y-24192039D01*
X8082913Y-24177753D01*
X8068627Y-24163468D01*
X8054342Y-24134896D01*
X8040056Y-24077753D01*
X8040056Y-24006325D01*
X8054342Y-23949182D01*
X8068627Y-23920611D01*
X8082913Y-23906325D01*
X8111484Y-23892039D01*
X8325770Y-23920611D02*
X8340056Y-23906325D01*
X8368627Y-23892039D01*
X8440056Y-23892039D01*
X8468627Y-23906325D01*
X8482913Y-23920611D01*
X8497199Y-23949182D01*
X8497199Y-23977753D01*
X8482913Y-24020611D01*
X8311484Y-24192039D01*
X8497199Y-24192039D01*
X8754342Y-23992039D02*
X8754342Y-24192039D01*
X8682913Y-23877753D02*
X8611485Y-24092039D01*
X8797199Y-24092039D01*
X8897199Y-23892039D02*
X8897199Y-23949182D01*
X9011485Y-23892039D02*
X9011485Y-23949182D01*
X9454342Y-24306325D02*
X9440056Y-24292039D01*
X9411485Y-24249182D01*
X9397199Y-24220611D01*
X9382913Y-24177753D01*
X9368627Y-24106325D01*
X9368627Y-24049182D01*
X9382913Y-23977753D01*
X9397199Y-23934896D01*
X9411485Y-23906325D01*
X9440056Y-23863468D01*
X9454342Y-23849182D01*
X9554342Y-23920611D02*
X9568627Y-23906325D01*
X9597199Y-23892039D01*
X9668627Y-23892039D01*
X9697199Y-23906325D01*
X9711485Y-23920611D01*
X9725770Y-23949182D01*
X9725770Y-23977753D01*
X9711485Y-24020611D01*
X9540056Y-24192039D01*
X9725770Y-24192039D01*
X10082913Y-24192039D02*
X10082913Y-23892039D01*
X10211485Y-24192039D02*
X10211485Y-24034896D01*
X10197199Y-24006325D01*
X10168627Y-23992039D01*
X10125770Y-23992039D01*
X10097199Y-24006325D01*
X10082913Y-24020611D01*
X10397199Y-24192039D02*
X10368627Y-24177753D01*
X10354342Y-24163468D01*
X10340056Y-24134896D01*
X10340056Y-24049182D01*
X10354342Y-24020611D01*
X10368627Y-24006325D01*
X10397199Y-23992039D01*
X10440056Y-23992039D01*
X10468627Y-24006325D01*
X10482913Y-24020611D01*
X10497199Y-24049182D01*
X10497199Y-24134896D01*
X10482913Y-24163468D01*
X10468627Y-24177753D01*
X10440056Y-24192039D01*
X10397199Y-24192039D01*
X10668627Y-24192039D02*
X10640056Y-24177753D01*
X10625770Y-24149182D01*
X10625770Y-23892039D01*
X10897199Y-24177753D02*
X10868627Y-24192039D01*
X10811485Y-24192039D01*
X10782913Y-24177753D01*
X10768627Y-24149182D01*
X10768627Y-24034896D01*
X10782913Y-24006325D01*
X10811485Y-23992039D01*
X10868627Y-23992039D01*
X10897199Y-24006325D01*
X10911485Y-24034896D01*
X10911485Y-24063468D01*
X10768627Y-24092039D01*
X11025770Y-24177753D02*
X11054342Y-24192039D01*
X11111485Y-24192039D01*
X11140056Y-24177753D01*
X11154342Y-24149182D01*
X11154342Y-24134896D01*
X11140056Y-24106325D01*
X11111485Y-24092039D01*
X11068627Y-24092039D01*
X11040056Y-24077753D01*
X11025770Y-24049182D01*
X11025770Y-24034896D01*
X11040056Y-24006325D01*
X11068627Y-23992039D01*
X11111485Y-23992039D01*
X11140056Y-24006325D01*
X11254342Y-24306325D02*
X11268627Y-24292039D01*
X11297199Y-24249182D01*
X11311484Y-24220611D01*
X11325770Y-24177753D01*
X11340056Y-24106325D01*
X11340056Y-24049182D01*
X11325770Y-23977753D01*
X11311484Y-23934896D01*
X11297199Y-23906325D01*
X11268627Y-23863468D01*
X11254342Y-23849182D01*
X11797199Y-24306325D02*
X11782913Y-24292039D01*
X11754342Y-24249182D01*
X11740056Y-24220611D01*
X11725770Y-24177753D01*
X11711484Y-24106325D01*
X11711484Y-24049182D01*
X11725770Y-23977753D01*
X11740056Y-23934896D01*
X11754342Y-23906325D01*
X11782913Y-23863468D01*
X11797199Y-23849182D01*
X11911484Y-23992039D02*
X11911484Y-24192039D01*
X11911484Y-24020611D02*
X11925770Y-24006325D01*
X11954342Y-23992039D01*
X11997199Y-23992039D01*
X12025770Y-24006325D01*
X12040056Y-24034896D01*
X12040056Y-24192039D01*
X12225770Y-24192039D02*
X12197199Y-24177753D01*
X12182913Y-24163468D01*
X12168627Y-24134896D01*
X12168627Y-24049182D01*
X12182913Y-24020611D01*
X12197199Y-24006325D01*
X12225770Y-23992039D01*
X12268627Y-23992039D01*
X12297199Y-24006325D01*
X12311484Y-24020611D01*
X12325770Y-24049182D01*
X12325770Y-24134896D01*
X12311484Y-24163468D01*
X12297199Y-24177753D01*
X12268627Y-24192039D01*
X12225770Y-24192039D01*
X12411484Y-23992039D02*
X12525770Y-23992039D01*
X12454342Y-23892039D02*
X12454342Y-24149182D01*
X12468627Y-24177753D01*
X12497199Y-24192039D01*
X12525770Y-24192039D01*
X12854342Y-23992039D02*
X12854342Y-24292039D01*
X12854342Y-24006325D02*
X12882913Y-23992039D01*
X12940056Y-23992039D01*
X12968627Y-24006325D01*
X12982913Y-24020611D01*
X12997199Y-24049182D01*
X12997199Y-24134896D01*
X12982913Y-24163468D01*
X12968627Y-24177753D01*
X12940056Y-24192039D01*
X12882913Y-24192039D01*
X12854342Y-24177753D01*
X13168627Y-24192039D02*
X13140056Y-24177753D01*
X13125770Y-24149182D01*
X13125770Y-23892039D01*
X13411484Y-24192039D02*
X13411484Y-24034896D01*
X13397199Y-24006325D01*
X13368627Y-23992039D01*
X13311484Y-23992039D01*
X13282913Y-24006325D01*
X13411484Y-24177753D02*
X13382913Y-24192039D01*
X13311484Y-24192039D01*
X13282913Y-24177753D01*
X13268627Y-24149182D01*
X13268627Y-24120611D01*
X13282913Y-24092039D01*
X13311484Y-24077753D01*
X13382913Y-24077753D01*
X13411484Y-24063468D01*
X13511484Y-23992039D02*
X13625770Y-23992039D01*
X13554342Y-23892039D02*
X13554342Y-24149182D01*
X13568627Y-24177753D01*
X13597199Y-24192039D01*
X13625770Y-24192039D01*
X13840056Y-24177753D02*
X13811484Y-24192039D01*
X13754342Y-24192039D01*
X13725770Y-24177753D01*
X13711484Y-24149182D01*
X13711484Y-24034896D01*
X13725770Y-24006325D01*
X13754342Y-23992039D01*
X13811484Y-23992039D01*
X13840056Y-24006325D01*
X13854342Y-24034896D01*
X13854342Y-24063468D01*
X13711484Y-24092039D01*
X14111484Y-24192039D02*
X14111484Y-23892039D01*
X14111484Y-24177753D02*
X14082913Y-24192039D01*
X14025770Y-24192039D01*
X13997199Y-24177753D01*
X13982913Y-24163468D01*
X13968627Y-24134896D01*
X13968627Y-24049182D01*
X13982913Y-24020611D01*
X13997199Y-24006325D01*
X14025770Y-23992039D01*
X14082913Y-23992039D01*
X14111484Y-24006325D01*
X14225770Y-24306325D02*
X14240056Y-24292039D01*
X14268627Y-24249182D01*
X14282913Y-24220611D01*
X14297199Y-24177753D01*
X14311484Y-24106325D01*
X14311484Y-24049182D01*
X14297199Y-23977753D01*
X14282913Y-23934896D01*
X14268627Y-23906325D01*
X14240056Y-23863468D01*
X14225770Y-23849182D01*
X4767913Y-24452325D02*
G75*
G03X4767913Y-24452325I-85090J0D01*
G01*
X5211485Y-24588039D02*
X5040056Y-24588039D01*
X5125770Y-24588039D02*
X5125770Y-24288039D01*
X5097199Y-24330896D01*
X5068627Y-24359468D01*
X5040056Y-24373753D01*
X5340056Y-24559468D02*
X5354342Y-24573753D01*
X5340056Y-24588039D01*
X5325770Y-24573753D01*
X5340056Y-24559468D01*
X5340056Y-24588039D01*
X5454342Y-24288039D02*
X5654342Y-24288039D01*
X5525770Y-24588039D01*
X5825770Y-24288039D02*
X5854342Y-24288039D01*
X5882913Y-24302325D01*
X5897199Y-24316611D01*
X5911484Y-24345182D01*
X5925770Y-24402325D01*
X5925770Y-24473753D01*
X5911484Y-24530896D01*
X5897199Y-24559468D01*
X5882913Y-24573753D01*
X5854342Y-24588039D01*
X5825770Y-24588039D01*
X5797199Y-24573753D01*
X5782913Y-24559468D01*
X5768627Y-24530896D01*
X5754342Y-24473753D01*
X5754342Y-24402325D01*
X5768627Y-24345182D01*
X5782913Y-24316611D01*
X5797199Y-24302325D01*
X5825770Y-24288039D01*
X6054342Y-24588039D02*
X6054342Y-24388039D01*
X6054342Y-24416611D02*
X6068627Y-24402325D01*
X6097199Y-24388039D01*
X6140056Y-24388039D01*
X6168627Y-24402325D01*
X6182913Y-24430896D01*
X6182913Y-24588039D01*
X6182913Y-24430896D02*
X6197199Y-24402325D01*
X6225770Y-24388039D01*
X6268627Y-24388039D01*
X6297199Y-24402325D01*
X6311484Y-24430896D01*
X6311484Y-24588039D01*
X6454342Y-24588039D02*
X6454342Y-24388039D01*
X6454342Y-24416611D02*
X6468627Y-24402325D01*
X6497199Y-24388039D01*
X6540056Y-24388039D01*
X6568627Y-24402325D01*
X6582913Y-24430896D01*
X6582913Y-24588039D01*
X6582913Y-24430896D02*
X6597199Y-24402325D01*
X6625770Y-24388039D01*
X6668627Y-24388039D01*
X6697199Y-24402325D01*
X6711484Y-24430896D01*
X6711484Y-24588039D01*
X7297199Y-24273753D02*
X7040056Y-24659468D01*
X7682913Y-24288039D02*
X7711484Y-24288039D01*
X7740056Y-24302325D01*
X7754342Y-24316611D01*
X7768627Y-24345182D01*
X7782913Y-24402325D01*
X7782913Y-24473753D01*
X7768627Y-24530896D01*
X7754342Y-24559468D01*
X7740056Y-24573753D01*
X7711484Y-24588039D01*
X7682913Y-24588039D01*
X7654342Y-24573753D01*
X7640056Y-24559468D01*
X7625770Y-24530896D01*
X7611484Y-24473753D01*
X7611484Y-24402325D01*
X7625770Y-24345182D01*
X7640056Y-24316611D01*
X7654342Y-24302325D01*
X7682913Y-24288039D01*
X7911484Y-24559468D02*
X7925770Y-24573753D01*
X7911484Y-24588039D01*
X7897199Y-24573753D01*
X7911484Y-24559468D01*
X7911484Y-24588039D01*
X8111484Y-24288039D02*
X8140056Y-24288039D01*
X8168627Y-24302325D01*
X8182913Y-24316611D01*
X8197199Y-24345182D01*
X8211484Y-24402325D01*
X8211484Y-24473753D01*
X8197199Y-24530896D01*
X8182913Y-24559468D01*
X8168627Y-24573753D01*
X8140056Y-24588039D01*
X8111484Y-24588039D01*
X8082913Y-24573753D01*
X8068627Y-24559468D01*
X8054342Y-24530896D01*
X8040056Y-24473753D01*
X8040056Y-24402325D01*
X8054342Y-24345182D01*
X8068627Y-24316611D01*
X8082913Y-24302325D01*
X8111484Y-24288039D01*
X8468627Y-24288039D02*
X8411485Y-24288039D01*
X8382913Y-24302325D01*
X8368627Y-24316611D01*
X8340056Y-24359468D01*
X8325770Y-24416611D01*
X8325770Y-24530896D01*
X8340056Y-24559468D01*
X8354342Y-24573753D01*
X8382913Y-24588039D01*
X8440056Y-24588039D01*
X8468627Y-24573753D01*
X8482913Y-24559468D01*
X8497199Y-24530896D01*
X8497199Y-24459468D01*
X8482913Y-24430896D01*
X8468627Y-24416611D01*
X8440056Y-24402325D01*
X8382913Y-24402325D01*
X8354342Y-24416611D01*
X8340056Y-24430896D01*
X8325770Y-24459468D01*
X8597199Y-24288039D02*
X8797199Y-24288039D01*
X8668627Y-24588039D01*
X8897199Y-24288039D02*
X8897199Y-24345182D01*
X9011485Y-24288039D02*
X9011485Y-24345182D01*
X9454342Y-24702325D02*
X9440056Y-24688039D01*
X9411485Y-24645182D01*
X9397199Y-24616611D01*
X9382913Y-24573753D01*
X9368627Y-24502325D01*
X9368627Y-24445182D01*
X9382913Y-24373753D01*
X9397199Y-24330896D01*
X9411485Y-24302325D01*
X9440056Y-24259468D01*
X9454342Y-24245182D01*
X9540056Y-24288039D02*
X9725770Y-24288039D01*
X9625770Y-24402325D01*
X9668627Y-24402325D01*
X9697199Y-24416611D01*
X9711485Y-24430896D01*
X9725770Y-24459468D01*
X9725770Y-24530896D01*
X9711485Y-24559468D01*
X9697199Y-24573753D01*
X9668627Y-24588039D01*
X9582913Y-24588039D01*
X9554342Y-24573753D01*
X9540056Y-24559468D01*
X9840056Y-24316611D02*
X9854342Y-24302325D01*
X9882913Y-24288039D01*
X9954342Y-24288039D01*
X9982913Y-24302325D01*
X9997199Y-24316611D01*
X10011485Y-24345182D01*
X10011485Y-24373753D01*
X9997199Y-24416611D01*
X9825770Y-24588039D01*
X10011485Y-24588039D01*
X10368627Y-24588039D02*
X10368627Y-24288039D01*
X10497199Y-24588039D02*
X10497199Y-24430896D01*
X10482913Y-24402325D01*
X10454342Y-24388039D01*
X10411485Y-24388039D01*
X10382913Y-24402325D01*
X10368627Y-24416611D01*
X10682913Y-24588039D02*
X10654342Y-24573753D01*
X10640056Y-24559468D01*
X10625770Y-24530896D01*
X10625770Y-24445182D01*
X10640056Y-24416611D01*
X10654342Y-24402325D01*
X10682913Y-24388039D01*
X10725770Y-24388039D01*
X10754342Y-24402325D01*
X10768627Y-24416611D01*
X10782913Y-24445182D01*
X10782913Y-24530896D01*
X10768627Y-24559468D01*
X10754342Y-24573753D01*
X10725770Y-24588039D01*
X10682913Y-24588039D01*
X10954342Y-24588039D02*
X10925770Y-24573753D01*
X10911485Y-24545182D01*
X10911485Y-24288039D01*
X11182913Y-24573753D02*
X11154342Y-24588039D01*
X11097199Y-24588039D01*
X11068627Y-24573753D01*
X11054342Y-24545182D01*
X11054342Y-24430896D01*
X11068627Y-24402325D01*
X11097199Y-24388039D01*
X11154342Y-24388039D01*
X11182913Y-24402325D01*
X11197199Y-24430896D01*
X11197199Y-24459468D01*
X11054342Y-24488039D01*
X11311484Y-24573753D02*
X11340056Y-24588039D01*
X11397199Y-24588039D01*
X11425770Y-24573753D01*
X11440056Y-24545182D01*
X11440056Y-24530896D01*
X11425770Y-24502325D01*
X11397199Y-24488039D01*
X11354342Y-24488039D01*
X11325770Y-24473753D01*
X11311484Y-24445182D01*
X11311484Y-24430896D01*
X11325770Y-24402325D01*
X11354342Y-24388039D01*
X11397199Y-24388039D01*
X11425770Y-24402325D01*
X11540056Y-24702325D02*
X11554342Y-24688039D01*
X11582913Y-24645182D01*
X11597199Y-24616611D01*
X11611484Y-24573753D01*
X11625770Y-24502325D01*
X11625770Y-24445182D01*
X11611484Y-24373753D01*
X11597199Y-24330896D01*
X11582913Y-24302325D01*
X11554342Y-24259468D01*
X11540056Y-24245182D01*
X12082913Y-24702325D02*
X12068627Y-24688039D01*
X12040056Y-24645182D01*
X12025770Y-24616611D01*
X12011484Y-24573753D01*
X11997199Y-24502325D01*
X11997199Y-24445182D01*
X12011484Y-24373753D01*
X12025770Y-24330896D01*
X12040056Y-24302325D01*
X12068627Y-24259468D01*
X12082913Y-24245182D01*
X12197199Y-24388039D02*
X12197199Y-24588039D01*
X12197199Y-24416611D02*
X12211484Y-24402325D01*
X12240056Y-24388039D01*
X12282913Y-24388039D01*
X12311484Y-24402325D01*
X12325770Y-24430896D01*
X12325770Y-24588039D01*
X12511484Y-24588039D02*
X12482913Y-24573753D01*
X12468627Y-24559468D01*
X12454342Y-24530896D01*
X12454342Y-24445182D01*
X12468627Y-24416611D01*
X12482913Y-24402325D01*
X12511484Y-24388039D01*
X12554342Y-24388039D01*
X12582913Y-24402325D01*
X12597199Y-24416611D01*
X12611484Y-24445182D01*
X12611484Y-24530896D01*
X12597199Y-24559468D01*
X12582913Y-24573753D01*
X12554342Y-24588039D01*
X12511484Y-24588039D01*
X12697199Y-24388039D02*
X12811484Y-24388039D01*
X12740056Y-24288039D02*
X12740056Y-24545182D01*
X12754342Y-24573753D01*
X12782913Y-24588039D01*
X12811484Y-24588039D01*
X13140056Y-24388039D02*
X13140056Y-24688039D01*
X13140056Y-24402325D02*
X13168627Y-24388039D01*
X13225770Y-24388039D01*
X13254342Y-24402325D01*
X13268627Y-24416611D01*
X13282913Y-24445182D01*
X13282913Y-24530896D01*
X13268627Y-24559468D01*
X13254342Y-24573753D01*
X13225770Y-24588039D01*
X13168627Y-24588039D01*
X13140056Y-24573753D01*
X13454342Y-24588039D02*
X13425770Y-24573753D01*
X13411484Y-24545182D01*
X13411484Y-24288039D01*
X13697199Y-24588039D02*
X13697199Y-24430896D01*
X13682913Y-24402325D01*
X13654342Y-24388039D01*
X13597199Y-24388039D01*
X13568627Y-24402325D01*
X13697199Y-24573753D02*
X13668627Y-24588039D01*
X13597199Y-24588039D01*
X13568627Y-24573753D01*
X13554342Y-24545182D01*
X13554342Y-24516611D01*
X13568627Y-24488039D01*
X13597199Y-24473753D01*
X13668627Y-24473753D01*
X13697199Y-24459468D01*
X13797199Y-24388039D02*
X13911484Y-24388039D01*
X13840056Y-24288039D02*
X13840056Y-24545182D01*
X13854342Y-24573753D01*
X13882913Y-24588039D01*
X13911484Y-24588039D01*
X14125770Y-24573753D02*
X14097199Y-24588039D01*
X14040056Y-24588039D01*
X14011484Y-24573753D01*
X13997199Y-24545182D01*
X13997199Y-24430896D01*
X14011484Y-24402325D01*
X14040056Y-24388039D01*
X14097199Y-24388039D01*
X14125770Y-24402325D01*
X14140056Y-24430896D01*
X14140056Y-24459468D01*
X13997199Y-24488039D01*
X14397199Y-24588039D02*
X14397199Y-24288039D01*
X14397199Y-24573753D02*
X14368627Y-24588039D01*
X14311484Y-24588039D01*
X14282913Y-24573753D01*
X14268627Y-24559468D01*
X14254342Y-24530896D01*
X14254342Y-24445182D01*
X14268627Y-24416611D01*
X14282913Y-24402325D01*
X14311484Y-24388039D01*
X14368627Y-24388039D01*
X14397199Y-24402325D01*
X14511484Y-24702325D02*
X14525770Y-24688039D01*
X14554342Y-24645182D01*
X14568627Y-24616611D01*
X14582913Y-24573753D01*
X14597199Y-24502325D01*
X14597199Y-24445182D01*
X14582913Y-24373753D01*
X14568627Y-24330896D01*
X14554342Y-24302325D01*
X14525770Y-24259468D01*
X14511484Y-24245182D01*
X4617913Y-24698325D02*
X4617913Y-24998325D01*
X4467913Y-24848325D02*
X4767913Y-24848325D01*
X5025770Y-24684039D02*
X5211485Y-24684039D01*
X5111485Y-24798325D01*
X5154342Y-24798325D01*
X5182913Y-24812611D01*
X5197199Y-24826896D01*
X5211485Y-24855468D01*
X5211485Y-24926896D01*
X5197199Y-24955468D01*
X5182913Y-24969753D01*
X5154342Y-24984039D01*
X5068627Y-24984039D01*
X5040056Y-24969753D01*
X5025770Y-24955468D01*
X5340056Y-24955468D02*
X5354342Y-24969753D01*
X5340056Y-24984039D01*
X5325770Y-24969753D01*
X5340056Y-24955468D01*
X5340056Y-24984039D01*
X5540056Y-24684039D02*
X5568627Y-24684039D01*
X5597199Y-24698325D01*
X5611484Y-24712611D01*
X5625770Y-24741182D01*
X5640056Y-24798325D01*
X5640056Y-24869753D01*
X5625770Y-24926896D01*
X5611484Y-24955468D01*
X5597199Y-24969753D01*
X5568627Y-24984039D01*
X5540056Y-24984039D01*
X5511485Y-24969753D01*
X5497199Y-24955468D01*
X5482913Y-24926896D01*
X5468627Y-24869753D01*
X5468627Y-24798325D01*
X5482913Y-24741182D01*
X5497199Y-24712611D01*
X5511485Y-24698325D01*
X5540056Y-24684039D01*
X5825770Y-24684039D02*
X5854342Y-24684039D01*
X5882913Y-24698325D01*
X5897199Y-24712611D01*
X5911484Y-24741182D01*
X5925770Y-24798325D01*
X5925770Y-24869753D01*
X5911484Y-24926896D01*
X5897199Y-24955468D01*
X5882913Y-24969753D01*
X5854342Y-24984039D01*
X5825770Y-24984039D01*
X5797199Y-24969753D01*
X5782913Y-24955468D01*
X5768627Y-24926896D01*
X5754342Y-24869753D01*
X5754342Y-24798325D01*
X5768627Y-24741182D01*
X5782913Y-24712611D01*
X5797199Y-24698325D01*
X5825770Y-24684039D01*
X6054342Y-24984039D02*
X6054342Y-24784039D01*
X6054342Y-24812611D02*
X6068627Y-24798325D01*
X6097199Y-24784039D01*
X6140056Y-24784039D01*
X6168627Y-24798325D01*
X6182913Y-24826896D01*
X6182913Y-24984039D01*
X6182913Y-24826896D02*
X6197199Y-24798325D01*
X6225770Y-24784039D01*
X6268627Y-24784039D01*
X6297199Y-24798325D01*
X6311484Y-24826896D01*
X6311484Y-24984039D01*
X6454342Y-24984039D02*
X6454342Y-24784039D01*
X6454342Y-24812611D02*
X6468627Y-24798325D01*
X6497199Y-24784039D01*
X6540056Y-24784039D01*
X6568627Y-24798325D01*
X6582913Y-24826896D01*
X6582913Y-24984039D01*
X6582913Y-24826896D02*
X6597199Y-24798325D01*
X6625770Y-24784039D01*
X6668627Y-24784039D01*
X6697199Y-24798325D01*
X6711484Y-24826896D01*
X6711484Y-24984039D01*
X7297199Y-24669753D02*
X7040056Y-25055468D01*
X7682913Y-24684039D02*
X7711484Y-24684039D01*
X7740056Y-24698325D01*
X7754342Y-24712611D01*
X7768627Y-24741182D01*
X7782913Y-24798325D01*
X7782913Y-24869753D01*
X7768627Y-24926896D01*
X7754342Y-24955468D01*
X7740056Y-24969753D01*
X7711484Y-24984039D01*
X7682913Y-24984039D01*
X7654342Y-24969753D01*
X7640056Y-24955468D01*
X7625770Y-24926896D01*
X7611484Y-24869753D01*
X7611484Y-24798325D01*
X7625770Y-24741182D01*
X7640056Y-24712611D01*
X7654342Y-24698325D01*
X7682913Y-24684039D01*
X7911484Y-24955468D02*
X7925770Y-24969753D01*
X7911484Y-24984039D01*
X7897199Y-24969753D01*
X7911484Y-24955468D01*
X7911484Y-24984039D01*
X8211484Y-24984039D02*
X8040056Y-24984039D01*
X8125770Y-24984039D02*
X8125770Y-24684039D01*
X8097199Y-24726896D01*
X8068627Y-24755468D01*
X8040056Y-24769753D01*
X8497199Y-24984039D02*
X8325770Y-24984039D01*
X8411485Y-24984039D02*
X8411485Y-24684039D01*
X8382913Y-24726896D01*
X8354342Y-24755468D01*
X8325770Y-24769753D01*
X8668627Y-24812611D02*
X8640056Y-24798325D01*
X8625770Y-24784039D01*
X8611485Y-24755468D01*
X8611485Y-24741182D01*
X8625770Y-24712611D01*
X8640056Y-24698325D01*
X8668627Y-24684039D01*
X8725770Y-24684039D01*
X8754342Y-24698325D01*
X8768627Y-24712611D01*
X8782913Y-24741182D01*
X8782913Y-24755468D01*
X8768627Y-24784039D01*
X8754342Y-24798325D01*
X8725770Y-24812611D01*
X8668627Y-24812611D01*
X8640056Y-24826896D01*
X8625770Y-24841182D01*
X8611485Y-24869753D01*
X8611485Y-24926896D01*
X8625770Y-24955468D01*
X8640056Y-24969753D01*
X8668627Y-24984039D01*
X8725770Y-24984039D01*
X8754342Y-24969753D01*
X8768627Y-24955468D01*
X8782913Y-24926896D01*
X8782913Y-24869753D01*
X8768627Y-24841182D01*
X8754342Y-24826896D01*
X8725770Y-24812611D01*
X8897199Y-24684039D02*
X8897199Y-24741182D01*
X9011485Y-24684039D02*
X9011485Y-24741182D01*
X9454342Y-25098325D02*
X9440056Y-25084039D01*
X9411485Y-25041182D01*
X9397199Y-25012611D01*
X9382913Y-24969753D01*
X9368627Y-24898325D01*
X9368627Y-24841182D01*
X9382913Y-24769753D01*
X9397199Y-24726896D01*
X9411485Y-24698325D01*
X9440056Y-24655468D01*
X9454342Y-24641182D01*
X9540056Y-24684039D02*
X9725770Y-24684039D01*
X9625770Y-24798325D01*
X9668627Y-24798325D01*
X9697199Y-24812611D01*
X9711485Y-24826896D01*
X9725770Y-24855468D01*
X9725770Y-24926896D01*
X9711485Y-24955468D01*
X9697199Y-24969753D01*
X9668627Y-24984039D01*
X9582913Y-24984039D01*
X9554342Y-24969753D01*
X9540056Y-24955468D01*
X9840056Y-24712611D02*
X9854342Y-24698325D01*
X9882913Y-24684039D01*
X9954342Y-24684039D01*
X9982913Y-24698325D01*
X9997199Y-24712611D01*
X10011485Y-24741182D01*
X10011485Y-24769753D01*
X9997199Y-24812611D01*
X9825770Y-24984039D01*
X10011485Y-24984039D01*
X10368627Y-24984039D02*
X10368627Y-24684039D01*
X10497199Y-24984039D02*
X10497199Y-24826896D01*
X10482913Y-24798325D01*
X10454342Y-24784039D01*
X10411485Y-24784039D01*
X10382913Y-24798325D01*
X10368627Y-24812611D01*
X10682913Y-24984039D02*
X10654342Y-24969753D01*
X10640056Y-24955468D01*
X10625770Y-24926896D01*
X10625770Y-24841182D01*
X10640056Y-24812611D01*
X10654342Y-24798325D01*
X10682913Y-24784039D01*
X10725770Y-24784039D01*
X10754342Y-24798325D01*
X10768627Y-24812611D01*
X10782913Y-24841182D01*
X10782913Y-24926896D01*
X10768627Y-24955468D01*
X10754342Y-24969753D01*
X10725770Y-24984039D01*
X10682913Y-24984039D01*
X10954342Y-24984039D02*
X10925770Y-24969753D01*
X10911485Y-24941182D01*
X10911485Y-24684039D01*
X11182913Y-24969753D02*
X11154342Y-24984039D01*
X11097199Y-24984039D01*
X11068627Y-24969753D01*
X11054342Y-24941182D01*
X11054342Y-24826896D01*
X11068627Y-24798325D01*
X11097199Y-24784039D01*
X11154342Y-24784039D01*
X11182913Y-24798325D01*
X11197199Y-24826896D01*
X11197199Y-24855468D01*
X11054342Y-24884039D01*
X11311484Y-24969753D02*
X11340056Y-24984039D01*
X11397199Y-24984039D01*
X11425770Y-24969753D01*
X11440056Y-24941182D01*
X11440056Y-24926896D01*
X11425770Y-24898325D01*
X11397199Y-24884039D01*
X11354342Y-24884039D01*
X11325770Y-24869753D01*
X11311484Y-24841182D01*
X11311484Y-24826896D01*
X11325770Y-24798325D01*
X11354342Y-24784039D01*
X11397199Y-24784039D01*
X11425770Y-24798325D01*
X11540056Y-25098325D02*
X11554342Y-25084039D01*
X11582913Y-25041182D01*
X11597199Y-25012611D01*
X11611484Y-24969753D01*
X11625770Y-24898325D01*
X11625770Y-24841182D01*
X11611484Y-24769753D01*
X11597199Y-24726896D01*
X11582913Y-24698325D01*
X11554342Y-24655468D01*
X11540056Y-24641182D01*
X12082913Y-25098325D02*
X12068627Y-25084039D01*
X12040056Y-25041182D01*
X12025770Y-25012611D01*
X12011484Y-24969753D01*
X11997199Y-24898325D01*
X11997199Y-24841182D01*
X12011484Y-24769753D01*
X12025770Y-24726896D01*
X12040056Y-24698325D01*
X12068627Y-24655468D01*
X12082913Y-24641182D01*
X12197199Y-24784039D02*
X12197199Y-24984039D01*
X12197199Y-24812611D02*
X12211484Y-24798325D01*
X12240056Y-24784039D01*
X12282913Y-24784039D01*
X12311484Y-24798325D01*
X12325770Y-24826896D01*
X12325770Y-24984039D01*
X12511484Y-24984039D02*
X12482913Y-24969753D01*
X12468627Y-24955468D01*
X12454342Y-24926896D01*
X12454342Y-24841182D01*
X12468627Y-24812611D01*
X12482913Y-24798325D01*
X12511484Y-24784039D01*
X12554342Y-24784039D01*
X12582913Y-24798325D01*
X12597199Y-24812611D01*
X12611484Y-24841182D01*
X12611484Y-24926896D01*
X12597199Y-24955468D01*
X12582913Y-24969753D01*
X12554342Y-24984039D01*
X12511484Y-24984039D01*
X12697199Y-24784039D02*
X12811484Y-24784039D01*
X12740056Y-24684039D02*
X12740056Y-24941182D01*
X12754342Y-24969753D01*
X12782913Y-24984039D01*
X12811484Y-24984039D01*
X13140056Y-24784039D02*
X13140056Y-25084039D01*
X13140056Y-24798325D02*
X13168627Y-24784039D01*
X13225770Y-24784039D01*
X13254342Y-24798325D01*
X13268627Y-24812611D01*
X13282913Y-24841182D01*
X13282913Y-24926896D01*
X13268627Y-24955468D01*
X13254342Y-24969753D01*
X13225770Y-24984039D01*
X13168627Y-24984039D01*
X13140056Y-24969753D01*
X13454342Y-24984039D02*
X13425770Y-24969753D01*
X13411484Y-24941182D01*
X13411484Y-24684039D01*
X13697199Y-24984039D02*
X13697199Y-24826896D01*
X13682913Y-24798325D01*
X13654342Y-24784039D01*
X13597199Y-24784039D01*
X13568627Y-24798325D01*
X13697199Y-24969753D02*
X13668627Y-24984039D01*
X13597199Y-24984039D01*
X13568627Y-24969753D01*
X13554342Y-24941182D01*
X13554342Y-24912611D01*
X13568627Y-24884039D01*
X13597199Y-24869753D01*
X13668627Y-24869753D01*
X13697199Y-24855468D01*
X13797199Y-24784039D02*
X13911484Y-24784039D01*
X13840056Y-24684039D02*
X13840056Y-24941182D01*
X13854342Y-24969753D01*
X13882913Y-24984039D01*
X13911484Y-24984039D01*
X14125770Y-24969753D02*
X14097199Y-24984039D01*
X14040056Y-24984039D01*
X14011484Y-24969753D01*
X13997199Y-24941182D01*
X13997199Y-24826896D01*
X14011484Y-24798325D01*
X14040056Y-24784039D01*
X14097199Y-24784039D01*
X14125770Y-24798325D01*
X14140056Y-24826896D01*
X14140056Y-24855468D01*
X13997199Y-24884039D01*
X14397199Y-24984039D02*
X14397199Y-24684039D01*
X14397199Y-24969753D02*
X14368627Y-24984039D01*
X14311484Y-24984039D01*
X14282913Y-24969753D01*
X14268627Y-24955468D01*
X14254342Y-24926896D01*
X14254342Y-24841182D01*
X14268627Y-24812611D01*
X14282913Y-24798325D01*
X14311484Y-24784039D01*
X14368627Y-24784039D01*
X14397199Y-24798325D01*
X14511484Y-25098325D02*
X14525770Y-25084039D01*
X14554342Y-25041182D01*
X14568627Y-25012611D01*
X14582913Y-24969753D01*
X14597199Y-24898325D01*
X14597199Y-24841182D01*
X14582913Y-24769753D01*
X14568627Y-24726896D01*
X14554342Y-24698325D01*
X14525770Y-24655468D01*
X14511484Y-24641182D01*
X4717698Y-25399560D02*
X4717698Y-25157090D01*
X4475229Y-25157090D01*
X4475229Y-25399560D01*
X4717698Y-25399560D01*
X5025770Y-25114039D02*
X5211485Y-25114039D01*
X5111485Y-25228325D01*
X5154342Y-25228325D01*
X5182913Y-25242611D01*
X5197199Y-25256896D01*
X5211485Y-25285468D01*
X5211485Y-25356896D01*
X5197199Y-25385468D01*
X5182913Y-25399753D01*
X5154342Y-25414039D01*
X5068627Y-25414039D01*
X5040056Y-25399753D01*
X5025770Y-25385468D01*
X5340056Y-25385468D02*
X5354342Y-25399753D01*
X5340056Y-25414039D01*
X5325770Y-25399753D01*
X5340056Y-25385468D01*
X5340056Y-25414039D01*
X5611484Y-25214039D02*
X5611484Y-25414039D01*
X5540056Y-25099753D02*
X5468627Y-25314039D01*
X5654342Y-25314039D01*
X5740056Y-25114039D02*
X5925770Y-25114039D01*
X5825770Y-25228325D01*
X5868627Y-25228325D01*
X5897199Y-25242611D01*
X5911484Y-25256896D01*
X5925770Y-25285468D01*
X5925770Y-25356896D01*
X5911484Y-25385468D01*
X5897199Y-25399753D01*
X5868627Y-25414039D01*
X5782913Y-25414039D01*
X5754342Y-25399753D01*
X5740056Y-25385468D01*
X6054342Y-25414039D02*
X6054342Y-25214039D01*
X6054342Y-25242611D02*
X6068627Y-25228325D01*
X6097199Y-25214039D01*
X6140056Y-25214039D01*
X6168627Y-25228325D01*
X6182913Y-25256896D01*
X6182913Y-25414039D01*
X6182913Y-25256896D02*
X6197199Y-25228325D01*
X6225770Y-25214039D01*
X6268627Y-25214039D01*
X6297199Y-25228325D01*
X6311484Y-25256896D01*
X6311484Y-25414039D01*
X6454342Y-25414039D02*
X6454342Y-25214039D01*
X6454342Y-25242611D02*
X6468627Y-25228325D01*
X6497199Y-25214039D01*
X6540056Y-25214039D01*
X6568627Y-25228325D01*
X6582913Y-25256896D01*
X6582913Y-25414039D01*
X6582913Y-25256896D02*
X6597199Y-25228325D01*
X6625770Y-25214039D01*
X6668627Y-25214039D01*
X6697199Y-25228325D01*
X6711484Y-25256896D01*
X6711484Y-25414039D01*
X7297199Y-25099753D02*
X7040056Y-25485468D01*
X7682913Y-25114039D02*
X7711484Y-25114039D01*
X7740056Y-25128325D01*
X7754342Y-25142611D01*
X7768627Y-25171182D01*
X7782913Y-25228325D01*
X7782913Y-25299753D01*
X7768627Y-25356896D01*
X7754342Y-25385468D01*
X7740056Y-25399753D01*
X7711484Y-25414039D01*
X7682913Y-25414039D01*
X7654342Y-25399753D01*
X7640056Y-25385468D01*
X7625770Y-25356896D01*
X7611484Y-25299753D01*
X7611484Y-25228325D01*
X7625770Y-25171182D01*
X7640056Y-25142611D01*
X7654342Y-25128325D01*
X7682913Y-25114039D01*
X7911484Y-25385468D02*
X7925770Y-25399753D01*
X7911484Y-25414039D01*
X7897199Y-25399753D01*
X7911484Y-25385468D01*
X7911484Y-25414039D01*
X8211484Y-25414039D02*
X8040056Y-25414039D01*
X8125770Y-25414039D02*
X8125770Y-25114039D01*
X8097199Y-25156896D01*
X8068627Y-25185468D01*
X8040056Y-25199753D01*
X8311484Y-25114039D02*
X8497199Y-25114039D01*
X8397199Y-25228325D01*
X8440056Y-25228325D01*
X8468627Y-25242611D01*
X8482913Y-25256896D01*
X8497199Y-25285468D01*
X8497199Y-25356896D01*
X8482913Y-25385468D01*
X8468627Y-25399753D01*
X8440056Y-25414039D01*
X8354342Y-25414039D01*
X8325770Y-25399753D01*
X8311484Y-25385468D01*
X8768627Y-25114039D02*
X8625770Y-25114039D01*
X8611485Y-25256896D01*
X8625770Y-25242611D01*
X8654342Y-25228325D01*
X8725770Y-25228325D01*
X8754342Y-25242611D01*
X8768627Y-25256896D01*
X8782913Y-25285468D01*
X8782913Y-25356896D01*
X8768627Y-25385468D01*
X8754342Y-25399753D01*
X8725770Y-25414039D01*
X8654342Y-25414039D01*
X8625770Y-25399753D01*
X8611485Y-25385468D01*
X8897199Y-25114039D02*
X8897199Y-25171182D01*
X9011485Y-25114039D02*
X9011485Y-25171182D01*
X9454342Y-25528325D02*
X9440056Y-25514039D01*
X9411485Y-25471182D01*
X9397199Y-25442611D01*
X9382913Y-25399753D01*
X9368627Y-25328325D01*
X9368627Y-25271182D01*
X9382913Y-25199753D01*
X9397199Y-25156896D01*
X9411485Y-25128325D01*
X9440056Y-25085468D01*
X9454342Y-25071182D01*
X9725770Y-25414039D02*
X9554342Y-25414039D01*
X9640056Y-25414039D02*
X9640056Y-25114039D01*
X9611485Y-25156896D01*
X9582913Y-25185468D01*
X9554342Y-25199753D01*
X9982913Y-25114039D02*
X9925770Y-25114039D01*
X9897199Y-25128325D01*
X9882913Y-25142611D01*
X9854342Y-25185468D01*
X9840056Y-25242611D01*
X9840056Y-25356896D01*
X9854342Y-25385468D01*
X9868627Y-25399753D01*
X9897199Y-25414039D01*
X9954342Y-25414039D01*
X9982913Y-25399753D01*
X9997199Y-25385468D01*
X10011485Y-25356896D01*
X10011485Y-25285468D01*
X9997199Y-25256896D01*
X9982913Y-25242611D01*
X9954342Y-25228325D01*
X9897199Y-25228325D01*
X9868627Y-25242611D01*
X9854342Y-25256896D01*
X9840056Y-25285468D01*
X10368627Y-25414039D02*
X10368627Y-25114039D01*
X10497199Y-25414039D02*
X10497199Y-25256896D01*
X10482913Y-25228325D01*
X10454342Y-25214039D01*
X10411485Y-25214039D01*
X10382913Y-25228325D01*
X10368627Y-25242611D01*
X10682913Y-25414039D02*
X10654342Y-25399753D01*
X10640056Y-25385468D01*
X10625770Y-25356896D01*
X10625770Y-25271182D01*
X10640056Y-25242611D01*
X10654342Y-25228325D01*
X10682913Y-25214039D01*
X10725770Y-25214039D01*
X10754342Y-25228325D01*
X10768627Y-25242611D01*
X10782913Y-25271182D01*
X10782913Y-25356896D01*
X10768627Y-25385468D01*
X10754342Y-25399753D01*
X10725770Y-25414039D01*
X10682913Y-25414039D01*
X10954342Y-25414039D02*
X10925770Y-25399753D01*
X10911485Y-25371182D01*
X10911485Y-25114039D01*
X11182913Y-25399753D02*
X11154342Y-25414039D01*
X11097199Y-25414039D01*
X11068627Y-25399753D01*
X11054342Y-25371182D01*
X11054342Y-25256896D01*
X11068627Y-25228325D01*
X11097199Y-25214039D01*
X11154342Y-25214039D01*
X11182913Y-25228325D01*
X11197199Y-25256896D01*
X11197199Y-25285468D01*
X11054342Y-25314039D01*
X11311484Y-25399753D02*
X11340056Y-25414039D01*
X11397199Y-25414039D01*
X11425770Y-25399753D01*
X11440056Y-25371182D01*
X11440056Y-25356896D01*
X11425770Y-25328325D01*
X11397199Y-25314039D01*
X11354342Y-25314039D01*
X11325770Y-25299753D01*
X11311484Y-25271182D01*
X11311484Y-25256896D01*
X11325770Y-25228325D01*
X11354342Y-25214039D01*
X11397199Y-25214039D01*
X11425770Y-25228325D01*
X11540056Y-25528325D02*
X11554342Y-25514039D01*
X11582913Y-25471182D01*
X11597199Y-25442611D01*
X11611484Y-25399753D01*
X11625770Y-25328325D01*
X11625770Y-25271182D01*
X11611484Y-25199753D01*
X11597199Y-25156896D01*
X11582913Y-25128325D01*
X11554342Y-25085468D01*
X11540056Y-25071182D01*
X12082913Y-25528325D02*
X12068627Y-25514039D01*
X12040056Y-25471182D01*
X12025770Y-25442611D01*
X12011484Y-25399753D01*
X11997199Y-25328325D01*
X11997199Y-25271182D01*
X12011484Y-25199753D01*
X12025770Y-25156896D01*
X12040056Y-25128325D01*
X12068627Y-25085468D01*
X12082913Y-25071182D01*
X12197199Y-25214039D02*
X12197199Y-25414039D01*
X12197199Y-25242611D02*
X12211484Y-25228325D01*
X12240056Y-25214039D01*
X12282913Y-25214039D01*
X12311484Y-25228325D01*
X12325770Y-25256896D01*
X12325770Y-25414039D01*
X12511484Y-25414039D02*
X12482913Y-25399753D01*
X12468627Y-25385468D01*
X12454342Y-25356896D01*
X12454342Y-25271182D01*
X12468627Y-25242611D01*
X12482913Y-25228325D01*
X12511484Y-25214039D01*
X12554342Y-25214039D01*
X12582913Y-25228325D01*
X12597199Y-25242611D01*
X12611484Y-25271182D01*
X12611484Y-25356896D01*
X12597199Y-25385468D01*
X12582913Y-25399753D01*
X12554342Y-25414039D01*
X12511484Y-25414039D01*
X12697199Y-25214039D02*
X12811484Y-25214039D01*
X12740056Y-25114039D02*
X12740056Y-25371182D01*
X12754342Y-25399753D01*
X12782913Y-25414039D01*
X12811484Y-25414039D01*
X13140056Y-25214039D02*
X13140056Y-25514039D01*
X13140056Y-25228325D02*
X13168627Y-25214039D01*
X13225770Y-25214039D01*
X13254342Y-25228325D01*
X13268627Y-25242611D01*
X13282913Y-25271182D01*
X13282913Y-25356896D01*
X13268627Y-25385468D01*
X13254342Y-25399753D01*
X13225770Y-25414039D01*
X13168627Y-25414039D01*
X13140056Y-25399753D01*
X13454342Y-25414039D02*
X13425770Y-25399753D01*
X13411484Y-25371182D01*
X13411484Y-25114039D01*
X13697199Y-25414039D02*
X13697199Y-25256896D01*
X13682913Y-25228325D01*
X13654342Y-25214039D01*
X13597199Y-25214039D01*
X13568627Y-25228325D01*
X13697199Y-25399753D02*
X13668627Y-25414039D01*
X13597199Y-25414039D01*
X13568627Y-25399753D01*
X13554342Y-25371182D01*
X13554342Y-25342611D01*
X13568627Y-25314039D01*
X13597199Y-25299753D01*
X13668627Y-25299753D01*
X13697199Y-25285468D01*
X13797199Y-25214039D02*
X13911484Y-25214039D01*
X13840056Y-25114039D02*
X13840056Y-25371182D01*
X13854342Y-25399753D01*
X13882913Y-25414039D01*
X13911484Y-25414039D01*
X14125770Y-25399753D02*
X14097199Y-25414039D01*
X14040056Y-25414039D01*
X14011484Y-25399753D01*
X13997199Y-25371182D01*
X13997199Y-25256896D01*
X14011484Y-25228325D01*
X14040056Y-25214039D01*
X14097199Y-25214039D01*
X14125770Y-25228325D01*
X14140056Y-25256896D01*
X14140056Y-25285468D01*
X13997199Y-25314039D01*
X14397199Y-25414039D02*
X14397199Y-25114039D01*
X14397199Y-25399753D02*
X14368627Y-25414039D01*
X14311484Y-25414039D01*
X14282913Y-25399753D01*
X14268627Y-25385468D01*
X14254342Y-25356896D01*
X14254342Y-25271182D01*
X14268627Y-25242611D01*
X14282913Y-25228325D01*
X14311484Y-25214039D01*
X14368627Y-25214039D01*
X14397199Y-25228325D01*
X14511484Y-25528325D02*
X14525770Y-25514039D01*
X14554342Y-25471182D01*
X14568627Y-25442611D01*
X14582913Y-25399753D01*
X14597199Y-25328325D01*
X14597199Y-25271182D01*
X14582913Y-25199753D01*
X14568627Y-25156896D01*
X14554342Y-25128325D01*
X14525770Y-25085468D01*
X14511484Y-25071182D01*
M02*
