%FSLAX45Y45*%
G04 Gerber Fmt 4.5, Leading zero omitted, Abs format (unit mm)*
G04 Created by KiCad (PCBNEW (5.1.4)-1) date 2024-04-24 20:55:05*
%MOMM*%
%LPD*%
G04 APERTURE LIST*
%ADD10C,0.050000*%
%ADD11C,0.200000*%
%ADD12C,0.300000*%
G04 APERTURE END LIST*
D10*
X17040978Y-14503403D02*
X16775978Y-14404403D01*
X18012433Y-14111361D02*
X17040978Y-14503403D01*
X14273000Y-15414000D02*
X13795000Y-14902000D01*
X15164978Y-15054403D02*
X14273000Y-15414000D01*
X12295000Y-14502000D02*
X12560000Y-14403000D01*
X16775978Y-14404403D02*
X15164978Y-15054403D01*
X12560000Y-14403000D02*
X13795000Y-14902000D01*
X18195877Y-23093825D02*
X19097407Y-22829763D01*
X11125877Y-23093825D02*
X18195877Y-23093825D01*
X11125877Y-23093825D02*
X10238571Y-22828360D01*
X11323546Y-14109958D02*
X12295000Y-14502000D01*
X22293704Y-18140991D02*
X23573218Y-17624034D01*
X20465286Y-18340453D02*
X21637283Y-17877720D01*
X20465286Y-18340453D02*
X19899990Y-18115862D01*
X23627703Y-19413959D02*
X24480712Y-19069321D01*
X19097407Y-22829763D02*
X23609159Y-19421451D01*
X18012433Y-14111361D02*
X18345373Y-14268049D01*
X24565565Y-18905614D02*
X24480712Y-19069321D01*
X24187212Y-17969158D02*
X23573218Y-17624034D01*
X10238571Y-22828360D02*
X5726819Y-19420047D01*
X24187212Y-17969158D02*
X24565565Y-18905614D01*
X5708275Y-19412555D02*
X5726819Y-19420047D01*
X5148766Y-17967754D02*
X4770413Y-18904210D01*
X7698695Y-17876317D02*
X7042274Y-18139587D01*
X21637283Y-17877720D02*
X22293704Y-18140991D01*
X5148766Y-17967754D02*
X5762760Y-17622630D01*
X7042274Y-18139587D02*
X5762760Y-17622630D01*
X18345373Y-14268049D02*
X19899990Y-18115862D01*
X23627703Y-19413959D02*
X23609159Y-19421451D01*
X8870693Y-18339049D02*
X9435989Y-18114459D01*
X10990606Y-14266646D02*
X9435989Y-18114459D01*
X8870693Y-18339049D02*
X7698695Y-17876317D01*
X4770413Y-18904210D02*
X4855266Y-19067917D01*
X11323546Y-14109958D02*
X10990606Y-14266646D01*
X5708275Y-19412555D02*
X4855266Y-19067917D01*
D11*
X6885000Y-18640000D02*
X6925000Y-18680000D01*
X6925000Y-18640000D02*
X6885000Y-18680000D01*
X7490000Y-19415000D02*
X7530000Y-19455000D01*
X7530000Y-19415000D02*
X7490000Y-19455000D01*
X8560000Y-20390000D02*
X8600000Y-20430000D01*
X8600000Y-20390000D02*
X8560000Y-20430000D01*
X9010000Y-18750000D02*
X9050000Y-18790000D01*
X9050000Y-18750000D02*
X9010000Y-18790000D01*
X9762506Y-21378321D02*
X9802506Y-21418321D01*
X9802506Y-21378321D02*
X9762506Y-21418321D01*
X9784400Y-21468400D02*
X9824400Y-21508400D01*
X9824400Y-21468400D02*
X9784400Y-21508400D01*
X9806303Y-21296619D02*
X9846303Y-21336619D01*
X9846303Y-21296619D02*
X9806303Y-21336619D01*
X9850147Y-21559152D02*
X9890147Y-21599152D01*
X9890147Y-21559152D02*
X9850147Y-21599152D01*
X9913170Y-21627228D02*
X9953170Y-21667228D01*
X9953170Y-21627228D02*
X9913170Y-21667228D01*
X10000000Y-21210000D02*
X10040000Y-21250000D01*
X10040000Y-21210000D02*
X10000000Y-21250000D01*
X10140000Y-20458750D02*
X10180000Y-20498750D01*
X10180000Y-20458750D02*
X10140000Y-20498750D01*
X10378125Y-20458750D02*
X10418125Y-20498750D01*
X10418125Y-20458750D02*
X10378125Y-20498750D01*
X10615000Y-21500000D02*
X10655000Y-21540000D01*
X10655000Y-21500000D02*
X10615000Y-21540000D01*
X10854375Y-20458750D02*
X10894375Y-20498750D01*
X10894375Y-20458750D02*
X10854375Y-20498750D01*
X10855000Y-21500000D02*
X10895000Y-21540000D01*
X10895000Y-21500000D02*
X10855000Y-21540000D01*
X11092500Y-20458750D02*
X11132500Y-20498750D01*
X11132500Y-20458750D02*
X11092500Y-20498750D01*
X11330625Y-20458750D02*
X11370625Y-20498750D01*
X11370625Y-20458750D02*
X11330625Y-20498750D01*
X11465000Y-17130000D02*
X11505000Y-17170000D01*
X11505000Y-17130000D02*
X11465000Y-17170000D01*
X11495000Y-21210000D02*
X11535000Y-21250000D01*
X11535000Y-21210000D02*
X11495000Y-21250000D01*
X11568750Y-20458750D02*
X11608750Y-20498750D01*
X11608750Y-20458750D02*
X11568750Y-20498750D01*
X11806875Y-20458750D02*
X11846875Y-20498750D01*
X11846875Y-20458750D02*
X11806875Y-20498750D01*
X12120000Y-15550000D02*
X12160000Y-15590000D01*
X12160000Y-15550000D02*
X12120000Y-15590000D01*
X12145000Y-19229197D02*
X12185000Y-19269197D01*
X12185000Y-19229197D02*
X12145000Y-19269197D01*
X12260000Y-15990000D02*
X12300000Y-16030000D01*
X12300000Y-15990000D02*
X12260000Y-16030000D01*
X12420000Y-19755000D02*
X12460000Y-19795000D01*
X12460000Y-19755000D02*
X12420000Y-19795000D01*
X12625000Y-17515000D02*
X12665000Y-17555000D01*
X12665000Y-17515000D02*
X12625000Y-17555000D01*
X12655000Y-19755000D02*
X12695000Y-19795000D01*
X12695000Y-19755000D02*
X12655000Y-19795000D01*
X12655000Y-21210000D02*
X12695000Y-21250000D01*
X12695000Y-21210000D02*
X12655000Y-21250000D01*
X12870000Y-17735000D02*
X12910000Y-17775000D01*
X12910000Y-17735000D02*
X12870000Y-17775000D01*
X12890000Y-19755000D02*
X12930000Y-19795000D01*
X12930000Y-19755000D02*
X12890000Y-19795000D01*
X13110000Y-17730000D02*
X13150000Y-17770000D01*
X13150000Y-17730000D02*
X13110000Y-17770000D01*
X13130000Y-19755000D02*
X13170000Y-19795000D01*
X13170000Y-19755000D02*
X13130000Y-19795000D01*
X13350000Y-17740000D02*
X13390000Y-17780000D01*
X13390000Y-17740000D02*
X13350000Y-17780000D01*
X13355000Y-20280000D02*
X13395000Y-20320000D01*
X13395000Y-20280000D02*
X13355000Y-20320000D01*
X13430000Y-21495000D02*
X13470000Y-21535000D01*
X13470000Y-21495000D02*
X13430000Y-21535000D01*
X13585000Y-17735000D02*
X13625000Y-17775000D01*
X13625000Y-17735000D02*
X13585000Y-17775000D01*
X13630000Y-17235000D02*
X13670000Y-17275000D01*
X13670000Y-17235000D02*
X13630000Y-17275000D01*
X13670600Y-20071400D02*
X13710600Y-20111400D01*
X13710600Y-20071400D02*
X13670600Y-20111400D01*
X13675000Y-18345000D02*
X13715000Y-18385000D01*
X13715000Y-18345000D02*
X13675000Y-18385000D01*
X13746800Y-21036600D02*
X13786800Y-21076600D01*
X13786800Y-21036600D02*
X13746800Y-21076600D01*
X13834999Y-18260001D02*
X13874999Y-18300001D01*
X13874999Y-18260001D02*
X13834999Y-18300001D01*
X13848400Y-22090700D02*
X13888400Y-22130700D01*
X13888400Y-22090700D02*
X13848400Y-22130700D01*
X14045800Y-21372600D02*
X14085800Y-21412600D01*
X14085800Y-21372600D02*
X14045800Y-21412600D01*
X14045800Y-21372600D02*
X14085800Y-21412600D01*
X14085800Y-21372600D02*
X14045800Y-21412600D01*
X14045800Y-22097600D02*
X14085800Y-22137600D01*
X14085800Y-22097600D02*
X14045800Y-22137600D01*
X14079000Y-19887600D02*
X14119000Y-19927600D01*
X14119000Y-19887600D02*
X14079000Y-19927600D01*
X14153200Y-20935000D02*
X14193200Y-20975000D01*
X14193200Y-20935000D02*
X14153200Y-20975000D01*
X14153200Y-20935000D02*
X14193200Y-20975000D01*
X14193200Y-20935000D02*
X14153200Y-20975000D01*
X14216700Y-21122000D02*
X14256700Y-21162000D01*
X14256700Y-21122000D02*
X14216700Y-21162000D01*
X14229400Y-19442200D02*
X14269400Y-19482200D01*
X14269400Y-19442200D02*
X14229400Y-19482200D01*
X14280200Y-20935000D02*
X14320200Y-20975000D01*
X14320200Y-20935000D02*
X14280200Y-20975000D01*
X14280200Y-20935000D02*
X14320200Y-20975000D01*
X14320200Y-20935000D02*
X14280200Y-20975000D01*
X14331000Y-22687600D02*
X14371000Y-22727600D01*
X14371000Y-22687600D02*
X14331000Y-22727600D01*
X14378000Y-19825000D02*
X14418000Y-19865000D01*
X14418000Y-19825000D02*
X14378000Y-19865000D01*
X14407200Y-22486300D02*
X14447200Y-22526300D01*
X14447200Y-22486300D02*
X14407200Y-22526300D01*
X14555000Y-20505000D02*
X14595000Y-20545000D01*
X14595000Y-20505000D02*
X14555000Y-20545000D01*
X14647558Y-20515142D02*
X14687558Y-20555142D01*
X14687558Y-20515142D02*
X14647558Y-20555142D01*
X14696600Y-20161099D02*
X14736600Y-20201099D01*
X14736600Y-20161099D02*
X14696600Y-20201099D01*
X14757867Y-21158667D02*
X14797867Y-21198667D01*
X14797867Y-21158667D02*
X14757867Y-21198667D01*
X14823601Y-20161099D02*
X14863601Y-20201099D01*
X14863601Y-20161099D02*
X14823601Y-20201099D01*
X14854998Y-22427301D02*
X14894998Y-22467301D01*
X14894998Y-22427301D02*
X14854998Y-22467301D01*
X14864400Y-22586000D02*
X14904400Y-22626000D01*
X14904400Y-22586000D02*
X14864400Y-22626000D01*
X14864400Y-22586000D02*
X14904400Y-22626000D01*
X14904400Y-22586000D02*
X14864400Y-22626000D01*
X14880289Y-22248895D02*
X14920289Y-22288895D01*
X14920289Y-22248895D02*
X14880289Y-22288895D01*
X14889800Y-20731800D02*
X14929800Y-20771800D01*
X14929800Y-20731800D02*
X14889800Y-20771800D01*
X14889800Y-20731800D02*
X14929800Y-20771800D01*
X14929800Y-20731800D02*
X14889800Y-20771800D01*
X14889800Y-21976402D02*
X14929800Y-22016402D01*
X14929800Y-21976402D02*
X14889800Y-22016402D01*
X14915200Y-20477800D02*
X14955200Y-20517800D01*
X14955200Y-20477800D02*
X14915200Y-20517800D01*
X14942766Y-15693300D02*
X14982766Y-15733300D01*
X14982766Y-15693300D02*
X14942766Y-15733300D01*
X15169200Y-21011200D02*
X15209200Y-21051200D01*
X15209200Y-21011200D02*
X15169200Y-21051200D01*
X15265000Y-16280000D02*
X15305000Y-16320000D01*
X15305000Y-16280000D02*
X15265000Y-16320000D01*
X15280000Y-17745000D02*
X15320000Y-17785000D01*
X15320000Y-17745000D02*
X15280000Y-17785000D01*
X15280000Y-18270000D02*
X15320000Y-18310000D01*
X15320000Y-18270000D02*
X15280000Y-18310000D01*
X15320000Y-20285000D02*
X15360000Y-20325000D01*
X15360000Y-20285000D02*
X15320000Y-20325000D01*
X15321600Y-19995200D02*
X15361600Y-20035200D01*
X15361600Y-19995200D02*
X15321600Y-20035200D01*
X15347000Y-21328700D02*
X15387000Y-21368700D01*
X15387000Y-21328700D02*
X15347000Y-21368700D01*
X15347000Y-22078000D02*
X15387000Y-22118000D01*
X15387000Y-22078000D02*
X15347000Y-22118000D01*
X15448600Y-19990601D02*
X15488600Y-20030601D01*
X15488600Y-19990601D02*
X15448600Y-20030601D01*
X15520000Y-17745000D02*
X15560000Y-17785000D01*
X15560000Y-17745000D02*
X15520000Y-17785000D01*
X15524800Y-21341400D02*
X15564800Y-21381400D01*
X15564800Y-21341400D02*
X15524800Y-21381400D01*
X15601591Y-21114504D02*
X15641591Y-21154504D01*
X15641591Y-21114504D02*
X15601591Y-21154504D01*
X15685000Y-19725000D02*
X15725000Y-19765000D01*
X15725000Y-19725000D02*
X15685000Y-19765000D01*
X15715300Y-21989100D02*
X15755300Y-22029100D01*
X15755300Y-21989100D02*
X15715300Y-22029100D01*
X15760000Y-17740000D02*
X15800000Y-17780000D01*
X15800000Y-17740000D02*
X15760000Y-17780000D01*
X15790000Y-19305000D02*
X15830000Y-19345000D01*
X15830000Y-19305000D02*
X15790000Y-19345000D01*
X15995000Y-17735000D02*
X16035000Y-17775000D01*
X16035000Y-17735000D02*
X15995000Y-17775000D01*
X16030000Y-19305000D02*
X16070000Y-19345000D01*
X16070000Y-19305000D02*
X16030000Y-19345000D01*
X16032800Y-22268500D02*
X16072800Y-22308500D01*
X16072800Y-22268500D02*
X16032800Y-22308500D01*
X16190000Y-15245000D02*
X16230000Y-15285000D01*
X16230000Y-15245000D02*
X16190000Y-15285000D01*
X16235000Y-17735000D02*
X16275000Y-17775000D01*
X16275000Y-17735000D02*
X16235000Y-17775000D01*
X16270000Y-19300000D02*
X16310000Y-19340000D01*
X16310000Y-19300000D02*
X16270000Y-19340000D01*
X16480000Y-17735000D02*
X16520000Y-17775000D01*
X16520000Y-17735000D02*
X16480000Y-17775000D01*
X16510000Y-19295000D02*
X16550000Y-19335000D01*
X16550000Y-19295000D02*
X16510000Y-19335000D01*
X16750000Y-19295000D02*
X16790000Y-19335000D01*
X16790000Y-19295000D02*
X16750000Y-19335000D01*
X16785000Y-15070000D02*
X16825000Y-15110000D01*
X16825000Y-15070000D02*
X16785000Y-15110000D01*
X16980000Y-19305000D02*
X17020000Y-19345000D01*
X17020000Y-19305000D02*
X16980000Y-19345000D01*
X17090000Y-21100000D02*
X17130000Y-21140000D01*
X17130000Y-21100000D02*
X17090000Y-21140000D01*
X17260000Y-16160000D02*
X17300000Y-16200000D01*
X17300000Y-16160000D02*
X17260000Y-16200000D01*
X17420000Y-16700000D02*
X17460000Y-16740000D01*
X17460000Y-16700000D02*
X17420000Y-16740000D01*
X17760000Y-20379375D02*
X17800000Y-20419375D01*
X17800000Y-20379375D02*
X17760000Y-20419375D01*
X17895000Y-17820001D02*
X17935000Y-17860001D01*
X17935000Y-17820001D02*
X17895000Y-17860001D01*
X17998125Y-20379375D02*
X18038125Y-20419375D01*
X18038125Y-20379375D02*
X17998125Y-20419375D01*
X18130000Y-18300000D02*
X18170000Y-18340000D01*
X18170000Y-18300000D02*
X18130000Y-18340000D01*
X18236250Y-20379375D02*
X18276250Y-20419375D01*
X18276250Y-20379375D02*
X18236250Y-20419375D01*
X18474375Y-20379375D02*
X18514375Y-20419375D01*
X18514375Y-20379375D02*
X18474375Y-20419375D01*
X18695000Y-19485000D02*
X18735000Y-19525000D01*
X18735000Y-19485000D02*
X18695000Y-19525000D01*
X18708310Y-20375185D02*
X18748310Y-20415185D01*
X18748310Y-20375185D02*
X18708310Y-20415185D01*
X18950625Y-20379375D02*
X18990625Y-20419375D01*
X18990625Y-20379375D02*
X18950625Y-20419375D01*
X19131600Y-22128800D02*
X19171600Y-22168800D01*
X19171600Y-22128800D02*
X19131600Y-22168800D01*
X19183380Y-22026508D02*
X19223380Y-22066508D01*
X19223380Y-22026508D02*
X19183380Y-22066508D01*
X19233200Y-21925600D02*
X19273200Y-21965600D01*
X19273200Y-21925600D02*
X19233200Y-21965600D01*
X19284000Y-21824000D02*
X19324000Y-21864000D01*
X19324000Y-21824000D02*
X19284000Y-21864000D01*
X19334179Y-21723332D02*
X19374179Y-21763332D01*
X19374179Y-21723332D02*
X19334179Y-21763332D01*
X19385600Y-21620801D02*
X19425600Y-21660801D01*
X19425600Y-21620801D02*
X19385600Y-21660801D01*
X19862395Y-19247605D02*
X19902395Y-19287605D01*
X19902395Y-19247605D02*
X19862395Y-19287605D01*
X20000000Y-19725000D02*
X20040000Y-19765000D01*
X20040000Y-19725000D02*
X20000000Y-19765000D01*
X20045000Y-20385000D02*
X20085000Y-20425000D01*
X20085000Y-20385000D02*
X20045000Y-20425000D01*
X21872496Y-19338264D02*
X21912496Y-19378264D01*
X21912496Y-19338264D02*
X21872496Y-19378264D01*
X14575545Y-15525141D02*
G75*
G03X14575545Y-15525141I-30000J0D01*
G01*
X14512017Y-15495546D02*
X14541985Y-15569720D01*
X14549104Y-15480561D02*
X14579073Y-15554736D01*
X14541985Y-15569720D02*
G75*
G03X14579073Y-15554736I18544J7492D01*
G01*
X14549104Y-15480561D02*
G75*
G03X14512017Y-15495546I-18544J-7492D01*
G01*
X14731756Y-15911776D02*
G75*
G03X14731756Y-15911776I-30000J0D01*
G01*
X14662609Y-15868273D02*
X14703815Y-15970264D01*
X14699696Y-15853289D02*
X14740903Y-15955279D01*
X14703815Y-15970264D02*
G75*
G03X14740903Y-15955279I18544J7492D01*
G01*
X14699696Y-15853289D02*
G75*
G03X14662608Y-15868273I-18544J-7492D01*
G01*
X15376631Y-15201481D02*
G75*
G03X15376631Y-15201481I-30000J0D01*
G01*
X15313104Y-15171886D02*
X15343072Y-15246060D01*
X15350191Y-15156901D02*
X15380159Y-15231076D01*
X15343072Y-15246060D02*
G75*
G03X15380159Y-15231076I18544J7492D01*
G01*
X15350191Y-15156901D02*
G75*
G03X15313103Y-15171885I-18544J-7492D01*
G01*
X15532842Y-15588116D02*
G75*
G03X15532842Y-15588116I-30000J0D01*
G01*
X15463695Y-15544613D02*
X15504902Y-15646604D01*
X15500783Y-15529629D02*
X15541989Y-15631619D01*
X15504902Y-15646604D02*
G75*
G03X15541990Y-15631619I18544J7492D01*
G01*
X15500783Y-15529629D02*
G75*
G03X15463695Y-15544613I-18544J-7492D01*
G01*
X9574272Y-22100122D02*
X9574272Y-22200122D01*
X9524272Y-22150122D02*
X9624272Y-22150122D01*
X9777125Y-22252983D02*
X9777125Y-22352983D01*
X9727125Y-22302983D02*
X9827125Y-22302983D01*
X9979979Y-22405844D02*
X9979979Y-22505844D01*
X9929979Y-22455844D02*
X10029979Y-22455844D01*
X10182832Y-22558705D02*
X10182832Y-22658705D01*
X10132832Y-22608705D02*
X10232832Y-22608705D01*
X18060000Y-16350000D02*
X18060000Y-16450000D01*
X18010000Y-16400000D02*
X18110000Y-16400000D01*
X18295505Y-16254850D02*
X18295505Y-16354850D01*
X18245505Y-16304850D02*
X18345505Y-16304850D01*
X18531009Y-16159700D02*
X18531009Y-16259700D01*
X18481009Y-16209700D02*
X18581009Y-16209700D01*
X18766514Y-16064550D02*
X18766514Y-16164550D01*
X18716514Y-16114550D02*
X18816514Y-16114550D01*
X11083428Y-22796144D02*
X11083428Y-22896144D01*
X11033428Y-22846144D02*
X11133428Y-22846144D01*
X11236289Y-22593290D02*
X11236289Y-22693290D01*
X11186289Y-22643290D02*
X11286289Y-22643290D01*
X11389150Y-22390437D02*
X11389150Y-22490437D01*
X11339150Y-22440437D02*
X11439150Y-22440437D01*
X11542011Y-22187583D02*
X11542011Y-22287583D01*
X11492011Y-22237583D02*
X11592011Y-22237583D01*
X10659362Y-15978375D02*
X10659362Y-16078375D01*
X10609362Y-16028375D02*
X10709362Y-16028375D01*
X10894867Y-16073525D02*
X10894867Y-16173525D01*
X10844867Y-16123525D02*
X10944867Y-16123525D01*
X11130372Y-16168675D02*
X11130372Y-16268675D01*
X11080372Y-16218675D02*
X11180372Y-16218675D01*
X11365876Y-16263825D02*
X11365876Y-16363825D01*
X11315876Y-16313825D02*
X11415876Y-16313825D01*
X14665876Y-17213825D02*
X14665876Y-17313825D01*
X14615876Y-17263825D02*
X14715876Y-17263825D01*
X14665876Y-17467825D02*
X14665876Y-17567825D01*
X14615876Y-17517825D02*
X14715876Y-17517825D01*
X14665876Y-17721825D02*
X14665876Y-17821825D01*
X14615876Y-17771825D02*
X14715876Y-17771825D01*
X14665876Y-17975825D02*
X14665876Y-18075825D01*
X14615876Y-18025825D02*
X14715876Y-18025825D01*
X17780781Y-22167723D02*
X17780781Y-22267723D01*
X17730781Y-22217723D02*
X17830781Y-22217723D01*
X17933642Y-22370576D02*
X17933642Y-22470576D01*
X17883642Y-22420576D02*
X17983642Y-22420576D01*
X18086503Y-22573430D02*
X18086503Y-22673430D01*
X18036503Y-22623430D02*
X18136503Y-22623430D01*
X18239364Y-22776283D02*
X18239364Y-22876283D01*
X18189364Y-22826283D02*
X18289364Y-22826283D01*
X8190701Y-21066568D02*
X8190701Y-21166568D01*
X8140701Y-21116568D02*
X8240701Y-21116568D01*
X8393555Y-21219429D02*
X8393555Y-21319429D01*
X8343555Y-21269429D02*
X8443555Y-21269429D01*
X8596408Y-21372290D02*
X8596408Y-21472290D01*
X8546408Y-21422290D02*
X8646408Y-21422290D01*
X8799262Y-21525151D02*
X8799262Y-21625151D01*
X8749262Y-21575151D02*
X8849262Y-21575151D01*
X20551514Y-21509791D02*
X20551514Y-21609791D01*
X20501514Y-21559791D02*
X20601514Y-21559791D01*
X20754368Y-21356930D02*
X20754368Y-21456930D01*
X20704368Y-21406930D02*
X20804368Y-21406930D01*
X20957221Y-21204069D02*
X20957221Y-21304069D01*
X20907221Y-21254069D02*
X21007221Y-21254069D01*
X21160074Y-21051208D02*
X21160074Y-21151208D01*
X21110074Y-21101208D02*
X21210074Y-21101208D01*
X9977887Y-17578375D02*
X9977887Y-17678375D01*
X9927887Y-17628375D02*
X10027887Y-17628375D01*
X10213391Y-17673525D02*
X10213391Y-17773525D01*
X10163391Y-17723525D02*
X10263391Y-17723525D01*
X10448896Y-17768675D02*
X10448896Y-17868675D01*
X10398896Y-17818675D02*
X10498896Y-17818675D01*
X10684401Y-17863825D02*
X10684401Y-17963825D01*
X10634401Y-17913825D02*
X10734401Y-17913825D01*
X18710000Y-18000000D02*
X18710000Y-18100000D01*
X18660000Y-18050000D02*
X18760000Y-18050000D01*
X18945505Y-17904850D02*
X18945505Y-18004850D01*
X18895505Y-17954850D02*
X18995505Y-17954850D01*
X19181009Y-17809700D02*
X19181009Y-17909700D01*
X19131009Y-17859700D02*
X19231009Y-17859700D01*
X19416514Y-17714550D02*
X19416514Y-17814550D01*
X19366514Y-17764550D02*
X19466514Y-17764550D01*
X19171690Y-22552616D02*
X19171690Y-22652616D01*
X19121690Y-22602616D02*
X19221690Y-22602616D01*
X19374544Y-22399755D02*
X19374544Y-22499755D01*
X19324544Y-22449755D02*
X19424544Y-22449755D01*
X19577397Y-22246894D02*
X19577397Y-22346894D01*
X19527397Y-22296894D02*
X19627397Y-22296894D01*
X19780250Y-22094033D02*
X19780250Y-22194033D01*
X19730250Y-22144033D02*
X19830250Y-22144033D01*
X24152838Y-18181109D02*
X24152838Y-18281109D01*
X24102838Y-18231109D02*
X24202838Y-18231109D01*
X24247988Y-18416614D02*
X24247988Y-18516614D01*
X24197988Y-18466614D02*
X24297988Y-18466614D01*
X24343138Y-18652118D02*
X24343138Y-18752118D01*
X24293138Y-18702118D02*
X24393138Y-18702118D01*
X24438288Y-18887623D02*
X24438288Y-18987623D01*
X24388288Y-18937623D02*
X24488288Y-18937623D01*
X4954070Y-18906842D02*
X4954070Y-19006842D01*
X4904070Y-18956842D02*
X5004070Y-18956842D01*
X5049220Y-18671337D02*
X5049220Y-18771337D01*
X4999220Y-18721337D02*
X5099220Y-18721337D01*
X5144370Y-18435832D02*
X5144370Y-18535832D01*
X5094370Y-18485832D02*
X5194370Y-18485832D01*
X5239521Y-18200328D02*
X5239521Y-18300328D01*
X5189521Y-18250328D02*
X5289521Y-18250328D01*
X11313266Y-14347009D02*
X11313266Y-14447009D01*
X11263266Y-14397009D02*
X11363266Y-14397009D01*
X11548770Y-14442159D02*
X11548770Y-14542159D01*
X11498770Y-14492159D02*
X11598770Y-14492159D01*
X11784275Y-14537309D02*
X11784275Y-14637309D01*
X11734275Y-14587309D02*
X11834275Y-14587309D01*
X12019780Y-14632459D02*
X12019780Y-14732459D01*
X11969780Y-14682459D02*
X12069780Y-14682459D01*
X17299435Y-14619065D02*
X17299435Y-14719065D01*
X17249435Y-14669065D02*
X17349435Y-14669065D01*
X17534939Y-14523915D02*
X17534939Y-14623915D01*
X17484939Y-14573915D02*
X17584939Y-14573915D01*
X17770444Y-14428765D02*
X17770444Y-14528765D01*
X17720444Y-14478765D02*
X17820444Y-14478765D01*
X18005949Y-14333615D02*
X18005949Y-14433615D01*
X17955949Y-14383615D02*
X18055949Y-14383615D01*
X12012123Y-22262124D02*
X12012123Y-22187877D01*
X11937876Y-22187877D01*
X11937876Y-22262124D01*
X12012123Y-22262124D01*
X12012123Y-22712123D02*
X12012123Y-22637876D01*
X11937876Y-22637876D01*
X11937876Y-22712123D01*
X12012123Y-22712123D01*
X12337123Y-22937123D02*
X12337123Y-22862876D01*
X12262876Y-22862876D01*
X12262876Y-22937123D01*
X12337123Y-22937123D01*
X12662123Y-22262124D02*
X12662123Y-22187877D01*
X12587876Y-22187877D01*
X12587876Y-22262124D01*
X12662123Y-22262124D01*
X12662123Y-22712123D02*
X12662123Y-22637876D01*
X12587876Y-22637876D01*
X12587876Y-22712123D01*
X12662123Y-22712123D01*
X13027123Y-22262124D02*
X13027123Y-22187877D01*
X12952876Y-22187877D01*
X12952876Y-22262124D01*
X13027123Y-22262124D01*
X13027123Y-22712123D02*
X13027123Y-22637876D01*
X12952876Y-22637876D01*
X12952876Y-22712123D01*
X13027123Y-22712123D01*
X13352123Y-22937123D02*
X13352123Y-22862876D01*
X13277876Y-22862876D01*
X13277876Y-22937123D01*
X13352123Y-22937123D01*
X13677123Y-22262124D02*
X13677123Y-22187877D01*
X13602876Y-22187877D01*
X13602876Y-22262124D01*
X13677123Y-22262124D01*
X13677123Y-22712123D02*
X13677123Y-22637876D01*
X13602876Y-22637876D01*
X13602876Y-22712123D01*
X13677123Y-22712123D01*
D12*
X5054342Y-23562039D02*
X5054342Y-23262039D01*
X5125770Y-23262039D01*
X5168627Y-23276325D01*
X5197199Y-23304896D01*
X5211485Y-23333468D01*
X5225770Y-23390611D01*
X5225770Y-23433468D01*
X5211485Y-23490611D01*
X5197199Y-23519182D01*
X5168627Y-23547753D01*
X5125770Y-23562039D01*
X5054342Y-23562039D01*
X5354342Y-23562039D02*
X5354342Y-23362039D01*
X5354342Y-23419182D02*
X5368627Y-23390611D01*
X5382913Y-23376325D01*
X5411485Y-23362039D01*
X5440056Y-23362039D01*
X5540056Y-23562039D02*
X5540056Y-23362039D01*
X5540056Y-23262039D02*
X5525770Y-23276325D01*
X5540056Y-23290611D01*
X5554342Y-23276325D01*
X5540056Y-23262039D01*
X5540056Y-23290611D01*
X5725770Y-23562039D02*
X5697199Y-23547753D01*
X5682913Y-23519182D01*
X5682913Y-23262039D01*
X5882913Y-23562039D02*
X5854342Y-23547753D01*
X5840056Y-23519182D01*
X5840056Y-23262039D01*
X6225770Y-23562039D02*
X6225770Y-23262039D01*
X6325770Y-23476325D01*
X6425770Y-23262039D01*
X6425770Y-23562039D01*
X6697199Y-23562039D02*
X6697199Y-23404896D01*
X6682913Y-23376325D01*
X6654342Y-23362039D01*
X6597199Y-23362039D01*
X6568627Y-23376325D01*
X6697199Y-23547753D02*
X6668627Y-23562039D01*
X6597199Y-23562039D01*
X6568627Y-23547753D01*
X6554342Y-23519182D01*
X6554342Y-23490611D01*
X6568627Y-23462039D01*
X6597199Y-23447753D01*
X6668627Y-23447753D01*
X6697199Y-23433468D01*
X6840056Y-23362039D02*
X6840056Y-23662039D01*
X6840056Y-23376325D02*
X6868627Y-23362039D01*
X6925770Y-23362039D01*
X6954342Y-23376325D01*
X6968627Y-23390611D01*
X6982913Y-23419182D01*
X6982913Y-23504896D01*
X6968627Y-23533468D01*
X6954342Y-23547753D01*
X6925770Y-23562039D01*
X6868627Y-23562039D01*
X6840056Y-23547753D01*
X7111484Y-23533468D02*
X7125770Y-23547753D01*
X7111484Y-23562039D01*
X7097199Y-23547753D01*
X7111484Y-23533468D01*
X7111484Y-23562039D01*
X7111484Y-23376325D02*
X7125770Y-23390611D01*
X7111484Y-23404896D01*
X7097199Y-23390611D01*
X7111484Y-23376325D01*
X7111484Y-23404896D01*
X4727913Y-24036325D02*
X4767913Y-24076325D01*
X4767913Y-24036325D02*
X4727913Y-24076325D01*
X5111485Y-23892039D02*
X5140056Y-23892039D01*
X5168627Y-23906325D01*
X5182913Y-23920611D01*
X5197199Y-23949182D01*
X5211485Y-24006325D01*
X5211485Y-24077753D01*
X5197199Y-24134896D01*
X5182913Y-24163468D01*
X5168627Y-24177753D01*
X5140056Y-24192039D01*
X5111485Y-24192039D01*
X5082913Y-24177753D01*
X5068627Y-24163468D01*
X5054342Y-24134896D01*
X5040056Y-24077753D01*
X5040056Y-24006325D01*
X5054342Y-23949182D01*
X5068627Y-23920611D01*
X5082913Y-23906325D01*
X5111485Y-23892039D01*
X5340056Y-24163468D02*
X5354342Y-24177753D01*
X5340056Y-24192039D01*
X5325770Y-24177753D01*
X5340056Y-24163468D01*
X5340056Y-24192039D01*
X5611484Y-23992039D02*
X5611484Y-24192039D01*
X5540056Y-23877753D02*
X5468627Y-24092039D01*
X5654342Y-24092039D01*
X5825770Y-23892039D02*
X5854342Y-23892039D01*
X5882913Y-23906325D01*
X5897199Y-23920611D01*
X5911484Y-23949182D01*
X5925770Y-24006325D01*
X5925770Y-24077753D01*
X5911484Y-24134896D01*
X5897199Y-24163468D01*
X5882913Y-24177753D01*
X5854342Y-24192039D01*
X5825770Y-24192039D01*
X5797199Y-24177753D01*
X5782913Y-24163468D01*
X5768627Y-24134896D01*
X5754342Y-24077753D01*
X5754342Y-24006325D01*
X5768627Y-23949182D01*
X5782913Y-23920611D01*
X5797199Y-23906325D01*
X5825770Y-23892039D01*
X6054342Y-24192039D02*
X6054342Y-23992039D01*
X6054342Y-24020611D02*
X6068627Y-24006325D01*
X6097199Y-23992039D01*
X6140056Y-23992039D01*
X6168627Y-24006325D01*
X6182913Y-24034896D01*
X6182913Y-24192039D01*
X6182913Y-24034896D02*
X6197199Y-24006325D01*
X6225770Y-23992039D01*
X6268627Y-23992039D01*
X6297199Y-24006325D01*
X6311484Y-24034896D01*
X6311484Y-24192039D01*
X6454342Y-24192039D02*
X6454342Y-23992039D01*
X6454342Y-24020611D02*
X6468627Y-24006325D01*
X6497199Y-23992039D01*
X6540056Y-23992039D01*
X6568627Y-24006325D01*
X6582913Y-24034896D01*
X6582913Y-24192039D01*
X6582913Y-24034896D02*
X6597199Y-24006325D01*
X6625770Y-23992039D01*
X6668627Y-23992039D01*
X6697199Y-24006325D01*
X6711484Y-24034896D01*
X6711484Y-24192039D01*
X7297199Y-23877753D02*
X7040056Y-24263468D01*
X7682913Y-23892039D02*
X7711484Y-23892039D01*
X7740056Y-23906325D01*
X7754342Y-23920611D01*
X7768627Y-23949182D01*
X7782913Y-24006325D01*
X7782913Y-24077753D01*
X7768627Y-24134896D01*
X7754342Y-24163468D01*
X7740056Y-24177753D01*
X7711484Y-24192039D01*
X7682913Y-24192039D01*
X7654342Y-24177753D01*
X7640056Y-24163468D01*
X7625770Y-24134896D01*
X7611484Y-24077753D01*
X7611484Y-24006325D01*
X7625770Y-23949182D01*
X7640056Y-23920611D01*
X7654342Y-23906325D01*
X7682913Y-23892039D01*
X7911484Y-24163468D02*
X7925770Y-24177753D01*
X7911484Y-24192039D01*
X7897199Y-24177753D01*
X7911484Y-24163468D01*
X7911484Y-24192039D01*
X8111484Y-23892039D02*
X8140056Y-23892039D01*
X8168627Y-23906325D01*
X8182913Y-23920611D01*
X8197199Y-23949182D01*
X8211484Y-24006325D01*
X8211484Y-24077753D01*
X8197199Y-24134896D01*
X8182913Y-24163468D01*
X8168627Y-24177753D01*
X8140056Y-24192039D01*
X8111484Y-24192039D01*
X8082913Y-24177753D01*
X8068627Y-24163468D01*
X8054342Y-24134896D01*
X8040056Y-24077753D01*
X8040056Y-24006325D01*
X8054342Y-23949182D01*
X8068627Y-23920611D01*
X8082913Y-23906325D01*
X8111484Y-23892039D01*
X8497199Y-24192039D02*
X8325770Y-24192039D01*
X8411485Y-24192039D02*
X8411485Y-23892039D01*
X8382913Y-23934896D01*
X8354342Y-23963468D01*
X8325770Y-23977753D01*
X8754342Y-23892039D02*
X8697199Y-23892039D01*
X8668627Y-23906325D01*
X8654342Y-23920611D01*
X8625770Y-23963468D01*
X8611485Y-24020611D01*
X8611485Y-24134896D01*
X8625770Y-24163468D01*
X8640056Y-24177753D01*
X8668627Y-24192039D01*
X8725770Y-24192039D01*
X8754342Y-24177753D01*
X8768627Y-24163468D01*
X8782913Y-24134896D01*
X8782913Y-24063468D01*
X8768627Y-24034896D01*
X8754342Y-24020611D01*
X8725770Y-24006325D01*
X8668627Y-24006325D01*
X8640056Y-24020611D01*
X8625770Y-24034896D01*
X8611485Y-24063468D01*
X8897199Y-23892039D02*
X8897199Y-23949182D01*
X9011485Y-23892039D02*
X9011485Y-23949182D01*
X9454342Y-24306325D02*
X9440056Y-24292039D01*
X9411485Y-24249182D01*
X9397199Y-24220611D01*
X9382913Y-24177753D01*
X9368627Y-24106325D01*
X9368627Y-24049182D01*
X9382913Y-23977753D01*
X9397199Y-23934896D01*
X9411485Y-23906325D01*
X9440056Y-23863468D01*
X9454342Y-23849182D01*
X9725770Y-24192039D02*
X9554342Y-24192039D01*
X9640056Y-24192039D02*
X9640056Y-23892039D01*
X9611485Y-23934896D01*
X9582913Y-23963468D01*
X9554342Y-23977753D01*
X10011485Y-24192039D02*
X9840056Y-24192039D01*
X9925770Y-24192039D02*
X9925770Y-23892039D01*
X9897199Y-23934896D01*
X9868627Y-23963468D01*
X9840056Y-23977753D01*
X10182913Y-24020611D02*
X10154342Y-24006325D01*
X10140056Y-23992039D01*
X10125770Y-23963468D01*
X10125770Y-23949182D01*
X10140056Y-23920611D01*
X10154342Y-23906325D01*
X10182913Y-23892039D01*
X10240056Y-23892039D01*
X10268627Y-23906325D01*
X10282913Y-23920611D01*
X10297199Y-23949182D01*
X10297199Y-23963468D01*
X10282913Y-23992039D01*
X10268627Y-24006325D01*
X10240056Y-24020611D01*
X10182913Y-24020611D01*
X10154342Y-24034896D01*
X10140056Y-24049182D01*
X10125770Y-24077753D01*
X10125770Y-24134896D01*
X10140056Y-24163468D01*
X10154342Y-24177753D01*
X10182913Y-24192039D01*
X10240056Y-24192039D01*
X10268627Y-24177753D01*
X10282913Y-24163468D01*
X10297199Y-24134896D01*
X10297199Y-24077753D01*
X10282913Y-24049182D01*
X10268627Y-24034896D01*
X10240056Y-24020611D01*
X10654342Y-24192039D02*
X10654342Y-23892039D01*
X10782913Y-24192039D02*
X10782913Y-24034896D01*
X10768627Y-24006325D01*
X10740056Y-23992039D01*
X10697199Y-23992039D01*
X10668627Y-24006325D01*
X10654342Y-24020611D01*
X10968627Y-24192039D02*
X10940056Y-24177753D01*
X10925770Y-24163468D01*
X10911485Y-24134896D01*
X10911485Y-24049182D01*
X10925770Y-24020611D01*
X10940056Y-24006325D01*
X10968627Y-23992039D01*
X11011485Y-23992039D01*
X11040056Y-24006325D01*
X11054342Y-24020611D01*
X11068627Y-24049182D01*
X11068627Y-24134896D01*
X11054342Y-24163468D01*
X11040056Y-24177753D01*
X11011485Y-24192039D01*
X10968627Y-24192039D01*
X11240056Y-24192039D02*
X11211484Y-24177753D01*
X11197199Y-24149182D01*
X11197199Y-23892039D01*
X11468627Y-24177753D02*
X11440056Y-24192039D01*
X11382913Y-24192039D01*
X11354342Y-24177753D01*
X11340056Y-24149182D01*
X11340056Y-24034896D01*
X11354342Y-24006325D01*
X11382913Y-23992039D01*
X11440056Y-23992039D01*
X11468627Y-24006325D01*
X11482913Y-24034896D01*
X11482913Y-24063468D01*
X11340056Y-24092039D01*
X11597199Y-24177753D02*
X11625770Y-24192039D01*
X11682913Y-24192039D01*
X11711484Y-24177753D01*
X11725770Y-24149182D01*
X11725770Y-24134896D01*
X11711484Y-24106325D01*
X11682913Y-24092039D01*
X11640056Y-24092039D01*
X11611484Y-24077753D01*
X11597199Y-24049182D01*
X11597199Y-24034896D01*
X11611484Y-24006325D01*
X11640056Y-23992039D01*
X11682913Y-23992039D01*
X11711484Y-24006325D01*
X11825770Y-24306325D02*
X11840056Y-24292039D01*
X11868627Y-24249182D01*
X11882913Y-24220611D01*
X11897199Y-24177753D01*
X11911484Y-24106325D01*
X11911484Y-24049182D01*
X11897199Y-23977753D01*
X11882913Y-23934896D01*
X11868627Y-23906325D01*
X11840056Y-23863468D01*
X11825770Y-23849182D01*
X4767913Y-24452325D02*
G75*
G03X4767913Y-24452325I-30000J0D01*
G01*
X5111485Y-24288039D02*
X5140056Y-24288039D01*
X5168627Y-24302325D01*
X5182913Y-24316611D01*
X5197199Y-24345182D01*
X5211485Y-24402325D01*
X5211485Y-24473753D01*
X5197199Y-24530896D01*
X5182913Y-24559468D01*
X5168627Y-24573753D01*
X5140056Y-24588039D01*
X5111485Y-24588039D01*
X5082913Y-24573753D01*
X5068627Y-24559468D01*
X5054342Y-24530896D01*
X5040056Y-24473753D01*
X5040056Y-24402325D01*
X5054342Y-24345182D01*
X5068627Y-24316611D01*
X5082913Y-24302325D01*
X5111485Y-24288039D01*
X5340056Y-24559468D02*
X5354342Y-24573753D01*
X5340056Y-24588039D01*
X5325770Y-24573753D01*
X5340056Y-24559468D01*
X5340056Y-24588039D01*
X5611484Y-24288039D02*
X5554342Y-24288039D01*
X5525770Y-24302325D01*
X5511485Y-24316611D01*
X5482913Y-24359468D01*
X5468627Y-24416611D01*
X5468627Y-24530896D01*
X5482913Y-24559468D01*
X5497199Y-24573753D01*
X5525770Y-24588039D01*
X5582913Y-24588039D01*
X5611484Y-24573753D01*
X5625770Y-24559468D01*
X5640056Y-24530896D01*
X5640056Y-24459468D01*
X5625770Y-24430896D01*
X5611484Y-24416611D01*
X5582913Y-24402325D01*
X5525770Y-24402325D01*
X5497199Y-24416611D01*
X5482913Y-24430896D01*
X5468627Y-24459468D01*
X5825770Y-24288039D02*
X5854342Y-24288039D01*
X5882913Y-24302325D01*
X5897199Y-24316611D01*
X5911484Y-24345182D01*
X5925770Y-24402325D01*
X5925770Y-24473753D01*
X5911484Y-24530896D01*
X5897199Y-24559468D01*
X5882913Y-24573753D01*
X5854342Y-24588039D01*
X5825770Y-24588039D01*
X5797199Y-24573753D01*
X5782913Y-24559468D01*
X5768627Y-24530896D01*
X5754342Y-24473753D01*
X5754342Y-24402325D01*
X5768627Y-24345182D01*
X5782913Y-24316611D01*
X5797199Y-24302325D01*
X5825770Y-24288039D01*
X6054342Y-24588039D02*
X6054342Y-24388039D01*
X6054342Y-24416611D02*
X6068627Y-24402325D01*
X6097199Y-24388039D01*
X6140056Y-24388039D01*
X6168627Y-24402325D01*
X6182913Y-24430896D01*
X6182913Y-24588039D01*
X6182913Y-24430896D02*
X6197199Y-24402325D01*
X6225770Y-24388039D01*
X6268627Y-24388039D01*
X6297199Y-24402325D01*
X6311484Y-24430896D01*
X6311484Y-24588039D01*
X6454342Y-24588039D02*
X6454342Y-24388039D01*
X6454342Y-24416611D02*
X6468627Y-24402325D01*
X6497199Y-24388039D01*
X6540056Y-24388039D01*
X6568627Y-24402325D01*
X6582913Y-24430896D01*
X6582913Y-24588039D01*
X6582913Y-24430896D02*
X6597199Y-24402325D01*
X6625770Y-24388039D01*
X6668627Y-24388039D01*
X6697199Y-24402325D01*
X6711484Y-24430896D01*
X6711484Y-24588039D01*
X7297199Y-24273753D02*
X7040056Y-24659468D01*
X7682913Y-24288039D02*
X7711484Y-24288039D01*
X7740056Y-24302325D01*
X7754342Y-24316611D01*
X7768627Y-24345182D01*
X7782913Y-24402325D01*
X7782913Y-24473753D01*
X7768627Y-24530896D01*
X7754342Y-24559468D01*
X7740056Y-24573753D01*
X7711484Y-24588039D01*
X7682913Y-24588039D01*
X7654342Y-24573753D01*
X7640056Y-24559468D01*
X7625770Y-24530896D01*
X7611484Y-24473753D01*
X7611484Y-24402325D01*
X7625770Y-24345182D01*
X7640056Y-24316611D01*
X7654342Y-24302325D01*
X7682913Y-24288039D01*
X7911484Y-24559468D02*
X7925770Y-24573753D01*
X7911484Y-24588039D01*
X7897199Y-24573753D01*
X7911484Y-24559468D01*
X7911484Y-24588039D01*
X8111484Y-24288039D02*
X8140056Y-24288039D01*
X8168627Y-24302325D01*
X8182913Y-24316611D01*
X8197199Y-24345182D01*
X8211484Y-24402325D01*
X8211484Y-24473753D01*
X8197199Y-24530896D01*
X8182913Y-24559468D01*
X8168627Y-24573753D01*
X8140056Y-24588039D01*
X8111484Y-24588039D01*
X8082913Y-24573753D01*
X8068627Y-24559468D01*
X8054342Y-24530896D01*
X8040056Y-24473753D01*
X8040056Y-24402325D01*
X8054342Y-24345182D01*
X8068627Y-24316611D01*
X8082913Y-24302325D01*
X8111484Y-24288039D01*
X8325770Y-24316611D02*
X8340056Y-24302325D01*
X8368627Y-24288039D01*
X8440056Y-24288039D01*
X8468627Y-24302325D01*
X8482913Y-24316611D01*
X8497199Y-24345182D01*
X8497199Y-24373753D01*
X8482913Y-24416611D01*
X8311484Y-24588039D01*
X8497199Y-24588039D01*
X8754342Y-24388039D02*
X8754342Y-24588039D01*
X8682913Y-24273753D02*
X8611485Y-24488039D01*
X8797199Y-24488039D01*
X8897199Y-24288039D02*
X8897199Y-24345182D01*
X9011485Y-24288039D02*
X9011485Y-24345182D01*
X9454342Y-24702325D02*
X9440056Y-24688039D01*
X9411485Y-24645182D01*
X9397199Y-24616611D01*
X9382913Y-24573753D01*
X9368627Y-24502325D01*
X9368627Y-24445182D01*
X9382913Y-24373753D01*
X9397199Y-24330896D01*
X9411485Y-24302325D01*
X9440056Y-24259468D01*
X9454342Y-24245182D01*
X9625770Y-24288039D02*
X9654342Y-24288039D01*
X9682913Y-24302325D01*
X9697199Y-24316611D01*
X9711485Y-24345182D01*
X9725770Y-24402325D01*
X9725770Y-24473753D01*
X9711485Y-24530896D01*
X9697199Y-24559468D01*
X9682913Y-24573753D01*
X9654342Y-24588039D01*
X9625770Y-24588039D01*
X9597199Y-24573753D01*
X9582913Y-24559468D01*
X9568627Y-24530896D01*
X9554342Y-24473753D01*
X9554342Y-24402325D01*
X9568627Y-24345182D01*
X9582913Y-24316611D01*
X9597199Y-24302325D01*
X9625770Y-24288039D01*
X10082913Y-24588039D02*
X10082913Y-24288039D01*
X10211485Y-24588039D02*
X10211485Y-24430896D01*
X10197199Y-24402325D01*
X10168627Y-24388039D01*
X10125770Y-24388039D01*
X10097199Y-24402325D01*
X10082913Y-24416611D01*
X10397199Y-24588039D02*
X10368627Y-24573753D01*
X10354342Y-24559468D01*
X10340056Y-24530896D01*
X10340056Y-24445182D01*
X10354342Y-24416611D01*
X10368627Y-24402325D01*
X10397199Y-24388039D01*
X10440056Y-24388039D01*
X10468627Y-24402325D01*
X10482913Y-24416611D01*
X10497199Y-24445182D01*
X10497199Y-24530896D01*
X10482913Y-24559468D01*
X10468627Y-24573753D01*
X10440056Y-24588039D01*
X10397199Y-24588039D01*
X10668627Y-24588039D02*
X10640056Y-24573753D01*
X10625770Y-24545182D01*
X10625770Y-24288039D01*
X10897199Y-24573753D02*
X10868627Y-24588039D01*
X10811485Y-24588039D01*
X10782913Y-24573753D01*
X10768627Y-24545182D01*
X10768627Y-24430896D01*
X10782913Y-24402325D01*
X10811485Y-24388039D01*
X10868627Y-24388039D01*
X10897199Y-24402325D01*
X10911485Y-24430896D01*
X10911485Y-24459468D01*
X10768627Y-24488039D01*
X11025770Y-24573753D02*
X11054342Y-24588039D01*
X11111485Y-24588039D01*
X11140056Y-24573753D01*
X11154342Y-24545182D01*
X11154342Y-24530896D01*
X11140056Y-24502325D01*
X11111485Y-24488039D01*
X11068627Y-24488039D01*
X11040056Y-24473753D01*
X11025770Y-24445182D01*
X11025770Y-24430896D01*
X11040056Y-24402325D01*
X11068627Y-24388039D01*
X11111485Y-24388039D01*
X11140056Y-24402325D01*
X11511484Y-24473753D02*
X11740056Y-24473753D01*
X11625770Y-24588039D02*
X11625770Y-24359468D01*
X12240056Y-24388039D02*
X12240056Y-24588039D01*
X12168627Y-24273753D02*
X12097199Y-24488039D01*
X12282913Y-24488039D01*
X12611484Y-24573753D02*
X12640056Y-24588039D01*
X12697199Y-24588039D01*
X12725770Y-24573753D01*
X12740056Y-24545182D01*
X12740056Y-24530896D01*
X12725770Y-24502325D01*
X12697199Y-24488039D01*
X12654342Y-24488039D01*
X12625770Y-24473753D01*
X12611484Y-24445182D01*
X12611484Y-24430896D01*
X12625770Y-24402325D01*
X12654342Y-24388039D01*
X12697199Y-24388039D01*
X12725770Y-24402325D01*
X12911484Y-24588039D02*
X12882913Y-24573753D01*
X12868627Y-24545182D01*
X12868627Y-24288039D01*
X13068627Y-24588039D02*
X13040056Y-24573753D01*
X13025770Y-24559468D01*
X13011484Y-24530896D01*
X13011484Y-24445182D01*
X13025770Y-24416611D01*
X13040056Y-24402325D01*
X13068627Y-24388039D01*
X13111484Y-24388039D01*
X13140056Y-24402325D01*
X13154342Y-24416611D01*
X13168627Y-24445182D01*
X13168627Y-24530896D01*
X13154342Y-24559468D01*
X13140056Y-24573753D01*
X13111484Y-24588039D01*
X13068627Y-24588039D01*
X13254342Y-24388039D02*
X13368627Y-24388039D01*
X13297199Y-24288039D02*
X13297199Y-24545182D01*
X13311484Y-24573753D01*
X13340056Y-24588039D01*
X13368627Y-24588039D01*
X13454342Y-24573753D02*
X13482913Y-24588039D01*
X13540056Y-24588039D01*
X13568627Y-24573753D01*
X13582913Y-24545182D01*
X13582913Y-24530896D01*
X13568627Y-24502325D01*
X13540056Y-24488039D01*
X13497199Y-24488039D01*
X13468627Y-24473753D01*
X13454342Y-24445182D01*
X13454342Y-24430896D01*
X13468627Y-24402325D01*
X13497199Y-24388039D01*
X13540056Y-24388039D01*
X13568627Y-24402325D01*
X13682913Y-24702325D02*
X13697199Y-24688039D01*
X13725770Y-24645182D01*
X13740056Y-24616611D01*
X13754342Y-24573753D01*
X13768627Y-24502325D01*
X13768627Y-24445182D01*
X13754342Y-24373753D01*
X13740056Y-24330896D01*
X13725770Y-24302325D01*
X13697199Y-24259468D01*
X13682913Y-24245182D01*
X4717913Y-24798325D02*
X4717913Y-24898325D01*
X4667913Y-24848325D02*
X4767913Y-24848325D01*
X5211485Y-24984039D02*
X5040056Y-24984039D01*
X5125770Y-24984039D02*
X5125770Y-24684039D01*
X5097199Y-24726896D01*
X5068627Y-24755468D01*
X5040056Y-24769753D01*
X5340056Y-24955468D02*
X5354342Y-24969753D01*
X5340056Y-24984039D01*
X5325770Y-24969753D01*
X5340056Y-24955468D01*
X5340056Y-24984039D01*
X5540056Y-24684039D02*
X5568627Y-24684039D01*
X5597199Y-24698325D01*
X5611484Y-24712611D01*
X5625770Y-24741182D01*
X5640056Y-24798325D01*
X5640056Y-24869753D01*
X5625770Y-24926896D01*
X5611484Y-24955468D01*
X5597199Y-24969753D01*
X5568627Y-24984039D01*
X5540056Y-24984039D01*
X5511485Y-24969753D01*
X5497199Y-24955468D01*
X5482913Y-24926896D01*
X5468627Y-24869753D01*
X5468627Y-24798325D01*
X5482913Y-24741182D01*
X5497199Y-24712611D01*
X5511485Y-24698325D01*
X5540056Y-24684039D01*
X5825770Y-24684039D02*
X5854342Y-24684039D01*
X5882913Y-24698325D01*
X5897199Y-24712611D01*
X5911484Y-24741182D01*
X5925770Y-24798325D01*
X5925770Y-24869753D01*
X5911484Y-24926896D01*
X5897199Y-24955468D01*
X5882913Y-24969753D01*
X5854342Y-24984039D01*
X5825770Y-24984039D01*
X5797199Y-24969753D01*
X5782913Y-24955468D01*
X5768627Y-24926896D01*
X5754342Y-24869753D01*
X5754342Y-24798325D01*
X5768627Y-24741182D01*
X5782913Y-24712611D01*
X5797199Y-24698325D01*
X5825770Y-24684039D01*
X6054342Y-24984039D02*
X6054342Y-24784039D01*
X6054342Y-24812611D02*
X6068627Y-24798325D01*
X6097199Y-24784039D01*
X6140056Y-24784039D01*
X6168627Y-24798325D01*
X6182913Y-24826896D01*
X6182913Y-24984039D01*
X6182913Y-24826896D02*
X6197199Y-24798325D01*
X6225770Y-24784039D01*
X6268627Y-24784039D01*
X6297199Y-24798325D01*
X6311484Y-24826896D01*
X6311484Y-24984039D01*
X6454342Y-24984039D02*
X6454342Y-24784039D01*
X6454342Y-24812611D02*
X6468627Y-24798325D01*
X6497199Y-24784039D01*
X6540056Y-24784039D01*
X6568627Y-24798325D01*
X6582913Y-24826896D01*
X6582913Y-24984039D01*
X6582913Y-24826896D02*
X6597199Y-24798325D01*
X6625770Y-24784039D01*
X6668627Y-24784039D01*
X6697199Y-24798325D01*
X6711484Y-24826896D01*
X6711484Y-24984039D01*
X7297199Y-24669753D02*
X7040056Y-25055468D01*
X7682913Y-24684039D02*
X7711484Y-24684039D01*
X7740056Y-24698325D01*
X7754342Y-24712611D01*
X7768627Y-24741182D01*
X7782913Y-24798325D01*
X7782913Y-24869753D01*
X7768627Y-24926896D01*
X7754342Y-24955468D01*
X7740056Y-24969753D01*
X7711484Y-24984039D01*
X7682913Y-24984039D01*
X7654342Y-24969753D01*
X7640056Y-24955468D01*
X7625770Y-24926896D01*
X7611484Y-24869753D01*
X7611484Y-24798325D01*
X7625770Y-24741182D01*
X7640056Y-24712611D01*
X7654342Y-24698325D01*
X7682913Y-24684039D01*
X7911484Y-24955468D02*
X7925770Y-24969753D01*
X7911484Y-24984039D01*
X7897199Y-24969753D01*
X7911484Y-24955468D01*
X7911484Y-24984039D01*
X8111484Y-24684039D02*
X8140056Y-24684039D01*
X8168627Y-24698325D01*
X8182913Y-24712611D01*
X8197199Y-24741182D01*
X8211484Y-24798325D01*
X8211484Y-24869753D01*
X8197199Y-24926896D01*
X8182913Y-24955468D01*
X8168627Y-24969753D01*
X8140056Y-24984039D01*
X8111484Y-24984039D01*
X8082913Y-24969753D01*
X8068627Y-24955468D01*
X8054342Y-24926896D01*
X8040056Y-24869753D01*
X8040056Y-24798325D01*
X8054342Y-24741182D01*
X8068627Y-24712611D01*
X8082913Y-24698325D01*
X8111484Y-24684039D01*
X8311484Y-24684039D02*
X8497199Y-24684039D01*
X8397199Y-24798325D01*
X8440056Y-24798325D01*
X8468627Y-24812611D01*
X8482913Y-24826896D01*
X8497199Y-24855468D01*
X8497199Y-24926896D01*
X8482913Y-24955468D01*
X8468627Y-24969753D01*
X8440056Y-24984039D01*
X8354342Y-24984039D01*
X8325770Y-24969753D01*
X8311484Y-24955468D01*
X8640056Y-24984039D02*
X8697199Y-24984039D01*
X8725770Y-24969753D01*
X8740056Y-24955468D01*
X8768627Y-24912611D01*
X8782913Y-24855468D01*
X8782913Y-24741182D01*
X8768627Y-24712611D01*
X8754342Y-24698325D01*
X8725770Y-24684039D01*
X8668627Y-24684039D01*
X8640056Y-24698325D01*
X8625770Y-24712611D01*
X8611485Y-24741182D01*
X8611485Y-24812611D01*
X8625770Y-24841182D01*
X8640056Y-24855468D01*
X8668627Y-24869753D01*
X8725770Y-24869753D01*
X8754342Y-24855468D01*
X8768627Y-24841182D01*
X8782913Y-24812611D01*
X8897199Y-24684039D02*
X8897199Y-24741182D01*
X9011485Y-24684039D02*
X9011485Y-24741182D01*
X9454342Y-25098325D02*
X9440056Y-25084039D01*
X9411485Y-25041182D01*
X9397199Y-25012611D01*
X9382913Y-24969753D01*
X9368627Y-24898325D01*
X9368627Y-24841182D01*
X9382913Y-24769753D01*
X9397199Y-24726896D01*
X9411485Y-24698325D01*
X9440056Y-24655468D01*
X9454342Y-24641182D01*
X9697199Y-24684039D02*
X9640056Y-24684039D01*
X9611485Y-24698325D01*
X9597199Y-24712611D01*
X9568627Y-24755468D01*
X9554342Y-24812611D01*
X9554342Y-24926896D01*
X9568627Y-24955468D01*
X9582913Y-24969753D01*
X9611485Y-24984039D01*
X9668627Y-24984039D01*
X9697199Y-24969753D01*
X9711485Y-24955468D01*
X9725770Y-24926896D01*
X9725770Y-24855468D01*
X9711485Y-24826896D01*
X9697199Y-24812611D01*
X9668627Y-24798325D01*
X9611485Y-24798325D01*
X9582913Y-24812611D01*
X9568627Y-24826896D01*
X9554342Y-24855468D01*
X9911485Y-24684039D02*
X9940056Y-24684039D01*
X9968627Y-24698325D01*
X9982913Y-24712611D01*
X9997199Y-24741182D01*
X10011485Y-24798325D01*
X10011485Y-24869753D01*
X9997199Y-24926896D01*
X9982913Y-24955468D01*
X9968627Y-24969753D01*
X9940056Y-24984039D01*
X9911485Y-24984039D01*
X9882913Y-24969753D01*
X9868627Y-24955468D01*
X9854342Y-24926896D01*
X9840056Y-24869753D01*
X9840056Y-24798325D01*
X9854342Y-24741182D01*
X9868627Y-24712611D01*
X9882913Y-24698325D01*
X9911485Y-24684039D01*
X10368627Y-24984039D02*
X10368627Y-24684039D01*
X10497199Y-24984039D02*
X10497199Y-24826896D01*
X10482913Y-24798325D01*
X10454342Y-24784039D01*
X10411485Y-24784039D01*
X10382913Y-24798325D01*
X10368627Y-24812611D01*
X10682913Y-24984039D02*
X10654342Y-24969753D01*
X10640056Y-24955468D01*
X10625770Y-24926896D01*
X10625770Y-24841182D01*
X10640056Y-24812611D01*
X10654342Y-24798325D01*
X10682913Y-24784039D01*
X10725770Y-24784039D01*
X10754342Y-24798325D01*
X10768627Y-24812611D01*
X10782913Y-24841182D01*
X10782913Y-24926896D01*
X10768627Y-24955468D01*
X10754342Y-24969753D01*
X10725770Y-24984039D01*
X10682913Y-24984039D01*
X10954342Y-24984039D02*
X10925770Y-24969753D01*
X10911485Y-24941182D01*
X10911485Y-24684039D01*
X11182913Y-24969753D02*
X11154342Y-24984039D01*
X11097199Y-24984039D01*
X11068627Y-24969753D01*
X11054342Y-24941182D01*
X11054342Y-24826896D01*
X11068627Y-24798325D01*
X11097199Y-24784039D01*
X11154342Y-24784039D01*
X11182913Y-24798325D01*
X11197199Y-24826896D01*
X11197199Y-24855468D01*
X11054342Y-24884039D01*
X11311484Y-24969753D02*
X11340056Y-24984039D01*
X11397199Y-24984039D01*
X11425770Y-24969753D01*
X11440056Y-24941182D01*
X11440056Y-24926896D01*
X11425770Y-24898325D01*
X11397199Y-24884039D01*
X11354342Y-24884039D01*
X11325770Y-24869753D01*
X11311484Y-24841182D01*
X11311484Y-24826896D01*
X11325770Y-24798325D01*
X11354342Y-24784039D01*
X11397199Y-24784039D01*
X11425770Y-24798325D01*
X11540056Y-25098325D02*
X11554342Y-25084039D01*
X11582913Y-25041182D01*
X11597199Y-25012611D01*
X11611484Y-24969753D01*
X11625770Y-24898325D01*
X11625770Y-24841182D01*
X11611484Y-24769753D01*
X11597199Y-24726896D01*
X11582913Y-24698325D01*
X11554342Y-24655468D01*
X11540056Y-24641182D01*
X4752537Y-25281448D02*
X4752537Y-25207201D01*
X4678290Y-25207201D01*
X4678290Y-25281448D01*
X4752537Y-25281448D01*
X5211485Y-25380039D02*
X5040056Y-25380039D01*
X5125770Y-25380039D02*
X5125770Y-25080039D01*
X5097199Y-25122896D01*
X5068627Y-25151468D01*
X5040056Y-25165753D01*
X5340056Y-25351468D02*
X5354342Y-25365753D01*
X5340056Y-25380039D01*
X5325770Y-25365753D01*
X5340056Y-25351468D01*
X5340056Y-25380039D01*
X5540056Y-25080039D02*
X5568627Y-25080039D01*
X5597199Y-25094325D01*
X5611484Y-25108611D01*
X5625770Y-25137182D01*
X5640056Y-25194325D01*
X5640056Y-25265753D01*
X5625770Y-25322896D01*
X5611484Y-25351468D01*
X5597199Y-25365753D01*
X5568627Y-25380039D01*
X5540056Y-25380039D01*
X5511485Y-25365753D01*
X5497199Y-25351468D01*
X5482913Y-25322896D01*
X5468627Y-25265753D01*
X5468627Y-25194325D01*
X5482913Y-25137182D01*
X5497199Y-25108611D01*
X5511485Y-25094325D01*
X5540056Y-25080039D01*
X5911484Y-25080039D02*
X5768627Y-25080039D01*
X5754342Y-25222896D01*
X5768627Y-25208611D01*
X5797199Y-25194325D01*
X5868627Y-25194325D01*
X5897199Y-25208611D01*
X5911484Y-25222896D01*
X5925770Y-25251468D01*
X5925770Y-25322896D01*
X5911484Y-25351468D01*
X5897199Y-25365753D01*
X5868627Y-25380039D01*
X5797199Y-25380039D01*
X5768627Y-25365753D01*
X5754342Y-25351468D01*
X6054342Y-25380039D02*
X6054342Y-25180039D01*
X6054342Y-25208611D02*
X6068627Y-25194325D01*
X6097199Y-25180039D01*
X6140056Y-25180039D01*
X6168627Y-25194325D01*
X6182913Y-25222896D01*
X6182913Y-25380039D01*
X6182913Y-25222896D02*
X6197199Y-25194325D01*
X6225770Y-25180039D01*
X6268627Y-25180039D01*
X6297199Y-25194325D01*
X6311484Y-25222896D01*
X6311484Y-25380039D01*
X6454342Y-25380039D02*
X6454342Y-25180039D01*
X6454342Y-25208611D02*
X6468627Y-25194325D01*
X6497199Y-25180039D01*
X6540056Y-25180039D01*
X6568627Y-25194325D01*
X6582913Y-25222896D01*
X6582913Y-25380039D01*
X6582913Y-25222896D02*
X6597199Y-25194325D01*
X6625770Y-25180039D01*
X6668627Y-25180039D01*
X6697199Y-25194325D01*
X6711484Y-25222896D01*
X6711484Y-25380039D01*
X7297199Y-25065753D02*
X7040056Y-25451468D01*
X7682913Y-25080039D02*
X7711484Y-25080039D01*
X7740056Y-25094325D01*
X7754342Y-25108611D01*
X7768627Y-25137182D01*
X7782913Y-25194325D01*
X7782913Y-25265753D01*
X7768627Y-25322896D01*
X7754342Y-25351468D01*
X7740056Y-25365753D01*
X7711484Y-25380039D01*
X7682913Y-25380039D01*
X7654342Y-25365753D01*
X7640056Y-25351468D01*
X7625770Y-25322896D01*
X7611484Y-25265753D01*
X7611484Y-25194325D01*
X7625770Y-25137182D01*
X7640056Y-25108611D01*
X7654342Y-25094325D01*
X7682913Y-25080039D01*
X7911484Y-25351468D02*
X7925770Y-25365753D01*
X7911484Y-25380039D01*
X7897199Y-25365753D01*
X7911484Y-25351468D01*
X7911484Y-25380039D01*
X8111484Y-25080039D02*
X8140056Y-25080039D01*
X8168627Y-25094325D01*
X8182913Y-25108611D01*
X8197199Y-25137182D01*
X8211484Y-25194325D01*
X8211484Y-25265753D01*
X8197199Y-25322896D01*
X8182913Y-25351468D01*
X8168627Y-25365753D01*
X8140056Y-25380039D01*
X8111484Y-25380039D01*
X8082913Y-25365753D01*
X8068627Y-25351468D01*
X8054342Y-25322896D01*
X8040056Y-25265753D01*
X8040056Y-25194325D01*
X8054342Y-25137182D01*
X8068627Y-25108611D01*
X8082913Y-25094325D01*
X8111484Y-25080039D01*
X8468627Y-25180039D02*
X8468627Y-25380039D01*
X8397199Y-25065753D02*
X8325770Y-25280039D01*
X8511485Y-25280039D01*
X8782913Y-25380039D02*
X8611485Y-25380039D01*
X8697199Y-25380039D02*
X8697199Y-25080039D01*
X8668627Y-25122896D01*
X8640056Y-25151468D01*
X8611485Y-25165753D01*
X8897199Y-25080039D02*
X8897199Y-25137182D01*
X9011485Y-25080039D02*
X9011485Y-25137182D01*
X9454342Y-25494325D02*
X9440056Y-25480039D01*
X9411485Y-25437182D01*
X9397199Y-25408611D01*
X9382913Y-25365753D01*
X9368627Y-25294325D01*
X9368627Y-25237182D01*
X9382913Y-25165753D01*
X9397199Y-25122896D01*
X9411485Y-25094325D01*
X9440056Y-25051468D01*
X9454342Y-25037182D01*
X9725770Y-25380039D02*
X9554342Y-25380039D01*
X9640056Y-25380039D02*
X9640056Y-25080039D01*
X9611485Y-25122896D01*
X9582913Y-25151468D01*
X9554342Y-25165753D01*
X9911485Y-25080039D02*
X9940056Y-25080039D01*
X9968627Y-25094325D01*
X9982913Y-25108611D01*
X9997199Y-25137182D01*
X10011485Y-25194325D01*
X10011485Y-25265753D01*
X9997199Y-25322896D01*
X9982913Y-25351468D01*
X9968627Y-25365753D01*
X9940056Y-25380039D01*
X9911485Y-25380039D01*
X9882913Y-25365753D01*
X9868627Y-25351468D01*
X9854342Y-25322896D01*
X9840056Y-25265753D01*
X9840056Y-25194325D01*
X9854342Y-25137182D01*
X9868627Y-25108611D01*
X9882913Y-25094325D01*
X9911485Y-25080039D01*
X10368627Y-25380039D02*
X10368627Y-25080039D01*
X10497199Y-25380039D02*
X10497199Y-25222896D01*
X10482913Y-25194325D01*
X10454342Y-25180039D01*
X10411485Y-25180039D01*
X10382913Y-25194325D01*
X10368627Y-25208611D01*
X10682913Y-25380039D02*
X10654342Y-25365753D01*
X10640056Y-25351468D01*
X10625770Y-25322896D01*
X10625770Y-25237182D01*
X10640056Y-25208611D01*
X10654342Y-25194325D01*
X10682913Y-25180039D01*
X10725770Y-25180039D01*
X10754342Y-25194325D01*
X10768627Y-25208611D01*
X10782913Y-25237182D01*
X10782913Y-25322896D01*
X10768627Y-25351468D01*
X10754342Y-25365753D01*
X10725770Y-25380039D01*
X10682913Y-25380039D01*
X10954342Y-25380039D02*
X10925770Y-25365753D01*
X10911485Y-25337182D01*
X10911485Y-25080039D01*
X11182913Y-25365753D02*
X11154342Y-25380039D01*
X11097199Y-25380039D01*
X11068627Y-25365753D01*
X11054342Y-25337182D01*
X11054342Y-25222896D01*
X11068627Y-25194325D01*
X11097199Y-25180039D01*
X11154342Y-25180039D01*
X11182913Y-25194325D01*
X11197199Y-25222896D01*
X11197199Y-25251468D01*
X11054342Y-25280039D01*
X11311484Y-25365753D02*
X11340056Y-25380039D01*
X11397199Y-25380039D01*
X11425770Y-25365753D01*
X11440056Y-25337182D01*
X11440056Y-25322896D01*
X11425770Y-25294325D01*
X11397199Y-25280039D01*
X11354342Y-25280039D01*
X11325770Y-25265753D01*
X11311484Y-25237182D01*
X11311484Y-25222896D01*
X11325770Y-25194325D01*
X11354342Y-25180039D01*
X11397199Y-25180039D01*
X11425770Y-25194325D01*
X11540056Y-25494325D02*
X11554342Y-25480039D01*
X11582913Y-25437182D01*
X11597199Y-25408611D01*
X11611484Y-25365753D01*
X11625770Y-25294325D01*
X11625770Y-25237182D01*
X11611484Y-25165753D01*
X11597199Y-25122896D01*
X11582913Y-25094325D01*
X11554342Y-25051468D01*
X11540056Y-25037182D01*
M02*
