G04 #@! TF.GenerationSoftware,KiCad,Pcbnew,(5.1.4)-1*
G04 #@! TF.CreationDate,2024-04-24T20:55:01-04:00*
G04 #@! TF.ProjectId,ThumbsUp,5468756d-6273-4557-902e-6b696361645f,rev?*
G04 #@! TF.SameCoordinates,Original*
G04 #@! TF.FileFunction,Soldermask,Top*
G04 #@! TF.FilePolarity,Negative*
%FSLAX46Y46*%
G04 Gerber Fmt 4.6, Leading zero omitted, Abs format (unit mm)*
G04 Created by KiCad (PCBNEW (5.1.4)-1) date 2024-04-24 20:55:01*
%MOMM*%
%LPD*%
G04 APERTURE LIST*
%ADD10C,0.100000*%
G04 APERTURE END LIST*
D10*
G36*
X123244581Y-228193723D02*
G01*
X123397178Y-228256930D01*
X123534512Y-228348694D01*
X123651306Y-228465488D01*
X123743070Y-228602822D01*
X123806277Y-228755419D01*
X123838500Y-228917414D01*
X123838500Y-229082586D01*
X123806277Y-229244581D01*
X123743070Y-229397178D01*
X123651306Y-229534512D01*
X123534512Y-229651306D01*
X123397178Y-229743070D01*
X123244581Y-229806277D01*
X123082586Y-229838500D01*
X122917414Y-229838500D01*
X122755419Y-229806277D01*
X122602822Y-229743070D01*
X122465488Y-229651306D01*
X122348694Y-229534512D01*
X122256930Y-229397178D01*
X122193723Y-229244581D01*
X122161500Y-229082586D01*
X122161500Y-228917414D01*
X122193723Y-228755419D01*
X122256930Y-228602822D01*
X122348694Y-228465488D01*
X122465488Y-228348694D01*
X122602822Y-228256930D01*
X122755419Y-228193723D01*
X122917414Y-228161500D01*
X123082586Y-228161500D01*
X123244581Y-228193723D01*
X123244581Y-228193723D01*
G37*
G36*
X133394581Y-228193723D02*
G01*
X133547178Y-228256930D01*
X133684512Y-228348694D01*
X133801306Y-228465488D01*
X133893070Y-228602822D01*
X133956277Y-228755419D01*
X133988500Y-228917414D01*
X133988500Y-229082586D01*
X133956277Y-229244581D01*
X133893070Y-229397178D01*
X133801306Y-229534512D01*
X133684512Y-229651306D01*
X133547178Y-229743070D01*
X133394581Y-229806277D01*
X133232586Y-229838500D01*
X133067414Y-229838500D01*
X132905419Y-229806277D01*
X132752822Y-229743070D01*
X132615488Y-229651306D01*
X132498694Y-229534512D01*
X132406930Y-229397178D01*
X132343723Y-229244581D01*
X132311500Y-229082586D01*
X132311500Y-228917414D01*
X132343723Y-228755419D01*
X132406930Y-228602822D01*
X132498694Y-228465488D01*
X132615488Y-228348694D01*
X132752822Y-228256930D01*
X132905419Y-228193723D01*
X133067414Y-228161500D01*
X133232586Y-228161500D01*
X133394581Y-228193723D01*
X133394581Y-228193723D01*
G37*
G36*
X110944726Y-227566954D02*
G01*
X111010911Y-227573473D01*
X111180750Y-227624993D01*
X111337275Y-227708658D01*
X111373013Y-227737988D01*
X111474470Y-227821250D01*
X111552530Y-227916368D01*
X111587062Y-227958445D01*
X111670727Y-228114970D01*
X111722247Y-228284809D01*
X111739643Y-228461436D01*
X111722247Y-228638063D01*
X111670727Y-228807902D01*
X111587062Y-228964427D01*
X111557732Y-229000165D01*
X111474470Y-229101622D01*
X111398663Y-229163834D01*
X111337275Y-229214214D01*
X111180750Y-229297879D01*
X111010911Y-229349399D01*
X110944727Y-229355917D01*
X110878544Y-229362436D01*
X110790024Y-229362436D01*
X110723841Y-229355917D01*
X110657657Y-229349399D01*
X110487818Y-229297879D01*
X110331293Y-229214214D01*
X110269905Y-229163834D01*
X110194098Y-229101622D01*
X110110836Y-229000165D01*
X110081506Y-228964427D01*
X109997841Y-228807902D01*
X109946321Y-228638063D01*
X109928925Y-228461436D01*
X109946321Y-228284809D01*
X109997841Y-228114970D01*
X110081506Y-227958445D01*
X110116038Y-227916368D01*
X110194098Y-227821250D01*
X110295555Y-227737988D01*
X110331293Y-227708658D01*
X110487818Y-227624993D01*
X110657657Y-227573473D01*
X110723842Y-227566954D01*
X110790024Y-227560436D01*
X110878544Y-227560436D01*
X110944726Y-227566954D01*
X110944726Y-227566954D01*
G37*
G36*
X182504085Y-227368352D02*
G01*
X182570270Y-227374871D01*
X182740109Y-227426391D01*
X182896634Y-227510056D01*
X182932372Y-227539386D01*
X183033829Y-227622648D01*
X183117091Y-227724105D01*
X183146421Y-227759843D01*
X183230086Y-227916368D01*
X183281606Y-228086207D01*
X183299002Y-228262834D01*
X183281606Y-228439461D01*
X183230086Y-228609300D01*
X183146421Y-228765825D01*
X183117091Y-228801563D01*
X183033829Y-228903020D01*
X182959003Y-228964427D01*
X182896634Y-229015612D01*
X182896632Y-229015613D01*
X182771336Y-229082586D01*
X182740109Y-229099277D01*
X182570270Y-229150797D01*
X182504085Y-229157316D01*
X182437903Y-229163834D01*
X182349383Y-229163834D01*
X182283201Y-229157316D01*
X182217016Y-229150797D01*
X182047177Y-229099277D01*
X182015951Y-229082586D01*
X181890654Y-229015613D01*
X181890652Y-229015612D01*
X181828283Y-228964427D01*
X181753457Y-228903020D01*
X181670195Y-228801563D01*
X181640865Y-228765825D01*
X181557200Y-228609300D01*
X181505680Y-228439461D01*
X181488284Y-228262834D01*
X181505680Y-228086207D01*
X181557200Y-227916368D01*
X181640865Y-227759843D01*
X181670195Y-227724105D01*
X181753457Y-227622648D01*
X181854914Y-227539386D01*
X181890652Y-227510056D01*
X182047177Y-227426391D01*
X182217016Y-227374871D01*
X182283201Y-227368352D01*
X182349383Y-227361834D01*
X182437903Y-227361834D01*
X182504085Y-227368352D01*
X182504085Y-227368352D01*
G37*
G36*
X130144581Y-225943723D02*
G01*
X130297178Y-226006930D01*
X130434512Y-226098694D01*
X130551306Y-226215488D01*
X130643070Y-226352822D01*
X130706277Y-226505419D01*
X130738500Y-226667414D01*
X130738500Y-226832586D01*
X130706277Y-226994581D01*
X130643070Y-227147178D01*
X130551306Y-227284512D01*
X130434512Y-227401306D01*
X130297178Y-227493070D01*
X130144581Y-227556277D01*
X129982586Y-227588500D01*
X129817414Y-227588500D01*
X129655419Y-227556277D01*
X129502822Y-227493070D01*
X129365488Y-227401306D01*
X129248694Y-227284512D01*
X129156930Y-227147178D01*
X129093723Y-226994581D01*
X129061500Y-226832586D01*
X129061500Y-226667414D01*
X129093723Y-226505419D01*
X129156930Y-226352822D01*
X129248694Y-226215488D01*
X129365488Y-226098694D01*
X129502822Y-226006930D01*
X129655419Y-225943723D01*
X129817414Y-225911500D01*
X129982586Y-225911500D01*
X130144581Y-225943723D01*
X130144581Y-225943723D01*
G37*
G36*
X136644581Y-225943723D02*
G01*
X136797178Y-226006930D01*
X136934512Y-226098694D01*
X137051306Y-226215488D01*
X137143070Y-226352822D01*
X137206277Y-226505419D01*
X137238500Y-226667414D01*
X137238500Y-226832586D01*
X137206277Y-226994581D01*
X137143070Y-227147178D01*
X137051306Y-227284512D01*
X136934512Y-227401306D01*
X136797178Y-227493070D01*
X136644581Y-227556277D01*
X136482586Y-227588500D01*
X136317414Y-227588500D01*
X136155419Y-227556277D01*
X136002822Y-227493070D01*
X135865488Y-227401306D01*
X135748694Y-227284512D01*
X135656930Y-227147178D01*
X135593723Y-226994581D01*
X135561500Y-226832586D01*
X135561500Y-226667414D01*
X135593723Y-226505419D01*
X135656930Y-226352822D01*
X135748694Y-226215488D01*
X135865488Y-226098694D01*
X136002822Y-226006930D01*
X136155419Y-225943723D01*
X136317414Y-225911500D01*
X136482586Y-225911500D01*
X136644581Y-225943723D01*
X136644581Y-225943723D01*
G37*
G36*
X119994581Y-225943723D02*
G01*
X120147178Y-226006930D01*
X120284512Y-226098694D01*
X120401306Y-226215488D01*
X120493070Y-226352822D01*
X120556277Y-226505419D01*
X120588500Y-226667414D01*
X120588500Y-226832586D01*
X120556277Y-226994581D01*
X120493070Y-227147178D01*
X120401306Y-227284512D01*
X120284512Y-227401306D01*
X120147178Y-227493070D01*
X119994581Y-227556277D01*
X119832586Y-227588500D01*
X119667414Y-227588500D01*
X119505419Y-227556277D01*
X119352822Y-227493070D01*
X119215488Y-227401306D01*
X119098694Y-227284512D01*
X119006930Y-227147178D01*
X118943723Y-226994581D01*
X118911500Y-226832586D01*
X118911500Y-226667414D01*
X118943723Y-226505419D01*
X119006930Y-226352822D01*
X119098694Y-226215488D01*
X119215488Y-226098694D01*
X119352822Y-226006930D01*
X119505419Y-225943723D01*
X119667414Y-225911500D01*
X119832586Y-225911500D01*
X119994581Y-225943723D01*
X119994581Y-225943723D01*
G37*
G36*
X126494581Y-225943723D02*
G01*
X126647178Y-226006930D01*
X126784512Y-226098694D01*
X126901306Y-226215488D01*
X126993070Y-226352822D01*
X127056277Y-226505419D01*
X127088500Y-226667414D01*
X127088500Y-226832586D01*
X127056277Y-226994581D01*
X126993070Y-227147178D01*
X126901306Y-227284512D01*
X126784512Y-227401306D01*
X126647178Y-227493070D01*
X126494581Y-227556277D01*
X126332586Y-227588500D01*
X126167414Y-227588500D01*
X126005419Y-227556277D01*
X125852822Y-227493070D01*
X125715488Y-227401306D01*
X125598694Y-227284512D01*
X125506930Y-227147178D01*
X125443723Y-226994581D01*
X125411500Y-226832586D01*
X125411500Y-226667414D01*
X125443723Y-226505419D01*
X125506930Y-226352822D01*
X125598694Y-226215488D01*
X125715488Y-226098694D01*
X125852822Y-226006930D01*
X126005419Y-225943723D01*
X126167414Y-225911500D01*
X126332586Y-225911500D01*
X126494581Y-225943723D01*
X126494581Y-225943723D01*
G37*
G36*
X112473337Y-225538420D02*
G01*
X112539521Y-225544938D01*
X112709360Y-225596458D01*
X112865885Y-225680123D01*
X112901623Y-225709453D01*
X113003080Y-225792715D01*
X113081140Y-225887833D01*
X113115672Y-225929910D01*
X113199337Y-226086435D01*
X113250857Y-226256274D01*
X113268253Y-226432901D01*
X113250857Y-226609528D01*
X113199337Y-226779367D01*
X113115672Y-226935892D01*
X113086342Y-226971630D01*
X113003080Y-227073087D01*
X112912797Y-227147179D01*
X112865885Y-227185679D01*
X112709360Y-227269344D01*
X112539521Y-227320864D01*
X112473337Y-227327382D01*
X112407154Y-227333901D01*
X112318634Y-227333901D01*
X112252451Y-227327382D01*
X112186267Y-227320864D01*
X112016428Y-227269344D01*
X111859903Y-227185679D01*
X111812991Y-227147179D01*
X111722708Y-227073087D01*
X111639446Y-226971630D01*
X111610116Y-226935892D01*
X111526451Y-226779367D01*
X111474931Y-226609528D01*
X111457535Y-226432901D01*
X111474931Y-226256274D01*
X111526451Y-226086435D01*
X111610116Y-225929910D01*
X111644648Y-225887833D01*
X111722708Y-225792715D01*
X111824165Y-225709453D01*
X111859903Y-225680123D01*
X112016428Y-225596458D01*
X112186267Y-225544938D01*
X112252451Y-225538420D01*
X112318634Y-225531901D01*
X112407154Y-225531901D01*
X112473337Y-225538420D01*
X112473337Y-225538420D01*
G37*
G36*
X192323490Y-225333996D02*
G01*
X192978707Y-226203498D01*
X192978707Y-226203499D01*
X192214503Y-226779367D01*
X191539566Y-227287969D01*
X191539565Y-227287969D01*
X190834881Y-226352821D01*
X190455095Y-225848828D01*
X190455095Y-225848827D01*
X191398743Y-225137738D01*
X191894236Y-224764357D01*
X191894237Y-224764357D01*
X192323490Y-225333996D01*
X192323490Y-225333996D01*
G37*
G36*
X180975475Y-225339817D02*
G01*
X181041660Y-225346336D01*
X181211499Y-225397856D01*
X181368024Y-225481521D01*
X181403762Y-225510851D01*
X181505219Y-225594113D01*
X181588481Y-225695570D01*
X181617811Y-225731308D01*
X181701476Y-225887833D01*
X181752996Y-226057672D01*
X181770392Y-226234299D01*
X181752996Y-226410926D01*
X181701476Y-226580765D01*
X181617811Y-226737290D01*
X181588481Y-226773028D01*
X181505219Y-226874485D01*
X181430393Y-226935892D01*
X181368024Y-226987077D01*
X181211499Y-227070742D01*
X181041660Y-227122262D01*
X180975475Y-227128781D01*
X180909293Y-227135299D01*
X180820773Y-227135299D01*
X180754591Y-227128781D01*
X180688406Y-227122262D01*
X180518567Y-227070742D01*
X180362042Y-226987077D01*
X180299673Y-226935892D01*
X180224847Y-226874485D01*
X180141585Y-226773028D01*
X180112255Y-226737290D01*
X180028590Y-226580765D01*
X179977070Y-226410926D01*
X179959674Y-226234299D01*
X179977070Y-226057672D01*
X180028590Y-225887833D01*
X180112255Y-225731308D01*
X180141585Y-225695570D01*
X180224847Y-225594113D01*
X180326304Y-225510851D01*
X180362042Y-225481521D01*
X180518567Y-225397856D01*
X180688406Y-225346336D01*
X180754591Y-225339817D01*
X180820773Y-225333299D01*
X180909293Y-225333299D01*
X180975475Y-225339817D01*
X180975475Y-225339817D01*
G37*
G36*
X101938762Y-225192568D02*
G01*
X102004947Y-225199087D01*
X102174786Y-225250607D01*
X102331311Y-225334272D01*
X102367049Y-225363602D01*
X102468506Y-225446864D01*
X102538293Y-225531901D01*
X102581098Y-225584059D01*
X102664763Y-225740584D01*
X102716283Y-225910423D01*
X102733679Y-226087050D01*
X102716283Y-226263677D01*
X102664763Y-226433516D01*
X102581098Y-226590041D01*
X102565107Y-226609526D01*
X102468506Y-226727236D01*
X102367049Y-226810498D01*
X102331311Y-226839828D01*
X102174786Y-226923493D01*
X102004947Y-226975013D01*
X101938763Y-226981531D01*
X101872580Y-226988050D01*
X101784060Y-226988050D01*
X101717877Y-226981531D01*
X101651693Y-226975013D01*
X101481854Y-226923493D01*
X101325329Y-226839828D01*
X101289591Y-226810498D01*
X101188134Y-226727236D01*
X101091533Y-226609526D01*
X101075542Y-226590041D01*
X100991877Y-226433516D01*
X100940357Y-226263677D01*
X100922961Y-226087050D01*
X100940357Y-225910423D01*
X100991877Y-225740584D01*
X101075542Y-225584059D01*
X101118347Y-225531901D01*
X101188134Y-225446864D01*
X101289591Y-225363602D01*
X101325329Y-225334272D01*
X101481854Y-225250607D01*
X101651693Y-225199087D01*
X101717878Y-225192568D01*
X101784060Y-225186050D01*
X101872580Y-225186050D01*
X101938762Y-225192568D01*
X101938762Y-225192568D01*
G37*
G36*
X99910228Y-223663959D02*
G01*
X99976412Y-223670477D01*
X100146251Y-223721997D01*
X100146253Y-223721998D01*
X100188865Y-223744775D01*
X100302776Y-223805662D01*
X100338514Y-223834992D01*
X100439971Y-223918254D01*
X100502594Y-223994562D01*
X100552563Y-224055449D01*
X100636228Y-224211974D01*
X100687748Y-224381813D01*
X100705144Y-224558440D01*
X100687748Y-224735067D01*
X100636228Y-224904906D01*
X100636227Y-224904908D01*
X100634917Y-224907358D01*
X100552563Y-225061431D01*
X100526057Y-225093728D01*
X100439971Y-225198626D01*
X100338514Y-225281888D01*
X100302776Y-225311218D01*
X100146251Y-225394883D01*
X99976412Y-225446403D01*
X99910227Y-225452922D01*
X99844045Y-225459440D01*
X99755525Y-225459440D01*
X99689343Y-225452922D01*
X99623158Y-225446403D01*
X99453319Y-225394883D01*
X99296794Y-225311218D01*
X99261056Y-225281888D01*
X99159599Y-225198626D01*
X99073513Y-225093728D01*
X99047007Y-225061431D01*
X98964653Y-224907358D01*
X98963343Y-224904908D01*
X98963342Y-224904906D01*
X98911822Y-224735067D01*
X98894426Y-224558440D01*
X98911822Y-224381813D01*
X98963342Y-224211974D01*
X99047007Y-224055449D01*
X99096976Y-223994562D01*
X99159599Y-223918254D01*
X99261056Y-223834992D01*
X99296794Y-223805662D01*
X99410705Y-223744775D01*
X99453317Y-223721998D01*
X99453319Y-223721997D01*
X99623158Y-223670477D01*
X99689342Y-223663959D01*
X99755525Y-223657440D01*
X99844045Y-223657440D01*
X99910228Y-223663959D01*
X99910228Y-223663959D01*
G37*
G36*
X193855877Y-223603071D02*
G01*
X193922062Y-223609590D01*
X194091901Y-223661110D01*
X194248426Y-223744775D01*
X194272072Y-223764181D01*
X194385621Y-223857367D01*
X194468883Y-223958824D01*
X194498213Y-223994562D01*
X194581878Y-224151087D01*
X194633398Y-224320926D01*
X194650794Y-224497553D01*
X194633398Y-224674180D01*
X194581878Y-224844019D01*
X194498213Y-225000544D01*
X194468883Y-225036282D01*
X194385621Y-225137739D01*
X194310867Y-225199087D01*
X194248426Y-225250331D01*
X194248424Y-225250332D01*
X194134514Y-225311219D01*
X194091901Y-225333996D01*
X193922062Y-225385516D01*
X193855878Y-225392034D01*
X193789695Y-225398553D01*
X193701175Y-225398553D01*
X193634992Y-225392034D01*
X193568808Y-225385516D01*
X193398969Y-225333996D01*
X193356357Y-225311219D01*
X193242446Y-225250332D01*
X193242444Y-225250331D01*
X193180003Y-225199087D01*
X193105249Y-225137739D01*
X193021987Y-225036282D01*
X192992657Y-225000544D01*
X192908992Y-224844019D01*
X192857472Y-224674180D01*
X192840076Y-224497553D01*
X192857472Y-224320926D01*
X192908992Y-224151087D01*
X192992657Y-223994562D01*
X193021987Y-223958824D01*
X193105249Y-223857367D01*
X193218798Y-223764181D01*
X193242444Y-223744775D01*
X193398969Y-223661110D01*
X193568808Y-223609590D01*
X193634993Y-223603071D01*
X193701175Y-223596553D01*
X193789695Y-223596553D01*
X193855877Y-223603071D01*
X193855877Y-223603071D01*
G37*
G36*
X114001946Y-223509885D02*
G01*
X114068131Y-223516404D01*
X114237970Y-223567924D01*
X114394495Y-223651589D01*
X114416947Y-223670015D01*
X114531690Y-223764181D01*
X114609750Y-223859299D01*
X114644282Y-223901376D01*
X114653304Y-223918255D01*
X114726638Y-224055451D01*
X114727947Y-224057901D01*
X114779467Y-224227740D01*
X114796863Y-224404367D01*
X114779467Y-224580994D01*
X114727947Y-224750833D01*
X114644282Y-224907358D01*
X114614952Y-224943096D01*
X114531690Y-225044553D01*
X114455883Y-225106765D01*
X114394495Y-225157145D01*
X114237970Y-225240810D01*
X114068131Y-225292330D01*
X114001947Y-225298848D01*
X113935764Y-225305367D01*
X113847244Y-225305367D01*
X113781061Y-225298848D01*
X113714877Y-225292330D01*
X113545038Y-225240810D01*
X113388513Y-225157145D01*
X113327125Y-225106765D01*
X113251318Y-225044553D01*
X113168056Y-224943096D01*
X113138726Y-224907358D01*
X113055061Y-224750833D01*
X113003541Y-224580994D01*
X112986145Y-224404367D01*
X113003541Y-224227740D01*
X113055061Y-224057901D01*
X113056371Y-224055451D01*
X113129704Y-223918255D01*
X113138726Y-223901376D01*
X113173258Y-223859299D01*
X113251318Y-223764181D01*
X113366061Y-223670015D01*
X113388513Y-223651589D01*
X113545038Y-223567924D01*
X113714877Y-223516404D01*
X113781062Y-223509885D01*
X113847244Y-223503367D01*
X113935764Y-223503367D01*
X114001946Y-223509885D01*
X114001946Y-223509885D01*
G37*
G36*
X179446865Y-223311283D02*
G01*
X179513050Y-223317802D01*
X179682889Y-223369322D01*
X179839414Y-223452987D01*
X179862498Y-223471932D01*
X179976609Y-223565579D01*
X180051996Y-223657440D01*
X180089201Y-223702774D01*
X180172866Y-223859299D01*
X180224386Y-224029138D01*
X180241782Y-224205765D01*
X180224386Y-224382392D01*
X180172866Y-224552231D01*
X180089201Y-224708756D01*
X180067608Y-224735067D01*
X179976609Y-224845951D01*
X179901783Y-224907358D01*
X179839414Y-224958543D01*
X179682889Y-225042208D01*
X179513050Y-225093728D01*
X179446865Y-225100247D01*
X179380683Y-225106765D01*
X179292163Y-225106765D01*
X179225981Y-225100247D01*
X179159796Y-225093728D01*
X178989957Y-225042208D01*
X178833432Y-224958543D01*
X178771063Y-224907358D01*
X178696237Y-224845951D01*
X178605238Y-224735067D01*
X178583645Y-224708756D01*
X178499980Y-224552231D01*
X178448460Y-224382392D01*
X178431064Y-224205765D01*
X178448460Y-224029138D01*
X178499980Y-223859299D01*
X178583645Y-223702774D01*
X178620850Y-223657440D01*
X178696237Y-223565579D01*
X178810348Y-223471932D01*
X178833432Y-223452987D01*
X178989957Y-223369322D01*
X179159796Y-223317802D01*
X179225981Y-223311283D01*
X179292163Y-223304765D01*
X179380683Y-223304765D01*
X179446865Y-223311283D01*
X179446865Y-223311283D01*
G37*
G36*
X97881693Y-222135348D02*
G01*
X97947878Y-222141867D01*
X98117717Y-222193387D01*
X98117719Y-222193388D01*
X98160331Y-222216165D01*
X98274242Y-222277052D01*
X98309980Y-222306382D01*
X98411437Y-222389644D01*
X98474060Y-222465952D01*
X98524029Y-222526839D01*
X98607694Y-222683364D01*
X98659214Y-222853203D01*
X98676610Y-223029830D01*
X98659214Y-223206457D01*
X98607694Y-223376296D01*
X98524029Y-223532821D01*
X98495220Y-223567925D01*
X98411437Y-223670016D01*
X98309980Y-223753278D01*
X98274242Y-223782608D01*
X98117717Y-223866273D01*
X97947878Y-223917793D01*
X97881693Y-223924312D01*
X97815511Y-223930830D01*
X97726991Y-223930830D01*
X97660809Y-223924312D01*
X97594624Y-223917793D01*
X97424785Y-223866273D01*
X97268260Y-223782608D01*
X97232522Y-223753278D01*
X97131065Y-223670016D01*
X97047282Y-223567925D01*
X97018473Y-223532821D01*
X96934808Y-223376296D01*
X96883288Y-223206457D01*
X96865892Y-223029830D01*
X96883288Y-222853203D01*
X96934808Y-222683364D01*
X97018473Y-222526839D01*
X97068442Y-222465952D01*
X97131065Y-222389644D01*
X97232522Y-222306382D01*
X97268260Y-222277052D01*
X97382171Y-222216165D01*
X97424783Y-222193388D01*
X97424785Y-222193387D01*
X97594624Y-222141867D01*
X97660809Y-222135348D01*
X97726991Y-222128830D01*
X97815511Y-222128830D01*
X97881693Y-222135348D01*
X97881693Y-222135348D01*
G37*
G36*
X195884412Y-222074462D02*
G01*
X195950596Y-222080980D01*
X196120435Y-222132500D01*
X196276960Y-222216165D01*
X196312698Y-222245495D01*
X196414155Y-222328757D01*
X196497417Y-222430214D01*
X196526747Y-222465952D01*
X196610412Y-222622477D01*
X196661932Y-222792316D01*
X196679328Y-222968943D01*
X196661932Y-223145570D01*
X196610412Y-223315409D01*
X196526747Y-223471934D01*
X196500950Y-223503367D01*
X196414155Y-223609129D01*
X196339401Y-223670477D01*
X196276960Y-223721721D01*
X196276958Y-223721722D01*
X196163048Y-223782609D01*
X196120435Y-223805386D01*
X195950596Y-223856906D01*
X195884412Y-223863424D01*
X195818229Y-223869943D01*
X195729709Y-223869943D01*
X195663526Y-223863424D01*
X195597342Y-223856906D01*
X195427503Y-223805386D01*
X195384891Y-223782609D01*
X195270980Y-223721722D01*
X195270978Y-223721721D01*
X195208537Y-223670477D01*
X195133783Y-223609129D01*
X195046988Y-223503367D01*
X195021191Y-223471934D01*
X194937526Y-223315409D01*
X194886006Y-223145570D01*
X194868610Y-222968943D01*
X194886006Y-222792316D01*
X194937526Y-222622477D01*
X195021191Y-222465952D01*
X195050521Y-222430214D01*
X195133783Y-222328757D01*
X195235240Y-222245495D01*
X195270978Y-222216165D01*
X195427503Y-222132500D01*
X195597342Y-222080980D01*
X195663526Y-222074462D01*
X195729709Y-222067943D01*
X195818229Y-222067943D01*
X195884412Y-222074462D01*
X195884412Y-222074462D01*
G37*
G36*
X115675801Y-221440333D02*
G01*
X116681920Y-222198497D01*
X116681920Y-222198498D01*
X116316547Y-222683364D01*
X115597450Y-223637639D01*
X115597449Y-223637639D01*
X114825956Y-223056277D01*
X114158308Y-222553169D01*
X114158308Y-222553168D01*
X114686057Y-221852822D01*
X115242778Y-221114027D01*
X115242779Y-221114027D01*
X115675801Y-221440333D01*
X115675801Y-221440333D01*
G37*
G36*
X178500029Y-221598695D02*
G01*
X179069619Y-222354566D01*
X179069619Y-222354567D01*
X178488703Y-222792318D01*
X177630478Y-223439037D01*
X177630477Y-223439037D01*
X176839704Y-222389645D01*
X176546007Y-221999896D01*
X176546007Y-221999895D01*
X177522964Y-221263706D01*
X177985148Y-220915425D01*
X177985149Y-220915425D01*
X178500029Y-221598695D01*
X178500029Y-221598695D01*
G37*
G36*
X119994581Y-221443723D02*
G01*
X120147178Y-221506930D01*
X120284512Y-221598694D01*
X120401306Y-221715488D01*
X120493070Y-221852822D01*
X120556277Y-222005419D01*
X120588500Y-222167414D01*
X120588500Y-222332586D01*
X120556277Y-222494581D01*
X120493070Y-222647178D01*
X120401306Y-222784512D01*
X120284512Y-222901306D01*
X120147178Y-222993070D01*
X119994581Y-223056277D01*
X119832586Y-223088500D01*
X119667414Y-223088500D01*
X119505419Y-223056277D01*
X119352822Y-222993070D01*
X119215488Y-222901306D01*
X119098694Y-222784512D01*
X119006930Y-222647178D01*
X118943723Y-222494581D01*
X118911500Y-222332586D01*
X118911500Y-222167414D01*
X118943723Y-222005419D01*
X119006930Y-221852822D01*
X119098694Y-221715488D01*
X119215488Y-221598694D01*
X119352822Y-221506930D01*
X119505419Y-221443723D01*
X119667414Y-221411500D01*
X119832586Y-221411500D01*
X119994581Y-221443723D01*
X119994581Y-221443723D01*
G37*
G36*
X126494581Y-221443723D02*
G01*
X126647178Y-221506930D01*
X126784512Y-221598694D01*
X126901306Y-221715488D01*
X126993070Y-221852822D01*
X127056277Y-222005419D01*
X127088500Y-222167414D01*
X127088500Y-222332586D01*
X127056277Y-222494581D01*
X126993070Y-222647178D01*
X126901306Y-222784512D01*
X126784512Y-222901306D01*
X126647178Y-222993070D01*
X126494581Y-223056277D01*
X126332586Y-223088500D01*
X126167414Y-223088500D01*
X126005419Y-223056277D01*
X125852822Y-222993070D01*
X125715488Y-222901306D01*
X125598694Y-222784512D01*
X125506930Y-222647178D01*
X125443723Y-222494581D01*
X125411500Y-222332586D01*
X125411500Y-222167414D01*
X125443723Y-222005419D01*
X125506930Y-221852822D01*
X125598694Y-221715488D01*
X125715488Y-221598694D01*
X125852822Y-221506930D01*
X126005419Y-221443723D01*
X126167414Y-221411500D01*
X126332586Y-221411500D01*
X126494581Y-221443723D01*
X126494581Y-221443723D01*
G37*
G36*
X136644581Y-221443723D02*
G01*
X136797178Y-221506930D01*
X136934512Y-221598694D01*
X137051306Y-221715488D01*
X137143070Y-221852822D01*
X137206277Y-222005419D01*
X137238500Y-222167414D01*
X137238500Y-222332586D01*
X137206277Y-222494581D01*
X137143070Y-222647178D01*
X137051306Y-222784512D01*
X136934512Y-222901306D01*
X136797178Y-222993070D01*
X136644581Y-223056277D01*
X136482586Y-223088500D01*
X136317414Y-223088500D01*
X136155419Y-223056277D01*
X136002822Y-222993070D01*
X135865488Y-222901306D01*
X135748694Y-222784512D01*
X135656930Y-222647178D01*
X135593723Y-222494581D01*
X135561500Y-222332586D01*
X135561500Y-222167414D01*
X135593723Y-222005419D01*
X135656930Y-221852822D01*
X135748694Y-221715488D01*
X135865488Y-221598694D01*
X136002822Y-221506930D01*
X136155419Y-221443723D01*
X136317414Y-221411500D01*
X136482586Y-221411500D01*
X136644581Y-221443723D01*
X136644581Y-221443723D01*
G37*
G36*
X130144581Y-221443723D02*
G01*
X130297178Y-221506930D01*
X130434512Y-221598694D01*
X130551306Y-221715488D01*
X130643070Y-221852822D01*
X130706277Y-222005419D01*
X130738500Y-222167414D01*
X130738500Y-222332586D01*
X130706277Y-222494581D01*
X130643070Y-222647178D01*
X130551306Y-222784512D01*
X130434512Y-222901306D01*
X130297178Y-222993070D01*
X130144581Y-223056277D01*
X129982586Y-223088500D01*
X129817414Y-223088500D01*
X129655419Y-223056277D01*
X129502822Y-222993070D01*
X129365488Y-222901306D01*
X129248694Y-222784512D01*
X129156930Y-222647178D01*
X129093723Y-222494581D01*
X129061500Y-222332586D01*
X129061500Y-222167414D01*
X129093723Y-222005419D01*
X129156930Y-221852822D01*
X129248694Y-221715488D01*
X129365488Y-221598694D01*
X129502822Y-221506930D01*
X129655419Y-221443723D01*
X129817414Y-221411500D01*
X129982586Y-221411500D01*
X130144581Y-221443723D01*
X130144581Y-221443723D01*
G37*
G36*
X95980688Y-220552370D02*
G01*
X97004523Y-221323884D01*
X97004523Y-221323885D01*
X96605941Y-221852821D01*
X95920053Y-222763026D01*
X95920052Y-222763026D01*
X95163751Y-222193112D01*
X94480911Y-221678556D01*
X94480911Y-221678555D01*
X95227684Y-220687554D01*
X95565381Y-220239414D01*
X95565382Y-220239414D01*
X95980688Y-220552370D01*
X95980688Y-220552370D01*
G37*
G36*
X197912947Y-220545852D02*
G01*
X197979131Y-220552370D01*
X198148970Y-220603890D01*
X198305495Y-220687555D01*
X198341233Y-220716885D01*
X198442690Y-220800147D01*
X198525952Y-220901604D01*
X198555282Y-220937342D01*
X198638947Y-221093867D01*
X198690467Y-221263706D01*
X198707863Y-221440333D01*
X198690467Y-221616960D01*
X198638947Y-221786799D01*
X198555282Y-221943324D01*
X198525952Y-221979062D01*
X198442690Y-222080519D01*
X198367936Y-222141867D01*
X198305495Y-222193111D01*
X198148970Y-222276776D01*
X197979131Y-222328296D01*
X197935583Y-222332585D01*
X197846764Y-222341333D01*
X197758244Y-222341333D01*
X197669425Y-222332585D01*
X197625877Y-222328296D01*
X197456038Y-222276776D01*
X197299513Y-222193111D01*
X197237072Y-222141867D01*
X197162318Y-222080519D01*
X197079056Y-221979062D01*
X197049726Y-221943324D01*
X196966061Y-221786799D01*
X196914541Y-221616960D01*
X196897145Y-221440333D01*
X196914541Y-221263706D01*
X196966061Y-221093867D01*
X197049726Y-220937342D01*
X197079056Y-220901604D01*
X197162318Y-220800147D01*
X197263775Y-220716885D01*
X197299513Y-220687555D01*
X197456038Y-220603890D01*
X197625877Y-220552370D01*
X197692061Y-220545852D01*
X197758244Y-220539333D01*
X197846764Y-220539333D01*
X197912947Y-220545852D01*
X197912947Y-220545852D01*
G37*
G36*
X88103061Y-214857030D02*
G01*
X88169245Y-214863548D01*
X88339084Y-214915068D01*
X88495609Y-214998733D01*
X88531347Y-215028063D01*
X88632804Y-215111325D01*
X88716066Y-215212782D01*
X88745396Y-215248520D01*
X88829061Y-215405045D01*
X88880581Y-215574884D01*
X88897977Y-215751511D01*
X88880581Y-215928138D01*
X88829061Y-216097977D01*
X88745396Y-216254502D01*
X88716066Y-216290240D01*
X88632804Y-216391697D01*
X88531347Y-216474959D01*
X88495609Y-216504289D01*
X88339084Y-216587954D01*
X88169245Y-216639474D01*
X88103060Y-216645993D01*
X88036878Y-216652511D01*
X87948358Y-216652511D01*
X87882176Y-216645993D01*
X87815991Y-216639474D01*
X87646152Y-216587954D01*
X87489627Y-216504289D01*
X87453889Y-216474959D01*
X87352432Y-216391697D01*
X87269170Y-216290240D01*
X87239840Y-216254502D01*
X87156175Y-216097977D01*
X87104655Y-215928138D01*
X87087259Y-215751511D01*
X87104655Y-215574884D01*
X87156175Y-215405045D01*
X87239840Y-215248520D01*
X87269170Y-215212782D01*
X87352432Y-215111325D01*
X87453889Y-215028063D01*
X87489627Y-214998733D01*
X87646152Y-214915068D01*
X87815991Y-214863548D01*
X87882175Y-214857030D01*
X87948358Y-214850511D01*
X88036878Y-214850511D01*
X88103061Y-214857030D01*
X88103061Y-214857030D01*
G37*
G36*
X205625583Y-214703424D02*
G01*
X205691768Y-214709943D01*
X205861607Y-214761463D01*
X206018132Y-214845128D01*
X206053870Y-214874458D01*
X206155327Y-214957720D01*
X206238589Y-215059177D01*
X206267919Y-215094915D01*
X206351584Y-215251440D01*
X206403104Y-215421279D01*
X206420500Y-215597906D01*
X206403104Y-215774533D01*
X206351584Y-215944372D01*
X206267919Y-216100897D01*
X206238589Y-216136635D01*
X206155327Y-216238092D01*
X206053870Y-216321354D01*
X206018132Y-216350684D01*
X205861607Y-216434349D01*
X205691768Y-216485869D01*
X205625583Y-216492388D01*
X205559401Y-216498906D01*
X205470881Y-216498906D01*
X205404699Y-216492388D01*
X205338514Y-216485869D01*
X205168675Y-216434349D01*
X205012150Y-216350684D01*
X204976412Y-216321354D01*
X204874955Y-216238092D01*
X204791693Y-216136635D01*
X204762363Y-216100897D01*
X204678698Y-215944372D01*
X204627178Y-215774533D01*
X204609782Y-215597906D01*
X204627178Y-215421279D01*
X204678698Y-215251440D01*
X204762363Y-215094915D01*
X204791693Y-215059177D01*
X204874955Y-214957720D01*
X204976412Y-214874458D01*
X205012150Y-214845128D01*
X205168675Y-214761463D01*
X205338514Y-214709943D01*
X205404699Y-214703424D01*
X205470881Y-214696906D01*
X205559401Y-214696906D01*
X205625583Y-214703424D01*
X205625583Y-214703424D01*
G37*
G36*
X86074525Y-213328419D02*
G01*
X86140710Y-213334938D01*
X86310549Y-213386458D01*
X86467074Y-213470123D01*
X86502812Y-213499453D01*
X86604269Y-213582715D01*
X86687531Y-213684172D01*
X86716861Y-213719910D01*
X86800526Y-213876435D01*
X86852046Y-214046274D01*
X86869442Y-214222901D01*
X86852046Y-214399528D01*
X86800526Y-214569367D01*
X86716861Y-214725892D01*
X86687668Y-214761463D01*
X86604269Y-214863087D01*
X86502812Y-214946349D01*
X86467074Y-214975679D01*
X86310549Y-215059344D01*
X86140710Y-215110864D01*
X86074525Y-215117383D01*
X86008343Y-215123901D01*
X85919823Y-215123901D01*
X85853641Y-215117383D01*
X85787456Y-215110864D01*
X85617617Y-215059344D01*
X85461092Y-214975679D01*
X85425354Y-214946349D01*
X85323897Y-214863087D01*
X85240498Y-214761463D01*
X85211305Y-214725892D01*
X85127640Y-214569367D01*
X85076120Y-214399528D01*
X85058724Y-214222901D01*
X85076120Y-214046274D01*
X85127640Y-213876435D01*
X85211305Y-213719910D01*
X85240635Y-213684172D01*
X85323897Y-213582715D01*
X85425354Y-213499453D01*
X85461092Y-213470123D01*
X85617617Y-213386458D01*
X85787456Y-213334938D01*
X85853641Y-213328419D01*
X85919823Y-213321901D01*
X86008343Y-213321901D01*
X86074525Y-213328419D01*
X86074525Y-213328419D01*
G37*
G36*
X207654118Y-213174814D02*
G01*
X207720303Y-213181333D01*
X207890142Y-213232853D01*
X208046667Y-213316518D01*
X208082405Y-213345848D01*
X208183862Y-213429110D01*
X208267124Y-213530567D01*
X208296454Y-213566305D01*
X208380119Y-213722830D01*
X208431639Y-213892669D01*
X208449035Y-214069296D01*
X208431639Y-214245923D01*
X208380119Y-214415762D01*
X208296454Y-214572287D01*
X208267124Y-214608025D01*
X208183862Y-214709482D01*
X208082405Y-214792744D01*
X208046667Y-214822074D01*
X207890142Y-214905739D01*
X207720303Y-214957259D01*
X207654119Y-214963777D01*
X207587936Y-214970296D01*
X207499416Y-214970296D01*
X207433233Y-214963777D01*
X207367049Y-214957259D01*
X207197210Y-214905739D01*
X207040685Y-214822074D01*
X207004947Y-214792744D01*
X206903490Y-214709482D01*
X206820228Y-214608025D01*
X206790898Y-214572287D01*
X206707233Y-214415762D01*
X206655713Y-214245923D01*
X206638317Y-214069296D01*
X206655713Y-213892669D01*
X206707233Y-213722830D01*
X206790898Y-213566305D01*
X206820228Y-213530567D01*
X206903490Y-213429110D01*
X207004947Y-213345848D01*
X207040685Y-213316518D01*
X207197210Y-213232853D01*
X207367049Y-213181333D01*
X207433234Y-213174814D01*
X207499416Y-213168296D01*
X207587936Y-213168296D01*
X207654118Y-213174814D01*
X207654118Y-213174814D01*
G37*
G36*
X84045991Y-211799809D02*
G01*
X84112176Y-211806328D01*
X84282015Y-211857848D01*
X84438540Y-211941513D01*
X84474278Y-211970843D01*
X84575735Y-212054105D01*
X84658997Y-212155562D01*
X84688327Y-212191300D01*
X84771992Y-212347825D01*
X84823512Y-212517664D01*
X84840908Y-212694291D01*
X84823512Y-212870918D01*
X84771992Y-213040757D01*
X84688327Y-213197282D01*
X84659134Y-213232853D01*
X84575735Y-213334477D01*
X84474278Y-213417739D01*
X84438540Y-213447069D01*
X84282015Y-213530734D01*
X84112176Y-213582254D01*
X84045992Y-213588772D01*
X83979809Y-213595291D01*
X83891289Y-213595291D01*
X83825106Y-213588772D01*
X83758922Y-213582254D01*
X83589083Y-213530734D01*
X83432558Y-213447069D01*
X83396820Y-213417739D01*
X83295363Y-213334477D01*
X83211964Y-213232853D01*
X83182771Y-213197282D01*
X83099106Y-213040757D01*
X83047586Y-212870918D01*
X83030190Y-212694291D01*
X83047586Y-212517664D01*
X83099106Y-212347825D01*
X83182771Y-212191300D01*
X83212101Y-212155562D01*
X83295363Y-212054105D01*
X83396820Y-211970843D01*
X83432558Y-211941513D01*
X83589083Y-211857848D01*
X83758922Y-211806328D01*
X83825107Y-211799809D01*
X83891289Y-211793291D01*
X83979809Y-211793291D01*
X84045991Y-211799809D01*
X84045991Y-211799809D01*
G37*
G36*
X209682652Y-211646204D02*
G01*
X209748837Y-211652723D01*
X209918676Y-211704243D01*
X210075201Y-211787908D01*
X210110939Y-211817238D01*
X210212396Y-211900500D01*
X210295658Y-212001957D01*
X210324988Y-212037695D01*
X210408653Y-212194220D01*
X210460173Y-212364059D01*
X210477569Y-212540686D01*
X210460173Y-212717313D01*
X210408653Y-212887152D01*
X210324988Y-213043677D01*
X210295658Y-213079415D01*
X210212396Y-213180872D01*
X210110939Y-213264134D01*
X210075201Y-213293464D01*
X209918676Y-213377129D01*
X209748837Y-213428649D01*
X209682653Y-213435167D01*
X209616470Y-213441686D01*
X209527950Y-213441686D01*
X209461767Y-213435167D01*
X209395583Y-213428649D01*
X209225744Y-213377129D01*
X209069219Y-213293464D01*
X209033481Y-213264134D01*
X208932024Y-213180872D01*
X208848762Y-213079415D01*
X208819432Y-213043677D01*
X208735767Y-212887152D01*
X208684247Y-212717313D01*
X208666851Y-212540686D01*
X208684247Y-212364059D01*
X208735767Y-212194220D01*
X208819432Y-212037695D01*
X208848762Y-212001957D01*
X208932024Y-211900500D01*
X209033481Y-211817238D01*
X209069219Y-211787908D01*
X209225744Y-211704243D01*
X209395583Y-211652723D01*
X209461768Y-211646204D01*
X209527950Y-211639686D01*
X209616470Y-211639686D01*
X209682652Y-211646204D01*
X209682652Y-211646204D01*
G37*
G36*
X82348121Y-210369904D02*
G01*
X83168821Y-210988345D01*
X83168821Y-210988346D01*
X82901558Y-211343016D01*
X82084351Y-212427487D01*
X82084350Y-212427487D01*
X81328414Y-211857848D01*
X80645209Y-211343017D01*
X80645209Y-211343016D01*
X81111238Y-210724575D01*
X81729679Y-209903875D01*
X81729680Y-209903875D01*
X82348121Y-210369904D01*
X82348121Y-210369904D01*
G37*
G36*
X212396521Y-210570970D02*
G01*
X212862550Y-211189411D01*
X212862550Y-211189412D01*
X212179345Y-211704243D01*
X211423409Y-212273882D01*
X211423408Y-212273882D01*
X210454688Y-210988346D01*
X210338938Y-210834741D01*
X210338938Y-210834740D01*
X211159638Y-210216299D01*
X211778079Y-209750270D01*
X211778080Y-209750270D01*
X212396521Y-210570970D01*
X212396521Y-210570970D01*
G37*
G36*
X216326249Y-191303317D02*
G01*
X216576887Y-191353172D01*
X216859151Y-191470089D01*
X217113182Y-191639827D01*
X217329218Y-191855863D01*
X217498956Y-192109894D01*
X217615873Y-192392158D01*
X217675477Y-192691808D01*
X217675477Y-192997328D01*
X217615873Y-193296978D01*
X217498956Y-193579242D01*
X217329218Y-193833273D01*
X217113182Y-194049309D01*
X216859151Y-194219047D01*
X216576887Y-194335964D01*
X216427062Y-194365766D01*
X216277238Y-194395568D01*
X215971716Y-194395568D01*
X215821892Y-194365766D01*
X215672067Y-194335964D01*
X215389803Y-194219047D01*
X215135772Y-194049309D01*
X214919736Y-193833273D01*
X214749998Y-193579242D01*
X214633081Y-193296978D01*
X214573477Y-192997328D01*
X214573477Y-192691808D01*
X214633081Y-192392158D01*
X214749998Y-192109894D01*
X214919736Y-191855863D01*
X215135772Y-191639827D01*
X215389803Y-191470089D01*
X215672067Y-191353172D01*
X215922705Y-191303317D01*
X215971716Y-191293568D01*
X216277238Y-191293568D01*
X216326249Y-191303317D01*
X216326249Y-191303317D01*
G37*
G36*
X210967008Y-191156598D02*
G01*
X211116833Y-191186400D01*
X211399097Y-191303317D01*
X211653128Y-191473055D01*
X211869164Y-191689091D01*
X212038902Y-191943122D01*
X212155819Y-192225386D01*
X212155819Y-192225387D01*
X212215423Y-192525035D01*
X212215423Y-192830557D01*
X212205104Y-192882432D01*
X212155819Y-193130206D01*
X212038902Y-193412470D01*
X211869164Y-193666501D01*
X211653128Y-193882537D01*
X211399097Y-194052275D01*
X211116833Y-194169192D01*
X210967008Y-194198994D01*
X210817184Y-194228796D01*
X210511662Y-194228796D01*
X210361838Y-194198994D01*
X210212013Y-194169192D01*
X209929749Y-194052275D01*
X209675718Y-193882537D01*
X209459682Y-193666501D01*
X209289944Y-193412470D01*
X209173027Y-193130206D01*
X209123742Y-192882432D01*
X209113423Y-192830557D01*
X209113423Y-192525035D01*
X209173027Y-192225387D01*
X209173027Y-192225386D01*
X209289944Y-191943122D01*
X209459682Y-191689091D01*
X209675718Y-191473055D01*
X209929749Y-191303317D01*
X210212013Y-191186400D01*
X210361838Y-191156598D01*
X210511662Y-191126796D01*
X210817184Y-191126796D01*
X210967008Y-191156598D01*
X210967008Y-191156598D01*
G37*
G36*
X195989191Y-190352476D02*
G01*
X196239829Y-190402331D01*
X196522093Y-190519248D01*
X196776124Y-190688986D01*
X196992160Y-190905022D01*
X197161898Y-191159053D01*
X197250185Y-191372198D01*
X197278815Y-191441318D01*
X197328101Y-191689092D01*
X197338419Y-191740967D01*
X197338419Y-192046487D01*
X197278815Y-192346137D01*
X197161898Y-192628401D01*
X196992160Y-192882432D01*
X196776124Y-193098468D01*
X196522093Y-193268206D01*
X196239829Y-193385123D01*
X196102356Y-193412468D01*
X195940180Y-193444727D01*
X195634658Y-193444727D01*
X195472482Y-193412468D01*
X195335009Y-193385123D01*
X195052745Y-193268206D01*
X194798714Y-193098468D01*
X194582678Y-192882432D01*
X194412940Y-192628401D01*
X194296023Y-192346137D01*
X194236419Y-192046487D01*
X194236419Y-191740967D01*
X194246738Y-191689092D01*
X194296023Y-191441318D01*
X194324653Y-191372198D01*
X194412940Y-191159053D01*
X194582678Y-190905022D01*
X194798714Y-190688986D01*
X195052745Y-190519248D01*
X195335009Y-190402331D01*
X195585647Y-190352476D01*
X195634658Y-190342727D01*
X195940180Y-190342727D01*
X195989191Y-190352476D01*
X195989191Y-190352476D01*
G37*
G36*
X190629950Y-190205757D02*
G01*
X190779775Y-190235559D01*
X191062039Y-190352476D01*
X191316070Y-190522214D01*
X191532106Y-190738250D01*
X191701844Y-190992281D01*
X191818761Y-191274545D01*
X191878365Y-191574195D01*
X191878365Y-191879715D01*
X191818761Y-192179365D01*
X191701844Y-192461629D01*
X191532106Y-192715660D01*
X191316070Y-192931696D01*
X191062039Y-193101434D01*
X190779775Y-193218351D01*
X190629950Y-193248153D01*
X190480126Y-193277955D01*
X190174604Y-193277955D01*
X190024780Y-193248153D01*
X189874955Y-193218351D01*
X189592691Y-193101434D01*
X189338660Y-192931696D01*
X189122624Y-192715660D01*
X188952886Y-192461629D01*
X188835969Y-192179365D01*
X188776365Y-191879715D01*
X188776365Y-191574195D01*
X188835969Y-191274545D01*
X188952886Y-190992281D01*
X189122624Y-190738250D01*
X189338660Y-190522214D01*
X189592691Y-190352476D01*
X189874955Y-190235559D01*
X190024780Y-190205757D01*
X190174604Y-190175955D01*
X190480126Y-190175955D01*
X190629950Y-190205757D01*
X190629950Y-190205757D01*
G37*
G36*
X235434943Y-189025476D02*
G01*
X235602821Y-189058869D01*
X235885085Y-189175786D01*
X236139116Y-189345524D01*
X236355152Y-189561560D01*
X236524890Y-189815591D01*
X236641807Y-190097855D01*
X236641807Y-190097856D01*
X236691613Y-190348244D01*
X236701411Y-190397505D01*
X236701411Y-190703025D01*
X236641807Y-191002675D01*
X236524890Y-191284939D01*
X236355152Y-191538970D01*
X236139116Y-191755006D01*
X235885085Y-191924744D01*
X235602821Y-192041661D01*
X235452996Y-192071463D01*
X235303172Y-192101265D01*
X234997650Y-192101265D01*
X234847826Y-192071463D01*
X234698001Y-192041661D01*
X234415737Y-191924744D01*
X234161706Y-191755006D01*
X233945670Y-191538970D01*
X233775932Y-191284939D01*
X233659015Y-191002675D01*
X233599411Y-190703025D01*
X233599411Y-190397505D01*
X233609210Y-190348244D01*
X233659015Y-190097856D01*
X233659015Y-190097855D01*
X233775932Y-189815591D01*
X233945670Y-189561560D01*
X234161706Y-189345524D01*
X234415737Y-189175786D01*
X234698001Y-189058869D01*
X234865879Y-189025476D01*
X234997650Y-188999265D01*
X235303172Y-188999265D01*
X235434943Y-189025476D01*
X235434943Y-189025476D01*
G37*
G36*
X229992942Y-188862295D02*
G01*
X230142767Y-188892097D01*
X230425031Y-189009014D01*
X230679062Y-189178752D01*
X230895098Y-189394788D01*
X231064836Y-189648819D01*
X231181753Y-189931083D01*
X231241357Y-190230733D01*
X231241357Y-190536253D01*
X231181753Y-190835903D01*
X231064836Y-191118167D01*
X230895098Y-191372198D01*
X230679062Y-191588234D01*
X230425031Y-191757972D01*
X230142767Y-191874889D01*
X229992942Y-191904691D01*
X229843118Y-191934493D01*
X229537596Y-191934493D01*
X229387772Y-191904691D01*
X229237947Y-191874889D01*
X228955683Y-191757972D01*
X228701652Y-191588234D01*
X228485616Y-191372198D01*
X228315878Y-191118167D01*
X228198961Y-190835903D01*
X228139357Y-190536253D01*
X228139357Y-190230733D01*
X228198961Y-189931083D01*
X228315878Y-189648819D01*
X228485616Y-189394788D01*
X228701652Y-189178752D01*
X228955683Y-189009014D01*
X229237947Y-188892097D01*
X229387772Y-188862295D01*
X229537596Y-188832493D01*
X229843118Y-188832493D01*
X229992942Y-188862295D01*
X229992942Y-188862295D01*
G37*
G36*
X124396176Y-189374845D02*
G01*
X124483299Y-189392174D01*
X124592722Y-189437499D01*
X124647435Y-189460162D01*
X124760089Y-189535435D01*
X124795152Y-189558863D01*
X124920776Y-189684487D01*
X124920778Y-189684490D01*
X125019477Y-189832204D01*
X125036502Y-189873306D01*
X125087465Y-189996340D01*
X125087465Y-189996342D01*
X125122124Y-190170584D01*
X125122124Y-190348246D01*
X125112326Y-190397504D01*
X125087465Y-190522490D01*
X125042140Y-190631913D01*
X125019477Y-190686626D01*
X124984983Y-190738250D01*
X124920776Y-190834343D01*
X124795152Y-190959967D01*
X124795149Y-190959969D01*
X124647435Y-191058668D01*
X124592722Y-191081331D01*
X124483299Y-191126656D01*
X124396176Y-191143985D01*
X124309055Y-191161315D01*
X124131393Y-191161315D01*
X124044272Y-191143985D01*
X123957149Y-191126656D01*
X123847726Y-191081331D01*
X123793013Y-191058668D01*
X123645299Y-190959969D01*
X123645296Y-190959967D01*
X123519672Y-190834343D01*
X123455465Y-190738250D01*
X123420971Y-190686626D01*
X123398308Y-190631913D01*
X123352983Y-190522490D01*
X123328122Y-190397504D01*
X123318324Y-190348246D01*
X123318324Y-190170584D01*
X123352983Y-189996342D01*
X123352983Y-189996340D01*
X123403946Y-189873306D01*
X123420971Y-189832204D01*
X123519670Y-189684490D01*
X123519672Y-189684487D01*
X123645296Y-189558863D01*
X123680359Y-189535435D01*
X123793013Y-189460162D01*
X123847726Y-189437499D01*
X123957149Y-189392174D01*
X124044272Y-189374844D01*
X124131393Y-189357515D01*
X124309055Y-189357515D01*
X124396176Y-189374845D01*
X124396176Y-189374845D01*
G37*
G36*
X169378596Y-189345524D02*
G01*
X169495353Y-189368748D01*
X169604776Y-189414073D01*
X169659489Y-189436736D01*
X169806211Y-189534772D01*
X169807206Y-189535437D01*
X169932830Y-189661061D01*
X169932832Y-189661064D01*
X170031531Y-189808778D01*
X170041234Y-189832204D01*
X170099519Y-189972914D01*
X170104179Y-189996342D01*
X170134178Y-190147158D01*
X170134178Y-190324820D01*
X170129518Y-190348246D01*
X170099519Y-190499064D01*
X170084114Y-190536254D01*
X170031531Y-190663200D01*
X169933495Y-190809922D01*
X169932830Y-190810917D01*
X169807206Y-190936541D01*
X169807203Y-190936543D01*
X169659489Y-191035242D01*
X169604776Y-191057905D01*
X169495353Y-191103230D01*
X169420268Y-191118165D01*
X169321109Y-191137889D01*
X169143447Y-191137889D01*
X169044288Y-191118165D01*
X168969203Y-191103230D01*
X168859780Y-191057905D01*
X168805067Y-191035242D01*
X168657353Y-190936543D01*
X168657350Y-190936541D01*
X168531726Y-190810917D01*
X168531061Y-190809922D01*
X168433025Y-190663200D01*
X168380442Y-190536254D01*
X168365037Y-190499064D01*
X168335038Y-190348246D01*
X168330378Y-190324820D01*
X168330378Y-190147158D01*
X168360377Y-189996342D01*
X168365037Y-189972914D01*
X168423322Y-189832204D01*
X168433025Y-189808778D01*
X168531724Y-189661064D01*
X168531726Y-189661061D01*
X168657350Y-189535437D01*
X168658345Y-189534772D01*
X168805067Y-189436736D01*
X168859780Y-189414073D01*
X168969203Y-189368748D01*
X169085960Y-189345524D01*
X169143447Y-189334089D01*
X169321109Y-189334089D01*
X169378596Y-189345524D01*
X169378596Y-189345524D01*
G37*
G36*
X49651145Y-188673935D02*
G01*
X49717330Y-188680454D01*
X49887169Y-188731974D01*
X50043694Y-188815639D01*
X50069309Y-188836661D01*
X50180889Y-188928231D01*
X50264151Y-189029688D01*
X50293481Y-189065426D01*
X50293482Y-189065428D01*
X50354056Y-189178752D01*
X50377146Y-189221951D01*
X50428666Y-189391790D01*
X50446062Y-189568417D01*
X50428666Y-189745044D01*
X50377146Y-189914883D01*
X50293481Y-190071408D01*
X50264151Y-190107146D01*
X50180889Y-190208603D01*
X50081632Y-190290060D01*
X50043694Y-190321195D01*
X49985172Y-190352476D01*
X49891901Y-190402331D01*
X49887169Y-190404860D01*
X49717330Y-190456380D01*
X49651145Y-190462899D01*
X49584963Y-190469417D01*
X49496443Y-190469417D01*
X49430261Y-190462899D01*
X49364076Y-190456380D01*
X49194237Y-190404860D01*
X49189506Y-190402331D01*
X49096234Y-190352476D01*
X49037712Y-190321195D01*
X48999774Y-190290060D01*
X48900517Y-190208603D01*
X48817255Y-190107146D01*
X48787925Y-190071408D01*
X48704260Y-189914883D01*
X48652740Y-189745044D01*
X48635344Y-189568417D01*
X48652740Y-189391790D01*
X48704260Y-189221951D01*
X48727351Y-189178752D01*
X48787924Y-189065428D01*
X48787925Y-189065426D01*
X48817255Y-189029688D01*
X48900517Y-188928231D01*
X49012097Y-188836661D01*
X49037712Y-188815639D01*
X49194237Y-188731974D01*
X49364076Y-188680454D01*
X49430261Y-188673935D01*
X49496443Y-188667417D01*
X49584963Y-188667417D01*
X49651145Y-188673935D01*
X49651145Y-188673935D01*
G37*
G36*
X84828036Y-188526148D02*
G01*
X84919520Y-188544345D01*
X85028943Y-188589670D01*
X85083656Y-188612333D01*
X85200836Y-188690630D01*
X85231373Y-188711034D01*
X85356997Y-188836658D01*
X85356999Y-188836661D01*
X85455698Y-188984375D01*
X85472723Y-189025477D01*
X85523686Y-189148511D01*
X85529111Y-189175786D01*
X85554726Y-189304560D01*
X85558345Y-189322757D01*
X85558345Y-189500415D01*
X85523686Y-189674661D01*
X85494532Y-189745044D01*
X85455698Y-189838797D01*
X85394034Y-189931084D01*
X85356997Y-189986514D01*
X85231373Y-190112138D01*
X85231370Y-190112140D01*
X85083656Y-190210839D01*
X85028943Y-190233502D01*
X84919520Y-190278827D01*
X84832397Y-190296157D01*
X84745276Y-190313486D01*
X84567614Y-190313486D01*
X84480493Y-190296157D01*
X84393370Y-190278827D01*
X84283947Y-190233502D01*
X84229234Y-190210839D01*
X84081520Y-190112140D01*
X84081517Y-190112138D01*
X83955893Y-189986514D01*
X83918856Y-189931084D01*
X83857192Y-189838797D01*
X83818358Y-189745044D01*
X83789204Y-189674661D01*
X83754545Y-189500415D01*
X83754545Y-189322757D01*
X83758165Y-189304560D01*
X83783779Y-189175786D01*
X83789204Y-189148511D01*
X83840167Y-189025477D01*
X83857192Y-188984375D01*
X83955891Y-188836661D01*
X83955893Y-188836658D01*
X84081517Y-188711034D01*
X84112054Y-188690630D01*
X84229234Y-188612333D01*
X84283947Y-188589670D01*
X84393370Y-188544345D01*
X84484854Y-188526148D01*
X84567614Y-188509686D01*
X84745276Y-188509686D01*
X84828036Y-188526148D01*
X84828036Y-188526148D01*
G37*
G36*
X208972009Y-188503590D02*
G01*
X209059132Y-188520919D01*
X209168555Y-188566244D01*
X209223268Y-188588907D01*
X209340767Y-188667417D01*
X209370985Y-188687608D01*
X209496609Y-188813232D01*
X209496611Y-188813235D01*
X209595310Y-188960949D01*
X209595310Y-188960950D01*
X209663298Y-189125085D01*
X209667958Y-189148513D01*
X209697957Y-189299329D01*
X209697957Y-189476991D01*
X209693297Y-189500417D01*
X209663298Y-189651235D01*
X209653595Y-189674659D01*
X209595310Y-189815371D01*
X209528818Y-189914883D01*
X209496609Y-189963088D01*
X209370985Y-190088712D01*
X209370982Y-190088714D01*
X209223268Y-190187413D01*
X209172113Y-190208602D01*
X209059132Y-190255401D01*
X208972009Y-190272730D01*
X208884888Y-190290060D01*
X208707226Y-190290060D01*
X208620105Y-190272731D01*
X208532982Y-190255401D01*
X208420001Y-190208602D01*
X208368846Y-190187413D01*
X208221132Y-190088714D01*
X208221129Y-190088712D01*
X208095505Y-189963088D01*
X208063296Y-189914883D01*
X207996804Y-189815371D01*
X207938519Y-189674659D01*
X207928816Y-189651235D01*
X207898817Y-189500417D01*
X207894157Y-189476991D01*
X207894157Y-189299329D01*
X207924156Y-189148513D01*
X207928816Y-189125085D01*
X207996804Y-188960950D01*
X207996804Y-188960949D01*
X208095503Y-188813235D01*
X208095505Y-188813232D01*
X208221129Y-188687608D01*
X208251347Y-188667417D01*
X208368846Y-188588907D01*
X208423559Y-188566244D01*
X208532982Y-188520919D01*
X208620105Y-188503589D01*
X208707226Y-188486260D01*
X208884888Y-188486260D01*
X208972009Y-188503590D01*
X208972009Y-188503590D01*
G37*
G36*
X244493326Y-188481750D02*
G01*
X244559510Y-188488268D01*
X244729349Y-188539788D01*
X244729351Y-188539789D01*
X244747657Y-188549574D01*
X244885874Y-188623453D01*
X244921612Y-188652783D01*
X245023069Y-188736045D01*
X245086416Y-188813235D01*
X245135661Y-188873240D01*
X245165055Y-188928231D01*
X245217034Y-189025476D01*
X245219326Y-189029765D01*
X245270846Y-189199604D01*
X245288242Y-189376231D01*
X245270846Y-189552858D01*
X245219326Y-189722697D01*
X245135661Y-189879222D01*
X245106395Y-189914883D01*
X245023069Y-190016417D01*
X244923835Y-190097855D01*
X244885874Y-190129009D01*
X244729349Y-190212674D01*
X244559510Y-190264194D01*
X244493325Y-190270713D01*
X244427143Y-190277231D01*
X244338623Y-190277231D01*
X244272441Y-190270713D01*
X244206256Y-190264194D01*
X244036417Y-190212674D01*
X243879892Y-190129009D01*
X243841931Y-190097855D01*
X243742697Y-190016417D01*
X243659371Y-189914883D01*
X243630105Y-189879222D01*
X243546440Y-189722697D01*
X243494920Y-189552858D01*
X243477524Y-189376231D01*
X243494920Y-189199604D01*
X243546440Y-189029765D01*
X243548733Y-189025476D01*
X243600711Y-188928231D01*
X243630105Y-188873240D01*
X243679350Y-188813235D01*
X243742697Y-188736045D01*
X243844154Y-188652783D01*
X243879892Y-188623453D01*
X244018109Y-188549574D01*
X244036415Y-188539789D01*
X244036417Y-188539788D01*
X244206256Y-188488268D01*
X244272440Y-188481750D01*
X244338623Y-188475231D01*
X244427143Y-188475231D01*
X244493326Y-188481750D01*
X244493326Y-188481750D01*
G37*
G36*
X119635689Y-186501426D02*
G01*
X119925604Y-186621513D01*
X119956991Y-186634514D01*
X120246153Y-186827726D01*
X120492066Y-187073639D01*
X120669627Y-187339377D01*
X120685279Y-187362803D01*
X120818366Y-187684103D01*
X120886213Y-188025191D01*
X120886213Y-188372967D01*
X120818366Y-188714055D01*
X120687595Y-189029763D01*
X120685278Y-189035357D01*
X120492066Y-189324519D01*
X120246153Y-189570432D01*
X119956991Y-189763644D01*
X119956990Y-189763645D01*
X119956989Y-189763645D01*
X119635689Y-189896732D01*
X119294601Y-189964579D01*
X118946825Y-189964579D01*
X118605737Y-189896732D01*
X118284437Y-189763645D01*
X118284436Y-189763645D01*
X118284435Y-189763644D01*
X117995273Y-189570432D01*
X117749360Y-189324519D01*
X117556148Y-189035357D01*
X117553831Y-189029763D01*
X117423060Y-188714055D01*
X117355213Y-188372967D01*
X117355213Y-188025191D01*
X117423060Y-187684103D01*
X117556147Y-187362803D01*
X117571800Y-187339377D01*
X117749360Y-187073639D01*
X117995273Y-186827726D01*
X118284435Y-186634514D01*
X118315822Y-186621513D01*
X118605737Y-186501426D01*
X118946825Y-186433579D01*
X119294601Y-186433579D01*
X119635689Y-186501426D01*
X119635689Y-186501426D01*
G37*
G36*
X174846765Y-186478000D02*
G01*
X175136680Y-186598087D01*
X175168067Y-186611088D01*
X175457229Y-186804300D01*
X175703142Y-187050213D01*
X175889988Y-187329847D01*
X175896355Y-187339377D01*
X176029442Y-187660677D01*
X176097289Y-188001765D01*
X176097289Y-188349541D01*
X176029442Y-188690629D01*
X175897562Y-189009014D01*
X175896354Y-189011931D01*
X175703142Y-189301093D01*
X175457229Y-189547006D01*
X175168067Y-189740218D01*
X175168066Y-189740219D01*
X175168065Y-189740219D01*
X174846765Y-189873306D01*
X174505677Y-189941153D01*
X174157901Y-189941153D01*
X173816813Y-189873306D01*
X173495513Y-189740219D01*
X173495512Y-189740219D01*
X173495511Y-189740218D01*
X173206349Y-189547006D01*
X172960436Y-189301093D01*
X172767224Y-189011931D01*
X172766016Y-189009014D01*
X172634136Y-188690629D01*
X172566289Y-188349541D01*
X172566289Y-188001765D01*
X172634136Y-187660677D01*
X172767223Y-187339377D01*
X172773591Y-187329847D01*
X172960436Y-187050213D01*
X173206349Y-186804300D01*
X173495511Y-186611088D01*
X173526898Y-186598087D01*
X173816813Y-186478000D01*
X174157901Y-186410153D01*
X174505677Y-186410153D01*
X174846765Y-186478000D01*
X174846765Y-186478000D01*
G37*
G36*
X105169455Y-187576174D02*
G01*
X105256578Y-187593504D01*
X105366001Y-187638829D01*
X105420714Y-187661492D01*
X105533368Y-187736765D01*
X105568431Y-187760193D01*
X105694055Y-187885817D01*
X105694057Y-187885820D01*
X105792756Y-188033534D01*
X105809781Y-188074636D01*
X105860744Y-188197670D01*
X105860744Y-188197672D01*
X105895403Y-188371914D01*
X105895403Y-188549576D01*
X105882920Y-188612333D01*
X105860744Y-188723820D01*
X105822711Y-188815638D01*
X105792756Y-188887956D01*
X105743983Y-188960950D01*
X105694055Y-189035673D01*
X105568431Y-189161297D01*
X105568428Y-189161299D01*
X105420714Y-189259998D01*
X105366001Y-189282661D01*
X105256578Y-189327986D01*
X105169455Y-189345315D01*
X105082334Y-189362645D01*
X104904672Y-189362645D01*
X104817551Y-189345315D01*
X104730428Y-189327986D01*
X104621005Y-189282661D01*
X104566292Y-189259998D01*
X104418578Y-189161299D01*
X104418575Y-189161297D01*
X104292951Y-189035673D01*
X104243023Y-188960950D01*
X104194250Y-188887956D01*
X104164295Y-188815638D01*
X104126262Y-188723820D01*
X104104086Y-188612333D01*
X104091603Y-188549576D01*
X104091603Y-188371914D01*
X104126262Y-188197672D01*
X104126262Y-188197670D01*
X104177225Y-188074636D01*
X104194250Y-188033534D01*
X104292949Y-187885820D01*
X104292951Y-187885817D01*
X104418575Y-187760193D01*
X104453638Y-187736765D01*
X104566292Y-187661492D01*
X104621005Y-187638829D01*
X104730428Y-187593504D01*
X104817551Y-187576174D01*
X104904672Y-187558845D01*
X105082334Y-187558845D01*
X105169455Y-187576174D01*
X105169455Y-187576174D01*
G37*
G36*
X188634951Y-187552749D02*
G01*
X188722074Y-187570078D01*
X188778628Y-187593504D01*
X188886210Y-187638066D01*
X188967244Y-187692211D01*
X189033927Y-187736767D01*
X189159551Y-187862391D01*
X189159553Y-187862394D01*
X189258252Y-188010108D01*
X189264500Y-188025192D01*
X189326240Y-188174244D01*
X189330900Y-188197672D01*
X189360899Y-188348488D01*
X189360899Y-188526150D01*
X189356239Y-188549576D01*
X189326240Y-188700394D01*
X189311472Y-188736046D01*
X189258252Y-188864530D01*
X189193827Y-188960949D01*
X189159551Y-189012247D01*
X189033927Y-189137871D01*
X189033924Y-189137873D01*
X188886210Y-189236572D01*
X188831497Y-189259235D01*
X188722074Y-189304560D01*
X188634951Y-189321889D01*
X188547830Y-189339219D01*
X188370168Y-189339219D01*
X188283047Y-189321889D01*
X188195924Y-189304560D01*
X188086501Y-189259235D01*
X188031788Y-189236572D01*
X187884074Y-189137873D01*
X187884071Y-189137871D01*
X187758447Y-189012247D01*
X187724171Y-188960949D01*
X187659746Y-188864530D01*
X187606526Y-188736046D01*
X187591758Y-188700394D01*
X187561759Y-188549576D01*
X187557099Y-188526150D01*
X187557099Y-188348488D01*
X187587098Y-188197672D01*
X187591758Y-188174244D01*
X187653498Y-188025192D01*
X187659746Y-188010108D01*
X187758445Y-187862394D01*
X187758447Y-187862391D01*
X187884071Y-187736767D01*
X187950754Y-187692211D01*
X188031788Y-187638066D01*
X188139370Y-187593504D01*
X188195924Y-187570078D01*
X188283047Y-187552748D01*
X188370168Y-187535419D01*
X188547830Y-187535419D01*
X188634951Y-187552749D01*
X188634951Y-187552749D01*
G37*
G36*
X80071910Y-185653597D02*
G01*
X80393210Y-185786684D01*
X80393212Y-185786685D01*
X80682374Y-185979897D01*
X80928287Y-186225810D01*
X81112449Y-186501427D01*
X81121500Y-186514974D01*
X81254587Y-186836274D01*
X81322434Y-187177362D01*
X81322434Y-187525138D01*
X81254587Y-187866226D01*
X81127001Y-188174246D01*
X81121499Y-188187528D01*
X80928287Y-188476690D01*
X80682374Y-188722603D01*
X80393212Y-188915815D01*
X80393211Y-188915816D01*
X80393210Y-188915816D01*
X80071910Y-189048903D01*
X79730822Y-189116750D01*
X79383046Y-189116750D01*
X79041958Y-189048903D01*
X78720658Y-188915816D01*
X78720657Y-188915816D01*
X78720656Y-188915815D01*
X78431494Y-188722603D01*
X78185581Y-188476690D01*
X77992369Y-188187528D01*
X77986867Y-188174246D01*
X77859281Y-187866226D01*
X77791434Y-187525138D01*
X77791434Y-187177362D01*
X77859281Y-186836274D01*
X77992368Y-186514974D01*
X78001420Y-186501427D01*
X78185581Y-186225810D01*
X78431494Y-185979897D01*
X78720656Y-185786685D01*
X78720658Y-185786684D01*
X79041958Y-185653597D01*
X79383046Y-185585750D01*
X79730822Y-185585750D01*
X80071910Y-185653597D01*
X80071910Y-185653597D01*
G37*
G36*
X214410544Y-185630171D02*
G01*
X214722344Y-185759323D01*
X214731846Y-185763259D01*
X215021008Y-185956471D01*
X215266921Y-186202384D01*
X215453767Y-186482018D01*
X215460134Y-186491548D01*
X215593221Y-186812848D01*
X215661068Y-187153936D01*
X215661068Y-187501712D01*
X215593221Y-187842800D01*
X215460134Y-188164100D01*
X215460133Y-188164102D01*
X215266921Y-188453264D01*
X215021008Y-188699177D01*
X214731846Y-188892389D01*
X214731845Y-188892390D01*
X214731844Y-188892390D01*
X214410544Y-189025477D01*
X214069456Y-189093324D01*
X213721680Y-189093324D01*
X213380592Y-189025477D01*
X213059292Y-188892390D01*
X213059291Y-188892390D01*
X213059290Y-188892389D01*
X212770128Y-188699177D01*
X212524215Y-188453264D01*
X212331003Y-188164102D01*
X212331002Y-188164100D01*
X212197915Y-187842800D01*
X212130068Y-187501712D01*
X212130068Y-187153936D01*
X212197915Y-186812848D01*
X212331002Y-186491548D01*
X212337370Y-186482018D01*
X212524215Y-186202384D01*
X212770128Y-185956471D01*
X213059290Y-185763259D01*
X213068792Y-185759323D01*
X213380592Y-185630171D01*
X213721680Y-185562324D01*
X214069456Y-185562324D01*
X214410544Y-185630171D01*
X214410544Y-185630171D01*
G37*
G36*
X100408968Y-184702756D02*
G01*
X100730268Y-184835843D01*
X100730270Y-184835844D01*
X101019432Y-185029056D01*
X101265345Y-185274969D01*
X101457350Y-185562324D01*
X101458558Y-185564133D01*
X101591645Y-185885433D01*
X101659492Y-186226521D01*
X101659492Y-186574297D01*
X101591645Y-186915385D01*
X101468215Y-187213370D01*
X101458557Y-187236687D01*
X101265345Y-187525849D01*
X101019432Y-187771762D01*
X100730270Y-187964974D01*
X100730269Y-187964975D01*
X100730268Y-187964975D01*
X100408968Y-188098062D01*
X100067880Y-188165909D01*
X99720104Y-188165909D01*
X99379016Y-188098062D01*
X99057716Y-187964975D01*
X99057715Y-187964975D01*
X99057714Y-187964974D01*
X98768552Y-187771762D01*
X98522639Y-187525849D01*
X98329427Y-187236687D01*
X98319769Y-187213370D01*
X98196339Y-186915385D01*
X98128492Y-186574297D01*
X98128492Y-186226521D01*
X98196339Y-185885433D01*
X98329426Y-185564133D01*
X98330635Y-185562324D01*
X98522639Y-185274969D01*
X98768552Y-185029056D01*
X99057714Y-184835844D01*
X99057716Y-184835843D01*
X99379016Y-184702756D01*
X99720104Y-184634909D01*
X100067880Y-184634909D01*
X100408968Y-184702756D01*
X100408968Y-184702756D01*
G37*
G36*
X125463992Y-185073975D02*
G01*
X125613817Y-185103777D01*
X125896081Y-185220694D01*
X126150112Y-185390432D01*
X126366148Y-185606468D01*
X126535886Y-185860499D01*
X126652803Y-186142763D01*
X126669673Y-186227574D01*
X126702639Y-186393303D01*
X126712407Y-186442413D01*
X126712407Y-186747933D01*
X126652803Y-187047583D01*
X126535886Y-187329847D01*
X126366148Y-187583878D01*
X126150112Y-187799914D01*
X125896081Y-187969652D01*
X125613817Y-188086569D01*
X125539593Y-188101333D01*
X125314168Y-188146173D01*
X125008646Y-188146173D01*
X124783221Y-188101333D01*
X124708997Y-188086569D01*
X124426733Y-187969652D01*
X124172702Y-187799914D01*
X123956666Y-187583878D01*
X123786928Y-187329847D01*
X123670011Y-187047583D01*
X123610407Y-186747933D01*
X123610407Y-186442413D01*
X123620176Y-186393303D01*
X123653141Y-186227574D01*
X123670011Y-186142763D01*
X123786928Y-185860499D01*
X123956666Y-185606468D01*
X124172702Y-185390432D01*
X124426733Y-185220694D01*
X124708997Y-185103777D01*
X124858822Y-185073975D01*
X125008646Y-185044173D01*
X125314168Y-185044173D01*
X125463992Y-185073975D01*
X125463992Y-185073975D01*
G37*
G36*
X194073486Y-184679330D02*
G01*
X194285825Y-184767284D01*
X194394788Y-184812418D01*
X194683950Y-185005630D01*
X194929863Y-185251543D01*
X195116709Y-185531177D01*
X195123076Y-185540707D01*
X195256163Y-185862007D01*
X195324010Y-186203095D01*
X195324010Y-186550871D01*
X195256163Y-186891959D01*
X195123076Y-187213259D01*
X195123075Y-187213261D01*
X194929863Y-187502423D01*
X194683950Y-187748336D01*
X194394788Y-187941548D01*
X194394787Y-187941549D01*
X194394786Y-187941549D01*
X194073486Y-188074636D01*
X193732398Y-188142483D01*
X193384622Y-188142483D01*
X193043534Y-188074636D01*
X192722234Y-187941549D01*
X192722233Y-187941549D01*
X192722232Y-187941548D01*
X192433070Y-187748336D01*
X192187157Y-187502423D01*
X191993945Y-187213261D01*
X191993944Y-187213259D01*
X191860857Y-186891959D01*
X191793010Y-186550871D01*
X191793010Y-186203095D01*
X191860857Y-185862007D01*
X191993944Y-185540707D01*
X192000312Y-185531177D01*
X192187157Y-185251543D01*
X192433070Y-185005630D01*
X192722232Y-184812418D01*
X192831195Y-184767284D01*
X193043534Y-184679330D01*
X193384622Y-184611483D01*
X193732398Y-184611483D01*
X194073486Y-184679330D01*
X194073486Y-184679330D01*
G37*
G36*
X50593930Y-186318030D02*
G01*
X50668831Y-186325407D01*
X50838670Y-186376927D01*
X50995195Y-186460592D01*
X51021300Y-186482016D01*
X51132390Y-186573184D01*
X51182721Y-186634514D01*
X51244982Y-186710379D01*
X51328647Y-186866904D01*
X51380167Y-187036743D01*
X51397563Y-187213370D01*
X51380167Y-187389997D01*
X51328647Y-187559836D01*
X51328646Y-187559838D01*
X51315797Y-187583877D01*
X51244982Y-187716361D01*
X51228235Y-187736767D01*
X51132390Y-187853556D01*
X51048765Y-187922184D01*
X50995195Y-187966148D01*
X50838670Y-188049813D01*
X50668831Y-188101333D01*
X50602646Y-188107852D01*
X50536464Y-188114370D01*
X50447944Y-188114370D01*
X50381762Y-188107852D01*
X50315577Y-188101333D01*
X50145738Y-188049813D01*
X49989213Y-187966148D01*
X49935643Y-187922184D01*
X49852018Y-187853556D01*
X49756173Y-187736767D01*
X49739426Y-187716361D01*
X49668611Y-187583877D01*
X49655762Y-187559838D01*
X49655761Y-187559836D01*
X49604241Y-187389997D01*
X49586845Y-187213370D01*
X49604241Y-187036743D01*
X49655761Y-186866904D01*
X49739426Y-186710379D01*
X49801687Y-186634514D01*
X49852018Y-186573184D01*
X49963108Y-186482016D01*
X49989213Y-186460592D01*
X50145738Y-186376927D01*
X50315577Y-186325407D01*
X50390478Y-186318030D01*
X50447944Y-186312370D01*
X50536464Y-186312370D01*
X50593930Y-186318030D01*
X50593930Y-186318030D01*
G37*
G36*
X65780630Y-186227574D02*
G01*
X65893586Y-186250042D01*
X66003009Y-186295367D01*
X66057722Y-186318030D01*
X66151962Y-186380999D01*
X66205439Y-186416731D01*
X66331063Y-186542355D01*
X66331065Y-186542358D01*
X66429764Y-186690072D01*
X66446789Y-186731174D01*
X66497752Y-186854208D01*
X66509921Y-186915385D01*
X66532411Y-187028452D01*
X66532411Y-187206114D01*
X66525921Y-187238740D01*
X66497752Y-187380358D01*
X66493759Y-187389997D01*
X66429764Y-187544494D01*
X66367241Y-187638066D01*
X66331063Y-187692211D01*
X66205439Y-187817835D01*
X66205436Y-187817837D01*
X66057722Y-187916536D01*
X66044086Y-187922184D01*
X65893586Y-187984524D01*
X65806908Y-188001765D01*
X65719342Y-188019183D01*
X65541680Y-188019183D01*
X65454114Y-188001765D01*
X65367436Y-187984524D01*
X65216936Y-187922184D01*
X65203300Y-187916536D01*
X65055586Y-187817837D01*
X65055583Y-187817835D01*
X64929959Y-187692211D01*
X64893781Y-187638066D01*
X64831258Y-187544494D01*
X64767263Y-187389997D01*
X64763270Y-187380358D01*
X64735101Y-187238740D01*
X64728611Y-187206114D01*
X64728611Y-187028452D01*
X64751101Y-186915385D01*
X64763270Y-186854208D01*
X64814233Y-186731174D01*
X64831258Y-186690072D01*
X64929957Y-186542358D01*
X64929959Y-186542355D01*
X65055583Y-186416731D01*
X65109060Y-186380999D01*
X65203300Y-186318030D01*
X65258013Y-186295367D01*
X65367436Y-186250042D01*
X65480392Y-186227574D01*
X65541680Y-186215383D01*
X65719342Y-186215383D01*
X65780630Y-186227574D01*
X65780630Y-186227574D01*
G37*
G36*
X227972110Y-186204148D02*
G01*
X228085066Y-186226616D01*
X228141620Y-186250042D01*
X228249202Y-186294604D01*
X228328371Y-186347503D01*
X228396919Y-186393305D01*
X228522543Y-186518929D01*
X228522545Y-186518932D01*
X228621244Y-186666646D01*
X228640721Y-186713668D01*
X228689232Y-186830782D01*
X228696417Y-186866904D01*
X228723891Y-187005026D01*
X228723891Y-187182688D01*
X228706561Y-187269809D01*
X228689232Y-187356932D01*
X228643907Y-187466355D01*
X228621244Y-187521068D01*
X228527416Y-187661492D01*
X228522543Y-187668785D01*
X228396919Y-187794409D01*
X228396916Y-187794411D01*
X228249202Y-187893110D01*
X228210485Y-187909147D01*
X228085066Y-187961098D01*
X227997943Y-187978427D01*
X227910822Y-187995757D01*
X227733160Y-187995757D01*
X227646039Y-187978428D01*
X227558916Y-187961098D01*
X227433497Y-187909147D01*
X227394780Y-187893110D01*
X227247066Y-187794411D01*
X227247063Y-187794409D01*
X227121439Y-187668785D01*
X227116566Y-187661492D01*
X227022738Y-187521068D01*
X227000075Y-187466355D01*
X226954750Y-187356932D01*
X226937421Y-187269809D01*
X226920091Y-187182688D01*
X226920091Y-187005026D01*
X226947565Y-186866904D01*
X226954750Y-186830782D01*
X227003261Y-186713668D01*
X227022738Y-186666646D01*
X227121437Y-186518932D01*
X227121439Y-186518929D01*
X227247063Y-186393305D01*
X227315611Y-186347503D01*
X227394780Y-186294604D01*
X227502362Y-186250042D01*
X227558916Y-186226616D01*
X227671872Y-186204148D01*
X227733160Y-186191957D01*
X227910822Y-186191957D01*
X227972110Y-186204148D01*
X227972110Y-186204148D01*
G37*
G36*
X243541824Y-186126702D02*
G01*
X243608009Y-186133221D01*
X243777848Y-186184741D01*
X243777850Y-186184742D01*
X243812186Y-186203095D01*
X243934373Y-186268406D01*
X243958125Y-186287899D01*
X244071568Y-186380998D01*
X244114719Y-186433579D01*
X244184160Y-186518193D01*
X244267825Y-186674718D01*
X244319345Y-186844557D01*
X244336741Y-187021184D01*
X244319345Y-187197811D01*
X244271076Y-187356932D01*
X244267824Y-187367652D01*
X244261032Y-187380358D01*
X244184160Y-187524175D01*
X244155707Y-187558845D01*
X244071568Y-187661370D01*
X243979695Y-187736767D01*
X243934373Y-187773962D01*
X243777848Y-187857627D01*
X243608009Y-187909147D01*
X243541824Y-187915666D01*
X243475642Y-187922184D01*
X243387122Y-187922184D01*
X243320940Y-187915666D01*
X243254755Y-187909147D01*
X243084916Y-187857627D01*
X242928391Y-187773962D01*
X242883069Y-187736767D01*
X242791196Y-187661370D01*
X242707057Y-187558845D01*
X242678604Y-187524175D01*
X242601732Y-187380358D01*
X242594940Y-187367652D01*
X242591688Y-187356932D01*
X242543419Y-187197811D01*
X242526023Y-187021184D01*
X242543419Y-186844557D01*
X242594939Y-186674718D01*
X242678604Y-186518193D01*
X242748045Y-186433579D01*
X242791196Y-186380998D01*
X242904639Y-186287899D01*
X242928391Y-186268406D01*
X243050578Y-186203095D01*
X243084914Y-186184742D01*
X243084916Y-186184741D01*
X243254755Y-186133221D01*
X243320940Y-186126702D01*
X243387122Y-186120184D01*
X243475642Y-186120184D01*
X243541824Y-186126702D01*
X243541824Y-186126702D01*
G37*
G36*
X85859949Y-184218137D02*
G01*
X86050038Y-184255948D01*
X86332302Y-184372865D01*
X86586333Y-184542603D01*
X86802369Y-184758639D01*
X86972107Y-185012670D01*
X87089024Y-185294934D01*
X87117519Y-185438189D01*
X87144121Y-185571923D01*
X87148628Y-185594584D01*
X87148628Y-185900104D01*
X87089024Y-186199754D01*
X86972107Y-186482018D01*
X86802369Y-186736049D01*
X86586333Y-186952085D01*
X86332302Y-187121823D01*
X86050038Y-187238740D01*
X85900213Y-187268542D01*
X85750389Y-187298344D01*
X85444867Y-187298344D01*
X85295043Y-187268542D01*
X85145218Y-187238740D01*
X84862954Y-187121823D01*
X84608923Y-186952085D01*
X84392887Y-186736049D01*
X84223149Y-186482018D01*
X84106232Y-186199754D01*
X84046628Y-185900104D01*
X84046628Y-185594584D01*
X84051136Y-185571923D01*
X84077737Y-185438189D01*
X84106232Y-185294934D01*
X84223149Y-185012670D01*
X84392887Y-184758639D01*
X84608923Y-184542603D01*
X84862954Y-184372865D01*
X85145218Y-184255948D01*
X85335307Y-184218137D01*
X85444867Y-184196344D01*
X85750389Y-184196344D01*
X85859949Y-184218137D01*
X85859949Y-184218137D01*
G37*
G36*
X114197154Y-185254172D02*
G01*
X114284277Y-185271502D01*
X114393700Y-185316827D01*
X114448413Y-185339490D01*
X114561067Y-185414763D01*
X114596130Y-185438191D01*
X114721754Y-185563815D01*
X114721756Y-185563818D01*
X114820455Y-185711532D01*
X114840251Y-185759323D01*
X114888443Y-185875668D01*
X114904515Y-185956471D01*
X114923102Y-186049912D01*
X114923102Y-186227574D01*
X114909769Y-186294604D01*
X114888443Y-186401818D01*
X114851276Y-186491546D01*
X114820455Y-186565954D01*
X114753175Y-186666646D01*
X114721754Y-186713671D01*
X114596130Y-186839295D01*
X114596127Y-186839297D01*
X114448413Y-186937996D01*
X114414401Y-186952084D01*
X114284277Y-187005984D01*
X114207860Y-187021184D01*
X114110033Y-187040643D01*
X113932371Y-187040643D01*
X113834544Y-187021184D01*
X113758127Y-187005984D01*
X113628003Y-186952084D01*
X113593991Y-186937996D01*
X113446277Y-186839297D01*
X113446274Y-186839295D01*
X113320650Y-186713671D01*
X113289229Y-186666646D01*
X113221949Y-186565954D01*
X113191128Y-186491546D01*
X113153961Y-186401818D01*
X113132635Y-186294604D01*
X113119302Y-186227574D01*
X113119302Y-186049912D01*
X113137889Y-185956471D01*
X113153961Y-185875668D01*
X113202153Y-185759323D01*
X113221949Y-185711532D01*
X113320648Y-185563818D01*
X113320650Y-185563815D01*
X113446274Y-185438191D01*
X113481337Y-185414763D01*
X113593991Y-185339490D01*
X113648704Y-185316827D01*
X113758127Y-185271502D01*
X113845250Y-185254172D01*
X113932371Y-185236843D01*
X114110033Y-185236843D01*
X114197154Y-185254172D01*
X114197154Y-185254172D01*
G37*
G36*
X179607252Y-185230746D02*
G01*
X179694375Y-185248076D01*
X179750929Y-185271502D01*
X179858511Y-185316064D01*
X179969811Y-185390432D01*
X180006228Y-185414765D01*
X180131852Y-185540389D01*
X180131854Y-185540392D01*
X180230553Y-185688106D01*
X180240256Y-185711532D01*
X180298541Y-185852242D01*
X180303201Y-185875670D01*
X180333200Y-186026486D01*
X180333200Y-186204148D01*
X180328540Y-186227574D01*
X180298541Y-186378392D01*
X180264492Y-186460592D01*
X180230553Y-186542528D01*
X180177777Y-186621513D01*
X180131852Y-186690245D01*
X180006228Y-186815869D01*
X180006225Y-186815871D01*
X179858511Y-186914570D01*
X179803798Y-186937233D01*
X179694375Y-186982558D01*
X179607252Y-186999887D01*
X179520131Y-187017217D01*
X179342469Y-187017217D01*
X179255348Y-186999888D01*
X179168225Y-186982558D01*
X179058802Y-186937233D01*
X179004089Y-186914570D01*
X178856375Y-186815871D01*
X178856372Y-186815869D01*
X178730748Y-186690245D01*
X178684823Y-186621513D01*
X178632047Y-186542528D01*
X178598108Y-186460592D01*
X178564059Y-186378392D01*
X178534060Y-186227574D01*
X178529400Y-186204148D01*
X178529400Y-186026486D01*
X178559399Y-185875670D01*
X178564059Y-185852242D01*
X178622344Y-185711532D01*
X178632047Y-185688106D01*
X178730746Y-185540392D01*
X178730748Y-185540389D01*
X178856372Y-185414765D01*
X178892789Y-185390432D01*
X179004089Y-185316064D01*
X179111671Y-185271502D01*
X179168225Y-185248076D01*
X179255348Y-185230746D01*
X179342469Y-185213417D01*
X179520131Y-185213417D01*
X179607252Y-185230746D01*
X179607252Y-185230746D01*
G37*
G36*
X61045976Y-183359294D02*
G01*
X61347052Y-183484004D01*
X61367278Y-183492382D01*
X61656440Y-183685594D01*
X61902353Y-183931507D01*
X62079914Y-184197245D01*
X62095566Y-184220671D01*
X62228653Y-184541971D01*
X62296500Y-184883059D01*
X62296500Y-185230835D01*
X62228653Y-185571923D01*
X62102837Y-185875670D01*
X62095565Y-185893225D01*
X61902353Y-186182387D01*
X61656440Y-186428300D01*
X61367278Y-186621512D01*
X61367277Y-186621513D01*
X61367276Y-186621513D01*
X61045976Y-186754600D01*
X60704888Y-186822447D01*
X60357112Y-186822447D01*
X60016024Y-186754600D01*
X59694724Y-186621513D01*
X59694723Y-186621513D01*
X59694722Y-186621512D01*
X59405560Y-186428300D01*
X59159647Y-186182387D01*
X58966435Y-185893225D01*
X58959163Y-185875670D01*
X58833347Y-185571923D01*
X58765500Y-185230835D01*
X58765500Y-184883059D01*
X58833347Y-184541971D01*
X58966434Y-184220671D01*
X58982087Y-184197245D01*
X59159647Y-183931507D01*
X59405560Y-183685594D01*
X59694722Y-183492382D01*
X59714948Y-183484004D01*
X60016024Y-183359294D01*
X60357112Y-183291447D01*
X60704888Y-183291447D01*
X61045976Y-183359294D01*
X61045976Y-183359294D01*
G37*
G36*
X233436478Y-183335868D02*
G01*
X233757778Y-183468955D01*
X233757780Y-183468956D01*
X234046942Y-183662168D01*
X234292855Y-183908081D01*
X234479701Y-184187715D01*
X234486068Y-184197245D01*
X234619155Y-184518545D01*
X234687002Y-184859633D01*
X234687002Y-185207409D01*
X234619155Y-185548497D01*
X234489295Y-185862006D01*
X234486067Y-185869799D01*
X234292855Y-186158961D01*
X234046942Y-186404874D01*
X233757780Y-186598086D01*
X233757779Y-186598087D01*
X233757778Y-186598087D01*
X233436478Y-186731174D01*
X233095390Y-186799021D01*
X232747614Y-186799021D01*
X232406526Y-186731174D01*
X232085226Y-186598087D01*
X232085225Y-186598087D01*
X232085224Y-186598086D01*
X231796062Y-186404874D01*
X231550149Y-186158961D01*
X231356937Y-185869799D01*
X231353709Y-185862006D01*
X231223849Y-185548497D01*
X231156002Y-185207409D01*
X231156002Y-184859633D01*
X231223849Y-184518545D01*
X231356936Y-184197245D01*
X231363304Y-184187715D01*
X231550149Y-183908081D01*
X231796062Y-183662168D01*
X232085224Y-183468956D01*
X232085226Y-183468955D01*
X232406526Y-183335868D01*
X232747614Y-183268021D01*
X233095390Y-183268021D01*
X233436478Y-183335868D01*
X233436478Y-183335868D01*
G37*
G36*
X106158739Y-183259684D02*
G01*
X106387096Y-183305107D01*
X106669360Y-183422024D01*
X106923391Y-183591762D01*
X107139427Y-183807798D01*
X107309165Y-184061829D01*
X107426082Y-184344093D01*
X107442952Y-184428904D01*
X107475068Y-184590360D01*
X107485686Y-184643743D01*
X107485686Y-184949263D01*
X107426082Y-185248913D01*
X107309165Y-185531177D01*
X107139427Y-185785208D01*
X106923391Y-186001244D01*
X106669360Y-186170982D01*
X106387096Y-186287899D01*
X106264072Y-186312370D01*
X106087447Y-186347503D01*
X105781925Y-186347503D01*
X105605300Y-186312370D01*
X105482276Y-186287899D01*
X105200012Y-186170982D01*
X104945981Y-186001244D01*
X104729945Y-185785208D01*
X104560207Y-185531177D01*
X104443290Y-185248913D01*
X104383686Y-184949263D01*
X104383686Y-184643743D01*
X104394305Y-184590360D01*
X104426420Y-184428904D01*
X104443290Y-184344093D01*
X104560207Y-184061829D01*
X104729945Y-183807798D01*
X104945981Y-183591762D01*
X105200012Y-183422024D01*
X105482276Y-183305107D01*
X105710633Y-183259684D01*
X105781925Y-183245503D01*
X106087447Y-183245503D01*
X106158739Y-183259684D01*
X106158739Y-183259684D01*
G37*
G36*
X74629014Y-184405476D02*
G01*
X74720498Y-184423673D01*
X74829921Y-184468998D01*
X74884634Y-184491661D01*
X74997288Y-184566934D01*
X75032351Y-184590362D01*
X75157975Y-184715986D01*
X75157977Y-184715989D01*
X75256676Y-184863703D01*
X75268221Y-184891575D01*
X75324664Y-185027839D01*
X75327913Y-185044173D01*
X75359323Y-185202083D01*
X75359323Y-185379745D01*
X75351531Y-185418916D01*
X75324664Y-185553989D01*
X75293108Y-185630171D01*
X75256676Y-185718125D01*
X75173630Y-185842413D01*
X75157975Y-185865842D01*
X75032351Y-185991466D01*
X75032348Y-185991468D01*
X74884634Y-186090167D01*
X74829921Y-186112830D01*
X74720498Y-186158155D01*
X74656011Y-186170982D01*
X74546254Y-186192814D01*
X74368592Y-186192814D01*
X74258835Y-186170982D01*
X74194348Y-186158155D01*
X74084925Y-186112830D01*
X74030212Y-186090167D01*
X73882498Y-185991468D01*
X73882495Y-185991466D01*
X73756871Y-185865842D01*
X73741216Y-185842413D01*
X73658170Y-185718125D01*
X73621738Y-185630171D01*
X73590182Y-185553989D01*
X73563315Y-185418916D01*
X73555523Y-185379745D01*
X73555523Y-185202083D01*
X73586933Y-185044173D01*
X73590182Y-185027839D01*
X73646625Y-184891575D01*
X73658170Y-184863703D01*
X73756869Y-184715989D01*
X73756871Y-184715986D01*
X73882495Y-184590362D01*
X73917558Y-184566934D01*
X74030212Y-184491661D01*
X74084925Y-184468998D01*
X74194348Y-184423673D01*
X74285832Y-184405476D01*
X74368592Y-184389014D01*
X74546254Y-184389014D01*
X74629014Y-184405476D01*
X74629014Y-184405476D01*
G37*
G36*
X219171031Y-184382918D02*
G01*
X219258154Y-184400247D01*
X219358337Y-184441745D01*
X219422290Y-184468235D01*
X219532644Y-184541971D01*
X219570007Y-184566936D01*
X219695631Y-184692560D01*
X219695633Y-184692563D01*
X219794332Y-184840277D01*
X219794332Y-184840278D01*
X219862320Y-185004413D01*
X219879650Y-185091536D01*
X219896979Y-185178657D01*
X219896979Y-185356319D01*
X219892319Y-185379745D01*
X219862320Y-185530563D01*
X219828959Y-185611102D01*
X219794332Y-185694699D01*
X219733856Y-185785208D01*
X219695631Y-185842416D01*
X219570007Y-185968040D01*
X219570004Y-185968042D01*
X219422290Y-186066741D01*
X219367577Y-186089404D01*
X219258154Y-186134729D01*
X219171031Y-186152059D01*
X219083910Y-186169388D01*
X218906248Y-186169388D01*
X218819127Y-186152058D01*
X218732004Y-186134729D01*
X218622581Y-186089404D01*
X218567868Y-186066741D01*
X218420154Y-185968042D01*
X218420151Y-185968040D01*
X218294527Y-185842416D01*
X218256302Y-185785208D01*
X218195826Y-185694699D01*
X218161199Y-185611102D01*
X218127838Y-185530563D01*
X218097839Y-185379745D01*
X218093179Y-185356319D01*
X218093179Y-185178657D01*
X218110508Y-185091536D01*
X218127838Y-185004413D01*
X218195826Y-184840278D01*
X218195826Y-184840277D01*
X218294525Y-184692563D01*
X218294527Y-184692560D01*
X218420151Y-184566936D01*
X218457514Y-184541971D01*
X218567868Y-184468235D01*
X218631821Y-184441745D01*
X218732004Y-184400247D01*
X218819127Y-184382918D01*
X218906248Y-184365588D01*
X219083910Y-184365588D01*
X219171031Y-184382918D01*
X219171031Y-184382918D01*
G37*
G36*
X51554147Y-183963842D02*
G01*
X51620331Y-183970360D01*
X51790170Y-184021880D01*
X51946695Y-184105545D01*
X51982433Y-184134875D01*
X52083890Y-184218137D01*
X52165087Y-184317077D01*
X52196482Y-184355332D01*
X52280147Y-184511857D01*
X52331667Y-184681696D01*
X52349063Y-184858323D01*
X52331667Y-185034950D01*
X52280147Y-185204789D01*
X52196482Y-185361314D01*
X52181356Y-185379745D01*
X52083890Y-185498509D01*
X52000265Y-185567137D01*
X51946695Y-185611101D01*
X51790170Y-185694766D01*
X51620331Y-185746286D01*
X51554147Y-185752804D01*
X51487964Y-185759323D01*
X51399444Y-185759323D01*
X51333261Y-185752804D01*
X51267077Y-185746286D01*
X51097238Y-185694766D01*
X50940713Y-185611101D01*
X50887143Y-185567137D01*
X50803518Y-185498509D01*
X50706052Y-185379745D01*
X50690926Y-185361314D01*
X50607261Y-185204789D01*
X50555741Y-185034950D01*
X50538345Y-184858323D01*
X50555741Y-184681696D01*
X50607261Y-184511857D01*
X50690926Y-184355332D01*
X50722321Y-184317077D01*
X50803518Y-184218137D01*
X50904975Y-184134875D01*
X50940713Y-184105545D01*
X51097238Y-184021880D01*
X51267077Y-183970360D01*
X51333261Y-183963842D01*
X51399444Y-183957323D01*
X51487964Y-183957323D01*
X51554147Y-183963842D01*
X51554147Y-183963842D01*
G37*
G36*
X242590325Y-183771656D02*
G01*
X242656509Y-183778174D01*
X242826348Y-183829694D01*
X242982873Y-183913359D01*
X243004986Y-183931507D01*
X243120068Y-184025951D01*
X243185387Y-184105544D01*
X243232660Y-184163146D01*
X243250405Y-184196344D01*
X243314939Y-184317077D01*
X243316325Y-184319671D01*
X243367845Y-184489510D01*
X243385241Y-184666137D01*
X243367845Y-184842764D01*
X243316325Y-185012603D01*
X243232660Y-185169128D01*
X243205614Y-185202083D01*
X243120068Y-185306323D01*
X243018611Y-185389585D01*
X242982873Y-185418915D01*
X242826348Y-185502580D01*
X242656509Y-185554100D01*
X242590324Y-185560619D01*
X242524142Y-185567137D01*
X242435622Y-185567137D01*
X242369440Y-185560619D01*
X242303255Y-185554100D01*
X242133416Y-185502580D01*
X241976891Y-185418915D01*
X241941153Y-185389585D01*
X241839696Y-185306323D01*
X241754150Y-185202083D01*
X241727104Y-185169128D01*
X241643439Y-185012603D01*
X241591919Y-184842764D01*
X241574523Y-184666137D01*
X241591919Y-184489510D01*
X241643439Y-184319671D01*
X241644826Y-184317077D01*
X241709359Y-184196344D01*
X241727104Y-184163146D01*
X241774377Y-184105544D01*
X241839696Y-184025951D01*
X241954778Y-183931507D01*
X241976891Y-183913359D01*
X242133416Y-183829694D01*
X242303255Y-183778174D01*
X242369439Y-183771656D01*
X242435622Y-183765137D01*
X242524142Y-183765137D01*
X242590325Y-183771656D01*
X242590325Y-183771656D01*
G37*
G36*
X94970433Y-183455502D02*
G01*
X95057556Y-183472832D01*
X95166979Y-183518157D01*
X95221692Y-183540820D01*
X95334346Y-183616093D01*
X95369409Y-183639521D01*
X95495033Y-183765145D01*
X95495035Y-183765148D01*
X95593734Y-183912862D01*
X95601457Y-183931507D01*
X95661722Y-184076998D01*
X95661722Y-184077000D01*
X95696381Y-184251242D01*
X95696381Y-184428904D01*
X95684326Y-184489510D01*
X95661722Y-184603148D01*
X95620462Y-184702756D01*
X95593734Y-184767284D01*
X95532028Y-184859634D01*
X95495033Y-184915001D01*
X95369409Y-185040625D01*
X95369406Y-185040627D01*
X95221692Y-185139326D01*
X95166979Y-185161989D01*
X95057556Y-185207314D01*
X94970433Y-185224643D01*
X94883312Y-185241973D01*
X94705650Y-185241973D01*
X94618529Y-185224643D01*
X94531406Y-185207314D01*
X94421983Y-185161989D01*
X94367270Y-185139326D01*
X94219556Y-185040627D01*
X94219553Y-185040625D01*
X94093929Y-184915001D01*
X94056934Y-184859634D01*
X93995228Y-184767284D01*
X93968500Y-184702756D01*
X93927240Y-184603148D01*
X93904636Y-184489510D01*
X93892581Y-184428904D01*
X93892581Y-184251242D01*
X93927240Y-184077000D01*
X93927240Y-184076998D01*
X93987505Y-183931507D01*
X93995228Y-183912862D01*
X94093927Y-183765148D01*
X94093929Y-183765145D01*
X94219553Y-183639521D01*
X94254616Y-183616093D01*
X94367270Y-183540820D01*
X94421983Y-183518157D01*
X94531406Y-183472832D01*
X94618529Y-183455502D01*
X94705650Y-183438173D01*
X94883312Y-183438173D01*
X94970433Y-183455502D01*
X94970433Y-183455502D01*
G37*
G36*
X198833973Y-183432076D02*
G01*
X198921096Y-183449406D01*
X199024845Y-183492381D01*
X199085232Y-183517394D01*
X199166266Y-183571539D01*
X199232949Y-183616095D01*
X199358573Y-183741719D01*
X199358575Y-183741722D01*
X199457274Y-183889436D01*
X199464997Y-183908081D01*
X199525262Y-184053572D01*
X199529922Y-184077000D01*
X199559921Y-184227816D01*
X199559921Y-184405478D01*
X199555261Y-184428904D01*
X199525262Y-184579722D01*
X199479937Y-184689145D01*
X199457274Y-184743858D01*
X199359238Y-184890580D01*
X199358573Y-184891575D01*
X199232949Y-185017199D01*
X199232946Y-185017201D01*
X199085232Y-185115900D01*
X199030519Y-185138563D01*
X198921096Y-185183888D01*
X198833973Y-185201218D01*
X198746852Y-185218547D01*
X198569190Y-185218547D01*
X198482069Y-185201217D01*
X198394946Y-185183888D01*
X198285523Y-185138563D01*
X198230810Y-185115900D01*
X198083096Y-185017201D01*
X198083093Y-185017199D01*
X197957469Y-184891575D01*
X197956804Y-184890580D01*
X197858768Y-184743858D01*
X197836105Y-184689145D01*
X197790780Y-184579722D01*
X197760781Y-184428904D01*
X197756121Y-184405478D01*
X197756121Y-184227816D01*
X197786120Y-184077000D01*
X197790780Y-184053572D01*
X197851045Y-183908081D01*
X197858768Y-183889436D01*
X197957467Y-183741722D01*
X197957469Y-183741719D01*
X198083093Y-183616095D01*
X198149776Y-183571539D01*
X198230810Y-183517394D01*
X198291197Y-183492381D01*
X198394946Y-183449406D01*
X198482069Y-183432077D01*
X198569190Y-183414747D01*
X198746852Y-183414747D01*
X198833973Y-183432076D01*
X198833973Y-183432076D01*
G37*
G36*
X66836031Y-181924235D02*
G01*
X67024104Y-181961645D01*
X67306368Y-182078562D01*
X67560399Y-182248300D01*
X67776435Y-182464336D01*
X67946173Y-182718367D01*
X68063090Y-183000631D01*
X68079960Y-183085442D01*
X68122694Y-183300280D01*
X68122694Y-183605802D01*
X68115987Y-183639519D01*
X68063090Y-183905451D01*
X67946173Y-184187715D01*
X67776435Y-184441746D01*
X67560399Y-184657782D01*
X67306368Y-184827520D01*
X67024104Y-184944437D01*
X66874279Y-184974239D01*
X66724455Y-185004041D01*
X66418933Y-185004041D01*
X66269109Y-184974239D01*
X66119284Y-184944437D01*
X65837020Y-184827520D01*
X65582989Y-184657782D01*
X65366953Y-184441746D01*
X65197215Y-184187715D01*
X65080298Y-183905451D01*
X65027401Y-183639519D01*
X65020694Y-183605802D01*
X65020694Y-183300280D01*
X65063428Y-183085442D01*
X65080298Y-183000631D01*
X65197215Y-182718367D01*
X65366953Y-182464336D01*
X65582989Y-182248300D01*
X65837020Y-182078562D01*
X66119284Y-181961645D01*
X66307357Y-181924235D01*
X66418933Y-181902041D01*
X66724455Y-181902041D01*
X66836031Y-181924235D01*
X66836031Y-181924235D01*
G37*
G36*
X177764706Y-181284430D02*
G01*
X178015344Y-181334285D01*
X178297608Y-181451202D01*
X178551639Y-181620940D01*
X178767675Y-181836976D01*
X178937413Y-182091007D01*
X179054330Y-182373271D01*
X179113934Y-182672921D01*
X179113934Y-182978441D01*
X179054330Y-183278091D01*
X178937413Y-183560355D01*
X178767675Y-183814386D01*
X178551639Y-184030422D01*
X178297608Y-184200160D01*
X178015344Y-184317077D01*
X177879525Y-184344093D01*
X177715695Y-184376681D01*
X177410173Y-184376681D01*
X177246343Y-184344093D01*
X177110524Y-184317077D01*
X176828260Y-184200160D01*
X176574229Y-184030422D01*
X176358193Y-183814386D01*
X176188455Y-183560355D01*
X176071538Y-183278091D01*
X176011934Y-182978441D01*
X176011934Y-182672921D01*
X176071538Y-182373271D01*
X176188455Y-182091007D01*
X176358193Y-181836976D01*
X176574229Y-181620940D01*
X176828260Y-181451202D01*
X177110524Y-181334285D01*
X177361162Y-181284430D01*
X177410173Y-181274681D01*
X177715695Y-181274681D01*
X177764706Y-181284430D01*
X177764706Y-181284430D01*
G37*
G36*
X121577174Y-181146212D02*
G01*
X121802032Y-181190939D01*
X122084296Y-181307856D01*
X122338327Y-181477594D01*
X122554363Y-181693630D01*
X122724101Y-181947661D01*
X122831315Y-182206500D01*
X122841018Y-182229926D01*
X122900622Y-182529574D01*
X122900622Y-182835096D01*
X122886164Y-182907780D01*
X122841018Y-183134745D01*
X122724101Y-183417009D01*
X122554363Y-183671040D01*
X122338327Y-183887076D01*
X122084296Y-184056814D01*
X121802032Y-184173731D01*
X121683829Y-184197243D01*
X121502383Y-184233335D01*
X121196861Y-184233335D01*
X121015415Y-184197243D01*
X120897212Y-184173731D01*
X120614948Y-184056814D01*
X120360917Y-183887076D01*
X120144881Y-183671040D01*
X119975143Y-183417009D01*
X119858226Y-183134745D01*
X119813080Y-182907780D01*
X119798622Y-182835096D01*
X119798622Y-182529574D01*
X119858226Y-182229926D01*
X119867929Y-182206500D01*
X119975143Y-181947661D01*
X120144881Y-181693630D01*
X120360917Y-181477594D01*
X120614948Y-181307856D01*
X120897212Y-181190939D01*
X121122070Y-181146212D01*
X121196861Y-181131335D01*
X121502383Y-181131335D01*
X121577174Y-181146212D01*
X121577174Y-181146212D01*
G37*
G36*
X172373411Y-181131335D02*
G01*
X172555290Y-181167513D01*
X172837554Y-181284430D01*
X173091585Y-181454168D01*
X173307621Y-181670204D01*
X173477359Y-181924235D01*
X173594276Y-182206499D01*
X173624078Y-182356324D01*
X173653880Y-182506148D01*
X173653880Y-182811670D01*
X173651584Y-182823211D01*
X173594276Y-183111319D01*
X173477359Y-183393583D01*
X173307621Y-183647614D01*
X173091585Y-183863650D01*
X172837554Y-184033388D01*
X172555290Y-184150305D01*
X172437519Y-184173731D01*
X172255641Y-184209909D01*
X171950119Y-184209909D01*
X171768241Y-184173731D01*
X171650470Y-184150305D01*
X171368206Y-184033388D01*
X171114175Y-183863650D01*
X170898139Y-183647614D01*
X170728401Y-183393583D01*
X170611484Y-183111319D01*
X170554176Y-182823211D01*
X170551880Y-182811670D01*
X170551880Y-182506148D01*
X170581682Y-182356324D01*
X170611484Y-182206499D01*
X170728401Y-181924235D01*
X170898139Y-181670204D01*
X171114175Y-181454168D01*
X171368206Y-181284430D01*
X171650470Y-181167513D01*
X171832349Y-181131335D01*
X171950119Y-181107909D01*
X172255641Y-181107909D01*
X172373411Y-181131335D01*
X172373411Y-181131335D01*
G37*
G36*
X55607441Y-182112041D02*
G01*
X55694564Y-182129370D01*
X55803987Y-182174695D01*
X55858700Y-182197358D01*
X55949673Y-182258144D01*
X56006417Y-182296059D01*
X56132041Y-182421683D01*
X56132043Y-182421686D01*
X56230742Y-182569400D01*
X56230742Y-182569401D01*
X56298730Y-182733536D01*
X56316059Y-182820659D01*
X56333389Y-182907780D01*
X56333389Y-183085442D01*
X56323582Y-183134744D01*
X56298730Y-183259686D01*
X56271302Y-183325902D01*
X56230742Y-183423822D01*
X56168219Y-183517394D01*
X56132041Y-183571539D01*
X56006417Y-183697163D01*
X56006414Y-183697165D01*
X55858700Y-183795864D01*
X55829886Y-183807799D01*
X55694564Y-183863852D01*
X55607441Y-183881182D01*
X55520320Y-183898511D01*
X55342658Y-183898511D01*
X55255537Y-183881182D01*
X55168414Y-183863852D01*
X55033092Y-183807799D01*
X55004278Y-183795864D01*
X54856564Y-183697165D01*
X54856561Y-183697163D01*
X54730937Y-183571539D01*
X54694759Y-183517394D01*
X54632236Y-183423822D01*
X54591676Y-183325902D01*
X54564248Y-183259686D01*
X54539396Y-183134744D01*
X54529589Y-183085442D01*
X54529589Y-182907780D01*
X54546918Y-182820659D01*
X54564248Y-182733536D01*
X54632236Y-182569401D01*
X54632236Y-182569400D01*
X54730935Y-182421686D01*
X54730937Y-182421683D01*
X54856561Y-182296059D01*
X54913305Y-182258144D01*
X55004278Y-182197358D01*
X55058991Y-182174695D01*
X55168414Y-182129370D01*
X55255537Y-182112041D01*
X55342658Y-182094711D01*
X55520320Y-182094711D01*
X55607441Y-182112041D01*
X55607441Y-182112041D01*
G37*
G36*
X238195912Y-182088405D02*
G01*
X238284088Y-182105944D01*
X238340642Y-182129370D01*
X238448224Y-182173932D01*
X238594946Y-182271968D01*
X238595941Y-182272633D01*
X238721565Y-182398257D01*
X238721567Y-182398260D01*
X238820266Y-182545974D01*
X238820266Y-182545975D01*
X238888254Y-182710110D01*
X238892914Y-182733538D01*
X238922913Y-182884354D01*
X238922913Y-183062016D01*
X238918253Y-183085442D01*
X238888254Y-183236260D01*
X238861735Y-183300281D01*
X238820266Y-183400396D01*
X238764401Y-183484004D01*
X238721565Y-183548113D01*
X238595941Y-183673737D01*
X238595938Y-183673739D01*
X238448224Y-183772438D01*
X238393511Y-183795101D01*
X238284088Y-183840426D01*
X238196965Y-183857756D01*
X238109844Y-183875085D01*
X237932182Y-183875085D01*
X237845061Y-183857756D01*
X237757938Y-183840426D01*
X237648515Y-183795101D01*
X237593802Y-183772438D01*
X237446088Y-183673739D01*
X237446085Y-183673737D01*
X237320461Y-183548113D01*
X237277625Y-183484004D01*
X237221760Y-183400396D01*
X237180291Y-183300281D01*
X237153772Y-183236260D01*
X237123773Y-183085442D01*
X237119113Y-183062016D01*
X237119113Y-182884354D01*
X237149112Y-182733538D01*
X237153772Y-182710110D01*
X237221760Y-182545975D01*
X237221760Y-182545974D01*
X237320459Y-182398260D01*
X237320461Y-182398257D01*
X237446085Y-182272633D01*
X237447080Y-182271968D01*
X237593802Y-182173932D01*
X237701384Y-182129370D01*
X237757938Y-182105944D01*
X237846114Y-182088405D01*
X237932182Y-182071285D01*
X238109844Y-182071285D01*
X238195912Y-182088405D01*
X238195912Y-182088405D01*
G37*
G36*
X53568119Y-182005403D02*
G01*
X52893078Y-183676190D01*
X51222291Y-183001149D01*
X51897332Y-181330362D01*
X53568119Y-182005403D01*
X53568119Y-182005403D01*
G37*
G36*
X242701295Y-182808963D02*
G01*
X241030508Y-183484004D01*
X240355467Y-181813217D01*
X242026254Y-181138176D01*
X242701295Y-182808963D01*
X242701295Y-182808963D01*
G37*
G36*
X82027944Y-180301277D02*
G01*
X82238253Y-180343110D01*
X82520517Y-180460027D01*
X82774548Y-180629765D01*
X82990584Y-180845801D01*
X83160322Y-181099832D01*
X83277239Y-181382096D01*
X83277239Y-181382097D01*
X83336843Y-181681745D01*
X83336843Y-181987267D01*
X83333235Y-182005404D01*
X83277239Y-182286916D01*
X83160322Y-182569180D01*
X82990584Y-182823211D01*
X82774548Y-183039247D01*
X82520517Y-183208985D01*
X82238253Y-183325902D01*
X82188150Y-183335868D01*
X81938604Y-183385506D01*
X81633082Y-183385506D01*
X81383536Y-183335868D01*
X81333433Y-183325902D01*
X81051169Y-183208985D01*
X80797138Y-183039247D01*
X80581102Y-182823211D01*
X80411364Y-182569180D01*
X80294447Y-182286916D01*
X80238451Y-182005404D01*
X80234843Y-181987267D01*
X80234843Y-181681745D01*
X80294447Y-181382097D01*
X80294447Y-181382096D01*
X80411364Y-181099832D01*
X80581102Y-180845801D01*
X80797138Y-180629765D01*
X81051169Y-180460027D01*
X81333433Y-180343110D01*
X81543742Y-180301277D01*
X81633082Y-180283506D01*
X81938604Y-180283506D01*
X82027944Y-180301277D01*
X82027944Y-180301277D01*
G37*
G36*
X102361689Y-179349777D02*
G01*
X102575311Y-179392269D01*
X102857575Y-179509186D01*
X103111606Y-179678924D01*
X103327642Y-179894960D01*
X103497380Y-180148991D01*
X103614297Y-180431255D01*
X103614297Y-180431256D01*
X103673901Y-180730904D01*
X103673901Y-181036426D01*
X103653661Y-181138177D01*
X103614297Y-181336075D01*
X103497380Y-181618339D01*
X103327642Y-181872370D01*
X103111606Y-182088406D01*
X102857575Y-182258144D01*
X102575311Y-182375061D01*
X102425486Y-182404863D01*
X102275662Y-182434665D01*
X101970140Y-182434665D01*
X101820316Y-182404863D01*
X101670491Y-182375061D01*
X101388227Y-182258144D01*
X101134196Y-182088406D01*
X100918160Y-181872370D01*
X100748422Y-181618339D01*
X100631505Y-181336075D01*
X100592141Y-181138177D01*
X100571901Y-181036426D01*
X100571901Y-180730904D01*
X100631505Y-180431256D01*
X100631505Y-180431255D01*
X100748422Y-180148991D01*
X100918160Y-179894960D01*
X101134196Y-179678924D01*
X101388227Y-179509186D01*
X101670491Y-179392269D01*
X101884113Y-179349777D01*
X101970140Y-179332665D01*
X102275662Y-179332665D01*
X102361689Y-179349777D01*
X102361689Y-179349777D01*
G37*
G36*
X188272914Y-180997873D02*
G01*
X186602127Y-181672914D01*
X185927086Y-180002127D01*
X187597873Y-179327086D01*
X188272914Y-180997873D01*
X188272914Y-180997873D01*
G37*
G36*
X146769207Y-179363767D02*
G01*
X146835392Y-179370286D01*
X147005231Y-179421806D01*
X147161756Y-179505471D01*
X147197494Y-179534801D01*
X147298951Y-179618063D01*
X147382213Y-179719520D01*
X147411543Y-179755258D01*
X147495208Y-179911783D01*
X147546728Y-180081622D01*
X147564124Y-180258249D01*
X147546728Y-180434876D01*
X147495208Y-180604715D01*
X147411543Y-180761240D01*
X147382213Y-180796978D01*
X147298951Y-180898435D01*
X147197494Y-180981697D01*
X147161756Y-181011027D01*
X147161754Y-181011028D01*
X147011759Y-181091203D01*
X147005231Y-181094692D01*
X146835392Y-181146212D01*
X146769208Y-181152730D01*
X146703025Y-181159249D01*
X146614505Y-181159249D01*
X146548322Y-181152730D01*
X146482138Y-181146212D01*
X146312299Y-181094692D01*
X146305772Y-181091203D01*
X146155776Y-181011028D01*
X146155774Y-181011027D01*
X146120036Y-180981697D01*
X146018579Y-180898435D01*
X145935317Y-180796978D01*
X145905987Y-180761240D01*
X145822322Y-180604715D01*
X145770802Y-180434876D01*
X145753406Y-180258249D01*
X145770802Y-180081622D01*
X145822322Y-179911783D01*
X145905987Y-179755258D01*
X145935317Y-179719520D01*
X146018579Y-179618063D01*
X146120036Y-179534801D01*
X146155774Y-179505471D01*
X146312299Y-179421806D01*
X146482138Y-179370286D01*
X146548323Y-179363767D01*
X146614505Y-179357249D01*
X146703025Y-179357249D01*
X146769207Y-179363767D01*
X146769207Y-179363767D01*
G37*
G36*
X62926550Y-177991964D02*
G01*
X63212319Y-178048807D01*
X63494583Y-178165724D01*
X63748614Y-178335462D01*
X63964650Y-178551498D01*
X64134388Y-178805529D01*
X64245886Y-179074711D01*
X64251305Y-179087794D01*
X64310909Y-179387442D01*
X64310909Y-179692964D01*
X64298518Y-179755258D01*
X64251305Y-179992613D01*
X64134388Y-180274877D01*
X63964650Y-180528908D01*
X63748614Y-180744944D01*
X63494583Y-180914682D01*
X63212319Y-181031599D01*
X63062494Y-181061401D01*
X62912670Y-181091203D01*
X62607148Y-181091203D01*
X62457324Y-181061401D01*
X62307499Y-181031599D01*
X62025235Y-180914682D01*
X61771204Y-180744944D01*
X61555168Y-180528908D01*
X61385430Y-180274877D01*
X61268513Y-179992613D01*
X61221300Y-179755258D01*
X61208909Y-179692964D01*
X61208909Y-179387442D01*
X61268513Y-179087794D01*
X61273932Y-179074711D01*
X61385430Y-178805529D01*
X61555168Y-178551498D01*
X61771204Y-178335462D01*
X62025235Y-178165724D01*
X62307499Y-178048807D01*
X62593268Y-177991964D01*
X62607148Y-177989203D01*
X62912670Y-177989203D01*
X62926550Y-177991964D01*
X62926550Y-177991964D01*
G37*
G36*
X189565490Y-178654018D02*
G01*
X189631674Y-178660536D01*
X189801513Y-178712056D01*
X189958038Y-178795721D01*
X189969991Y-178805531D01*
X190095233Y-178908313D01*
X190178495Y-179009770D01*
X190207825Y-179045508D01*
X190291490Y-179202033D01*
X190343010Y-179371872D01*
X190360406Y-179548499D01*
X190343010Y-179725126D01*
X190291490Y-179894965D01*
X190207825Y-180051490D01*
X190183096Y-180081622D01*
X190095233Y-180188685D01*
X189993776Y-180271947D01*
X189958038Y-180301277D01*
X189801513Y-180384942D01*
X189631674Y-180436462D01*
X189565490Y-180442980D01*
X189499307Y-180449499D01*
X189410787Y-180449499D01*
X189344604Y-180442980D01*
X189278420Y-180436462D01*
X189108581Y-180384942D01*
X188952056Y-180301277D01*
X188916318Y-180271947D01*
X188814861Y-180188685D01*
X188726998Y-180081622D01*
X188702269Y-180051490D01*
X188618604Y-179894965D01*
X188567084Y-179725126D01*
X188549688Y-179548499D01*
X188567084Y-179371872D01*
X188618604Y-179202033D01*
X188702269Y-179045508D01*
X188731599Y-179009770D01*
X188814861Y-178908313D01*
X188940103Y-178805531D01*
X188952056Y-178795721D01*
X189108581Y-178712056D01*
X189278420Y-178660536D01*
X189344604Y-178654018D01*
X189410787Y-178647499D01*
X189499307Y-178647499D01*
X189565490Y-178654018D01*
X189565490Y-178654018D01*
G37*
G36*
X108016922Y-178640376D02*
G01*
X107341881Y-180311163D01*
X105671094Y-179636122D01*
X106346135Y-177965335D01*
X108016922Y-178640376D01*
X108016922Y-178640376D01*
G37*
G36*
X191920536Y-177702517D02*
G01*
X191986721Y-177709036D01*
X192156560Y-177760556D01*
X192313085Y-177844221D01*
X192348823Y-177873551D01*
X192450280Y-177956813D01*
X192525776Y-178048807D01*
X192562872Y-178094008D01*
X192646537Y-178250533D01*
X192698057Y-178420372D01*
X192715453Y-178596999D01*
X192698057Y-178773626D01*
X192646537Y-178943465D01*
X192562872Y-179099990D01*
X192533542Y-179135728D01*
X192450280Y-179237185D01*
X192348823Y-179320447D01*
X192313085Y-179349777D01*
X192156560Y-179433442D01*
X191986721Y-179484962D01*
X191920536Y-179491481D01*
X191854354Y-179497999D01*
X191765834Y-179497999D01*
X191699652Y-179491481D01*
X191633467Y-179484962D01*
X191463628Y-179433442D01*
X191307103Y-179349777D01*
X191271365Y-179320447D01*
X191169908Y-179237185D01*
X191086646Y-179135728D01*
X191057316Y-179099990D01*
X190973651Y-178943465D01*
X190922131Y-178773626D01*
X190904735Y-178596999D01*
X190922131Y-178420372D01*
X190973651Y-178250533D01*
X191057316Y-178094008D01*
X191094412Y-178048807D01*
X191169908Y-177956813D01*
X191271365Y-177873551D01*
X191307103Y-177844221D01*
X191463628Y-177760556D01*
X191633467Y-177709036D01*
X191699652Y-177702517D01*
X191765834Y-177695999D01*
X191854354Y-177695999D01*
X191920536Y-177702517D01*
X191920536Y-177702517D01*
G37*
G36*
X104599404Y-177292267D02*
G01*
X104665588Y-177298785D01*
X104835427Y-177350305D01*
X104835429Y-177350306D01*
X104875609Y-177371783D01*
X104991952Y-177433970D01*
X105027690Y-177463300D01*
X105129147Y-177546562D01*
X105210340Y-177645498D01*
X105241739Y-177683757D01*
X105325404Y-177840282D01*
X105376924Y-178010121D01*
X105394320Y-178186748D01*
X105376924Y-178363375D01*
X105340957Y-178481941D01*
X105325403Y-178533216D01*
X105315631Y-178551498D01*
X105241739Y-178689739D01*
X105223424Y-178712056D01*
X105129147Y-178826934D01*
X105029985Y-178908313D01*
X104991952Y-178939526D01*
X104835427Y-179023191D01*
X104665588Y-179074711D01*
X104599403Y-179081230D01*
X104533221Y-179087748D01*
X104444701Y-179087748D01*
X104378519Y-179081230D01*
X104312334Y-179074711D01*
X104142495Y-179023191D01*
X103985970Y-178939526D01*
X103947937Y-178908313D01*
X103848775Y-178826934D01*
X103754498Y-178712056D01*
X103736183Y-178689739D01*
X103662291Y-178551498D01*
X103652519Y-178533216D01*
X103636965Y-178481941D01*
X103600998Y-178363375D01*
X103583602Y-178186748D01*
X103600998Y-178010121D01*
X103652518Y-177840282D01*
X103736183Y-177683757D01*
X103767582Y-177645498D01*
X103848775Y-177546562D01*
X103950232Y-177463300D01*
X103985970Y-177433970D01*
X104102313Y-177371783D01*
X104142493Y-177350306D01*
X104142495Y-177350305D01*
X104312334Y-177298785D01*
X104378518Y-177292267D01*
X104444701Y-177285748D01*
X104533221Y-177285748D01*
X104599404Y-177292267D01*
X104599404Y-177292267D01*
G37*
G36*
X146769207Y-176823767D02*
G01*
X146835392Y-176830286D01*
X147005231Y-176881806D01*
X147161756Y-176965471D01*
X147194853Y-176992633D01*
X147298951Y-177078063D01*
X147375804Y-177171710D01*
X147411543Y-177215258D01*
X147495208Y-177371783D01*
X147546728Y-177541622D01*
X147564124Y-177718249D01*
X147546728Y-177894876D01*
X147495208Y-178064715D01*
X147411543Y-178221240D01*
X147387504Y-178250531D01*
X147298951Y-178358435D01*
X147197494Y-178441697D01*
X147161756Y-178471027D01*
X147161754Y-178471028D01*
X147045410Y-178533216D01*
X147005231Y-178554692D01*
X146835392Y-178606212D01*
X146769207Y-178612731D01*
X146703025Y-178619249D01*
X146614505Y-178619249D01*
X146548323Y-178612731D01*
X146482138Y-178606212D01*
X146312299Y-178554692D01*
X146272121Y-178533216D01*
X146155776Y-178471028D01*
X146155774Y-178471027D01*
X146120036Y-178441697D01*
X146018579Y-178358435D01*
X145930026Y-178250531D01*
X145905987Y-178221240D01*
X145822322Y-178064715D01*
X145770802Y-177894876D01*
X145753406Y-177718249D01*
X145770802Y-177541622D01*
X145822322Y-177371783D01*
X145905987Y-177215258D01*
X145941726Y-177171710D01*
X146018579Y-177078063D01*
X146122677Y-176992633D01*
X146155774Y-176965471D01*
X146312299Y-176881806D01*
X146482138Y-176830286D01*
X146548323Y-176823767D01*
X146614505Y-176817249D01*
X146703025Y-176817249D01*
X146769207Y-176823767D01*
X146769207Y-176823767D01*
G37*
G36*
X194275583Y-176751016D02*
G01*
X194341768Y-176757535D01*
X194511607Y-176809055D01*
X194668132Y-176892720D01*
X194703870Y-176922050D01*
X194805327Y-177005312D01*
X194865031Y-177078063D01*
X194917919Y-177142507D01*
X194917920Y-177142509D01*
X194994484Y-177285748D01*
X195001584Y-177299032D01*
X195053104Y-177468871D01*
X195070500Y-177645498D01*
X195053104Y-177822125D01*
X195001584Y-177991964D01*
X194917919Y-178148489D01*
X194888589Y-178184227D01*
X194805327Y-178285684D01*
X194716678Y-178358435D01*
X194668132Y-178398276D01*
X194511607Y-178481941D01*
X194341768Y-178533461D01*
X194275584Y-178539979D01*
X194209401Y-178546498D01*
X194120881Y-178546498D01*
X194054698Y-178539979D01*
X193988514Y-178533461D01*
X193818675Y-178481941D01*
X193662150Y-178398276D01*
X193613604Y-178358435D01*
X193524955Y-178285684D01*
X193441693Y-178184227D01*
X193412363Y-178148489D01*
X193328698Y-177991964D01*
X193277178Y-177822125D01*
X193259782Y-177645498D01*
X193277178Y-177468871D01*
X193328698Y-177299032D01*
X193335799Y-177285748D01*
X193412362Y-177142509D01*
X193412363Y-177142507D01*
X193465251Y-177078063D01*
X193524955Y-177005312D01*
X193626412Y-176922050D01*
X193662150Y-176892720D01*
X193818675Y-176809055D01*
X193988514Y-176757535D01*
X194054699Y-176751016D01*
X194120881Y-176744498D01*
X194209401Y-176744498D01*
X194275583Y-176751016D01*
X194275583Y-176751016D01*
G37*
G36*
X102244356Y-176340766D02*
G01*
X102310541Y-176347285D01*
X102480380Y-176398805D01*
X102480382Y-176398806D01*
X102487635Y-176402683D01*
X102636905Y-176482470D01*
X102672643Y-176511800D01*
X102774100Y-176595062D01*
X102857362Y-176696519D01*
X102886692Y-176732257D01*
X102970357Y-176888782D01*
X103021877Y-177058621D01*
X103039273Y-177235248D01*
X103021877Y-177411875D01*
X102970357Y-177581714D01*
X102886692Y-177738239D01*
X102868377Y-177760556D01*
X102774100Y-177875434D01*
X102674938Y-177956813D01*
X102636905Y-177988026D01*
X102480380Y-178071691D01*
X102310541Y-178123211D01*
X102244356Y-178129730D01*
X102178174Y-178136248D01*
X102089654Y-178136248D01*
X102023472Y-178129730D01*
X101957287Y-178123211D01*
X101787448Y-178071691D01*
X101630923Y-177988026D01*
X101592890Y-177956813D01*
X101493728Y-177875434D01*
X101399451Y-177760556D01*
X101381136Y-177738239D01*
X101297471Y-177581714D01*
X101245951Y-177411875D01*
X101228555Y-177235248D01*
X101245951Y-177058621D01*
X101297471Y-176888782D01*
X101381136Y-176732257D01*
X101410466Y-176696519D01*
X101493728Y-176595062D01*
X101595185Y-176511800D01*
X101630923Y-176482470D01*
X101780193Y-176402683D01*
X101787446Y-176398806D01*
X101787448Y-176398805D01*
X101957287Y-176347285D01*
X102023472Y-176340766D01*
X102089654Y-176334248D01*
X102178174Y-176334248D01*
X102244356Y-176340766D01*
X102244356Y-176340766D01*
G37*
G36*
X189433576Y-174126758D02*
G01*
X189684214Y-174176613D01*
X189966478Y-174293530D01*
X190220509Y-174463268D01*
X190436545Y-174679304D01*
X190606283Y-174933335D01*
X190723200Y-175215599D01*
X190782804Y-175515249D01*
X190782804Y-175820769D01*
X190723200Y-176120419D01*
X190606283Y-176402683D01*
X190436545Y-176656714D01*
X190220509Y-176872750D01*
X189966478Y-177042488D01*
X189684214Y-177159405D01*
X189622352Y-177171710D01*
X189384565Y-177219009D01*
X189079043Y-177219009D01*
X188841256Y-177171710D01*
X188779394Y-177159405D01*
X188497130Y-177042488D01*
X188243099Y-176872750D01*
X188027063Y-176656714D01*
X187857325Y-176402683D01*
X187740408Y-176120419D01*
X187680804Y-175820769D01*
X187680804Y-175515249D01*
X187740408Y-175215599D01*
X187857325Y-174933335D01*
X188027063Y-174679304D01*
X188243099Y-174463268D01*
X188497130Y-174293530D01*
X188779394Y-174176613D01*
X189030032Y-174126758D01*
X189079043Y-174117009D01*
X189384565Y-174117009D01*
X189433576Y-174126758D01*
X189433576Y-174126758D01*
G37*
G36*
X99889310Y-175389266D02*
G01*
X99955494Y-175395784D01*
X100125333Y-175447304D01*
X100281858Y-175530969D01*
X100317596Y-175560299D01*
X100419053Y-175643561D01*
X100502315Y-175745018D01*
X100531645Y-175780756D01*
X100615310Y-175937281D01*
X100666830Y-176107120D01*
X100684226Y-176283747D01*
X100666830Y-176460374D01*
X100615310Y-176630213D01*
X100531645Y-176786738D01*
X100513330Y-176809055D01*
X100419053Y-176923933D01*
X100319891Y-177005312D01*
X100281858Y-177036525D01*
X100125333Y-177120190D01*
X99955494Y-177171710D01*
X99889309Y-177178229D01*
X99823127Y-177184747D01*
X99734607Y-177184747D01*
X99668425Y-177178229D01*
X99602240Y-177171710D01*
X99432401Y-177120190D01*
X99275876Y-177036525D01*
X99237843Y-177005312D01*
X99138681Y-176923933D01*
X99044404Y-176809055D01*
X99026089Y-176786738D01*
X98942424Y-176630213D01*
X98890904Y-176460374D01*
X98873508Y-176283747D01*
X98890904Y-176107120D01*
X98942424Y-175937281D01*
X99026089Y-175780756D01*
X99055419Y-175745018D01*
X99138681Y-175643561D01*
X99240138Y-175560299D01*
X99275876Y-175530969D01*
X99432401Y-175447304D01*
X99602240Y-175395784D01*
X99668424Y-175389266D01*
X99734607Y-175382747D01*
X99823127Y-175382747D01*
X99889310Y-175389266D01*
X99889310Y-175389266D01*
G37*
G36*
X184074335Y-173980039D02*
G01*
X184224160Y-174009841D01*
X184506424Y-174126758D01*
X184760455Y-174296496D01*
X184976491Y-174512532D01*
X185146229Y-174766563D01*
X185263146Y-175048827D01*
X185263146Y-175048828D01*
X185322750Y-175348476D01*
X185322750Y-175653998D01*
X185317331Y-175681240D01*
X185263146Y-175953647D01*
X185146229Y-176235911D01*
X184976491Y-176489942D01*
X184760455Y-176705978D01*
X184506424Y-176875716D01*
X184224160Y-176992633D01*
X184160418Y-177005312D01*
X183924511Y-177052237D01*
X183618989Y-177052237D01*
X183383082Y-177005312D01*
X183319340Y-176992633D01*
X183037076Y-176875716D01*
X182783045Y-176705978D01*
X182567009Y-176489942D01*
X182397271Y-176235911D01*
X182280354Y-175953647D01*
X182226169Y-175681240D01*
X182220750Y-175653998D01*
X182220750Y-175348476D01*
X182280354Y-175048828D01*
X182280354Y-175048827D01*
X182397271Y-174766563D01*
X182567009Y-174512532D01*
X182783045Y-174296496D01*
X183037076Y-174126758D01*
X183319340Y-174009841D01*
X183469165Y-173980039D01*
X183618989Y-173950237D01*
X183924511Y-173950237D01*
X184074335Y-173980039D01*
X184074335Y-173980039D01*
G37*
G36*
X146769208Y-174283768D02*
G01*
X146835392Y-174290286D01*
X147005231Y-174341806D01*
X147161756Y-174425471D01*
X147197494Y-174454801D01*
X147298951Y-174538063D01*
X147382213Y-174639520D01*
X147411543Y-174675258D01*
X147495208Y-174831783D01*
X147546728Y-175001622D01*
X147564124Y-175178249D01*
X147546728Y-175354876D01*
X147495208Y-175524715D01*
X147411543Y-175681240D01*
X147382213Y-175716978D01*
X147298951Y-175818435D01*
X147197494Y-175901697D01*
X147161756Y-175931027D01*
X147005231Y-176014692D01*
X146835392Y-176066212D01*
X146769207Y-176072731D01*
X146703025Y-176079249D01*
X146614505Y-176079249D01*
X146548323Y-176072731D01*
X146482138Y-176066212D01*
X146312299Y-176014692D01*
X146155774Y-175931027D01*
X146120036Y-175901697D01*
X146018579Y-175818435D01*
X145935317Y-175716978D01*
X145905987Y-175681240D01*
X145822322Y-175524715D01*
X145770802Y-175354876D01*
X145753406Y-175178249D01*
X145770802Y-175001622D01*
X145822322Y-174831783D01*
X145905987Y-174675258D01*
X145935317Y-174639520D01*
X146018579Y-174538063D01*
X146120036Y-174454801D01*
X146155774Y-174425471D01*
X146312299Y-174341806D01*
X146482138Y-174290286D01*
X146548322Y-174283768D01*
X146614505Y-174277249D01*
X146703025Y-174277249D01*
X146769208Y-174283768D01*
X146769208Y-174283768D01*
G37*
G36*
X130951791Y-173149128D02*
G01*
X131038914Y-173166457D01*
X131148337Y-173211782D01*
X131203050Y-173234445D01*
X131315704Y-173309718D01*
X131350767Y-173333146D01*
X131476391Y-173458770D01*
X131476393Y-173458773D01*
X131575092Y-173606487D01*
X131592117Y-173647589D01*
X131643080Y-173770623D01*
X131643080Y-173770625D01*
X131677739Y-173944867D01*
X131677739Y-174122529D01*
X131666981Y-174176613D01*
X131643080Y-174296773D01*
X131624426Y-174341806D01*
X131575092Y-174460909D01*
X131523539Y-174538064D01*
X131476391Y-174608626D01*
X131350767Y-174734250D01*
X131350764Y-174734252D01*
X131203050Y-174832951D01*
X131148337Y-174855614D01*
X131038914Y-174900939D01*
X130951791Y-174918269D01*
X130864670Y-174935598D01*
X130687008Y-174935598D01*
X130599887Y-174918269D01*
X130512764Y-174900939D01*
X130403341Y-174855614D01*
X130348628Y-174832951D01*
X130200914Y-174734252D01*
X130200911Y-174734250D01*
X130075287Y-174608626D01*
X130028139Y-174538064D01*
X129976586Y-174460909D01*
X129927252Y-174341806D01*
X129908598Y-174296773D01*
X129884697Y-174176613D01*
X129873939Y-174122529D01*
X129873939Y-173944867D01*
X129908598Y-173770625D01*
X129908598Y-173770623D01*
X129959561Y-173647589D01*
X129976586Y-173606487D01*
X130075285Y-173458773D01*
X130075287Y-173458770D01*
X130200911Y-173333146D01*
X130235974Y-173309718D01*
X130348628Y-173234445D01*
X130403341Y-173211782D01*
X130512764Y-173166457D01*
X130599887Y-173149128D01*
X130687008Y-173131798D01*
X130864670Y-173131798D01*
X130951791Y-173149128D01*
X130951791Y-173149128D01*
G37*
G36*
X162852615Y-173125701D02*
G01*
X162939738Y-173143031D01*
X162996292Y-173166457D01*
X163103874Y-173211019D01*
X163250596Y-173309055D01*
X163251591Y-173309720D01*
X163377215Y-173435344D01*
X163377217Y-173435347D01*
X163475916Y-173583061D01*
X163475916Y-173583062D01*
X163543904Y-173747197D01*
X163548564Y-173770625D01*
X163578563Y-173921441D01*
X163578563Y-174099103D01*
X163573903Y-174122529D01*
X163543904Y-174273347D01*
X163534201Y-174296771D01*
X163475916Y-174437483D01*
X163460263Y-174460909D01*
X163377215Y-174585200D01*
X163251591Y-174710824D01*
X163251588Y-174710826D01*
X163103874Y-174809525D01*
X163050143Y-174831781D01*
X162939738Y-174877513D01*
X162852615Y-174894842D01*
X162765494Y-174912172D01*
X162587832Y-174912172D01*
X162500711Y-174894842D01*
X162413588Y-174877513D01*
X162303183Y-174831781D01*
X162249452Y-174809525D01*
X162101738Y-174710826D01*
X162101735Y-174710824D01*
X161976111Y-174585200D01*
X161893063Y-174460909D01*
X161877410Y-174437483D01*
X161819125Y-174296771D01*
X161809422Y-174273347D01*
X161779423Y-174122529D01*
X161774763Y-174099103D01*
X161774763Y-173921441D01*
X161804762Y-173770625D01*
X161809422Y-173747197D01*
X161877410Y-173583062D01*
X161877410Y-173583061D01*
X161976109Y-173435347D01*
X161976111Y-173435344D01*
X162101735Y-173309720D01*
X162102730Y-173309055D01*
X162249452Y-173211019D01*
X162357034Y-173166457D01*
X162413588Y-173143031D01*
X162500711Y-173125701D01*
X162587832Y-173108372D01*
X162765494Y-173108372D01*
X162852615Y-173125701D01*
X162852615Y-173125701D01*
G37*
G36*
X126191304Y-170275709D02*
G01*
X126456051Y-170385371D01*
X126512606Y-170408797D01*
X126801768Y-170602009D01*
X127047681Y-170847922D01*
X127225242Y-171113660D01*
X127240894Y-171137086D01*
X127373981Y-171458386D01*
X127441828Y-171799474D01*
X127441828Y-172147250D01*
X127373981Y-172488338D01*
X127250467Y-172786526D01*
X127240893Y-172809640D01*
X127047681Y-173098802D01*
X126801768Y-173344715D01*
X126512606Y-173537927D01*
X126512605Y-173537928D01*
X126512604Y-173537928D01*
X126191304Y-173671015D01*
X125850216Y-173738862D01*
X125502440Y-173738862D01*
X125161352Y-173671015D01*
X124840052Y-173537928D01*
X124840051Y-173537928D01*
X124840050Y-173537927D01*
X124550888Y-173344715D01*
X124304975Y-173098802D01*
X124111763Y-172809640D01*
X124102189Y-172786526D01*
X123978675Y-172488338D01*
X123910828Y-172147250D01*
X123910828Y-171799474D01*
X123978675Y-171458386D01*
X124111762Y-171137086D01*
X124127415Y-171113660D01*
X124304975Y-170847922D01*
X124550888Y-170602009D01*
X124840050Y-170408797D01*
X124896605Y-170385371D01*
X125161352Y-170275709D01*
X125502440Y-170207862D01*
X125850216Y-170207862D01*
X126191304Y-170275709D01*
X126191304Y-170275709D01*
G37*
G36*
X168291150Y-170252283D02*
G01*
X168612450Y-170385370D01*
X168612452Y-170385371D01*
X168901614Y-170578583D01*
X169147527Y-170824496D01*
X169334373Y-171104130D01*
X169340740Y-171113660D01*
X169473827Y-171434960D01*
X169541674Y-171776048D01*
X169541674Y-172123824D01*
X169473827Y-172464912D01*
X169340740Y-172786212D01*
X169340739Y-172786214D01*
X169147527Y-173075376D01*
X168901614Y-173321289D01*
X168612452Y-173514501D01*
X168612451Y-173514502D01*
X168612450Y-173514502D01*
X168291150Y-173647589D01*
X167950062Y-173715436D01*
X167602286Y-173715436D01*
X167261198Y-173647589D01*
X166939898Y-173514502D01*
X166939897Y-173514502D01*
X166939896Y-173514501D01*
X166650734Y-173321289D01*
X166404821Y-173075376D01*
X166211609Y-172786214D01*
X166211608Y-172786212D01*
X166078521Y-172464912D01*
X166010674Y-172123824D01*
X166010674Y-171776048D01*
X166078521Y-171434960D01*
X166211608Y-171113660D01*
X166217976Y-171104130D01*
X166404821Y-170824496D01*
X166650734Y-170578583D01*
X166939896Y-170385371D01*
X166939898Y-170385370D01*
X167261198Y-170252283D01*
X167602286Y-170184436D01*
X167950062Y-170184436D01*
X168291150Y-170252283D01*
X168291150Y-170252283D01*
G37*
G36*
X147559765Y-173539249D02*
G01*
X145757765Y-173539249D01*
X145757765Y-171737249D01*
X147559765Y-171737249D01*
X147559765Y-173539249D01*
X147559765Y-173539249D01*
G37*
G36*
X111725070Y-171350457D02*
G01*
X111812193Y-171367786D01*
X111921616Y-171413111D01*
X111976329Y-171435774D01*
X112010170Y-171458386D01*
X112124046Y-171534475D01*
X112249670Y-171660099D01*
X112249672Y-171660102D01*
X112348371Y-171807816D01*
X112365396Y-171848918D01*
X112416359Y-171971952D01*
X112416359Y-171971954D01*
X112446568Y-172123823D01*
X112451018Y-172146198D01*
X112451018Y-172323856D01*
X112416359Y-172498102D01*
X112371034Y-172607525D01*
X112348371Y-172662238D01*
X112265533Y-172786214D01*
X112249670Y-172809955D01*
X112124046Y-172935579D01*
X112124043Y-172935581D01*
X111976329Y-173034280D01*
X111921616Y-173056943D01*
X111812193Y-173102268D01*
X111725070Y-173119597D01*
X111637949Y-173136927D01*
X111460287Y-173136927D01*
X111373166Y-173119597D01*
X111286043Y-173102268D01*
X111176620Y-173056943D01*
X111121907Y-173034280D01*
X110974193Y-172935581D01*
X110974190Y-172935579D01*
X110848566Y-172809955D01*
X110832703Y-172786214D01*
X110749865Y-172662238D01*
X110727202Y-172607525D01*
X110681877Y-172498102D01*
X110647218Y-172323856D01*
X110647218Y-172146198D01*
X110651669Y-172123823D01*
X110681877Y-171971954D01*
X110681877Y-171971952D01*
X110732840Y-171848918D01*
X110749865Y-171807816D01*
X110848564Y-171660102D01*
X110848566Y-171660099D01*
X110974190Y-171534475D01*
X111088066Y-171458386D01*
X111121907Y-171435774D01*
X111176620Y-171413111D01*
X111286043Y-171367786D01*
X111373166Y-171350457D01*
X111460287Y-171333127D01*
X111637949Y-171333127D01*
X111725070Y-171350457D01*
X111725070Y-171350457D01*
G37*
G36*
X182079336Y-171327031D02*
G01*
X182166459Y-171344360D01*
X182223013Y-171367786D01*
X182330595Y-171412348D01*
X182477317Y-171510384D01*
X182478312Y-171511049D01*
X182603936Y-171636673D01*
X182603938Y-171636676D01*
X182702637Y-171784390D01*
X182702637Y-171784391D01*
X182770625Y-171948526D01*
X182775285Y-171971954D01*
X182805284Y-172122770D01*
X182805284Y-172300432D01*
X182800624Y-172323858D01*
X182770625Y-172474676D01*
X182760922Y-172498100D01*
X182702637Y-172638812D01*
X182686984Y-172662238D01*
X182603936Y-172786529D01*
X182478312Y-172912153D01*
X182478309Y-172912155D01*
X182330595Y-173010854D01*
X182275882Y-173033517D01*
X182166459Y-173078842D01*
X182079336Y-173096172D01*
X181992215Y-173113501D01*
X181814553Y-173113501D01*
X181727432Y-173096172D01*
X181640309Y-173078842D01*
X181530886Y-173033517D01*
X181476173Y-173010854D01*
X181328459Y-172912155D01*
X181328456Y-172912153D01*
X181202832Y-172786529D01*
X181119784Y-172662238D01*
X181104131Y-172638812D01*
X181045846Y-172498100D01*
X181036143Y-172474676D01*
X181006144Y-172323858D01*
X181001484Y-172300432D01*
X181001484Y-172122770D01*
X181031483Y-171971954D01*
X181036143Y-171948526D01*
X181104131Y-171784391D01*
X181104131Y-171784390D01*
X181202830Y-171636676D01*
X181202832Y-171636673D01*
X181328456Y-171511049D01*
X181329451Y-171510384D01*
X181476173Y-171412348D01*
X181583755Y-171367786D01*
X181640309Y-171344360D01*
X181727432Y-171327031D01*
X181814553Y-171309701D01*
X181992215Y-171309701D01*
X182079336Y-171327031D01*
X182079336Y-171327031D01*
G37*
G36*
X106964583Y-168477038D02*
G01*
X107229330Y-168586700D01*
X107285885Y-168610126D01*
X107575047Y-168803338D01*
X107820960Y-169049251D01*
X108013964Y-169338101D01*
X108014173Y-169338415D01*
X108147260Y-169659715D01*
X108215107Y-170000803D01*
X108215107Y-170348579D01*
X108147260Y-170689667D01*
X108014173Y-171010967D01*
X108014172Y-171010969D01*
X107820960Y-171300131D01*
X107575047Y-171546044D01*
X107285885Y-171739256D01*
X107285884Y-171739257D01*
X107285883Y-171739257D01*
X106964583Y-171872344D01*
X106623495Y-171940191D01*
X106275719Y-171940191D01*
X105934631Y-171872344D01*
X105613331Y-171739257D01*
X105613330Y-171739257D01*
X105613329Y-171739256D01*
X105324167Y-171546044D01*
X105078254Y-171300131D01*
X104885042Y-171010969D01*
X104885041Y-171010967D01*
X104751954Y-170689667D01*
X104684107Y-170348579D01*
X104684107Y-170000803D01*
X104751954Y-169659715D01*
X104885041Y-169338415D01*
X104885251Y-169338101D01*
X105078254Y-169049251D01*
X105324167Y-168803338D01*
X105613329Y-168610126D01*
X105669884Y-168586700D01*
X105934631Y-168477038D01*
X106275719Y-168409191D01*
X106623495Y-168409191D01*
X106964583Y-168477038D01*
X106964583Y-168477038D01*
G37*
G36*
X132019607Y-168848258D02*
G01*
X132169432Y-168878060D01*
X132451696Y-168994977D01*
X132705727Y-169164715D01*
X132921763Y-169380751D01*
X133091501Y-169634782D01*
X133208418Y-169917046D01*
X133225288Y-170001857D01*
X133255288Y-170152675D01*
X133268022Y-170216696D01*
X133268022Y-170522216D01*
X133208418Y-170821866D01*
X133091501Y-171104130D01*
X132921763Y-171358161D01*
X132705727Y-171574197D01*
X132451696Y-171743935D01*
X132169432Y-171860852D01*
X132019607Y-171890654D01*
X131869783Y-171920456D01*
X131564261Y-171920456D01*
X131414437Y-171890654D01*
X131264612Y-171860852D01*
X130982348Y-171743935D01*
X130728317Y-171574197D01*
X130512281Y-171358161D01*
X130342543Y-171104130D01*
X130225626Y-170821866D01*
X130166022Y-170522216D01*
X130166022Y-170216696D01*
X130178757Y-170152675D01*
X130208756Y-170001857D01*
X130225626Y-169917046D01*
X130342543Y-169634782D01*
X130512281Y-169380751D01*
X130728317Y-169164715D01*
X130982348Y-168994977D01*
X131264612Y-168878060D01*
X131414437Y-168848258D01*
X131564261Y-168818456D01*
X131869783Y-168818456D01*
X132019607Y-168848258D01*
X132019607Y-168848258D01*
G37*
G36*
X187517871Y-168453612D02*
G01*
X187730210Y-168541566D01*
X187839173Y-168586700D01*
X188128335Y-168779912D01*
X188374248Y-169025825D01*
X188567252Y-169314675D01*
X188567461Y-169314989D01*
X188700548Y-169636289D01*
X188768395Y-169977377D01*
X188768395Y-170325153D01*
X188700548Y-170666241D01*
X188625293Y-170847922D01*
X188567460Y-170987543D01*
X188374248Y-171276705D01*
X188128335Y-171522618D01*
X187839173Y-171715830D01*
X187839172Y-171715831D01*
X187839171Y-171715831D01*
X187517871Y-171848918D01*
X187176783Y-171916765D01*
X186829007Y-171916765D01*
X186487919Y-171848918D01*
X186166619Y-171715831D01*
X186166618Y-171715831D01*
X186166617Y-171715830D01*
X185877455Y-171522618D01*
X185631542Y-171276705D01*
X185438330Y-170987543D01*
X185380497Y-170847922D01*
X185305242Y-170666241D01*
X185237395Y-170325153D01*
X185237395Y-169977377D01*
X185305242Y-169636289D01*
X185438329Y-169314989D01*
X185438539Y-169314675D01*
X185631542Y-169025825D01*
X185877455Y-168779912D01*
X186166617Y-168586700D01*
X186275580Y-168541566D01*
X186487919Y-168453612D01*
X186829007Y-168385765D01*
X187176783Y-168385765D01*
X187517871Y-168453612D01*
X187517871Y-168453612D01*
G37*
G36*
X120752769Y-169028455D02*
G01*
X120839892Y-169045785D01*
X120949315Y-169091110D01*
X121004028Y-169113773D01*
X121116682Y-169189046D01*
X121151745Y-169212474D01*
X121277369Y-169338098D01*
X121277371Y-169338101D01*
X121376070Y-169485815D01*
X121376070Y-169485816D01*
X121444058Y-169649951D01*
X121444058Y-169649953D01*
X121474058Y-169800771D01*
X121478717Y-169824197D01*
X121478717Y-170001855D01*
X121444058Y-170176101D01*
X121412502Y-170252283D01*
X121376070Y-170340237D01*
X121293024Y-170464525D01*
X121277369Y-170487954D01*
X121151745Y-170613578D01*
X121151742Y-170613580D01*
X121004028Y-170712279D01*
X120949315Y-170734942D01*
X120839892Y-170780267D01*
X120752769Y-170797596D01*
X120665648Y-170814926D01*
X120487986Y-170814926D01*
X120400865Y-170797596D01*
X120313742Y-170780267D01*
X120204319Y-170734942D01*
X120149606Y-170712279D01*
X120001892Y-170613580D01*
X120001889Y-170613578D01*
X119876265Y-170487954D01*
X119860610Y-170464525D01*
X119777564Y-170340237D01*
X119741132Y-170252283D01*
X119709576Y-170176101D01*
X119674917Y-170001855D01*
X119674917Y-169824197D01*
X119679577Y-169800771D01*
X119709576Y-169649953D01*
X119709576Y-169649951D01*
X119777564Y-169485816D01*
X119777564Y-169485815D01*
X119876263Y-169338101D01*
X119876265Y-169338098D01*
X120001889Y-169212474D01*
X120036952Y-169189046D01*
X120149606Y-169113773D01*
X120204319Y-169091110D01*
X120313742Y-169045785D01*
X120400865Y-169028455D01*
X120487986Y-169011126D01*
X120665648Y-169011126D01*
X120752769Y-169028455D01*
X120752769Y-169028455D01*
G37*
G36*
X173051637Y-169005030D02*
G01*
X173138760Y-169022359D01*
X173248183Y-169067684D01*
X173302896Y-169090347D01*
X173414196Y-169164715D01*
X173450613Y-169189048D01*
X173576237Y-169314672D01*
X173576239Y-169314675D01*
X173674938Y-169462389D01*
X173674938Y-169462390D01*
X173742926Y-169626525D01*
X173749528Y-169659715D01*
X173777585Y-169800769D01*
X173777585Y-169978431D01*
X173772925Y-170001857D01*
X173742926Y-170152675D01*
X173716407Y-170216696D01*
X173674938Y-170316811D01*
X173613476Y-170408796D01*
X173576237Y-170464528D01*
X173450613Y-170590152D01*
X173450610Y-170590154D01*
X173302896Y-170688853D01*
X173248183Y-170711516D01*
X173138760Y-170756841D01*
X173051637Y-170774170D01*
X172964516Y-170791500D01*
X172786854Y-170791500D01*
X172699733Y-170774170D01*
X172612610Y-170756841D01*
X172503187Y-170711516D01*
X172448474Y-170688853D01*
X172300760Y-170590154D01*
X172300757Y-170590152D01*
X172175133Y-170464528D01*
X172137894Y-170408796D01*
X172076432Y-170316811D01*
X172034963Y-170216696D01*
X172008444Y-170152675D01*
X171978445Y-170001857D01*
X171973785Y-169978431D01*
X171973785Y-169800769D01*
X172001842Y-169659715D01*
X172008444Y-169626525D01*
X172076432Y-169462390D01*
X172076432Y-169462389D01*
X172175131Y-169314675D01*
X172175133Y-169314672D01*
X172300757Y-169189048D01*
X172337174Y-169164715D01*
X172448474Y-169090347D01*
X172503187Y-169067684D01*
X172612610Y-169022359D01*
X172699733Y-169005030D01*
X172786854Y-168987700D01*
X172964516Y-168987700D01*
X173051637Y-169005030D01*
X173051637Y-169005030D01*
G37*
G36*
X112792886Y-167049587D02*
G01*
X112942711Y-167079389D01*
X113224975Y-167196306D01*
X113479006Y-167366044D01*
X113695042Y-167582080D01*
X113864780Y-167836111D01*
X113981697Y-168118375D01*
X113998567Y-168203186D01*
X114028567Y-168354004D01*
X114041301Y-168418025D01*
X114041301Y-168723545D01*
X113981697Y-169023195D01*
X113864780Y-169305459D01*
X113695042Y-169559490D01*
X113479006Y-169775526D01*
X113224975Y-169945264D01*
X112942711Y-170062181D01*
X112792886Y-170091983D01*
X112643062Y-170121785D01*
X112337540Y-170121785D01*
X112187716Y-170091983D01*
X112037891Y-170062181D01*
X111755627Y-169945264D01*
X111501596Y-169775526D01*
X111285560Y-169559490D01*
X111115822Y-169305459D01*
X110998905Y-169023195D01*
X110939301Y-168723545D01*
X110939301Y-168418025D01*
X110952036Y-168354004D01*
X110982035Y-168203186D01*
X110998905Y-168118375D01*
X111115822Y-167836111D01*
X111285560Y-167582080D01*
X111501596Y-167366044D01*
X111755627Y-167196306D01*
X112037891Y-167079389D01*
X112187716Y-167049587D01*
X112337540Y-167019785D01*
X112643062Y-167019785D01*
X112792886Y-167049587D01*
X112792886Y-167049587D01*
G37*
G36*
X101526048Y-167229784D02*
G01*
X101613171Y-167247114D01*
X101722594Y-167292439D01*
X101777307Y-167315102D01*
X101889961Y-167390375D01*
X101925024Y-167413803D01*
X102050648Y-167539427D01*
X102050650Y-167539430D01*
X102149349Y-167687144D01*
X102149349Y-167687145D01*
X102217337Y-167851280D01*
X102217337Y-167851282D01*
X102247337Y-168002100D01*
X102251996Y-168025526D01*
X102251996Y-168203184D01*
X102217337Y-168377430D01*
X102185781Y-168453612D01*
X102149349Y-168541566D01*
X102066303Y-168665854D01*
X102050648Y-168689283D01*
X101925024Y-168814907D01*
X101925021Y-168814909D01*
X101777307Y-168913608D01*
X101722594Y-168936271D01*
X101613171Y-168981596D01*
X101526048Y-168998925D01*
X101438927Y-169016255D01*
X101261265Y-169016255D01*
X101174144Y-168998925D01*
X101087021Y-168981596D01*
X100977598Y-168936271D01*
X100922885Y-168913608D01*
X100775171Y-168814909D01*
X100775168Y-168814907D01*
X100649544Y-168689283D01*
X100633889Y-168665854D01*
X100550843Y-168541566D01*
X100514411Y-168453612D01*
X100482855Y-168377430D01*
X100448196Y-168203184D01*
X100448196Y-168025526D01*
X100452856Y-168002100D01*
X100482855Y-167851282D01*
X100482855Y-167851280D01*
X100550843Y-167687145D01*
X100550843Y-167687144D01*
X100649542Y-167539430D01*
X100649544Y-167539427D01*
X100775168Y-167413803D01*
X100810231Y-167390375D01*
X100922885Y-167315102D01*
X100977598Y-167292439D01*
X101087021Y-167247114D01*
X101174144Y-167229784D01*
X101261265Y-167212455D01*
X101438927Y-167212455D01*
X101526048Y-167229784D01*
X101526048Y-167229784D01*
G37*
G36*
X192278358Y-167206358D02*
G01*
X192365481Y-167223688D01*
X192422035Y-167247114D01*
X192529617Y-167291676D01*
X192593911Y-167334636D01*
X192677334Y-167390377D01*
X192802958Y-167516001D01*
X192802960Y-167516004D01*
X192901659Y-167663718D01*
X192901659Y-167663719D01*
X192969647Y-167827854D01*
X192974307Y-167851282D01*
X193004306Y-168002098D01*
X193004306Y-168179760D01*
X192999646Y-168203186D01*
X192969647Y-168354004D01*
X192943128Y-168418025D01*
X192901659Y-168518140D01*
X192840197Y-168610125D01*
X192802958Y-168665857D01*
X192677334Y-168791481D01*
X192677331Y-168791483D01*
X192529617Y-168890182D01*
X192474904Y-168912845D01*
X192365481Y-168958170D01*
X192278358Y-168975499D01*
X192191237Y-168992829D01*
X192013575Y-168992829D01*
X191926454Y-168975499D01*
X191839331Y-168958170D01*
X191729908Y-168912845D01*
X191675195Y-168890182D01*
X191527481Y-168791483D01*
X191527478Y-168791481D01*
X191401854Y-168665857D01*
X191364615Y-168610125D01*
X191303153Y-168518140D01*
X191261684Y-168418025D01*
X191235165Y-168354004D01*
X191205166Y-168203186D01*
X191200506Y-168179760D01*
X191200506Y-168002098D01*
X191230505Y-167851282D01*
X191235165Y-167827854D01*
X191303153Y-167663719D01*
X191303153Y-167663718D01*
X191401852Y-167516004D01*
X191401854Y-167516001D01*
X191527478Y-167390377D01*
X191610901Y-167334636D01*
X191675195Y-167291676D01*
X191782777Y-167247114D01*
X191839331Y-167223688D01*
X191926454Y-167206358D01*
X192013575Y-167189029D01*
X192191237Y-167189029D01*
X192278358Y-167206358D01*
X192278358Y-167206358D01*
G37*
G36*
X171209091Y-165058713D02*
G01*
X171459729Y-165108568D01*
X171741993Y-165225485D01*
X171996024Y-165395223D01*
X172212060Y-165611259D01*
X172381798Y-165865290D01*
X172498715Y-166147554D01*
X172558319Y-166447204D01*
X172558319Y-166752724D01*
X172498715Y-167052374D01*
X172381798Y-167334638D01*
X172212060Y-167588669D01*
X171996024Y-167804705D01*
X171741993Y-167974443D01*
X171459729Y-168091360D01*
X171323915Y-168118375D01*
X171160080Y-168150964D01*
X170854558Y-168150964D01*
X170690723Y-168118375D01*
X170554909Y-168091360D01*
X170272645Y-167974443D01*
X170018614Y-167804705D01*
X169802578Y-167588669D01*
X169632840Y-167334638D01*
X169515923Y-167052374D01*
X169456319Y-166752724D01*
X169456319Y-166447204D01*
X169515923Y-166147554D01*
X169632840Y-165865290D01*
X169802578Y-165611259D01*
X170018614Y-165395223D01*
X170272645Y-165225485D01*
X170554909Y-165108568D01*
X170805547Y-165058713D01*
X170854558Y-165048964D01*
X171160080Y-165048964D01*
X171209091Y-165058713D01*
X171209091Y-165058713D01*
G37*
G36*
X128207822Y-164935420D02*
G01*
X128357647Y-164965222D01*
X128639911Y-165082139D01*
X128893942Y-165251877D01*
X129109978Y-165467913D01*
X129279716Y-165721944D01*
X129396633Y-166004208D01*
X129456237Y-166303858D01*
X129456237Y-166609378D01*
X129396633Y-166909028D01*
X129279716Y-167191292D01*
X129109978Y-167445323D01*
X128893942Y-167661359D01*
X128639911Y-167831097D01*
X128357647Y-167948014D01*
X128224779Y-167974443D01*
X128057998Y-168007618D01*
X127752476Y-168007618D01*
X127585695Y-167974443D01*
X127452827Y-167948014D01*
X127170563Y-167831097D01*
X126916532Y-167661359D01*
X126700496Y-167445323D01*
X126530758Y-167191292D01*
X126413841Y-166909028D01*
X126354237Y-166609378D01*
X126354237Y-166303858D01*
X126413841Y-166004208D01*
X126530758Y-165721944D01*
X126700496Y-165467913D01*
X126916532Y-165251877D01*
X127170563Y-165082139D01*
X127452827Y-164965222D01*
X127602652Y-164935420D01*
X127752476Y-164905618D01*
X128057998Y-164905618D01*
X128207822Y-164935420D01*
X128207822Y-164935420D01*
G37*
G36*
X165817796Y-164905618D02*
G01*
X165999675Y-164941796D01*
X166281939Y-165058713D01*
X166535970Y-165228451D01*
X166752006Y-165444487D01*
X166921744Y-165698518D01*
X167038661Y-165980782D01*
X167098265Y-166280432D01*
X167098265Y-166585952D01*
X167038661Y-166885602D01*
X166921744Y-167167866D01*
X166752006Y-167421897D01*
X166535970Y-167637933D01*
X166281939Y-167807671D01*
X165999675Y-167924588D01*
X165881904Y-167948014D01*
X165700026Y-167984192D01*
X165394504Y-167984192D01*
X165212626Y-167948014D01*
X165094855Y-167924588D01*
X164812591Y-167807671D01*
X164558560Y-167637933D01*
X164342524Y-167421897D01*
X164172786Y-167167866D01*
X164055869Y-166885602D01*
X163996265Y-166585952D01*
X163996265Y-166280432D01*
X164055869Y-165980782D01*
X164172786Y-165698518D01*
X164342524Y-165444487D01*
X164558560Y-165228451D01*
X164812591Y-165058713D01*
X165094855Y-164941796D01*
X165276734Y-164905618D01*
X165394504Y-164882192D01*
X165700026Y-164882192D01*
X165817796Y-164905618D01*
X165817796Y-164905618D01*
G37*
G36*
X108981101Y-163136749D02*
G01*
X109130926Y-163166551D01*
X109413190Y-163283468D01*
X109667221Y-163453206D01*
X109883257Y-163669242D01*
X110052995Y-163923273D01*
X110169912Y-164205537D01*
X110229516Y-164505187D01*
X110229516Y-164810707D01*
X110169912Y-165110357D01*
X110052995Y-165392621D01*
X109883257Y-165646652D01*
X109667221Y-165862688D01*
X109413190Y-166032426D01*
X109130926Y-166149343D01*
X108981101Y-166179145D01*
X108831277Y-166208947D01*
X108525755Y-166208947D01*
X108375931Y-166179145D01*
X108226106Y-166149343D01*
X107943842Y-166032426D01*
X107689811Y-165862688D01*
X107473775Y-165646652D01*
X107304037Y-165392621D01*
X107187120Y-165110357D01*
X107127516Y-164810707D01*
X107127516Y-164505187D01*
X107187120Y-164205537D01*
X107304037Y-163923273D01*
X107473775Y-163669242D01*
X107689811Y-163453206D01*
X107943842Y-163283468D01*
X108226106Y-163166551D01*
X108375931Y-163136749D01*
X108525755Y-163106947D01*
X108831277Y-163106947D01*
X108981101Y-163136749D01*
X108981101Y-163136749D01*
G37*
G36*
X181772914Y-164497873D02*
G01*
X180102127Y-165172914D01*
X179427086Y-163502127D01*
X181097873Y-162827086D01*
X181772914Y-164497873D01*
X181772914Y-164497873D01*
G37*
G36*
X114831679Y-162640376D02*
G01*
X114156638Y-164311163D01*
X112485851Y-163636122D01*
X113160892Y-161965335D01*
X114831679Y-162640376D01*
X114831679Y-162640376D01*
G37*
G36*
X183065490Y-162154018D02*
G01*
X183131674Y-162160536D01*
X183301513Y-162212056D01*
X183458038Y-162295721D01*
X183493776Y-162325051D01*
X183595233Y-162408313D01*
X183678495Y-162509770D01*
X183707825Y-162545508D01*
X183791490Y-162702033D01*
X183843010Y-162871872D01*
X183860406Y-163048499D01*
X183843010Y-163225126D01*
X183791490Y-163394965D01*
X183707825Y-163551490D01*
X183678495Y-163587228D01*
X183595233Y-163688685D01*
X183493776Y-163771947D01*
X183458038Y-163801277D01*
X183301513Y-163884942D01*
X183131674Y-163936462D01*
X183065490Y-163942980D01*
X182999307Y-163949499D01*
X182910787Y-163949499D01*
X182844604Y-163942980D01*
X182778420Y-163936462D01*
X182608581Y-163884942D01*
X182452056Y-163801277D01*
X182416318Y-163771947D01*
X182314861Y-163688685D01*
X182231599Y-163587228D01*
X182202269Y-163551490D01*
X182118604Y-163394965D01*
X182067084Y-163225126D01*
X182049688Y-163048499D01*
X182067084Y-162871872D01*
X182118604Y-162702033D01*
X182202269Y-162545508D01*
X182231599Y-162509770D01*
X182314861Y-162408313D01*
X182416318Y-162325051D01*
X182452056Y-162295721D01*
X182608581Y-162212056D01*
X182778420Y-162160536D01*
X182844604Y-162154018D01*
X182910787Y-162147499D01*
X182999307Y-162147499D01*
X183065490Y-162154018D01*
X183065490Y-162154018D01*
G37*
G36*
X111414161Y-161292267D02*
G01*
X111480345Y-161298785D01*
X111650184Y-161350305D01*
X111806709Y-161433970D01*
X111834543Y-161456813D01*
X111943904Y-161546562D01*
X112027166Y-161648019D01*
X112056496Y-161683757D01*
X112140161Y-161840282D01*
X112191681Y-162010121D01*
X112209077Y-162186748D01*
X112191681Y-162363375D01*
X112140161Y-162533214D01*
X112056496Y-162689739D01*
X112027166Y-162725477D01*
X111943904Y-162826934D01*
X111842447Y-162910196D01*
X111806709Y-162939526D01*
X111650184Y-163023191D01*
X111480345Y-163074711D01*
X111414161Y-163081229D01*
X111347978Y-163087748D01*
X111259458Y-163087748D01*
X111193275Y-163081229D01*
X111127091Y-163074711D01*
X110957252Y-163023191D01*
X110800727Y-162939526D01*
X110764989Y-162910196D01*
X110663532Y-162826934D01*
X110580270Y-162725477D01*
X110550940Y-162689739D01*
X110467275Y-162533214D01*
X110415755Y-162363375D01*
X110398359Y-162186748D01*
X110415755Y-162010121D01*
X110467275Y-161840282D01*
X110550940Y-161683757D01*
X110580270Y-161648019D01*
X110663532Y-161546562D01*
X110772893Y-161456813D01*
X110800727Y-161433970D01*
X110957252Y-161350305D01*
X111127091Y-161298785D01*
X111193275Y-161292267D01*
X111259458Y-161285748D01*
X111347978Y-161285748D01*
X111414161Y-161292267D01*
X111414161Y-161292267D01*
G37*
G36*
X185420536Y-161202517D02*
G01*
X185486721Y-161209036D01*
X185656560Y-161260556D01*
X185813085Y-161344221D01*
X185848823Y-161373551D01*
X185950280Y-161456813D01*
X186023934Y-161546562D01*
X186062872Y-161594008D01*
X186146537Y-161750533D01*
X186198057Y-161920372D01*
X186215453Y-162096999D01*
X186198057Y-162273626D01*
X186146537Y-162443465D01*
X186062872Y-162599990D01*
X186033542Y-162635728D01*
X185950280Y-162737185D01*
X185848823Y-162820447D01*
X185813085Y-162849777D01*
X185656560Y-162933442D01*
X185486721Y-162984962D01*
X185420537Y-162991480D01*
X185354354Y-162997999D01*
X185265834Y-162997999D01*
X185199651Y-162991480D01*
X185133467Y-162984962D01*
X184963628Y-162933442D01*
X184807103Y-162849777D01*
X184771365Y-162820447D01*
X184669908Y-162737185D01*
X184586646Y-162635728D01*
X184557316Y-162599990D01*
X184473651Y-162443465D01*
X184422131Y-162273626D01*
X184404735Y-162096999D01*
X184422131Y-161920372D01*
X184473651Y-161750533D01*
X184557316Y-161594008D01*
X184596254Y-161546562D01*
X184669908Y-161456813D01*
X184771365Y-161373551D01*
X184807103Y-161344221D01*
X184963628Y-161260556D01*
X185133467Y-161209036D01*
X185199652Y-161202517D01*
X185265834Y-161195999D01*
X185354354Y-161195999D01*
X185420536Y-161202517D01*
X185420536Y-161202517D01*
G37*
G36*
X109059114Y-160340767D02*
G01*
X109125298Y-160347285D01*
X109295137Y-160398805D01*
X109451662Y-160482470D01*
X109479495Y-160505312D01*
X109588857Y-160595062D01*
X109672119Y-160696519D01*
X109701449Y-160732257D01*
X109785114Y-160888782D01*
X109836634Y-161058621D01*
X109854030Y-161235248D01*
X109836634Y-161411875D01*
X109785114Y-161581714D01*
X109701449Y-161738239D01*
X109672119Y-161773977D01*
X109588857Y-161875434D01*
X109487400Y-161958696D01*
X109451662Y-161988026D01*
X109295137Y-162071691D01*
X109125298Y-162123211D01*
X109059113Y-162129730D01*
X108992931Y-162136248D01*
X108904411Y-162136248D01*
X108838229Y-162129730D01*
X108772044Y-162123211D01*
X108602205Y-162071691D01*
X108445680Y-161988026D01*
X108409942Y-161958696D01*
X108308485Y-161875434D01*
X108225223Y-161773977D01*
X108195893Y-161738239D01*
X108112228Y-161581714D01*
X108060708Y-161411875D01*
X108043312Y-161235248D01*
X108060708Y-161058621D01*
X108112228Y-160888782D01*
X108195893Y-160732257D01*
X108225223Y-160696519D01*
X108308485Y-160595062D01*
X108417847Y-160505312D01*
X108445680Y-160482470D01*
X108602205Y-160398805D01*
X108772044Y-160347285D01*
X108838228Y-160340767D01*
X108904411Y-160334248D01*
X108992931Y-160334248D01*
X109059114Y-160340767D01*
X109059114Y-160340767D01*
G37*
G36*
X187775584Y-160251017D02*
G01*
X187841768Y-160257535D01*
X188011607Y-160309055D01*
X188168132Y-160392720D01*
X188203870Y-160422050D01*
X188305327Y-160505312D01*
X188388589Y-160606769D01*
X188417919Y-160642507D01*
X188501584Y-160799032D01*
X188553104Y-160968871D01*
X188570500Y-161145498D01*
X188553104Y-161322125D01*
X188501584Y-161491964D01*
X188417919Y-161648489D01*
X188388975Y-161683757D01*
X188305327Y-161785684D01*
X188203870Y-161868946D01*
X188168132Y-161898276D01*
X188011607Y-161981941D01*
X187841768Y-162033461D01*
X187775584Y-162039979D01*
X187709401Y-162046498D01*
X187620881Y-162046498D01*
X187554698Y-162039979D01*
X187488514Y-162033461D01*
X187318675Y-161981941D01*
X187162150Y-161898276D01*
X187126412Y-161868946D01*
X187024955Y-161785684D01*
X186941307Y-161683757D01*
X186912363Y-161648489D01*
X186828698Y-161491964D01*
X186777178Y-161322125D01*
X186759782Y-161145498D01*
X186777178Y-160968871D01*
X186828698Y-160799032D01*
X186912363Y-160642507D01*
X186941693Y-160606769D01*
X187024955Y-160505312D01*
X187126412Y-160422050D01*
X187162150Y-160392720D01*
X187318675Y-160309055D01*
X187488514Y-160257535D01*
X187554698Y-160251017D01*
X187620881Y-160244498D01*
X187709401Y-160244498D01*
X187775584Y-160251017D01*
X187775584Y-160251017D01*
G37*
G36*
X106704067Y-159389266D02*
G01*
X106770251Y-159395784D01*
X106940090Y-159447304D01*
X107096615Y-159530969D01*
X107100085Y-159533817D01*
X107233810Y-159643561D01*
X107303048Y-159727929D01*
X107346402Y-159780756D01*
X107346403Y-159780758D01*
X107416044Y-159911045D01*
X107430067Y-159937281D01*
X107481587Y-160107120D01*
X107498983Y-160283747D01*
X107481587Y-160460374D01*
X107430067Y-160630213D01*
X107430066Y-160630215D01*
X107419491Y-160649999D01*
X107346402Y-160786738D01*
X107321754Y-160816771D01*
X107233810Y-160923933D01*
X107132353Y-161007195D01*
X107096615Y-161036525D01*
X106940090Y-161120190D01*
X106770251Y-161171710D01*
X106704066Y-161178229D01*
X106637884Y-161184747D01*
X106549364Y-161184747D01*
X106483182Y-161178229D01*
X106416997Y-161171710D01*
X106247158Y-161120190D01*
X106090633Y-161036525D01*
X106054895Y-161007195D01*
X105953438Y-160923933D01*
X105865494Y-160816771D01*
X105840846Y-160786738D01*
X105767757Y-160649999D01*
X105757182Y-160630215D01*
X105757181Y-160630213D01*
X105705661Y-160460374D01*
X105688265Y-160283747D01*
X105705661Y-160107120D01*
X105757181Y-159937281D01*
X105771205Y-159911045D01*
X105840845Y-159780758D01*
X105840846Y-159780756D01*
X105884200Y-159727929D01*
X105953438Y-159643561D01*
X106087163Y-159533817D01*
X106090633Y-159530969D01*
X106247158Y-159447304D01*
X106416997Y-159395784D01*
X106483181Y-159389266D01*
X106549364Y-159382747D01*
X106637884Y-159382747D01*
X106704067Y-159389266D01*
X106704067Y-159389266D01*
G37*
G36*
X182978774Y-157921094D02*
G01*
X183128599Y-157950896D01*
X183410863Y-158067813D01*
X183664894Y-158237551D01*
X183880930Y-158453587D01*
X184050668Y-158707618D01*
X184167585Y-158989882D01*
X184227189Y-159289532D01*
X184227189Y-159595052D01*
X184167585Y-159894702D01*
X184050668Y-160176966D01*
X183880930Y-160430997D01*
X183664894Y-160647033D01*
X183410863Y-160816771D01*
X183128599Y-160933688D01*
X182978774Y-160963490D01*
X182828950Y-160993292D01*
X182523428Y-160993292D01*
X182373604Y-160963490D01*
X182223779Y-160933688D01*
X181941515Y-160816771D01*
X181687484Y-160647033D01*
X181471448Y-160430997D01*
X181301710Y-160176966D01*
X181184793Y-159894702D01*
X181125189Y-159595052D01*
X181125189Y-159289532D01*
X181184793Y-158989882D01*
X181301710Y-158707618D01*
X181471448Y-158453587D01*
X181687484Y-158237551D01*
X181941515Y-158067813D01*
X182223779Y-157950896D01*
X182373604Y-157921094D01*
X182523428Y-157891292D01*
X182828950Y-157891292D01*
X182978774Y-157921094D01*
X182978774Y-157921094D01*
G37*
G36*
X177518720Y-157754322D02*
G01*
X177668545Y-157784124D01*
X177950809Y-157901041D01*
X178204840Y-158070779D01*
X178420876Y-158286815D01*
X178590614Y-158540846D01*
X178707531Y-158823110D01*
X178767135Y-159122760D01*
X178767135Y-159428280D01*
X178707531Y-159727930D01*
X178590614Y-160010194D01*
X178420876Y-160264225D01*
X178204840Y-160480261D01*
X177950809Y-160649999D01*
X177668545Y-160766916D01*
X177568903Y-160786736D01*
X177368896Y-160826520D01*
X177063374Y-160826520D01*
X176863367Y-160786736D01*
X176763725Y-160766916D01*
X176481461Y-160649999D01*
X176227430Y-160480261D01*
X176011394Y-160264225D01*
X175841656Y-160010194D01*
X175724739Y-159727930D01*
X175665135Y-159428280D01*
X175665135Y-159122760D01*
X175724739Y-158823110D01*
X175841656Y-158540846D01*
X176011394Y-158286815D01*
X176227430Y-158070779D01*
X176481461Y-157901041D01*
X176763725Y-157784124D01*
X176913550Y-157754322D01*
X177063374Y-157724520D01*
X177368896Y-157724520D01*
X177518720Y-157754322D01*
X177518720Y-157754322D01*
G37*
G36*
X146914039Y-158114939D02*
G01*
X147008225Y-158144410D01*
X147094851Y-158191689D01*
X147170589Y-158254960D01*
X147232528Y-158331790D01*
X147266821Y-158397316D01*
X147697328Y-159462857D01*
X147718179Y-159533814D01*
X147726994Y-159632108D01*
X147716465Y-159730233D01*
X147686994Y-159824419D01*
X147639715Y-159911045D01*
X147576444Y-159986782D01*
X147499614Y-160048722D01*
X147412176Y-160094482D01*
X147317491Y-160122305D01*
X147219197Y-160131120D01*
X147121072Y-160120591D01*
X147026886Y-160091120D01*
X146956722Y-160052825D01*
X146940263Y-160043842D01*
X146940262Y-160043841D01*
X146940260Y-160043840D01*
X146864522Y-159980570D01*
X146802584Y-159903740D01*
X146768291Y-159838214D01*
X146337784Y-158772672D01*
X146316933Y-158701715D01*
X146308118Y-158603422D01*
X146318647Y-158505297D01*
X146348118Y-158411111D01*
X146395397Y-158324485D01*
X146458668Y-158248747D01*
X146535498Y-158186808D01*
X146622936Y-158141048D01*
X146717621Y-158113225D01*
X146815914Y-158104410D01*
X146914039Y-158114939D01*
X146914039Y-158114939D01*
G37*
G36*
X137507407Y-156923410D02*
G01*
X137594530Y-156940739D01*
X137703953Y-156986064D01*
X137758666Y-157008727D01*
X137807979Y-157041677D01*
X137906383Y-157107428D01*
X138032007Y-157233052D01*
X138032009Y-157233055D01*
X138130708Y-157380769D01*
X138147733Y-157421871D01*
X138198696Y-157544905D01*
X138198696Y-157544907D01*
X138233355Y-157719149D01*
X138233355Y-157896811D01*
X138222597Y-157950896D01*
X138198696Y-158071055D01*
X138169703Y-158141048D01*
X138130708Y-158235191D01*
X138096214Y-158286815D01*
X138032007Y-158382908D01*
X137906383Y-158508532D01*
X137906380Y-158508534D01*
X137758666Y-158607233D01*
X137703953Y-158629896D01*
X137594530Y-158675221D01*
X137507407Y-158692550D01*
X137420286Y-158709880D01*
X137242624Y-158709880D01*
X137155503Y-158692550D01*
X137068380Y-158675221D01*
X136958957Y-158629896D01*
X136904244Y-158607233D01*
X136756530Y-158508534D01*
X136756527Y-158508532D01*
X136630903Y-158382908D01*
X136566696Y-158286815D01*
X136532202Y-158235191D01*
X136493207Y-158141048D01*
X136464214Y-158071055D01*
X136440313Y-157950896D01*
X136429555Y-157896811D01*
X136429555Y-157719149D01*
X136464214Y-157544907D01*
X136464214Y-157544905D01*
X136515177Y-157421871D01*
X136532202Y-157380769D01*
X136630901Y-157233055D01*
X136630903Y-157233052D01*
X136756527Y-157107428D01*
X136854931Y-157041677D01*
X136904244Y-157008727D01*
X136958957Y-156986064D01*
X137068380Y-156940739D01*
X137155503Y-156923410D01*
X137242624Y-156906080D01*
X137420286Y-156906080D01*
X137507407Y-156923410D01*
X137507407Y-156923410D01*
G37*
G36*
X156269523Y-156894518D02*
G01*
X156384123Y-156917313D01*
X156440677Y-156940739D01*
X156548259Y-156985301D01*
X156609367Y-157026132D01*
X156695976Y-157084002D01*
X156821600Y-157209626D01*
X156821602Y-157209629D01*
X156920301Y-157357343D01*
X156920301Y-157357344D01*
X156988289Y-157521479D01*
X156992949Y-157544907D01*
X157022948Y-157695723D01*
X157022948Y-157873385D01*
X157018288Y-157896811D01*
X156988289Y-158047629D01*
X156948200Y-158144410D01*
X156920301Y-158211765D01*
X156859147Y-158303288D01*
X156821600Y-158359482D01*
X156695976Y-158485106D01*
X156695973Y-158485108D01*
X156548259Y-158583807D01*
X156500904Y-158603422D01*
X156384123Y-158651795D01*
X156297000Y-158669124D01*
X156209879Y-158686454D01*
X156032217Y-158686454D01*
X155945096Y-158669124D01*
X155857973Y-158651795D01*
X155741192Y-158603422D01*
X155693837Y-158583807D01*
X155546123Y-158485108D01*
X155546120Y-158485106D01*
X155420496Y-158359482D01*
X155382949Y-158303288D01*
X155321795Y-158211765D01*
X155293896Y-158144410D01*
X155253807Y-158047629D01*
X155223808Y-157896811D01*
X155219148Y-157873385D01*
X155219148Y-157695723D01*
X155249147Y-157544907D01*
X155253807Y-157521479D01*
X155321795Y-157357344D01*
X155321795Y-157357343D01*
X155420494Y-157209629D01*
X155420496Y-157209626D01*
X155546120Y-157084002D01*
X155609464Y-157041677D01*
X155628406Y-157026132D01*
X155643952Y-157007190D01*
X155644615Y-157005950D01*
X155655865Y-157003814D01*
X155678585Y-156994634D01*
X155690070Y-156987818D01*
X155693837Y-156985301D01*
X155801419Y-156940739D01*
X155857973Y-156917313D01*
X155972573Y-156894518D01*
X156032217Y-156882654D01*
X156209879Y-156882654D01*
X156269523Y-156894518D01*
X156269523Y-156894518D01*
G37*
G36*
X148266001Y-157799519D02*
G01*
X148266004Y-157799520D01*
X148266003Y-157799520D01*
X148329876Y-157825976D01*
X148387366Y-157864390D01*
X148436258Y-157913282D01*
X148474672Y-157970772D01*
X148496242Y-158022848D01*
X148501129Y-158034647D01*
X148514618Y-158102460D01*
X148514618Y-158171600D01*
X148501129Y-158239413D01*
X148501128Y-158239415D01*
X148474672Y-158303288D01*
X148436258Y-158360778D01*
X148387366Y-158409670D01*
X148329876Y-158448084D01*
X148277800Y-158469654D01*
X148266001Y-158474541D01*
X148198188Y-158488030D01*
X148129048Y-158488030D01*
X148061235Y-158474541D01*
X148049436Y-158469654D01*
X147997360Y-158448084D01*
X147939870Y-158409670D01*
X147890978Y-158360778D01*
X147852564Y-158303288D01*
X147826108Y-158239415D01*
X147826107Y-158239413D01*
X147812618Y-158171600D01*
X147812618Y-158102460D01*
X147826107Y-158034647D01*
X147830994Y-158022848D01*
X147852564Y-157970772D01*
X147890978Y-157913282D01*
X147939870Y-157864390D01*
X147997360Y-157825976D01*
X148061233Y-157799520D01*
X148061232Y-157799520D01*
X148061235Y-157799519D01*
X148129048Y-157786030D01*
X148198188Y-157786030D01*
X148266001Y-157799519D01*
X148266001Y-157799519D01*
G37*
G36*
X132746920Y-154049991D02*
G01*
X133011667Y-154159653D01*
X133068222Y-154183079D01*
X133357384Y-154376291D01*
X133603297Y-154622204D01*
X133791887Y-154904448D01*
X133796510Y-154911368D01*
X133929597Y-155232668D01*
X133997444Y-155573756D01*
X133997444Y-155921532D01*
X133929597Y-156262620D01*
X133796510Y-156583920D01*
X133796509Y-156583922D01*
X133603297Y-156873084D01*
X133357384Y-157118997D01*
X133068222Y-157312209D01*
X133068221Y-157312210D01*
X133068220Y-157312210D01*
X132746920Y-157445297D01*
X132405832Y-157513144D01*
X132058056Y-157513144D01*
X131716968Y-157445297D01*
X131395668Y-157312210D01*
X131395667Y-157312210D01*
X131395666Y-157312209D01*
X131106504Y-157118997D01*
X130860591Y-156873084D01*
X130667379Y-156583922D01*
X130667378Y-156583920D01*
X130534291Y-156262620D01*
X130466444Y-155921532D01*
X130466444Y-155573756D01*
X130534291Y-155232668D01*
X130667378Y-154911368D01*
X130672002Y-154904448D01*
X130860591Y-154622204D01*
X131106504Y-154376291D01*
X131395666Y-154183079D01*
X131452221Y-154159653D01*
X131716968Y-154049991D01*
X132058056Y-153982144D01*
X132405832Y-153982144D01*
X132746920Y-154049991D01*
X132746920Y-154049991D01*
G37*
G36*
X161735535Y-154026565D02*
G01*
X161968016Y-154122862D01*
X162056837Y-154159653D01*
X162345999Y-154352865D01*
X162591912Y-154598778D01*
X162778758Y-154878412D01*
X162785125Y-154887942D01*
X162918212Y-155209242D01*
X162986059Y-155550330D01*
X162986059Y-155898106D01*
X162918212Y-156239194D01*
X162785125Y-156560494D01*
X162785124Y-156560496D01*
X162591912Y-156849658D01*
X162345999Y-157095571D01*
X162056837Y-157288783D01*
X162056836Y-157288784D01*
X162056835Y-157288784D01*
X161735535Y-157421871D01*
X161394447Y-157489718D01*
X161046671Y-157489718D01*
X160705583Y-157421871D01*
X160384283Y-157288784D01*
X160384282Y-157288784D01*
X160384281Y-157288783D01*
X160095119Y-157095571D01*
X159849206Y-156849658D01*
X159655994Y-156560496D01*
X159655993Y-156560494D01*
X159522906Y-156239194D01*
X159455059Y-155898106D01*
X159455059Y-155550330D01*
X159522906Y-155209242D01*
X159655993Y-154887942D01*
X159662361Y-154878412D01*
X159849206Y-154598778D01*
X160095119Y-154352865D01*
X160384281Y-154159653D01*
X160473102Y-154122862D01*
X160705583Y-154026565D01*
X161046671Y-153958718D01*
X161394447Y-153958718D01*
X161735535Y-154026565D01*
X161735535Y-154026565D01*
G37*
G36*
X118280686Y-155124740D02*
G01*
X118367809Y-155142069D01*
X118477232Y-155187394D01*
X118531945Y-155210057D01*
X118644599Y-155285330D01*
X118679662Y-155308758D01*
X118805286Y-155434382D01*
X118805288Y-155434385D01*
X118903987Y-155582099D01*
X118921012Y-155623201D01*
X118971975Y-155746235D01*
X118971975Y-155746237D01*
X119006634Y-155920479D01*
X119006634Y-156098141D01*
X118989304Y-156185262D01*
X118971975Y-156272385D01*
X118951090Y-156322804D01*
X118903987Y-156436521D01*
X118865824Y-156493636D01*
X118805286Y-156584238D01*
X118679662Y-156709862D01*
X118679659Y-156709864D01*
X118531945Y-156808563D01*
X118487446Y-156826995D01*
X118367809Y-156876551D01*
X118280686Y-156893881D01*
X118193565Y-156911210D01*
X118015903Y-156911210D01*
X117928782Y-156893881D01*
X117841659Y-156876551D01*
X117722022Y-156826995D01*
X117677523Y-156808563D01*
X117529809Y-156709864D01*
X117529806Y-156709862D01*
X117404182Y-156584238D01*
X117343644Y-156493636D01*
X117305481Y-156436521D01*
X117258378Y-156322804D01*
X117237493Y-156272385D01*
X117220163Y-156185262D01*
X117202834Y-156098141D01*
X117202834Y-155920479D01*
X117237493Y-155746237D01*
X117237493Y-155746235D01*
X117288456Y-155623201D01*
X117305481Y-155582099D01*
X117404180Y-155434385D01*
X117404182Y-155434382D01*
X117529806Y-155308758D01*
X117564869Y-155285330D01*
X117677523Y-155210057D01*
X117732236Y-155187394D01*
X117841659Y-155142069D01*
X117928782Y-155124740D01*
X118015903Y-155107410D01*
X118193565Y-155107410D01*
X118280686Y-155124740D01*
X118280686Y-155124740D01*
G37*
G36*
X154924908Y-154878338D02*
G01*
X155019094Y-154907809D01*
X155105720Y-154955088D01*
X155181458Y-155018359D01*
X155243397Y-155095189D01*
X155277690Y-155160715D01*
X155708197Y-156226256D01*
X155729048Y-156297213D01*
X155737863Y-156395507D01*
X155727334Y-156493632D01*
X155697863Y-156587818D01*
X155650584Y-156674444D01*
X155587313Y-156750181D01*
X155542164Y-156786580D01*
X155524695Y-156803746D01*
X155517026Y-156815010D01*
X155515633Y-156815147D01*
X155482070Y-156826991D01*
X155423045Y-156857881D01*
X155328360Y-156885704D01*
X155230066Y-156894519D01*
X155131941Y-156883990D01*
X155037755Y-156854519D01*
X154965367Y-156815010D01*
X154951132Y-156807241D01*
X154951131Y-156807240D01*
X154951129Y-156807239D01*
X154875391Y-156743969D01*
X154813453Y-156667139D01*
X154779160Y-156601613D01*
X154348653Y-155536071D01*
X154327802Y-155465114D01*
X154318987Y-155366821D01*
X154329516Y-155268696D01*
X154358987Y-155174510D01*
X154406266Y-155087884D01*
X154469537Y-155012146D01*
X154546367Y-154950207D01*
X154633805Y-154904447D01*
X154728490Y-154876624D01*
X154826783Y-154867809D01*
X154924908Y-154878338D01*
X154924908Y-154878338D01*
G37*
G36*
X175523721Y-155101314D02*
G01*
X175610844Y-155118643D01*
X175667398Y-155142069D01*
X175774980Y-155186631D01*
X175843879Y-155232668D01*
X175922697Y-155285332D01*
X176048321Y-155410956D01*
X176048323Y-155410959D01*
X176147022Y-155558673D01*
X176153270Y-155573757D01*
X176215010Y-155722809D01*
X176220032Y-155748056D01*
X176249669Y-155897053D01*
X176249669Y-156074715D01*
X176241283Y-156116872D01*
X176215010Y-156248959D01*
X176190009Y-156309315D01*
X176147022Y-156413095D01*
X176131369Y-156436521D01*
X176048321Y-156560812D01*
X175922697Y-156686436D01*
X175922694Y-156686438D01*
X175774980Y-156785137D01*
X175730054Y-156803746D01*
X175610844Y-156853125D01*
X175523721Y-156870455D01*
X175436600Y-156887784D01*
X175258938Y-156887784D01*
X175171817Y-156870455D01*
X175084694Y-156853125D01*
X174965484Y-156803746D01*
X174920558Y-156785137D01*
X174772844Y-156686438D01*
X174772841Y-156686436D01*
X174647217Y-156560812D01*
X174564169Y-156436521D01*
X174548516Y-156413095D01*
X174505529Y-156309315D01*
X174480528Y-156248959D01*
X174454255Y-156116872D01*
X174445869Y-156074715D01*
X174445869Y-155897053D01*
X174475506Y-155748056D01*
X174480528Y-155722809D01*
X174542268Y-155573757D01*
X174548516Y-155558673D01*
X174647215Y-155410959D01*
X174647217Y-155410956D01*
X174772841Y-155285332D01*
X174851659Y-155232668D01*
X174920558Y-155186631D01*
X175028140Y-155142069D01*
X175084694Y-155118643D01*
X175171817Y-155101314D01*
X175258938Y-155083984D01*
X175436600Y-155083984D01*
X175523721Y-155101314D01*
X175523721Y-155101314D01*
G37*
G36*
X153625124Y-155634293D02*
G01*
X153625127Y-155634294D01*
X153625126Y-155634294D01*
X153688999Y-155660750D01*
X153746489Y-155699164D01*
X153795381Y-155748056D01*
X153833795Y-155805546D01*
X153845071Y-155832770D01*
X153860252Y-155869421D01*
X153873741Y-155937234D01*
X153873741Y-156006374D01*
X153860252Y-156074187D01*
X153860251Y-156074189D01*
X153833795Y-156138062D01*
X153795381Y-156195552D01*
X153746489Y-156244444D01*
X153688999Y-156282858D01*
X153654334Y-156297216D01*
X153625124Y-156309315D01*
X153557311Y-156322804D01*
X153488171Y-156322804D01*
X153420358Y-156309315D01*
X153391148Y-156297216D01*
X153356483Y-156282858D01*
X153298993Y-156244444D01*
X153250101Y-156195552D01*
X153211687Y-156138062D01*
X153185231Y-156074189D01*
X153185230Y-156074187D01*
X153171741Y-156006374D01*
X153171741Y-155937234D01*
X153185230Y-155869421D01*
X153200411Y-155832770D01*
X153211687Y-155805546D01*
X153250101Y-155748056D01*
X153298993Y-155699164D01*
X153356483Y-155660750D01*
X153420356Y-155634294D01*
X153420355Y-155634294D01*
X153420358Y-155634293D01*
X153488171Y-155620804D01*
X153557311Y-155620804D01*
X153625124Y-155634293D01*
X153625124Y-155634293D01*
G37*
G36*
X145408121Y-154387660D02*
G01*
X145502307Y-154417131D01*
X145579986Y-154459528D01*
X145588935Y-154464412D01*
X145615448Y-154486561D01*
X145664671Y-154527681D01*
X145726610Y-154604511D01*
X145760903Y-154670038D01*
X145760905Y-154670043D01*
X146069719Y-155434382D01*
X146079028Y-155457424D01*
X146099879Y-155528381D01*
X146108694Y-155626675D01*
X146098165Y-155724800D01*
X146068694Y-155818986D01*
X146021414Y-155905612D01*
X145958144Y-155981350D01*
X145881314Y-156043289D01*
X145793876Y-156089049D01*
X145699191Y-156116872D01*
X145600896Y-156125687D01*
X145502772Y-156115157D01*
X145502770Y-156115156D01*
X145502767Y-156115156D01*
X145467401Y-156104090D01*
X145408586Y-156085687D01*
X145321960Y-156038407D01*
X145246223Y-155975137D01*
X145184284Y-155898306D01*
X145149991Y-155832780D01*
X144907530Y-155232667D01*
X144831870Y-155045404D01*
X144831869Y-155045400D01*
X144831866Y-155045393D01*
X144811015Y-154974436D01*
X144802200Y-154876143D01*
X144812729Y-154778018D01*
X144842200Y-154683832D01*
X144889480Y-154597206D01*
X144889481Y-154597204D01*
X144925115Y-154554549D01*
X144952750Y-154521468D01*
X145029580Y-154459529D01*
X145117018Y-154413769D01*
X145211703Y-154385946D01*
X145309996Y-154377131D01*
X145408121Y-154387660D01*
X145408121Y-154387660D01*
G37*
G36*
X113520199Y-152251321D02*
G01*
X113784946Y-152360983D01*
X113841501Y-152384409D01*
X114130663Y-152577621D01*
X114376576Y-152823534D01*
X114554137Y-153089272D01*
X114569789Y-153112698D01*
X114702876Y-153433998D01*
X114770723Y-153775086D01*
X114770723Y-154122862D01*
X114702876Y-154463950D01*
X114569789Y-154785250D01*
X114569788Y-154785252D01*
X114376576Y-155074414D01*
X114130663Y-155320327D01*
X113841501Y-155513539D01*
X113841500Y-155513540D01*
X113841499Y-155513540D01*
X113520199Y-155646627D01*
X113179111Y-155714474D01*
X112831335Y-155714474D01*
X112490247Y-155646627D01*
X112168947Y-155513540D01*
X112168946Y-155513540D01*
X112168945Y-155513539D01*
X111879783Y-155320327D01*
X111633870Y-155074414D01*
X111440658Y-154785252D01*
X111440657Y-154785250D01*
X111307570Y-154463950D01*
X111239723Y-154122862D01*
X111239723Y-153775086D01*
X111307570Y-153433998D01*
X111440657Y-153112698D01*
X111456310Y-153089272D01*
X111633870Y-152823534D01*
X111879783Y-152577621D01*
X112168945Y-152384409D01*
X112225500Y-152360983D01*
X112490247Y-152251321D01*
X112831335Y-152183474D01*
X113179111Y-152183474D01*
X113520199Y-152251321D01*
X113520199Y-152251321D01*
G37*
G36*
X138575223Y-152622540D02*
G01*
X138725048Y-152652342D01*
X139007312Y-152769259D01*
X139261343Y-152938997D01*
X139477379Y-153155033D01*
X139647117Y-153409064D01*
X139764034Y-153691328D01*
X139780904Y-153776139D01*
X139810904Y-153926957D01*
X139823638Y-153990978D01*
X139823638Y-154296498D01*
X139764034Y-154596148D01*
X139647117Y-154878412D01*
X139477379Y-155132443D01*
X139261343Y-155348479D01*
X139007312Y-155518217D01*
X138725048Y-155635134D01*
X138596267Y-155660750D01*
X138425399Y-155694738D01*
X138119877Y-155694738D01*
X137949009Y-155660750D01*
X137820228Y-155635134D01*
X137537964Y-155518217D01*
X137283933Y-155348479D01*
X137067897Y-155132443D01*
X136898159Y-154878412D01*
X136781242Y-154596148D01*
X136721638Y-154296498D01*
X136721638Y-153990978D01*
X136734373Y-153926957D01*
X136764372Y-153776139D01*
X136781242Y-153691328D01*
X136898159Y-153409064D01*
X137067897Y-153155033D01*
X137283933Y-152938997D01*
X137537964Y-152769259D01*
X137820228Y-152652342D01*
X137970053Y-152622540D01*
X138119877Y-152592738D01*
X138425399Y-152592738D01*
X138575223Y-152622540D01*
X138575223Y-152622540D01*
G37*
G36*
X180962256Y-152227895D02*
G01*
X181174595Y-152315849D01*
X181283558Y-152360983D01*
X181572720Y-152554195D01*
X181818633Y-152800108D01*
X182005479Y-153079742D01*
X182011846Y-153089272D01*
X182144933Y-153410572D01*
X182212780Y-153751660D01*
X182212780Y-154099436D01*
X182144933Y-154440524D01*
X182049865Y-154670038D01*
X182011845Y-154761826D01*
X181818633Y-155050988D01*
X181572720Y-155296901D01*
X181283558Y-155490113D01*
X181283557Y-155490114D01*
X181283556Y-155490114D01*
X180962256Y-155623201D01*
X180621168Y-155691048D01*
X180273392Y-155691048D01*
X179932304Y-155623201D01*
X179611004Y-155490114D01*
X179611003Y-155490114D01*
X179611002Y-155490113D01*
X179321840Y-155296901D01*
X179075927Y-155050988D01*
X178882715Y-154761826D01*
X178844695Y-154670038D01*
X178749627Y-154440524D01*
X178681780Y-154099436D01*
X178681780Y-153751660D01*
X178749627Y-153410572D01*
X178882714Y-153089272D01*
X178889082Y-153079742D01*
X179075927Y-152800108D01*
X179321840Y-152554195D01*
X179611002Y-152360983D01*
X179719965Y-152315849D01*
X179932304Y-152227895D01*
X180273392Y-152160048D01*
X180621168Y-152160048D01*
X180962256Y-152227895D01*
X180962256Y-152227895D01*
G37*
G36*
X127303697Y-152801805D02*
G01*
X127395508Y-152820067D01*
X127504931Y-152865392D01*
X127559644Y-152888055D01*
X127672298Y-152963328D01*
X127707361Y-152986756D01*
X127832985Y-153112380D01*
X127832987Y-153112383D01*
X127931686Y-153260097D01*
X127931686Y-153260098D01*
X127999674Y-153424233D01*
X127999674Y-153424235D01*
X128034333Y-153598477D01*
X128034333Y-153776139D01*
X128017003Y-153863260D01*
X127999674Y-153950383D01*
X127968118Y-154026565D01*
X127931686Y-154114519D01*
X127848640Y-154238807D01*
X127832985Y-154262236D01*
X127707361Y-154387860D01*
X127707358Y-154387862D01*
X127559644Y-154486561D01*
X127504931Y-154509224D01*
X127395508Y-154554549D01*
X127308385Y-154571879D01*
X127221264Y-154589208D01*
X127043602Y-154589208D01*
X126956481Y-154571879D01*
X126869358Y-154554549D01*
X126759935Y-154509224D01*
X126705222Y-154486561D01*
X126557508Y-154387862D01*
X126557505Y-154387860D01*
X126431881Y-154262236D01*
X126416226Y-154238807D01*
X126333180Y-154114519D01*
X126296748Y-154026565D01*
X126265192Y-153950383D01*
X126247862Y-153863260D01*
X126230533Y-153776139D01*
X126230533Y-153598477D01*
X126265192Y-153424235D01*
X126265192Y-153424233D01*
X126333180Y-153260098D01*
X126333180Y-153260097D01*
X126431879Y-153112383D01*
X126431881Y-153112380D01*
X126557505Y-152986756D01*
X126592568Y-152963328D01*
X126705222Y-152888055D01*
X126759935Y-152865392D01*
X126869358Y-152820067D01*
X126961169Y-152801805D01*
X127043602Y-152785408D01*
X127221264Y-152785408D01*
X127303697Y-152801805D01*
X127303697Y-152801805D01*
G37*
G36*
X166496022Y-152779311D02*
G01*
X166583145Y-152796641D01*
X166639699Y-152820067D01*
X166747281Y-152864629D01*
X166858581Y-152938997D01*
X166894998Y-152963330D01*
X167020622Y-153088954D01*
X167020624Y-153088957D01*
X167119323Y-153236671D01*
X167119323Y-153236672D01*
X167187311Y-153400807D01*
X167191971Y-153424235D01*
X167221970Y-153575051D01*
X167221970Y-153752713D01*
X167217310Y-153776139D01*
X167187311Y-153926957D01*
X167160792Y-153990978D01*
X167119323Y-154091093D01*
X167057861Y-154183078D01*
X167020622Y-154238810D01*
X166894998Y-154364434D01*
X166894995Y-154364436D01*
X166747281Y-154463135D01*
X166692568Y-154485798D01*
X166583145Y-154531123D01*
X166496022Y-154548452D01*
X166408901Y-154565782D01*
X166231239Y-154565782D01*
X166144118Y-154548452D01*
X166056995Y-154531123D01*
X165947572Y-154485798D01*
X165892859Y-154463135D01*
X165745145Y-154364436D01*
X165745142Y-154364434D01*
X165619518Y-154238810D01*
X165582279Y-154183078D01*
X165520817Y-154091093D01*
X165479348Y-153990978D01*
X165452829Y-153926957D01*
X165422830Y-153776139D01*
X165418170Y-153752713D01*
X165418170Y-153575051D01*
X165448169Y-153424235D01*
X165452829Y-153400807D01*
X165520817Y-153236672D01*
X165520817Y-153236671D01*
X165619516Y-153088957D01*
X165619518Y-153088954D01*
X165745142Y-152963330D01*
X165781559Y-152938997D01*
X165892859Y-152864629D01*
X166000441Y-152820067D01*
X166056995Y-152796641D01*
X166144118Y-152779311D01*
X166231239Y-152761982D01*
X166408901Y-152761982D01*
X166496022Y-152779311D01*
X166496022Y-152779311D01*
G37*
G36*
X119348502Y-150823870D02*
G01*
X119498327Y-150853672D01*
X119780591Y-150970589D01*
X120034622Y-151140327D01*
X120250658Y-151356363D01*
X120420396Y-151610394D01*
X120537313Y-151892658D01*
X120554183Y-151977469D01*
X120584183Y-152128287D01*
X120596917Y-152192308D01*
X120596917Y-152497828D01*
X120537313Y-152797478D01*
X120420396Y-153079742D01*
X120250658Y-153333773D01*
X120034622Y-153549809D01*
X119780591Y-153719547D01*
X119498327Y-153836464D01*
X119348502Y-153866266D01*
X119198678Y-153896068D01*
X118893156Y-153896068D01*
X118743332Y-153866266D01*
X118593507Y-153836464D01*
X118311243Y-153719547D01*
X118057212Y-153549809D01*
X117841176Y-153333773D01*
X117671438Y-153079742D01*
X117554521Y-152797478D01*
X117494917Y-152497828D01*
X117494917Y-152192308D01*
X117507652Y-152128287D01*
X117537651Y-151977469D01*
X117554521Y-151892658D01*
X117671438Y-151610394D01*
X117841176Y-151356363D01*
X118057212Y-151140327D01*
X118311243Y-150970589D01*
X118593507Y-150853672D01*
X118743332Y-150823870D01*
X118893156Y-150794068D01*
X119198678Y-150794068D01*
X119348502Y-150823870D01*
X119348502Y-150823870D01*
G37*
G36*
X153418989Y-151151059D02*
G01*
X153513175Y-151180530D01*
X153590854Y-151222927D01*
X153599803Y-151227811D01*
X153627296Y-151250779D01*
X153675539Y-151291080D01*
X153737478Y-151367910D01*
X153771771Y-151433437D01*
X153771773Y-151433442D01*
X154078376Y-152192308D01*
X154089896Y-152220823D01*
X154110747Y-152291780D01*
X154119562Y-152390074D01*
X154109033Y-152488199D01*
X154079562Y-152582385D01*
X154032282Y-152669011D01*
X153969012Y-152744749D01*
X153892182Y-152806688D01*
X153804744Y-152852448D01*
X153710059Y-152880271D01*
X153611764Y-152889086D01*
X153513640Y-152878556D01*
X153513638Y-152878555D01*
X153513635Y-152878555D01*
X153478269Y-152867489D01*
X153419454Y-152849086D01*
X153332828Y-152801806D01*
X153257091Y-152738536D01*
X153195152Y-152661705D01*
X153160859Y-152596179D01*
X152842734Y-151808792D01*
X152821883Y-151737835D01*
X152813068Y-151639542D01*
X152823597Y-151541417D01*
X152853068Y-151447231D01*
X152900348Y-151360605D01*
X152900349Y-151360603D01*
X152939521Y-151313713D01*
X152963618Y-151284867D01*
X153040448Y-151222928D01*
X153127886Y-151177168D01*
X153222571Y-151149345D01*
X153320864Y-151140530D01*
X153418989Y-151151059D01*
X153418989Y-151151059D01*
G37*
G36*
X108081664Y-151004068D02*
G01*
X108168787Y-151021397D01*
X108278210Y-151066722D01*
X108332923Y-151089385D01*
X108422661Y-151149346D01*
X108480640Y-151188086D01*
X108606264Y-151313710D01*
X108606266Y-151313713D01*
X108704965Y-151461427D01*
X108704965Y-151461428D01*
X108772953Y-151625563D01*
X108775734Y-151639545D01*
X108802953Y-151776383D01*
X108807612Y-151799809D01*
X108807612Y-151977467D01*
X108772953Y-152151713D01*
X108744331Y-152220812D01*
X108704965Y-152315849D01*
X108621919Y-152440137D01*
X108606264Y-152463566D01*
X108480640Y-152589190D01*
X108480637Y-152589192D01*
X108332923Y-152687891D01*
X108278210Y-152710554D01*
X108168787Y-152755879D01*
X108081664Y-152773208D01*
X107994543Y-152790538D01*
X107816881Y-152790538D01*
X107729760Y-152773208D01*
X107642637Y-152755879D01*
X107533214Y-152710554D01*
X107478501Y-152687891D01*
X107330787Y-152589192D01*
X107330784Y-152589190D01*
X107205160Y-152463566D01*
X107189505Y-152440137D01*
X107106459Y-152315849D01*
X107067093Y-152220812D01*
X107038471Y-152151713D01*
X107003812Y-151977467D01*
X107003812Y-151799809D01*
X107008472Y-151776383D01*
X107035690Y-151639545D01*
X107038471Y-151625563D01*
X107106459Y-151461428D01*
X107106459Y-151461427D01*
X107205158Y-151313713D01*
X107205160Y-151313710D01*
X107330784Y-151188086D01*
X107388763Y-151149346D01*
X107478501Y-151089385D01*
X107533214Y-151066722D01*
X107642637Y-151021397D01*
X107729760Y-151004068D01*
X107816881Y-150986738D01*
X107994543Y-150986738D01*
X108081664Y-151004068D01*
X108081664Y-151004068D01*
G37*
G36*
X185722743Y-150980642D02*
G01*
X185809866Y-150997971D01*
X185866420Y-151021397D01*
X185974002Y-151065959D01*
X186120724Y-151163995D01*
X186121719Y-151164660D01*
X186247343Y-151290284D01*
X186247345Y-151290287D01*
X186346044Y-151438001D01*
X186346044Y-151438002D01*
X186414032Y-151602137D01*
X186418692Y-151625565D01*
X186448691Y-151776381D01*
X186448691Y-151954043D01*
X186444031Y-151977469D01*
X186414032Y-152128287D01*
X186387513Y-152192308D01*
X186346044Y-152292423D01*
X186284582Y-152384408D01*
X186247343Y-152440140D01*
X186121719Y-152565764D01*
X186121716Y-152565766D01*
X185974002Y-152664465D01*
X185919289Y-152687128D01*
X185809866Y-152732453D01*
X185722743Y-152749783D01*
X185635622Y-152767112D01*
X185457960Y-152767112D01*
X185370839Y-152749783D01*
X185283716Y-152732453D01*
X185174293Y-152687128D01*
X185119580Y-152664465D01*
X184971866Y-152565766D01*
X184971863Y-152565764D01*
X184846239Y-152440140D01*
X184809000Y-152384408D01*
X184747538Y-152292423D01*
X184706069Y-152192308D01*
X184679550Y-152128287D01*
X184649551Y-151977469D01*
X184644891Y-151954043D01*
X184644891Y-151776381D01*
X184674890Y-151625565D01*
X184679550Y-151602137D01*
X184747538Y-151438002D01*
X184747538Y-151438001D01*
X184846237Y-151290287D01*
X184846239Y-151290284D01*
X184971863Y-151164660D01*
X184972858Y-151163995D01*
X185119580Y-151065959D01*
X185227162Y-151021397D01*
X185283716Y-150997971D01*
X185370839Y-150980642D01*
X185457960Y-150963312D01*
X185635622Y-150963312D01*
X185722743Y-150980642D01*
X185722743Y-150980642D01*
G37*
G36*
X164653476Y-148832995D02*
G01*
X164904114Y-148882850D01*
X165186378Y-148999767D01*
X165440409Y-149169505D01*
X165656445Y-149385541D01*
X165826183Y-149639572D01*
X165943100Y-149921836D01*
X166002704Y-150221486D01*
X166002704Y-150527006D01*
X165943100Y-150826656D01*
X165826183Y-151108920D01*
X165656445Y-151362951D01*
X165440409Y-151578987D01*
X165186378Y-151748725D01*
X164904114Y-151865642D01*
X164768295Y-151892658D01*
X164604465Y-151925246D01*
X164298943Y-151925246D01*
X164135113Y-151892658D01*
X163999294Y-151865642D01*
X163717030Y-151748725D01*
X163462999Y-151578987D01*
X163246963Y-151362951D01*
X163077225Y-151108920D01*
X162960308Y-150826656D01*
X162900704Y-150527006D01*
X162900704Y-150221486D01*
X162960308Y-149921836D01*
X163077225Y-149639572D01*
X163246963Y-149385541D01*
X163462999Y-149169505D01*
X163717030Y-148999767D01*
X163999294Y-148882850D01*
X164249932Y-148832995D01*
X164298943Y-148823246D01*
X164604465Y-148823246D01*
X164653476Y-148832995D01*
X164653476Y-148832995D01*
G37*
G36*
X134763438Y-148709702D02*
G01*
X134913263Y-148739504D01*
X135195527Y-148856421D01*
X135449558Y-149026159D01*
X135665594Y-149242195D01*
X135835332Y-149496226D01*
X135952249Y-149778490D01*
X136011853Y-150078140D01*
X136011853Y-150383660D01*
X135952249Y-150683310D01*
X135835332Y-150965574D01*
X135665594Y-151219605D01*
X135449558Y-151435641D01*
X135195527Y-151605379D01*
X134913263Y-151722296D01*
X134835163Y-151737831D01*
X134613614Y-151781900D01*
X134308092Y-151781900D01*
X134086543Y-151737831D01*
X134008443Y-151722296D01*
X133726179Y-151605379D01*
X133472148Y-151435641D01*
X133256112Y-151219605D01*
X133086374Y-150965574D01*
X132969457Y-150683310D01*
X132909853Y-150383660D01*
X132909853Y-150078140D01*
X132969457Y-149778490D01*
X133086374Y-149496226D01*
X133256112Y-149242195D01*
X133472148Y-149026159D01*
X133726179Y-148856421D01*
X134008443Y-148739504D01*
X134158268Y-148709702D01*
X134308092Y-148679900D01*
X134613614Y-148679900D01*
X134763438Y-148709702D01*
X134763438Y-148709702D01*
G37*
G36*
X159262181Y-148679900D02*
G01*
X159444060Y-148716078D01*
X159726324Y-148832995D01*
X159980355Y-149002733D01*
X160196391Y-149218769D01*
X160366129Y-149472800D01*
X160483046Y-149755064D01*
X160542650Y-150054714D01*
X160542650Y-150360234D01*
X160483046Y-150659884D01*
X160366129Y-150942148D01*
X160196391Y-151196179D01*
X159980355Y-151412215D01*
X159726324Y-151581953D01*
X159444060Y-151698870D01*
X159326289Y-151722296D01*
X159144411Y-151758474D01*
X158838889Y-151758474D01*
X158657011Y-151722296D01*
X158539240Y-151698870D01*
X158256976Y-151581953D01*
X158002945Y-151412215D01*
X157786909Y-151196179D01*
X157617171Y-150942148D01*
X157500254Y-150659884D01*
X157440650Y-150360234D01*
X157440650Y-150054714D01*
X157500254Y-149755064D01*
X157617171Y-149472800D01*
X157786909Y-149218769D01*
X158002945Y-149002733D01*
X158256976Y-148832995D01*
X158539240Y-148716078D01*
X158721119Y-148679900D01*
X158838889Y-148656474D01*
X159144411Y-148656474D01*
X159262181Y-148679900D01*
X159262181Y-148679900D01*
G37*
G36*
X115536717Y-146911032D02*
G01*
X115686542Y-146940834D01*
X115968806Y-147057751D01*
X116222837Y-147227489D01*
X116438873Y-147443525D01*
X116608611Y-147697556D01*
X116725528Y-147979820D01*
X116785132Y-148279470D01*
X116785132Y-148584990D01*
X116725528Y-148884640D01*
X116608611Y-149166904D01*
X116438873Y-149420935D01*
X116222837Y-149636971D01*
X115968806Y-149806709D01*
X115686542Y-149923626D01*
X115536717Y-149953428D01*
X115386893Y-149983230D01*
X115081371Y-149983230D01*
X114931547Y-149953428D01*
X114781722Y-149923626D01*
X114499458Y-149806709D01*
X114245427Y-149636971D01*
X114029391Y-149420935D01*
X113859653Y-149166904D01*
X113742736Y-148884640D01*
X113683132Y-148584990D01*
X113683132Y-148279470D01*
X113742736Y-147979820D01*
X113859653Y-147697556D01*
X114029391Y-147443525D01*
X114245427Y-147227489D01*
X114499458Y-147057751D01*
X114781722Y-146940834D01*
X114931547Y-146911032D01*
X115081371Y-146881230D01*
X115386893Y-146881230D01*
X115536717Y-146911032D01*
X115536717Y-146911032D01*
G37*
G36*
X121370713Y-146326718D02*
G01*
X120695672Y-147997505D01*
X119024885Y-147322464D01*
X119699926Y-145651677D01*
X121370713Y-146326718D01*
X121370713Y-146326718D01*
G37*
G36*
X174167259Y-147188522D02*
G01*
X172496472Y-147863563D01*
X171821431Y-146192776D01*
X173492218Y-145517735D01*
X174167259Y-147188522D01*
X174167259Y-147188522D01*
G37*
G36*
X117953194Y-144978608D02*
G01*
X118019379Y-144985127D01*
X118189218Y-145036647D01*
X118345743Y-145120312D01*
X118362563Y-145134116D01*
X118482938Y-145232904D01*
X118566200Y-145334361D01*
X118595530Y-145370099D01*
X118679195Y-145526624D01*
X118730715Y-145696463D01*
X118748111Y-145873090D01*
X118730715Y-146049717D01*
X118679195Y-146219556D01*
X118595530Y-146376081D01*
X118592861Y-146379333D01*
X118482938Y-146513276D01*
X118381481Y-146596538D01*
X118345743Y-146625868D01*
X118189218Y-146709533D01*
X118019379Y-146761053D01*
X117953194Y-146767572D01*
X117887012Y-146774090D01*
X117798492Y-146774090D01*
X117732310Y-146767572D01*
X117666125Y-146761053D01*
X117496286Y-146709533D01*
X117339761Y-146625868D01*
X117304023Y-146596538D01*
X117202566Y-146513276D01*
X117092643Y-146379333D01*
X117089974Y-146376081D01*
X117006309Y-146219556D01*
X116954789Y-146049717D01*
X116937393Y-145873090D01*
X116954789Y-145696463D01*
X117006309Y-145526624D01*
X117089974Y-145370099D01*
X117119304Y-145334361D01*
X117202566Y-145232904D01*
X117322941Y-145134116D01*
X117339761Y-145120312D01*
X117496286Y-145036647D01*
X117666125Y-144985127D01*
X117732310Y-144978608D01*
X117798492Y-144972090D01*
X117887012Y-144972090D01*
X117953194Y-144978608D01*
X117953194Y-144978608D01*
G37*
G36*
X175459835Y-144844667D02*
G01*
X175526019Y-144851185D01*
X175695858Y-144902705D01*
X175852383Y-144986370D01*
X175888121Y-145015700D01*
X175989578Y-145098962D01*
X176072840Y-145200419D01*
X176102170Y-145236157D01*
X176185835Y-145392682D01*
X176237355Y-145562521D01*
X176254751Y-145739148D01*
X176237355Y-145915775D01*
X176185835Y-146085614D01*
X176102170Y-146242139D01*
X176072840Y-146277877D01*
X175989578Y-146379334D01*
X175888121Y-146462596D01*
X175852383Y-146491926D01*
X175695858Y-146575591D01*
X175526019Y-146627111D01*
X175459835Y-146633629D01*
X175393652Y-146640148D01*
X175305132Y-146640148D01*
X175238949Y-146633629D01*
X175172765Y-146627111D01*
X175002926Y-146575591D01*
X174846401Y-146491926D01*
X174810663Y-146462596D01*
X174709206Y-146379334D01*
X174625944Y-146277877D01*
X174596614Y-146242139D01*
X174512949Y-146085614D01*
X174461429Y-145915775D01*
X174444033Y-145739148D01*
X174461429Y-145562521D01*
X174512949Y-145392682D01*
X174596614Y-145236157D01*
X174625944Y-145200419D01*
X174709206Y-145098962D01*
X174810663Y-145015700D01*
X174846401Y-144986370D01*
X175002926Y-144902705D01*
X175172765Y-144851185D01*
X175238949Y-144844667D01*
X175305132Y-144838148D01*
X175393652Y-144838148D01*
X175459835Y-144844667D01*
X175459835Y-144844667D01*
G37*
G36*
X115598147Y-144027108D02*
G01*
X115664332Y-144033627D01*
X115834171Y-144085147D01*
X115990696Y-144168812D01*
X116026434Y-144198142D01*
X116127891Y-144281404D01*
X116175271Y-144339138D01*
X116240483Y-144418599D01*
X116324148Y-144575124D01*
X116375668Y-144744963D01*
X116393064Y-144921590D01*
X116375668Y-145098217D01*
X116324148Y-145268056D01*
X116240483Y-145424581D01*
X116237814Y-145427833D01*
X116127891Y-145561776D01*
X116026434Y-145645038D01*
X115990696Y-145674368D01*
X115834171Y-145758033D01*
X115664332Y-145809553D01*
X115598148Y-145816071D01*
X115531965Y-145822590D01*
X115443445Y-145822590D01*
X115377262Y-145816071D01*
X115311078Y-145809553D01*
X115141239Y-145758033D01*
X114984714Y-145674368D01*
X114948976Y-145645038D01*
X114847519Y-145561776D01*
X114737596Y-145427833D01*
X114734927Y-145424581D01*
X114651262Y-145268056D01*
X114599742Y-145098217D01*
X114582346Y-144921590D01*
X114599742Y-144744963D01*
X114651262Y-144575124D01*
X114734927Y-144418599D01*
X114800139Y-144339138D01*
X114847519Y-144281404D01*
X114948976Y-144198142D01*
X114984714Y-144168812D01*
X115141239Y-144085147D01*
X115311078Y-144033627D01*
X115377263Y-144027108D01*
X115443445Y-144020590D01*
X115531965Y-144020590D01*
X115598147Y-144027108D01*
X115598147Y-144027108D01*
G37*
G36*
X177814882Y-143893167D02*
G01*
X177881066Y-143899685D01*
X178050905Y-143951205D01*
X178207430Y-144034870D01*
X178243168Y-144064200D01*
X178344625Y-144147462D01*
X178427887Y-144248919D01*
X178457217Y-144284657D01*
X178540882Y-144441182D01*
X178592402Y-144611021D01*
X178609798Y-144787648D01*
X178592402Y-144964275D01*
X178540882Y-145134114D01*
X178457217Y-145290639D01*
X178427887Y-145326377D01*
X178344625Y-145427834D01*
X178243168Y-145511096D01*
X178207430Y-145540426D01*
X178050905Y-145624091D01*
X177881066Y-145675611D01*
X177814881Y-145682130D01*
X177748699Y-145688648D01*
X177660179Y-145688648D01*
X177593997Y-145682130D01*
X177527812Y-145675611D01*
X177357973Y-145624091D01*
X177201448Y-145540426D01*
X177165710Y-145511096D01*
X177064253Y-145427834D01*
X176980991Y-145326377D01*
X176951661Y-145290639D01*
X176867996Y-145134114D01*
X176816476Y-144964275D01*
X176799080Y-144787648D01*
X176816476Y-144611021D01*
X176867996Y-144441182D01*
X176951661Y-144284657D01*
X176980991Y-144248919D01*
X177064253Y-144147462D01*
X177165710Y-144064200D01*
X177201448Y-144034870D01*
X177357973Y-143951205D01*
X177527812Y-143899685D01*
X177593996Y-143893167D01*
X177660179Y-143886648D01*
X177748699Y-143886648D01*
X177814882Y-143893167D01*
X177814882Y-143893167D01*
G37*
G36*
X113243101Y-143075608D02*
G01*
X113309285Y-143082126D01*
X113479124Y-143133646D01*
X113635649Y-143217311D01*
X113671387Y-143246641D01*
X113772844Y-143329903D01*
X113856106Y-143431360D01*
X113885436Y-143467098D01*
X113969101Y-143623623D01*
X114020621Y-143793462D01*
X114038017Y-143970089D01*
X114020621Y-144146716D01*
X113969101Y-144316555D01*
X113885436Y-144473080D01*
X113882767Y-144476332D01*
X113772844Y-144610275D01*
X113671387Y-144693537D01*
X113635649Y-144722867D01*
X113479124Y-144806532D01*
X113309285Y-144858052D01*
X113243100Y-144864571D01*
X113176918Y-144871089D01*
X113088398Y-144871089D01*
X113022216Y-144864571D01*
X112956031Y-144858052D01*
X112786192Y-144806532D01*
X112629667Y-144722867D01*
X112593929Y-144693537D01*
X112492472Y-144610275D01*
X112382549Y-144476332D01*
X112379880Y-144473080D01*
X112296215Y-144316555D01*
X112244695Y-144146716D01*
X112227299Y-143970089D01*
X112244695Y-143793462D01*
X112296215Y-143623623D01*
X112379880Y-143467098D01*
X112409210Y-143431360D01*
X112492472Y-143329903D01*
X112593929Y-143246641D01*
X112629667Y-143217311D01*
X112786192Y-143133646D01*
X112956031Y-143082126D01*
X113022215Y-143075608D01*
X113088398Y-143069089D01*
X113176918Y-143069089D01*
X113243101Y-143075608D01*
X113243101Y-143075608D01*
G37*
G36*
X180169928Y-142941665D02*
G01*
X180236113Y-142948184D01*
X180405952Y-142999704D01*
X180562477Y-143083369D01*
X180598215Y-143112699D01*
X180699672Y-143195961D01*
X180782934Y-143297418D01*
X180812264Y-143333156D01*
X180895929Y-143489681D01*
X180947449Y-143659520D01*
X180964845Y-143836147D01*
X180947449Y-144012774D01*
X180895929Y-144182613D01*
X180812264Y-144339138D01*
X180782934Y-144374876D01*
X180699672Y-144476333D01*
X180598215Y-144559595D01*
X180562477Y-144588925D01*
X180405952Y-144672590D01*
X180236113Y-144724110D01*
X180169928Y-144730629D01*
X180103746Y-144737147D01*
X180015226Y-144737147D01*
X179949044Y-144730629D01*
X179882859Y-144724110D01*
X179713020Y-144672590D01*
X179556495Y-144588925D01*
X179520757Y-144559595D01*
X179419300Y-144476333D01*
X179336038Y-144374876D01*
X179306708Y-144339138D01*
X179223043Y-144182613D01*
X179171523Y-144012774D01*
X179154127Y-143836147D01*
X179171523Y-143659520D01*
X179223043Y-143489681D01*
X179306708Y-143333156D01*
X179336038Y-143297418D01*
X179419300Y-143195961D01*
X179520757Y-143112699D01*
X179556495Y-143083369D01*
X179713020Y-142999704D01*
X179882859Y-142948184D01*
X179949044Y-142941665D01*
X180015226Y-142935147D01*
X180103746Y-142935147D01*
X180169928Y-142941665D01*
X180169928Y-142941665D01*
G37*
M02*
