M48
; DRILL file {KiCad (5.1.4)-1} date 4/24/2024 8:55:04 PM
; FORMAT={-:-/ absolute / metric / decimal}
; #@! TF.CreationDate,2024-04-24T20:55:04-04:00
; #@! TF.GenerationSoftware,Kicad,Pcbnew,(5.1.4)-1
; #@! TF.FileFunction,NonPlated,1,2,NPTH
FMAT,2
METRIC
T1C0.600
T2C1.702
T3C3.000
T4C3.429
%
G90
G05
T1
X148.164Y-158.137
X153.523Y-155.972
T2
X55.431Y-182.997
X65.631Y-187.117
X120.577Y-169.913
X130.776Y-174.034
X107.906Y-151.889
X118.105Y-156.009
X169.232Y-190.236
X179.431Y-186.115
X175.348Y-155.986
X185.547Y-151.865
X74.457Y-185.291
X84.656Y-189.412
X114.021Y-186.139
X124.22Y-190.259
X127.132Y-153.687
X137.331Y-157.808
X156.121Y-157.785
X166.32Y-153.664
X181.903Y-172.212
X192.102Y-168.091
X188.459Y-188.437
X198.658Y-184.317
X101.35Y-168.114
X111.549Y-172.235
X94.794Y-184.34
X104.994Y-188.461
X162.677Y-174.01
X172.876Y-169.89
X208.796Y-189.388
X218.995Y-185.267
X227.822Y-187.094
X238.021Y-182.973
T3
X62.76Y-179.54
X66.572Y-183.453
X127.905Y-166.457
X131.717Y-170.369
X115.234Y-148.432
X119.046Y-152.345
X172.103Y-182.659
X177.563Y-182.826
X177.216Y-159.276
X182.676Y-159.442
X81.786Y-181.835
X85.598Y-185.747
X121.35Y-182.682
X125.161Y-186.595
X134.461Y-150.231
X138.273Y-154.144
X158.992Y-150.207
X164.452Y-150.374
X183.772Y-175.501
X189.232Y-175.668
X190.327Y-191.727
X195.787Y-191.894
X108.679Y-164.658
X112.49Y-168.571
X102.123Y-180.884
X105.935Y-184.797
X165.547Y-166.433
X171.007Y-166.6
X210.664Y-192.678
X216.124Y-192.845
X229.69Y-190.383
X235.15Y-190.55
T4
X180.447Y-153.926
X79.557Y-187.351
X119.121Y-188.199
X132.232Y-155.748
X161.221Y-155.724
X187.003Y-170.151
X193.559Y-186.377
X106.45Y-170.175
X99.894Y-186.4
X167.776Y-171.95
X213.896Y-187.328
X232.922Y-185.034
X60.531Y-185.057
X125.676Y-171.973
X113.005Y-153.949
X174.332Y-188.176
T0
M30
