M48
; DRILL file {KiCad (5.1.4)-1} date 3/14/2023 2:36:20 PM
; FORMAT={-:-/ absolute / metric / decimal}
; #@! TF.CreationDate,2023-03-14T14:36:20-04:00
; #@! TF.GenerationSoftware,Kicad,Pcbnew,(5.1.4)-1
; #@! TF.FileFunction,NonPlated,1,2,NPTH
FMAT,2
METRIC
T1C0.600
T2C1.702
T3C3.000
T4C3.429
%
G90
G05
T1
X144.43Y-158.422
X150.21Y-158.422
T2
X175.348Y-155.986
X185.547Y-151.865
X55.431Y-182.997
X65.631Y-187.117
X119.627Y-172.263
X129.826Y-176.384
X101.35Y-168.114
X111.549Y-172.235
X126.182Y-156.037
X136.381Y-160.158
X74.457Y-185.291
X84.656Y-189.412
X227.822Y-187.094
X238.021Y-182.973
X163.627Y-176.36
X173.826Y-172.24
X188.459Y-188.437
X198.658Y-184.317
X94.794Y-184.34
X104.994Y-188.461
X157.071Y-160.135
X167.27Y-156.014
X113.071Y-188.489
X123.27Y-192.609
X208.796Y-189.388
X218.995Y-185.267
X181.903Y-172.212
X192.102Y-168.091
X107.906Y-151.889
X118.105Y-156.009
X170.182Y-192.586
X180.381Y-188.465
T3
X210.664Y-192.678
X216.124Y-192.845
X183.772Y-175.501
X189.232Y-175.668
X115.234Y-148.432
X119.046Y-152.345
X172.051Y-195.876
X177.511Y-196.042
X177.216Y-159.276
X182.676Y-159.442
X62.76Y-179.54
X66.572Y-183.453
X126.955Y-168.807
X130.767Y-172.719
X108.679Y-164.658
X112.49Y-168.571
X133.511Y-152.581
X137.323Y-156.494
X81.786Y-181.835
X85.598Y-185.747
X229.69Y-190.383
X235.15Y-190.55
X165.495Y-179.65
X170.955Y-179.817
X190.327Y-191.727
X195.787Y-191.894
X102.123Y-180.884
X105.935Y-184.797
X158.939Y-163.424
X164.399Y-163.591
X120.4Y-185.032
X124.211Y-188.945
T4
X175.282Y-190.526
X180.447Y-153.926
X60.531Y-185.057
X124.726Y-174.323
X106.45Y-170.175
X131.282Y-158.098
X79.557Y-187.351
X232.922Y-185.034
X168.726Y-174.3
X193.559Y-186.377
X99.894Y-186.4
X162.171Y-158.074
X118.171Y-190.549
X213.896Y-187.328
X187.003Y-170.151
X113.005Y-153.949
T0
M30
