G04 #@! TF.GenerationSoftware,KiCad,Pcbnew,(5.1.4)-1*
G04 #@! TF.CreationDate,2023-03-14T14:36:14-04:00*
G04 #@! TF.ProjectId,ThumbsUp,5468756d-6273-4557-902e-6b696361645f,rev?*
G04 #@! TF.SameCoordinates,Original*
G04 #@! TF.FileFunction,Copper,L1,Top*
G04 #@! TF.FilePolarity,Positive*
%FSLAX46Y46*%
G04 Gerber Fmt 4.6, Leading zero omitted, Abs format (unit mm)*
G04 Created by KiCad (PCBNEW (5.1.4)-1) date 2023-03-14 14:36:14*
%MOMM*%
%LPD*%
G04 APERTURE LIST*
%ADD10O,0.900000X1.700000*%
%ADD11O,0.900000X2.000000*%
%ADD12C,1.700000*%
%ADD13C,1.700000*%
%ADD14C,0.100000*%
%ADD15C,2.032000*%
%ADD16R,1.700000X1.700000*%
%ADD17O,1.700000X1.700000*%
%ADD18C,0.800000*%
%ADD19C,0.508000*%
%ADD20C,0.250000*%
%ADD21C,0.200000*%
%ADD22C,0.254000*%
G04 APERTURE END LIST*
D10*
X151640000Y-154732000D03*
X143000000Y-154732000D03*
D11*
X151640000Y-158902000D03*
X143000000Y-158902000D03*
D12*
X194165141Y-177645498D03*
D13*
X194165141Y-177645498D02*
X194165141Y-177645498D01*
D12*
X191810094Y-178596999D03*
D13*
X191810094Y-178596999D02*
X191810094Y-178596999D01*
D12*
X189455047Y-179548499D03*
D13*
X189455047Y-179548499D02*
X189455047Y-179548499D01*
D12*
X187100000Y-180500000D03*
D14*
G36*
X188206522Y-180969691D02*
G01*
X186630309Y-181606522D01*
X185993478Y-180030309D01*
X187569691Y-179393478D01*
X188206522Y-180969691D01*
X188206522Y-180969691D01*
G37*
D12*
X241528381Y-182311090D03*
D14*
G36*
X241058690Y-183417612D02*
G01*
X240421859Y-181841399D01*
X241998072Y-181204568D01*
X242634903Y-182780781D01*
X241058690Y-183417612D01*
X241058690Y-183417612D01*
G37*
D12*
X242479882Y-184666137D03*
D13*
X242479882Y-184666137D02*
X242479882Y-184666137D01*
D12*
X243431382Y-187021184D03*
D13*
X243431382Y-187021184D02*
X243431382Y-187021184D01*
D12*
X244382883Y-189376231D03*
D13*
X244382883Y-189376231D02*
X244382883Y-189376231D01*
D12*
X172994345Y-146690649D03*
D14*
G36*
X174100867Y-147160340D02*
G01*
X172524654Y-147797171D01*
X171887823Y-146220958D01*
X173464036Y-145584127D01*
X174100867Y-147160340D01*
X174100867Y-147160340D01*
G37*
D12*
X175349392Y-145739148D03*
D13*
X175349392Y-145739148D02*
X175349392Y-145739148D01*
D12*
X177704439Y-144787648D03*
D13*
X177704439Y-144787648D02*
X177704439Y-144787648D01*
D12*
X180059486Y-143836147D03*
D13*
X180059486Y-143836147D02*
X180059486Y-143836147D01*
D12*
X180600000Y-164000000D03*
D14*
G36*
X181706522Y-164469691D02*
G01*
X180130309Y-165106522D01*
X179493478Y-163530309D01*
X181069691Y-162893478D01*
X181706522Y-164469691D01*
X181706522Y-164469691D01*
G37*
D12*
X182955047Y-163048499D03*
D13*
X182955047Y-163048499D02*
X182955047Y-163048499D01*
D12*
X185310094Y-162096999D03*
D13*
X185310094Y-162096999D02*
X185310094Y-162096999D01*
D12*
X187665141Y-161145498D03*
D13*
X187665141Y-161145498D02*
X187665141Y-161145498D01*
D12*
X182393643Y-228262834D03*
D13*
X182393643Y-228262834D02*
X182393643Y-228262834D01*
D12*
X180865033Y-226234299D03*
D13*
X180865033Y-226234299D02*
X180865033Y-226234299D01*
D12*
X179336423Y-224205765D03*
D13*
X179336423Y-224205765D02*
X179336423Y-224205765D01*
D12*
X177807813Y-222177231D03*
D14*
G36*
X177640516Y-223367614D02*
G01*
X176617430Y-222009934D01*
X177975110Y-220986848D01*
X178998196Y-222344528D01*
X177640516Y-223367614D01*
X177640516Y-223367614D01*
G37*
D15*
X236133916Y-179637189D03*
X230711323Y-179563136D03*
X183659694Y-148529216D03*
X178237101Y-148455163D03*
X190215309Y-164754933D03*
X184792716Y-164680880D03*
X196770924Y-180980651D03*
X191348331Y-180906598D03*
X217107982Y-181931492D03*
X211685389Y-181857439D03*
D12*
X205515141Y-215597906D03*
D13*
X205515141Y-215597906D02*
X205515141Y-215597906D01*
D12*
X207543676Y-214069296D03*
D13*
X207543676Y-214069296D02*
X207543676Y-214069296D01*
D12*
X209572210Y-212540686D03*
D13*
X209572210Y-212540686D02*
X209572210Y-212540686D01*
D12*
X211600744Y-211012076D03*
D14*
G36*
X210410361Y-210844779D02*
G01*
X211768041Y-209821693D01*
X212791127Y-211179373D01*
X211433447Y-212202459D01*
X210410361Y-210844779D01*
X210410361Y-210844779D01*
G37*
D12*
X87992618Y-215751511D03*
D13*
X87992618Y-215751511D02*
X87992618Y-215751511D01*
D12*
X85964083Y-214222901D03*
D13*
X85964083Y-214222901D02*
X85964083Y-214222901D01*
D12*
X83935549Y-212694291D03*
D13*
X83935549Y-212694291D02*
X83935549Y-212694291D01*
D12*
X81907015Y-211165681D03*
D14*
G36*
X82074312Y-212356064D02*
G01*
X80716632Y-211332978D01*
X81739718Y-209975298D01*
X83097398Y-210998384D01*
X82074312Y-212356064D01*
X82074312Y-212356064D01*
G37*
D12*
X52395205Y-182503276D03*
D14*
G36*
X51288683Y-182972967D02*
G01*
X51925514Y-181396754D01*
X53501727Y-182033585D01*
X52864896Y-183609798D01*
X51288683Y-182972967D01*
X51288683Y-182972967D01*
G37*
D12*
X51443704Y-184858323D03*
D13*
X51443704Y-184858323D02*
X51443704Y-184858323D01*
D12*
X50492204Y-187213370D03*
D13*
X50492204Y-187213370D02*
X50492204Y-187213370D01*
D12*
X49540703Y-189568417D03*
D13*
X49540703Y-189568417D02*
X49540703Y-189568417D01*
D12*
X120197799Y-146824591D03*
D14*
G36*
X119728108Y-145718069D02*
G01*
X121304321Y-146354900D01*
X120667490Y-147931113D01*
X119091277Y-147294282D01*
X119728108Y-145718069D01*
X119728108Y-145718069D01*
G37*
D12*
X117842752Y-145873090D03*
D13*
X117842752Y-145873090D02*
X117842752Y-145873090D01*
D12*
X115487705Y-144921590D03*
D13*
X115487705Y-144921590D02*
X115487705Y-144921590D01*
D12*
X113132658Y-143970089D03*
D13*
X113132658Y-143970089D02*
X113132658Y-143970089D01*
D12*
X113658765Y-163138249D03*
D14*
G36*
X113189074Y-162031727D02*
G01*
X114765287Y-162668558D01*
X114128456Y-164244771D01*
X112552243Y-163607940D01*
X113189074Y-162031727D01*
X113189074Y-162031727D01*
G37*
D12*
X111303718Y-162186748D03*
D13*
X111303718Y-162186748D02*
X111303718Y-162186748D01*
D12*
X108948671Y-161235248D03*
D13*
X108948671Y-161235248D02*
X108948671Y-161235248D01*
D12*
X106593624Y-160283747D03*
D13*
X106593624Y-160283747D02*
X106593624Y-160283747D01*
D12*
X99778867Y-176283747D03*
D13*
X99778867Y-176283747D02*
X99778867Y-176283747D01*
D12*
X102133914Y-177235248D03*
D13*
X102133914Y-177235248D02*
X102133914Y-177235248D01*
D12*
X104488961Y-178186748D03*
D13*
X104488961Y-178186748D02*
X104488961Y-178186748D01*
D12*
X106844008Y-179138249D03*
D14*
G36*
X106374317Y-178031727D02*
G01*
X107950530Y-178668558D01*
X107313699Y-180244771D01*
X105737486Y-179607940D01*
X106374317Y-178031727D01*
X106374317Y-178031727D01*
G37*
D15*
X106945799Y-155599240D03*
X110795044Y-159419359D03*
X171938588Y-168903604D03*
X166515995Y-168829551D03*
X54471576Y-186707213D03*
X58320821Y-190527332D03*
X73497510Y-189001516D03*
X77346755Y-192821635D03*
X93834568Y-188050675D03*
X97683813Y-191870794D03*
X178494203Y-185129321D03*
X173071610Y-185055268D03*
X125222520Y-159747910D03*
X129071765Y-163568029D03*
X112111289Y-192199345D03*
X115960534Y-196019464D03*
X118666904Y-175973628D03*
X122516149Y-179793747D03*
X165382973Y-152677886D03*
X159960380Y-152603833D03*
X100390183Y-171824957D03*
X104239428Y-175645076D03*
D12*
X101828320Y-226087050D03*
D13*
X101828320Y-226087050D02*
X101828320Y-226087050D01*
D12*
X99799785Y-224558440D03*
D13*
X99799785Y-224558440D02*
X99799785Y-224558440D01*
D12*
X97771251Y-223029830D03*
D13*
X97771251Y-223029830D02*
X97771251Y-223029830D01*
D12*
X95742717Y-221501220D03*
D14*
G36*
X95910014Y-222691603D02*
G01*
X94552334Y-221668517D01*
X95575420Y-220310837D01*
X96933100Y-221333923D01*
X95910014Y-222691603D01*
X95910014Y-222691603D01*
G37*
D16*
X146658765Y-172638249D03*
D17*
X146658765Y-175178249D03*
X146658765Y-177718249D03*
X146658765Y-180258249D03*
D12*
X191716901Y-226026163D03*
D14*
G36*
X192907284Y-226193460D02*
G01*
X191549604Y-227216546D01*
X190526518Y-225858866D01*
X191884198Y-224835780D01*
X192907284Y-226193460D01*
X192907284Y-226193460D01*
G37*
D12*
X193745435Y-224497553D03*
D13*
X193745435Y-224497553D02*
X193745435Y-224497553D01*
D12*
X195773969Y-222968943D03*
D13*
X195773969Y-222968943D02*
X195773969Y-222968943D01*
D12*
X197802504Y-221440333D03*
D13*
X197802504Y-221440333D02*
X197802504Y-221440333D01*
D12*
X110834284Y-228461436D03*
D13*
X110834284Y-228461436D02*
X110834284Y-228461436D01*
D12*
X112362894Y-226432901D03*
D13*
X112362894Y-226432901D02*
X112362894Y-226432901D01*
D12*
X113891504Y-224404367D03*
D13*
X113891504Y-224404367D02*
X113891504Y-224404367D01*
D12*
X115420114Y-222375833D03*
D14*
G36*
X114229731Y-222543130D02*
G01*
X115252817Y-221185450D01*
X116610497Y-222208536D01*
X115587411Y-223566216D01*
X114229731Y-222543130D01*
X114229731Y-222543130D01*
G37*
D18*
X142494000Y-194622000D03*
X148844000Y-226060000D03*
X148844000Y-226060000D03*
X136906000Y-200914000D03*
X137668000Y-210566000D03*
X149098000Y-207518000D03*
X149098000Y-207518000D03*
X143002000Y-209550000D03*
X143002000Y-209550000D03*
X160528000Y-222885000D03*
X149002895Y-222688945D03*
X155448000Y-213614000D03*
X138303000Y-229108000D03*
X138684000Y-221107004D03*
X157353000Y-220091000D03*
X149098000Y-219964020D03*
X156215910Y-211345040D03*
X150622006Y-162052000D03*
X144945825Y-167551825D03*
X143980000Y-198450000D03*
X143888773Y-169872800D03*
X137318750Y-178593750D03*
X151892000Y-185420000D03*
X153416000Y-200152000D03*
X137318750Y-176212500D03*
X137318750Y-173831250D03*
X137318750Y-171450000D03*
X131762500Y-193675000D03*
X154656250Y-197074250D03*
X154686000Y-200106010D03*
X131762500Y-191293750D03*
X131762500Y-188912500D03*
X131762500Y-186531250D03*
X108743750Y-204787500D03*
X111125000Y-204787500D03*
X113506250Y-204787500D03*
X115887500Y-204787500D03*
X88900000Y-189706250D03*
X103981250Y-204787500D03*
X69550000Y-187850000D03*
X101600000Y-204787500D03*
X137318750Y-180975000D03*
X131762500Y-196056250D03*
X106362500Y-204787500D03*
X118268750Y-204787500D03*
X180100000Y-190850000D03*
X177800000Y-203993750D03*
X157162500Y-180975000D03*
X159543750Y-196056250D03*
X189706250Y-203993750D03*
X157162500Y-178593750D03*
X157162500Y-176212500D03*
X157162500Y-173831250D03*
X157162500Y-171450000D03*
X159427966Y-193559215D03*
X159543750Y-191293750D03*
X159543750Y-188912500D03*
X159543750Y-186531250D03*
X187283098Y-203951848D03*
X184943750Y-203993750D03*
X182562500Y-203993750D03*
X180181250Y-203993750D03*
X98263033Y-213166187D03*
X57900000Y-180200000D03*
X97825061Y-213983213D03*
X99218750Y-201612500D03*
X99166840Y-212960070D03*
X99331698Y-216472275D03*
X198823946Y-187873946D03*
X194056000Y-216408006D03*
X180150002Y-192450000D03*
X201612500Y-200818750D03*
X199644000Y-195834000D03*
X193541787Y-217433320D03*
X193039996Y-218440000D03*
X192532000Y-219456000D03*
X149666000Y-161544000D03*
X143256000Y-161544000D03*
X143256000Y-161544000D03*
X140658000Y-213926000D03*
X140658000Y-213926000D03*
X148749977Y-224473011D03*
X153670000Y-213487000D03*
X140658000Y-221176000D03*
X153670000Y-220980000D03*
X140990000Y-199076000D03*
X141732000Y-209550000D03*
X141732000Y-209550000D03*
X149352000Y-204978000D03*
X147778672Y-211786672D03*
X144272000Y-225063000D03*
X142367000Y-211420000D03*
X151892000Y-210312000D03*
X145796000Y-191516004D03*
X145484000Y-206110000D03*
X147066008Y-191516000D03*
X146224000Y-205505010D03*
X134366000Y-203962000D03*
X133096000Y-225806000D03*
X143510000Y-227076000D03*
X130556000Y-228092000D03*
X98044000Y-214884000D03*
X98701468Y-215791519D03*
X192033796Y-220465080D03*
X191516000Y-221488000D03*
D19*
X148844000Y-226060000D02*
X141732000Y-226060000D01*
X141732000Y-226060000D02*
X139700000Y-224028000D01*
X139700000Y-224028000D02*
X138938000Y-223266000D01*
X138938000Y-223266000D02*
X138684000Y-223012000D01*
X146050000Y-210566000D02*
X149098000Y-207518000D01*
X143002000Y-210566000D02*
X143002000Y-209550000D01*
X145542000Y-210566000D02*
X146050000Y-210566000D01*
X143002000Y-210566000D02*
X145542000Y-210566000D01*
X151257000Y-207645000D02*
X155448000Y-211836000D01*
X146050000Y-210566000D02*
X148971000Y-207645000D01*
X148971000Y-207645000D02*
X151257000Y-207645000D01*
X155448000Y-218186000D02*
X155448000Y-216662000D01*
X160528000Y-222885000D02*
X160147000Y-222885000D01*
X160147000Y-222885000D02*
X155448000Y-218186000D01*
X155448000Y-213614000D02*
X155448000Y-216662000D01*
X155448000Y-211836000D02*
X155448000Y-213614000D01*
X138684000Y-223012000D02*
X138684000Y-228854000D01*
X138684000Y-228854000D02*
X138430000Y-229108000D01*
X138430000Y-229108000D02*
X138303000Y-229108000D01*
X137668000Y-210566000D02*
X138557000Y-210566000D01*
X138557000Y-210566000D02*
X143002000Y-210566000D01*
X138684000Y-223012000D02*
X138684000Y-221107004D01*
X155448000Y-218186000D02*
X157353000Y-220091000D01*
X135636000Y-210566000D02*
X137668000Y-210566000D01*
X136906000Y-200914000D02*
X135636000Y-202184000D01*
X135636000Y-202184000D02*
X135636000Y-210566000D01*
X138557000Y-210566000D02*
X135636000Y-210566000D01*
X136271004Y-221107004D02*
X138684000Y-221107004D01*
X135636000Y-210566000D02*
X135636000Y-220472000D01*
X135636000Y-220472000D02*
X136271004Y-221107004D01*
X149002895Y-222688945D02*
X149002895Y-220059125D01*
X150967982Y-221834002D02*
X149497999Y-220364019D01*
X149497999Y-220364019D02*
X149098000Y-219964020D01*
X154079922Y-221834002D02*
X150967982Y-221834002D01*
X155448000Y-218186000D02*
X155448000Y-220465924D01*
X149002895Y-220059125D02*
X149098000Y-219964020D01*
X155448000Y-220465924D02*
X154079922Y-221834002D01*
X155724950Y-211836000D02*
X155448000Y-211836000D01*
X156215910Y-211345040D02*
X155724950Y-211836000D01*
X183134000Y-227522477D02*
X182393643Y-228262834D01*
X183134000Y-223774000D02*
X183134000Y-227522477D01*
X178816000Y-219456000D02*
X183134000Y-223774000D01*
X160528000Y-222885000D02*
X163957000Y-219456000D01*
X163957000Y-219456000D02*
X178816000Y-219456000D01*
X142494000Y-170003651D02*
X150045652Y-162451999D01*
X142494000Y-194622000D02*
X142494000Y-170003651D01*
X150222007Y-162451999D02*
X150622006Y-162052000D01*
X150045652Y-162451999D02*
X150222007Y-162451999D01*
X143980000Y-169964027D02*
X143888773Y-169872800D01*
X143980000Y-198450000D02*
X143980000Y-169964027D01*
D20*
X134593761Y-175868761D02*
X134593761Y-173172832D01*
X137318750Y-178593750D02*
X134593761Y-175868761D01*
X134593761Y-173172832D02*
X120993737Y-159572809D01*
X113132658Y-149031758D02*
X113132658Y-143970089D01*
X120993737Y-159572809D02*
X120993737Y-156892837D01*
X120993737Y-156892837D02*
X113132658Y-149031758D01*
D21*
X151892000Y-198628000D02*
X153016001Y-199752001D01*
X153016001Y-199752001D02*
X153416000Y-200152000D01*
X151892000Y-185420000D02*
X151892000Y-198628000D01*
D20*
X137318750Y-176212500D02*
X137318750Y-175261411D01*
X116337704Y-145771589D02*
X115487705Y-144921590D01*
X121443748Y-151606248D02*
X116337704Y-146500204D01*
X116337704Y-146500204D02*
X116337704Y-145771589D01*
X137318750Y-175261411D02*
X121443748Y-159386409D01*
X121443748Y-159386409D02*
X121443748Y-151606248D01*
X117842752Y-147075171D02*
X117842752Y-145873090D01*
X121893759Y-151126178D02*
X117842752Y-147075171D01*
X121893759Y-159200009D02*
X121893759Y-151126178D01*
X137318750Y-173831250D02*
X136525000Y-173831250D01*
X136525000Y-173831250D02*
X121893759Y-159200009D01*
X122343770Y-153938979D02*
X122343770Y-148970562D01*
X137318750Y-171450000D02*
X137318750Y-168913959D01*
X137318750Y-168913959D02*
X122343770Y-153938979D01*
X122343770Y-148970562D02*
X120197799Y-146824591D01*
X131762500Y-192723910D02*
X115701099Y-176662509D01*
X131762500Y-193675000D02*
X131762500Y-192723910D01*
X106593624Y-160900126D02*
X106593624Y-160283747D01*
X115701099Y-176662509D02*
X108457186Y-176662509D01*
X108457186Y-176662509D02*
X103187500Y-171392822D01*
X103187500Y-171392822D02*
X103187500Y-164306250D01*
X103187500Y-164306250D02*
X106593624Y-160900126D01*
D21*
X154656250Y-197074250D02*
X154656250Y-200076260D01*
X154656250Y-200076260D02*
X154686000Y-200106010D01*
D20*
X106362500Y-161925000D02*
X108258919Y-161925000D01*
X130968750Y-191293750D02*
X115887498Y-176212498D01*
X108258919Y-161925000D02*
X108948671Y-161235248D01*
X131762500Y-191293750D02*
X130968750Y-191293750D01*
X115887498Y-176212498D02*
X108743748Y-176212498D01*
X108743748Y-176212498D02*
X103637510Y-171106260D01*
X103637510Y-171106260D02*
X103637510Y-164649990D01*
X103637510Y-164649990D02*
X106362500Y-161925000D01*
X118532281Y-164569781D02*
X112484670Y-164569781D01*
X131762500Y-188912500D02*
X127343740Y-184493740D01*
X112484670Y-164569781D02*
X111303718Y-163388829D01*
X127343740Y-184493740D02*
X127343740Y-173381240D01*
X127343740Y-173381240D02*
X118532281Y-164569781D01*
X111303718Y-163388829D02*
X111303718Y-162186748D01*
X117737160Y-163138249D02*
X113658765Y-163138249D01*
X127793751Y-173194840D02*
X117737160Y-163138249D01*
X127793751Y-182562501D02*
X127793751Y-173194840D01*
X131762500Y-186531250D02*
X127793751Y-182562501D01*
X108743750Y-200818750D02*
X108743750Y-204787500D01*
X98768739Y-177293875D02*
X98768739Y-181240070D01*
X99778867Y-176283747D02*
X98768739Y-177293875D01*
X98768739Y-181240070D02*
X102393750Y-184865081D01*
X102393750Y-184865081D02*
X102393750Y-194468750D01*
X102393750Y-194468750D02*
X108743750Y-200818750D01*
X111125000Y-202406250D02*
X111125000Y-204787500D01*
X102133914Y-177235248D02*
X99218750Y-180150412D01*
X102843761Y-184678681D02*
X102843761Y-194125011D01*
X102843761Y-194125011D02*
X111125000Y-202406250D01*
X99218750Y-181053671D02*
X102843761Y-184678681D01*
X99218750Y-180150412D02*
X99218750Y-181053671D01*
X113506250Y-200504071D02*
X113506250Y-204787500D01*
X110320277Y-197318098D02*
X113506250Y-200504071D01*
X110320277Y-185585322D02*
X110320277Y-197318098D01*
X104488961Y-179754006D02*
X110320277Y-185585322D01*
X104488961Y-178186748D02*
X104488961Y-179754006D01*
X110770288Y-183064529D02*
X110770288Y-197131698D01*
X110770288Y-197131698D02*
X115887500Y-202248910D01*
X115887500Y-202248910D02*
X115887500Y-204787500D01*
X106844008Y-179138249D02*
X110770288Y-183064529D01*
X103981250Y-201612500D02*
X103981250Y-204787500D01*
X100806250Y-198437500D02*
X103981250Y-201612500D01*
X97631250Y-198437500D02*
X100806250Y-198437500D01*
X88900000Y-189706250D02*
X97631250Y-198437500D01*
X101600000Y-200025000D02*
X101600000Y-204787500D01*
X70202000Y-187198000D02*
X75438000Y-187198000D01*
X69550000Y-187850000D02*
X70202000Y-187198000D01*
X75438000Y-187198000D02*
X87471250Y-199231250D01*
X87471250Y-199231250D02*
X100806250Y-199231250D01*
X100806250Y-199231250D02*
X101600000Y-200025000D01*
X137318750Y-180975000D02*
X134143750Y-177800000D01*
X134143750Y-177800000D02*
X134143750Y-173359232D01*
X134143750Y-173359232D02*
X118740768Y-157956250D01*
X118740768Y-157956250D02*
X109302809Y-157956250D01*
X109302809Y-157956250D02*
X106945799Y-155599240D01*
X102983224Y-171824957D02*
X100390183Y-171824957D01*
X115514699Y-177112520D02*
X108270787Y-177112520D01*
X127554215Y-189152036D02*
X115514699Y-177112520D01*
X127554215Y-191847965D02*
X127554215Y-189152036D01*
X131762500Y-196056250D02*
X127554215Y-191847965D01*
X108270787Y-177112520D02*
X102983224Y-171824957D01*
X106362500Y-203200000D02*
X106362500Y-204787500D01*
X100806250Y-197643750D02*
X106362500Y-203200000D01*
X100012500Y-197643750D02*
X100806250Y-197643750D01*
X93834568Y-188050675D02*
X93834568Y-191465818D01*
X93834568Y-191465818D02*
X100012500Y-197643750D01*
X118268750Y-203993750D02*
X118268750Y-204787500D01*
X112111289Y-192199345D02*
X112111289Y-197836289D01*
X112111289Y-197836289D02*
X118268750Y-203993750D01*
X178494203Y-189244203D02*
X178494203Y-185129321D01*
X180100000Y-190850000D02*
X178494203Y-189244203D01*
X183134000Y-198659750D02*
X177800000Y-203993750D01*
X183134000Y-193884000D02*
X183134000Y-198659750D01*
X180100000Y-190850000D02*
X183134000Y-193884000D01*
X157162500Y-180975000D02*
X159543750Y-178593750D01*
X159543750Y-173447428D02*
X161991189Y-170999989D01*
X161991189Y-170999989D02*
X162073998Y-170999989D01*
X181064103Y-148529216D02*
X183659694Y-148529216D01*
X162073998Y-170999989D02*
X170418783Y-162655204D01*
X170418783Y-162655204D02*
X170418783Y-159174536D01*
X170418783Y-159174536D02*
X181064103Y-148529216D01*
X159543750Y-178593750D02*
X159543750Y-173447428D01*
X187980384Y-165770932D02*
X189199310Y-165770932D01*
X189199310Y-165770932D02*
X190215309Y-164754933D01*
X180975000Y-169862500D02*
X183888816Y-169862500D01*
X178054000Y-177546000D02*
X178054000Y-172783500D01*
X159543750Y-196056250D02*
X178054000Y-177546000D01*
X178054000Y-172783500D02*
X180975000Y-169862500D01*
X183888816Y-169862500D02*
X187980384Y-165770932D01*
X196770924Y-187404076D02*
X196770924Y-180980651D01*
X192881250Y-191293750D02*
X196770924Y-187404076D01*
X189706250Y-203993750D02*
X192881250Y-200818750D01*
X192881250Y-200818750D02*
X192881250Y-191293750D01*
X180059486Y-148897422D02*
X180059486Y-143836147D01*
X157162500Y-178593750D02*
X159093739Y-176662511D01*
X169968772Y-158988136D02*
X180059486Y-148897422D01*
X169968772Y-162297800D02*
X169968772Y-158988136D01*
X159093739Y-173172833D02*
X169968772Y-162297800D01*
X159093739Y-176662511D02*
X159093739Y-173172833D01*
X177800000Y-144883209D02*
X177704439Y-144787648D01*
X177800000Y-146050000D02*
X177800000Y-144883209D01*
X176212500Y-147637500D02*
X177800000Y-146050000D01*
X158643732Y-174731268D02*
X158643732Y-172986428D01*
X157162500Y-176212500D02*
X158643732Y-174731268D01*
X158643732Y-172986428D02*
X169518761Y-162111400D01*
X169518761Y-162111400D02*
X169518761Y-158801738D01*
X169518761Y-158801738D02*
X176212500Y-152107999D01*
X176212500Y-152107999D02*
X176212500Y-147637500D01*
X175349392Y-152334697D02*
X175349392Y-145739148D01*
X169068750Y-158615339D02*
X175349392Y-152334697D01*
X169068750Y-161925000D02*
X169068750Y-158615339D01*
X157162500Y-173831250D02*
X169068750Y-161925000D01*
X172994345Y-154030655D02*
X172994345Y-146690649D01*
X161925000Y-161925000D02*
X165893750Y-157956250D01*
X165893750Y-157956250D02*
X169068750Y-157956250D01*
X157162500Y-171450000D02*
X161925000Y-166687500D01*
X169068750Y-157956250D02*
X172994345Y-154030655D01*
X161925000Y-166687500D02*
X161925000Y-161925000D01*
X177603989Y-176980011D02*
X161024785Y-193559215D01*
X177603989Y-172597100D02*
X177603989Y-176980011D01*
X161024785Y-193559215D02*
X159427966Y-193559215D01*
X183702416Y-169412489D02*
X180788600Y-169412489D01*
X187665141Y-165449764D02*
X183702416Y-169412489D01*
X187665141Y-161145498D02*
X187665141Y-165449764D01*
X180788600Y-169412489D02*
X177603989Y-172597100D01*
X186531250Y-163318155D02*
X185310094Y-162096999D01*
X186531250Y-165947244D02*
X186531250Y-163318155D01*
X183516016Y-168962478D02*
X186531250Y-165947244D01*
X168275000Y-182562500D02*
X168275000Y-178833285D01*
X159543750Y-191293750D02*
X168275000Y-182562500D01*
X168275000Y-178833285D02*
X172483285Y-174625000D01*
X172483285Y-174625000D02*
X174939678Y-174625000D01*
X174939678Y-174625000D02*
X180602200Y-168962478D01*
X180602200Y-168962478D02*
X183516016Y-168962478D01*
X182955047Y-164550114D02*
X182955047Y-163048499D01*
X176810545Y-170694616D02*
X182955047Y-164550114D01*
X172955300Y-170694616D02*
X176810545Y-170694616D01*
X171749906Y-171900011D02*
X172955300Y-170694616D01*
X162363989Y-171900011D02*
X171749906Y-171900011D01*
X160443772Y-173820228D02*
X162363989Y-171900011D01*
X160443772Y-188012478D02*
X160443772Y-173820228D01*
X159543750Y-188912500D02*
X160443772Y-188012478D01*
X179013505Y-164000000D02*
X171563506Y-171450000D01*
X159993761Y-186081239D02*
X159543750Y-186531250D01*
X159993761Y-173633828D02*
X159993761Y-186081239D01*
X162177589Y-171450000D02*
X159993761Y-173633828D01*
X171563506Y-171450000D02*
X162177589Y-171450000D01*
X180600000Y-164000000D02*
X179013505Y-164000000D01*
X184943750Y-201612500D02*
X187283098Y-203951848D01*
X184943750Y-184658000D02*
X184943750Y-201612500D01*
X190611121Y-184658000D02*
X184943750Y-184658000D01*
X194165141Y-181103980D02*
X190611121Y-184658000D01*
X194165141Y-177645498D02*
X194165141Y-181103980D01*
X184493739Y-203543739D02*
X184943750Y-203993750D01*
X184757350Y-184207989D02*
X184493739Y-184471600D01*
X190311584Y-184207989D02*
X184757350Y-184207989D01*
X193675000Y-180461905D02*
X193675000Y-180844573D01*
X193675000Y-180844573D02*
X190311584Y-184207989D01*
X191810094Y-178596999D02*
X193675000Y-180461905D01*
X184493739Y-184471600D02*
X184493739Y-203543739D01*
X184034022Y-202522228D02*
X182562500Y-203993750D01*
X184034022Y-184294906D02*
X184034022Y-202522228D01*
X184570950Y-183757978D02*
X184034022Y-184294906D01*
X189455047Y-179548499D02*
X189455047Y-183757978D01*
X189455047Y-183757978D02*
X184570950Y-183757978D01*
X187100000Y-180500000D02*
X183584011Y-184015989D01*
X183584011Y-184015989D02*
X183584011Y-200590989D01*
X183584011Y-200590989D02*
X180181250Y-203993750D01*
D22*
X75840239Y-194328151D02*
X77346755Y-192821635D01*
X75840239Y-194828510D02*
X75840239Y-194328151D01*
D20*
X75840239Y-195220239D02*
X75840239Y-194828510D01*
X93645288Y-213025288D02*
X75840239Y-195220239D01*
D22*
X93645288Y-213025288D02*
X93786187Y-213166187D01*
X93786187Y-213166187D02*
X97697348Y-213166187D01*
X97697348Y-213166187D02*
X98263033Y-213166187D01*
D20*
X58320821Y-190527332D02*
X57304822Y-189511333D01*
X57304822Y-180795178D02*
X57900000Y-180200000D01*
X57304822Y-189511333D02*
X57304822Y-184595178D01*
X57304822Y-184595178D02*
X57304822Y-180795178D01*
X72264410Y-192278000D02*
X93854410Y-213868000D01*
X60071489Y-192278000D02*
X72264410Y-192278000D01*
X58320821Y-190527332D02*
X60071489Y-192278000D01*
X57304822Y-185066822D02*
X57304822Y-184595178D01*
X51443704Y-184858323D02*
X57096323Y-184858323D01*
X57096323Y-184858323D02*
X57304822Y-185066822D01*
D22*
X97709848Y-213868000D02*
X97825061Y-213983213D01*
X93917205Y-213868000D02*
X97709848Y-213868000D01*
D20*
X99218750Y-212908160D02*
X99166840Y-212960070D01*
X99218750Y-201612500D02*
X99218750Y-212908160D01*
X104239428Y-175645076D02*
X103550000Y-174955648D01*
X81907015Y-211165681D02*
X89150431Y-211165681D01*
X89150431Y-211165681D02*
X94457025Y-216472275D01*
X94457025Y-216472275D02*
X98766013Y-216472275D01*
X98766013Y-216472275D02*
X99331698Y-216472275D01*
X191856598Y-180906598D02*
X191348331Y-180906598D01*
X198823946Y-211640060D02*
X194455999Y-216008007D01*
X194455999Y-216008007D02*
X194056000Y-216408006D01*
X198823946Y-187873946D02*
X198823946Y-211640060D01*
X173071610Y-185055268D02*
X180150002Y-192133660D01*
X180150002Y-192133660D02*
X180150002Y-192450000D01*
X201612500Y-197802500D02*
X200043999Y-196233999D01*
X200043999Y-196233999D02*
X199644000Y-195834000D01*
X201612500Y-200818750D02*
X201612500Y-197802500D01*
D21*
X194808680Y-217433320D02*
X194107472Y-217433320D01*
X201612500Y-210629500D02*
X194808680Y-217433320D01*
X201612500Y-200818750D02*
X201612500Y-210629500D01*
X194107472Y-217433320D02*
X193541787Y-217433320D01*
D20*
X211757439Y-181857439D02*
X211685389Y-181857439D01*
X211685389Y-181857439D02*
X219075000Y-189247050D01*
X219075000Y-189247050D02*
X219075000Y-193732677D01*
X193605681Y-218440000D02*
X193039996Y-218440000D01*
X194367677Y-218440000D02*
X193605681Y-218440000D01*
X219075000Y-193732677D02*
X194367677Y-218440000D01*
X232249551Y-178024908D02*
X230711323Y-179563136D01*
X241277801Y-184666137D02*
X239712500Y-183100836D01*
X242479882Y-184666137D02*
X241277801Y-184666137D01*
X239712500Y-183100836D02*
X239712500Y-180181250D01*
X239712500Y-180181250D02*
X237331250Y-177800000D01*
X237331250Y-177800000D02*
X232806219Y-177800000D01*
X232806219Y-177800000D02*
X232249551Y-178024908D01*
X193097685Y-219456000D02*
X192532000Y-219456000D01*
X219525011Y-190749448D02*
X219525011Y-193904667D01*
X230711323Y-179563136D02*
X219525011Y-190749448D01*
X219525011Y-193904667D02*
X193973678Y-219456000D01*
X193973678Y-219456000D02*
X193097685Y-219456000D01*
X180865033Y-226234299D02*
X180849484Y-226218750D01*
D19*
X149666000Y-161544000D02*
X143256000Y-161544000D01*
X175512033Y-224473011D02*
X177807813Y-222177231D01*
X148749977Y-224473011D02*
X175512033Y-224473011D01*
X140658000Y-213926000D02*
X140658000Y-221176000D01*
X148749977Y-224473011D02*
X145452966Y-221176000D01*
X145452966Y-221176000D02*
X141223685Y-221176000D01*
X141223685Y-221176000D02*
X140658000Y-221176000D01*
X153670000Y-213487000D02*
X153670000Y-220980000D01*
X140970000Y-208788000D02*
X141732000Y-209550000D01*
X140990000Y-199076000D02*
X140970000Y-199096000D01*
X140970000Y-207264000D02*
X147066000Y-207264000D01*
X140970000Y-207264000D02*
X140970000Y-208788000D01*
X140970000Y-199096000D02*
X140970000Y-207264000D01*
X147066000Y-207264000D02*
X149352000Y-204978000D01*
X147828000Y-211836000D02*
X147778672Y-211786672D01*
X153670000Y-213487000D02*
X152019000Y-211836000D01*
X152019000Y-211836000D02*
X147828000Y-211836000D01*
X147378673Y-212186671D02*
X147778672Y-211786672D01*
X147221344Y-212344000D02*
X147378673Y-212186671D01*
X140658000Y-213926000D02*
X142240000Y-212344000D01*
X142240000Y-212344000D02*
X147221344Y-212344000D01*
D21*
X140030999Y-222499249D02*
X140030999Y-213664001D01*
X144272000Y-225063000D02*
X142594750Y-225063000D01*
X142594750Y-225063000D02*
X140030999Y-222499249D01*
X140030999Y-213664001D02*
X142367000Y-211328000D01*
X142367000Y-211328000D02*
X142367000Y-211420000D01*
X151326315Y-210312000D02*
X151892000Y-210312000D01*
X147828000Y-210312000D02*
X151326315Y-210312000D01*
X142367000Y-211420000D02*
X146720000Y-211420000D01*
X146720000Y-211420000D02*
X147828000Y-210312000D01*
D22*
X145795998Y-191516006D02*
X145796000Y-191516004D01*
D21*
X145484000Y-205544315D02*
X145484000Y-206110000D01*
X145484000Y-205182038D02*
X145484000Y-205544315D01*
X145796000Y-204870038D02*
X145484000Y-205182038D01*
X145796000Y-191516004D02*
X145796000Y-204870038D01*
X146224000Y-192358008D02*
X146224000Y-204939325D01*
X147066008Y-191516000D02*
X146224000Y-192358008D01*
X146224000Y-204939325D02*
X146224000Y-205505010D01*
X134366000Y-203962000D02*
X134366000Y-224536000D01*
X134366000Y-224536000D02*
X133096000Y-225806000D01*
X132272001Y-229808001D02*
X130955999Y-228491999D01*
X140777999Y-229808001D02*
X132272001Y-229808001D01*
X143510000Y-227076000D02*
X140777999Y-229808001D01*
X130955999Y-228491999D02*
X130556000Y-228092000D01*
D20*
X51705780Y-187213370D02*
X57220421Y-192728011D01*
X57220421Y-192728011D02*
X72078011Y-192728011D01*
X50492204Y-187213370D02*
X51705780Y-187213370D01*
X72078011Y-192728011D02*
X94234000Y-214884000D01*
X94234000Y-214884000D02*
X94304524Y-214884000D01*
D22*
X94304524Y-214884000D02*
X98044000Y-214884000D01*
D20*
X94474416Y-215791519D02*
X98701468Y-215791519D01*
X71860919Y-193178022D02*
X94474416Y-215791519D01*
X57034022Y-193178022D02*
X71860919Y-193178022D01*
X49540703Y-189568417D02*
X53424417Y-189568417D01*
X53424417Y-189568417D02*
X57034022Y-193178022D01*
X193601009Y-220465080D02*
X192033796Y-220465080D01*
X221184839Y-192881250D02*
X193601009Y-220465080D01*
X236108464Y-192881250D02*
X221184839Y-192881250D01*
X243431382Y-187021184D02*
X241968530Y-187021184D01*
X241968530Y-187021184D02*
X236108464Y-192881250D01*
X240249893Y-189376231D02*
X236294864Y-193331261D01*
X221371239Y-193331261D02*
X194277467Y-220425033D01*
X244382883Y-189376231D02*
X240249893Y-189376231D01*
X236294864Y-193331261D02*
X221371239Y-193331261D01*
D22*
X193214500Y-221488000D02*
X194271470Y-220431030D01*
X191516000Y-221488000D02*
X193214500Y-221488000D01*
G36*
X140081001Y-207220322D02*
G01*
X140076699Y-207264000D01*
X140081000Y-207307667D01*
X140081001Y-208744331D01*
X140076700Y-208788000D01*
X140093864Y-208962274D01*
X140144698Y-209129852D01*
X140223351Y-209277000D01*
X140227248Y-209284291D01*
X140338342Y-209419659D01*
X140372259Y-209447494D01*
X140726870Y-209802105D01*
X140736774Y-209851898D01*
X140814795Y-210040256D01*
X140928063Y-210209774D01*
X141072226Y-210353937D01*
X141241744Y-210467205D01*
X141430102Y-210545226D01*
X141630061Y-210585000D01*
X141753715Y-210585000D01*
X141707226Y-210616063D01*
X141563063Y-210760226D01*
X141449795Y-210929744D01*
X141371774Y-211118102D01*
X141332000Y-211318061D01*
X141332000Y-211323553D01*
X139536807Y-213118747D01*
X139508762Y-213141763D01*
X139416913Y-213253681D01*
X139377050Y-213328260D01*
X139348663Y-213381368D01*
X139306634Y-213519916D01*
X139292443Y-213664001D01*
X139296000Y-213700116D01*
X139295999Y-222463144D01*
X139292443Y-222499249D01*
X139295999Y-222535353D01*
X139306634Y-222643333D01*
X139348662Y-222781881D01*
X139416912Y-222909568D01*
X139508761Y-223021486D01*
X139536807Y-223044503D01*
X142049496Y-225557193D01*
X142072512Y-225585238D01*
X142184430Y-225677087D01*
X142312117Y-225745337D01*
X142450665Y-225787365D01*
X142558645Y-225798000D01*
X142558654Y-225798000D01*
X142594749Y-225801555D01*
X142630844Y-225798000D01*
X143543289Y-225798000D01*
X143612226Y-225866937D01*
X143781744Y-225980205D01*
X143970102Y-226058226D01*
X144170061Y-226098000D01*
X144373939Y-226098000D01*
X144573898Y-226058226D01*
X144762256Y-225980205D01*
X144931774Y-225866937D01*
X145075937Y-225722774D01*
X145189205Y-225553256D01*
X145267226Y-225364898D01*
X145307000Y-225164939D01*
X145307000Y-224961061D01*
X145267226Y-224761102D01*
X145189205Y-224572744D01*
X145075937Y-224403226D01*
X144931774Y-224259063D01*
X144762256Y-224145795D01*
X144573898Y-224067774D01*
X144373939Y-224028000D01*
X144170061Y-224028000D01*
X143970102Y-224067774D01*
X143781744Y-224145795D01*
X143612226Y-224259063D01*
X143543289Y-224328000D01*
X142899197Y-224328000D01*
X140778503Y-222207307D01*
X140959898Y-222171226D01*
X141148256Y-222093205D01*
X141190468Y-222065000D01*
X145084731Y-222065000D01*
X147744847Y-224725117D01*
X147754751Y-224774909D01*
X147832772Y-224963267D01*
X147946040Y-225132785D01*
X148090203Y-225276948D01*
X148259721Y-225390216D01*
X148448079Y-225468237D01*
X148648038Y-225508011D01*
X148851916Y-225508011D01*
X149051875Y-225468237D01*
X149240233Y-225390216D01*
X149282445Y-225362011D01*
X173863000Y-225362011D01*
X173863000Y-230278249D01*
X141347197Y-230278249D01*
X143514447Y-228111000D01*
X143611939Y-228111000D01*
X143811898Y-228071226D01*
X144000256Y-227993205D01*
X144169774Y-227879937D01*
X144313937Y-227735774D01*
X144427205Y-227566256D01*
X144505226Y-227377898D01*
X144545000Y-227177939D01*
X144545000Y-226974061D01*
X144505226Y-226774102D01*
X144427205Y-226585744D01*
X144313937Y-226416226D01*
X144169774Y-226272063D01*
X144000256Y-226158795D01*
X143811898Y-226080774D01*
X143611939Y-226041000D01*
X143408061Y-226041000D01*
X143208102Y-226080774D01*
X143019744Y-226158795D01*
X142850226Y-226272063D01*
X142706063Y-226416226D01*
X142592795Y-226585744D01*
X142514774Y-226774102D01*
X142475000Y-226974061D01*
X142475000Y-227071553D01*
X140473553Y-229073001D01*
X132576448Y-229073001D01*
X131591000Y-228087554D01*
X131591000Y-227990061D01*
X131551226Y-227790102D01*
X131473205Y-227601744D01*
X131359937Y-227432226D01*
X131215774Y-227288063D01*
X131046256Y-227174795D01*
X130857898Y-227096774D01*
X130657939Y-227057000D01*
X130454061Y-227057000D01*
X130254102Y-227096774D01*
X130065744Y-227174795D01*
X129896226Y-227288063D01*
X129752063Y-227432226D01*
X129638795Y-227601744D01*
X129560774Y-227790102D01*
X129521000Y-227990061D01*
X129521000Y-228193939D01*
X129560774Y-228393898D01*
X129638795Y-228582256D01*
X129752063Y-228751774D01*
X129896226Y-228895937D01*
X130065744Y-229009205D01*
X130254102Y-229087226D01*
X130454061Y-229127000D01*
X130551554Y-229127000D01*
X131702802Y-230278249D01*
X121285000Y-230278249D01*
X121285000Y-225704061D01*
X132061000Y-225704061D01*
X132061000Y-225907939D01*
X132100774Y-226107898D01*
X132178795Y-226296256D01*
X132292063Y-226465774D01*
X132436226Y-226609937D01*
X132605744Y-226723205D01*
X132794102Y-226801226D01*
X132994061Y-226841000D01*
X133197939Y-226841000D01*
X133397898Y-226801226D01*
X133586256Y-226723205D01*
X133755774Y-226609937D01*
X133899937Y-226465774D01*
X134013205Y-226296256D01*
X134091226Y-226107898D01*
X134131000Y-225907939D01*
X134131000Y-225810446D01*
X134860193Y-225081254D01*
X134888238Y-225058238D01*
X134980087Y-224946320D01*
X135048337Y-224818633D01*
X135090365Y-224680085D01*
X135101000Y-224572105D01*
X135101000Y-224572096D01*
X135104555Y-224536001D01*
X135101000Y-224499906D01*
X135101000Y-204690711D01*
X135169937Y-204621774D01*
X135283205Y-204452256D01*
X135361226Y-204263898D01*
X135401000Y-204063939D01*
X135401000Y-203860061D01*
X135361226Y-203660102D01*
X135283205Y-203471744D01*
X135169937Y-203302226D01*
X135025774Y-203158063D01*
X134856256Y-203044795D01*
X134667898Y-202966774D01*
X134467939Y-202927000D01*
X134264061Y-202927000D01*
X134064102Y-202966774D01*
X133875744Y-203044795D01*
X133706226Y-203158063D01*
X133562063Y-203302226D01*
X133448795Y-203471744D01*
X133370774Y-203660102D01*
X133331000Y-203860061D01*
X133331000Y-204063939D01*
X133370774Y-204263898D01*
X133448795Y-204452256D01*
X133562063Y-204621774D01*
X133631000Y-204690711D01*
X133631001Y-224231552D01*
X133091554Y-224771000D01*
X132994061Y-224771000D01*
X132794102Y-224810774D01*
X132605744Y-224888795D01*
X132436226Y-225002063D01*
X132292063Y-225146226D01*
X132178795Y-225315744D01*
X132100774Y-225504102D01*
X132061000Y-225704061D01*
X121285000Y-225704061D01*
X121285000Y-201295000D01*
X140081000Y-201295000D01*
X140081001Y-207220322D01*
X140081001Y-207220322D01*
G37*
X140081001Y-207220322D02*
X140076699Y-207264000D01*
X140081000Y-207307667D01*
X140081001Y-208744331D01*
X140076700Y-208788000D01*
X140093864Y-208962274D01*
X140144698Y-209129852D01*
X140223351Y-209277000D01*
X140227248Y-209284291D01*
X140338342Y-209419659D01*
X140372259Y-209447494D01*
X140726870Y-209802105D01*
X140736774Y-209851898D01*
X140814795Y-210040256D01*
X140928063Y-210209774D01*
X141072226Y-210353937D01*
X141241744Y-210467205D01*
X141430102Y-210545226D01*
X141630061Y-210585000D01*
X141753715Y-210585000D01*
X141707226Y-210616063D01*
X141563063Y-210760226D01*
X141449795Y-210929744D01*
X141371774Y-211118102D01*
X141332000Y-211318061D01*
X141332000Y-211323553D01*
X139536807Y-213118747D01*
X139508762Y-213141763D01*
X139416913Y-213253681D01*
X139377050Y-213328260D01*
X139348663Y-213381368D01*
X139306634Y-213519916D01*
X139292443Y-213664001D01*
X139296000Y-213700116D01*
X139295999Y-222463144D01*
X139292443Y-222499249D01*
X139295999Y-222535353D01*
X139306634Y-222643333D01*
X139348662Y-222781881D01*
X139416912Y-222909568D01*
X139508761Y-223021486D01*
X139536807Y-223044503D01*
X142049496Y-225557193D01*
X142072512Y-225585238D01*
X142184430Y-225677087D01*
X142312117Y-225745337D01*
X142450665Y-225787365D01*
X142558645Y-225798000D01*
X142558654Y-225798000D01*
X142594749Y-225801555D01*
X142630844Y-225798000D01*
X143543289Y-225798000D01*
X143612226Y-225866937D01*
X143781744Y-225980205D01*
X143970102Y-226058226D01*
X144170061Y-226098000D01*
X144373939Y-226098000D01*
X144573898Y-226058226D01*
X144762256Y-225980205D01*
X144931774Y-225866937D01*
X145075937Y-225722774D01*
X145189205Y-225553256D01*
X145267226Y-225364898D01*
X145307000Y-225164939D01*
X145307000Y-224961061D01*
X145267226Y-224761102D01*
X145189205Y-224572744D01*
X145075937Y-224403226D01*
X144931774Y-224259063D01*
X144762256Y-224145795D01*
X144573898Y-224067774D01*
X144373939Y-224028000D01*
X144170061Y-224028000D01*
X143970102Y-224067774D01*
X143781744Y-224145795D01*
X143612226Y-224259063D01*
X143543289Y-224328000D01*
X142899197Y-224328000D01*
X140778503Y-222207307D01*
X140959898Y-222171226D01*
X141148256Y-222093205D01*
X141190468Y-222065000D01*
X145084731Y-222065000D01*
X147744847Y-224725117D01*
X147754751Y-224774909D01*
X147832772Y-224963267D01*
X147946040Y-225132785D01*
X148090203Y-225276948D01*
X148259721Y-225390216D01*
X148448079Y-225468237D01*
X148648038Y-225508011D01*
X148851916Y-225508011D01*
X149051875Y-225468237D01*
X149240233Y-225390216D01*
X149282445Y-225362011D01*
X173863000Y-225362011D01*
X173863000Y-230278249D01*
X141347197Y-230278249D01*
X143514447Y-228111000D01*
X143611939Y-228111000D01*
X143811898Y-228071226D01*
X144000256Y-227993205D01*
X144169774Y-227879937D01*
X144313937Y-227735774D01*
X144427205Y-227566256D01*
X144505226Y-227377898D01*
X144545000Y-227177939D01*
X144545000Y-226974061D01*
X144505226Y-226774102D01*
X144427205Y-226585744D01*
X144313937Y-226416226D01*
X144169774Y-226272063D01*
X144000256Y-226158795D01*
X143811898Y-226080774D01*
X143611939Y-226041000D01*
X143408061Y-226041000D01*
X143208102Y-226080774D01*
X143019744Y-226158795D01*
X142850226Y-226272063D01*
X142706063Y-226416226D01*
X142592795Y-226585744D01*
X142514774Y-226774102D01*
X142475000Y-226974061D01*
X142475000Y-227071553D01*
X140473553Y-229073001D01*
X132576448Y-229073001D01*
X131591000Y-228087554D01*
X131591000Y-227990061D01*
X131551226Y-227790102D01*
X131473205Y-227601744D01*
X131359937Y-227432226D01*
X131215774Y-227288063D01*
X131046256Y-227174795D01*
X130857898Y-227096774D01*
X130657939Y-227057000D01*
X130454061Y-227057000D01*
X130254102Y-227096774D01*
X130065744Y-227174795D01*
X129896226Y-227288063D01*
X129752063Y-227432226D01*
X129638795Y-227601744D01*
X129560774Y-227790102D01*
X129521000Y-227990061D01*
X129521000Y-228193939D01*
X129560774Y-228393898D01*
X129638795Y-228582256D01*
X129752063Y-228751774D01*
X129896226Y-228895937D01*
X130065744Y-229009205D01*
X130254102Y-229087226D01*
X130454061Y-229127000D01*
X130551554Y-229127000D01*
X131702802Y-230278249D01*
X121285000Y-230278249D01*
X121285000Y-225704061D01*
X132061000Y-225704061D01*
X132061000Y-225907939D01*
X132100774Y-226107898D01*
X132178795Y-226296256D01*
X132292063Y-226465774D01*
X132436226Y-226609937D01*
X132605744Y-226723205D01*
X132794102Y-226801226D01*
X132994061Y-226841000D01*
X133197939Y-226841000D01*
X133397898Y-226801226D01*
X133586256Y-226723205D01*
X133755774Y-226609937D01*
X133899937Y-226465774D01*
X134013205Y-226296256D01*
X134091226Y-226107898D01*
X134131000Y-225907939D01*
X134131000Y-225810446D01*
X134860193Y-225081254D01*
X134888238Y-225058238D01*
X134980087Y-224946320D01*
X135048337Y-224818633D01*
X135090365Y-224680085D01*
X135101000Y-224572105D01*
X135101000Y-224572096D01*
X135104555Y-224536001D01*
X135101000Y-224499906D01*
X135101000Y-204690711D01*
X135169937Y-204621774D01*
X135283205Y-204452256D01*
X135361226Y-204263898D01*
X135401000Y-204063939D01*
X135401000Y-203860061D01*
X135361226Y-203660102D01*
X135283205Y-203471744D01*
X135169937Y-203302226D01*
X135025774Y-203158063D01*
X134856256Y-203044795D01*
X134667898Y-202966774D01*
X134467939Y-202927000D01*
X134264061Y-202927000D01*
X134064102Y-202966774D01*
X133875744Y-203044795D01*
X133706226Y-203158063D01*
X133562063Y-203302226D01*
X133448795Y-203471744D01*
X133370774Y-203660102D01*
X133331000Y-203860061D01*
X133331000Y-204063939D01*
X133370774Y-204263898D01*
X133448795Y-204452256D01*
X133562063Y-204621774D01*
X133631000Y-204690711D01*
X133631001Y-224231552D01*
X133091554Y-224771000D01*
X132994061Y-224771000D01*
X132794102Y-224810774D01*
X132605744Y-224888795D01*
X132436226Y-225002063D01*
X132292063Y-225146226D01*
X132178795Y-225315744D01*
X132100774Y-225504102D01*
X132061000Y-225704061D01*
X121285000Y-225704061D01*
X121285000Y-201295000D01*
X140081000Y-201295000D01*
X140081001Y-207220322D01*
G36*
X173863000Y-223584011D02*
G01*
X149282445Y-223584011D01*
X149240233Y-223555806D01*
X149051875Y-223477785D01*
X149002083Y-223467881D01*
X146112465Y-220578264D01*
X146084625Y-220544341D01*
X145949257Y-220433247D01*
X145794817Y-220350697D01*
X145627240Y-220299864D01*
X145496633Y-220287000D01*
X145496626Y-220287000D01*
X145452966Y-220282700D01*
X145409306Y-220287000D01*
X141547000Y-220287000D01*
X141547000Y-214458468D01*
X141575205Y-214416256D01*
X141653226Y-214227898D01*
X141663130Y-214178105D01*
X142608236Y-213233000D01*
X147177684Y-213233000D01*
X147221344Y-213237300D01*
X147265004Y-213233000D01*
X147265011Y-213233000D01*
X147395618Y-213220136D01*
X147563195Y-213169303D01*
X147717635Y-213086753D01*
X147853003Y-212975659D01*
X147880843Y-212941736D01*
X148030777Y-212791802D01*
X148080570Y-212781898D01*
X148217933Y-212725000D01*
X151650765Y-212725000D01*
X152664870Y-213739105D01*
X152674774Y-213788898D01*
X152752795Y-213977256D01*
X152781000Y-214019468D01*
X152781001Y-220447531D01*
X152752795Y-220489744D01*
X152674774Y-220678102D01*
X152635000Y-220878061D01*
X152635000Y-221081939D01*
X152674774Y-221281898D01*
X152752795Y-221470256D01*
X152866063Y-221639774D01*
X153010226Y-221783937D01*
X153179744Y-221897205D01*
X153368102Y-221975226D01*
X153568061Y-222015000D01*
X153771939Y-222015000D01*
X153971898Y-221975226D01*
X154160256Y-221897205D01*
X154329774Y-221783937D01*
X154473937Y-221639774D01*
X154587205Y-221470256D01*
X154665226Y-221281898D01*
X154705000Y-221081939D01*
X154705000Y-220878061D01*
X154665226Y-220678102D01*
X154587205Y-220489744D01*
X154559000Y-220447532D01*
X154559000Y-214019468D01*
X154587205Y-213977256D01*
X154665226Y-213788898D01*
X154705000Y-213588939D01*
X154705000Y-213385061D01*
X154665226Y-213185102D01*
X154587205Y-212996744D01*
X154473937Y-212827226D01*
X154329774Y-212683063D01*
X154160256Y-212569795D01*
X153971898Y-212491774D01*
X153922105Y-212481870D01*
X152678499Y-211238264D01*
X152650659Y-211204341D01*
X152546904Y-211119191D01*
X152551774Y-211115937D01*
X152695937Y-210971774D01*
X152809205Y-210802256D01*
X152887226Y-210613898D01*
X152927000Y-210413939D01*
X152927000Y-210210061D01*
X152887226Y-210010102D01*
X152809205Y-209821744D01*
X152695937Y-209652226D01*
X152551774Y-209508063D01*
X152382256Y-209394795D01*
X152193898Y-209316774D01*
X151993939Y-209277000D01*
X151790061Y-209277000D01*
X151590102Y-209316774D01*
X151401744Y-209394795D01*
X151232226Y-209508063D01*
X151163289Y-209577000D01*
X147864105Y-209577000D01*
X147828000Y-209573444D01*
X147683915Y-209587635D01*
X147545366Y-209629663D01*
X147480872Y-209664136D01*
X147417680Y-209697913D01*
X147305762Y-209789762D01*
X147282746Y-209817807D01*
X146415554Y-210685000D01*
X143095711Y-210685000D01*
X143026774Y-210616063D01*
X142857256Y-210502795D01*
X142668898Y-210424774D01*
X142468939Y-210385000D01*
X142345285Y-210385000D01*
X142391774Y-210353937D01*
X142535937Y-210209774D01*
X142649205Y-210040256D01*
X142727226Y-209851898D01*
X142767000Y-209651939D01*
X142767000Y-209448061D01*
X142727226Y-209248102D01*
X142649205Y-209059744D01*
X142535937Y-208890226D01*
X142391774Y-208746063D01*
X142222256Y-208632795D01*
X142033898Y-208554774D01*
X141984105Y-208544870D01*
X141859000Y-208419765D01*
X141859000Y-208153000D01*
X147022340Y-208153000D01*
X147066000Y-208157300D01*
X147109660Y-208153000D01*
X147109667Y-208153000D01*
X147240274Y-208140136D01*
X147407851Y-208089303D01*
X147562291Y-208006753D01*
X147697659Y-207895659D01*
X147725499Y-207861736D01*
X149604106Y-205983130D01*
X149653898Y-205973226D01*
X149842256Y-205895205D01*
X150011774Y-205781937D01*
X150155937Y-205637774D01*
X150269205Y-205468256D01*
X150347226Y-205279898D01*
X150387000Y-205079939D01*
X150387000Y-204876061D01*
X150347226Y-204676102D01*
X150269205Y-204487744D01*
X150155937Y-204318226D01*
X150011774Y-204174063D01*
X149842256Y-204060795D01*
X149653898Y-203982774D01*
X149453939Y-203943000D01*
X149250061Y-203943000D01*
X149050102Y-203982774D01*
X148861744Y-204060795D01*
X148692226Y-204174063D01*
X148548063Y-204318226D01*
X148434795Y-204487744D01*
X148356774Y-204676102D01*
X148346870Y-204725894D01*
X147186253Y-205886512D01*
X147219226Y-205806908D01*
X147259000Y-205606949D01*
X147259000Y-205403071D01*
X147219226Y-205203112D01*
X147141205Y-205014754D01*
X147027937Y-204845236D01*
X146959000Y-204776299D01*
X146959000Y-201295000D01*
X173863000Y-201295000D01*
X173863000Y-223584011D01*
X173863000Y-223584011D01*
G37*
X173863000Y-223584011D02*
X149282445Y-223584011D01*
X149240233Y-223555806D01*
X149051875Y-223477785D01*
X149002083Y-223467881D01*
X146112465Y-220578264D01*
X146084625Y-220544341D01*
X145949257Y-220433247D01*
X145794817Y-220350697D01*
X145627240Y-220299864D01*
X145496633Y-220287000D01*
X145496626Y-220287000D01*
X145452966Y-220282700D01*
X145409306Y-220287000D01*
X141547000Y-220287000D01*
X141547000Y-214458468D01*
X141575205Y-214416256D01*
X141653226Y-214227898D01*
X141663130Y-214178105D01*
X142608236Y-213233000D01*
X147177684Y-213233000D01*
X147221344Y-213237300D01*
X147265004Y-213233000D01*
X147265011Y-213233000D01*
X147395618Y-213220136D01*
X147563195Y-213169303D01*
X147717635Y-213086753D01*
X147853003Y-212975659D01*
X147880843Y-212941736D01*
X148030777Y-212791802D01*
X148080570Y-212781898D01*
X148217933Y-212725000D01*
X151650765Y-212725000D01*
X152664870Y-213739105D01*
X152674774Y-213788898D01*
X152752795Y-213977256D01*
X152781000Y-214019468D01*
X152781001Y-220447531D01*
X152752795Y-220489744D01*
X152674774Y-220678102D01*
X152635000Y-220878061D01*
X152635000Y-221081939D01*
X152674774Y-221281898D01*
X152752795Y-221470256D01*
X152866063Y-221639774D01*
X153010226Y-221783937D01*
X153179744Y-221897205D01*
X153368102Y-221975226D01*
X153568061Y-222015000D01*
X153771939Y-222015000D01*
X153971898Y-221975226D01*
X154160256Y-221897205D01*
X154329774Y-221783937D01*
X154473937Y-221639774D01*
X154587205Y-221470256D01*
X154665226Y-221281898D01*
X154705000Y-221081939D01*
X154705000Y-220878061D01*
X154665226Y-220678102D01*
X154587205Y-220489744D01*
X154559000Y-220447532D01*
X154559000Y-214019468D01*
X154587205Y-213977256D01*
X154665226Y-213788898D01*
X154705000Y-213588939D01*
X154705000Y-213385061D01*
X154665226Y-213185102D01*
X154587205Y-212996744D01*
X154473937Y-212827226D01*
X154329774Y-212683063D01*
X154160256Y-212569795D01*
X153971898Y-212491774D01*
X153922105Y-212481870D01*
X152678499Y-211238264D01*
X152650659Y-211204341D01*
X152546904Y-211119191D01*
X152551774Y-211115937D01*
X152695937Y-210971774D01*
X152809205Y-210802256D01*
X152887226Y-210613898D01*
X152927000Y-210413939D01*
X152927000Y-210210061D01*
X152887226Y-210010102D01*
X152809205Y-209821744D01*
X152695937Y-209652226D01*
X152551774Y-209508063D01*
X152382256Y-209394795D01*
X152193898Y-209316774D01*
X151993939Y-209277000D01*
X151790061Y-209277000D01*
X151590102Y-209316774D01*
X151401744Y-209394795D01*
X151232226Y-209508063D01*
X151163289Y-209577000D01*
X147864105Y-209577000D01*
X147828000Y-209573444D01*
X147683915Y-209587635D01*
X147545366Y-209629663D01*
X147480872Y-209664136D01*
X147417680Y-209697913D01*
X147305762Y-209789762D01*
X147282746Y-209817807D01*
X146415554Y-210685000D01*
X143095711Y-210685000D01*
X143026774Y-210616063D01*
X142857256Y-210502795D01*
X142668898Y-210424774D01*
X142468939Y-210385000D01*
X142345285Y-210385000D01*
X142391774Y-210353937D01*
X142535937Y-210209774D01*
X142649205Y-210040256D01*
X142727226Y-209851898D01*
X142767000Y-209651939D01*
X142767000Y-209448061D01*
X142727226Y-209248102D01*
X142649205Y-209059744D01*
X142535937Y-208890226D01*
X142391774Y-208746063D01*
X142222256Y-208632795D01*
X142033898Y-208554774D01*
X141984105Y-208544870D01*
X141859000Y-208419765D01*
X141859000Y-208153000D01*
X147022340Y-208153000D01*
X147066000Y-208157300D01*
X147109660Y-208153000D01*
X147109667Y-208153000D01*
X147240274Y-208140136D01*
X147407851Y-208089303D01*
X147562291Y-208006753D01*
X147697659Y-207895659D01*
X147725499Y-207861736D01*
X149604106Y-205983130D01*
X149653898Y-205973226D01*
X149842256Y-205895205D01*
X150011774Y-205781937D01*
X150155937Y-205637774D01*
X150269205Y-205468256D01*
X150347226Y-205279898D01*
X150387000Y-205079939D01*
X150387000Y-204876061D01*
X150347226Y-204676102D01*
X150269205Y-204487744D01*
X150155937Y-204318226D01*
X150011774Y-204174063D01*
X149842256Y-204060795D01*
X149653898Y-203982774D01*
X149453939Y-203943000D01*
X149250061Y-203943000D01*
X149050102Y-203982774D01*
X148861744Y-204060795D01*
X148692226Y-204174063D01*
X148548063Y-204318226D01*
X148434795Y-204487744D01*
X148356774Y-204676102D01*
X148346870Y-204725894D01*
X147186253Y-205886512D01*
X147219226Y-205806908D01*
X147259000Y-205606949D01*
X147259000Y-205403071D01*
X147219226Y-205203112D01*
X147141205Y-205014754D01*
X147027937Y-204845236D01*
X146959000Y-204776299D01*
X146959000Y-201295000D01*
X173863000Y-201295000D01*
X173863000Y-223584011D01*
M02*
