G04 #@! TF.GenerationSoftware,KiCad,Pcbnew,(5.1.4)-1*
G04 #@! TF.CreationDate,2023-03-14T14:53:53-04:00*
G04 #@! TF.ProjectId,ThumbsUp,5468756d-6273-4557-902e-6b696361645f,rev?*
G04 #@! TF.SameCoordinates,Original*
G04 #@! TF.FileFunction,Copper,L2,Bot*
G04 #@! TF.FilePolarity,Positive*
%FSLAX46Y46*%
G04 Gerber Fmt 4.6, Leading zero omitted, Abs format (unit mm)*
G04 Created by KiCad (PCBNEW (5.1.4)-1) date 2023-03-14 14:53:53*
%MOMM*%
%LPD*%
G04 APERTURE LIST*
%ADD10C,2.600000*%
%ADD11C,0.100000*%
%ADD12C,2.032000*%
%ADD13R,1.500000X0.800000*%
%ADD14R,1.500000X0.600000*%
%ADD15C,1.700000*%
%ADD16C,1.700000*%
%ADD17R,1.700000X1.700000*%
%ADD18O,1.700000X1.700000*%
%ADD19C,0.254000*%
%ADD20C,0.250000*%
%ADD21C,0.508000*%
G04 APERTURE END LIST*
D10*
X201787885Y-90119963D03*
D11*
G36*
X202043752Y-88299377D02*
G01*
X203608471Y-90375830D01*
X201532018Y-91940549D01*
X199967299Y-89864096D01*
X202043752Y-88299377D01*
X202043752Y-88299377D01*
G37*
D12*
X202589079Y-77433111D03*
X207846068Y-76101171D03*
D10*
X212336119Y-84925998D03*
D11*
G36*
X212591986Y-83105412D02*
G01*
X214156705Y-85181865D01*
X212080252Y-86746584D01*
X210515533Y-84670131D01*
X212591986Y-83105412D01*
X212591986Y-83105412D01*
G37*
D13*
X172082000Y-99508000D03*
X174882000Y-99508000D03*
X172082000Y-92008000D03*
X174882000Y-92008000D03*
D14*
X172082000Y-98508000D03*
X174882000Y-98008000D03*
X172082000Y-97508000D03*
X174882000Y-97008000D03*
X172082000Y-96508000D03*
X174882000Y-96008000D03*
X172082000Y-95508000D03*
X174882000Y-95008000D03*
X172082000Y-94508000D03*
X174882000Y-94008000D03*
X172082000Y-93508000D03*
X174882000Y-93008000D03*
D10*
X187013128Y-101253541D03*
D11*
G36*
X187268995Y-99432955D02*
G01*
X188833714Y-101509408D01*
X186757261Y-103074127D01*
X185192542Y-100997674D01*
X187268995Y-99432955D01*
X187268995Y-99432955D01*
G37*
D12*
X187814322Y-88566689D03*
X193071311Y-87234749D03*
D10*
X197561362Y-96059576D03*
D11*
G36*
X197817229Y-94238990D02*
G01*
X199381948Y-96315443D01*
X197305495Y-97880162D01*
X195740776Y-95803709D01*
X197817229Y-94238990D01*
X197817229Y-94238990D01*
G37*
D15*
X91492618Y-92251511D03*
D16*
X91492618Y-92251511D02*
X91492618Y-92251511D01*
D15*
X89464083Y-90722901D03*
D16*
X89464083Y-90722901D02*
X89464083Y-90722901D01*
D15*
X87435549Y-89194291D03*
D16*
X87435549Y-89194291D02*
X87435549Y-89194291D01*
D15*
X85407015Y-87665681D03*
D11*
G36*
X85574312Y-88856064D02*
G01*
X84216632Y-87832978D01*
X85239718Y-86475298D01*
X86597398Y-87498384D01*
X85574312Y-88856064D01*
X85574312Y-88856064D01*
G37*
D15*
X209015141Y-92097906D03*
D16*
X209015141Y-92097906D02*
X209015141Y-92097906D01*
D15*
X211043676Y-90569296D03*
D16*
X211043676Y-90569296D02*
X211043676Y-90569296D01*
D15*
X213072210Y-89040686D03*
D16*
X213072210Y-89040686D02*
X213072210Y-89040686D01*
D15*
X215100744Y-87512076D03*
D11*
G36*
X213910361Y-87344779D02*
G01*
X215268041Y-86321693D01*
X216291127Y-87679373D01*
X214933447Y-88702459D01*
X213910361Y-87344779D01*
X213910361Y-87344779D01*
G37*
D10*
X118022779Y-95296376D03*
D11*
G36*
X116202193Y-95552243D02*
G01*
X117766912Y-93475790D01*
X119843365Y-95040509D01*
X118278646Y-97116962D01*
X116202193Y-95552243D01*
X116202193Y-95552243D01*
G37*
D12*
X105606555Y-98023190D03*
X102877189Y-93336980D03*
D10*
X110122532Y-86588415D03*
D11*
G36*
X108301946Y-86844282D02*
G01*
X109866665Y-84767829D01*
X111943118Y-86332548D01*
X110378399Y-88409001D01*
X108301946Y-86844282D01*
X108301946Y-86844282D01*
G37*
D10*
X103248022Y-84162799D03*
D11*
G36*
X101427436Y-84418666D02*
G01*
X102992155Y-82342213D01*
X105068608Y-83906932D01*
X103503889Y-85983385D01*
X101427436Y-84418666D01*
X101427436Y-84418666D01*
G37*
D12*
X90831798Y-86889613D03*
X88102432Y-82203403D03*
D10*
X95347775Y-75454838D03*
D11*
G36*
X93527189Y-75710705D02*
G01*
X95091908Y-73634252D01*
X97168361Y-75198971D01*
X95603642Y-77275424D01*
X93527189Y-75710705D01*
X93527189Y-75710705D01*
G37*
D17*
X150158765Y-49138249D03*
D18*
X150158765Y-51678249D03*
X150158765Y-54218249D03*
X150158765Y-56758249D03*
D15*
X185893643Y-104762834D03*
D16*
X185893643Y-104762834D02*
X185893643Y-104762834D01*
D15*
X184365033Y-102734299D03*
D16*
X184365033Y-102734299D02*
X184365033Y-102734299D01*
D15*
X182836423Y-100705765D03*
D16*
X182836423Y-100705765D02*
X182836423Y-100705765D01*
D15*
X181307813Y-98677231D03*
D11*
G36*
X181140516Y-99867614D02*
G01*
X180117430Y-98509934D01*
X181475110Y-97486848D01*
X182498196Y-98844528D01*
X181140516Y-99867614D01*
X181140516Y-99867614D01*
G37*
D15*
X114334284Y-104961436D03*
D16*
X114334284Y-104961436D02*
X114334284Y-104961436D01*
D15*
X115862894Y-102932901D03*
D16*
X115862894Y-102932901D02*
X115862894Y-102932901D01*
D15*
X117391504Y-100904367D03*
D16*
X117391504Y-100904367D02*
X117391504Y-100904367D01*
D15*
X118920114Y-98875833D03*
D11*
G36*
X117729731Y-99043130D02*
G01*
X118752817Y-97685450D01*
X120110497Y-98708536D01*
X119087411Y-100066216D01*
X117729731Y-99043130D01*
X117729731Y-99043130D01*
G37*
D19*
X117023797Y-96295358D02*
X118022779Y-95296376D01*
X114513155Y-98806000D02*
X117023797Y-96295358D01*
X110490000Y-98806000D02*
X114513155Y-98806000D01*
X102877189Y-93336980D02*
X105020980Y-93336980D01*
X105020980Y-93336980D02*
X110490000Y-98806000D01*
X103357190Y-98023190D02*
X105606555Y-98023190D01*
X89464083Y-90722901D02*
X96056901Y-90722901D01*
X96056901Y-90722901D02*
X103357190Y-98023190D01*
X110007585Y-86588415D02*
X110122532Y-86588415D01*
X108966000Y-87630000D02*
X110007585Y-86588415D01*
X102319737Y-87630000D02*
X108966000Y-87630000D01*
X89464083Y-90722901D02*
X99226836Y-90722901D01*
X99226836Y-90722901D02*
X102319737Y-87630000D01*
D20*
X87435549Y-89194291D02*
X87479840Y-89150000D01*
D19*
X87435549Y-82870286D02*
X88102432Y-82203403D01*
X87435549Y-89194291D02*
X87435549Y-82870286D01*
X102249040Y-85161781D02*
X103248022Y-84162799D01*
X98764821Y-88646000D02*
X102249040Y-85161781D01*
X87435549Y-89194291D02*
X87983840Y-88646000D01*
X87983840Y-88646000D02*
X98764821Y-88646000D01*
X91694000Y-79108613D02*
X95347775Y-75454838D01*
X90831798Y-86889613D02*
X91694000Y-86027411D01*
X91694000Y-86027411D02*
X91694000Y-79108613D01*
X203765828Y-92097906D02*
X201787885Y-90119963D01*
X209015141Y-92097906D02*
X203765828Y-92097906D01*
X199644000Y-87976078D02*
X201787885Y-90119963D01*
X207165171Y-76101171D02*
X206248000Y-75184000D01*
X207846068Y-76101171D02*
X207165171Y-76101171D01*
X206248000Y-75184000D02*
X202850548Y-75184000D01*
X202850548Y-75184000D02*
X199644000Y-78390548D01*
X199644000Y-78390548D02*
X199644000Y-87976078D01*
D20*
X212514666Y-84925998D02*
X212336119Y-84925998D01*
D19*
X205703111Y-77433111D02*
X202589079Y-77433111D01*
X212336119Y-84925998D02*
X212336119Y-84066119D01*
X212336119Y-84066119D02*
X205703111Y-77433111D01*
X212336119Y-87637881D02*
X212336119Y-84925998D01*
X211043676Y-90569296D02*
X211043676Y-88930324D01*
X211043676Y-88930324D02*
X212336119Y-87637881D01*
X187013128Y-99891128D02*
X187013128Y-101253541D01*
X185166000Y-98044000D02*
X187013128Y-99891128D01*
X193071311Y-87234749D02*
X185166000Y-95140060D01*
X185166000Y-95140060D02*
X185166000Y-98044000D01*
D20*
X197561362Y-95161362D02*
X197561362Y-96059576D01*
D19*
X197561362Y-88595362D02*
X197561362Y-96059576D01*
X193548000Y-84582000D02*
X197561362Y-88595362D01*
X187814322Y-88566689D02*
X191799011Y-84582000D01*
X191799011Y-84582000D02*
X193548000Y-84582000D01*
X175886000Y-97008000D02*
X174882000Y-97008000D01*
X182098000Y-97008000D02*
X175886000Y-97008000D01*
X184365033Y-102734299D02*
X184365033Y-99275033D01*
X184365033Y-99275033D02*
X182098000Y-97008000D01*
X170058683Y-101673011D02*
X168983011Y-100597339D01*
X171078000Y-97508000D02*
X172082000Y-97508000D01*
X169954000Y-97508000D02*
X171078000Y-97508000D01*
X168983011Y-98478989D02*
X169954000Y-97508000D01*
X168983011Y-100597339D02*
X168983011Y-98478989D01*
X181869177Y-101673011D02*
X170058683Y-101673011D01*
X182836423Y-100705765D02*
X181869177Y-101673011D01*
D21*
X173482000Y-98008000D02*
X174882000Y-98008000D01*
X173482000Y-91186000D02*
X173482000Y-98008000D01*
X172326834Y-104762834D02*
X168402000Y-100838000D01*
X185893643Y-104762834D02*
X172326834Y-104762834D01*
X168402000Y-100838000D02*
X168402000Y-92456000D01*
X168402000Y-92456000D02*
X170180000Y-90678000D01*
X170180000Y-90678000D02*
X172974000Y-90678000D01*
X172974000Y-90678000D02*
X173482000Y-91186000D01*
X169672000Y-98806000D02*
X169970000Y-98508000D01*
X169672000Y-100330000D02*
X169672000Y-98806000D01*
X170434000Y-101092000D02*
X169672000Y-100330000D01*
X178893044Y-101092000D02*
X170434000Y-101092000D01*
X181307813Y-98677231D02*
X178893044Y-101092000D01*
X169970000Y-98508000D02*
X172082000Y-98508000D01*
M02*
