G04 #@! TF.GenerationSoftware,KiCad,Pcbnew,(5.1.4)-1*
G04 #@! TF.CreationDate,2023-03-14T14:53:53-04:00*
G04 #@! TF.ProjectId,ThumbsUp,5468756d-6273-4557-902e-6b696361645f,rev?*
G04 #@! TF.SameCoordinates,Original*
G04 #@! TF.FileFunction,Soldermask,Bot*
G04 #@! TF.FilePolarity,Negative*
%FSLAX46Y46*%
G04 Gerber Fmt 4.6, Leading zero omitted, Abs format (unit mm)*
G04 Created by KiCad (PCBNEW (5.1.4)-1) date 2023-03-14 14:53:53*
%MOMM*%
%LPD*%
G04 APERTURE LIST*
%ADD10C,0.100000*%
G04 APERTURE END LIST*
D10*
G36*
X114444727Y-104066955D02*
G01*
X114510911Y-104073473D01*
X114680750Y-104124993D01*
X114837275Y-104208658D01*
X114873013Y-104237988D01*
X114974470Y-104321250D01*
X115052530Y-104416368D01*
X115087062Y-104458445D01*
X115170727Y-104614970D01*
X115222247Y-104784809D01*
X115239643Y-104961436D01*
X115222247Y-105138063D01*
X115170727Y-105307902D01*
X115087062Y-105464427D01*
X115057732Y-105500165D01*
X114974470Y-105601622D01*
X114898663Y-105663834D01*
X114837275Y-105714214D01*
X114680750Y-105797879D01*
X114510911Y-105849399D01*
X114444726Y-105855918D01*
X114378544Y-105862436D01*
X114290024Y-105862436D01*
X114223842Y-105855918D01*
X114157657Y-105849399D01*
X113987818Y-105797879D01*
X113831293Y-105714214D01*
X113769905Y-105663834D01*
X113694098Y-105601622D01*
X113610836Y-105500165D01*
X113581506Y-105464427D01*
X113497841Y-105307902D01*
X113446321Y-105138063D01*
X113428925Y-104961436D01*
X113446321Y-104784809D01*
X113497841Y-104614970D01*
X113581506Y-104458445D01*
X113616038Y-104416368D01*
X113694098Y-104321250D01*
X113795555Y-104237988D01*
X113831293Y-104208658D01*
X113987818Y-104124993D01*
X114157657Y-104073473D01*
X114223841Y-104066955D01*
X114290024Y-104060436D01*
X114378544Y-104060436D01*
X114444727Y-104066955D01*
X114444727Y-104066955D01*
G37*
G36*
X186004086Y-103868353D02*
G01*
X186070270Y-103874871D01*
X186240109Y-103926391D01*
X186396634Y-104010056D01*
X186432372Y-104039386D01*
X186533829Y-104122648D01*
X186617091Y-104224105D01*
X186646421Y-104259843D01*
X186730086Y-104416368D01*
X186781606Y-104586207D01*
X186799002Y-104762834D01*
X186781606Y-104939461D01*
X186730086Y-105109300D01*
X186646421Y-105265825D01*
X186617091Y-105301563D01*
X186533829Y-105403020D01*
X186459003Y-105464427D01*
X186396634Y-105515612D01*
X186240109Y-105599277D01*
X186070270Y-105650797D01*
X186004085Y-105657316D01*
X185937903Y-105663834D01*
X185849383Y-105663834D01*
X185783201Y-105657316D01*
X185717016Y-105650797D01*
X185547177Y-105599277D01*
X185390652Y-105515612D01*
X185328283Y-105464427D01*
X185253457Y-105403020D01*
X185170195Y-105301563D01*
X185140865Y-105265825D01*
X185057200Y-105109300D01*
X185005680Y-104939461D01*
X184988284Y-104762834D01*
X185005680Y-104586207D01*
X185057200Y-104416368D01*
X185140865Y-104259843D01*
X185170195Y-104224105D01*
X185253457Y-104122648D01*
X185354914Y-104039386D01*
X185390652Y-104010056D01*
X185547177Y-103926391D01*
X185717016Y-103874871D01*
X185783200Y-103868353D01*
X185849383Y-103861834D01*
X185937903Y-103861834D01*
X186004086Y-103868353D01*
X186004086Y-103868353D01*
G37*
G36*
X115973337Y-102038420D02*
G01*
X116039521Y-102044938D01*
X116209360Y-102096458D01*
X116365885Y-102180123D01*
X116401623Y-102209453D01*
X116503080Y-102292715D01*
X116581140Y-102387833D01*
X116615672Y-102429910D01*
X116699337Y-102586435D01*
X116750857Y-102756274D01*
X116768253Y-102932901D01*
X116750857Y-103109528D01*
X116699337Y-103279367D01*
X116615672Y-103435892D01*
X116586342Y-103471630D01*
X116503080Y-103573087D01*
X116427273Y-103635299D01*
X116365885Y-103685679D01*
X116209360Y-103769344D01*
X116039521Y-103820864D01*
X115973336Y-103827383D01*
X115907154Y-103833901D01*
X115818634Y-103833901D01*
X115752452Y-103827383D01*
X115686267Y-103820864D01*
X115516428Y-103769344D01*
X115359903Y-103685679D01*
X115298515Y-103635299D01*
X115222708Y-103573087D01*
X115139446Y-103471630D01*
X115110116Y-103435892D01*
X115026451Y-103279367D01*
X114974931Y-103109528D01*
X114957535Y-102932901D01*
X114974931Y-102756274D01*
X115026451Y-102586435D01*
X115110116Y-102429910D01*
X115144648Y-102387833D01*
X115222708Y-102292715D01*
X115324165Y-102209453D01*
X115359903Y-102180123D01*
X115516428Y-102096458D01*
X115686267Y-102044938D01*
X115752452Y-102038419D01*
X115818634Y-102031901D01*
X115907154Y-102031901D01*
X115973337Y-102038420D01*
X115973337Y-102038420D01*
G37*
G36*
X184475476Y-101839818D02*
G01*
X184541660Y-101846336D01*
X184711499Y-101897856D01*
X184868024Y-101981521D01*
X184903762Y-102010851D01*
X185005219Y-102094113D01*
X185088481Y-102195570D01*
X185117811Y-102231308D01*
X185201476Y-102387833D01*
X185252996Y-102557672D01*
X185270392Y-102734299D01*
X185252996Y-102910926D01*
X185201476Y-103080765D01*
X185117811Y-103237290D01*
X185088481Y-103273028D01*
X185005219Y-103374485D01*
X184930393Y-103435892D01*
X184868024Y-103487077D01*
X184711499Y-103570742D01*
X184541660Y-103622262D01*
X184475475Y-103628781D01*
X184409293Y-103635299D01*
X184320773Y-103635299D01*
X184254591Y-103628781D01*
X184188406Y-103622262D01*
X184018567Y-103570742D01*
X183862042Y-103487077D01*
X183799673Y-103435892D01*
X183724847Y-103374485D01*
X183641585Y-103273028D01*
X183612255Y-103237290D01*
X183528590Y-103080765D01*
X183477070Y-102910926D01*
X183459674Y-102734299D01*
X183477070Y-102557672D01*
X183528590Y-102387833D01*
X183612255Y-102231308D01*
X183641585Y-102195570D01*
X183724847Y-102094113D01*
X183826304Y-102010851D01*
X183862042Y-101981521D01*
X184018567Y-101897856D01*
X184188406Y-101846336D01*
X184254590Y-101839818D01*
X184320773Y-101833299D01*
X184409293Y-101833299D01*
X184475476Y-101839818D01*
X184475476Y-101839818D01*
G37*
G36*
X188030902Y-100359297D02*
G01*
X188905137Y-101519445D01*
X188905137Y-101519446D01*
X187752751Y-102387831D01*
X186747224Y-103145550D01*
X186747223Y-103145550D01*
X185807019Y-101897856D01*
X185121119Y-100987637D01*
X185121119Y-100987636D01*
X186351713Y-100060317D01*
X187279032Y-99361532D01*
X187279033Y-99361532D01*
X188030902Y-100359297D01*
X188030902Y-100359297D01*
G37*
G36*
X117501946Y-100009885D02*
G01*
X117568131Y-100016404D01*
X117737970Y-100067924D01*
X117894495Y-100151589D01*
X117930233Y-100180919D01*
X118031690Y-100264181D01*
X118109750Y-100359299D01*
X118144282Y-100401376D01*
X118227947Y-100557901D01*
X118279467Y-100727740D01*
X118296863Y-100904367D01*
X118279467Y-101080994D01*
X118227947Y-101250833D01*
X118144282Y-101407358D01*
X118114952Y-101443096D01*
X118031690Y-101544553D01*
X117955883Y-101606765D01*
X117894495Y-101657145D01*
X117737970Y-101740810D01*
X117568131Y-101792330D01*
X117501947Y-101798848D01*
X117435764Y-101805367D01*
X117347244Y-101805367D01*
X117281061Y-101798848D01*
X117214877Y-101792330D01*
X117045038Y-101740810D01*
X116888513Y-101657145D01*
X116827125Y-101606765D01*
X116751318Y-101544553D01*
X116668056Y-101443096D01*
X116638726Y-101407358D01*
X116555061Y-101250833D01*
X116503541Y-101080994D01*
X116486145Y-100904367D01*
X116503541Y-100727740D01*
X116555061Y-100557901D01*
X116638726Y-100401376D01*
X116673258Y-100359299D01*
X116751318Y-100264181D01*
X116852775Y-100180919D01*
X116888513Y-100151589D01*
X117045038Y-100067924D01*
X117214877Y-100016404D01*
X117281062Y-100009885D01*
X117347244Y-100003367D01*
X117435764Y-100003367D01*
X117501946Y-100009885D01*
X117501946Y-100009885D01*
G37*
G36*
X182946865Y-99811283D02*
G01*
X183013050Y-99817802D01*
X183182889Y-99869322D01*
X183339414Y-99952987D01*
X183375152Y-99982317D01*
X183476609Y-100065579D01*
X183559871Y-100167036D01*
X183589201Y-100202774D01*
X183672866Y-100359299D01*
X183724386Y-100529138D01*
X183741782Y-100705765D01*
X183724386Y-100882392D01*
X183672866Y-101052231D01*
X183589201Y-101208756D01*
X183559871Y-101244494D01*
X183476609Y-101345951D01*
X183401783Y-101407358D01*
X183339414Y-101458543D01*
X183182889Y-101542208D01*
X183013050Y-101593728D01*
X182946866Y-101600246D01*
X182880683Y-101606765D01*
X182792163Y-101606765D01*
X182725980Y-101600246D01*
X182659796Y-101593728D01*
X182489957Y-101542208D01*
X182333432Y-101458543D01*
X182271063Y-101407358D01*
X182196237Y-101345951D01*
X182112975Y-101244494D01*
X182083645Y-101208756D01*
X181999980Y-101052231D01*
X181948460Y-100882392D01*
X181931064Y-100705765D01*
X181948460Y-100529138D01*
X181999980Y-100359299D01*
X182083645Y-100202774D01*
X182112975Y-100167036D01*
X182196237Y-100065579D01*
X182297694Y-99982317D01*
X182333432Y-99952987D01*
X182489957Y-99869322D01*
X182659796Y-99817802D01*
X182725980Y-99811284D01*
X182792163Y-99804765D01*
X182880683Y-99804765D01*
X182946865Y-99811283D01*
X182946865Y-99811283D01*
G37*
G36*
X189931245Y-97761399D02*
G01*
X190081070Y-97791201D01*
X190363334Y-97908118D01*
X190617365Y-98077856D01*
X190833401Y-98293892D01*
X191003139Y-98547923D01*
X191120056Y-98830187D01*
X191179660Y-99129837D01*
X191179660Y-99435357D01*
X191120056Y-99735007D01*
X191003139Y-100017271D01*
X190833401Y-100271302D01*
X190617365Y-100487338D01*
X190363334Y-100657076D01*
X190081070Y-100773993D01*
X189931245Y-100803795D01*
X189781421Y-100833597D01*
X189475899Y-100833597D01*
X189326075Y-100803795D01*
X189176250Y-100773993D01*
X188893986Y-100657076D01*
X188639955Y-100487338D01*
X188423919Y-100271302D01*
X188254181Y-100017271D01*
X188137264Y-99735007D01*
X188077660Y-99435357D01*
X188077660Y-99129837D01*
X188137264Y-98830187D01*
X188254181Y-98547923D01*
X188423919Y-98293892D01*
X188639955Y-98077856D01*
X188893986Y-97908118D01*
X189176250Y-97791201D01*
X189326075Y-97761399D01*
X189475899Y-97731597D01*
X189781421Y-97731597D01*
X189931245Y-97761399D01*
X189931245Y-97761399D01*
G37*
G36*
X119146297Y-97918100D02*
G01*
X120181920Y-98698497D01*
X120181920Y-98698498D01*
X119777441Y-99235260D01*
X119097450Y-100137639D01*
X119097449Y-100137639D01*
X118165491Y-99435358D01*
X117658308Y-99053169D01*
X117658308Y-99053168D01*
X118355261Y-98128280D01*
X118742778Y-97614027D01*
X118742779Y-97614027D01*
X119146297Y-97918100D01*
X119146297Y-97918100D01*
G37*
G36*
X172883000Y-99959000D02*
G01*
X171281000Y-99959000D01*
X171281000Y-98157000D01*
X172883000Y-98157000D01*
X172883000Y-99959000D01*
X172883000Y-99959000D01*
G37*
G36*
X175683000Y-99959000D02*
G01*
X174081000Y-99959000D01*
X174081000Y-99057000D01*
X175683000Y-99057000D01*
X175683000Y-99959000D01*
X175683000Y-99959000D01*
G37*
G36*
X182063769Y-98183281D02*
G01*
X182569619Y-98854566D01*
X182569619Y-98854567D01*
X182064420Y-99235261D01*
X181130478Y-99939037D01*
X181130477Y-99939037D01*
X180399316Y-98968753D01*
X180046007Y-98499896D01*
X180046007Y-98499895D01*
X181065574Y-97731597D01*
X181485148Y-97415425D01*
X181485149Y-97415425D01*
X182063769Y-98183281D01*
X182063769Y-98183281D01*
G37*
G36*
X195248415Y-96509322D02*
G01*
X195398240Y-96539124D01*
X195680504Y-96656041D01*
X195934535Y-96825779D01*
X196150571Y-97041815D01*
X196320309Y-97295846D01*
X196437226Y-97578110D01*
X196437226Y-97578111D01*
X196493099Y-97859000D01*
X196496830Y-97877760D01*
X196496830Y-98183280D01*
X196437226Y-98482930D01*
X196320309Y-98765194D01*
X196150571Y-99019225D01*
X195934535Y-99235261D01*
X195680504Y-99404999D01*
X195398240Y-99521916D01*
X195248415Y-99551718D01*
X195098591Y-99581520D01*
X194793069Y-99581520D01*
X194643245Y-99551718D01*
X194493420Y-99521916D01*
X194211156Y-99404999D01*
X193957125Y-99235261D01*
X193741089Y-99019225D01*
X193571351Y-98765194D01*
X193454434Y-98482930D01*
X193394830Y-98183280D01*
X193394830Y-97877760D01*
X193398562Y-97859000D01*
X193454434Y-97578111D01*
X193454434Y-97578110D01*
X193571351Y-97295846D01*
X193741089Y-97041815D01*
X193957125Y-96825779D01*
X194211156Y-96656041D01*
X194493420Y-96539124D01*
X194643245Y-96509322D01*
X194793069Y-96479520D01*
X195098591Y-96479520D01*
X195248415Y-96509322D01*
X195248415Y-96509322D01*
G37*
G36*
X105917786Y-96997193D02*
G01*
X106111967Y-97077626D01*
X106111969Y-97077627D01*
X106286728Y-97194397D01*
X106435348Y-97343017D01*
X106446027Y-97359000D01*
X106552119Y-97517778D01*
X106632552Y-97711959D01*
X106673555Y-97918098D01*
X106673555Y-98128282D01*
X106632552Y-98334421D01*
X106552119Y-98528602D01*
X106552118Y-98528604D01*
X106435348Y-98703363D01*
X106286728Y-98851983D01*
X106111969Y-98968753D01*
X106111968Y-98968754D01*
X106111967Y-98968754D01*
X105917786Y-99049187D01*
X105711647Y-99090190D01*
X105501463Y-99090190D01*
X105295324Y-99049187D01*
X105101143Y-98968754D01*
X105101142Y-98968754D01*
X105101141Y-98968753D01*
X104926382Y-98851983D01*
X104777762Y-98703363D01*
X104660992Y-98528604D01*
X104660991Y-98528602D01*
X104580558Y-98334421D01*
X104539555Y-98128282D01*
X104539555Y-97918098D01*
X104580558Y-97711959D01*
X104660991Y-97517778D01*
X104767083Y-97359000D01*
X104777762Y-97343017D01*
X104926382Y-97194397D01*
X105101141Y-97077627D01*
X105101143Y-97077626D01*
X105295324Y-96997193D01*
X105501463Y-96956190D01*
X105711647Y-96956190D01*
X105917786Y-96997193D01*
X105917786Y-96997193D01*
G37*
G36*
X175683000Y-98359000D02*
G01*
X174081000Y-98359000D01*
X174081000Y-97657000D01*
X175683000Y-97657000D01*
X175683000Y-98359000D01*
X175683000Y-98359000D01*
G37*
G36*
X198572858Y-95157000D02*
G01*
X199453371Y-96325480D01*
X199453371Y-96325481D01*
X198537242Y-97015833D01*
X197295458Y-97951585D01*
X197295457Y-97951585D01*
X196186177Y-96479520D01*
X195669353Y-95793672D01*
X195669353Y-95793671D01*
X197346072Y-94530173D01*
X197827266Y-94167567D01*
X197827267Y-94167567D01*
X198572858Y-95157000D01*
X198572858Y-95157000D01*
G37*
G36*
X172883000Y-97859000D02*
G01*
X171281000Y-97859000D01*
X171281000Y-97157000D01*
X172883000Y-97157000D01*
X172883000Y-97859000D01*
X172883000Y-97859000D01*
G37*
G36*
X113725711Y-95736653D02*
G01*
X113812834Y-95753982D01*
X113922257Y-95799307D01*
X113976970Y-95821970D01*
X114075893Y-95888068D01*
X114124687Y-95920671D01*
X114250311Y-96046295D01*
X114250313Y-96046298D01*
X114349012Y-96194012D01*
X114349012Y-96194013D01*
X114417000Y-96358148D01*
X114417000Y-96358150D01*
X114445175Y-96499793D01*
X114451659Y-96532394D01*
X114451659Y-96710052D01*
X114417000Y-96884298D01*
X114387221Y-96956190D01*
X114349012Y-97048434D01*
X114276471Y-97157000D01*
X114250311Y-97196151D01*
X114124687Y-97321775D01*
X114124684Y-97321777D01*
X113976970Y-97420476D01*
X113922257Y-97443139D01*
X113812834Y-97488464D01*
X113725711Y-97505794D01*
X113638590Y-97523123D01*
X113460928Y-97523123D01*
X113373807Y-97505794D01*
X113286684Y-97488464D01*
X113177261Y-97443139D01*
X113122548Y-97420476D01*
X112974834Y-97321777D01*
X112974831Y-97321775D01*
X112849207Y-97196151D01*
X112823047Y-97157000D01*
X112750506Y-97048434D01*
X112712297Y-96956190D01*
X112682518Y-96884298D01*
X112647859Y-96710052D01*
X112647859Y-96532394D01*
X112654344Y-96499793D01*
X112682518Y-96358150D01*
X112682518Y-96358148D01*
X112750506Y-96194013D01*
X112750506Y-96194012D01*
X112849205Y-96046298D01*
X112849207Y-96046295D01*
X112974831Y-95920671D01*
X113023625Y-95888068D01*
X113122548Y-95821970D01*
X113177261Y-95799307D01*
X113286684Y-95753982D01*
X113373807Y-95736653D01*
X113460928Y-95719323D01*
X113638590Y-95719323D01*
X113725711Y-95736653D01*
X113725711Y-95736653D01*
G37*
G36*
X187148488Y-95704052D02*
G01*
X187235611Y-95721381D01*
X187345034Y-95766706D01*
X187399747Y-95789369D01*
X187546469Y-95887405D01*
X187547464Y-95888070D01*
X187673088Y-96013694D01*
X187673090Y-96013697D01*
X187771789Y-96161411D01*
X187771789Y-96161412D01*
X187839777Y-96325547D01*
X187846262Y-96358150D01*
X187874436Y-96499791D01*
X187874436Y-96677453D01*
X187867951Y-96710054D01*
X187839777Y-96851697D01*
X187796494Y-96956190D01*
X187771789Y-97015833D01*
X187677465Y-97157000D01*
X187673088Y-97163550D01*
X187547464Y-97289174D01*
X187547461Y-97289176D01*
X187399747Y-97387875D01*
X187345034Y-97410538D01*
X187235611Y-97455863D01*
X187148488Y-97473192D01*
X187061367Y-97490522D01*
X186883705Y-97490522D01*
X186796584Y-97473192D01*
X186709461Y-97455863D01*
X186600038Y-97410538D01*
X186545325Y-97387875D01*
X186397611Y-97289176D01*
X186397608Y-97289174D01*
X186271984Y-97163550D01*
X186267607Y-97157000D01*
X186173283Y-97015833D01*
X186148578Y-96956190D01*
X186105295Y-96851697D01*
X186077121Y-96710054D01*
X186070636Y-96677453D01*
X186070636Y-96499791D01*
X186098810Y-96358150D01*
X186105295Y-96325547D01*
X186173283Y-96161412D01*
X186173283Y-96161411D01*
X186271982Y-96013697D01*
X186271984Y-96013694D01*
X186397608Y-95888070D01*
X186398603Y-95887405D01*
X186545325Y-95789369D01*
X186600038Y-95766706D01*
X186709461Y-95721381D01*
X186796584Y-95704051D01*
X186883705Y-95686722D01*
X187061367Y-95686722D01*
X187148488Y-95704052D01*
X187148488Y-95704052D01*
G37*
G36*
X175683000Y-97359000D02*
G01*
X174081000Y-97359000D01*
X174081000Y-96657000D01*
X175683000Y-96657000D01*
X175683000Y-97359000D01*
X175683000Y-97359000D01*
G37*
G36*
X118684194Y-94103152D02*
G01*
X119914788Y-95030471D01*
X119914788Y-95030472D01*
X119514041Y-95562281D01*
X118288684Y-97188385D01*
X118288683Y-97188385D01*
X117347988Y-96479520D01*
X116130770Y-95562281D01*
X116130770Y-95562280D01*
X116978971Y-94436680D01*
X117756874Y-93404367D01*
X117756875Y-93404367D01*
X118684194Y-94103152D01*
X118684194Y-94103152D01*
G37*
G36*
X172883000Y-96859000D02*
G01*
X171281000Y-96859000D01*
X171281000Y-96157000D01*
X172883000Y-96157000D01*
X172883000Y-96859000D01*
X172883000Y-96859000D01*
G37*
G36*
X175683000Y-96359000D02*
G01*
X174081000Y-96359000D01*
X174081000Y-95657000D01*
X175683000Y-95657000D01*
X175683000Y-96359000D01*
X175683000Y-96359000D01*
G37*
G36*
X172883000Y-95859000D02*
G01*
X171281000Y-95859000D01*
X171281000Y-95157000D01*
X172883000Y-95157000D01*
X172883000Y-95859000D01*
X172883000Y-95859000D01*
G37*
G36*
X175683000Y-95359000D02*
G01*
X174081000Y-95359000D01*
X174081000Y-94657000D01*
X175683000Y-94657000D01*
X175683000Y-95359000D01*
X175683000Y-95359000D01*
G37*
G36*
X109672240Y-91613587D02*
G01*
X109993540Y-91746674D01*
X109993542Y-91746675D01*
X110282704Y-91939887D01*
X110528617Y-92185800D01*
X110711164Y-92459000D01*
X110721830Y-92474964D01*
X110854917Y-92796264D01*
X110922764Y-93137352D01*
X110922764Y-93485128D01*
X110854917Y-93826216D01*
X110775828Y-94017153D01*
X110721829Y-94147518D01*
X110528617Y-94436680D01*
X110282704Y-94682593D01*
X109993542Y-94875805D01*
X109993541Y-94875806D01*
X109993540Y-94875806D01*
X109672240Y-95008893D01*
X109331152Y-95076740D01*
X108983376Y-95076740D01*
X108642288Y-95008893D01*
X108320988Y-94875806D01*
X108320987Y-94875806D01*
X108320986Y-94875805D01*
X108031824Y-94682593D01*
X107785911Y-94436680D01*
X107592699Y-94147518D01*
X107538700Y-94017153D01*
X107459611Y-93826216D01*
X107391764Y-93485128D01*
X107391764Y-93137352D01*
X107459611Y-92796264D01*
X107592698Y-92474964D01*
X107603365Y-92459000D01*
X107785911Y-92185800D01*
X108031824Y-91939887D01*
X108320986Y-91746675D01*
X108320988Y-91746674D01*
X108642288Y-91613587D01*
X108983376Y-91545740D01*
X109331152Y-91545740D01*
X109672240Y-91613587D01*
X109672240Y-91613587D01*
G37*
G36*
X191880007Y-91580986D02*
G01*
X192201307Y-91714073D01*
X192201309Y-91714074D01*
X192490471Y-91907286D01*
X192736384Y-92153199D01*
X192895556Y-92391416D01*
X192929597Y-92442363D01*
X193062684Y-92763663D01*
X193130531Y-93104751D01*
X193130531Y-93452527D01*
X193062684Y-93793615D01*
X192929597Y-94114915D01*
X192929596Y-94114917D01*
X192736384Y-94404079D01*
X192490471Y-94649992D01*
X192201309Y-94843204D01*
X192201308Y-94843205D01*
X192201307Y-94843205D01*
X191880007Y-94976292D01*
X191538919Y-95044139D01*
X191191143Y-95044139D01*
X190850055Y-94976292D01*
X190528755Y-94843205D01*
X190528754Y-94843205D01*
X190528753Y-94843204D01*
X190239591Y-94649992D01*
X189993678Y-94404079D01*
X189800466Y-94114917D01*
X189800465Y-94114915D01*
X189667378Y-93793615D01*
X189599531Y-93452527D01*
X189599531Y-93104751D01*
X189667378Y-92763663D01*
X189800465Y-92442363D01*
X189834507Y-92391416D01*
X189993678Y-92153199D01*
X190239591Y-91907286D01*
X190528753Y-91714074D01*
X190528755Y-91714073D01*
X190850055Y-91580986D01*
X191191143Y-91513139D01*
X191538919Y-91513139D01*
X191880007Y-91580986D01*
X191880007Y-91580986D01*
G37*
G36*
X115709833Y-91804234D02*
G01*
X115859658Y-91834036D01*
X116141922Y-91950953D01*
X116395953Y-92120691D01*
X116611989Y-92336727D01*
X116781727Y-92590758D01*
X116898644Y-92873022D01*
X116898644Y-92873023D01*
X116958248Y-93172671D01*
X116958248Y-93478193D01*
X116928446Y-93628017D01*
X116898644Y-93777842D01*
X116781727Y-94060106D01*
X116611989Y-94314137D01*
X116395953Y-94530173D01*
X116141922Y-94699911D01*
X115859658Y-94816828D01*
X115727057Y-94843204D01*
X115560009Y-94876432D01*
X115254487Y-94876432D01*
X115087439Y-94843204D01*
X114954838Y-94816828D01*
X114672574Y-94699911D01*
X114418543Y-94530173D01*
X114202507Y-94314137D01*
X114032769Y-94060106D01*
X113915852Y-93777842D01*
X113886050Y-93628017D01*
X113856248Y-93478193D01*
X113856248Y-93172671D01*
X113915852Y-92873023D01*
X113915852Y-92873022D01*
X114032769Y-92590758D01*
X114202507Y-92336727D01*
X114418543Y-92120691D01*
X114672574Y-91950953D01*
X114954838Y-91834036D01*
X115104663Y-91804234D01*
X115254487Y-91774432D01*
X115560009Y-91774432D01*
X115709833Y-91804234D01*
X115709833Y-91804234D01*
G37*
G36*
X172883000Y-94859000D02*
G01*
X171281000Y-94859000D01*
X171281000Y-94157000D01*
X172883000Y-94157000D01*
X172883000Y-94859000D01*
X172883000Y-94859000D01*
G37*
G36*
X103188420Y-92310983D02*
G01*
X103382601Y-92391416D01*
X103382603Y-92391417D01*
X103557362Y-92508187D01*
X103705982Y-92656807D01*
X103799163Y-92796263D01*
X103822753Y-92831568D01*
X103903186Y-93025749D01*
X103944189Y-93231888D01*
X103944189Y-93442072D01*
X103903186Y-93648211D01*
X103842957Y-93793615D01*
X103822752Y-93842394D01*
X103705982Y-94017153D01*
X103557362Y-94165773D01*
X103382603Y-94282543D01*
X103382602Y-94282544D01*
X103382601Y-94282544D01*
X103188420Y-94362977D01*
X102982281Y-94403980D01*
X102772097Y-94403980D01*
X102565958Y-94362977D01*
X102371777Y-94282544D01*
X102371776Y-94282544D01*
X102371775Y-94282543D01*
X102197016Y-94165773D01*
X102048396Y-94017153D01*
X101931626Y-93842394D01*
X101911421Y-93793615D01*
X101851192Y-93648211D01*
X101810189Y-93442072D01*
X101810189Y-93231888D01*
X101851192Y-93025749D01*
X101931625Y-92831568D01*
X101955215Y-92796263D01*
X102048396Y-92656807D01*
X102197016Y-92508187D01*
X102371775Y-92391417D01*
X102371777Y-92391416D01*
X102565958Y-92310983D01*
X102772097Y-92269980D01*
X102982281Y-92269980D01*
X103188420Y-92310983D01*
X103188420Y-92310983D01*
G37*
G36*
X175683000Y-94359000D02*
G01*
X174081000Y-94359000D01*
X174081000Y-93657000D01*
X175683000Y-93657000D01*
X175683000Y-94359000D01*
X175683000Y-94359000D01*
G37*
G36*
X172883000Y-93859000D02*
G01*
X171281000Y-93859000D01*
X171281000Y-93157000D01*
X172883000Y-93157000D01*
X172883000Y-93859000D01*
X172883000Y-93859000D01*
G37*
G36*
X175683000Y-93359000D02*
G01*
X174081000Y-93359000D01*
X174081000Y-91557000D01*
X175683000Y-91557000D01*
X175683000Y-93359000D01*
X175683000Y-93359000D01*
G37*
G36*
X91603061Y-91357030D02*
G01*
X91669245Y-91363548D01*
X91839084Y-91415068D01*
X91995609Y-91498733D01*
X92031347Y-91528063D01*
X92132804Y-91611325D01*
X92216066Y-91712782D01*
X92245396Y-91748520D01*
X92329061Y-91905045D01*
X92380581Y-92074884D01*
X92397977Y-92251511D01*
X92380581Y-92428138D01*
X92329061Y-92597977D01*
X92245396Y-92754502D01*
X92216066Y-92790240D01*
X92132804Y-92891697D01*
X92031347Y-92974959D01*
X91995609Y-93004289D01*
X91839084Y-93087954D01*
X91669245Y-93139474D01*
X91603061Y-93145992D01*
X91536878Y-93152511D01*
X91448358Y-93152511D01*
X91382175Y-93145992D01*
X91315991Y-93139474D01*
X91146152Y-93087954D01*
X90989627Y-93004289D01*
X90953889Y-92974959D01*
X90852432Y-92891697D01*
X90769170Y-92790240D01*
X90739840Y-92754502D01*
X90656175Y-92597977D01*
X90604655Y-92428138D01*
X90587259Y-92251511D01*
X90604655Y-92074884D01*
X90656175Y-91905045D01*
X90739840Y-91748520D01*
X90769170Y-91712782D01*
X90852432Y-91611325D01*
X90953889Y-91528063D01*
X90989627Y-91498733D01*
X91146152Y-91415068D01*
X91315991Y-91363548D01*
X91382175Y-91357030D01*
X91448358Y-91350511D01*
X91536878Y-91350511D01*
X91603061Y-91357030D01*
X91603061Y-91357030D01*
G37*
G36*
X209125584Y-91203425D02*
G01*
X209191768Y-91209943D01*
X209361607Y-91261463D01*
X209518132Y-91345128D01*
X209553870Y-91374458D01*
X209655327Y-91457720D01*
X209727562Y-91545740D01*
X209767919Y-91594915D01*
X209851584Y-91751440D01*
X209903104Y-91921279D01*
X209920500Y-92097906D01*
X209903104Y-92274533D01*
X209851584Y-92444372D01*
X209767919Y-92600897D01*
X209738589Y-92636635D01*
X209655327Y-92738092D01*
X209553870Y-92821354D01*
X209518132Y-92850684D01*
X209361607Y-92934349D01*
X209191768Y-92985869D01*
X209125584Y-92992387D01*
X209059401Y-92998906D01*
X208970881Y-92998906D01*
X208904699Y-92992388D01*
X208838514Y-92985869D01*
X208668675Y-92934349D01*
X208512150Y-92850684D01*
X208476412Y-92821354D01*
X208374955Y-92738092D01*
X208291693Y-92636635D01*
X208262363Y-92600897D01*
X208178698Y-92444372D01*
X208127178Y-92274533D01*
X208109782Y-92097906D01*
X208127178Y-91921279D01*
X208178698Y-91751440D01*
X208262363Y-91594915D01*
X208302720Y-91545740D01*
X208374955Y-91457720D01*
X208476412Y-91374458D01*
X208512150Y-91345128D01*
X208668675Y-91261463D01*
X208838514Y-91209943D01*
X208904698Y-91203425D01*
X208970881Y-91196906D01*
X209059401Y-91196906D01*
X209125584Y-91203425D01*
X209125584Y-91203425D01*
G37*
G36*
X172883000Y-92459000D02*
G01*
X171281000Y-92459000D01*
X171281000Y-91557000D01*
X172883000Y-91557000D01*
X172883000Y-92459000D01*
X172883000Y-92459000D01*
G37*
G36*
X202933585Y-89395482D02*
G01*
X203679894Y-90385867D01*
X203679894Y-90385868D01*
X202565144Y-91225892D01*
X201521981Y-92011972D01*
X201521980Y-92011972D01*
X200415471Y-90543584D01*
X199895876Y-89854059D01*
X199895876Y-89854058D01*
X201126470Y-88926739D01*
X202053789Y-88227954D01*
X202053790Y-88227954D01*
X202933585Y-89395482D01*
X202933585Y-89395482D01*
G37*
G36*
X89574526Y-89828420D02*
G01*
X89640710Y-89834938D01*
X89810549Y-89886458D01*
X89967074Y-89970123D01*
X90002812Y-89999453D01*
X90104269Y-90082715D01*
X90187531Y-90184172D01*
X90216861Y-90219910D01*
X90300526Y-90376435D01*
X90352046Y-90546274D01*
X90369442Y-90722901D01*
X90352046Y-90899528D01*
X90300526Y-91069367D01*
X90216861Y-91225892D01*
X90187668Y-91261463D01*
X90104269Y-91363087D01*
X90002812Y-91446349D01*
X89967074Y-91475679D01*
X89810549Y-91559344D01*
X89640710Y-91610864D01*
X89574525Y-91617383D01*
X89508343Y-91623901D01*
X89419823Y-91623901D01*
X89353641Y-91617383D01*
X89287456Y-91610864D01*
X89117617Y-91559344D01*
X88961092Y-91475679D01*
X88925354Y-91446349D01*
X88823897Y-91363087D01*
X88740498Y-91261463D01*
X88711305Y-91225892D01*
X88627640Y-91069367D01*
X88576120Y-90899528D01*
X88558724Y-90722901D01*
X88576120Y-90546274D01*
X88627640Y-90376435D01*
X88711305Y-90219910D01*
X88740635Y-90184172D01*
X88823897Y-90082715D01*
X88925354Y-89999453D01*
X88961092Y-89970123D01*
X89117617Y-89886458D01*
X89287456Y-89834938D01*
X89353640Y-89828420D01*
X89419823Y-89821901D01*
X89508343Y-89821901D01*
X89574526Y-89828420D01*
X89574526Y-89828420D01*
G37*
G36*
X211154118Y-89674814D02*
G01*
X211220303Y-89681333D01*
X211390142Y-89732853D01*
X211546667Y-89816518D01*
X211582405Y-89845848D01*
X211683862Y-89929110D01*
X211767124Y-90030567D01*
X211796454Y-90066305D01*
X211880119Y-90222830D01*
X211931639Y-90392669D01*
X211949035Y-90569296D01*
X211931639Y-90745923D01*
X211880119Y-90915762D01*
X211796454Y-91072287D01*
X211767124Y-91108025D01*
X211683862Y-91209482D01*
X211582405Y-91292744D01*
X211546667Y-91322074D01*
X211390142Y-91405739D01*
X211220303Y-91457259D01*
X211154119Y-91463777D01*
X211087936Y-91470296D01*
X210999416Y-91470296D01*
X210933234Y-91463778D01*
X210867049Y-91457259D01*
X210697210Y-91405739D01*
X210540685Y-91322074D01*
X210504947Y-91292744D01*
X210403490Y-91209482D01*
X210320228Y-91108025D01*
X210290898Y-91072287D01*
X210207233Y-90915762D01*
X210155713Y-90745923D01*
X210138317Y-90569296D01*
X210155713Y-90392669D01*
X210207233Y-90222830D01*
X210290898Y-90066305D01*
X210320228Y-90030567D01*
X210403490Y-89929110D01*
X210504947Y-89845848D01*
X210540685Y-89816518D01*
X210697210Y-89732853D01*
X210867049Y-89681333D01*
X210933234Y-89674814D01*
X210999416Y-89668296D01*
X211087936Y-89668296D01*
X211154118Y-89674814D01*
X211154118Y-89674814D01*
G37*
G36*
X104940721Y-89116687D02*
G01*
X105027844Y-89134016D01*
X105113274Y-89169403D01*
X105191980Y-89202004D01*
X105290903Y-89268102D01*
X105339697Y-89300705D01*
X105465321Y-89426329D01*
X105465323Y-89426332D01*
X105564022Y-89574046D01*
X105571743Y-89592686D01*
X105632010Y-89738182D01*
X105632010Y-89738184D01*
X105661504Y-89886458D01*
X105666669Y-89912428D01*
X105666669Y-90090086D01*
X105632010Y-90264332D01*
X105586685Y-90373755D01*
X105564022Y-90428468D01*
X105487106Y-90543581D01*
X105465321Y-90576185D01*
X105339697Y-90701809D01*
X105339694Y-90701811D01*
X105191980Y-90800510D01*
X105137267Y-90823173D01*
X105027844Y-90868498D01*
X104940721Y-90885827D01*
X104853600Y-90903157D01*
X104675938Y-90903157D01*
X104588817Y-90885827D01*
X104501694Y-90868498D01*
X104392271Y-90823173D01*
X104337558Y-90800510D01*
X104189844Y-90701811D01*
X104189841Y-90701809D01*
X104064217Y-90576185D01*
X104042432Y-90543581D01*
X103965516Y-90428468D01*
X103942853Y-90373755D01*
X103897528Y-90264332D01*
X103862869Y-90090086D01*
X103862869Y-89912428D01*
X103868035Y-89886458D01*
X103897528Y-89738184D01*
X103897528Y-89738182D01*
X103957795Y-89592686D01*
X103965516Y-89574046D01*
X104064215Y-89426332D01*
X104064217Y-89426329D01*
X104189841Y-89300705D01*
X104238635Y-89268102D01*
X104337558Y-89202004D01*
X104416264Y-89169403D01*
X104501694Y-89134016D01*
X104588817Y-89116686D01*
X104675938Y-89099357D01*
X104853600Y-89099357D01*
X104940721Y-89116687D01*
X104940721Y-89116687D01*
G37*
G36*
X195933478Y-89084085D02*
G01*
X196020601Y-89101415D01*
X196108255Y-89137723D01*
X196184737Y-89169403D01*
X196300661Y-89246861D01*
X196332454Y-89268104D01*
X196458078Y-89393728D01*
X196458080Y-89393731D01*
X196556779Y-89541445D01*
X196570283Y-89574046D01*
X196624767Y-89705581D01*
X196631252Y-89738184D01*
X196659426Y-89879825D01*
X196659426Y-90057487D01*
X196652941Y-90090088D01*
X196624767Y-90231731D01*
X196579442Y-90341154D01*
X196556779Y-90395867D01*
X196458743Y-90542589D01*
X196458078Y-90543584D01*
X196332454Y-90669208D01*
X196332451Y-90669210D01*
X196184737Y-90767909D01*
X196130024Y-90790572D01*
X196020601Y-90835897D01*
X195933478Y-90853226D01*
X195846357Y-90870556D01*
X195668695Y-90870556D01*
X195581574Y-90853227D01*
X195494451Y-90835897D01*
X195385028Y-90790572D01*
X195330315Y-90767909D01*
X195182601Y-90669210D01*
X195182598Y-90669208D01*
X195056974Y-90543584D01*
X195056309Y-90542589D01*
X194958273Y-90395867D01*
X194935610Y-90341154D01*
X194890285Y-90231731D01*
X194862111Y-90090088D01*
X194855626Y-90057487D01*
X194855626Y-89879825D01*
X194883800Y-89738184D01*
X194890285Y-89705581D01*
X194944769Y-89574046D01*
X194958273Y-89541445D01*
X195056972Y-89393731D01*
X195056974Y-89393728D01*
X195182598Y-89268104D01*
X195214391Y-89246861D01*
X195330315Y-89169403D01*
X195406797Y-89137723D01*
X195494451Y-89101415D01*
X195581574Y-89084086D01*
X195668695Y-89066756D01*
X195846357Y-89066756D01*
X195933478Y-89084085D01*
X195933478Y-89084085D01*
G37*
G36*
X113040648Y-87038161D02*
G01*
X113190473Y-87067963D01*
X113472737Y-87184880D01*
X113726768Y-87354618D01*
X113942804Y-87570654D01*
X114112542Y-87824685D01*
X114229459Y-88106949D01*
X114289063Y-88406599D01*
X114289063Y-88712119D01*
X114229459Y-89011769D01*
X114112542Y-89294033D01*
X113942804Y-89548064D01*
X113726768Y-89764100D01*
X113472737Y-89933838D01*
X113190473Y-90050755D01*
X113040648Y-90080557D01*
X112890824Y-90110359D01*
X112585302Y-90110359D01*
X112435478Y-90080557D01*
X112285653Y-90050755D01*
X112003389Y-89933838D01*
X111749358Y-89764100D01*
X111533322Y-89548064D01*
X111363584Y-89294033D01*
X111246667Y-89011769D01*
X111187063Y-88712119D01*
X111187063Y-88406599D01*
X111246667Y-88106949D01*
X111363584Y-87824685D01*
X111533322Y-87570654D01*
X111749358Y-87354618D01*
X112003389Y-87184880D01*
X112285653Y-87067963D01*
X112435478Y-87038161D01*
X112585302Y-87008359D01*
X112890824Y-87008359D01*
X113040648Y-87038161D01*
X113040648Y-87038161D01*
G37*
G36*
X87545992Y-88299810D02*
G01*
X87612176Y-88306328D01*
X87782015Y-88357848D01*
X87938540Y-88441513D01*
X87974278Y-88470843D01*
X88075735Y-88554105D01*
X88158997Y-88655562D01*
X88188327Y-88691300D01*
X88271992Y-88847825D01*
X88323512Y-89017664D01*
X88340908Y-89194291D01*
X88323512Y-89370918D01*
X88271992Y-89540757D01*
X88188327Y-89697282D01*
X88181516Y-89705581D01*
X88075735Y-89834477D01*
X87980752Y-89912426D01*
X87938540Y-89947069D01*
X87782015Y-90030734D01*
X87612176Y-90082254D01*
X87545992Y-90088772D01*
X87479809Y-90095291D01*
X87391289Y-90095291D01*
X87325106Y-90088772D01*
X87258922Y-90082254D01*
X87089083Y-90030734D01*
X86932558Y-89947069D01*
X86890346Y-89912426D01*
X86795363Y-89834477D01*
X86689582Y-89705581D01*
X86682771Y-89697282D01*
X86599106Y-89540757D01*
X86547586Y-89370918D01*
X86530190Y-89194291D01*
X86547586Y-89017664D01*
X86599106Y-88847825D01*
X86682771Y-88691300D01*
X86712101Y-88655562D01*
X86795363Y-88554105D01*
X86896820Y-88470843D01*
X86932558Y-88441513D01*
X87089083Y-88357848D01*
X87258922Y-88306328D01*
X87325106Y-88299810D01*
X87391289Y-88293291D01*
X87479809Y-88293291D01*
X87545992Y-88299810D01*
X87545992Y-88299810D01*
G37*
G36*
X213182653Y-88146205D02*
G01*
X213248837Y-88152723D01*
X213418676Y-88204243D01*
X213575201Y-88287908D01*
X213610939Y-88317238D01*
X213712396Y-88400500D01*
X213777987Y-88480424D01*
X213824988Y-88537695D01*
X213908653Y-88694220D01*
X213960173Y-88864059D01*
X213977569Y-89040686D01*
X213960173Y-89217313D01*
X213908653Y-89387152D01*
X213908652Y-89387154D01*
X213887712Y-89426329D01*
X213824988Y-89543677D01*
X213800065Y-89574046D01*
X213712396Y-89680872D01*
X213610982Y-89764099D01*
X213575201Y-89793464D01*
X213498474Y-89834476D01*
X213461839Y-89854058D01*
X213418676Y-89877129D01*
X213248837Y-89928649D01*
X213196151Y-89933838D01*
X213116470Y-89941686D01*
X213027950Y-89941686D01*
X212948269Y-89933838D01*
X212895583Y-89928649D01*
X212725744Y-89877129D01*
X212682582Y-89854058D01*
X212645946Y-89834476D01*
X212569219Y-89793464D01*
X212533438Y-89764099D01*
X212432024Y-89680872D01*
X212344355Y-89574046D01*
X212319432Y-89543677D01*
X212256708Y-89426329D01*
X212235768Y-89387154D01*
X212235767Y-89387152D01*
X212184247Y-89217313D01*
X212166851Y-89040686D01*
X212184247Y-88864059D01*
X212235767Y-88694220D01*
X212319432Y-88537695D01*
X212366433Y-88480424D01*
X212432024Y-88400500D01*
X212533481Y-88317238D01*
X212569219Y-88287908D01*
X212725744Y-88204243D01*
X212895583Y-88152723D01*
X212961767Y-88146205D01*
X213027950Y-88139686D01*
X213116470Y-88139686D01*
X213182653Y-88146205D01*
X213182653Y-88146205D01*
G37*
G36*
X204706002Y-86627821D02*
G01*
X204855827Y-86657623D01*
X205138091Y-86774540D01*
X205392122Y-86944278D01*
X205608158Y-87160314D01*
X205777896Y-87414345D01*
X205894813Y-87696609D01*
X205954417Y-87996259D01*
X205954417Y-88301779D01*
X205894813Y-88601429D01*
X205777896Y-88883693D01*
X205608158Y-89137724D01*
X205392122Y-89353760D01*
X205138091Y-89523498D01*
X204855827Y-89640415D01*
X204706002Y-89670217D01*
X204556178Y-89700019D01*
X204250656Y-89700019D01*
X204100832Y-89670217D01*
X203951007Y-89640415D01*
X203668743Y-89523498D01*
X203414712Y-89353760D01*
X203198676Y-89137724D01*
X203028938Y-88883693D01*
X202912021Y-88601429D01*
X202852417Y-88301779D01*
X202852417Y-87996259D01*
X202912021Y-87696609D01*
X203028938Y-87414345D01*
X203198676Y-87160314D01*
X203414712Y-86944278D01*
X203668743Y-86774540D01*
X203951007Y-86657623D01*
X204100832Y-86627821D01*
X204250656Y-86598019D01*
X204556178Y-86598019D01*
X204706002Y-86627821D01*
X204706002Y-86627821D01*
G37*
G36*
X188125553Y-87540692D02*
G01*
X188319734Y-87621125D01*
X188319736Y-87621126D01*
X188494495Y-87737896D01*
X188643115Y-87886516D01*
X188759885Y-88061275D01*
X188759886Y-88061277D01*
X188840319Y-88255458D01*
X188881322Y-88461597D01*
X188881322Y-88671781D01*
X188840319Y-88877920D01*
X188762100Y-89066756D01*
X188759885Y-89072103D01*
X188643115Y-89246862D01*
X188494495Y-89395482D01*
X188319736Y-89512252D01*
X188319735Y-89512253D01*
X188319734Y-89512253D01*
X188125553Y-89592686D01*
X187919414Y-89633689D01*
X187709230Y-89633689D01*
X187503091Y-89592686D01*
X187308910Y-89512253D01*
X187308909Y-89512253D01*
X187308908Y-89512252D01*
X187134149Y-89395482D01*
X186985529Y-89246862D01*
X186868759Y-89072103D01*
X186866544Y-89066756D01*
X186788325Y-88877920D01*
X186747322Y-88671781D01*
X186747322Y-88461597D01*
X186788325Y-88255458D01*
X186868758Y-88061277D01*
X186868759Y-88061275D01*
X186985529Y-87886516D01*
X187134149Y-87737896D01*
X187308908Y-87621126D01*
X187308910Y-87621125D01*
X187503091Y-87540692D01*
X187709230Y-87499689D01*
X187919414Y-87499689D01*
X188125553Y-87540692D01*
X188125553Y-87540692D01*
G37*
G36*
X85661580Y-86729335D02*
G01*
X86668821Y-87488345D01*
X86668821Y-87488346D01*
X86206639Y-88101682D01*
X85584351Y-88927487D01*
X85584350Y-88927487D01*
X84939440Y-88441512D01*
X84145209Y-87843017D01*
X84145209Y-87843016D01*
X84629120Y-87200845D01*
X85229679Y-86403875D01*
X85229680Y-86403875D01*
X85661580Y-86729335D01*
X85661580Y-86729335D01*
G37*
G36*
X215880495Y-87049703D02*
G01*
X216362550Y-87689411D01*
X216362550Y-87689412D01*
X215679345Y-88204243D01*
X214923409Y-88773882D01*
X214923408Y-88773882D01*
X214254731Y-87886517D01*
X213838938Y-87334741D01*
X213838938Y-87334740D01*
X214874250Y-86554577D01*
X215278079Y-86250270D01*
X215278080Y-86250270D01*
X215880495Y-87049703D01*
X215880495Y-87049703D01*
G37*
G36*
X110557526Y-85224571D02*
G01*
X112014541Y-86322510D01*
X112014541Y-86322511D01*
X111406311Y-87129659D01*
X110388437Y-88480424D01*
X110388436Y-88480424D01*
X109403069Y-87737896D01*
X108230523Y-86854320D01*
X108230523Y-86854319D01*
X109062146Y-85750719D01*
X109856627Y-84696406D01*
X109856628Y-84696406D01*
X110557526Y-85224571D01*
X110557526Y-85224571D01*
G37*
G36*
X210023172Y-85375744D02*
G01*
X210172997Y-85405546D01*
X210455261Y-85522463D01*
X210709292Y-85692201D01*
X210925328Y-85908237D01*
X211095066Y-86162268D01*
X211211983Y-86444532D01*
X211271587Y-86744182D01*
X211271587Y-87049702D01*
X211211983Y-87349352D01*
X211095066Y-87631616D01*
X210925328Y-87885647D01*
X210709292Y-88101683D01*
X210455261Y-88271421D01*
X210172997Y-88388338D01*
X210023172Y-88418140D01*
X209873348Y-88447942D01*
X209567826Y-88447942D01*
X209418002Y-88418140D01*
X209268177Y-88388338D01*
X208985913Y-88271421D01*
X208731882Y-88101683D01*
X208515846Y-87885647D01*
X208346108Y-87631616D01*
X208229191Y-87349352D01*
X208169587Y-87049702D01*
X208169587Y-86744182D01*
X208229191Y-86444532D01*
X208346108Y-86162268D01*
X208515846Y-85908237D01*
X208731882Y-85692201D01*
X208985913Y-85522463D01*
X209268177Y-85405546D01*
X209418002Y-85375744D01*
X209567826Y-85345942D01*
X209873348Y-85345942D01*
X210023172Y-85375744D01*
X210023172Y-85375744D01*
G37*
G36*
X193382542Y-86208752D02*
G01*
X193571204Y-86286899D01*
X193576725Y-86289186D01*
X193751484Y-86405956D01*
X193900104Y-86554576D01*
X194016874Y-86729335D01*
X194016875Y-86729337D01*
X194097308Y-86923518D01*
X194138311Y-87129657D01*
X194138311Y-87339841D01*
X194097308Y-87545980D01*
X194025886Y-87718406D01*
X194016874Y-87740163D01*
X193900104Y-87914922D01*
X193751484Y-88063542D01*
X193576725Y-88180312D01*
X193576724Y-88180313D01*
X193576723Y-88180313D01*
X193382542Y-88260746D01*
X193176403Y-88301749D01*
X192966219Y-88301749D01*
X192760080Y-88260746D01*
X192565899Y-88180313D01*
X192565898Y-88180313D01*
X192565897Y-88180312D01*
X192391138Y-88063542D01*
X192242518Y-87914922D01*
X192125748Y-87740163D01*
X192116736Y-87718406D01*
X192045314Y-87545980D01*
X192004311Y-87339841D01*
X192004311Y-87129657D01*
X192045314Y-86923518D01*
X192125747Y-86729337D01*
X192125748Y-86729335D01*
X192242518Y-86554576D01*
X192391138Y-86405956D01*
X192565897Y-86289186D01*
X192571418Y-86286899D01*
X192760080Y-86208752D01*
X192966219Y-86167749D01*
X193176403Y-86167749D01*
X193382542Y-86208752D01*
X193382542Y-86208752D01*
G37*
G36*
X91143029Y-85863616D02*
G01*
X91337210Y-85944049D01*
X91337212Y-85944050D01*
X91511971Y-86060820D01*
X91660591Y-86209440D01*
X91777361Y-86384199D01*
X91777362Y-86384201D01*
X91857795Y-86578382D01*
X91898798Y-86784521D01*
X91898798Y-86994705D01*
X91857795Y-87200844D01*
X91794099Y-87354618D01*
X91777361Y-87395027D01*
X91660591Y-87569786D01*
X91511971Y-87718406D01*
X91337212Y-87835176D01*
X91337211Y-87835177D01*
X91337210Y-87835177D01*
X91143029Y-87915610D01*
X90936890Y-87956613D01*
X90726706Y-87956613D01*
X90520567Y-87915610D01*
X90326386Y-87835177D01*
X90326385Y-87835177D01*
X90326384Y-87835176D01*
X90151625Y-87718406D01*
X90003005Y-87569786D01*
X89886235Y-87395027D01*
X89869497Y-87354618D01*
X89805801Y-87200844D01*
X89764798Y-86994705D01*
X89764798Y-86784521D01*
X89805801Y-86578382D01*
X89886234Y-86384201D01*
X89886235Y-86384199D01*
X90003005Y-86209440D01*
X90151625Y-86060820D01*
X90326384Y-85944050D01*
X90326386Y-85944049D01*
X90520567Y-85863616D01*
X90726706Y-85822613D01*
X90936890Y-85822613D01*
X91143029Y-85863616D01*
X91143029Y-85863616D01*
G37*
G36*
X213236008Y-83875315D02*
G01*
X214228128Y-85191902D01*
X214228128Y-85191903D01*
X213115976Y-86029969D01*
X212070215Y-86818007D01*
X212070214Y-86818007D01*
X210869474Y-85224571D01*
X210444110Y-84660094D01*
X210444110Y-84660093D01*
X211895578Y-83566334D01*
X212602023Y-83033989D01*
X212602024Y-83033989D01*
X213236008Y-83875315D01*
X213236008Y-83875315D01*
G37*
G36*
X98950954Y-84603075D02*
G01*
X99038077Y-84620405D01*
X99123505Y-84655791D01*
X99202213Y-84688393D01*
X99301134Y-84754490D01*
X99349930Y-84787094D01*
X99475554Y-84912718D01*
X99475556Y-84912721D01*
X99574255Y-85060435D01*
X99574255Y-85060436D01*
X99642243Y-85224571D01*
X99676902Y-85398817D01*
X99676902Y-85576475D01*
X99642243Y-85750721D01*
X99612464Y-85822613D01*
X99574255Y-85914857D01*
X99497340Y-86029969D01*
X99475554Y-86062574D01*
X99349930Y-86188198D01*
X99349927Y-86188200D01*
X99202213Y-86286899D01*
X99147500Y-86309562D01*
X99038077Y-86354887D01*
X98950954Y-86372217D01*
X98863833Y-86389546D01*
X98686171Y-86389546D01*
X98599050Y-86372217D01*
X98511927Y-86354887D01*
X98402504Y-86309562D01*
X98347791Y-86286899D01*
X98200077Y-86188200D01*
X98200074Y-86188198D01*
X98074450Y-86062574D01*
X98052664Y-86029969D01*
X97975749Y-85914857D01*
X97937540Y-85822613D01*
X97907761Y-85750721D01*
X97873102Y-85576475D01*
X97873102Y-85398817D01*
X97907761Y-85224571D01*
X97975749Y-85060436D01*
X97975749Y-85060435D01*
X98074448Y-84912721D01*
X98074450Y-84912718D01*
X98200074Y-84787094D01*
X98248870Y-84754490D01*
X98347791Y-84688393D01*
X98426499Y-84655791D01*
X98511927Y-84620405D01*
X98599050Y-84603075D01*
X98686171Y-84585746D01*
X98863833Y-84585746D01*
X98950954Y-84603075D01*
X98950954Y-84603075D01*
G37*
G36*
X201923245Y-84570473D02*
G01*
X202010368Y-84587803D01*
X202119791Y-84633128D01*
X202174504Y-84655791D01*
X202321226Y-84753827D01*
X202322221Y-84754492D01*
X202447845Y-84880116D01*
X202447847Y-84880119D01*
X202546546Y-85027833D01*
X202569209Y-85082546D01*
X202614534Y-85191969D01*
X202649193Y-85366215D01*
X202649193Y-85543873D01*
X202614534Y-85718119D01*
X202571250Y-85822613D01*
X202546546Y-85882255D01*
X202505256Y-85944050D01*
X202447845Y-86029972D01*
X202322221Y-86155596D01*
X202322218Y-86155598D01*
X202174504Y-86254297D01*
X202119791Y-86276960D01*
X202010368Y-86322285D01*
X201923245Y-86339614D01*
X201836124Y-86356944D01*
X201658462Y-86356944D01*
X201571341Y-86339614D01*
X201484218Y-86322285D01*
X201374795Y-86276960D01*
X201320082Y-86254297D01*
X201172368Y-86155598D01*
X201172365Y-86155596D01*
X201046741Y-86029972D01*
X200989330Y-85944050D01*
X200948040Y-85882255D01*
X200923336Y-85822613D01*
X200880052Y-85718119D01*
X200845393Y-85543873D01*
X200845393Y-85366215D01*
X200880052Y-85191969D01*
X200925377Y-85082546D01*
X200948040Y-85027833D01*
X201046739Y-84880119D01*
X201046741Y-84880116D01*
X201172365Y-84754492D01*
X201173360Y-84753827D01*
X201320082Y-84655791D01*
X201374795Y-84633128D01*
X201484218Y-84587803D01*
X201571341Y-84570474D01*
X201658462Y-84553144D01*
X201836124Y-84553144D01*
X201923245Y-84570473D01*
X201923245Y-84570473D01*
G37*
G36*
X103909437Y-82969575D02*
G01*
X105140031Y-83896894D01*
X105140031Y-83896895D01*
X104564920Y-84660093D01*
X103513927Y-86054808D01*
X103513926Y-86054808D01*
X102573230Y-85345942D01*
X101356013Y-84428704D01*
X101356013Y-84428703D01*
X102259754Y-83229399D01*
X102982117Y-82270790D01*
X102982118Y-82270790D01*
X103909437Y-82969575D01*
X103909437Y-82969575D01*
G37*
G36*
X94897483Y-80480010D02*
G01*
X95140077Y-80580496D01*
X95218785Y-80613098D01*
X95260326Y-80640855D01*
X95507947Y-80806310D01*
X95753860Y-81052223D01*
X95947073Y-81341387D01*
X96080160Y-81662687D01*
X96148007Y-82003775D01*
X96148007Y-82351551D01*
X96080160Y-82692639D01*
X96001071Y-82883576D01*
X95947072Y-83013941D01*
X95753860Y-83303103D01*
X95507947Y-83549016D01*
X95218785Y-83742228D01*
X95218784Y-83742229D01*
X95218783Y-83742229D01*
X94897483Y-83875316D01*
X94556395Y-83943163D01*
X94208619Y-83943163D01*
X93867531Y-83875316D01*
X93546231Y-83742229D01*
X93546230Y-83742229D01*
X93546229Y-83742228D01*
X93257067Y-83549016D01*
X93011154Y-83303103D01*
X92817942Y-83013941D01*
X92763943Y-82883576D01*
X92684854Y-82692639D01*
X92617007Y-82351551D01*
X92617007Y-82003775D01*
X92684854Y-81662687D01*
X92817941Y-81341387D01*
X93011154Y-81052223D01*
X93257067Y-80806310D01*
X93504688Y-80640855D01*
X93546229Y-80613098D01*
X93624937Y-80580496D01*
X93867531Y-80480010D01*
X94208619Y-80412163D01*
X94556395Y-80412163D01*
X94897483Y-80480010D01*
X94897483Y-80480010D01*
G37*
G36*
X206654764Y-80447408D02*
G01*
X206976064Y-80580495D01*
X206976066Y-80580496D01*
X207265228Y-80773708D01*
X207511141Y-81019621D01*
X207616570Y-81177406D01*
X207704354Y-81308785D01*
X207837441Y-81630085D01*
X207905288Y-81971173D01*
X207905288Y-82318949D01*
X207837441Y-82660037D01*
X207744848Y-82883575D01*
X207704353Y-82981339D01*
X207511141Y-83270501D01*
X207265228Y-83516414D01*
X206976066Y-83709626D01*
X206976065Y-83709627D01*
X206976064Y-83709627D01*
X206654764Y-83842714D01*
X206313676Y-83910561D01*
X205965900Y-83910561D01*
X205624812Y-83842714D01*
X205303512Y-83709627D01*
X205303511Y-83709627D01*
X205303510Y-83709626D01*
X205014348Y-83516414D01*
X204768435Y-83270501D01*
X204575223Y-82981339D01*
X204534728Y-82883575D01*
X204442135Y-82660037D01*
X204374288Y-82318949D01*
X204374288Y-81971173D01*
X204442135Y-81630085D01*
X204575222Y-81308785D01*
X204663007Y-81177406D01*
X204768435Y-81019621D01*
X205014348Y-80773708D01*
X205303510Y-80580496D01*
X205303512Y-80580495D01*
X205624812Y-80447408D01*
X205965900Y-80379561D01*
X206313676Y-80379561D01*
X206654764Y-80447408D01*
X206654764Y-80447408D01*
G37*
G36*
X100935076Y-80670657D02*
G01*
X101084901Y-80700459D01*
X101367165Y-80817376D01*
X101621196Y-80987114D01*
X101837232Y-81203150D01*
X102006970Y-81457181D01*
X102106715Y-81697989D01*
X102123887Y-81739446D01*
X102183491Y-82039094D01*
X102183491Y-82344616D01*
X102153689Y-82494440D01*
X102123887Y-82644265D01*
X102006970Y-82926529D01*
X101837232Y-83180560D01*
X101621196Y-83396596D01*
X101367165Y-83566334D01*
X101084901Y-83683251D01*
X100952305Y-83709626D01*
X100785252Y-83742855D01*
X100479730Y-83742855D01*
X100312677Y-83709626D01*
X100180081Y-83683251D01*
X99897817Y-83566334D01*
X99643786Y-83396596D01*
X99427750Y-83180560D01*
X99258012Y-82926529D01*
X99141095Y-82644265D01*
X99111293Y-82494440D01*
X99081491Y-82344616D01*
X99081491Y-82039094D01*
X99141095Y-81739446D01*
X99158267Y-81697989D01*
X99258012Y-81457181D01*
X99427750Y-81203150D01*
X99643786Y-80987114D01*
X99897817Y-80817376D01*
X100180081Y-80700459D01*
X100329906Y-80670657D01*
X100479730Y-80640855D01*
X100785252Y-80640855D01*
X100935076Y-80670657D01*
X100935076Y-80670657D01*
G37*
G36*
X88413663Y-81177406D02*
G01*
X88607844Y-81257839D01*
X88607846Y-81257840D01*
X88782605Y-81374610D01*
X88931225Y-81523230D01*
X89002622Y-81630084D01*
X89047996Y-81697991D01*
X89128429Y-81892172D01*
X89169432Y-82098311D01*
X89169432Y-82308495D01*
X89128429Y-82514634D01*
X89068200Y-82660038D01*
X89047995Y-82708817D01*
X88931225Y-82883576D01*
X88782605Y-83032196D01*
X88607846Y-83148966D01*
X88607845Y-83148967D01*
X88607844Y-83148967D01*
X88413663Y-83229400D01*
X88207524Y-83270403D01*
X87997340Y-83270403D01*
X87791201Y-83229400D01*
X87597020Y-83148967D01*
X87597019Y-83148967D01*
X87597018Y-83148966D01*
X87422259Y-83032196D01*
X87273639Y-82883576D01*
X87156869Y-82708817D01*
X87136664Y-82660038D01*
X87076435Y-82514634D01*
X87035432Y-82308495D01*
X87035432Y-82098311D01*
X87076435Y-81892172D01*
X87156868Y-81697991D01*
X87202242Y-81630084D01*
X87273639Y-81523230D01*
X87422259Y-81374610D01*
X87597018Y-81257840D01*
X87597020Y-81257839D01*
X87791201Y-81177406D01*
X87997340Y-81136403D01*
X88207524Y-81136403D01*
X88413663Y-81177406D01*
X88413663Y-81177406D01*
G37*
G36*
X90165964Y-77983110D02*
G01*
X90253087Y-78000439D01*
X90338515Y-78035825D01*
X90417223Y-78068427D01*
X90484356Y-78113284D01*
X90564940Y-78167128D01*
X90690564Y-78292752D01*
X90690566Y-78292755D01*
X90789265Y-78440469D01*
X90811928Y-78495182D01*
X90857253Y-78604605D01*
X90891912Y-78778851D01*
X90891912Y-78956509D01*
X90857253Y-79130755D01*
X90811928Y-79240178D01*
X90789265Y-79294891D01*
X90712350Y-79410003D01*
X90690564Y-79442608D01*
X90564940Y-79568232D01*
X90564937Y-79568234D01*
X90417223Y-79666933D01*
X90362510Y-79689596D01*
X90253087Y-79734921D01*
X90165964Y-79752250D01*
X90078843Y-79769580D01*
X89901181Y-79769580D01*
X89814060Y-79752250D01*
X89726937Y-79734921D01*
X89617514Y-79689596D01*
X89562801Y-79666933D01*
X89415087Y-79568234D01*
X89415084Y-79568232D01*
X89289460Y-79442608D01*
X89267674Y-79410003D01*
X89190759Y-79294891D01*
X89168096Y-79240178D01*
X89122771Y-79130755D01*
X89088112Y-78956509D01*
X89088112Y-78778851D01*
X89122771Y-78604605D01*
X89168096Y-78495182D01*
X89190759Y-78440469D01*
X89289458Y-78292755D01*
X89289460Y-78292752D01*
X89415084Y-78167128D01*
X89495668Y-78113284D01*
X89562801Y-78068427D01*
X89641509Y-78035825D01*
X89726937Y-78000439D01*
X89814060Y-77983110D01*
X89901181Y-77965780D01*
X90078843Y-77965780D01*
X90165964Y-77983110D01*
X90165964Y-77983110D01*
G37*
G36*
X210708235Y-77950507D02*
G01*
X210795358Y-77967837D01*
X210904781Y-78013162D01*
X210959494Y-78035825D01*
X211075418Y-78113283D01*
X211107211Y-78134526D01*
X211232835Y-78260150D01*
X211232837Y-78260153D01*
X211331536Y-78407867D01*
X211352760Y-78459107D01*
X211399524Y-78572003D01*
X211434183Y-78746249D01*
X211434183Y-78923907D01*
X211399524Y-79098153D01*
X211354199Y-79207576D01*
X211331536Y-79262289D01*
X211309752Y-79294891D01*
X211232835Y-79410006D01*
X211107211Y-79535630D01*
X211107208Y-79535632D01*
X210959494Y-79634331D01*
X210904781Y-79656994D01*
X210795358Y-79702319D01*
X210708235Y-79719649D01*
X210621114Y-79736978D01*
X210443452Y-79736978D01*
X210356331Y-79719648D01*
X210269208Y-79702319D01*
X210159785Y-79656994D01*
X210105072Y-79634331D01*
X209957358Y-79535632D01*
X209957355Y-79535630D01*
X209831731Y-79410006D01*
X209754814Y-79294891D01*
X209733030Y-79262289D01*
X209710367Y-79207576D01*
X209665042Y-79098153D01*
X209630383Y-78923907D01*
X209630383Y-78746249D01*
X209665042Y-78572003D01*
X209711806Y-78459107D01*
X209733030Y-78407867D01*
X209831729Y-78260153D01*
X209831731Y-78260150D01*
X209957355Y-78134526D01*
X209989148Y-78113283D01*
X210105072Y-78035825D01*
X210159785Y-78013162D01*
X210269208Y-77967837D01*
X210356331Y-77950507D01*
X210443452Y-77933178D01*
X210621114Y-77933178D01*
X210708235Y-77950507D01*
X210708235Y-77950507D01*
G37*
G36*
X98265891Y-75904584D02*
G01*
X98415716Y-75934386D01*
X98697980Y-76051303D01*
X98952011Y-76221041D01*
X99168047Y-76437077D01*
X99337785Y-76691108D01*
X99454702Y-76973372D01*
X99514306Y-77273022D01*
X99514306Y-77578542D01*
X99454702Y-77878192D01*
X99337785Y-78160456D01*
X99168047Y-78414487D01*
X98952011Y-78630523D01*
X98697980Y-78800261D01*
X98415716Y-78917178D01*
X98265891Y-78946980D01*
X98116067Y-78976782D01*
X97810545Y-78976782D01*
X97660721Y-78946980D01*
X97510896Y-78917178D01*
X97228632Y-78800261D01*
X96974601Y-78630523D01*
X96758565Y-78414487D01*
X96588827Y-78160456D01*
X96471910Y-77878192D01*
X96412306Y-77578542D01*
X96412306Y-77273022D01*
X96471910Y-76973372D01*
X96588827Y-76691108D01*
X96758565Y-76437077D01*
X96974601Y-76221041D01*
X97228632Y-76051303D01*
X97510896Y-75934386D01*
X97660721Y-75904584D01*
X97810545Y-75874782D01*
X98116067Y-75874782D01*
X98265891Y-75904584D01*
X98265891Y-75904584D01*
G37*
G36*
X202900310Y-76407114D02*
G01*
X203094491Y-76487547D01*
X203094493Y-76487548D01*
X203269252Y-76604318D01*
X203417872Y-76752938D01*
X203436852Y-76781344D01*
X203534643Y-76927699D01*
X203615076Y-77121880D01*
X203656079Y-77328019D01*
X203656079Y-77538203D01*
X203615076Y-77744342D01*
X203559633Y-77878192D01*
X203534642Y-77938525D01*
X203417872Y-78113284D01*
X203269252Y-78261904D01*
X203094493Y-78378674D01*
X203094492Y-78378675D01*
X203094491Y-78378675D01*
X202900310Y-78459108D01*
X202694171Y-78500111D01*
X202483987Y-78500111D01*
X202277848Y-78459108D01*
X202083667Y-78378675D01*
X202083666Y-78378675D01*
X202083665Y-78378674D01*
X201908906Y-78261904D01*
X201760286Y-78113284D01*
X201643516Y-77938525D01*
X201618525Y-77878192D01*
X201563082Y-77744342D01*
X201522079Y-77538203D01*
X201522079Y-77328019D01*
X201563082Y-77121880D01*
X201643515Y-76927699D01*
X201741306Y-76781344D01*
X201760286Y-76752938D01*
X201908906Y-76604318D01*
X202083665Y-76487548D01*
X202083667Y-76487547D01*
X202277848Y-76407114D01*
X202483987Y-76366111D01*
X202694171Y-76366111D01*
X202900310Y-76407114D01*
X202900310Y-76407114D01*
G37*
G36*
X96009190Y-74261614D02*
G01*
X97239784Y-75188933D01*
X97239784Y-75188934D01*
X96839037Y-75720743D01*
X95613680Y-77346847D01*
X95613679Y-77346847D01*
X94406374Y-76437077D01*
X93455766Y-75720743D01*
X93455766Y-75720742D01*
X94154551Y-74793423D01*
X95081870Y-73562829D01*
X95081871Y-73562829D01*
X96009190Y-74261614D01*
X96009190Y-74261614D01*
G37*
G36*
X208157299Y-75075174D02*
G01*
X208351480Y-75155607D01*
X208351482Y-75155608D01*
X208526241Y-75272378D01*
X208674861Y-75420998D01*
X208791631Y-75595757D01*
X208791632Y-75595759D01*
X208872065Y-75789940D01*
X208913068Y-75996079D01*
X208913068Y-76206263D01*
X208872065Y-76412402D01*
X208840938Y-76487548D01*
X208791631Y-76606585D01*
X208674861Y-76781344D01*
X208526241Y-76929964D01*
X208351482Y-77046734D01*
X208351481Y-77046735D01*
X208351480Y-77046735D01*
X208157299Y-77127168D01*
X207951160Y-77168171D01*
X207740976Y-77168171D01*
X207534837Y-77127168D01*
X207340656Y-77046735D01*
X207340655Y-77046735D01*
X207340654Y-77046734D01*
X207165895Y-76929964D01*
X207017275Y-76781344D01*
X206900505Y-76606585D01*
X206851198Y-76487548D01*
X206820071Y-76412402D01*
X206779068Y-76206263D01*
X206779068Y-75996079D01*
X206820071Y-75789940D01*
X206900504Y-75595759D01*
X206900505Y-75595757D01*
X207017275Y-75420998D01*
X207165895Y-75272378D01*
X207340654Y-75155608D01*
X207340656Y-75155607D01*
X207534837Y-75075174D01*
X207740976Y-75034171D01*
X207951160Y-75034171D01*
X208157299Y-75075174D01*
X208157299Y-75075174D01*
G37*
G36*
X150269207Y-55863767D02*
G01*
X150335392Y-55870286D01*
X150505231Y-55921806D01*
X150661756Y-56005471D01*
X150697494Y-56034801D01*
X150798951Y-56118063D01*
X150882213Y-56219520D01*
X150911543Y-56255258D01*
X150995208Y-56411783D01*
X151046728Y-56581622D01*
X151064124Y-56758249D01*
X151046728Y-56934876D01*
X150995208Y-57104715D01*
X150911543Y-57261240D01*
X150882213Y-57296978D01*
X150798951Y-57398435D01*
X150697494Y-57481697D01*
X150661756Y-57511027D01*
X150505231Y-57594692D01*
X150335392Y-57646212D01*
X150269207Y-57652731D01*
X150203025Y-57659249D01*
X150114505Y-57659249D01*
X150048323Y-57652731D01*
X149982138Y-57646212D01*
X149812299Y-57594692D01*
X149655774Y-57511027D01*
X149620036Y-57481697D01*
X149518579Y-57398435D01*
X149435317Y-57296978D01*
X149405987Y-57261240D01*
X149322322Y-57104715D01*
X149270802Y-56934876D01*
X149253406Y-56758249D01*
X149270802Y-56581622D01*
X149322322Y-56411783D01*
X149405987Y-56255258D01*
X149435317Y-56219520D01*
X149518579Y-56118063D01*
X149620036Y-56034801D01*
X149655774Y-56005471D01*
X149812299Y-55921806D01*
X149982138Y-55870286D01*
X150048323Y-55863767D01*
X150114505Y-55857249D01*
X150203025Y-55857249D01*
X150269207Y-55863767D01*
X150269207Y-55863767D01*
G37*
G36*
X150269208Y-53323768D02*
G01*
X150335392Y-53330286D01*
X150505231Y-53381806D01*
X150661756Y-53465471D01*
X150697494Y-53494801D01*
X150798951Y-53578063D01*
X150882213Y-53679520D01*
X150911543Y-53715258D01*
X150995208Y-53871783D01*
X151046728Y-54041622D01*
X151064124Y-54218249D01*
X151046728Y-54394876D01*
X150995208Y-54564715D01*
X150911543Y-54721240D01*
X150882213Y-54756978D01*
X150798951Y-54858435D01*
X150697494Y-54941697D01*
X150661756Y-54971027D01*
X150505231Y-55054692D01*
X150335392Y-55106212D01*
X150269208Y-55112730D01*
X150203025Y-55119249D01*
X150114505Y-55119249D01*
X150048322Y-55112730D01*
X149982138Y-55106212D01*
X149812299Y-55054692D01*
X149655774Y-54971027D01*
X149620036Y-54941697D01*
X149518579Y-54858435D01*
X149435317Y-54756978D01*
X149405987Y-54721240D01*
X149322322Y-54564715D01*
X149270802Y-54394876D01*
X149253406Y-54218249D01*
X149270802Y-54041622D01*
X149322322Y-53871783D01*
X149405987Y-53715258D01*
X149435317Y-53679520D01*
X149518579Y-53578063D01*
X149620036Y-53494801D01*
X149655774Y-53465471D01*
X149812299Y-53381806D01*
X149982138Y-53330286D01*
X150048322Y-53323768D01*
X150114505Y-53317249D01*
X150203025Y-53317249D01*
X150269208Y-53323768D01*
X150269208Y-53323768D01*
G37*
G36*
X150269208Y-50783768D02*
G01*
X150335392Y-50790286D01*
X150505231Y-50841806D01*
X150661756Y-50925471D01*
X150697494Y-50954801D01*
X150798951Y-51038063D01*
X150882213Y-51139520D01*
X150911543Y-51175258D01*
X150995208Y-51331783D01*
X151046728Y-51501622D01*
X151064124Y-51678249D01*
X151046728Y-51854876D01*
X150995208Y-52024715D01*
X150911543Y-52181240D01*
X150882213Y-52216978D01*
X150798951Y-52318435D01*
X150697494Y-52401697D01*
X150661756Y-52431027D01*
X150505231Y-52514692D01*
X150335392Y-52566212D01*
X150269208Y-52572730D01*
X150203025Y-52579249D01*
X150114505Y-52579249D01*
X150048322Y-52572730D01*
X149982138Y-52566212D01*
X149812299Y-52514692D01*
X149655774Y-52431027D01*
X149620036Y-52401697D01*
X149518579Y-52318435D01*
X149435317Y-52216978D01*
X149405987Y-52181240D01*
X149322322Y-52024715D01*
X149270802Y-51854876D01*
X149253406Y-51678249D01*
X149270802Y-51501622D01*
X149322322Y-51331783D01*
X149405987Y-51175258D01*
X149435317Y-51139520D01*
X149518579Y-51038063D01*
X149620036Y-50954801D01*
X149655774Y-50925471D01*
X149812299Y-50841806D01*
X149982138Y-50790286D01*
X150048322Y-50783768D01*
X150114505Y-50777249D01*
X150203025Y-50777249D01*
X150269208Y-50783768D01*
X150269208Y-50783768D01*
G37*
G36*
X151059765Y-50039249D02*
G01*
X149257765Y-50039249D01*
X149257765Y-48237249D01*
X151059765Y-48237249D01*
X151059765Y-50039249D01*
X151059765Y-50039249D01*
G37*
M02*
