M48
; DRILL file {KiCad (5.1.4)-1} date 3/14/2023 2:53:57 PM
; FORMAT={-:-/ absolute / metric / decimal}
; #@! TF.CreationDate,2023-03-14T14:53:57-04:00
; #@! TF.GenerationSoftware,Kicad,Pcbnew,(5.1.4)-1
; #@! TF.FileFunction,Plated,1,2,PTH
FMAT,2
METRIC
T1C1.000
T2C1.270
%
G90
G05
T1
X181.308Y-98.677
X182.836Y-100.706
X184.365Y-102.734
X185.894Y-104.763
X114.334Y-104.961
X115.863Y-102.933
X117.392Y-100.904
X118.92Y-98.876
X85.407Y-87.666
X87.436Y-89.194
X89.464Y-90.723
X91.493Y-92.252
X209.015Y-92.098
X211.044Y-90.569
X213.072Y-89.041
X215.101Y-87.512
X150.159Y-49.138
X150.159Y-51.678
X150.159Y-54.218
X150.159Y-56.758
T2
X102.877Y-93.337
X105.607Y-98.023
X88.102Y-82.203
X90.832Y-86.89
X187.814Y-88.567
X193.071Y-87.235
X202.589Y-77.433
X207.846Y-76.101
T0
M30
