M48
; DRILL file {KiCad (5.1.4)-1} date 3/14/2023 2:53:57 PM
; FORMAT={-:-/ absolute / metric / decimal}
; #@! TF.CreationDate,2023-03-14T14:53:57-04:00
; #@! TF.GenerationSoftware,Kicad,Pcbnew,(5.1.4)-1
; #@! TF.FileFunction,NonPlated,1,2,NPTH
FMAT,2
METRIC
T1C1.702
T2C3.000
T3C3.429
%
G90
G05
T1
X104.765Y-90.001
X89.99Y-78.868
X98.775Y-85.488
X201.747Y-85.455
X210.532Y-78.835
X113.55Y-96.621
X186.973Y-96.589
X195.758Y-89.969
T2
X204.403Y-88.149
X209.721Y-86.897
X112.738Y-88.559
X115.407Y-93.325
X97.963Y-77.426
X100.632Y-82.192
X189.629Y-99.283
X194.946Y-98.031
T3
X109.157Y-93.311
X94.383Y-82.178
X191.365Y-93.279
X206.14Y-82.145
T0
M30
